G04 ================== begin FILE IDENTIFICATION RECORD ==================*
G04 Layout Name:  PMOD2BNCSIMPLE_v1_06_65mil.brd*
G04 Film Name:    Soldermask_Top*
G04 File Format:  Gerber RS274X*
G04 File Origin:  Cadence Allegro 23.1-P001*
G04 Origin Date:  Tue Nov 21 15:58:02 2023*
G04 *
G04 Layer:  VIA CLASS/SOLDERMASK_TOP*
G04 Layer:  PIN/SOLDERMASK_TOP*
G04 *
G04 Offset:    (0.0000 0.0000)*
G04 Mirror:    No*
G04 Mode:      Positive*
G04 Rotation:  0*
G04 FullContactRelief:  No*
G04 UndefLineWidth:     0.0000*
G04 ================== end FILE IDENTIFICATION RECORD ====================*
%FSLAX55Y55*MOIN*%
%IR0*IPPOS*OFA0.00000B0.00000*MIA0B0*SFA1.00000B1.00000*%
%ADD10C,.02*%
%ADD12C,.05*%
%ADD11R,.0512X.0453*%
%LPD*%
G75*
G54D10*
X15180Y18380D03*
X15920Y12860D03*
X9820Y17540D03*
Y11970D03*
X13470Y7750D03*
X15180Y35090D03*
Y29520D03*
Y23950D03*
X9820Y34250D03*
Y28680D03*
Y23110D03*
X6000Y20810D03*
Y30810D03*
X16910Y54820D03*
X12680Y51210D03*
X15180Y46230D03*
Y40660D03*
X9290Y55580D03*
X7320Y50360D03*
X9820Y45390D03*
Y39820D03*
X6000Y40810D03*
X17320Y68860D03*
Y63290D03*
X13230Y59510D03*
X6000Y60810D03*
X14430Y94820D03*
X6000Y80810D03*
X11000Y81000D03*
X10230Y98490D03*
X9820Y104040D03*
Y109610D03*
X18450Y100180D03*
X15180Y104680D03*
Y110250D03*
X6000Y100810D03*
Y110810D03*
X11220Y115000D03*
X16110Y117680D03*
X6000Y130810D03*
X11000Y131000D03*
X12320Y151400D03*
X16260Y147460D03*
X17320Y141990D03*
X6000Y150810D03*
X17640Y160180D03*
X13130Y156910D03*
X6000Y160800D03*
X17320Y185640D03*
X6000Y180810D03*
X11000Y181000D03*
X18090Y199820D03*
X12520D03*
X15890Y195390D03*
X15660Y205180D03*
X10090D03*
X5600Y201880D03*
X4850Y196360D03*
X17320Y218860D03*
X17910Y213320D03*
X6000Y210810D03*
X11000Y211000D03*
X16000D03*
X6000Y230810D03*
X11000Y231000D03*
X19820Y16830D03*
X35180Y14250D03*
X19020Y7320D03*
X23860Y10080D03*
X25180Y15490D03*
X29820Y17990D03*
Y12420D03*
X33210Y8000D03*
X19820Y22400D03*
Y27970D03*
Y33540D03*
X35180Y36530D03*
Y30960D03*
Y25390D03*
Y19820D03*
X25180Y21060D03*
Y26630D03*
Y32200D03*
X29820Y34700D03*
Y29130D03*
Y23560D03*
X19820Y39110D03*
Y44680D03*
X21290Y50060D03*
X26200Y52680D03*
X31740Y52050D03*
X35180Y47670D03*
Y42100D03*
X25180Y37770D03*
Y43340D03*
X29820Y40270D03*
X37320Y61290D03*
Y66860D03*
Y72430D03*
X22680Y68860D03*
Y63290D03*
X21610Y57820D03*
X31000Y61000D03*
X37320Y78000D03*
Y83570D03*
Y89140D03*
X36560Y94650D03*
X20000Y94820D03*
X31000Y81000D03*
X21000Y91000D03*
X25500Y95720D03*
X34040Y100180D03*
X28470Y100310D03*
X23430Y102680D03*
X20740Y110480D03*
X26290Y110010D03*
X31360Y112320D03*
X36930D03*
X21650Y117130D03*
X37320Y120870D03*
Y126440D03*
Y132010D03*
X21000Y121000D03*
X31000Y131000D03*
X37320Y137580D03*
Y143150D03*
Y148720D03*
X21810Y149480D03*
X22680Y143970D03*
X31000Y151000D03*
X36940Y154280D03*
X31400Y154820D03*
X25830D03*
X20260D03*
X34350Y160180D03*
X28780D03*
X23210D03*
X21000Y171000D03*
X22680Y186660D03*
X31000Y181000D03*
X34700Y209080D03*
X21850Y209380D03*
X27030Y207340D03*
X31780Y204440D03*
X35720Y200500D03*
X27710Y196000D03*
X23660Y199820D03*
X19830Y191450D03*
X34640Y196640D03*
X30700Y200580D03*
X26760Y204520D03*
X21230Y205180D03*
X22680Y218860D03*
X25000Y213800D03*
X30450Y212680D03*
X31000Y231000D03*
X21000Y241000D03*
X39820Y17320D03*
X38740Y7320D03*
X43680Y9900D03*
X45180Y15260D03*
X50470Y16670D03*
X51000Y11000D03*
X39820Y22890D03*
Y28460D03*
Y34030D03*
X52230Y36550D03*
X52680Y31000D03*
Y25430D03*
X45180Y20830D03*
Y26400D03*
Y31970D03*
X56000Y30990D03*
X53730Y55900D03*
X54490Y40140D03*
X50550Y44080D03*
X46610Y48020D03*
X42670Y51960D03*
X38730Y55900D03*
X53540Y48650D03*
X49600Y52590D03*
X45660Y56530D03*
X42580Y38870D03*
X48000Y40180D03*
X49790Y59830D03*
X47320Y64830D03*
Y70400D03*
Y75970D03*
X52790Y64410D03*
X52680Y69980D03*
Y75550D03*
X42680Y61230D03*
Y66800D03*
Y72370D03*
X46000Y61000D03*
X56000D03*
X47320Y81540D03*
Y87110D03*
Y92680D03*
X52680Y81120D03*
Y86690D03*
Y92260D03*
X42680Y77940D03*
Y83510D03*
Y89080D03*
Y94650D03*
X47320Y98250D03*
Y103820D03*
Y109390D03*
X52680Y97830D03*
Y103400D03*
Y108970D03*
X39530Y99250D03*
X47320Y114960D03*
Y120530D03*
Y126100D03*
Y131670D03*
X52680Y114540D03*
Y120110D03*
Y125680D03*
Y131250D03*
X41610Y115330D03*
X42680Y120800D03*
Y126370D03*
Y131940D03*
X47320Y137240D03*
Y142810D03*
Y148380D03*
X52680Y136820D03*
Y142390D03*
Y147960D03*
X42680Y137510D03*
Y143080D03*
Y148650D03*
X47320Y153950D03*
Y159520D03*
Y165090D03*
Y170660D03*
X52680Y153530D03*
Y159100D03*
Y164670D03*
Y170240D03*
X42680Y154220D03*
X39800Y158990D03*
X41000Y171000D03*
X54390Y189390D03*
X47540Y188680D03*
X51470Y184740D03*
X55410Y180800D03*
X47320Y176230D03*
X43470Y180250D03*
X39530Y184190D03*
X52680Y175810D03*
X50390Y180890D03*
X46460Y184830D03*
X42520Y188770D03*
X38640Y205140D03*
X42580Y201200D03*
X46520Y197270D03*
X50460Y193330D03*
X39660Y196560D03*
X43600Y192620D03*
X38580Y192700D03*
X51000Y201000D03*
X41000Y211000D03*
X51000D03*
X41000Y221000D03*
X51000D03*
X41000Y231000D03*
X51000D03*
X41000Y241000D03*
X51000D03*
X61000Y11000D03*
X71000D03*
Y21000D03*
Y31000D03*
X75640Y50590D03*
X71700Y54520D03*
X67120Y55070D03*
X57670Y51960D03*
X66000Y41000D03*
X71000Y51000D03*
X67760Y58460D03*
X67320Y64020D03*
Y69590D03*
Y75160D03*
X75130Y58660D03*
X72680Y63660D03*
Y69230D03*
Y74800D03*
X62680Y75700D03*
Y70130D03*
Y64560D03*
X63180Y59010D03*
X57320Y75310D03*
Y69740D03*
Y64170D03*
X67320Y80730D03*
Y86300D03*
Y91870D03*
X72680Y80370D03*
Y85940D03*
Y91510D03*
X62680Y92410D03*
Y86840D03*
Y81270D03*
X57320Y92020D03*
Y86450D03*
Y80880D03*
X67320Y97440D03*
Y103010D03*
Y108580D03*
Y114150D03*
X72680Y97080D03*
Y102650D03*
Y108220D03*
Y113790D03*
X62680Y109120D03*
Y103550D03*
Y97980D03*
X57320Y114300D03*
Y108730D03*
Y103160D03*
Y97590D03*
X67320Y119720D03*
Y125290D03*
Y130860D03*
X72680Y119360D03*
Y124930D03*
Y130500D03*
X62680Y131400D03*
Y125830D03*
Y120260D03*
Y114690D03*
X57320Y131010D03*
Y125440D03*
Y119870D03*
X67320Y136430D03*
Y142000D03*
Y147570D03*
X72680Y136070D03*
Y141640D03*
Y147210D03*
Y152780D03*
X62680Y148110D03*
Y142540D03*
Y136970D03*
X57320Y147720D03*
Y142150D03*
Y136580D03*
X67320Y153140D03*
Y158710D03*
Y164280D03*
Y169850D03*
X72680Y158350D03*
Y163920D03*
Y169490D03*
X62680Y170390D03*
Y164820D03*
Y159250D03*
Y153680D03*
X57320Y170000D03*
Y164430D03*
Y158860D03*
Y153290D03*
X67320Y175420D03*
Y180990D03*
Y186560D03*
X72680Y175060D03*
Y180630D03*
Y186200D03*
X58330Y185450D03*
X62270Y181510D03*
X62680Y175960D03*
X57320Y175570D03*
X61000Y191000D03*
X67320Y192130D03*
Y197700D03*
Y203270D03*
X69580Y208360D03*
X74840Y210180D03*
X72680Y191770D03*
Y197340D03*
Y202910D03*
X61000Y201000D03*
Y211000D03*
X71000D03*
X61000Y221000D03*
X71000D03*
X61000Y231000D03*
X71000D03*
X61000Y241000D03*
X71000D03*
X81000Y11000D03*
X91000D03*
X79070Y54720D03*
X87680Y50450D03*
Y56020D03*
X94630Y52680D03*
X77320Y60770D03*
Y66340D03*
Y71910D03*
X83780Y60000D03*
X82680Y65460D03*
Y71030D03*
X92680Y72900D03*
Y67330D03*
X87320Y74520D03*
Y68950D03*
X87810Y63400D03*
X92080Y59820D03*
X77320Y77480D03*
Y83050D03*
Y88620D03*
Y94190D03*
X82680Y76600D03*
Y82170D03*
Y87740D03*
Y93310D03*
X94630Y94820D03*
X92680Y89610D03*
Y84040D03*
Y78470D03*
X87320Y91230D03*
Y85660D03*
Y80090D03*
X77320Y99760D03*
Y105330D03*
Y110900D03*
X82680Y98880D03*
Y104450D03*
Y110020D03*
X87320Y114510D03*
X90940Y110270D03*
X92380Y100180D03*
X87980Y96760D03*
X77320Y116470D03*
Y122040D03*
Y127610D03*
Y133180D03*
X82680Y115590D03*
Y121160D03*
Y126730D03*
Y132300D03*
X92680Y131100D03*
Y125530D03*
Y119960D03*
X87320Y131220D03*
Y125650D03*
Y120080D03*
X77320Y138750D03*
Y144320D03*
Y149890D03*
X82680Y137870D03*
Y143440D03*
Y149010D03*
X94940Y147320D03*
X92680Y142240D03*
Y136670D03*
X90910Y152190D03*
X87320Y147930D03*
Y142360D03*
Y136790D03*
X86000Y151000D03*
X77320Y155460D03*
Y161030D03*
X79760Y166040D03*
X85080Y167680D03*
X90370Y165920D03*
X92850Y160930D03*
X82680Y154580D03*
Y160150D03*
X87930Y158290D03*
X92290Y154820D03*
X86000Y161000D03*
X81000Y171000D03*
X91000D03*
X81000Y181000D03*
X91000D03*
X81000Y191000D03*
X91000D03*
X80410Y210180D03*
X85980D03*
X91550D03*
X77900Y204820D03*
X83470D03*
X89040D03*
X94610D03*
X81000Y201000D03*
X91000D03*
X81000Y221000D03*
X91000D03*
X81000Y231000D03*
X91000D03*
X81000Y241000D03*
X91000D03*
X101000Y11000D03*
X111000D03*
Y21000D03*
X105180Y52530D03*
X99820Y54700D03*
X112310Y43530D03*
X108370Y39590D03*
X109800Y51080D03*
X107310Y46090D03*
X103040Y63250D03*
X105180Y58100D03*
X97650Y59820D03*
X111000Y61000D03*
Y71000D03*
X107320Y91140D03*
X112680D03*
X101000Y81000D03*
X106090Y112690D03*
X107680Y107360D03*
Y101790D03*
X105460Y96680D03*
X96490Y109820D03*
X102030Y109190D03*
X102320Y103630D03*
X97950Y100180D03*
X111840Y100620D03*
X112320Y106170D03*
X112920Y111710D03*
X101000Y101000D03*
X95530Y115180D03*
X111000Y121000D03*
X101000Y131000D03*
X111650Y147320D03*
X106080D03*
X100510D03*
X113170Y152680D03*
X107600D03*
X102030D03*
X96460D03*
X111000Y141000D03*
X98370Y160180D03*
X103940D03*
X109510D03*
X97860Y154820D03*
X103430D03*
X109000D03*
X111000Y171000D03*
X101000Y181000D03*
X111000Y191000D03*
X97120Y210180D03*
X100180Y204820D03*
X105440Y206660D03*
X101000Y201000D03*
X111000D03*
X102570Y211350D03*
X106510Y215290D03*
X107320Y220800D03*
X109380Y210600D03*
X112680Y215090D03*
Y220660D03*
X101000Y231000D03*
X111000Y241000D03*
X132680Y16650D03*
X132370Y11080D03*
X128260Y7320D03*
X122800Y8420D03*
X119820Y13130D03*
X127320Y18400D03*
X126590Y12880D03*
X116000Y11000D03*
X132680Y33360D03*
Y27790D03*
Y22220D03*
X119820Y18700D03*
Y24270D03*
Y29840D03*
Y35410D03*
X127320Y35110D03*
Y29540D03*
Y23970D03*
X132680Y55640D03*
Y50070D03*
Y44500D03*
Y38930D03*
X117320Y40390D03*
Y45960D03*
X127320Y51820D03*
Y46250D03*
Y40680D03*
X123500Y40280D03*
X122680Y45790D03*
X120400Y50880D03*
X115130Y52680D03*
X132680Y72350D03*
Y66780D03*
Y61210D03*
X127320Y74100D03*
Y68530D03*
Y62960D03*
Y57390D03*
X121000Y61000D03*
X132680Y94630D03*
Y89060D03*
Y83490D03*
Y77920D03*
X127320Y90810D03*
Y85240D03*
Y79670D03*
X121000Y81000D03*
X132450Y111330D03*
X132680Y105770D03*
Y100200D03*
X114990Y96210D03*
X117680Y101090D03*
Y106660D03*
X122260Y109820D03*
X127320Y107520D03*
Y101950D03*
Y96380D03*
X121000Y101000D03*
X121140Y132680D03*
X126700Y132980D03*
X121140Y127320D03*
X126710D03*
X131480Y130200D03*
X128420Y115180D03*
X131000Y121000D03*
X127320Y138520D03*
Y144090D03*
X122790Y147320D03*
X117220D03*
X132680Y135640D03*
Y141210D03*
Y146780D03*
X129760Y151520D03*
X124310Y152680D03*
X118740D03*
X115080Y160180D03*
X120650D03*
X125860Y162140D03*
X127320Y167520D03*
X114570Y154820D03*
X120140D03*
X125710D03*
X129840Y158560D03*
X132680Y163350D03*
Y168920D03*
X127320Y173090D03*
X123710Y177320D03*
X118140D03*
X132680Y174490D03*
X129630Y179150D03*
X125310Y182680D03*
X119740D03*
X131000Y191000D03*
X121000Y201000D03*
X131000D03*
X121000Y211000D03*
X131000D03*
Y221000D03*
X121000Y231000D03*
X131000D03*
Y241000D03*
X134820Y18520D03*
Y12950D03*
X137910Y8310D03*
X143390Y7320D03*
X147440Y11150D03*
X147680Y16720D03*
X141320Y15450D03*
X151000Y11000D03*
X134820Y35230D03*
Y29660D03*
Y24090D03*
X145710Y33070D03*
X141320Y26590D03*
Y21020D03*
X140000Y32500D03*
Y37500D03*
X145670Y55180D03*
X140100D03*
X135600Y51880D03*
X134820Y46370D03*
Y40800D03*
X152380Y51100D03*
X146960Y49820D03*
X141390D03*
X140180Y44390D03*
X145470Y42680D03*
X134820Y75650D03*
Y70080D03*
Y64510D03*
X138440Y60270D03*
X144000Y59820D03*
X149530Y59190D03*
X140180Y73400D03*
Y67830D03*
X145070Y65180D03*
X134820Y92360D03*
Y86790D03*
Y81220D03*
X140180Y90110D03*
Y84540D03*
Y78970D03*
X151000Y81000D03*
X149630Y108410D03*
X144910Y111370D03*
X139500Y112680D03*
X135270Y109050D03*
X134820Y103500D03*
Y97930D03*
X151800Y103020D03*
X146260Y102450D03*
X142330Y106390D03*
X140180Y101250D03*
Y95680D03*
X148860Y127320D03*
X143290D03*
X137820Y128390D03*
X134820Y133090D03*
X148860Y132680D03*
X143290D03*
X141000Y121000D03*
X134820Y138660D03*
Y144230D03*
X135910Y149690D03*
X140610Y152680D03*
X146180D03*
X151750D03*
X140180Y137290D03*
Y142860D03*
X143510Y147320D03*
X149080D03*
X137320Y167410D03*
X137410Y161840D03*
X141070Y157650D03*
X142680Y169550D03*
Y163980D03*
X146740Y160180D03*
X152310D03*
X148860Y182680D03*
X143320Y182090D03*
X139380Y178150D03*
X137320Y172980D03*
X148860Y177320D03*
X143800Y175000D03*
X141000Y191000D03*
Y201000D03*
X151000D03*
X141000Y211000D03*
X151000D03*
X141000Y221000D03*
Y231000D03*
X151000D03*
X141000Y241000D03*
X161000Y11000D03*
X171000D03*
X161000Y21000D03*
Y31000D03*
X155180Y55920D03*
X170270Y54820D03*
X164700D03*
X162680Y49640D03*
X157320Y51720D03*
X168720Y50010D03*
X161000Y41000D03*
X166000Y51000D03*
X154810Y61480D03*
X168670Y60180D03*
X163100D03*
X158400Y57180D03*
X161000Y71000D03*
X162680Y91140D03*
X157320D03*
X171000Y81000D03*
X162680Y96710D03*
Y102280D03*
Y107850D03*
X159130Y112150D03*
X153570Y112350D03*
X157320Y96710D03*
Y102280D03*
X170960Y109820D03*
X167680Y105330D03*
X169790Y100180D03*
X162520Y111310D03*
X165570Y95640D03*
X161000Y121000D03*
X171000Y131000D03*
X157320Y152680D03*
X162890D03*
X168460D03*
X154650Y147320D03*
X160220D03*
X165790D03*
X171360D03*
X161000Y141000D03*
X157880Y160180D03*
X163450D03*
X169020D03*
X161000Y171000D03*
X171000Y181000D03*
X161000Y191000D03*
X163770Y209950D03*
X167710Y206010D03*
X171650Y202070D03*
X161000Y201000D03*
X166000D03*
X162680Y218860D03*
X166490Y214800D03*
X170420Y210860D03*
X157320Y218860D03*
X159830Y213890D03*
X171000Y231000D03*
X161000Y241000D03*
X181000Y11000D03*
X191000D03*
X175510Y56720D03*
X172660Y53940D03*
X188160Y56880D03*
X190170Y55180D03*
X182680Y70770D03*
Y65200D03*
X179450Y60660D03*
X177320Y72330D03*
Y66760D03*
X173730Y62510D03*
X187320Y76120D03*
Y70550D03*
X182680Y93050D03*
Y87480D03*
Y81910D03*
Y76340D03*
X176650Y94570D03*
X177320Y89040D03*
Y83470D03*
Y77900D03*
X187320Y92830D03*
Y87260D03*
Y81690D03*
X181370Y112590D03*
X176530Y109820D03*
X175360Y100180D03*
X180570Y98210D03*
X187320Y109540D03*
Y103970D03*
Y98400D03*
X177500Y105000D03*
X182680Y129140D03*
Y123570D03*
Y118000D03*
X177320Y128240D03*
Y122670D03*
Y117100D03*
X187320Y131820D03*
Y126250D03*
Y120680D03*
Y115110D03*
X176000Y131000D03*
X174030Y152680D03*
X178870Y149920D03*
X182680Y145850D03*
Y140280D03*
Y134710D03*
X176360Y144870D03*
X177320Y139380D03*
Y133810D03*
X187320Y148530D03*
Y142960D03*
Y137390D03*
X179260Y155470D03*
X182680Y159870D03*
X185220Y164820D03*
X187320Y159670D03*
Y154100D03*
X174590Y160180D03*
X177320Y165030D03*
X180690Y169470D03*
X186210Y170180D03*
X191160Y167620D03*
X191000Y171000D03*
X190120Y191170D03*
X183460Y190250D03*
X187400Y186320D03*
X181000Y181000D03*
X186000D03*
X174360Y206920D03*
X178300Y202980D03*
X182240Y199040D03*
X186180Y195100D03*
X175590Y198130D03*
X179520Y194190D03*
X191000Y201000D03*
X181000Y211000D03*
X191000D03*
X181000Y221000D03*
X191000D03*
X181000Y231000D03*
X191000D03*
X181000Y241000D03*
X191000D03*
X210020Y11200D03*
X209820Y16770D03*
X201000Y11000D03*
X206000D03*
X209820Y22340D03*
Y27910D03*
Y33480D03*
X205800Y37320D03*
X200230D03*
X194660D03*
X201000Y21000D03*
X198530Y54750D03*
X207010Y53220D03*
X208320Y45280D03*
X202750D03*
X197180D03*
X206860Y42680D03*
X201290D03*
X195720D03*
X192680Y73140D03*
X202680Y73570D03*
X199970Y68700D03*
X196030Y64760D03*
X192100Y60820D03*
X196740Y73030D03*
X192800Y69090D03*
X210340Y66570D03*
X206400Y62630D03*
X202460Y58690D03*
X207320Y75780D03*
X206480Y70270D03*
X202540Y66340D03*
X198600Y62400D03*
X194670Y58460D03*
X192680Y89850D03*
Y84280D03*
Y78710D03*
X202680Y90280D03*
Y84710D03*
Y79140D03*
X197320Y95280D03*
Y89710D03*
Y84140D03*
Y78570D03*
X207320Y92490D03*
Y86920D03*
Y81350D03*
X192680Y112130D03*
Y106560D03*
Y100990D03*
Y95420D03*
X202680Y112560D03*
Y106990D03*
Y101420D03*
Y95850D03*
X197320Y111990D03*
Y106420D03*
Y100850D03*
X207320Y109200D03*
Y103630D03*
Y98060D03*
X192680Y128840D03*
Y123270D03*
Y117700D03*
X202680Y129270D03*
Y123700D03*
Y118130D03*
X197320Y128700D03*
Y123130D03*
Y117560D03*
X207320Y131480D03*
Y125910D03*
Y120340D03*
Y114770D03*
X192680Y151120D03*
Y145550D03*
Y139980D03*
Y134410D03*
X202680Y151550D03*
Y145980D03*
Y140410D03*
Y134840D03*
X197320Y150980D03*
Y145410D03*
Y139840D03*
Y134270D03*
X207320Y148190D03*
Y142620D03*
Y137050D03*
X192680Y162260D03*
Y156690D03*
X202680Y168260D03*
Y162690D03*
Y157120D03*
X197320Y167690D03*
Y162120D03*
Y156550D03*
X207320Y170470D03*
Y164900D03*
Y159330D03*
Y153760D03*
X194060Y187230D03*
X197990Y183290D03*
X201930Y179350D03*
X202680Y173830D03*
X191340Y182380D03*
X195280Y178440D03*
X197320Y173260D03*
X210140Y186420D03*
X207320Y181610D03*
Y176040D03*
X201000Y191000D03*
Y201000D03*
Y211000D03*
Y221000D03*
Y231000D03*
Y241000D03*
X228240Y7980D03*
X224820Y12380D03*
Y17950D03*
X219520Y8220D03*
X214020Y7320D03*
X217320Y14860D03*
X224820Y23520D03*
X226760Y29520D03*
X221210Y29990D03*
X217320Y26000D03*
Y20430D03*
X215180Y31140D03*
Y36710D03*
X220490Y56710D03*
X216550Y52770D03*
X212610Y48830D03*
X212300Y41480D03*
X221000Y41000D03*
Y51000D03*
X212680Y71630D03*
X215950Y69720D03*
X217320Y75110D03*
X210950Y57160D03*
X214890Y61100D03*
X218830Y65040D03*
X222680Y69070D03*
Y74640D03*
X228370Y64580D03*
X224430Y60650D03*
X227320Y73430D03*
X226000Y71000D03*
X212680Y93910D03*
Y88340D03*
Y82770D03*
Y77200D03*
X217320Y80680D03*
Y86250D03*
Y91820D03*
X222680Y80210D03*
Y85780D03*
Y91350D03*
X227320Y90140D03*
Y84570D03*
Y79000D03*
X212680Y110620D03*
Y105050D03*
Y99480D03*
X217320Y97390D03*
Y102960D03*
Y108530D03*
Y114100D03*
X222680Y96920D03*
Y102490D03*
Y108060D03*
Y113630D03*
X227770Y113440D03*
X227320Y95710D03*
X227500Y105000D03*
X212680Y132900D03*
Y127330D03*
Y121760D03*
Y116190D03*
X217320Y119670D03*
Y125240D03*
Y130810D03*
X222680Y119200D03*
Y124770D03*
Y130340D03*
X227320Y130140D03*
Y124570D03*
Y119000D03*
X212680Y149610D03*
Y144040D03*
Y138470D03*
X217320Y136380D03*
Y141950D03*
Y147520D03*
X222680Y135910D03*
Y141480D03*
Y147050D03*
Y152620D03*
X227320Y152420D03*
Y146850D03*
Y141280D03*
Y135710D03*
X212680Y171890D03*
Y166320D03*
Y160750D03*
Y155180D03*
X217320Y153090D03*
Y158660D03*
Y164230D03*
Y169800D03*
X222680Y158190D03*
Y163760D03*
Y169330D03*
X227320Y157990D03*
X222000Y190710D03*
X218060Y186770D03*
X214120Y182840D03*
X212680Y177460D03*
X214070Y190360D03*
X217320Y175370D03*
Y180940D03*
X222680Y174900D03*
Y180470D03*
X226430Y184580D03*
X226000Y191000D03*
X225930Y194650D03*
X225890Y202170D03*
X221950Y198230D03*
X218010Y194300D03*
X211000Y201000D03*
Y211000D03*
X221000D03*
X211000Y221000D03*
X221000D03*
X211000Y231000D03*
X221000D03*
X211000Y241000D03*
X221000D03*
X244260Y7320D03*
X239820Y16630D03*
X233790Y7510D03*
X246890Y13180D03*
X232320Y14420D03*
X241000Y11000D03*
X239820Y22200D03*
X247320Y35440D03*
Y29870D03*
Y24300D03*
Y18730D03*
X244250Y29540D03*
X239640Y32680D03*
X234430Y30710D03*
X232320Y25560D03*
Y19990D03*
X247320Y52150D03*
Y46580D03*
Y41010D03*
X231000Y41000D03*
X241000D03*
X231000Y51000D03*
X241000D03*
X232680Y74080D03*
X232310Y68520D03*
X247320Y68860D03*
Y63290D03*
Y57720D03*
X231000Y61000D03*
X241000D03*
X232680Y90790D03*
Y85220D03*
Y79650D03*
X241000Y81000D03*
X244840Y111440D03*
X245180Y105880D03*
Y100310D03*
X232010Y109820D03*
X237580D03*
X239820Y104730D03*
X236620Y100180D03*
X231060Y99840D03*
X232500Y105000D03*
X232680Y131310D03*
Y125740D03*
Y120170D03*
X241000Y131000D03*
X247320Y141140D03*
Y146710D03*
X248390Y152180D03*
X232680Y148020D03*
Y142450D03*
Y136880D03*
X241000Y151000D03*
X247950Y157320D03*
X242380D03*
X236810D03*
X232680Y153590D03*
X247630Y162680D03*
X242060D03*
X236490D03*
X230940Y162220D03*
X231000Y171000D03*
X230370Y188520D03*
X247320Y190870D03*
X231000Y181000D03*
X241000D03*
X247770Y209820D03*
X242200D03*
X237750Y206470D03*
X233810Y202530D03*
X229870Y198590D03*
X233770Y210050D03*
X229830Y206110D03*
X241280Y202680D03*
X246210Y200070D03*
X238250Y196390D03*
X243660Y195060D03*
X236000Y201000D03*
X247320Y218860D03*
X237710Y213990D03*
X231000Y211000D03*
Y221000D03*
Y231000D03*
X241000D03*
X231000Y241000D03*
X252680Y13160D03*
X249720Y8440D03*
X261000Y11000D03*
X252680Y35440D03*
Y29870D03*
Y24300D03*
Y18730D03*
X261000Y21000D03*
Y31000D03*
X252680Y52150D03*
Y46580D03*
Y41010D03*
X261000Y41000D03*
Y51000D03*
X252680Y68860D03*
Y63290D03*
Y57720D03*
X261000Y61000D03*
Y81000D03*
X251000Y91000D03*
Y101000D03*
X261000D03*
X251000Y111000D03*
X261000D03*
X251000Y121000D03*
X261000Y131000D03*
X252680Y141140D03*
Y146710D03*
X257290Y149820D03*
X253090Y155180D03*
X261840Y153040D03*
X262680Y158550D03*
X258770Y162520D03*
X253200Y162680D03*
X251000Y171000D03*
X252680Y191170D03*
X261000Y181000D03*
X250150Y196140D03*
X251000Y201000D03*
X261000D03*
X252680Y218860D03*
X252100Y213320D03*
X261000Y211000D03*
Y231000D03*
X251000Y241000D03*
G54D11*
X60000Y35350D03*
Y44650D03*
X90000Y35350D03*
X80000D03*
X90000Y44650D03*
X80000D03*
X100000Y35350D03*
Y44650D03*
X170000Y35350D03*
X155000D03*
X170000Y44650D03*
X155000D03*
X190000Y35350D03*
X180000D03*
X190000Y44650D03*
X180000D03*
G54D12*
X60000D03*
X80000D03*
X90000D03*
X100000D03*
X155000D03*
X170000D03*
X190000D03*
X180000D03*
M02*
