G04 ================== begin FILE IDENTIFICATION RECORD ==================*
G04 Layout Name:  PMOD2BNCSIMPLE_v1_06_65mil.brd*
G04 Film Name:    Drill_Drawing_1-2*
G04 File Format:  Gerber RS274X*
G04 File Origin:  Cadence Allegro 23.1-P001*
G04 Origin Date:  Tue Nov 21 15:58:02 2023*
G04 *
G04 Layer:  MANUFACTURING/NCLEGEND-1-2*
G04 Layer:  BOARD GEOMETRY/DESIGN_OUTLINE*
G04 Layer:  BOARD GEOMETRY/CUTOUT*
G04 *
G04 Offset:    (0.0000 0.0000)*
G04 Mirror:    No*
G04 Mode:      Positive*
G04 Rotation:  0*
G04 FullContactRelief:  No*
G04 UndefLineWidth:     0.0100*
G04 ================== end FILE IDENTIFICATION RECORD ====================*
%FSLAX55Y55*MOIN*%
%IR0*IPPOS*OFA0.00000B0.00000*MIA0B0*SFA1.00000B1.00000*%
%AMMACRO10*
1,1,.01,.014,.014*
20,1,.01,.014,.014,.014,-.014,0.0*
1,1,.01,.014,-.014*
20,1,.01,.014,-.014,-.014,-.014,0.0*
1,1,.01,-.014,-.014*
20,1,.01,-.014,-.014,-.014,.014,0.0*
1,1,.01,-.014,.014*
20,1,.01,-.014,.014,.014,.014,0.0*
1,1,.01,.014,.014*
%
%ADD10MACRO10*%
%ADD11C,.01*%
G75*
%LPD*%
G75*
G54D10*
X44950Y-325000D03*
X60000Y44650D03*
X80000D03*
X90000D03*
X100000D03*
X155000D03*
X170000D03*
X190000D03*
X180000D03*
G54D11*
G01X0Y-337500D02*
Y-237500D01*
X697500D01*
Y-337500D01*
X0D01*
G01X11000Y-306250D02*
Y-293750D01*
X16900D01*
G01X14720Y-299790D02*
X11000D01*
G01X24490Y-293750D02*
X28210D01*
G01X26350D02*
Y-306250D01*
G01X24490D02*
X28210D01*
G01X39680Y-300000D02*
X42780D01*
Y-303750D01*
X41850Y-305000D01*
X40760Y-305830D01*
X39220Y-306250D01*
X37670Y-305830D01*
X36580Y-305000D01*
X35650Y-303750D01*
X35030Y-302290D01*
X34720Y-300630D01*
Y-299170D01*
X35030Y-297920D01*
X35650Y-296460D01*
X36580Y-295210D01*
X37510Y-294380D01*
X38750Y-293750D01*
X39830D01*
X41070Y-294170D01*
X42010Y-295000D01*
G01X47740Y-293750D02*
Y-302710D01*
X48360Y-304580D01*
X49600Y-305830D01*
X51150Y-306250D01*
X52700Y-305830D01*
X53940Y-304580D01*
X54560Y-302710D01*
Y-293750D01*
G01X60450Y-306250D02*
Y-293750D01*
X64320D01*
X65560Y-294380D01*
X66340Y-295210D01*
X66650Y-296880D01*
X66340Y-298540D01*
X65410Y-299580D01*
X64320Y-300210D01*
X60450D01*
G01X64320D02*
X66650Y-306250D01*
G01X79050D02*
X72850D01*
Y-293750D01*
X79050D01*
G01X76570Y-299790D02*
X72850D01*
G01X0Y-312500D02*
X697500D01*
G01X0Y-287500D02*
X697500D01*
G01X0Y-262500D02*
X697500D01*
G01X0Y0D02*
Y250000D01*
X270000D01*
Y0D01*
X0D01*
G01X89900Y-287500D02*
Y-337500D01*
G01X113300Y-306250D02*
Y-293750D01*
X119200D01*
G01X117020Y-299790D02*
X113300D01*
G01X126790Y-293750D02*
X130510D01*
G01X128650D02*
Y-306250D01*
G01X126790D02*
X130510D01*
G01X137490D02*
Y-293750D01*
X144610Y-306250D01*
Y-293750D01*
G01X151590D02*
X155310D01*
G01X153450D02*
Y-306250D01*
G01X151590D02*
X155310D01*
G01X162590Y-304580D02*
X163840Y-305630D01*
X165230Y-306250D01*
X166470D01*
X167710Y-305630D01*
X168640Y-304580D01*
X169110Y-303120D01*
X168800Y-301670D01*
X168020Y-300420D01*
X166620Y-299580D01*
X164770Y-299170D01*
X163680Y-298330D01*
X163210Y-296880D01*
X163530Y-295420D01*
X164300Y-294380D01*
X165380Y-293750D01*
X166470D01*
X167560Y-294170D01*
X168490Y-295210D01*
G01X174990Y-306250D02*
Y-293750D01*
G01X181510D02*
Y-306250D01*
G01Y-300000D02*
X174990D01*
G01X193750Y-306250D02*
X187550D01*
Y-293750D01*
X193750D01*
G01X191270Y-299790D02*
X187550D01*
G01X199640Y-306250D02*
Y-293750D01*
X202740D01*
X203980Y-294380D01*
X204910Y-295210D01*
X205690Y-296460D01*
X206310Y-297920D01*
X206460Y-300000D01*
X206310Y-302080D01*
X205690Y-303540D01*
X204910Y-304790D01*
X203980Y-305630D01*
X202740Y-306250D01*
X199640D01*
G01X210800Y-310420D02*
X220100D01*
G01X224590Y-304580D02*
X225840Y-305630D01*
X227230Y-306250D01*
X228470D01*
X229710Y-305630D01*
X230640Y-304580D01*
X231110Y-303120D01*
X230800Y-301670D01*
X230020Y-300420D01*
X228620Y-299580D01*
X226770Y-299170D01*
X225680Y-298330D01*
X225210Y-296880D01*
X225530Y-295420D01*
X226300Y-294380D01*
X227380Y-293750D01*
X228470D01*
X229560Y-294170D01*
X230490Y-295210D01*
G01X238390Y-293750D02*
X242110D01*
G01X240250D02*
Y-306250D01*
G01X238390D02*
X242110D01*
G01X249700Y-293750D02*
X255600D01*
X249700Y-306250D01*
X255600D01*
G01X268150D02*
X261950D01*
Y-293750D01*
X268150D01*
G01X265670Y-299790D02*
X261950D01*
G01X165850Y-318750D02*
X164610Y-319170D01*
X163680Y-320210D01*
X163060Y-321460D01*
X162590Y-323130D01*
X162440Y-325000D01*
X162590Y-326880D01*
X163060Y-328540D01*
X163680Y-329790D01*
X164610Y-330830D01*
X165850Y-331250D01*
X167090Y-330830D01*
X168020Y-329790D01*
X168640Y-328540D01*
X169110Y-326880D01*
X169260Y-325000D01*
X169110Y-323130D01*
X168640Y-321460D01*
X168020Y-320210D01*
X167090Y-319170D01*
X165850Y-318750D01*
G01X178250Y-331670D02*
X177940Y-331460D01*
Y-331040D01*
X178250Y-330830D01*
X178560Y-331040D01*
Y-331460D01*
X178250Y-331670D01*
G01X190650Y-318750D02*
X189410Y-319170D01*
X188480Y-320210D01*
X187860Y-321460D01*
X187390Y-323130D01*
X187240Y-325000D01*
X187390Y-326880D01*
X187860Y-328540D01*
X188480Y-329790D01*
X189410Y-330830D01*
X190650Y-331250D01*
X191890Y-330830D01*
X192820Y-329790D01*
X193440Y-328540D01*
X193910Y-326880D01*
X194060Y-325000D01*
X193910Y-323130D01*
X193440Y-321460D01*
X192820Y-320210D01*
X191890Y-319170D01*
X190650Y-318750D01*
G01X200100Y-320830D02*
X201040Y-319580D01*
X202120Y-318960D01*
X203360Y-318750D01*
X204910Y-319170D01*
X206000Y-320210D01*
X206310Y-321460D01*
X206150Y-322710D01*
X205530Y-323750D01*
X202430Y-325830D01*
X201040Y-327290D01*
X200100Y-329380D01*
X199790Y-331250D01*
X206310D01*
G01X215450D02*
X216530Y-331040D01*
X217770Y-330420D01*
X218550Y-329380D01*
X218860Y-327920D01*
X218550Y-326460D01*
X217620Y-325210D01*
X216220Y-324580D01*
X214680D01*
X213740Y-324170D01*
X212970Y-323130D01*
X212660Y-321670D01*
X213130Y-320210D01*
X214210Y-319170D01*
X215450Y-318750D01*
X216690Y-319170D01*
X217770Y-320210D01*
X218240Y-321670D01*
X217930Y-323130D01*
X217160Y-324170D01*
X216220Y-324580D01*
X214680D01*
X213280Y-325210D01*
X212350Y-326460D01*
X212040Y-327920D01*
X212350Y-329380D01*
X213130Y-330420D01*
X214370Y-331040D01*
X215450Y-331250D01*
G01X208470Y-281250D02*
X212350Y-268750D01*
X216230Y-281250D01*
G01X214830Y-276880D02*
X209870D01*
G01X221650Y-268750D02*
Y-281250D01*
X227850D01*
G01X234050Y-268750D02*
Y-281250D01*
X240250D01*
G01X258540Y-268750D02*
Y-277710D01*
X259160Y-279580D01*
X260400Y-280830D01*
X261950Y-281250D01*
X263500Y-280830D01*
X264740Y-279580D01*
X265360Y-277710D01*
Y-268750D01*
G01X270790Y-281250D02*
Y-268750D01*
X277910Y-281250D01*
Y-268750D01*
G01X284890D02*
X288610D01*
G01X286750D02*
Y-281250D01*
G01X284890D02*
X288610D01*
G01X299150Y-268750D02*
Y-281250D01*
G01X295590Y-268750D02*
X302710D01*
G01X308290Y-279580D02*
X309540Y-280630D01*
X310930Y-281250D01*
X312170D01*
X313410Y-280630D01*
X314340Y-279580D01*
X314810Y-278120D01*
X314500Y-276670D01*
X313720Y-275420D01*
X312320Y-274580D01*
X310470Y-274170D01*
X309380Y-273330D01*
X308910Y-271880D01*
X309230Y-270420D01*
X310000Y-269380D01*
X311080Y-268750D01*
X312170D01*
X313260Y-269170D01*
X314190Y-270210D01*
G01X332470Y-281250D02*
X336350Y-268750D01*
X340230Y-281250D01*
G01X338830Y-276880D02*
X333870D01*
G01X345650Y-281250D02*
Y-268750D01*
X349520D01*
X350760Y-269380D01*
X351540Y-270210D01*
X351850Y-271880D01*
X351540Y-273540D01*
X350610Y-274580D01*
X349520Y-275210D01*
X345650D01*
G01X349520D02*
X351850Y-281250D01*
G01X364250D02*
X358050D01*
Y-268750D01*
X364250D01*
G01X361770Y-274790D02*
X358050D01*
G01X384090Y-268750D02*
X387810D01*
G01X385950D02*
Y-281250D01*
G01X384090D02*
X387810D01*
G01X394790D02*
Y-268750D01*
X401910Y-281250D01*
Y-268750D01*
G01X421290D02*
X425010D01*
G01X423150D02*
Y-281250D01*
G01X421290D02*
X425010D01*
G01X431990D02*
Y-268750D01*
X439110Y-281250D01*
Y-268750D01*
G01X451360Y-269790D02*
X450430Y-269170D01*
X449350Y-268750D01*
X448110D01*
X446710Y-269380D01*
X445630Y-270420D01*
X444850Y-271670D01*
X444230Y-273750D01*
X444070Y-275630D01*
X444390Y-277500D01*
X444850Y-278750D01*
X445780Y-280000D01*
X446870Y-280830D01*
X447950Y-281250D01*
X449030D01*
X450120Y-280830D01*
X451050Y-280210D01*
X451830Y-279380D01*
G01X457090Y-281250D02*
Y-268750D01*
G01X463610D02*
Y-281250D01*
G01Y-275000D02*
X457090D01*
G01X475850Y-281250D02*
X469650D01*
Y-268750D01*
X475850D01*
G01X473370Y-274790D02*
X469650D01*
G01X481890Y-279580D02*
X483140Y-280630D01*
X484530Y-281250D01*
X485770D01*
X487010Y-280630D01*
X487940Y-279580D01*
X488410Y-278120D01*
X488100Y-276670D01*
X487320Y-275420D01*
X485920Y-274580D01*
X484070Y-274170D01*
X482980Y-273330D01*
X482510Y-271880D01*
X482830Y-270420D01*
X483600Y-269380D01*
X484680Y-268750D01*
X485770D01*
X486860Y-269170D01*
X487790Y-270210D01*
G01X202740Y-256250D02*
Y-243750D01*
X205840D01*
X207080Y-244380D01*
X208010Y-245210D01*
X208790Y-246460D01*
X209410Y-247920D01*
X209560Y-250000D01*
X209410Y-252080D01*
X208790Y-253540D01*
X208010Y-254790D01*
X207080Y-255630D01*
X205840Y-256250D01*
X202740D01*
G01X215450D02*
Y-243750D01*
X219320D01*
X220560Y-244380D01*
X221340Y-245210D01*
X221650Y-246880D01*
X221340Y-248540D01*
X220410Y-249580D01*
X219320Y-250210D01*
X215450D01*
G01X219320D02*
X221650Y-256250D01*
G01X229090Y-243750D02*
X232810D01*
G01X230950D02*
Y-256250D01*
G01X229090D02*
X232810D01*
G01X240250Y-243750D02*
Y-256250D01*
X246450D01*
G01X252650Y-243750D02*
Y-256250D01*
X258850D01*
G01X283960Y-244790D02*
X283030Y-244170D01*
X281950Y-243750D01*
X280710D01*
X279310Y-244380D01*
X278230Y-245420D01*
X277450Y-246670D01*
X276830Y-248750D01*
X276670Y-250630D01*
X276990Y-252500D01*
X277450Y-253750D01*
X278380Y-255000D01*
X279470Y-255830D01*
X280550Y-256250D01*
X281630D01*
X282720Y-255830D01*
X283650Y-255210D01*
X284430Y-254380D01*
G01X289690Y-256250D02*
Y-243750D01*
G01X296210D02*
Y-256250D01*
G01Y-250000D02*
X289690D01*
G01X301470Y-256250D02*
X305350Y-243750D01*
X309230Y-256250D01*
G01X307830Y-251880D02*
X302870D01*
G01X314650Y-256250D02*
Y-243750D01*
X318520D01*
X319760Y-244380D01*
X320540Y-245210D01*
X320850Y-246880D01*
X320540Y-248540D01*
X319610Y-249580D01*
X318520Y-250210D01*
X314650D01*
G01X318520D02*
X320850Y-256250D01*
G01X330150Y-243750D02*
Y-256250D01*
G01X326590Y-243750D02*
X333710D01*
G01X342550Y-256670D02*
X342240Y-256460D01*
Y-256040D01*
X342550Y-255830D01*
X342860Y-256040D01*
Y-256460D01*
X342550Y-256670D01*
G01Y-251040D02*
X342240Y-250830D01*
Y-250420D01*
X342550Y-250210D01*
X342860Y-250420D01*
Y-250830D01*
X342550Y-251040D01*
G01X367350Y-243750D02*
Y-256250D01*
G01X363790Y-243750D02*
X370910D01*
G01X379750Y-256250D02*
X378510Y-256040D01*
X377430Y-255210D01*
X376490Y-253960D01*
X375870Y-252500D01*
X375560Y-250830D01*
Y-249170D01*
X375870Y-247500D01*
X376490Y-246040D01*
X377430Y-244790D01*
X378510Y-243960D01*
X379750Y-243750D01*
X380990Y-243960D01*
X382070Y-244790D01*
X383010Y-246040D01*
X383630Y-247500D01*
X383940Y-249170D01*
Y-250830D01*
X383630Y-252500D01*
X383010Y-253960D01*
X382070Y-255210D01*
X380990Y-256040D01*
X379750Y-256250D01*
G01X389050D02*
Y-243750D01*
X392770D01*
X394010Y-244380D01*
X394940Y-245830D01*
X395250Y-247500D01*
X394940Y-249170D01*
X394160Y-250420D01*
X392770Y-251040D01*
X389050D01*
G01X416950Y-243750D02*
Y-256250D01*
G01X414780Y-247920D02*
X419120D01*
G01X429350Y-256250D02*
X428420Y-256040D01*
X427490Y-255210D01*
X426870Y-253750D01*
X426560Y-252080D01*
X426870Y-250420D01*
X427490Y-248960D01*
X428420Y-248130D01*
X429350Y-247920D01*
X430280Y-248130D01*
X431210Y-248960D01*
X431830Y-250420D01*
X431990Y-252080D01*
X431830Y-253750D01*
X431210Y-255210D01*
X430280Y-256040D01*
X429350Y-256250D01*
G01X455080Y-250000D02*
X458180D01*
Y-253750D01*
X457250Y-255000D01*
X456160Y-255830D01*
X454620Y-256250D01*
X453070Y-255830D01*
X451980Y-255000D01*
X451050Y-253750D01*
X450430Y-252290D01*
X450120Y-250630D01*
Y-249170D01*
X450430Y-247920D01*
X451050Y-246460D01*
X451980Y-245210D01*
X452910Y-244380D01*
X454150Y-243750D01*
X455230D01*
X456470Y-244170D01*
X457410Y-245000D01*
G01X462990Y-256250D02*
Y-243750D01*
X470110Y-256250D01*
Y-243750D01*
G01X475540Y-256250D02*
Y-243750D01*
X478640D01*
X479880Y-244380D01*
X480810Y-245210D01*
X481590Y-246460D01*
X482210Y-247920D01*
X482360Y-250000D01*
X482210Y-252080D01*
X481590Y-253540D01*
X480810Y-254790D01*
X479880Y-255630D01*
X478640Y-256250D01*
X475540D01*
G01X491350D02*
Y-243750D01*
X489490Y-246250D01*
G01Y-256250D02*
X493210D01*
G01X291400Y-287500D02*
Y-337500D01*
G01X320540Y-306250D02*
Y-293750D01*
X323640D01*
X324880Y-294380D01*
X325810Y-295210D01*
X326590Y-296460D01*
X327210Y-297920D01*
X327360Y-300000D01*
X327210Y-302080D01*
X326590Y-303540D01*
X325810Y-304790D01*
X324880Y-305630D01*
X323640Y-306250D01*
X320540D01*
G01X333250D02*
Y-293750D01*
X337120D01*
X338360Y-294380D01*
X339140Y-295210D01*
X339450Y-296880D01*
X339140Y-298540D01*
X338210Y-299580D01*
X337120Y-300210D01*
X333250D01*
G01X337120D02*
X339450Y-306250D01*
G01X346890Y-293750D02*
X350610D01*
G01X348750D02*
Y-306250D01*
G01X346890D02*
X350610D01*
G01X358050Y-293750D02*
Y-306250D01*
X364250D01*
G01X370450Y-293750D02*
Y-306250D01*
X376650D01*
G01X389050D02*
X382850D01*
Y-293750D01*
X389050D01*
G01X386570Y-299790D02*
X382850D01*
G01X394940Y-306250D02*
Y-293750D01*
X398040D01*
X399280Y-294380D01*
X400210Y-295210D01*
X400990Y-296460D01*
X401610Y-297920D01*
X401760Y-300000D01*
X401610Y-302080D01*
X400990Y-303540D01*
X400210Y-304790D01*
X399280Y-305630D01*
X398040Y-306250D01*
X394940D01*
G01X406100Y-310420D02*
X415400D01*
G01X419890Y-304580D02*
X421140Y-305630D01*
X422530Y-306250D01*
X423770D01*
X425010Y-305630D01*
X425940Y-304580D01*
X426410Y-303120D01*
X426100Y-301670D01*
X425320Y-300420D01*
X423920Y-299580D01*
X422070Y-299170D01*
X420980Y-298330D01*
X420510Y-296880D01*
X420830Y-295420D01*
X421600Y-294380D01*
X422680Y-293750D01*
X423770D01*
X424860Y-294170D01*
X425790Y-295210D01*
G01X433690Y-293750D02*
X437410D01*
G01X435550D02*
Y-306250D01*
G01X433690D02*
X437410D01*
G01X445000Y-293750D02*
X450900D01*
X445000Y-306250D01*
X450900D01*
G01X463450D02*
X457250D01*
Y-293750D01*
X463450D01*
G01X460970Y-299790D02*
X457250D01*
G01X390140Y-327080D02*
X394160D01*
G01X466450Y-343750D02*
Y-356250D01*
G01X462890Y-343750D02*
X470010D01*
G01X478850Y-356250D02*
X477610Y-356040D01*
X476530Y-355210D01*
X475590Y-353960D01*
X474970Y-352500D01*
X474660Y-350830D01*
Y-349170D01*
X474970Y-347500D01*
X475590Y-346040D01*
X476530Y-344790D01*
X477610Y-343960D01*
X478850Y-343750D01*
X480090Y-343960D01*
X481170Y-344790D01*
X482110Y-346040D01*
X482730Y-347500D01*
X483040Y-349170D01*
Y-350830D01*
X482730Y-352500D01*
X482110Y-353960D01*
X481170Y-355210D01*
X480090Y-356040D01*
X478850Y-356250D01*
G01X491250Y-343750D02*
Y-356250D01*
G01X487690Y-343750D02*
X494810D01*
G01X499770Y-356250D02*
X503650Y-343750D01*
X507530Y-356250D01*
G01X506130Y-351880D02*
X501170D01*
G01X512950Y-343750D02*
Y-356250D01*
X519150D01*
G01X537590D02*
Y-343750D01*
G01X544110D02*
Y-356250D01*
G01Y-350000D02*
X537590D01*
G01X553250Y-356250D02*
X552010Y-356040D01*
X550930Y-355210D01*
X549990Y-353960D01*
X549370Y-352500D01*
X549060Y-350830D01*
Y-349170D01*
X549370Y-347500D01*
X549990Y-346040D01*
X550930Y-344790D01*
X552010Y-343960D01*
X553250Y-343750D01*
X554490Y-343960D01*
X555570Y-344790D01*
X556510Y-346040D01*
X557130Y-347500D01*
X557440Y-349170D01*
Y-350830D01*
X557130Y-352500D01*
X556510Y-353960D01*
X555570Y-355210D01*
X554490Y-356040D01*
X553250Y-356250D01*
G01X562550Y-343750D02*
Y-356250D01*
X568750D01*
G01X581150D02*
X574950D01*
Y-343750D01*
X581150D01*
G01X578670Y-349790D02*
X574950D01*
G01X587190Y-354580D02*
X588440Y-355630D01*
X589830Y-356250D01*
X591070D01*
X592310Y-355630D01*
X593240Y-354580D01*
X593710Y-353120D01*
X593400Y-351670D01*
X592620Y-350420D01*
X591220Y-349580D01*
X589370Y-349170D01*
X588280Y-348330D01*
X587810Y-346880D01*
X588130Y-345420D01*
X588900Y-344380D01*
X589980Y-343750D01*
X591070D01*
X592160Y-344170D01*
X593090Y-345210D01*
G01X602850Y-356670D02*
X602540Y-356460D01*
Y-356040D01*
X602850Y-355830D01*
X603160Y-356040D01*
Y-356460D01*
X602850Y-356670D01*
G01Y-351040D02*
X602540Y-350830D01*
Y-350420D01*
X602850Y-350210D01*
X603160Y-350420D01*
Y-350830D01*
X602850Y-351040D01*
G01X492900Y-287500D02*
Y-337500D01*
G01X522350Y-331250D02*
Y-318750D01*
X526070D01*
X527310Y-319380D01*
X528240Y-320830D01*
X528550Y-322500D01*
X528240Y-324170D01*
X527460Y-325420D01*
X526070Y-326040D01*
X522350D01*
G01X534750Y-318750D02*
Y-331250D01*
X540950D01*
G01X546370D02*
X550250Y-318750D01*
X554130Y-331250D01*
G01X552730Y-326880D02*
X547770D01*
G01X562650Y-318750D02*
Y-331250D01*
G01X559090Y-318750D02*
X566210D01*
G01X578150Y-331250D02*
X571950D01*
Y-318750D01*
X578150D01*
G01X575670Y-324790D02*
X571950D01*
G01X584040Y-331250D02*
Y-318750D01*
X587140D01*
X588380Y-319380D01*
X589310Y-320210D01*
X590090Y-321460D01*
X590710Y-322920D01*
X590860Y-325000D01*
X590710Y-327080D01*
X590090Y-328540D01*
X589310Y-329790D01*
X588380Y-330630D01*
X587140Y-331250D01*
X584040D01*
G01X522350Y-306250D02*
Y-293750D01*
X526070D01*
X527310Y-294380D01*
X528240Y-295830D01*
X528550Y-297500D01*
X528240Y-299170D01*
X527460Y-300420D01*
X526070Y-301040D01*
X522350D01*
G01X534750Y-293750D02*
Y-306250D01*
X540950D01*
G01X546370D02*
X550250Y-293750D01*
X554130Y-306250D01*
G01X552730Y-301880D02*
X547770D01*
G01X562650Y-293750D02*
Y-306250D01*
G01X559090Y-293750D02*
X566210D01*
G01X578150Y-306250D02*
X571950D01*
Y-293750D01*
X578150D01*
G01X575670Y-299790D02*
X571950D01*
G01X584040Y-306250D02*
Y-293750D01*
X587140D01*
X588380Y-294380D01*
X589310Y-295210D01*
X590090Y-296460D01*
X590710Y-297920D01*
X590860Y-300000D01*
X590710Y-302080D01*
X590090Y-303540D01*
X589310Y-304790D01*
X588380Y-305630D01*
X587140Y-306250D01*
X584040D01*
G01X620000Y-287500D02*
Y-337500D01*
G01X646350Y-306250D02*
X645110Y-306040D01*
X644030Y-305210D01*
X643090Y-303960D01*
X642470Y-302500D01*
X642160Y-300830D01*
Y-299170D01*
X642470Y-297500D01*
X643090Y-296040D01*
X644030Y-294790D01*
X645110Y-293960D01*
X646350Y-293750D01*
X647590Y-293960D01*
X648670Y-294790D01*
X649610Y-296040D01*
X650230Y-297500D01*
X650540Y-299170D01*
Y-300830D01*
X650230Y-302500D01*
X649610Y-303960D01*
X648670Y-305210D01*
X647590Y-306040D01*
X646350Y-306250D01*
G01X647590Y-302920D02*
X649450Y-306250D01*
G01X658750Y-293750D02*
Y-306250D01*
G01X655190Y-293750D02*
X662310D01*
G01X671150Y-306250D02*
Y-300630D01*
X668050Y-293750D01*
G01X674250D02*
X671150Y-300630D01*
G01X658750Y-356250D02*
X659830Y-356040D01*
X661070Y-355420D01*
X661850Y-354380D01*
X662160Y-352920D01*
X661850Y-351460D01*
X660920Y-350210D01*
X659520Y-349580D01*
X657980D01*
X657040Y-349170D01*
X656270Y-348130D01*
X655960Y-346670D01*
X656430Y-345210D01*
X657510Y-344170D01*
X658750Y-343750D01*
X659990Y-344170D01*
X661070Y-345210D01*
X661540Y-346670D01*
X661230Y-348130D01*
X660460Y-349170D01*
X659520Y-349580D01*
X657980D01*
X656580Y-350210D01*
X655650Y-351460D01*
X655340Y-352920D01*
X655650Y-354380D01*
X656430Y-355420D01*
X657670Y-356040D01*
X658750Y-356250D01*
G01Y-331250D02*
X659830Y-331040D01*
X661070Y-330420D01*
X661850Y-329380D01*
X662160Y-327920D01*
X661850Y-326460D01*
X660920Y-325210D01*
X659520Y-324580D01*
X657980D01*
X657040Y-324170D01*
X656270Y-323130D01*
X655960Y-321670D01*
X656430Y-320210D01*
X657510Y-319170D01*
X658750Y-318750D01*
X659990Y-319170D01*
X661070Y-320210D01*
X661540Y-321670D01*
X661230Y-323130D01*
X660460Y-324170D01*
X659520Y-324580D01*
X657980D01*
X656580Y-325210D01*
X655650Y-326460D01*
X655340Y-327920D01*
X655650Y-329380D01*
X656430Y-330420D01*
X657670Y-331040D01*
X658750Y-331250D01*
M02*
