G04 ================== begin FILE IDENTIFICATION RECORD ==================*
G04 Layout Name:  PMOD2BNCSIMPLE_v1_06_65mil.brd*
G04 Film Name:    Silkscreen_Top*
G04 File Format:  Gerber RS274X*
G04 File Origin:  Cadence Allegro 23.1-P001*
G04 Origin Date:  Tue Nov 21 15:58:02 2023*
G04 *
G04 Layer:  PACKAGE GEOMETRY/SILKSCREEN_TOP*
G04 *
G04 Offset:    (0.0000 0.0000)*
G04 Mirror:    No*
G04 Mode:      Positive*
G04 Rotation:  0*
G04 FullContactRelief:  No*
G04 UndefLineWidth:     0.0100*
G04 ================== end FILE IDENTIFICATION RECORD ====================*
%FSLAX55Y55*MOIN*%
%IR0*IPPOS*OFA0.00000B0.00000*MIA0B0*SFA1.00000B1.00000*%
%ADD10C,.0031*%
%ADD11C,.006*%
%ADD12C,.0024*%
%ADD13C,.0039*%
%ADD14C,.0079*%
%ADD15C,.01*%
G75*
%LPD*%
G75*
G54D10*
G01X4250Y116750D02*
Y148250D01*
X35750D01*
Y116750D01*
X4250D01*
G01Y161750D02*
Y193250D01*
X35750D01*
Y161750D01*
X4250D01*
G01X94250Y114250D02*
Y145750D01*
X125750D01*
Y114250D01*
X94250D01*
G01Y214250D02*
Y245750D01*
X125750D01*
Y214250D01*
X94250D01*
G01X175750Y145750D02*
Y114250D01*
X144250D01*
Y145750D01*
X175750D01*
G01Y195750D02*
Y164250D01*
X144250D01*
Y195750D01*
X175750D01*
G01X265750Y145750D02*
Y114250D01*
X234250D01*
Y145750D01*
X265750D01*
G01Y245750D02*
Y214250D01*
X234250D01*
Y245750D01*
X265750D01*
G54D11*
G01X130000Y3300D02*
X50000D01*
G01X220000D02*
X140000D01*
G54D12*
G01X4250Y64250D02*
Y95750D01*
X35750D01*
Y64250D01*
X4250D01*
G01Y214250D02*
Y245750D01*
X35750D01*
Y214250D01*
X4250D01*
G01X94250Y64250D02*
Y95750D01*
X125750D01*
Y64250D01*
X94250D01*
G01Y164250D02*
Y195750D01*
X125750D01*
Y164250D01*
X94250D01*
G01X144250Y64250D02*
Y95750D01*
X175750D01*
Y64250D01*
X144250D01*
G01Y214250D02*
Y245750D01*
X175750D01*
Y214250D01*
X144250D01*
G01X234250Y64250D02*
Y95750D01*
X265750D01*
Y64250D01*
X234250D01*
G01Y164250D02*
Y195750D01*
X265750D01*
Y164250D01*
X234250D01*
G54D13*
G01X34170Y132500D02*
G02X34570I200J0D01*
G01X34170D02*
G02X34570I200J0D01*
G01X34170Y177500D02*
G02X34570I200J0D01*
G01X34170D02*
G02X34570I200J0D01*
G01X124170Y130000D02*
G02X124570I200J0D01*
G01X124170D02*
G02X124570I200J0D01*
G01X124170Y230000D02*
G02X124570I200J0D01*
G01X124170D02*
G02X124570I200J0D01*
G01X145830Y130000D02*
G02X145430I-200J0D01*
G01X145830D02*
G02X145430I-200J0D01*
G01X145830Y180000D02*
G02X145430I-200J0D01*
G01X145830D02*
G02X145430I-200J0D01*
G01X235830Y130000D02*
G02X235430I-200J0D01*
G01X235830D02*
G02X235430I-200J0D01*
G01X235830Y230000D02*
G02X235430I-200J0D01*
G01X235830D02*
G02X235430I-200J0D01*
G54D14*
G01X23940Y67400D02*
X16060D01*
G01X23940Y92600D02*
X16060D01*
G01X7400Y76060D02*
Y83940D01*
G01X24920Y120100D02*
X15470D01*
G01X7600Y127780D02*
Y137220D01*
G01X15470Y144900D02*
X24920D01*
G01Y165100D02*
X15470D01*
G01Y189900D02*
X24920D01*
G01X7600Y172780D02*
Y182220D01*
G01X23940Y217400D02*
X16060D01*
G01X7400Y226060D02*
Y233940D01*
G01X23940Y242600D02*
X16060D01*
G01X32600Y76060D02*
Y83940D01*
G01X32400Y137220D02*
Y127780D01*
G01Y182220D02*
Y172780D01*
G01X32600Y226060D02*
Y233940D01*
G01X113940Y67400D02*
X106060D01*
G01X113940Y92600D02*
X106060D01*
G01X97400Y76060D02*
Y83940D01*
G01X114920Y117600D02*
X105470D01*
G01X97600Y125280D02*
Y134720D01*
G01X105470Y142400D02*
X114920D01*
G01X113940Y167400D02*
X106060D01*
G01X97400Y176060D02*
Y183940D01*
G01X113940Y192600D02*
X106060D01*
G01X114920Y217600D02*
X105470D01*
G01X97600Y225280D02*
Y234720D01*
G01X105470Y242400D02*
X114920D01*
G01X122600Y76060D02*
Y83940D01*
G01X122400Y134720D02*
Y125280D01*
G01X122600Y176060D02*
Y183940D01*
G01X122400Y234720D02*
Y225280D01*
G01X147400Y76060D02*
Y83940D01*
G01X147600Y125280D02*
Y134720D01*
G01Y175280D02*
Y184720D01*
G01X147400Y226060D02*
Y233940D01*
G01X163940Y67400D02*
X156060D01*
G01X163940Y92600D02*
X156060D01*
G01X164530Y117600D02*
X155080D01*
G01Y142400D02*
X164530D01*
G01Y167600D02*
X155080D01*
G01Y192400D02*
X164530D01*
G01X163940Y217400D02*
X156060D01*
G01X163940Y242600D02*
X156060D01*
G01X172600Y76060D02*
Y83940D01*
G01X172400Y134720D02*
Y125280D01*
G01Y184720D02*
Y175280D01*
G01X172600Y226060D02*
Y233940D01*
G01X253940Y67400D02*
X246060D01*
G01X253940Y92600D02*
X246060D01*
G01X237400Y76060D02*
Y83940D01*
G01X237600Y125280D02*
Y134720D01*
G01X254530Y117600D02*
X245080D01*
G01Y142400D02*
X254530D01*
G01X253940Y167400D02*
X246060D01*
G01X237400Y176060D02*
Y183940D01*
G01X253940Y192600D02*
X246060D01*
G01X237600Y225280D02*
Y234720D01*
G01X254530Y217600D02*
X245080D01*
G01Y242400D02*
X254530D01*
G01X262600Y76060D02*
Y83940D01*
G01X262400Y134720D02*
Y125280D01*
G01X262600Y176060D02*
Y183940D01*
G01X262400Y234720D02*
Y225280D01*
G54D15*
G01X50750Y51120D02*
X51310Y50500D01*
X51960Y50120D01*
X52800Y50000D01*
X53640Y50250D01*
X54290Y50750D01*
X54760Y51620D01*
X54850Y52620D01*
X54670Y53620D01*
X54200Y54250D01*
X53550Y54750D01*
X52890Y54870D01*
X52240Y54750D01*
X51400Y54250D01*
X51680Y57500D01*
X54200D01*
G01X73530Y56250D02*
X74090Y57000D01*
X74740Y57380D01*
X75490Y57500D01*
X76420Y57250D01*
X77070Y56620D01*
X77260Y55880D01*
X77170Y55120D01*
X76790Y54500D01*
X74930Y53250D01*
X74090Y52370D01*
X73530Y51120D01*
X73340Y50000D01*
X77260D01*
G01X88250Y51500D02*
X88810Y50620D01*
X89550Y50120D01*
X90390Y50000D01*
X91140Y50120D01*
X91890Y50750D01*
X92350Y51500D01*
X92450Y52250D01*
X92260Y53120D01*
X91610Y53750D01*
X90950Y54000D01*
X90110D01*
G01X90950D02*
X91510Y54370D01*
X91980Y55000D01*
X92170Y55750D01*
X91980Y56500D01*
X91510Y57120D01*
X90670Y57500D01*
X89830Y57380D01*
X88990Y56870D01*
G01X106420Y50000D02*
Y57500D01*
X102970Y52130D01*
X107630D01*
G01X38430Y81500D02*
X38900Y80750D01*
X39460Y80250D01*
X40110Y80000D01*
X40860Y80250D01*
X41420Y80750D01*
X41980Y81500D01*
X42170Y82500D01*
Y87500D01*
G01X45470Y80000D02*
X47800Y87500D01*
X50130Y80000D01*
G01X49290Y82620D02*
X46310D01*
G01X55300Y80000D02*
Y87500D01*
X54180Y86000D01*
G01Y80000D02*
X56420D01*
G01X38430Y131500D02*
X38900Y130750D01*
X39460Y130250D01*
X40110Y130000D01*
X40860Y130250D01*
X41420Y130750D01*
X41980Y131500D01*
X42170Y132500D01*
Y137500D01*
G01X45470Y130000D02*
X47800Y137500D01*
X50130Y130000D01*
G01X49290Y132620D02*
X46310D01*
G01X53250Y131120D02*
X53810Y130500D01*
X54460Y130120D01*
X55300Y130000D01*
X56140Y130250D01*
X56790Y130750D01*
X57260Y131620D01*
X57350Y132620D01*
X57170Y133620D01*
X56700Y134250D01*
X56050Y134750D01*
X55390Y134870D01*
X54740Y134750D01*
X53900Y134250D01*
X54180Y137500D01*
X56700D01*
G01X38430Y181500D02*
X38900Y180750D01*
X39460Y180250D01*
X40110Y180000D01*
X40860Y180250D01*
X41420Y180750D01*
X41980Y181500D01*
X42170Y182500D01*
Y187500D01*
G01X45470Y180000D02*
X47800Y187500D01*
X50130Y180000D01*
G01X49290Y182620D02*
X46310D01*
G01X53530Y183120D02*
X54180Y184000D01*
X54740Y184500D01*
X55490Y184750D01*
X56140Y184500D01*
X56610Y184000D01*
X56980Y183250D01*
X57070Y182370D01*
X56980Y181620D01*
X56610Y180870D01*
X56050Y180250D01*
X55390Y180000D01*
X54650Y180250D01*
X53990Y181000D01*
X53620Y182130D01*
X53530Y183370D01*
X53710Y185000D01*
X53990Y185880D01*
X54460Y186750D01*
X55110Y187380D01*
X55770Y187500D01*
X56420Y187250D01*
X56890Y186620D01*
G01X40930Y231500D02*
X41400Y230750D01*
X41960Y230250D01*
X42610Y230000D01*
X43360Y230250D01*
X43920Y230750D01*
X44480Y231500D01*
X44670Y232500D01*
Y237500D01*
G01X47970Y230000D02*
X50300Y237500D01*
X52630Y230000D01*
G01X51790Y232620D02*
X48810D01*
G01X56030Y236250D02*
X56590Y237000D01*
X57240Y237380D01*
X57990Y237500D01*
X58920Y237250D01*
X59570Y236620D01*
X59760Y235880D01*
X59670Y235120D01*
X59290Y234500D01*
X57430Y233250D01*
X56590Y232370D01*
X56030Y231120D01*
X55840Y230000D01*
X59760D01*
G01X70930Y81500D02*
X71400Y80750D01*
X71960Y80250D01*
X72610Y80000D01*
X73360Y80250D01*
X73920Y80750D01*
X74480Y81500D01*
X74670Y82500D01*
Y87500D01*
G01X77970Y80000D02*
X80300Y87500D01*
X82630Y80000D01*
G01X81790Y82620D02*
X78810D01*
G01X88920Y80000D02*
Y87500D01*
X85470Y82130D01*
X90130D01*
G01X70930Y131500D02*
X71400Y130750D01*
X71960Y130250D01*
X72610Y130000D01*
X73360Y130250D01*
X73920Y130750D01*
X74480Y131500D01*
X74670Y132500D01*
Y137500D01*
G01X77970Y130000D02*
X80300Y137500D01*
X82630Y130000D01*
G01X81790Y132620D02*
X78810D01*
G01X87800Y130000D02*
X88450Y130120D01*
X89200Y130500D01*
X89670Y131120D01*
X89850Y132000D01*
X89670Y132870D01*
X89110Y133620D01*
X88270Y134000D01*
X87330D01*
X86770Y134250D01*
X86310Y134870D01*
X86120Y135750D01*
X86400Y136620D01*
X87050Y137250D01*
X87800Y137500D01*
X88550Y137250D01*
X89200Y136620D01*
X89480Y135750D01*
X89290Y134870D01*
X88830Y134250D01*
X88270Y134000D01*
X87330D01*
X86490Y133620D01*
X85930Y132870D01*
X85750Y132000D01*
X85930Y131120D01*
X86400Y130500D01*
X87150Y130120D01*
X87800Y130000D01*
G01X70930Y181500D02*
X71400Y180750D01*
X71960Y180250D01*
X72610Y180000D01*
X73360Y180250D01*
X73920Y180750D01*
X74480Y181500D01*
X74670Y182500D01*
Y187500D01*
G01X77970Y180000D02*
X80300Y187500D01*
X82630Y180000D01*
G01X81790Y182620D02*
X78810D01*
G01X85750Y181500D02*
X86310Y180620D01*
X87050Y180120D01*
X87890Y180000D01*
X88640Y180120D01*
X89390Y180750D01*
X89850Y181500D01*
X89950Y182250D01*
X89760Y183120D01*
X89110Y183750D01*
X88450Y184000D01*
X87610D01*
G01X88450D02*
X89010Y184370D01*
X89480Y185000D01*
X89670Y185750D01*
X89480Y186500D01*
X89010Y187120D01*
X88170Y187500D01*
X87330Y187380D01*
X86490Y186870D01*
G01X70930Y231500D02*
X71400Y230750D01*
X71960Y230250D01*
X72610Y230000D01*
X73360Y230250D01*
X73920Y230750D01*
X74480Y231500D01*
X74670Y232500D01*
Y237500D01*
G01X77970Y230000D02*
X80300Y237500D01*
X82630Y230000D01*
G01X81790Y232620D02*
X78810D01*
G01X87610Y230000D02*
X87800Y231620D01*
X88080Y233000D01*
X88450Y234250D01*
X88920Y235620D01*
X89670Y237500D01*
X85930D01*
G01X150750Y51120D02*
X151310Y50500D01*
X151960Y50120D01*
X152800Y50000D01*
X153640Y50250D01*
X154290Y50750D01*
X154760Y51620D01*
X154850Y52620D01*
X154670Y53620D01*
X154200Y54250D01*
X153550Y54750D01*
X152890Y54870D01*
X152240Y54750D01*
X151400Y54250D01*
X151680Y57500D01*
X154200D01*
G01X166030Y56250D02*
X166590Y57000D01*
X167240Y57380D01*
X167990Y57500D01*
X168920Y57250D01*
X169570Y56620D01*
X169760Y55880D01*
X169670Y55120D01*
X169290Y54500D01*
X167430Y53250D01*
X166590Y52370D01*
X166030Y51120D01*
X165840Y50000D01*
X169760D01*
G01X180750Y51500D02*
X181310Y50620D01*
X182050Y50120D01*
X182890Y50000D01*
X183640Y50120D01*
X184390Y50750D01*
X184850Y51500D01*
X184950Y52250D01*
X184760Y53120D01*
X184110Y53750D01*
X183450Y54000D01*
X182610D01*
G01X183450D02*
X184010Y54370D01*
X184480Y55000D01*
X184670Y55750D01*
X184480Y56500D01*
X184010Y57120D01*
X183170Y57500D01*
X182330Y57380D01*
X181490Y56870D01*
G01X198920Y50000D02*
Y57500D01*
X195470Y52130D01*
X200130D01*
G01X180930Y81500D02*
X181400Y80750D01*
X181960Y80250D01*
X182610Y80000D01*
X183360Y80250D01*
X183920Y80750D01*
X184480Y81500D01*
X184670Y82500D01*
Y87500D01*
G01X191050Y84000D02*
X191420Y84370D01*
X191700Y85000D01*
X191890Y85880D01*
X191700Y86620D01*
X191330Y87120D01*
X190670Y87500D01*
X188150D01*
Y80000D01*
X191230D01*
X191890Y80500D01*
X192260Y81250D01*
X192450Y82130D01*
X192260Y83000D01*
X191700Y83750D01*
X191050Y84000D01*
X188150D01*
G01X197800Y80000D02*
Y87500D01*
X196680Y86000D01*
G01Y80000D02*
X198920D01*
G01X180930Y131500D02*
X181400Y130750D01*
X181960Y130250D01*
X182610Y130000D01*
X183360Y130250D01*
X183920Y130750D01*
X184480Y131500D01*
X184670Y132500D01*
Y137500D01*
G01X191050Y134000D02*
X191420Y134370D01*
X191700Y135000D01*
X191890Y135880D01*
X191700Y136620D01*
X191330Y137120D01*
X190670Y137500D01*
X188150D01*
Y130000D01*
X191230D01*
X191890Y130500D01*
X192260Y131250D01*
X192450Y132130D01*
X192260Y133000D01*
X191700Y133750D01*
X191050Y134000D01*
X188150D01*
G01X195750Y131120D02*
X196310Y130500D01*
X196960Y130120D01*
X197800Y130000D01*
X198640Y130250D01*
X199290Y130750D01*
X199760Y131620D01*
X199850Y132620D01*
X199670Y133620D01*
X199200Y134250D01*
X198550Y134750D01*
X197890Y134870D01*
X197240Y134750D01*
X196400Y134250D01*
X196680Y137500D01*
X199200D01*
G01X180930Y181500D02*
X181400Y180750D01*
X181960Y180250D01*
X182610Y180000D01*
X183360Y180250D01*
X183920Y180750D01*
X184480Y181500D01*
X184670Y182500D01*
Y187500D01*
G01X191050Y184000D02*
X191420Y184370D01*
X191700Y185000D01*
X191890Y185880D01*
X191700Y186620D01*
X191330Y187120D01*
X190670Y187500D01*
X188150D01*
Y180000D01*
X191230D01*
X191890Y180500D01*
X192260Y181250D01*
X192450Y182130D01*
X192260Y183000D01*
X191700Y183750D01*
X191050Y184000D01*
X188150D01*
G01X196030Y183120D02*
X196680Y184000D01*
X197240Y184500D01*
X197990Y184750D01*
X198640Y184500D01*
X199110Y184000D01*
X199480Y183250D01*
X199570Y182370D01*
X199480Y181620D01*
X199110Y180870D01*
X198550Y180250D01*
X197890Y180000D01*
X197150Y180250D01*
X196490Y181000D01*
X196120Y182130D01*
X196030Y183370D01*
X196210Y185000D01*
X196490Y185880D01*
X196960Y186750D01*
X197610Y187380D01*
X198270Y187500D01*
X198920Y187250D01*
X199390Y186620D01*
G01X180930Y231500D02*
X181400Y230750D01*
X181960Y230250D01*
X182610Y230000D01*
X183360Y230250D01*
X183920Y230750D01*
X184480Y231500D01*
X184670Y232500D01*
Y237500D01*
G01X191050Y234000D02*
X191420Y234370D01*
X191700Y235000D01*
X191890Y235880D01*
X191700Y236620D01*
X191330Y237120D01*
X190670Y237500D01*
X188150D01*
Y230000D01*
X191230D01*
X191890Y230500D01*
X192260Y231250D01*
X192450Y232130D01*
X192260Y233000D01*
X191700Y233750D01*
X191050Y234000D01*
X188150D01*
G01X196030Y236250D02*
X196590Y237000D01*
X197240Y237380D01*
X197990Y237500D01*
X198920Y237250D01*
X199570Y236620D01*
X199760Y235880D01*
X199670Y235120D01*
X199290Y234500D01*
X197430Y233250D01*
X196590Y232370D01*
X196030Y231120D01*
X195840Y230000D01*
X199760D01*
G01X200930Y40000D02*
Y47500D01*
X203170D01*
X203920Y47120D01*
X204480Y46250D01*
X204670Y45250D01*
X204480Y44250D01*
X204010Y43500D01*
X203170Y43120D01*
X200930D01*
G01X207870Y40000D02*
Y47500D01*
X210300Y41250D01*
X212730Y47500D01*
Y40000D01*
G01X217800D02*
X217050Y40120D01*
X216400Y40620D01*
X215840Y41370D01*
X215470Y42250D01*
X215280Y43250D01*
Y44250D01*
X215470Y45250D01*
X215840Y46130D01*
X216400Y46870D01*
X217050Y47380D01*
X217800Y47500D01*
X218550Y47380D01*
X219200Y46870D01*
X219760Y46130D01*
X220130Y45250D01*
X220320Y44250D01*
Y43250D01*
X220130Y42250D01*
X219760Y41370D01*
X219200Y40620D01*
X218550Y40120D01*
X217800Y40000D01*
G01X223250D02*
Y47500D01*
X225110D01*
X225860Y47120D01*
X226420Y46620D01*
X226890Y45880D01*
X227260Y45000D01*
X227350Y43750D01*
X227260Y42500D01*
X226890Y41620D01*
X226420Y40870D01*
X225860Y40370D01*
X225110Y40000D01*
X223250D01*
G01X231030Y46250D02*
X231590Y47000D01*
X232240Y47380D01*
X232990Y47500D01*
X233920Y47250D01*
X234570Y46620D01*
X234760Y45880D01*
X234670Y45120D01*
X234290Y44500D01*
X232430Y43250D01*
X231590Y42370D01*
X231030Y41120D01*
X230840Y40000D01*
X234760D01*
G01X238340Y41000D02*
X239090Y40370D01*
X239930Y40000D01*
X240670D01*
X241420Y40370D01*
X241980Y41000D01*
X242260Y41880D01*
X242070Y42750D01*
X241610Y43500D01*
X240770Y44000D01*
X239650Y44250D01*
X238990Y44750D01*
X238710Y45620D01*
X238900Y46500D01*
X239370Y47120D01*
X240020Y47500D01*
X240670D01*
X241330Y47250D01*
X241890Y46620D01*
G01X245370Y40000D02*
Y47500D01*
X247800Y41250D01*
X250230Y47500D01*
Y40000D01*
G01X252970D02*
X255300Y47500D01*
X257630Y40000D01*
G01X256790Y42620D02*
X253810D01*
G01X222800Y20000D02*
X222050Y20120D01*
X221400Y20620D01*
X220840Y21370D01*
X220470Y22250D01*
X220280Y23250D01*
Y24250D01*
X220470Y25250D01*
X220840Y26130D01*
X221400Y26870D01*
X222050Y27380D01*
X222800Y27500D01*
X223550Y27380D01*
X224200Y26870D01*
X224760Y26130D01*
X225130Y25250D01*
X225320Y24250D01*
Y23250D01*
X225130Y22250D01*
X224760Y21370D01*
X224200Y20620D01*
X223550Y20120D01*
X222800Y20000D01*
G01X223550Y22000D02*
X224670Y20000D01*
G01X228710Y25000D02*
Y21500D01*
X229090Y20620D01*
X229650Y20120D01*
X230300Y20000D01*
X230950Y20120D01*
X231510Y20620D01*
X231890Y21500D01*
G01Y20000D02*
Y25000D01*
G01X236680Y27500D02*
X238920D01*
G01X237800D02*
Y20000D01*
G01X236680D02*
X238920D01*
G01X245300D02*
X244550Y20120D01*
X243900Y20620D01*
X243340Y21370D01*
X242970Y22250D01*
X242780Y23250D01*
Y24250D01*
X242970Y25250D01*
X243340Y26130D01*
X243900Y26870D01*
X244550Y27380D01*
X245300Y27500D01*
X246050Y27380D01*
X246700Y26870D01*
X247260Y26130D01*
X247630Y25250D01*
X247820Y24250D01*
Y23250D01*
X247630Y22250D01*
X247260Y21370D01*
X246700Y20620D01*
X246050Y20120D01*
X245300Y20000D01*
G01X246050Y22000D02*
X247170Y20000D01*
G01X254850Y26870D02*
X254290Y27250D01*
X253640Y27500D01*
X252890D01*
X252050Y27120D01*
X251400Y26500D01*
X250930Y25750D01*
X250560Y24500D01*
X250470Y23370D01*
X250650Y22250D01*
X250930Y21500D01*
X251490Y20750D01*
X252150Y20250D01*
X252800Y20000D01*
X253450D01*
X254110Y20250D01*
X254670Y20620D01*
X255130Y21120D01*
G01X258430Y27500D02*
Y20000D01*
X262170D01*
G01X210930Y81500D02*
X211400Y80750D01*
X211960Y80250D01*
X212610Y80000D01*
X213360Y80250D01*
X213920Y80750D01*
X214480Y81500D01*
X214670Y82500D01*
Y87500D01*
G01X221050Y84000D02*
X221420Y84370D01*
X221700Y85000D01*
X221890Y85880D01*
X221700Y86620D01*
X221330Y87120D01*
X220670Y87500D01*
X218150D01*
Y80000D01*
X221230D01*
X221890Y80500D01*
X222260Y81250D01*
X222450Y82130D01*
X222260Y83000D01*
X221700Y83750D01*
X221050Y84000D01*
X218150D01*
G01X228920Y80000D02*
Y87500D01*
X225470Y82130D01*
X230130D01*
G01X210930Y131500D02*
X211400Y130750D01*
X211960Y130250D01*
X212610Y130000D01*
X213360Y130250D01*
X213920Y130750D01*
X214480Y131500D01*
X214670Y132500D01*
Y137500D01*
G01X221050Y134000D02*
X221420Y134370D01*
X221700Y135000D01*
X221890Y135880D01*
X221700Y136620D01*
X221330Y137120D01*
X220670Y137500D01*
X218150D01*
Y130000D01*
X221230D01*
X221890Y130500D01*
X222260Y131250D01*
X222450Y132130D01*
X222260Y133000D01*
X221700Y133750D01*
X221050Y134000D01*
X218150D01*
G01X227800Y130000D02*
X228450Y130120D01*
X229200Y130500D01*
X229670Y131120D01*
X229850Y132000D01*
X229670Y132870D01*
X229110Y133620D01*
X228270Y134000D01*
X227330D01*
X226770Y134250D01*
X226310Y134870D01*
X226120Y135750D01*
X226400Y136620D01*
X227050Y137250D01*
X227800Y137500D01*
X228550Y137250D01*
X229200Y136620D01*
X229480Y135750D01*
X229290Y134870D01*
X228830Y134250D01*
X228270Y134000D01*
X227330D01*
X226490Y133620D01*
X225930Y132870D01*
X225750Y132000D01*
X225930Y131120D01*
X226400Y130500D01*
X227150Y130120D01*
X227800Y130000D01*
G01X210930Y181500D02*
X211400Y180750D01*
X211960Y180250D01*
X212610Y180000D01*
X213360Y180250D01*
X213920Y180750D01*
X214480Y181500D01*
X214670Y182500D01*
Y187500D01*
G01X221050Y184000D02*
X221420Y184370D01*
X221700Y185000D01*
X221890Y185880D01*
X221700Y186620D01*
X221330Y187120D01*
X220670Y187500D01*
X218150D01*
Y180000D01*
X221230D01*
X221890Y180500D01*
X222260Y181250D01*
X222450Y182130D01*
X222260Y183000D01*
X221700Y183750D01*
X221050Y184000D01*
X218150D01*
G01X225750Y181500D02*
X226310Y180620D01*
X227050Y180120D01*
X227890Y180000D01*
X228640Y180120D01*
X229390Y180750D01*
X229850Y181500D01*
X229950Y182250D01*
X229760Y183120D01*
X229110Y183750D01*
X228450Y184000D01*
X227610D01*
G01X228450D02*
X229010Y184370D01*
X229480Y185000D01*
X229670Y185750D01*
X229480Y186500D01*
X229010Y187120D01*
X228170Y187500D01*
X227330Y187380D01*
X226490Y186870D01*
G01X210930Y231500D02*
X211400Y230750D01*
X211960Y230250D01*
X212610Y230000D01*
X213360Y230250D01*
X213920Y230750D01*
X214480Y231500D01*
X214670Y232500D01*
Y237500D01*
G01X221050Y234000D02*
X221420Y234370D01*
X221700Y235000D01*
X221890Y235880D01*
X221700Y236620D01*
X221330Y237120D01*
X220670Y237500D01*
X218150D01*
Y230000D01*
X221230D01*
X221890Y230500D01*
X222260Y231250D01*
X222450Y232130D01*
X222260Y233000D01*
X221700Y233750D01*
X221050Y234000D01*
X218150D01*
G01X227610Y230000D02*
X227800Y231620D01*
X228080Y233000D01*
X228450Y234250D01*
X228920Y235620D01*
X229670Y237500D01*
X225930D01*
M02*
