G04 ================== begin FILE IDENTIFICATION RECORD ==================*
G04 Layout Name:  PMOD2BNCSIMPLE_v1_06_65mil_cheap.brd*
G04 Film Name:    BOTTOM*
G04 File Format:  Gerber RS274X*
G04 File Origin:  Cadence Allegro 23.1-P001*
G04 Origin Date:  Thu Nov 30 21:30:10 2023*
G04 *
G04 Layer:  ETCH/BOTTOM*
G04 Layer:  PIN/BOTTOM*
G04 Layer:  VIA CLASS/BOTTOM*
G04 *
G04 Offset:    (0.0000 0.0000)*
G04 Mirror:    No*
G04 Mode:      Positive*
G04 Rotation:  0*
G04 FullContactRelief:  No*
G04 UndefLineWidth:     0.0000*
G04 ================== end FILE IDENTIFICATION RECORD ====================*
%FSLAX55Y55*MOIN*%
%IR0*IPPOS*OFA0.00000B0.00000*MIA0B0*SFA1.00000B1.00000*%
%ADD12C,.02*%
%ADD10C,.05*%
%ADD15C,.065*%
%ADD14R,.0512X.0453*%
%ADD16R,.065X.065*%
%ADD11C,.0945*%
%ADD13R,.0886X.0886*%
%ADD17C,.0065*%
%ADD20C,.105*%
%ADD18R,.4004X.4004*%
%ADD19C,.0754*%
G75*
%LPD*%
G75*
G36*
G01X-30000Y457990D02*
X300000D01*
X307990Y450000D01*
Y410000D01*
X297990Y400000D01*
Y60000D01*
X307990Y50000D01*
Y10000D01*
X300000Y2010D01*
X-30000D01*
X-37990Y10000D01*
Y50000D01*
X-27990Y60000D01*
Y400000D01*
X-37990Y410000D01*
Y450000D01*
X-30000Y457990D01*
G37*
%LPC*%
G75*
G36*
G01X175050Y375570D02*
Y384430D01*
G02X175570Y384950I520J0D01*
G01X184430D01*
G02X184950Y384430I0J-520D01*
G01Y375570D01*
G02X184430Y375050I-520J0D01*
G01X175570D01*
G02X175050Y375570I0J520D01*
G37*
G36*
G01X-14950D02*
Y384430D01*
G02X-14430Y384950I520J0D01*
G01X-5570D01*
G02X-5050Y384430I0J-520D01*
G01Y375570D01*
G02X-5570Y375050I-520J0D01*
G01X-14430D01*
G02X-14950Y375570I0J520D01*
G37*
G36*
G01X275050Y275570D02*
Y284430D01*
G02X275570Y284950I520J0D01*
G01X284430D01*
G02X284950Y284430I0J-520D01*
G01Y275570D01*
G02X284430Y275050I-520J0D01*
G01X275570D01*
G02X275050Y275570I0J520D01*
G37*
G36*
G01X85050D02*
Y284430D01*
G02X85570Y284950I520J0D01*
G01X94430D01*
G02X94950Y284430I0J-520D01*
G01Y275570D01*
G02X94430Y275050I-520J0D01*
G01X85570D01*
G02X85050Y275570I0J520D01*
G37*
G36*
G01X175050Y175570D02*
Y184430D01*
G02X175570Y184950I520J0D01*
G01X184430D01*
G02X184950Y184430I0J-520D01*
G01Y175570D01*
G02X184430Y175050I-520J0D01*
G01X175570D01*
G02X175050Y175570I0J520D01*
G37*
G36*
G01X-14950D02*
Y184430D01*
G02X-14430Y184950I520J0D01*
G01X-5570D01*
G02X-5050Y184430I0J-520D01*
G01Y175570D01*
G02X-5570Y175050I-520J0D01*
G01X-14430D01*
G02X-14950Y175570I0J520D01*
G37*
G36*
G01X275050Y75570D02*
Y84430D01*
G02X275570Y84950I520J0D01*
G01X284430D01*
G02X284950Y84430I0J-520D01*
G01Y75570D01*
G02X284430Y75050I-520J0D01*
G01X275570D01*
G02X275050Y75570I0J520D01*
G37*
G36*
G01X85050D02*
Y84430D01*
G02X85570Y84950I520J0D01*
G01X94430D01*
G02X94950Y84430I0J-520D01*
G01Y75570D01*
G02X94430Y75050I-520J0D01*
G01X85570D01*
G02X85050Y75570I0J520D01*
G37*
G36*
G01X201230Y24050D02*
Y30550D01*
G02X201750Y31070I520J0D01*
G01X208250D01*
G02X208770Y30550I0J-520D01*
G01Y24050D01*
G02X208250Y23530I-520J0D01*
G01X201750D01*
G02X201230Y24050I0J520D01*
G37*
G36*
G01X111230D02*
Y30550D01*
G02X111750Y31070I520J0D01*
G01X118250D01*
G02X118770Y30550I0J-520D01*
G01Y24050D01*
G02X118250Y23530I-520J0D01*
G01X111750D01*
G02X111230Y24050I0J520D01*
G37*
G36*
G01X54420Y24880D02*
Y29420D01*
G02X54940Y29940I520J0D01*
G01X60060D01*
G02X60580Y29420I0J-520D01*
G01Y24880D01*
G02X60060Y24360I-520J0D01*
G01X54940D01*
G02X54420Y24880I0J520D01*
G37*
G36*
G01X-11160Y156160D02*
X-8660Y158660D01*
G02X-7500Y159140I1160J-1162D01*
G01X12500D01*
G02X13660Y158660I0J-1642D01*
G01X16160Y156160D01*
G02X16640Y155000I-1162J-1160D01*
G01Y150000D01*
G02X16160Y148840I-1642J0D01*
G01X13660Y146340D01*
G02X12500Y145860I-1160J1162D01*
G01X5680D01*
X4140Y144320D01*
Y140680D01*
X5680Y139140D01*
X12500D01*
G02X13660Y138660I0J-1642D01*
G01X16160Y136160D01*
G02X16640Y135000I-1162J-1160D01*
G01Y130000D01*
G02X16160Y128840I-1642J0D01*
G01X13660Y126340D01*
G02X12500Y125860I-1160J1162D01*
G01X5680D01*
X4140Y124320D01*
Y120680D01*
X5680Y119140D01*
X12500D01*
G02X13660Y118660I0J-1642D01*
G01X16160Y116160D01*
G02X16640Y115000I-1162J-1160D01*
G01Y13180D01*
X18180Y11640D01*
X24320D01*
X25860Y13180D01*
Y35000D01*
G02X26340Y36160I1642J0D01*
G01X31340Y41160D01*
G02X32500Y41640I1160J-1162D01*
G01X42500D01*
G02X43660Y41160I0J-1642D01*
G01X48660Y36160D01*
G02X49140Y35000I-1162J-1160D01*
G01Y23180D01*
X52830Y19500D01*
X54420D01*
Y20120D01*
G02X54940Y20640I520J0D01*
G01X60060D01*
G02X60580Y20120I0J-520D01*
G01Y19500D01*
X61930D01*
G02X65000Y21070I3063J-2203D01*
G02Y13530I0J-3770D01*
G02X61390Y16200I0J3775D01*
G01X60580D01*
Y15580D01*
G02X60060Y15060I-520J0D01*
G01X54940D01*
G02X54420Y15580I0J520D01*
G01Y16200D01*
X52150D01*
G02X50990Y16690I11J1645D01*
G01X46340Y21340D01*
G02X45860Y22500I1162J1160D01*
G01Y34320D01*
X41820Y38360D01*
X33180D01*
X29140Y34320D01*
Y12500D01*
G02X28660Y11340I-1642J0D01*
G01X26160Y8840D01*
G02X25000Y8360I-1160J1162D01*
G01X17500D01*
G02X16340Y8840I0J1642D01*
G01X13840Y11340D01*
G02X13360Y12500I1162J1160D01*
G01Y114320D01*
X11820Y115860D01*
X5000D01*
G02X3840Y116340I0J1642D01*
G01X1340Y118840D01*
G02X860Y120000I1162J1160D01*
G01Y125000D01*
G02X1340Y126160I1642J0D01*
G01X3840Y128660D01*
G02X5000Y129140I1160J-1162D01*
G01X11820D01*
X13360Y130680D01*
Y134320D01*
X11820Y135860D01*
X5000D01*
G02X3840Y136340I0J1642D01*
G01X1340Y138840D01*
G02X860Y140000I1162J1160D01*
G01Y145000D01*
G02X1340Y146160I1642J0D01*
G01X3840Y148660D01*
G02X5000Y149140I1160J-1162D01*
G01X11820D01*
X13360Y150680D01*
Y154320D01*
X11820Y155860D01*
X-6820D01*
X-8360Y154320D01*
Y152500D01*
G02X-8840Y151340I-1642J0D01*
G01X-11340Y148840D01*
G02X-12500Y148360I-1160J1162D01*
G01X-16820D01*
X-18360Y146820D01*
Y143180D01*
X-16820Y141640D01*
X-12500D01*
G02X-11340Y141160I0J-1642D01*
G01X-8840Y138660D01*
G02X-8360Y137500I-1162J-1160D01*
G01Y132500D01*
G02X-8840Y131340I-1642J0D01*
G01X-11340Y128840D01*
G02X-12500Y128360I-1160J1162D01*
G01X-16820D01*
X-18360Y126820D01*
Y123180D01*
X-16820Y121640D01*
X-12500D01*
G02X-11340Y121160I0J-1642D01*
G01X-8840Y118660D01*
G02X-8360Y117500I-1162J-1160D01*
G01Y112500D01*
G02X-8840Y111340I-1642J0D01*
G01X-11340Y108840D01*
G02X-12500Y108360I-1160J1162D01*
G01X-16820D01*
X-18360Y106820D01*
Y103180D01*
X-16820Y101640D01*
X-12500D01*
G02X-11340Y101160I0J-1642D01*
G01X-8840Y98660D01*
G02X-8360Y97500I-1162J-1160D01*
G01Y84950D01*
X-5570D01*
G02X-5050Y84430I0J-520D01*
G01Y75570D01*
G02X-5570Y75050I-520J0D01*
G01X-14430D01*
G02X-14950Y75570I0J520D01*
G01Y84430D01*
G02X-14430Y84950I520J0D01*
G01X-11640D01*
Y96820D01*
X-13180Y98360D01*
X-17500D01*
G02X-18660Y98840I0J1642D01*
G01X-21160Y101340D01*
G02X-21640Y102500I1162J1160D01*
G01Y107500D01*
G02X-21160Y108660I1642J0D01*
G01X-18660Y111160D01*
G02X-17500Y111640I1160J-1162D01*
G01X-13180D01*
X-11640Y113180D01*
Y116820D01*
X-13180Y118360D01*
X-17500D01*
G02X-18660Y118840I0J1642D01*
G01X-21160Y121340D01*
G02X-21640Y122500I1162J1160D01*
G01Y127500D01*
G02X-21160Y128660I1642J0D01*
G01X-18660Y131160D01*
G02X-17500Y131640I1160J-1162D01*
G01X-13180D01*
X-11640Y133180D01*
Y136820D01*
X-13180Y138360D01*
X-17500D01*
G02X-18660Y138840I0J1642D01*
G01X-21160Y141340D01*
G02X-21640Y142500I1162J1160D01*
G01Y147500D01*
G02X-21160Y148660I1642J0D01*
G01X-18660Y151160D01*
G02X-17500Y151640I1160J-1162D01*
G01X-13180D01*
X-11640Y153180D01*
Y155000D01*
G02X-11160Y156160I1642J0D01*
G37*
G36*
G01X156820Y146640D02*
X168840Y158660D01*
G02X170000Y159140I1160J-1162D01*
G01X200000D01*
G02X201160Y158660I0J-1642D01*
G01X203660Y156160D01*
G02X204140Y155000I-1162J-1160D01*
G01Y125000D01*
G02X203660Y123840I-1642J0D01*
G01X201160Y121340D01*
G02X200000Y120860I-1160J1162D01*
G01X190000D01*
G02X188840Y121340I0J1642D01*
G01X186340Y123840D01*
G02X185860Y125000I1162J1160D01*
G01Y134320D01*
X184320Y135860D01*
X180680D01*
X179140Y134320D01*
Y125000D01*
G02X178660Y123840I-1642J0D01*
G01X176160Y121340D01*
G02X175000Y120860I-1160J1162D01*
G01X170000D01*
G02X168840Y121340I0J1642D01*
G01X166340Y123840D01*
G02X165860Y125000I1162J1160D01*
G01Y134320D01*
X164320Y135860D01*
X160680D01*
X159140Y134320D01*
Y105680D01*
X160680Y104140D01*
X166820D01*
X168360Y105680D01*
Y110000D01*
G02X168840Y111160I1642J0D01*
G01X171340Y113660D01*
G02X172500Y114140I1160J-1162D01*
G01X187500D01*
G02X188660Y113660I0J-1642D01*
G01X193660Y108660D01*
G02X194140Y107500I-1162J-1160D01*
G01Y105000D01*
G02X193660Y103840I-1642J0D01*
G01X181640Y91820D01*
Y84950D01*
X184430D01*
G02X184950Y84430I0J-520D01*
G01Y75570D01*
G02X184430Y75050I-520J0D01*
G01X175570D01*
G02X175050Y75570I0J520D01*
G01Y84430D01*
G02X175570Y84950I520J0D01*
G01X178360D01*
Y92500D01*
G02X178840Y93660I1642J0D01*
G01X190860Y105680D01*
Y106820D01*
X186820Y110860D01*
X173180D01*
X171640Y109320D01*
Y105000D01*
G02X171160Y103840I-1642J0D01*
G01X168660Y101340D01*
G02X167500Y100860I-1160J1162D01*
G01X160000D01*
G02X158840Y101340I0J1642D01*
G01X156340Y103840D01*
G02X155860Y105000I1162J1160D01*
G01Y135000D01*
G02X156340Y136160I1642J0D01*
G01X158840Y138660D01*
G02X160000Y139140I1160J-1162D01*
G01X165000D01*
G02X166160Y138660I0J-1642D01*
G01X168660Y136160D01*
G02X169140Y135000I-1162J-1160D01*
G01Y125680D01*
X170680Y124140D01*
X174320D01*
X175860Y125680D01*
Y135000D01*
G02X176340Y136160I1642J0D01*
G01X178840Y138660D01*
G02X180000Y139140I1160J-1162D01*
G01X185000D01*
G02X186160Y138660I0J-1642D01*
G01X188660Y136160D01*
G02X189140Y135000I-1162J-1160D01*
G01Y125680D01*
X190680Y124140D01*
X199320D01*
X200860Y125680D01*
Y154320D01*
X199320Y155860D01*
X170680D01*
X158660Y143840D01*
G02X157500Y143360I-1160J1162D01*
G01X150680D01*
X149140Y141820D01*
Y72500D01*
G02X148660Y71340I-1642J0D01*
G01X139140Y61820D01*
Y51580D01*
X140120Y50610D01*
G02X140230Y50500I-1105J-1215D01*
G01X146240Y44500D01*
G03X146920Y44780I281J283D01*
G01Y46920D01*
G02X147440Y47440I520J0D01*
G01X152560D01*
G02X153080Y46920I0J-520D01*
G01Y42380D01*
G02X152560Y41860I-520J0D01*
G01X149840D01*
G03X149550Y41180I-5J-399D01*
G01X151160Y39570D01*
G02X151640Y38410I-1162J-1160D01*
G01Y38140D01*
X152560D01*
G02X153080Y37620I0J-520D01*
G01Y33080D01*
G02X152560Y32560I-520J0D01*
G01X151640D01*
Y30240D01*
G03X152330Y29960I402J0D01*
G02X155000Y31070I2670J-2656D01*
G02Y23530I0J-3770D01*
G02X152330Y24640I0J3766D01*
G03X151640Y24360I-288J-280D01*
G01Y22980D01*
X153760Y20860D01*
X153880Y20900D01*
G02X155000Y21070I1120J-3604D01*
G02X151230Y17300I0J-3770D01*
G02X151400Y18420I3774J0D01*
G01X151440Y18540D01*
X148840Y21140D01*
G02X148360Y22300I1162J1160D01*
G01Y32560D01*
X147440D01*
G02X146920Y33080I0J520D01*
G01Y37620D01*
G02X147230Y38090I520J-6D01*
G03X147350Y38740I-164J366D01*
G01X138010Y48070D01*
X138000Y48080D01*
G02X137900Y48180I1110J1210D01*
G01X136340Y49740D01*
G02X135860Y50900I1162J1160D01*
G01Y62500D01*
G02X136340Y63660I1642J0D01*
G01X145860Y73180D01*
Y142500D01*
G02X146340Y143660I1642J0D01*
G01X148840Y146160D01*
G02X150000Y146640I1160J-1162D01*
G01X156820D01*
G37*
G36*
G01X275050Y384430D02*
G02X275570Y384950I520J0D01*
G01X284430D01*
G02X284950Y384430I0J-520D01*
G01Y375570D01*
G02X284430Y375050I-520J0D01*
G01X281640D01*
Y362500D01*
G02X281160Y361340I-1642J0D01*
G01X258660Y338840D01*
G02X257500Y338360I-1160J1162D01*
G01X250680D01*
X234140Y321820D01*
Y72510D01*
G02X233660Y71350I-1642J0D01*
G01X213650Y51340D01*
G02X212490Y50860I-1160J1162D01*
G01X183090D01*
X181640Y49410D01*
Y47750D01*
G03X182220Y47380I403J-8D01*
G02X182440Y47440I243J-459D01*
G01X187560D01*
G02X188080Y46920I0J-520D01*
G01Y42380D01*
G02X188040Y42190I-519J10D01*
G03X188410Y41640I374J-148D01*
G01X226820D01*
X250860Y65680D01*
Y250000D01*
G02X251340Y251160I1642J0D01*
G01X253840Y253660D01*
G02X255000Y254140I1160J-1162D01*
G01X287500D01*
G02X288660Y253660I0J-1642D01*
G01X291160Y251160D01*
G02X291640Y250000I-1162J-1160D01*
G01Y242500D01*
G02X291160Y241340I-1642J0D01*
G01X288660Y238840D01*
G02X287500Y238360I-1160J1162D01*
G01X275670D01*
X274140Y236830D01*
Y233190D01*
X278190Y229140D01*
X287510D01*
G02X288670Y228660I0J-1642D01*
G01X291160Y226170D01*
G02X291640Y225010I-1162J-1160D01*
G01Y217500D01*
G02X291160Y216340I-1642J0D01*
G01X288660Y213840D01*
G02X287500Y213360I-1160J1162D01*
G01X283180D01*
X281640Y211820D01*
Y184950D01*
X284430D01*
G02X284950Y184430I0J-520D01*
G01Y175570D01*
G02X284430Y175050I-520J0D01*
G01X275570D01*
G02X275050Y175570I0J520D01*
G01Y184430D01*
G02X275570Y184950I520J0D01*
G01X278360D01*
Y212500D01*
G02X278840Y213660I1642J0D01*
G01X281340Y216160D01*
G02X282500Y216640I1160J-1162D01*
G01X286820D01*
X288360Y218180D01*
Y224330D01*
X286830Y225860D01*
X277510D01*
G02X276350Y226340I0J1642D01*
G01X271340Y231350D01*
G02X270860Y232510I1162J1160D01*
G01Y237510D01*
G02X271340Y238670I1642J0D01*
G01X273830Y241160D01*
G02X274990Y241640I1160J-1162D01*
G01X286820D01*
X288360Y243180D01*
Y249320D01*
X286820Y250860D01*
X255680D01*
X254140Y249320D01*
Y65000D01*
G02X253660Y63840I-1642J0D01*
G01X228660Y38840D01*
G02X227500Y38360I-1160J1162D01*
G01X188410D01*
G03X188040Y37810I4J-402D01*
G02X188080Y37620I-479J-200D01*
G01Y33080D01*
G02X187560Y32560I-520J0D01*
G01X186640D01*
Y30690D01*
G02X188770Y27300I-1633J-3390D01*
G02X181230I-3770J0D01*
G02X183360Y30690I3763J0D01*
G01Y32560D01*
X182440D01*
G02X181920Y33080I0J520D01*
G01Y37620D01*
G02X182440Y38140I520J0D01*
G01X183360D01*
Y38410D01*
G02X183840Y39570I1642J0D01*
G01X185430Y41160D01*
G02X185440Y41180I1397J-686D01*
G03X185160Y41860I-279J283D01*
G01X182440D01*
G02X181920Y42380I0J520D01*
G01Y42940D01*
X181580D01*
X181530Y42820D01*
G02X181160Y42250I-1532J590D01*
G01X177650Y38740D01*
G03X177770Y38090I284J-284D01*
G02X178080Y37620I-210J-476D01*
G01Y33080D01*
G02X177560Y32560I-520J0D01*
G01X176640D01*
Y30690D01*
G02X178770Y27300I-1633J-3390D01*
G02X171230I-3770J0D01*
G02X173360Y30690I3763J0D01*
G01Y32560D01*
X172440D01*
G02X171920Y33080I0J520D01*
G01Y37620D01*
G02X172440Y38140I520J0D01*
G01X173360D01*
Y38410D01*
G02X173840Y39570I1642J0D01*
G01X175450Y41180D01*
G03X175160Y41860I-285J281D01*
G01X172440D01*
G02X171920Y42380I0J520D01*
G01Y42940D01*
X171580D01*
X171530Y42820D01*
G02X171160Y42250I-1532J590D01*
G01X167650Y38740D01*
G03X167770Y38090I284J-284D01*
G02X168080Y37620I-210J-476D01*
G01Y33080D01*
G02X167560Y32560I-520J0D01*
G01X166640D01*
Y30690D01*
G02X168770Y27300I-1633J-3390D01*
G02X161230I-3770J0D01*
G02X163360Y30690I3763J0D01*
G01Y32560D01*
X162440D01*
G02X161920Y33080I0J520D01*
G01Y37620D01*
G02X162440Y38140I520J0D01*
G01X163360D01*
Y38410D01*
G02X163840Y39570I1642J0D01*
G01X165450Y41180D01*
G03X165160Y41860I-285J281D01*
G01X162440D01*
G02X161920Y42380I0J520D01*
G01Y46920D01*
G02X162440Y47440I520J0D01*
G01X167560D01*
G02X167780Y47380I-23J-519D01*
G03X168360Y47750I177J362D01*
G01Y55000D01*
G02X168840Y56160I1642J0D01*
G01X176340Y63660D01*
G02X177500Y64140I1160J-1162D01*
G01X199310D01*
X210860Y75690D01*
Y306820D01*
X189320Y328360D01*
X173180D01*
X169140Y324320D01*
Y310680D01*
X181160Y298660D01*
G02X181640Y297500I-1162J-1160D01*
G01Y284950D01*
X184430D01*
G02X184950Y284430I0J-520D01*
G01Y275570D01*
G02X184430Y275050I-520J0D01*
G01X175570D01*
G02X175050Y275570I0J520D01*
G01Y284430D01*
G02X175570Y284950I520J0D01*
G01X178360D01*
Y296820D01*
X166340Y308840D01*
G02X165860Y310000I1162J1160D01*
G01Y325000D01*
G02X166340Y326160I1642J0D01*
G01X171340Y331160D01*
G02X172500Y331640I1160J-1162D01*
G01X190000D01*
G02X191160Y331160I0J-1642D01*
G01X213660Y308660D01*
G02X214140Y307500I-1162J-1160D01*
G01Y75010D01*
G02X213660Y73850I-1642J0D01*
G01X201150Y61340D01*
G02X199990Y60860I-1160J1162D01*
G01X178180D01*
X171640Y54320D01*
Y47750D01*
G03X172220Y47380I403J-8D01*
G02X172440Y47440I243J-459D01*
G01X177560D01*
G02X177780Y47380I-23J-519D01*
G03X178360Y47750I177J362D01*
G01Y50090D01*
G02X178840Y51250I1642J0D01*
G01X181250Y53660D01*
G02X182410Y54140I1160J-1162D01*
G01X211810D01*
X230860Y73190D01*
Y322500D01*
G02X231340Y323660I1642J0D01*
G01X248840Y341160D01*
G02X250000Y341640I1160J-1162D01*
G01X256820D01*
X278360Y363180D01*
Y375050D01*
X275570D01*
G02X275050Y375570I0J520D01*
G01Y384430D01*
G37*
G36*
G01X51340Y386160D02*
G02X52500Y386640I1160J-1162D01*
G01X65000D01*
G02X66160Y386160I0J-1642D01*
G01X70680Y381640D01*
X85050D01*
Y384430D01*
G02X85570Y384950I520J0D01*
G01X94430D01*
G02X94950Y384430I0J-520D01*
G01Y375570D01*
G02X94430Y375050I-520J0D01*
G01X85570D01*
G02X85050Y375570I0J520D01*
G01Y378360D01*
X70000D01*
G02X68840Y378840I0J1642D01*
G01X64320Y383360D01*
X53180D01*
X44140Y374320D01*
Y370680D01*
X56160Y358660D01*
G02X56640Y357500I-1162J-1160D01*
G01Y75690D01*
X81160Y51170D01*
G02X81640Y50010I-1162J-1160D01*
G01Y47750D01*
G03X82220Y47380I403J-8D01*
G02X82440Y47440I243J-459D01*
G01X87560D01*
G02X87780Y47380I-23J-519D01*
G03X88360Y47750I177J362D01*
G01Y55000D01*
G02X88840Y56160I1642J0D01*
G01X93840Y61160D01*
G02X95000Y61640I1160J-1162D01*
G01X109320D01*
X125860Y78180D01*
Y284330D01*
X121830Y288360D01*
X115690D01*
X114140Y286810D01*
Y225000D01*
G02X113660Y223840I-1642J0D01*
G01X91640Y201820D01*
Y184950D01*
X94430D01*
G02X94950Y184430I0J-520D01*
G01Y175570D01*
G02X94430Y175050I-520J0D01*
G01X85570D01*
G02X85050Y175570I0J520D01*
G01Y184430D01*
G02X85570Y184950I520J0D01*
G01X88360D01*
Y202500D01*
G02X88840Y203660I1642J0D01*
G01X110860Y225680D01*
Y287490D01*
G02X111340Y288650I1642J0D01*
G01X113850Y291160D01*
G02X115010Y291640I1160J-1162D01*
G01X122510D01*
G02X123670Y291160I0J-1642D01*
G01X128660Y286170D01*
G02X129140Y285010I-1162J-1160D01*
G01Y77500D01*
G02X128660Y76340I-1642J0D01*
G01X111160Y58840D01*
G02X110000Y58360I-1160J1162D01*
G01X95680D01*
X91640Y54320D01*
Y47750D01*
G03X92220Y47380I403J-8D01*
G02X92440Y47440I243J-459D01*
G01X97560D01*
G02X98080Y46920I0J-520D01*
G01Y42380D01*
G02X97560Y41860I-520J0D01*
G01X94840D01*
G03X94550Y41180I-5J-399D01*
G01X96160Y39570D01*
G02X96640Y38410I-1162J-1160D01*
G01Y38140D01*
X97560D01*
G02X98080Y37620I0J-520D01*
G01Y33080D01*
G02X97560Y32560I-520J0D01*
G01X96640D01*
Y30690D01*
G02X98770Y27300I-1633J-3390D01*
G02X91230I-3770J0D01*
G02X93360Y30690I3763J0D01*
G01Y32560D01*
X92440D01*
G02X91920Y33080I0J520D01*
G01Y37620D01*
G02X92230Y38090I520J-6D01*
G03X92350Y38740I-164J366D01*
G01X88840Y42250D01*
G02X88470Y42820I1162J1160D01*
G01X88420Y42940D01*
X88080D01*
Y42380D01*
G02X87560Y41860I-520J0D01*
G01X84840D01*
G03X84550Y41180I-5J-399D01*
G01X86160Y39570D01*
G02X86640Y38410I-1162J-1160D01*
G01Y38140D01*
X87560D01*
G02X88080Y37620I0J-520D01*
G01Y33080D01*
G02X87560Y32560I-520J0D01*
G01X86640D01*
Y30690D01*
G02X88770Y27300I-1633J-3390D01*
G02X81230I-3770J0D01*
G02X83360Y30690I3763J0D01*
G01Y32560D01*
X82440D01*
G02X81920Y33080I0J520D01*
G01Y37620D01*
G02X82230Y38090I520J-6D01*
G03X82350Y38740I-164J366D01*
G01X78840Y42250D01*
G02X78470Y42820I1162J1160D01*
G01X78420Y42940D01*
X78080D01*
Y42380D01*
G02X77560Y41860I-520J0D01*
G01X74840D01*
G03X74550Y41180I-5J-399D01*
G01X76160Y39570D01*
G02X76640Y38410I-1162J-1160D01*
G01Y38140D01*
X77560D01*
G02X78080Y37620I0J-520D01*
G01Y33080D01*
G02X77560Y32560I-520J0D01*
G01X76640D01*
Y30690D01*
G02X78770Y27300I-1633J-3390D01*
G02X71230I-3770J0D01*
G02X73360Y30690I3763J0D01*
G01Y32560D01*
X72440D01*
G02X71920Y33080I0J520D01*
G01Y37620D01*
G02X72230Y38090I520J-6D01*
G03X72350Y38740I-164J366D01*
G01X68650Y42440D01*
X63420D01*
G02X62260Y42920I0J1642D01*
G01X33840Y71340D01*
G02X33360Y72500I1162J1160D01*
G01Y326820D01*
X26820Y333360D01*
X-1830D01*
X-8360Y326830D01*
Y284950D01*
X-5570D01*
G02X-5050Y284430I0J-520D01*
G01Y275570D01*
G02X-5570Y275050I-520J0D01*
G01X-14430D01*
G02X-14950Y275570I0J520D01*
G01Y284430D01*
G02X-14430Y284950I520J0D01*
G01X-11640D01*
Y327510D01*
G02X-11160Y328670I1642J0D01*
G01X-3670Y336160D01*
G02X-2510Y336640I1160J-1162D01*
G01X27500D01*
G02X28660Y336160I0J-1642D01*
G01X36160Y328660D01*
G02X36640Y327500I-1162J-1160D01*
G01Y73180D01*
X64100Y45720D01*
X69330D01*
G02X70490Y45240I0J-1642D01*
G01X71240Y44500D01*
G03X71920Y44780I281J283D01*
G01Y46920D01*
G02X72440Y47440I520J0D01*
G01X77560D01*
G02X77780Y47380I-23J-519D01*
G03X78360Y47750I177J362D01*
G01Y49330D01*
X53840Y73850D01*
G02X53360Y75010I1162J1160D01*
G01Y356820D01*
X41340Y368840D01*
G02X40860Y370000I1162J1160D01*
G01Y375000D01*
G02X41340Y376160I1642J0D01*
G01X51340Y386160D01*
G37*
G54D20*
X-20000Y70000D03*
X0D03*
X80000D03*
X100000D03*
X170000D03*
X190000D03*
X270000D03*
X290000D03*
X-20000Y90000D03*
X0D03*
X80000D03*
X100000D03*
X170000D03*
X190000D03*
X270000D03*
X290000D03*
X-20000Y170000D03*
X0D03*
X80000D03*
X100000D03*
X170000D03*
X190000D03*
X270000D03*
X290000D03*
X-20000Y190000D03*
X0D03*
X80000D03*
X100000D03*
X170000D03*
X190000D03*
X270000D03*
X290000D03*
X-20000Y270000D03*
X0D03*
X80000D03*
X100000D03*
X170000D03*
X190000D03*
X270000D03*
X290000D03*
X-20000Y290000D03*
X0D03*
X80000D03*
X100000D03*
X170000D03*
X190000D03*
X270000D03*
X290000D03*
X-20000Y370000D03*
X0D03*
X80000D03*
X100000D03*
X170000D03*
X190000D03*
X270000D03*
X290000D03*
X-20000Y390000D03*
X0D03*
X80000D03*
X100000D03*
X170000D03*
X190000D03*
X270000D03*
X290000D03*
G54D18*
X-10000Y30000D03*
X280000D03*
X-10000Y430000D03*
X280000D03*
G54D19*
X75000Y17300D03*
X85000D03*
X95000D03*
X105000D03*
X115000D03*
X165000D03*
X175000D03*
X185000D03*
X195000D03*
X205000D03*
X65000Y27300D03*
X105000D03*
X195000D03*
%LPD*%
G75*
G54D10*
X-10000Y30000D03*
Y430000D03*
X280000Y30000D03*
Y430000D03*
G54D11*
X-20000Y70000D03*
Y90000D03*
Y170000D03*
Y190000D03*
Y270000D03*
Y290000D03*
Y370000D03*
Y390000D03*
X0Y70000D03*
Y90000D03*
Y170000D03*
Y190000D03*
Y270000D03*
Y290000D03*
Y370000D03*
Y390000D03*
X80000Y70000D03*
Y90000D03*
Y170000D03*
Y190000D03*
Y270000D03*
Y290000D03*
Y370000D03*
Y390000D03*
X100000Y70000D03*
Y90000D03*
Y170000D03*
Y190000D03*
Y270000D03*
Y290000D03*
Y370000D03*
Y390000D03*
X170000Y70000D03*
Y90000D03*
Y170000D03*
Y190000D03*
Y270000D03*
Y290000D03*
Y370000D03*
Y390000D03*
X190000Y70000D03*
Y90000D03*
Y170000D03*
Y190000D03*
Y270000D03*
Y290000D03*
Y370000D03*
Y390000D03*
X270000Y70000D03*
Y90000D03*
Y170000D03*
Y190000D03*
Y270000D03*
Y290000D03*
Y370000D03*
Y390000D03*
X290000Y70000D03*
Y90000D03*
Y170000D03*
Y190000D03*
Y270000D03*
Y290000D03*
Y370000D03*
Y390000D03*
G54D12*
X-12500Y72500D03*
X-13320Y92670D03*
X-17500Y82500D03*
Y77500D03*
X-16360Y106440D03*
X-23320Y108680D03*
X-21130Y98920D03*
X-13320Y102670D03*
X-16280Y126520D03*
X-23320Y127840D03*
X-20460Y118260D03*
X-18630Y136680D03*
X-16660Y146140D03*
X-17090Y153320D03*
X-23320Y145510D03*
X-17500Y177500D03*
X-12500Y172500D03*
X-13320Y190000D03*
X-17500Y182500D03*
X-13320Y200000D03*
Y210000D03*
Y220000D03*
Y230000D03*
Y240000D03*
Y250000D03*
X-17500Y282500D03*
Y277500D03*
X-12500Y272500D03*
X-13320Y290000D03*
Y300000D03*
Y310000D03*
Y320000D03*
X-12270Y329940D03*
X-12500Y372500D03*
X-17500Y377500D03*
Y382500D03*
X-12500Y387500D03*
X-9000Y61000D03*
X-7500Y72500D03*
X-7010Y90800D03*
X-6680Y90640D03*
X-2500Y77500D03*
Y82500D03*
X-7240Y110550D03*
X-8310Y100510D03*
X-9000Y121000D03*
X4120Y114180D03*
X-820Y122860D03*
X5230Y130820D03*
X-820Y138790D03*
X-8360Y140560D03*
X-7170Y130630D03*
X6040Y141160D03*
X1340Y148550D03*
X1660Y154180D03*
X-7540Y150260D03*
X300Y160820D03*
X-9670Y160030D03*
X-7500Y172500D03*
X-2500Y177500D03*
X-6680Y190000D03*
X-2500Y182500D03*
X-6680Y200000D03*
Y210000D03*
Y220000D03*
Y230000D03*
Y240000D03*
X-10200Y259500D03*
X-290Y260820D03*
X-6680Y250000D03*
X2410Y254180D03*
X-2500Y282500D03*
X-7500Y272500D03*
X-2500Y277500D03*
X-6680Y290000D03*
Y300000D03*
Y310000D03*
Y320000D03*
X-3370Y329440D03*
X6380Y331680D03*
X-5200Y337020D03*
X4720Y338320D03*
X-9000Y361000D03*
X-5190Y357260D03*
X0Y383320D03*
Y376680D03*
X-7500Y372500D03*
Y387500D03*
X-9000Y451000D03*
X18000Y21000D03*
X14710Y8090D03*
X11680Y17620D03*
Y27620D03*
Y37620D03*
X18320Y32410D03*
X11680Y47620D03*
Y57620D03*
X18320Y42410D03*
Y52410D03*
X21000Y61000D03*
X11680Y67620D03*
X18320Y62410D03*
Y72410D03*
X18310D03*
X23670Y66630D03*
X19000Y90990D03*
X11680Y77620D03*
Y87620D03*
X18320Y82410D03*
X21680Y86430D03*
Y76430D03*
X11680Y97620D03*
Y107620D03*
X18320Y102410D03*
X21680Y106430D03*
Y96430D03*
X19000Y121000D03*
X18320Y112410D03*
X12920Y120820D03*
X21680Y126430D03*
Y116430D03*
X18320Y129240D03*
X15790Y138910D03*
X21680Y136430D03*
X11080Y150820D03*
X15100Y145400D03*
X18320Y154860D03*
X10300Y160820D03*
X21680Y156430D03*
Y146430D03*
Y176430D03*
Y166430D03*
Y196430D03*
Y186430D03*
X19000Y210990D03*
X21680Y206430D03*
Y226430D03*
Y216430D03*
X19000Y240990D03*
X21680Y246430D03*
Y236430D03*
X9180Y264050D03*
X12360Y255160D03*
X15820Y264540D03*
X21680Y266430D03*
Y256430D03*
X9180Y274050D03*
X15820Y274540D03*
X21680Y276430D03*
X21000Y301000D03*
X9180Y284050D03*
X13840Y292890D03*
X23840Y292710D03*
X15820Y284540D03*
X16380Y331680D03*
X14720Y338320D03*
X21000Y361000D03*
X10000Y383320D03*
X19940Y382260D03*
X10000Y376680D03*
X19440Y373360D03*
X21000Y391000D03*
Y421000D03*
Y451000D03*
X30030Y6190D03*
X30820Y14510D03*
X24610Y6680D03*
X24180Y14300D03*
X31670Y34470D03*
X30820Y24510D03*
X24180Y34300D03*
Y24300D03*
X40080Y43320D03*
X30130Y42330D03*
X41170Y58540D03*
X37810Y52490D03*
X28320Y73770D03*
X34100Y65610D03*
X30740Y59560D03*
X38320Y74860D03*
X31680Y72940D03*
X37780Y65020D03*
X28320Y83770D03*
X38320Y84860D03*
X31680Y92940D03*
Y82940D03*
X28320Y103770D03*
Y93770D03*
X38320Y104860D03*
Y94860D03*
X31680Y102940D03*
X28320Y123770D03*
Y113770D03*
X38320Y124860D03*
Y114860D03*
X31680Y122940D03*
Y112940D03*
X28320Y143770D03*
Y133770D03*
X38320Y144860D03*
Y134860D03*
X31680Y142940D03*
Y132940D03*
X28320Y153770D03*
X38320Y154860D03*
X31680Y152940D03*
X28320Y173770D03*
Y163770D03*
X38320Y174860D03*
Y164860D03*
X31680Y172940D03*
Y162940D03*
X28320Y193770D03*
Y183770D03*
X38320Y194860D03*
Y184860D03*
X31680Y192940D03*
Y182940D03*
X28320Y213770D03*
Y203770D03*
X38320Y204860D03*
X31680Y212940D03*
Y202940D03*
X28320Y223770D03*
X38320Y224860D03*
Y214860D03*
X31680Y222940D03*
X28320Y243770D03*
Y233770D03*
X38320Y244860D03*
Y234860D03*
X31680Y242940D03*
Y232940D03*
X28320Y263770D03*
Y253770D03*
X38320Y264860D03*
Y254860D03*
X31680Y262940D03*
Y252940D03*
X28320Y283770D03*
Y273770D03*
X38320Y274860D03*
X31680Y282940D03*
Y272940D03*
X38320Y294860D03*
Y284860D03*
X31680Y292940D03*
X38320Y314860D03*
Y304860D03*
X31680Y312940D03*
Y302940D03*
X33560Y333650D03*
X38320Y324860D03*
X26370Y331420D03*
X31680Y322940D03*
X24720Y338320D03*
X40650Y352150D03*
X34090Y368120D03*
X41160Y361050D03*
X26510Y366290D03*
X33580Y359220D03*
X39180Y370370D03*
X27010Y375190D03*
X47920Y17380D03*
X52500Y12500D03*
X57500Y10000D03*
X52500Y27500D03*
Y30000D03*
X44180Y26650D03*
X41510Y36290D03*
X48790Y38410D03*
X52690Y39180D03*
X55000Y45000D03*
Y47500D03*
X48240Y51460D03*
X48140Y51540D03*
X44880Y45420D03*
X58590Y52490D03*
X44850Y57950D03*
X51920Y50880D03*
X55730Y57980D03*
X55720Y57970D03*
X44890Y67310D03*
X51960Y60240D03*
X49110Y74010D03*
X56180Y66930D03*
X41680Y72200D03*
X48660Y65050D03*
X51680Y74760D03*
X48320Y83980D03*
X41680Y92200D03*
Y82200D03*
X51680Y84760D03*
X58320Y84960D03*
X48320Y103980D03*
Y93980D03*
X41680Y102200D03*
X51680Y94760D03*
Y104760D03*
X58320Y94960D03*
Y104960D03*
X48320Y123980D03*
Y113980D03*
X41680Y122200D03*
Y112200D03*
X51680Y114760D03*
Y124760D03*
X58320Y114960D03*
Y124960D03*
X48320Y143980D03*
Y133980D03*
X41680Y142200D03*
Y132200D03*
X51680Y134760D03*
Y144760D03*
X58320Y134960D03*
Y144960D03*
X48320Y153980D03*
X41680Y162200D03*
Y152200D03*
X51680Y154760D03*
X58320Y154960D03*
X48320Y173980D03*
Y163980D03*
X41680Y172200D03*
X51680Y164760D03*
Y174760D03*
X58320Y164960D03*
Y174960D03*
X48320Y193980D03*
Y183980D03*
X41680Y192200D03*
Y182200D03*
X51680Y184760D03*
Y194760D03*
X58320Y184960D03*
Y194960D03*
X48320Y213980D03*
Y203980D03*
X41680Y212200D03*
Y202200D03*
X51680Y204760D03*
X58320Y204960D03*
X48320Y223980D03*
X41680Y222200D03*
X51680Y214760D03*
Y224760D03*
X58320Y214960D03*
Y224960D03*
X48320Y243980D03*
Y233980D03*
X41680Y242200D03*
Y232200D03*
X51680Y234760D03*
Y244760D03*
X58320Y234960D03*
Y244960D03*
X48320Y263980D03*
Y253980D03*
X41680Y262200D03*
Y252200D03*
X51680Y254760D03*
Y264760D03*
X58320Y254960D03*
Y264960D03*
X48320Y273980D03*
X41680Y282200D03*
Y272200D03*
X51680Y274760D03*
X58320Y274960D03*
X48320Y293980D03*
Y283980D03*
X41680Y292200D03*
X51680Y284760D03*
Y294760D03*
X58320Y284960D03*
Y294960D03*
X48320Y313980D03*
Y303980D03*
X41680Y312200D03*
Y302200D03*
X51680Y304760D03*
Y314760D03*
X58320Y304960D03*
Y314960D03*
X48320Y333980D03*
Y323980D03*
X41680Y332200D03*
Y322200D03*
X51680Y324760D03*
Y334760D03*
X58320Y324960D03*
Y334960D03*
X48320Y343980D03*
X41680Y342200D03*
X51680Y344760D03*
X58320Y344960D03*
X48230Y353970D03*
X51680Y354760D03*
X45320Y362480D03*
X58320Y354960D03*
X53490Y363710D03*
X42570Y379770D03*
X49640Y386840D03*
X46420Y370780D03*
X51560Y379360D03*
X51000Y391000D03*
Y421000D03*
Y451000D03*
X65000Y10000D03*
X72500D03*
X68370Y40340D03*
X67500Y35000D03*
X75000Y50000D03*
X72500D03*
X59030Y53170D03*
X67200Y47400D03*
X70320Y52790D03*
X70280Y52830D03*
X62800Y50900D03*
X62700Y50810D03*
X63250Y59860D03*
X73800Y60910D03*
X66730Y67980D03*
X59660Y75050D03*
X73230Y71470D03*
X62620Y72670D03*
X69700Y65600D03*
X68320Y90180D03*
Y80180D03*
X61680Y92630D03*
Y82630D03*
X68320Y110180D03*
Y100180D03*
X61680Y102630D03*
X68320Y120180D03*
X61680Y122630D03*
Y112630D03*
X74180Y116280D03*
X73230Y127060D03*
X68320Y140180D03*
Y130180D03*
X61680Y142630D03*
Y132630D03*
X71680Y136940D03*
X68320Y160180D03*
Y150180D03*
X61680Y152630D03*
X71680Y146940D03*
X74360Y156570D03*
X68320Y170180D03*
X61680Y172630D03*
Y162630D03*
X68320Y190180D03*
Y180180D03*
X61680Y192630D03*
Y182630D03*
X68320Y210180D03*
Y200180D03*
X61680Y212630D03*
Y202630D03*
X68320Y230180D03*
Y220180D03*
X61680Y222630D03*
X68320Y240180D03*
X61680Y242630D03*
Y232630D03*
X68320Y260180D03*
Y250180D03*
X61680Y262630D03*
Y252630D03*
X68320Y280180D03*
Y270180D03*
X61680Y282630D03*
Y272630D03*
X68320Y300180D03*
Y290180D03*
X61680Y292630D03*
X68320Y310180D03*
X61680Y312630D03*
Y302630D03*
X68320Y330180D03*
Y320180D03*
X61680Y332630D03*
Y322630D03*
X72700Y339180D03*
X74170Y345820D03*
X64890Y342100D03*
X69140Y385560D03*
X61290Y381680D03*
X69950Y376680D03*
X59530Y388320D03*
X80000Y10000D03*
X87500D03*
X82500Y52500D03*
X87500D03*
Y50000D03*
X82500D03*
X87780Y55340D03*
X76770Y58530D03*
X90560Y63120D03*
X76690Y58750D03*
X92500Y72500D03*
X87500D03*
X86680Y90000D03*
X82500Y82500D03*
Y77500D03*
X83360Y99440D03*
X76290Y106510D03*
X92260Y99940D03*
X85190Y107010D03*
X79000Y121000D03*
X83080Y120820D03*
X93080D03*
X82810Y124180D03*
X89180Y131880D03*
X81680Y139410D03*
X81000Y151000D03*
X83410Y160820D03*
X86200Y148320D03*
X78320Y148830D03*
X86770Y154180D03*
X92500Y172500D03*
X82500Y177500D03*
X87500Y172500D03*
X86680Y195150D03*
X82500Y182500D03*
X81000Y211000D03*
X87880Y205080D03*
X81000Y241000D03*
X91410Y260090D03*
X92500Y272500D03*
X82500Y282500D03*
Y277500D03*
X87500Y272500D03*
X81000Y301000D03*
X86680Y290000D03*
Y300000D03*
Y310000D03*
X81000Y331000D03*
X86680Y320000D03*
Y330000D03*
X82700Y339180D03*
X92260Y339940D03*
X84170Y345820D03*
X81000Y361000D03*
X78890Y383320D03*
X79950Y376680D03*
X87500Y372500D03*
X92500D03*
X87500Y387500D03*
X92500D03*
X81000Y421000D03*
Y451000D03*
X95000Y10000D03*
X102500D03*
X110000D03*
X109000Y31000D03*
X104830Y38580D03*
X110000Y35000D03*
X95000Y52500D03*
X100000D03*
X95000Y50000D03*
X100000D03*
X97700Y55340D03*
X103690Y56680D03*
X108810Y51960D03*
X108910Y52090D03*
X102400Y63320D03*
X93320Y90000D03*
X97500Y82500D03*
Y77500D03*
X94480Y103320D03*
X104340Y101680D03*
X98320Y112310D03*
X104180Y120420D03*
X95540Y124180D03*
X104180Y130420D03*
Y140420D03*
X103320Y130460D03*
X97210Y144410D03*
X96680Y134420D03*
X93410Y160820D03*
X106430Y148270D03*
X96770Y154180D03*
X106440Y156740D03*
X103200Y162900D03*
X97500Y177500D03*
X93320Y194530D03*
X97500Y182500D03*
X103360Y211150D03*
X96280Y204080D03*
X94950Y212150D03*
X110430Y218220D03*
X109090Y226290D03*
X102020Y219220D03*
X109000Y241000D03*
X109180Y246290D03*
Y236290D03*
Y266290D03*
Y256290D03*
X109000Y271000D03*
X109180Y276290D03*
X97500Y282500D03*
Y277500D03*
X93320Y290000D03*
Y300000D03*
X109180Y286290D03*
X93320Y310000D03*
Y320000D03*
Y330000D03*
X97500Y377500D03*
Y382500D03*
X117500Y10000D03*
X122500Y15000D03*
Y22500D03*
Y30000D03*
X117500Y35000D03*
X118970Y52720D03*
X111900Y45650D03*
X111860Y66560D03*
X113220Y59760D03*
X120540Y65840D03*
X127610Y72910D03*
X127110Y61660D03*
X120820Y62540D03*
X114180Y70400D03*
X111000Y91000D03*
X124180Y82140D03*
Y92140D03*
X120820Y92540D03*
Y82540D03*
X120810Y92540D03*
X114180Y90400D03*
Y80400D03*
X124180Y102140D03*
X120820Y102540D03*
X110820Y109290D03*
Y99290D03*
X114180Y110400D03*
Y100400D03*
X111000Y121000D03*
X124180Y112140D03*
Y122140D03*
X120820Y122540D03*
Y112540D03*
X114180Y120400D03*
X124180Y132140D03*
Y142140D03*
X120820Y142540D03*
Y132540D03*
X110820Y129290D03*
Y139290D03*
X114180Y140400D03*
Y130400D03*
X111000Y151000D03*
X124180Y152140D03*
Y162140D03*
X119710Y162480D03*
X120820Y152540D03*
X114180Y150400D03*
X124180Y172140D03*
X111590Y168320D03*
X111000Y181000D03*
X124180Y182140D03*
Y192140D03*
X111000Y211000D03*
X124180Y202140D03*
Y212140D03*
Y222140D03*
X115820Y226640D03*
X124180Y232140D03*
Y242140D03*
X115820Y246640D03*
Y236640D03*
X124180Y252140D03*
Y262140D03*
X115820Y256640D03*
X124180Y272140D03*
Y282140D03*
X115820Y276640D03*
Y266640D03*
X111000Y301000D03*
X126050Y291170D03*
X116280Y293320D03*
X111000Y331000D03*
Y361000D03*
Y391000D03*
Y421000D03*
Y451000D03*
X141000Y31000D03*
X145000Y25000D03*
X134180Y54580D03*
Y54590D03*
X140500Y43210D03*
X134180Y50960D03*
X128720Y52580D03*
X140820Y69970D03*
Y59970D03*
X134180Y74580D03*
Y64580D03*
Y60960D03*
X141000Y91000D03*
X130820Y82380D03*
Y92380D03*
X140820Y79970D03*
X134180Y84580D03*
X144180Y78250D03*
Y88250D03*
X130820Y102380D03*
X140820Y109970D03*
Y99970D03*
X134180Y104580D03*
Y94580D03*
X144180Y98250D03*
Y108250D03*
X141000Y121000D03*
X130820Y112380D03*
Y122380D03*
X134180Y124580D03*
Y114580D03*
X144180Y118250D03*
X130820Y132380D03*
Y142380D03*
X140820Y139970D03*
Y129970D03*
X134180Y144580D03*
Y134580D03*
X144180Y128250D03*
Y138250D03*
X141000Y151000D03*
X130820Y152380D03*
Y162380D03*
X140820Y159970D03*
X134180Y154580D03*
X130820Y172380D03*
X140820Y169970D03*
X134180Y174580D03*
Y164580D03*
X141000Y181000D03*
X130820Y182380D03*
Y192380D03*
X140820Y189970D03*
X134180Y194580D03*
Y184580D03*
X141000Y211000D03*
X130820Y202380D03*
Y212380D03*
X140820Y199970D03*
X134180Y214580D03*
Y204580D03*
X130820Y222380D03*
X140820Y229970D03*
Y219970D03*
X134180Y224580D03*
X141000Y241000D03*
X130820Y232380D03*
Y242380D03*
X134180Y244580D03*
Y234580D03*
X130820Y252380D03*
Y262380D03*
X140820Y259970D03*
Y249970D03*
X134180Y264580D03*
Y254580D03*
X141000Y271000D03*
X130820Y272380D03*
Y282380D03*
X140820Y279970D03*
X134180Y274580D03*
X141000Y301000D03*
X144730Y289180D03*
X140820Y289970D03*
X136980Y294180D03*
X134180Y284580D03*
X141000Y331000D03*
Y361000D03*
Y391000D03*
Y421000D03*
Y451000D03*
X147500Y17500D03*
X152500Y10000D03*
X160000D03*
X161680Y39220D03*
X150000Y50000D03*
Y52500D03*
X155000Y50000D03*
Y52500D03*
X146450Y51700D03*
X146330Y51860D03*
X148100Y68400D03*
X150820Y78020D03*
Y88020D03*
Y98020D03*
Y108020D03*
X154180Y104860D03*
X162400Y99180D03*
X160820Y121450D03*
Y111450D03*
X150820Y118020D03*
X154180Y124860D03*
Y114860D03*
X150820Y128020D03*
Y138020D03*
X159740Y142540D03*
X162200Y140820D03*
X154180Y134860D03*
X147850Y147550D03*
X157590Y149790D03*
X156610Y236190D03*
X154180Y245890D03*
X160820Y246200D03*
X154180Y255890D03*
Y265890D03*
X160820Y256200D03*
Y266200D03*
X154180Y275890D03*
X160820Y276200D03*
X154180Y285890D03*
X160820Y286200D03*
X156830Y295370D03*
X146840Y295820D03*
X167500Y10000D03*
X175000D03*
X165000Y50000D03*
Y52500D03*
X173500Y50000D03*
Y52500D03*
X168080Y57780D03*
X175150Y64850D03*
X177500Y72500D03*
X176680Y90710D03*
X172500Y82500D03*
Y77500D03*
X171930Y102220D03*
X179120Y109180D03*
X176680Y100710D03*
X176430Y119220D03*
X166620Y121180D03*
X170210Y114910D03*
X171920Y125820D03*
X164180Y130880D03*
X174180Y135570D03*
X170820Y135770D03*
X171000Y151000D03*
X177780Y160780D03*
X164660Y156870D03*
X173850Y160820D03*
X166820Y149610D03*
X175710Y154180D03*
X172500Y177500D03*
X177500Y172500D03*
X176680Y190000D03*
X172500Y182500D03*
X171000Y211000D03*
X176680Y200000D03*
Y210000D03*
Y220000D03*
X175370Y229910D03*
X165530Y231680D03*
X171000Y241000D03*
X176970Y237720D03*
X166990Y238320D03*
X172500Y282500D03*
Y277500D03*
X177500Y272500D03*
X176680Y290000D03*
X173360Y299440D03*
X166290Y306510D03*
X164180Y316280D03*
X175190Y307010D03*
X170820Y316010D03*
X164180Y326280D03*
X171270Y333320D03*
X172980Y325780D03*
X179790Y350500D03*
X171000Y361000D03*
X176680Y370000D03*
Y360000D03*
X172500Y377500D03*
Y382500D03*
X177500Y387500D03*
X171000Y421000D03*
Y451000D03*
X195000Y7020D03*
X186070Y11530D03*
X182500Y10000D03*
X192500Y35000D03*
X185000Y50000D03*
X187500D03*
X187890Y55670D03*
X190630Y44180D03*
X182500Y72500D03*
X183320Y90910D03*
X187500Y82500D03*
Y77500D03*
X195820Y106420D03*
X190290Y98090D03*
X183310Y100910D03*
X188760Y106540D03*
X191890Y119180D03*
X184180Y125540D03*
X180170Y115820D03*
X190090Y114610D03*
X194750Y125820D03*
X195540Y113890D03*
X190820Y135020D03*
X182680Y140820D03*
X183850Y160820D03*
X193850D03*
X185710Y154180D03*
X195710D03*
X182500Y172500D03*
X187500Y177500D03*
X183320Y190000D03*
X187500Y182500D03*
X183320Y200000D03*
Y210000D03*
Y220000D03*
Y230000D03*
X183730Y260000D03*
X187500Y282500D03*
X182500Y272500D03*
X187500Y277500D03*
X183320Y290000D03*
X182260Y299940D03*
X181270Y333320D03*
X191270D03*
X182940Y326680D03*
X192260Y323040D03*
X188340Y351350D03*
X195410Y344280D03*
X186860Y343430D03*
X193930Y336360D03*
X183320Y370000D03*
Y360000D03*
X187500Y382500D03*
Y377500D03*
X182500Y387500D03*
X205000Y7020D03*
X212500Y20000D03*
X199000Y31000D03*
X198240Y36680D03*
X208240D03*
X212500Y27500D03*
X205000Y35000D03*
X205440Y50170D03*
X213010Y57720D03*
X213100Y57730D03*
X210630Y44180D03*
X200630D03*
X197710Y43320D03*
X207710D03*
X213100Y60910D03*
X211710Y68930D03*
X204640Y61860D03*
X204670D03*
X207880Y65690D03*
X199050Y66120D03*
X203710Y70920D03*
X201000Y91000D03*
X209180Y89290D03*
Y79290D03*
Y109290D03*
Y99290D03*
X201870Y119670D03*
X209180Y119290D03*
X205820Y138860D03*
Y128860D03*
X199180Y144790D03*
Y134790D03*
X209180Y139290D03*
Y129290D03*
X199000Y151000D03*
X203600Y158610D03*
X205820Y148860D03*
X209180Y159290D03*
Y149290D03*
Y179290D03*
Y169290D03*
X201000Y181000D03*
X209180Y189290D03*
X201000Y211000D03*
X209180Y209290D03*
Y199290D03*
Y229290D03*
Y219290D03*
X201000Y241000D03*
X209180Y239290D03*
Y259290D03*
Y249290D03*
X201000Y271000D03*
X209180Y279290D03*
Y269290D03*
X201000Y301000D03*
X209180Y299290D03*
Y289290D03*
X212540Y312160D03*
X199330Y315970D03*
X206400Y308900D03*
X209560Y330140D03*
X201000Y329280D03*
X208070Y322210D03*
X198400Y326310D03*
X205470Y319240D03*
X202480Y337210D03*
X201000Y361000D03*
Y391000D03*
Y421000D03*
Y451000D03*
X215000Y7020D03*
Y13680D03*
X225000Y25000D03*
Y27500D03*
X231000Y31000D03*
X218240Y36680D03*
X228240D03*
X222430Y57730D03*
X215350Y50660D03*
X215410D03*
X228060Y50870D03*
X220630Y44180D03*
X222130Y54340D03*
X222440Y54400D03*
X217710Y43320D03*
X227600Y44800D03*
X220170Y67980D03*
X215470Y72200D03*
X229500Y64800D03*
X227150Y71860D03*
X220080Y64790D03*
X229200Y61410D03*
X229000Y91000D03*
X225820Y86220D03*
Y76220D03*
X219180Y85990D03*
X218790Y76000D03*
X215820Y92720D03*
Y82720D03*
X229180Y81650D03*
X225820Y106220D03*
Y96220D03*
X219180Y105990D03*
Y95990D03*
X215820Y102720D03*
X229180Y101650D03*
X225820Y126220D03*
Y116220D03*
X219180Y125990D03*
Y115990D03*
X215820Y122720D03*
Y112720D03*
X229180Y121650D03*
Y111650D03*
X225820Y136220D03*
X219180Y135990D03*
X215820Y142720D03*
Y132720D03*
X229180Y141650D03*
Y131650D03*
X225820Y156220D03*
Y146220D03*
X219180Y155990D03*
Y145990D03*
X215820Y152720D03*
X229180Y161650D03*
Y151650D03*
X225820Y176220D03*
Y166220D03*
X219180Y175990D03*
Y165990D03*
X215820Y172720D03*
Y162720D03*
X229180Y171650D03*
X225820Y196220D03*
Y186220D03*
X219180Y195990D03*
Y185990D03*
X215820Y192720D03*
Y182720D03*
X229180Y191650D03*
Y181650D03*
X225820Y206220D03*
X219180Y205990D03*
X215820Y212720D03*
Y202720D03*
X229180Y211650D03*
Y201650D03*
X225820Y226220D03*
Y216220D03*
X219180Y225990D03*
Y215990D03*
X215820Y222720D03*
X229180Y231650D03*
Y221650D03*
X225820Y246220D03*
Y236220D03*
X219180Y245990D03*
Y235990D03*
X215820Y242720D03*
Y232720D03*
X229180Y241650D03*
X225820Y266220D03*
Y256220D03*
X219180Y265990D03*
Y255990D03*
X215820Y262720D03*
Y252720D03*
X229180Y261650D03*
Y251650D03*
X229000Y271000D03*
X225820Y276220D03*
X219180Y275990D03*
X215820Y282720D03*
Y272720D03*
X229180Y281650D03*
X229000Y301000D03*
X225820Y296220D03*
Y286220D03*
X219180Y295990D03*
Y285990D03*
X215820Y292720D03*
X229180Y291650D03*
X223700Y315990D03*
X225820Y306220D03*
X215150Y315140D03*
X219180Y305990D03*
X215820Y302720D03*
X229180Y311650D03*
X229000Y331000D03*
X216630Y323070D03*
X229180Y321650D03*
X231000Y361000D03*
Y391000D03*
Y421000D03*
Y451000D03*
X243710Y7020D03*
X233710D03*
X246680Y15940D03*
X236940Y13680D03*
X246680Y35940D03*
Y25940D03*
X235130Y57940D03*
X234670Y51870D03*
X235620Y43420D03*
X242690Y50490D03*
X246680Y45940D03*
X235820Y72550D03*
X245820Y74330D03*
X242200Y65010D03*
X236270Y68480D03*
X241740Y58940D03*
X248810Y66010D03*
X235820Y92550D03*
Y82550D03*
X245820Y84330D03*
X239180Y88050D03*
Y78050D03*
X249180Y76010D03*
Y86010D03*
X235820Y102550D03*
X245820Y104330D03*
Y94330D03*
X239180Y108050D03*
Y98050D03*
X249180Y96010D03*
Y106010D03*
X235820Y122550D03*
Y112550D03*
X245820Y124330D03*
Y114330D03*
X239180Y118050D03*
X249180Y116010D03*
Y126010D03*
X235820Y142550D03*
Y132550D03*
X245820Y144330D03*
Y134330D03*
X239180Y138050D03*
Y128050D03*
X249180Y136010D03*
X235820Y162550D03*
Y152550D03*
X245820Y154330D03*
X239180Y158050D03*
Y148050D03*
X249180Y146010D03*
Y156010D03*
X235820Y172550D03*
X245820Y174330D03*
Y164330D03*
X239180Y178050D03*
Y168050D03*
X249180Y166010D03*
Y176010D03*
X235820Y192550D03*
Y182550D03*
X245820Y194330D03*
Y184330D03*
X239180Y188050D03*
X249180Y186010D03*
Y196010D03*
X235820Y212550D03*
Y202550D03*
X245820Y214330D03*
Y204330D03*
X239180Y208050D03*
Y198050D03*
X249180Y206010D03*
X235820Y222550D03*
X245820Y224330D03*
X239180Y228050D03*
Y218050D03*
X249180Y216010D03*
Y226010D03*
X235820Y242550D03*
Y232550D03*
X245820Y244330D03*
Y234330D03*
X239180Y248050D03*
Y238050D03*
X249180Y236010D03*
Y246010D03*
X235820Y262550D03*
Y252550D03*
X245820Y264330D03*
Y254330D03*
X239180Y258050D03*
X235820Y282550D03*
Y272550D03*
X245820Y274330D03*
X239180Y278050D03*
Y268050D03*
X235820Y292550D03*
X245820Y294330D03*
Y284330D03*
X239180Y298050D03*
Y288050D03*
X235820Y312550D03*
Y302550D03*
X247590Y314180D03*
X245820Y304330D03*
X240730Y317930D03*
X239180Y308050D03*
X244230Y329530D03*
X237160Y322460D03*
X235050Y329750D03*
X242120Y336820D03*
X253320Y20770D03*
X252980Y10770D03*
X259000Y31000D03*
X253320Y40770D03*
Y30770D03*
X249760Y57560D03*
X264260Y57060D03*
X257190Y49990D03*
X252130Y54330D03*
X255820Y65510D03*
Y75510D03*
X259180Y71420D03*
Y61420D03*
X255820Y85510D03*
X265820Y76940D03*
X259180Y91420D03*
Y81420D03*
X255820Y95510D03*
Y105510D03*
X265820Y106940D03*
Y96940D03*
X259180Y101420D03*
X255820Y115510D03*
Y125510D03*
X265820Y126940D03*
Y116940D03*
X259180Y121420D03*
Y111420D03*
X255820Y135510D03*
X265820Y136940D03*
X259180Y141420D03*
Y131420D03*
X255820Y145510D03*
Y155510D03*
X265820Y146940D03*
X261450Y161160D03*
X259180Y151420D03*
X255820Y165510D03*
Y175510D03*
X261000Y181000D03*
X255820Y185510D03*
Y195510D03*
X261000Y211000D03*
X255820Y205510D03*
Y215510D03*
Y225510D03*
X261000Y241000D03*
X255820Y235510D03*
Y245510D03*
X265130Y249180D03*
X253030Y255230D03*
X263010Y255820D03*
X261000Y271000D03*
Y301000D03*
X257590Y314180D03*
X261000Y331000D03*
X260300Y320820D03*
X250300D03*
X261050Y338840D03*
X251300Y336600D03*
X259220Y346420D03*
X249710Y343320D03*
X261000Y361000D03*
X266290Y353490D03*
X261000Y391000D03*
X259000Y421000D03*
X261000Y451000D03*
X272080Y63460D03*
X282500Y72500D03*
X277500D03*
X276680Y90000D03*
X283320D03*
X272500Y82500D03*
Y77500D03*
X271650Y98650D03*
X269180Y108340D03*
X282260Y99940D03*
X277840Y113320D03*
X278420Y116680D03*
X269370Y120930D03*
X281040Y123320D03*
X271080Y130780D03*
X280750Y133320D03*
X272050Y138250D03*
X280110Y143320D03*
X269180Y147830D03*
X277530Y153320D03*
X278110Y156680D03*
X268110D03*
X281220Y163320D03*
X271220D03*
X282500Y172500D03*
X272500Y177500D03*
X277500Y172500D03*
X283320Y192170D03*
X276680Y195120D03*
X272500Y182500D03*
X283320Y202170D03*
X276680Y205120D03*
X272580Y227720D03*
X281930Y224180D03*
X277850Y215050D03*
X275130Y249180D03*
X277020Y243320D03*
X269180Y237120D03*
X276010Y261390D03*
X273010Y255820D03*
X283010D03*
X282500Y272500D03*
X272500Y282500D03*
Y277500D03*
X277500Y272500D03*
X276680Y290000D03*
Y300000D03*
X283320Y290000D03*
Y300000D03*
X276680Y310000D03*
X267590Y314180D03*
X283320Y310000D03*
X280210Y319500D03*
X270300Y320820D03*
X275190Y352990D03*
X268120Y345910D03*
X283320Y370000D03*
X282260Y360060D03*
X276680Y370000D03*
X273360Y360560D03*
X272500Y377500D03*
Y382500D03*
X277500Y387500D03*
X282500D03*
X291000Y61000D03*
X287500Y82500D03*
Y77500D03*
X289650Y106680D03*
X287840Y113320D03*
X295820Y114540D03*
X291040Y123320D03*
X290460Y126680D03*
X295820Y135120D03*
X290110Y143320D03*
X287530Y153320D03*
X289540Y146680D03*
X295820Y154450D03*
X291220Y163320D03*
X287500Y177500D03*
Y182500D03*
X291000Y211000D03*
X286420Y211680D03*
X291070Y228650D03*
X293320Y218910D03*
Y242370D03*
X285100Y236680D03*
X285130Y249180D03*
X292380Y252320D03*
X287500Y282500D03*
Y277500D03*
X291000Y301000D03*
Y331000D03*
Y361000D03*
X287500Y382500D03*
Y377500D03*
X291000Y451000D03*
G54D13*
X-10000Y80000D03*
Y180000D03*
Y280000D03*
Y380000D03*
X90000Y80000D03*
Y180000D03*
Y280000D03*
Y380000D03*
X180000Y80000D03*
Y180000D03*
Y280000D03*
Y380000D03*
X280000Y80000D03*
Y180000D03*
Y280000D03*
Y380000D03*
G54D14*
X57500Y17850D03*
Y27150D03*
X75000Y35350D03*
Y44650D03*
X85000Y35350D03*
Y44650D03*
X95000Y35350D03*
Y44650D03*
X150000Y35350D03*
Y44650D03*
X165000Y35350D03*
X175000D03*
X165000Y44650D03*
X175000D03*
X185000Y35350D03*
Y44650D03*
G54D15*
X65000Y17300D03*
X75000D03*
X65000Y27300D03*
X75000D03*
X85000Y17300D03*
X95000D03*
X85000Y27300D03*
X95000D03*
X105000Y17300D03*
Y27300D03*
X115000Y17300D03*
X155000D03*
Y27300D03*
X165000Y17300D03*
X175000D03*
X165000Y27300D03*
X175000D03*
X185000Y17300D03*
X195000D03*
X185000Y27300D03*
X195000D03*
X205000Y17300D03*
G54D16*
X115000Y27300D03*
X205000D03*
G54D17*
G01X-20000Y64550D02*
Y70000D01*
G01D02*
Y75450D01*
G01X-25450Y70000D02*
X-20000D01*
G01D02*
X-14550D01*
G01X-20000Y84550D02*
Y90000D01*
G01D02*
Y95450D01*
G01X-25450Y90000D02*
X-20000D01*
G01D02*
X-14550D01*
G01X57500Y17850D02*
X52150D01*
X47500Y22500D01*
Y35000D01*
X42500Y40000D01*
X32500D01*
X27500Y35000D01*
Y12500D01*
X25000Y10000D01*
X17500D01*
X15000Y12500D01*
Y115000D01*
X12500Y117500D01*
X5000D01*
X2500Y120000D01*
Y125000D01*
X5000Y127500D01*
X12500D01*
X15000Y130000D01*
Y135000D01*
X12500Y137500D01*
X5000D01*
X2500Y140000D01*
Y145000D01*
X5000Y147500D01*
X12500D01*
X15000Y150000D01*
Y155000D01*
X12500Y157500D01*
X-7500D01*
X-10000Y155000D01*
Y152500D01*
X-12500Y150000D01*
X-17500D01*
X-20000Y147500D01*
Y142500D01*
X-17500Y140000D01*
X-12500D01*
X-10000Y137500D01*
Y132500D01*
X-12500Y130000D01*
X-17500D01*
X-20000Y127500D01*
Y122500D01*
X-17500Y120000D01*
X-12500D01*
X-10000Y117500D01*
Y112500D01*
X-12500Y110000D01*
X-17500D01*
X-20000Y107500D01*
Y102500D01*
X-17500Y100000D01*
X-12500D01*
X-10000Y97500D01*
Y80000D01*
G01X-20000Y164550D02*
Y170000D01*
G01D02*
Y175450D01*
G01X-25450Y170000D02*
X-20000D01*
G01D02*
X-14550D01*
G01X-20000Y184550D02*
Y190000D01*
G01D02*
Y195450D01*
G01X-25450Y190000D02*
X-20000D01*
G01D02*
X-14550D01*
G01X-20000Y264550D02*
Y270000D01*
G01D02*
Y275450D01*
G01X-25450Y270000D02*
X-20000D01*
G01D02*
X-14550D01*
G01X-20000Y284550D02*
Y290000D01*
G01D02*
Y295450D01*
G01X-25450Y290000D02*
X-20000D01*
G01D02*
X-14550D01*
G01X-20000Y364550D02*
Y370000D01*
G01D02*
Y375450D01*
G01X-25450Y370000D02*
X-20000D01*
G01D02*
X-14550D01*
G01X-20000Y384550D02*
Y390000D01*
G01D02*
Y395450D01*
G01X-25450Y390000D02*
X-20000D01*
G01D02*
X-14550D01*
G01X0Y64550D02*
Y70000D01*
G01D02*
Y75450D01*
G01X-5450Y70000D02*
X0D01*
G01D02*
X5450D01*
G01X0Y84550D02*
Y90000D01*
G01D02*
Y95450D01*
G01X-5450Y90000D02*
X0D01*
G01D02*
X5450D01*
G01X0Y164550D02*
Y170000D01*
G01D02*
Y175450D01*
G01X-5450Y170000D02*
X0D01*
G01D02*
X5450D01*
G01X0Y184550D02*
Y190000D01*
G01D02*
Y195450D01*
G01X-5450Y190000D02*
X0D01*
G01D02*
X5450D01*
G01X0Y264550D02*
Y270000D01*
G01D02*
Y275450D01*
G01X-5450Y270000D02*
X0D01*
G01D02*
X5450D01*
G01X-10000Y280000D02*
Y327510D01*
X-2510Y335000D01*
X27500D01*
X35000Y327500D01*
Y72500D01*
X63420Y44080D01*
X69330D01*
X75000Y38410D01*
Y35350D01*
G01X0Y284550D02*
Y290000D01*
G01D02*
Y295450D01*
G01X-5450Y290000D02*
X0D01*
G01D02*
X5450D01*
G01X0Y364550D02*
Y370000D01*
G01D02*
Y375450D01*
G01X-5450Y370000D02*
X0D01*
G01D02*
X5450D01*
G01X0Y384550D02*
Y390000D01*
G01D02*
Y395450D01*
G01X-5450Y390000D02*
X0D01*
G01D02*
X5450D01*
G01X54220Y27150D02*
X57500D01*
G01X85000Y35350D02*
Y38410D01*
X80000Y43410D01*
Y50010D01*
X55000Y75010D01*
Y357500D01*
X42500Y370000D01*
Y375000D01*
X52500Y385000D01*
X65000D01*
X70000Y380000D01*
X90000D01*
G01X65000Y17300D02*
X64450Y17850D01*
X57500D01*
G01Y27150D02*
Y30140D01*
G01Y24160D02*
Y27150D01*
G01D02*
X60780D01*
G01X71720Y44650D02*
X75000D01*
G01X74550Y70000D02*
X80000D01*
G01X74550Y90000D02*
X80000D01*
G01X74550Y170000D02*
X80000D01*
G01X74550Y190000D02*
X80000D01*
G01X74550Y270000D02*
X80000D01*
G01X74550Y290000D02*
X80000D01*
G01X74550Y370000D02*
X80000D01*
G01X74550Y390000D02*
X80000D01*
G01X75000Y35350D02*
Y27300D01*
G01X85000Y35350D02*
Y27300D01*
G01Y44650D02*
Y47640D01*
G01X75000Y41660D02*
Y44650D01*
G01D02*
Y47640D01*
G01X95000Y35350D02*
Y38410D01*
X90000Y43410D01*
Y55000D01*
X95000Y60000D01*
X110000D01*
X127500Y77500D01*
Y285010D01*
X122510Y290000D01*
X115010D01*
X112500Y287490D01*
Y225000D01*
X90000Y202500D01*
Y180000D01*
G01X80000Y64550D02*
Y70000D01*
G01D02*
Y75450D01*
G01Y70000D02*
X85450D01*
G01X80000Y84550D02*
Y90000D01*
G01D02*
Y95450D01*
G01Y90000D02*
X85450D01*
G01X80000Y164550D02*
Y170000D01*
G01D02*
Y175450D01*
G01Y170000D02*
X85450D01*
G01X80000Y184550D02*
Y190000D01*
G01D02*
Y195450D01*
G01Y190000D02*
X85450D01*
G01X80000Y264550D02*
Y270000D01*
G01D02*
Y275450D01*
G01Y270000D02*
X85450D01*
G01X80000Y284550D02*
Y290000D01*
G01D02*
Y295450D01*
G01Y290000D02*
X85450D01*
G01X80000Y364550D02*
Y370000D01*
G01D02*
Y375450D01*
G01Y370000D02*
X85450D01*
G01X80000Y384550D02*
Y390000D01*
G01D02*
Y395450D01*
G01Y390000D02*
X85450D01*
G01X105000Y13330D02*
Y17300D01*
G01D02*
Y21270D01*
G01X101030Y17300D02*
X105000D01*
G01D02*
X108970D01*
G01X105000Y23330D02*
Y27300D01*
G01D02*
Y31270D01*
G01X101030Y27300D02*
X105000D01*
G01D02*
X108970D01*
G01X95000D02*
Y35350D01*
G01X99650Y44650D02*
X95000D01*
G01Y41660D02*
Y44650D01*
G01D02*
Y47640D01*
G01X100000Y64550D02*
Y70000D01*
G01D02*
Y75450D01*
G01X94550Y70000D02*
X100000D01*
G01D02*
X105450D01*
G01X100000Y84550D02*
Y90000D01*
G01D02*
Y95450D01*
G01X94550Y90000D02*
X100000D01*
G01D02*
X105450D01*
G01X100000Y164550D02*
Y170000D01*
G01D02*
Y175450D01*
G01X94550Y170000D02*
X100000D01*
G01D02*
X105450D01*
G01X100000Y184550D02*
Y190000D01*
G01D02*
Y195450D01*
G01X94550Y190000D02*
X100000D01*
G01D02*
X105450D01*
G01X100000Y264550D02*
Y270000D01*
G01D02*
Y275450D01*
G01X94550Y270000D02*
X100000D01*
G01D02*
X105450D01*
G01X100000Y284550D02*
Y290000D01*
G01D02*
Y295450D01*
G01X94550Y290000D02*
X100000D01*
G01D02*
X105450D01*
G01X100000Y364550D02*
Y370000D01*
G01D02*
Y375450D01*
G01X94550Y370000D02*
X100000D01*
G01D02*
X105450D01*
G01X100000Y384550D02*
Y390000D01*
G01D02*
Y395450D01*
G01X94550Y390000D02*
X100000D01*
G01D02*
X105450D01*
G01X150000Y35350D02*
Y38410D01*
X139070Y49340D01*
X139060D01*
X137500Y50900D01*
Y62500D01*
X147500Y72500D01*
Y142500D01*
X150000Y145000D01*
X157500D01*
X170000Y157500D01*
X200000D01*
X202500Y155000D01*
Y125000D01*
X200000Y122500D01*
X190000D01*
X187500Y125000D01*
Y135000D01*
X185000Y137500D01*
X180000D01*
X177500Y135000D01*
Y125000D01*
X175000Y122500D01*
X170000D01*
X167500Y125000D01*
Y135000D01*
X165000Y137500D01*
X160000D01*
X157500Y135000D01*
Y105000D01*
X160000Y102500D01*
X167500D01*
X170000Y105000D01*
Y110000D01*
X172500Y112500D01*
X187500D01*
X192500Y107500D01*
Y105000D01*
X180000Y92500D01*
Y80000D01*
G01X155000Y17300D02*
X150000Y22300D01*
Y35350D01*
G01Y41660D02*
Y44650D01*
G01D02*
Y47640D01*
G01X146720Y44650D02*
X150000D01*
G01D02*
X153280D01*
G01X175000Y27300D02*
Y35350D01*
G01X280000Y380000D02*
Y362500D01*
X257500Y340000D01*
X250000D01*
X232500Y322500D01*
Y72510D01*
X212490Y52500D01*
X182410D01*
X180000Y50090D01*
Y43410D01*
X175000Y38410D01*
Y35350D01*
G01X165000Y27300D02*
Y35350D01*
G01X180000Y280000D02*
Y297500D01*
X167500Y310000D01*
Y325000D01*
X172500Y330000D01*
X190000D01*
X212500Y307500D01*
Y75010D01*
X199990Y62500D01*
X177500D01*
X170000Y55000D01*
Y43410D01*
X165000Y38410D01*
Y35350D01*
G01Y44650D02*
Y47640D01*
G01X175000Y44650D02*
Y47640D01*
G01X165000Y41660D02*
Y44650D01*
G01X161720D02*
X165000D01*
G01X170000Y64550D02*
Y70000D01*
G01D02*
Y75450D01*
G01X164550Y70000D02*
X170000D01*
G01D02*
X175450D01*
G01X170000Y84550D02*
Y90000D01*
G01D02*
Y95450D01*
G01X164550Y90000D02*
X170000D01*
G01D02*
X175450D01*
G01X170000Y164550D02*
Y170000D01*
G01D02*
Y175450D01*
G01X164550Y170000D02*
X170000D01*
G01D02*
X175450D01*
G01X170000Y184550D02*
Y190000D01*
G01D02*
Y195450D01*
G01X164550Y190000D02*
X170000D01*
G01D02*
X175450D01*
G01X170000Y264550D02*
Y270000D01*
G01D02*
Y275450D01*
G01X164550Y270000D02*
X170000D01*
G01D02*
X175450D01*
G01X170000Y284550D02*
Y290000D01*
G01D02*
Y295450D01*
G01X164550Y290000D02*
X170000D01*
G01D02*
X175450D01*
G01X170000Y364550D02*
Y370000D01*
G01D02*
Y375450D01*
G01X164550Y370000D02*
X170000D01*
G01D02*
X175450D01*
G01X170000Y384550D02*
Y390000D01*
G01D02*
Y395450D01*
G01X164550Y390000D02*
X170000D01*
G01D02*
X175450D01*
G01X195000Y13330D02*
Y17300D01*
G01D02*
Y21270D01*
G01X191030Y17300D02*
X195000D01*
G01D02*
X198970D01*
G01X185000Y27300D02*
Y35350D01*
G01D02*
Y38410D01*
X186590Y40000D01*
X227500D01*
X252500Y65000D01*
Y250000D01*
X255000Y252500D01*
X287500D01*
X290000Y250000D01*
Y242500D01*
X287500Y240000D01*
X274990D01*
X272500Y237510D01*
Y232510D01*
X277510Y227500D01*
X287510D01*
X290000Y225010D01*
Y217500D01*
X287500Y215000D01*
X282500D01*
X280000Y212500D01*
Y180000D01*
G01X195000Y23330D02*
Y27300D01*
G01D02*
Y31270D01*
G01X191030Y27300D02*
X195000D01*
G01D02*
X198970D01*
G01X185000Y47750D02*
Y44650D01*
G01Y41660D02*
Y44650D01*
G01D02*
X188280D01*
G01X190000Y64550D02*
Y70000D01*
G01D02*
Y75450D01*
G01X184550Y70000D02*
X190000D01*
G01D02*
X195450D01*
G01X190000Y84550D02*
Y90000D01*
G01D02*
Y95450D01*
G01X184550Y90000D02*
X190000D01*
G01D02*
X195450D01*
G01X190000Y164550D02*
Y170000D01*
G01D02*
Y175450D01*
G01X184550Y170000D02*
X190000D01*
G01D02*
X195450D01*
G01X190000Y184550D02*
Y190000D01*
G01D02*
Y195450D01*
G01X184550Y190000D02*
X190000D01*
G01D02*
X195450D01*
G01X190000Y264550D02*
Y270000D01*
G01D02*
Y275450D01*
G01X184550Y270000D02*
X190000D01*
G01D02*
X195450D01*
G01X190000Y284550D02*
Y290000D01*
G01D02*
Y295450D01*
G01X184550Y290000D02*
X190000D01*
G01D02*
X195450D01*
G01X190000Y364550D02*
Y370000D01*
G01D02*
Y375450D01*
G01X184550Y370000D02*
X190000D01*
G01D02*
X195450D01*
G01X190000Y384550D02*
Y390000D01*
G01D02*
Y395450D01*
G01X184550Y390000D02*
X190000D01*
G01D02*
X195450D01*
G01X264550Y70000D02*
X270000D01*
G01X264550Y90000D02*
X270000D01*
G01X264550Y170000D02*
X270000D01*
G01X264550Y190000D02*
X270000D01*
G01X264550Y270000D02*
X270000D01*
G01X264550Y290000D02*
X270000D01*
G01X264550Y370000D02*
X270000D01*
G01X264550Y390000D02*
X270000D01*
G01Y64550D02*
Y70000D01*
G01D02*
Y75450D01*
G01Y70000D02*
X275450D01*
G01X270000Y84550D02*
Y90000D01*
G01D02*
Y95450D01*
G01Y90000D02*
X275450D01*
G01X270000Y164550D02*
Y170000D01*
G01D02*
Y175450D01*
G01Y170000D02*
X275450D01*
G01X270000Y184550D02*
Y190000D01*
G01D02*
Y195450D01*
G01Y190000D02*
X275450D01*
G01X270000Y264550D02*
Y270000D01*
G01D02*
Y275450D01*
G01Y270000D02*
X275450D01*
G01X270000Y284550D02*
Y290000D01*
G01D02*
Y295450D01*
G01Y290000D02*
X275450D01*
G01X270000Y364550D02*
Y370000D01*
G01D02*
Y375450D01*
G01Y370000D02*
X275450D01*
G01X270000Y384550D02*
Y390000D01*
G01D02*
Y395450D01*
G01Y390000D02*
X275450D01*
G01X290000Y64550D02*
Y70000D01*
G01D02*
Y75450D01*
G01X284550Y70000D02*
X290000D01*
G01D02*
X295450D01*
G01X290000Y84550D02*
Y90000D01*
G01D02*
Y95450D01*
G01X284550Y90000D02*
X290000D01*
G01D02*
X295450D01*
G01X290000Y164550D02*
Y170000D01*
G01D02*
Y175450D01*
G01X284550Y170000D02*
X290000D01*
G01D02*
X295450D01*
G01X290000Y184550D02*
Y190000D01*
G01D02*
Y195450D01*
G01X284550Y190000D02*
X290000D01*
G01D02*
X295450D01*
G01X290000Y264550D02*
Y270000D01*
G01D02*
Y275450D01*
G01X284550Y270000D02*
X290000D01*
G01D02*
X295450D01*
G01X290000Y284550D02*
Y290000D01*
G01D02*
Y295450D01*
G01X284550Y290000D02*
X290000D01*
G01D02*
X295450D01*
G01X290000Y364550D02*
Y370000D01*
G01D02*
Y375450D01*
G01X284550Y370000D02*
X290000D01*
G01D02*
X295450D01*
G01X290000Y384550D02*
Y390000D01*
G01D02*
Y395450D01*
G01X284550Y390000D02*
X290000D01*
G01D02*
X295450D01*
M02*
