G04 ================== begin FILE IDENTIFICATION RECORD ==================*
G04 Layout Name:  PMOD2BNCSIMPLE_v1_06_65mil.brd*
G04 Film Name:    Drill_1-2*
G04 File Format:  Gerber RS274X*
G04 File Origin:  Cadence Allegro 23.1-P001*
G04 Origin Date:  Wed Nov 29 22:01:42 2023*
G04 *
G04 Layer:  MANUFACTURING/NCLEGEND-1-2*
G04 Layer:  BOARD GEOMETRY/OUTLINE*
G04 Layer:  BOARD GEOMETRY/DESIGN_OUTLINE*
G04 Layer:  BOARD GEOMETRY/CUTOUT*
G04 *
G04 Offset:    (0.0000 0.0000)*
G04 Mirror:    No*
G04 Mode:      Positive*
G04 Rotation:  0*
G04 FullContactRelief:  No*
G04 UndefLineWidth:     0.0050*
G04 ================== end FILE IDENTIFICATION RECORD ====================*
%FSLAX55Y55*MOIN*%
%IR0*IPPOS*OFA0.00000B0.00000*MIA0B0*SFA1.00000B1.00000*%
%AMMACRO10*
1,1,.005,.014,.014*
20,1,.005,.014,.014,.014,-.014,0.0*
1,1,.005,.014,-.014*
20,1,.005,.014,-.014,-.014,-.014,0.0*
1,1,.005,-.014,-.014*
20,1,.005,-.014,-.014,-.014,.014,0.0*
1,1,.005,-.014,.014*
20,1,.005,-.014,.014,.014,.014,0.0*
1,1,.005,.014,.014*
%
%ADD10MACRO10*%
%ADD11C,.005*%
G75*
%LPD*%
G75*
G54D10*
X7450Y-450000D03*
X60000Y44650D03*
X80000D03*
X90000D03*
X100000D03*
X155000D03*
X170000D03*
X180000D03*
X190000D03*
G54D11*
G01X-37500Y-462500D02*
Y-362500D01*
X660000D01*
Y-462500D01*
X-37500D01*
G01Y-437500D02*
X660000D01*
G01X-37500Y-412500D02*
X660000D01*
G01X-37500Y-387500D02*
X660000D01*
G01X-30000Y0D02*
X300000D01*
X310000Y10000D01*
Y50000D01*
X300000Y60000D01*
Y400000D01*
X310000Y410000D01*
Y450000D01*
X300000Y460000D01*
X-30000D01*
X-40000Y450000D01*
Y410000D01*
X-30000Y400000D01*
Y60000D01*
X-40000Y50000D01*
Y10000D01*
X-30000Y0D01*
G01X-26500Y-431250D02*
Y-418750D01*
X-20600D01*
G01X-22780Y-424790D02*
X-26500D01*
G01X-13010Y-418750D02*
X-9290D01*
G01X-11150D02*
Y-431250D01*
G01X-13010D02*
X-9290D01*
G01X2180Y-425000D02*
X5280D01*
Y-428750D01*
X4350Y-430000D01*
X3260Y-430830D01*
X1720Y-431250D01*
X170Y-430830D01*
X-920Y-430000D01*
X-1850Y-428750D01*
X-2470Y-427290D01*
X-2780Y-425630D01*
Y-424170D01*
X-2470Y-422920D01*
X-1850Y-421460D01*
X-920Y-420210D01*
X10Y-419380D01*
X1250Y-418750D01*
X2330D01*
X3570Y-419170D01*
X4510Y-420000D01*
G01X10240Y-418750D02*
Y-427710D01*
X10860Y-429580D01*
X12100Y-430830D01*
X13650Y-431250D01*
X15200Y-430830D01*
X16440Y-429580D01*
X17060Y-427710D01*
Y-418750D01*
G01X22950Y-431250D02*
Y-418750D01*
X26820D01*
X28060Y-419380D01*
X28840Y-420210D01*
X29150Y-421880D01*
X28840Y-423540D01*
X27910Y-424580D01*
X26820Y-425210D01*
X22950D01*
G01X26820D02*
X29150Y-431250D01*
G01X41550D02*
X35350D01*
Y-418750D01*
X41550D01*
G01X39070Y-424790D02*
X35350D01*
G01X52400Y-412500D02*
Y-462500D01*
G01X75800Y-431250D02*
Y-418750D01*
X81700D01*
G01X79520Y-424790D02*
X75800D01*
G01X89290Y-418750D02*
X93010D01*
G01X91150D02*
Y-431250D01*
G01X89290D02*
X93010D01*
G01X99990D02*
Y-418750D01*
X107110Y-431250D01*
Y-418750D01*
G01X114090D02*
X117810D01*
G01X115950D02*
Y-431250D01*
G01X114090D02*
X117810D01*
G01X125090Y-429580D02*
X126340Y-430630D01*
X127730Y-431250D01*
X128970D01*
X130210Y-430630D01*
X131140Y-429580D01*
X131610Y-428120D01*
X131300Y-426670D01*
X130520Y-425420D01*
X129120Y-424580D01*
X127270Y-424170D01*
X126180Y-423330D01*
X125710Y-421880D01*
X126030Y-420420D01*
X126800Y-419380D01*
X127880Y-418750D01*
X128970D01*
X130060Y-419170D01*
X130990Y-420210D01*
G01X137490Y-431250D02*
Y-418750D01*
G01X144010D02*
Y-431250D01*
G01Y-425000D02*
X137490D01*
G01X156250Y-431250D02*
X150050D01*
Y-418750D01*
X156250D01*
G01X153770Y-424790D02*
X150050D01*
G01X162140Y-431250D02*
Y-418750D01*
X165240D01*
X166480Y-419380D01*
X167410Y-420210D01*
X168190Y-421460D01*
X168810Y-422920D01*
X168960Y-425000D01*
X168810Y-427080D01*
X168190Y-428540D01*
X167410Y-429790D01*
X166480Y-430630D01*
X165240Y-431250D01*
X162140D01*
G01X173300Y-435420D02*
X182600D01*
G01X187090Y-429580D02*
X188340Y-430630D01*
X189730Y-431250D01*
X190970D01*
X192210Y-430630D01*
X193140Y-429580D01*
X193610Y-428120D01*
X193300Y-426670D01*
X192520Y-425420D01*
X191120Y-424580D01*
X189270Y-424170D01*
X188180Y-423330D01*
X187710Y-421880D01*
X188030Y-420420D01*
X188800Y-419380D01*
X189880Y-418750D01*
X190970D01*
X192060Y-419170D01*
X192990Y-420210D01*
G01X200890Y-418750D02*
X204610D01*
G01X202750D02*
Y-431250D01*
G01X200890D02*
X204610D01*
G01X212200Y-418750D02*
X218100D01*
X212200Y-431250D01*
X218100D01*
G01X230650D02*
X224450D01*
Y-418750D01*
X230650D01*
G01X228170Y-424790D02*
X224450D01*
G01X128350Y-443750D02*
X127110Y-444170D01*
X126180Y-445210D01*
X125560Y-446460D01*
X125090Y-448130D01*
X124940Y-450000D01*
X125090Y-451880D01*
X125560Y-453540D01*
X126180Y-454790D01*
X127110Y-455830D01*
X128350Y-456250D01*
X129590Y-455830D01*
X130520Y-454790D01*
X131140Y-453540D01*
X131610Y-451880D01*
X131760Y-450000D01*
X131610Y-448130D01*
X131140Y-446460D01*
X130520Y-445210D01*
X129590Y-444170D01*
X128350Y-443750D01*
G01X140750Y-456670D02*
X140440Y-456460D01*
Y-456040D01*
X140750Y-455830D01*
X141060Y-456040D01*
Y-456460D01*
X140750Y-456670D01*
G01X153150Y-443750D02*
X151910Y-444170D01*
X150980Y-445210D01*
X150360Y-446460D01*
X149890Y-448130D01*
X149740Y-450000D01*
X149890Y-451880D01*
X150360Y-453540D01*
X150980Y-454790D01*
X151910Y-455830D01*
X153150Y-456250D01*
X154390Y-455830D01*
X155320Y-454790D01*
X155940Y-453540D01*
X156410Y-451880D01*
X156560Y-450000D01*
X156410Y-448130D01*
X155940Y-446460D01*
X155320Y-445210D01*
X154390Y-444170D01*
X153150Y-443750D01*
G01X162600Y-445830D02*
X163540Y-444580D01*
X164620Y-443960D01*
X165860Y-443750D01*
X167410Y-444170D01*
X168500Y-445210D01*
X168810Y-446460D01*
X168650Y-447710D01*
X168030Y-448750D01*
X164930Y-450830D01*
X163540Y-452290D01*
X162600Y-454380D01*
X162290Y-456250D01*
X168810D01*
G01X177950D02*
X179030Y-456040D01*
X180270Y-455420D01*
X181050Y-454380D01*
X181360Y-452920D01*
X181050Y-451460D01*
X180120Y-450210D01*
X178720Y-449580D01*
X177180D01*
X176240Y-449170D01*
X175470Y-448130D01*
X175160Y-446670D01*
X175630Y-445210D01*
X176710Y-444170D01*
X177950Y-443750D01*
X179190Y-444170D01*
X180270Y-445210D01*
X180740Y-446670D01*
X180430Y-448130D01*
X179660Y-449170D01*
X178720Y-449580D01*
X177180D01*
X175780Y-450210D01*
X174850Y-451460D01*
X174540Y-452920D01*
X174850Y-454380D01*
X175630Y-455420D01*
X176870Y-456040D01*
X177950Y-456250D01*
G01X170970Y-406250D02*
X174850Y-393750D01*
X178730Y-406250D01*
G01X177330Y-401880D02*
X172370D01*
G01X184150Y-393750D02*
Y-406250D01*
X190350D01*
G01X196550Y-393750D02*
Y-406250D01*
X202750D01*
G01X221040Y-393750D02*
Y-402710D01*
X221660Y-404580D01*
X222900Y-405830D01*
X224450Y-406250D01*
X226000Y-405830D01*
X227240Y-404580D01*
X227860Y-402710D01*
Y-393750D01*
G01X233290Y-406250D02*
Y-393750D01*
X240410Y-406250D01*
Y-393750D01*
G01X247390D02*
X251110D01*
G01X249250D02*
Y-406250D01*
G01X247390D02*
X251110D01*
G01X261650Y-393750D02*
Y-406250D01*
G01X258090Y-393750D02*
X265210D01*
G01X270790Y-404580D02*
X272040Y-405630D01*
X273430Y-406250D01*
X274670D01*
X275910Y-405630D01*
X276840Y-404580D01*
X277310Y-403120D01*
X277000Y-401670D01*
X276220Y-400420D01*
X274820Y-399580D01*
X272970Y-399170D01*
X271880Y-398330D01*
X271410Y-396880D01*
X271730Y-395420D01*
X272500Y-394380D01*
X273580Y-393750D01*
X274670D01*
X275760Y-394170D01*
X276690Y-395210D01*
G01X294970Y-406250D02*
X298850Y-393750D01*
X302730Y-406250D01*
G01X301330Y-401880D02*
X296370D01*
G01X308150Y-406250D02*
Y-393750D01*
X312020D01*
X313260Y-394380D01*
X314040Y-395210D01*
X314350Y-396880D01*
X314040Y-398540D01*
X313110Y-399580D01*
X312020Y-400210D01*
X308150D01*
G01X312020D02*
X314350Y-406250D01*
G01X326750D02*
X320550D01*
Y-393750D01*
X326750D01*
G01X324270Y-399790D02*
X320550D01*
G01X346590Y-393750D02*
X350310D01*
G01X348450D02*
Y-406250D01*
G01X346590D02*
X350310D01*
G01X357290D02*
Y-393750D01*
X364410Y-406250D01*
Y-393750D01*
G01X383790D02*
X387510D01*
G01X385650D02*
Y-406250D01*
G01X383790D02*
X387510D01*
G01X394490D02*
Y-393750D01*
X401610Y-406250D01*
Y-393750D01*
G01X413860Y-394790D02*
X412930Y-394170D01*
X411850Y-393750D01*
X410610D01*
X409210Y-394380D01*
X408130Y-395420D01*
X407350Y-396670D01*
X406730Y-398750D01*
X406570Y-400630D01*
X406890Y-402500D01*
X407350Y-403750D01*
X408280Y-405000D01*
X409370Y-405830D01*
X410450Y-406250D01*
X411530D01*
X412620Y-405830D01*
X413550Y-405210D01*
X414330Y-404380D01*
G01X419590Y-406250D02*
Y-393750D01*
G01X426110D02*
Y-406250D01*
G01Y-400000D02*
X419590D01*
G01X438350Y-406250D02*
X432150D01*
Y-393750D01*
X438350D01*
G01X435870Y-399790D02*
X432150D01*
G01X444390Y-404580D02*
X445640Y-405630D01*
X447030Y-406250D01*
X448270D01*
X449510Y-405630D01*
X450440Y-404580D01*
X450910Y-403120D01*
X450600Y-401670D01*
X449820Y-400420D01*
X448420Y-399580D01*
X446570Y-399170D01*
X445480Y-398330D01*
X445010Y-396880D01*
X445330Y-395420D01*
X446100Y-394380D01*
X447180Y-393750D01*
X448270D01*
X449360Y-394170D01*
X450290Y-395210D01*
G01X165240Y-381250D02*
Y-368750D01*
X168340D01*
X169580Y-369380D01*
X170510Y-370210D01*
X171290Y-371460D01*
X171910Y-372920D01*
X172060Y-375000D01*
X171910Y-377080D01*
X171290Y-378540D01*
X170510Y-379790D01*
X169580Y-380630D01*
X168340Y-381250D01*
X165240D01*
G01X177950D02*
Y-368750D01*
X181820D01*
X183060Y-369380D01*
X183840Y-370210D01*
X184150Y-371880D01*
X183840Y-373540D01*
X182910Y-374580D01*
X181820Y-375210D01*
X177950D01*
G01X181820D02*
X184150Y-381250D01*
G01X191590Y-368750D02*
X195310D01*
G01X193450D02*
Y-381250D01*
G01X191590D02*
X195310D01*
G01X202750Y-368750D02*
Y-381250D01*
X208950D01*
G01X215150Y-368750D02*
Y-381250D01*
X221350D01*
G01X246460Y-369790D02*
X245530Y-369170D01*
X244450Y-368750D01*
X243210D01*
X241810Y-369380D01*
X240730Y-370420D01*
X239950Y-371670D01*
X239330Y-373750D01*
X239170Y-375630D01*
X239490Y-377500D01*
X239950Y-378750D01*
X240880Y-380000D01*
X241970Y-380830D01*
X243050Y-381250D01*
X244130D01*
X245220Y-380830D01*
X246150Y-380210D01*
X246930Y-379380D01*
G01X252190Y-381250D02*
Y-368750D01*
G01X258710D02*
Y-381250D01*
G01Y-375000D02*
X252190D01*
G01X263970Y-381250D02*
X267850Y-368750D01*
X271730Y-381250D01*
G01X270330Y-376880D02*
X265370D01*
G01X277150Y-381250D02*
Y-368750D01*
X281020D01*
X282260Y-369380D01*
X283040Y-370210D01*
X283350Y-371880D01*
X283040Y-373540D01*
X282110Y-374580D01*
X281020Y-375210D01*
X277150D01*
G01X281020D02*
X283350Y-381250D01*
G01X292650Y-368750D02*
Y-381250D01*
G01X289090Y-368750D02*
X296210D01*
G01X305050Y-381670D02*
X304740Y-381460D01*
Y-381040D01*
X305050Y-380830D01*
X305360Y-381040D01*
Y-381460D01*
X305050Y-381670D01*
G01Y-376040D02*
X304740Y-375830D01*
Y-375420D01*
X305050Y-375210D01*
X305360Y-375420D01*
Y-375830D01*
X305050Y-376040D01*
G01X329850Y-368750D02*
Y-381250D01*
G01X326290Y-368750D02*
X333410D01*
G01X342250Y-381250D02*
X341010Y-381040D01*
X339930Y-380210D01*
X338990Y-378960D01*
X338370Y-377500D01*
X338060Y-375830D01*
Y-374170D01*
X338370Y-372500D01*
X338990Y-371040D01*
X339930Y-369790D01*
X341010Y-368960D01*
X342250Y-368750D01*
X343490Y-368960D01*
X344570Y-369790D01*
X345510Y-371040D01*
X346130Y-372500D01*
X346440Y-374170D01*
Y-375830D01*
X346130Y-377500D01*
X345510Y-378960D01*
X344570Y-380210D01*
X343490Y-381040D01*
X342250Y-381250D01*
G01X351550D02*
Y-368750D01*
X355270D01*
X356510Y-369380D01*
X357440Y-370830D01*
X357750Y-372500D01*
X357440Y-374170D01*
X356660Y-375420D01*
X355270Y-376040D01*
X351550D01*
G01X379450Y-368750D02*
Y-381250D01*
G01X377280Y-372920D02*
X381620D01*
G01X391850Y-381250D02*
X390920Y-381040D01*
X389990Y-380210D01*
X389370Y-378750D01*
X389060Y-377080D01*
X389370Y-375420D01*
X389990Y-373960D01*
X390920Y-373130D01*
X391850Y-372920D01*
X392780Y-373130D01*
X393710Y-373960D01*
X394330Y-375420D01*
X394490Y-377080D01*
X394330Y-378750D01*
X393710Y-380210D01*
X392780Y-381040D01*
X391850Y-381250D01*
G01X417580Y-375000D02*
X420680D01*
Y-378750D01*
X419750Y-380000D01*
X418660Y-380830D01*
X417120Y-381250D01*
X415570Y-380830D01*
X414480Y-380000D01*
X413550Y-378750D01*
X412930Y-377290D01*
X412620Y-375630D01*
Y-374170D01*
X412930Y-372920D01*
X413550Y-371460D01*
X414480Y-370210D01*
X415410Y-369380D01*
X416650Y-368750D01*
X417730D01*
X418970Y-369170D01*
X419910Y-370000D01*
G01X425490Y-381250D02*
Y-368750D01*
X432610Y-381250D01*
Y-368750D01*
G01X438040Y-381250D02*
Y-368750D01*
X441140D01*
X442380Y-369380D01*
X443310Y-370210D01*
X444090Y-371460D01*
X444710Y-372920D01*
X444860Y-375000D01*
X444710Y-377080D01*
X444090Y-378540D01*
X443310Y-379790D01*
X442380Y-380630D01*
X441140Y-381250D01*
X438040D01*
G01X453850D02*
Y-368750D01*
X451990Y-371250D01*
G01Y-381250D02*
X455710D01*
G01X253900Y-412500D02*
Y-462500D01*
G01X283040Y-431250D02*
Y-418750D01*
X286140D01*
X287380Y-419380D01*
X288310Y-420210D01*
X289090Y-421460D01*
X289710Y-422920D01*
X289860Y-425000D01*
X289710Y-427080D01*
X289090Y-428540D01*
X288310Y-429790D01*
X287380Y-430630D01*
X286140Y-431250D01*
X283040D01*
G01X295750D02*
Y-418750D01*
X299620D01*
X300860Y-419380D01*
X301640Y-420210D01*
X301950Y-421880D01*
X301640Y-423540D01*
X300710Y-424580D01*
X299620Y-425210D01*
X295750D01*
G01X299620D02*
X301950Y-431250D01*
G01X309390Y-418750D02*
X313110D01*
G01X311250D02*
Y-431250D01*
G01X309390D02*
X313110D01*
G01X320550Y-418750D02*
Y-431250D01*
X326750D01*
G01X332950Y-418750D02*
Y-431250D01*
X339150D01*
G01X351550D02*
X345350D01*
Y-418750D01*
X351550D01*
G01X349070Y-424790D02*
X345350D01*
G01X357440Y-431250D02*
Y-418750D01*
X360540D01*
X361780Y-419380D01*
X362710Y-420210D01*
X363490Y-421460D01*
X364110Y-422920D01*
X364260Y-425000D01*
X364110Y-427080D01*
X363490Y-428540D01*
X362710Y-429790D01*
X361780Y-430630D01*
X360540Y-431250D01*
X357440D01*
G01X368600Y-435420D02*
X377900D01*
G01X382390Y-429580D02*
X383640Y-430630D01*
X385030Y-431250D01*
X386270D01*
X387510Y-430630D01*
X388440Y-429580D01*
X388910Y-428120D01*
X388600Y-426670D01*
X387820Y-425420D01*
X386420Y-424580D01*
X384570Y-424170D01*
X383480Y-423330D01*
X383010Y-421880D01*
X383330Y-420420D01*
X384100Y-419380D01*
X385180Y-418750D01*
X386270D01*
X387360Y-419170D01*
X388290Y-420210D01*
G01X396190Y-418750D02*
X399910D01*
G01X398050D02*
Y-431250D01*
G01X396190D02*
X399910D01*
G01X407500Y-418750D02*
X413400D01*
X407500Y-431250D01*
X413400D01*
G01X425950D02*
X419750D01*
Y-418750D01*
X425950D01*
G01X423470Y-424790D02*
X419750D01*
G01X352640Y-452080D02*
X356660D01*
G01X428950Y-468750D02*
Y-481250D01*
G01X425390Y-468750D02*
X432510D01*
G01X441350Y-481250D02*
X440110Y-481040D01*
X439030Y-480210D01*
X438090Y-478960D01*
X437470Y-477500D01*
X437160Y-475830D01*
Y-474170D01*
X437470Y-472500D01*
X438090Y-471040D01*
X439030Y-469790D01*
X440110Y-468960D01*
X441350Y-468750D01*
X442590Y-468960D01*
X443670Y-469790D01*
X444610Y-471040D01*
X445230Y-472500D01*
X445540Y-474170D01*
Y-475830D01*
X445230Y-477500D01*
X444610Y-478960D01*
X443670Y-480210D01*
X442590Y-481040D01*
X441350Y-481250D01*
G01X453750Y-468750D02*
Y-481250D01*
G01X450190Y-468750D02*
X457310D01*
G01X462270Y-481250D02*
X466150Y-468750D01*
X470030Y-481250D01*
G01X468630Y-476880D02*
X463670D01*
G01X475450Y-468750D02*
Y-481250D01*
X481650D01*
G01X500090D02*
Y-468750D01*
G01X506610D02*
Y-481250D01*
G01Y-475000D02*
X500090D01*
G01X515750Y-481250D02*
X514510Y-481040D01*
X513430Y-480210D01*
X512490Y-478960D01*
X511870Y-477500D01*
X511560Y-475830D01*
Y-474170D01*
X511870Y-472500D01*
X512490Y-471040D01*
X513430Y-469790D01*
X514510Y-468960D01*
X515750Y-468750D01*
X516990Y-468960D01*
X518070Y-469790D01*
X519010Y-471040D01*
X519630Y-472500D01*
X519940Y-474170D01*
Y-475830D01*
X519630Y-477500D01*
X519010Y-478960D01*
X518070Y-480210D01*
X516990Y-481040D01*
X515750Y-481250D01*
G01X525050Y-468750D02*
Y-481250D01*
X531250D01*
G01X543650D02*
X537450D01*
Y-468750D01*
X543650D01*
G01X541170Y-474790D02*
X537450D01*
G01X549690Y-479580D02*
X550940Y-480630D01*
X552330Y-481250D01*
X553570D01*
X554810Y-480630D01*
X555740Y-479580D01*
X556210Y-478120D01*
X555900Y-476670D01*
X555120Y-475420D01*
X553720Y-474580D01*
X551870Y-474170D01*
X550780Y-473330D01*
X550310Y-471880D01*
X550630Y-470420D01*
X551400Y-469380D01*
X552480Y-468750D01*
X553570D01*
X554660Y-469170D01*
X555590Y-470210D01*
G01X565350Y-481670D02*
X565040Y-481460D01*
Y-481040D01*
X565350Y-480830D01*
X565660Y-481040D01*
Y-481460D01*
X565350Y-481670D01*
G01Y-476040D02*
X565040Y-475830D01*
Y-475420D01*
X565350Y-475210D01*
X565660Y-475420D01*
Y-475830D01*
X565350Y-476040D01*
G01X455400Y-412500D02*
Y-462500D01*
G01X484850Y-456250D02*
Y-443750D01*
X488570D01*
X489810Y-444380D01*
X490740Y-445830D01*
X491050Y-447500D01*
X490740Y-449170D01*
X489960Y-450420D01*
X488570Y-451040D01*
X484850D01*
G01X497250Y-443750D02*
Y-456250D01*
X503450D01*
G01X508870D02*
X512750Y-443750D01*
X516630Y-456250D01*
G01X515230Y-451880D02*
X510270D01*
G01X525150Y-443750D02*
Y-456250D01*
G01X521590Y-443750D02*
X528710D01*
G01X540650Y-456250D02*
X534450D01*
Y-443750D01*
X540650D01*
G01X538170Y-449790D02*
X534450D01*
G01X546540Y-456250D02*
Y-443750D01*
X549640D01*
X550880Y-444380D01*
X551810Y-445210D01*
X552590Y-446460D01*
X553210Y-447920D01*
X553360Y-450000D01*
X553210Y-452080D01*
X552590Y-453540D01*
X551810Y-454790D01*
X550880Y-455630D01*
X549640Y-456250D01*
X546540D01*
G01X484850Y-431250D02*
Y-418750D01*
X488570D01*
X489810Y-419380D01*
X490740Y-420830D01*
X491050Y-422500D01*
X490740Y-424170D01*
X489960Y-425420D01*
X488570Y-426040D01*
X484850D01*
G01X497250Y-418750D02*
Y-431250D01*
X503450D01*
G01X508870D02*
X512750Y-418750D01*
X516630Y-431250D01*
G01X515230Y-426880D02*
X510270D01*
G01X525150Y-418750D02*
Y-431250D01*
G01X521590Y-418750D02*
X528710D01*
G01X540650Y-431250D02*
X534450D01*
Y-418750D01*
X540650D01*
G01X538170Y-424790D02*
X534450D01*
G01X546540Y-431250D02*
Y-418750D01*
X549640D01*
X550880Y-419380D01*
X551810Y-420210D01*
X552590Y-421460D01*
X553210Y-422920D01*
X553360Y-425000D01*
X553210Y-427080D01*
X552590Y-428540D01*
X551810Y-429790D01*
X550880Y-430630D01*
X549640Y-431250D01*
X546540D01*
G01X582500Y-412500D02*
Y-462500D01*
G01X621250Y-481250D02*
X622330Y-481040D01*
X623570Y-480420D01*
X624350Y-479380D01*
X624660Y-477920D01*
X624350Y-476460D01*
X623420Y-475210D01*
X622020Y-474580D01*
X620480D01*
X619540Y-474170D01*
X618770Y-473130D01*
X618460Y-471670D01*
X618930Y-470210D01*
X620010Y-469170D01*
X621250Y-468750D01*
X622490Y-469170D01*
X623570Y-470210D01*
X624040Y-471670D01*
X623730Y-473130D01*
X622960Y-474170D01*
X622020Y-474580D01*
X620480D01*
X619080Y-475210D01*
X618150Y-476460D01*
X617840Y-477920D01*
X618150Y-479380D01*
X618930Y-480420D01*
X620170Y-481040D01*
X621250Y-481250D01*
G01Y-456250D02*
X622330Y-456040D01*
X623570Y-455420D01*
X624350Y-454380D01*
X624660Y-452920D01*
X624350Y-451460D01*
X623420Y-450210D01*
X622020Y-449580D01*
X620480D01*
X619540Y-449170D01*
X618770Y-448130D01*
X618460Y-446670D01*
X618930Y-445210D01*
X620010Y-444170D01*
X621250Y-443750D01*
X622490Y-444170D01*
X623570Y-445210D01*
X624040Y-446670D01*
X623730Y-448130D01*
X622960Y-449170D01*
X622020Y-449580D01*
X620480D01*
X619080Y-450210D01*
X618150Y-451460D01*
X617840Y-452920D01*
X618150Y-454380D01*
X618930Y-455420D01*
X620170Y-456040D01*
X621250Y-456250D01*
G01X608850Y-431250D02*
X607610Y-431040D01*
X606530Y-430210D01*
X605590Y-428960D01*
X604970Y-427500D01*
X604660Y-425830D01*
Y-424170D01*
X604970Y-422500D01*
X605590Y-421040D01*
X606530Y-419790D01*
X607610Y-418960D01*
X608850Y-418750D01*
X610090Y-418960D01*
X611170Y-419790D01*
X612110Y-421040D01*
X612730Y-422500D01*
X613040Y-424170D01*
Y-425830D01*
X612730Y-427500D01*
X612110Y-428960D01*
X611170Y-430210D01*
X610090Y-431040D01*
X608850Y-431250D01*
G01X610090Y-427920D02*
X611950Y-431250D01*
G01X621250Y-418750D02*
Y-431250D01*
G01X617690Y-418750D02*
X624810D01*
G01X633650Y-431250D02*
Y-425630D01*
X630550Y-418750D01*
G01X636750D02*
X633650Y-425630D01*
M02*
