G04 ================== begin FILE IDENTIFICATION RECORD ==================*
G04 Layout Name:  PMOD2BNCSIMPLE_v1_06_65mil.brd*
G04 Film Name:    Drill_Drawing_3-4*
G04 File Format:  Gerber RS274X*
G04 File Origin:  Cadence Allegro 23.1-P001*
G04 Origin Date:  Tue Nov 21 15:58:02 2023*
G04 *
G04 Layer:  MANUFACTURING/NCLEGEND-3-4*
G04 Layer:  BOARD GEOMETRY/DESIGN_OUTLINE*
G04 Layer:  BOARD GEOMETRY/CUTOUT*
G04 *
G04 Offset:    (0.0000 0.0000)*
G04 Mirror:    No*
G04 Mode:      Positive*
G04 Rotation:  0*
G04 FullContactRelief:  No*
G04 UndefLineWidth:     0.0100*
G04 ================== end FILE IDENTIFICATION RECORD ====================*
%FSLAX55Y55*MOIN*%
%IR0*IPPOS*OFA0.00000B0.00000*MIA0B0*SFA1.00000B1.00000*%
%AMMACRO10*
1,1,.01,.014,.014*
20,1,.01,.014,.014,.014,-.014,0.0*
1,1,.01,.014,-.014*
20,1,.01,.014,-.014,-.014,-.014,0.0*
1,1,.01,-.014,-.014*
20,1,.01,-.014,-.014,-.014,.014,0.0*
1,1,.01,-.014,.014*
20,1,.01,-.014,.014,.014,.014,0.0*
1,1,.01,.014,.014*
%
%ADD10MACRO10*%
%ADD11C,.01*%
G75*
%LPD*%
G75*
G54D10*
X44950Y-452500D03*
X57500Y27150D03*
X75000Y44650D03*
X85000D03*
X95000D03*
X150000D03*
X165000D03*
X185000D03*
X175000D03*
G54D11*
G01X0Y-465000D02*
Y-365000D01*
X697500D01*
Y-465000D01*
X0D01*
G01X11000Y-433750D02*
Y-421250D01*
X16900D01*
G01X14720Y-427290D02*
X11000D01*
G01X24490Y-421250D02*
X28210D01*
G01X26350D02*
Y-433750D01*
G01X24490D02*
X28210D01*
G01X39680Y-427500D02*
X42780D01*
Y-431250D01*
X41850Y-432500D01*
X40760Y-433330D01*
X39220Y-433750D01*
X37670Y-433330D01*
X36580Y-432500D01*
X35650Y-431250D01*
X35030Y-429790D01*
X34720Y-428130D01*
Y-426670D01*
X35030Y-425420D01*
X35650Y-423960D01*
X36580Y-422710D01*
X37510Y-421880D01*
X38750Y-421250D01*
X39830D01*
X41070Y-421670D01*
X42010Y-422500D01*
G01X47740Y-421250D02*
Y-430210D01*
X48360Y-432080D01*
X49600Y-433330D01*
X51150Y-433750D01*
X52700Y-433330D01*
X53940Y-432080D01*
X54560Y-430210D01*
Y-421250D01*
G01X60450Y-433750D02*
Y-421250D01*
X64320D01*
X65560Y-421880D01*
X66340Y-422710D01*
X66650Y-424380D01*
X66340Y-426040D01*
X65410Y-427080D01*
X64320Y-427710D01*
X60450D01*
G01X64320D02*
X66650Y-433750D01*
G01X79050D02*
X72850D01*
Y-421250D01*
X79050D01*
G01X76570Y-427290D02*
X72850D01*
G01X0Y-440000D02*
X697500D01*
G01X0Y-415000D02*
X697500D01*
G01X0Y-390000D02*
X697500D01*
G01X0Y0D02*
Y250000D01*
X270000D01*
Y0D01*
X0D01*
G01X89900Y-415000D02*
Y-465000D01*
G01X113300Y-433750D02*
Y-421250D01*
X119200D01*
G01X117020Y-427290D02*
X113300D01*
G01X126790Y-421250D02*
X130510D01*
G01X128650D02*
Y-433750D01*
G01X126790D02*
X130510D01*
G01X137490D02*
Y-421250D01*
X144610Y-433750D01*
Y-421250D01*
G01X151590D02*
X155310D01*
G01X153450D02*
Y-433750D01*
G01X151590D02*
X155310D01*
G01X162590Y-432080D02*
X163840Y-433130D01*
X165230Y-433750D01*
X166470D01*
X167710Y-433130D01*
X168640Y-432080D01*
X169110Y-430620D01*
X168800Y-429170D01*
X168020Y-427920D01*
X166620Y-427080D01*
X164770Y-426670D01*
X163680Y-425830D01*
X163210Y-424380D01*
X163530Y-422920D01*
X164300Y-421880D01*
X165380Y-421250D01*
X166470D01*
X167560Y-421670D01*
X168490Y-422710D01*
G01X174990Y-433750D02*
Y-421250D01*
G01X181510D02*
Y-433750D01*
G01Y-427500D02*
X174990D01*
G01X193750Y-433750D02*
X187550D01*
Y-421250D01*
X193750D01*
G01X191270Y-427290D02*
X187550D01*
G01X199640Y-433750D02*
Y-421250D01*
X202740D01*
X203980Y-421880D01*
X204910Y-422710D01*
X205690Y-423960D01*
X206310Y-425420D01*
X206460Y-427500D01*
X206310Y-429580D01*
X205690Y-431040D01*
X204910Y-432290D01*
X203980Y-433130D01*
X202740Y-433750D01*
X199640D01*
G01X210800Y-437920D02*
X220100D01*
G01X224590Y-432080D02*
X225840Y-433130D01*
X227230Y-433750D01*
X228470D01*
X229710Y-433130D01*
X230640Y-432080D01*
X231110Y-430620D01*
X230800Y-429170D01*
X230020Y-427920D01*
X228620Y-427080D01*
X226770Y-426670D01*
X225680Y-425830D01*
X225210Y-424380D01*
X225530Y-422920D01*
X226300Y-421880D01*
X227380Y-421250D01*
X228470D01*
X229560Y-421670D01*
X230490Y-422710D01*
G01X238390Y-421250D02*
X242110D01*
G01X240250D02*
Y-433750D01*
G01X238390D02*
X242110D01*
G01X249700Y-421250D02*
X255600D01*
X249700Y-433750D01*
X255600D01*
G01X268150D02*
X261950D01*
Y-421250D01*
X268150D01*
G01X265670Y-427290D02*
X261950D01*
G01X165850Y-446250D02*
X164610Y-446670D01*
X163680Y-447710D01*
X163060Y-448960D01*
X162590Y-450630D01*
X162440Y-452500D01*
X162590Y-454380D01*
X163060Y-456040D01*
X163680Y-457290D01*
X164610Y-458330D01*
X165850Y-458750D01*
X167090Y-458330D01*
X168020Y-457290D01*
X168640Y-456040D01*
X169110Y-454380D01*
X169260Y-452500D01*
X169110Y-450630D01*
X168640Y-448960D01*
X168020Y-447710D01*
X167090Y-446670D01*
X165850Y-446250D01*
G01X178250Y-459170D02*
X177940Y-458960D01*
Y-458540D01*
X178250Y-458330D01*
X178560Y-458540D01*
Y-458960D01*
X178250Y-459170D01*
G01X190650Y-446250D02*
X189410Y-446670D01*
X188480Y-447710D01*
X187860Y-448960D01*
X187390Y-450630D01*
X187240Y-452500D01*
X187390Y-454380D01*
X187860Y-456040D01*
X188480Y-457290D01*
X189410Y-458330D01*
X190650Y-458750D01*
X191890Y-458330D01*
X192820Y-457290D01*
X193440Y-456040D01*
X193910Y-454380D01*
X194060Y-452500D01*
X193910Y-450630D01*
X193440Y-448960D01*
X192820Y-447710D01*
X191890Y-446670D01*
X190650Y-446250D01*
G01X200100Y-448330D02*
X201040Y-447080D01*
X202120Y-446460D01*
X203360Y-446250D01*
X204910Y-446670D01*
X206000Y-447710D01*
X206310Y-448960D01*
X206150Y-450210D01*
X205530Y-451250D01*
X202430Y-453330D01*
X201040Y-454790D01*
X200100Y-456880D01*
X199790Y-458750D01*
X206310D01*
G01X215450D02*
X216530Y-458540D01*
X217770Y-457920D01*
X218550Y-456880D01*
X218860Y-455420D01*
X218550Y-453960D01*
X217620Y-452710D01*
X216220Y-452080D01*
X214680D01*
X213740Y-451670D01*
X212970Y-450630D01*
X212660Y-449170D01*
X213130Y-447710D01*
X214210Y-446670D01*
X215450Y-446250D01*
X216690Y-446670D01*
X217770Y-447710D01*
X218240Y-449170D01*
X217930Y-450630D01*
X217160Y-451670D01*
X216220Y-452080D01*
X214680D01*
X213280Y-452710D01*
X212350Y-453960D01*
X212040Y-455420D01*
X212350Y-456880D01*
X213130Y-457920D01*
X214370Y-458540D01*
X215450Y-458750D01*
G01X184140Y-383750D02*
Y-371250D01*
X187240D01*
X188480Y-371880D01*
X189410Y-372710D01*
X190190Y-373960D01*
X190810Y-375420D01*
X190960Y-377500D01*
X190810Y-379580D01*
X190190Y-381040D01*
X189410Y-382290D01*
X188480Y-383130D01*
X187240Y-383750D01*
X184140D01*
G01X196850D02*
Y-371250D01*
X200720D01*
X201960Y-371880D01*
X202740Y-372710D01*
X203050Y-374380D01*
X202740Y-376040D01*
X201810Y-377080D01*
X200720Y-377710D01*
X196850D01*
G01X200720D02*
X203050Y-383750D01*
G01X210490Y-371250D02*
X214210D01*
G01X212350D02*
Y-383750D01*
G01X210490D02*
X214210D01*
G01X221650Y-371250D02*
Y-383750D01*
X227850D01*
G01X234050Y-371250D02*
Y-383750D01*
X240250D01*
G01X265360Y-372290D02*
X264430Y-371670D01*
X263350Y-371250D01*
X262110D01*
X260710Y-371880D01*
X259630Y-372920D01*
X258850Y-374170D01*
X258230Y-376250D01*
X258070Y-378130D01*
X258390Y-380000D01*
X258850Y-381250D01*
X259780Y-382500D01*
X260870Y-383330D01*
X261950Y-383750D01*
X263030D01*
X264120Y-383330D01*
X265050Y-382710D01*
X265830Y-381880D01*
G01X271090Y-383750D02*
Y-371250D01*
G01X277610D02*
Y-383750D01*
G01Y-377500D02*
X271090D01*
G01X282870Y-383750D02*
X286750Y-371250D01*
X290630Y-383750D01*
G01X289230Y-379380D02*
X284270D01*
G01X296050Y-383750D02*
Y-371250D01*
X299920D01*
X301160Y-371880D01*
X301940Y-372710D01*
X302250Y-374380D01*
X301940Y-376040D01*
X301010Y-377080D01*
X299920Y-377710D01*
X296050D01*
G01X299920D02*
X302250Y-383750D01*
G01X311550Y-371250D02*
Y-383750D01*
G01X307990Y-371250D02*
X315110D01*
G01X323950Y-384170D02*
X323640Y-383960D01*
Y-383540D01*
X323950Y-383330D01*
X324260Y-383540D01*
Y-383960D01*
X323950Y-384170D01*
G01Y-378540D02*
X323640Y-378330D01*
Y-377920D01*
X323950Y-377710D01*
X324260Y-377920D01*
Y-378330D01*
X323950Y-378540D01*
G01X349680Y-377500D02*
X352780D01*
Y-381250D01*
X351850Y-382500D01*
X350760Y-383330D01*
X349220Y-383750D01*
X347670Y-383330D01*
X346580Y-382500D01*
X345650Y-381250D01*
X345030Y-379790D01*
X344720Y-378130D01*
Y-376670D01*
X345030Y-375420D01*
X345650Y-373960D01*
X346580Y-372710D01*
X347510Y-371880D01*
X348750Y-371250D01*
X349830D01*
X351070Y-371670D01*
X352010Y-372500D01*
G01X357590Y-383750D02*
Y-371250D01*
X364710Y-383750D01*
Y-371250D01*
G01X370140Y-383750D02*
Y-371250D01*
X373240D01*
X374480Y-371880D01*
X375410Y-372710D01*
X376190Y-373960D01*
X376810Y-375420D01*
X376960Y-377500D01*
X376810Y-379580D01*
X376190Y-381040D01*
X375410Y-382290D01*
X374480Y-383130D01*
X373240Y-383750D01*
X370140D01*
G01X383000Y-373330D02*
X383940Y-372080D01*
X385020Y-371460D01*
X386260Y-371250D01*
X387810Y-371670D01*
X388900Y-372710D01*
X389210Y-373960D01*
X389050Y-375210D01*
X388430Y-376250D01*
X385330Y-378330D01*
X383940Y-379790D01*
X383000Y-381880D01*
X382690Y-383750D01*
X389210D01*
G01X410750Y-371250D02*
Y-383750D01*
G01X408580Y-375420D02*
X412920D01*
G01X423150Y-383750D02*
X422220Y-383540D01*
X421290Y-382710D01*
X420670Y-381250D01*
X420360Y-379580D01*
X420670Y-377920D01*
X421290Y-376460D01*
X422220Y-375630D01*
X423150Y-375420D01*
X424080Y-375630D01*
X425010Y-376460D01*
X425630Y-377920D01*
X425790Y-379580D01*
X425630Y-381250D01*
X425010Y-382710D01*
X424080Y-383540D01*
X423150Y-383750D01*
G01X449190Y-377080D02*
X449810Y-376460D01*
X450270Y-375420D01*
X450590Y-373960D01*
X450270Y-372710D01*
X449660Y-371880D01*
X448570Y-371250D01*
X444390D01*
Y-383750D01*
X449500D01*
X450590Y-382920D01*
X451210Y-381670D01*
X451510Y-380210D01*
X451210Y-378750D01*
X450270Y-377500D01*
X449190Y-377080D01*
X444390D01*
G01X460350Y-383750D02*
X459110Y-383540D01*
X458030Y-382710D01*
X457090Y-381460D01*
X456470Y-380000D01*
X456160Y-378330D01*
Y-376670D01*
X456470Y-375000D01*
X457090Y-373540D01*
X458030Y-372290D01*
X459110Y-371460D01*
X460350Y-371250D01*
X461590Y-371460D01*
X462670Y-372290D01*
X463610Y-373540D01*
X464230Y-375000D01*
X464540Y-376670D01*
Y-378330D01*
X464230Y-380000D01*
X463610Y-381460D01*
X462670Y-382710D01*
X461590Y-383540D01*
X460350Y-383750D01*
G01X472750Y-371250D02*
Y-383750D01*
G01X469190Y-371250D02*
X476310D01*
G01X485150D02*
Y-383750D01*
G01X481590Y-371250D02*
X488710D01*
G01X497550Y-383750D02*
X496310Y-383540D01*
X495230Y-382710D01*
X494290Y-381460D01*
X493670Y-380000D01*
X493360Y-378330D01*
Y-376670D01*
X493670Y-375000D01*
X494290Y-373540D01*
X495230Y-372290D01*
X496310Y-371460D01*
X497550Y-371250D01*
X498790Y-371460D01*
X499870Y-372290D01*
X500810Y-373540D01*
X501430Y-375000D01*
X501740Y-376670D01*
Y-378330D01*
X501430Y-380000D01*
X500810Y-381460D01*
X499870Y-382710D01*
X498790Y-383540D01*
X497550Y-383750D01*
G01X505920D02*
Y-371250D01*
X509950Y-381670D01*
X513980Y-371250D01*
Y-383750D01*
G01X208470Y-408750D02*
X212350Y-396250D01*
X216230Y-408750D01*
G01X214830Y-404380D02*
X209870D01*
G01X221650Y-396250D02*
Y-408750D01*
X227850D01*
G01X234050Y-396250D02*
Y-408750D01*
X240250D01*
G01X258540Y-396250D02*
Y-405210D01*
X259160Y-407080D01*
X260400Y-408330D01*
X261950Y-408750D01*
X263500Y-408330D01*
X264740Y-407080D01*
X265360Y-405210D01*
Y-396250D01*
G01X270790Y-408750D02*
Y-396250D01*
X277910Y-408750D01*
Y-396250D01*
G01X284890D02*
X288610D01*
G01X286750D02*
Y-408750D01*
G01X284890D02*
X288610D01*
G01X299150Y-396250D02*
Y-408750D01*
G01X295590Y-396250D02*
X302710D01*
G01X308290Y-407080D02*
X309540Y-408130D01*
X310930Y-408750D01*
X312170D01*
X313410Y-408130D01*
X314340Y-407080D01*
X314810Y-405620D01*
X314500Y-404170D01*
X313720Y-402920D01*
X312320Y-402080D01*
X310470Y-401670D01*
X309380Y-400830D01*
X308910Y-399380D01*
X309230Y-397920D01*
X310000Y-396880D01*
X311080Y-396250D01*
X312170D01*
X313260Y-396670D01*
X314190Y-397710D01*
G01X332470Y-408750D02*
X336350Y-396250D01*
X340230Y-408750D01*
G01X338830Y-404380D02*
X333870D01*
G01X345650Y-408750D02*
Y-396250D01*
X349520D01*
X350760Y-396880D01*
X351540Y-397710D01*
X351850Y-399380D01*
X351540Y-401040D01*
X350610Y-402080D01*
X349520Y-402710D01*
X345650D01*
G01X349520D02*
X351850Y-408750D01*
G01X364250D02*
X358050D01*
Y-396250D01*
X364250D01*
G01X361770Y-402290D02*
X358050D01*
G01X384090Y-396250D02*
X387810D01*
G01X385950D02*
Y-408750D01*
G01X384090D02*
X387810D01*
G01X394790D02*
Y-396250D01*
X401910Y-408750D01*
Y-396250D01*
G01X421290D02*
X425010D01*
G01X423150D02*
Y-408750D01*
G01X421290D02*
X425010D01*
G01X431990D02*
Y-396250D01*
X439110Y-408750D01*
Y-396250D01*
G01X451360Y-397290D02*
X450430Y-396670D01*
X449350Y-396250D01*
X448110D01*
X446710Y-396880D01*
X445630Y-397920D01*
X444850Y-399170D01*
X444230Y-401250D01*
X444070Y-403130D01*
X444390Y-405000D01*
X444850Y-406250D01*
X445780Y-407500D01*
X446870Y-408330D01*
X447950Y-408750D01*
X449030D01*
X450120Y-408330D01*
X451050Y-407710D01*
X451830Y-406880D01*
G01X457090Y-408750D02*
Y-396250D01*
G01X463610D02*
Y-408750D01*
G01Y-402500D02*
X457090D01*
G01X475850Y-408750D02*
X469650D01*
Y-396250D01*
X475850D01*
G01X473370Y-402290D02*
X469650D01*
G01X481890Y-407080D02*
X483140Y-408130D01*
X484530Y-408750D01*
X485770D01*
X487010Y-408130D01*
X487940Y-407080D01*
X488410Y-405620D01*
X488100Y-404170D01*
X487320Y-402920D01*
X485920Y-402080D01*
X484070Y-401670D01*
X482980Y-400830D01*
X482510Y-399380D01*
X482830Y-397920D01*
X483600Y-396880D01*
X484680Y-396250D01*
X485770D01*
X486860Y-396670D01*
X487790Y-397710D01*
G01X291400Y-415000D02*
Y-465000D01*
G01X320540Y-433750D02*
Y-421250D01*
X323640D01*
X324880Y-421880D01*
X325810Y-422710D01*
X326590Y-423960D01*
X327210Y-425420D01*
X327360Y-427500D01*
X327210Y-429580D01*
X326590Y-431040D01*
X325810Y-432290D01*
X324880Y-433130D01*
X323640Y-433750D01*
X320540D01*
G01X333250D02*
Y-421250D01*
X337120D01*
X338360Y-421880D01*
X339140Y-422710D01*
X339450Y-424380D01*
X339140Y-426040D01*
X338210Y-427080D01*
X337120Y-427710D01*
X333250D01*
G01X337120D02*
X339450Y-433750D01*
G01X346890Y-421250D02*
X350610D01*
G01X348750D02*
Y-433750D01*
G01X346890D02*
X350610D01*
G01X358050Y-421250D02*
Y-433750D01*
X364250D01*
G01X370450Y-421250D02*
Y-433750D01*
X376650D01*
G01X389050D02*
X382850D01*
Y-421250D01*
X389050D01*
G01X386570Y-427290D02*
X382850D01*
G01X394940Y-433750D02*
Y-421250D01*
X398040D01*
X399280Y-421880D01*
X400210Y-422710D01*
X400990Y-423960D01*
X401610Y-425420D01*
X401760Y-427500D01*
X401610Y-429580D01*
X400990Y-431040D01*
X400210Y-432290D01*
X399280Y-433130D01*
X398040Y-433750D01*
X394940D01*
G01X406100Y-437920D02*
X415400D01*
G01X419890Y-432080D02*
X421140Y-433130D01*
X422530Y-433750D01*
X423770D01*
X425010Y-433130D01*
X425940Y-432080D01*
X426410Y-430620D01*
X426100Y-429170D01*
X425320Y-427920D01*
X423920Y-427080D01*
X422070Y-426670D01*
X420980Y-425830D01*
X420510Y-424380D01*
X420830Y-422920D01*
X421600Y-421880D01*
X422680Y-421250D01*
X423770D01*
X424860Y-421670D01*
X425790Y-422710D01*
G01X433690Y-421250D02*
X437410D01*
G01X435550D02*
Y-433750D01*
G01X433690D02*
X437410D01*
G01X445000Y-421250D02*
X450900D01*
X445000Y-433750D01*
X450900D01*
G01X463450D02*
X457250D01*
Y-421250D01*
X463450D01*
G01X460970Y-427290D02*
X457250D01*
G01X390140Y-454580D02*
X394160D01*
G01X466450Y-471250D02*
Y-483750D01*
G01X462890Y-471250D02*
X470010D01*
G01X478850Y-483750D02*
X477610Y-483540D01*
X476530Y-482710D01*
X475590Y-481460D01*
X474970Y-480000D01*
X474660Y-478330D01*
Y-476670D01*
X474970Y-475000D01*
X475590Y-473540D01*
X476530Y-472290D01*
X477610Y-471460D01*
X478850Y-471250D01*
X480090Y-471460D01*
X481170Y-472290D01*
X482110Y-473540D01*
X482730Y-475000D01*
X483040Y-476670D01*
Y-478330D01*
X482730Y-480000D01*
X482110Y-481460D01*
X481170Y-482710D01*
X480090Y-483540D01*
X478850Y-483750D01*
G01X491250Y-471250D02*
Y-483750D01*
G01X487690Y-471250D02*
X494810D01*
G01X499770Y-483750D02*
X503650Y-471250D01*
X507530Y-483750D01*
G01X506130Y-479380D02*
X501170D01*
G01X512950Y-471250D02*
Y-483750D01*
X519150D01*
G01X537590D02*
Y-471250D01*
G01X544110D02*
Y-483750D01*
G01Y-477500D02*
X537590D01*
G01X553250Y-483750D02*
X552010Y-483540D01*
X550930Y-482710D01*
X549990Y-481460D01*
X549370Y-480000D01*
X549060Y-478330D01*
Y-476670D01*
X549370Y-475000D01*
X549990Y-473540D01*
X550930Y-472290D01*
X552010Y-471460D01*
X553250Y-471250D01*
X554490Y-471460D01*
X555570Y-472290D01*
X556510Y-473540D01*
X557130Y-475000D01*
X557440Y-476670D01*
Y-478330D01*
X557130Y-480000D01*
X556510Y-481460D01*
X555570Y-482710D01*
X554490Y-483540D01*
X553250Y-483750D01*
G01X562550Y-471250D02*
Y-483750D01*
X568750D01*
G01X581150D02*
X574950D01*
Y-471250D01*
X581150D01*
G01X578670Y-477290D02*
X574950D01*
G01X587190Y-482080D02*
X588440Y-483130D01*
X589830Y-483750D01*
X591070D01*
X592310Y-483130D01*
X593240Y-482080D01*
X593710Y-480620D01*
X593400Y-479170D01*
X592620Y-477920D01*
X591220Y-477080D01*
X589370Y-476670D01*
X588280Y-475830D01*
X587810Y-474380D01*
X588130Y-472920D01*
X588900Y-471880D01*
X589980Y-471250D01*
X591070D01*
X592160Y-471670D01*
X593090Y-472710D01*
G01X602850Y-484170D02*
X602540Y-483960D01*
Y-483540D01*
X602850Y-483330D01*
X603160Y-483540D01*
Y-483960D01*
X602850Y-484170D01*
G01Y-478540D02*
X602540Y-478330D01*
Y-477920D01*
X602850Y-477710D01*
X603160Y-477920D01*
Y-478330D01*
X602850Y-478540D01*
G01X492900Y-415000D02*
Y-465000D01*
G01X522350Y-458750D02*
Y-446250D01*
X526070D01*
X527310Y-446880D01*
X528240Y-448330D01*
X528550Y-450000D01*
X528240Y-451670D01*
X527460Y-452920D01*
X526070Y-453540D01*
X522350D01*
G01X534750Y-446250D02*
Y-458750D01*
X540950D01*
G01X546370D02*
X550250Y-446250D01*
X554130Y-458750D01*
G01X552730Y-454380D02*
X547770D01*
G01X562650Y-446250D02*
Y-458750D01*
G01X559090Y-446250D02*
X566210D01*
G01X578150Y-458750D02*
X571950D01*
Y-446250D01*
X578150D01*
G01X575670Y-452290D02*
X571950D01*
G01X584040Y-458750D02*
Y-446250D01*
X587140D01*
X588380Y-446880D01*
X589310Y-447710D01*
X590090Y-448960D01*
X590710Y-450420D01*
X590860Y-452500D01*
X590710Y-454580D01*
X590090Y-456040D01*
X589310Y-457290D01*
X588380Y-458130D01*
X587140Y-458750D01*
X584040D01*
G01X522350Y-433750D02*
Y-421250D01*
X526070D01*
X527310Y-421880D01*
X528240Y-423330D01*
X528550Y-425000D01*
X528240Y-426670D01*
X527460Y-427920D01*
X526070Y-428540D01*
X522350D01*
G01X534750Y-421250D02*
Y-433750D01*
X540950D01*
G01X546370D02*
X550250Y-421250D01*
X554130Y-433750D01*
G01X552730Y-429380D02*
X547770D01*
G01X562650Y-421250D02*
Y-433750D01*
G01X559090Y-421250D02*
X566210D01*
G01X578150Y-433750D02*
X571950D01*
Y-421250D01*
X578150D01*
G01X575670Y-427290D02*
X571950D01*
G01X584040Y-433750D02*
Y-421250D01*
X587140D01*
X588380Y-421880D01*
X589310Y-422710D01*
X590090Y-423960D01*
X590710Y-425420D01*
X590860Y-427500D01*
X590710Y-429580D01*
X590090Y-431040D01*
X589310Y-432290D01*
X588380Y-433130D01*
X587140Y-433750D01*
X584040D01*
G01X620000Y-415000D02*
Y-465000D01*
G01X646350Y-433750D02*
X645110Y-433540D01*
X644030Y-432710D01*
X643090Y-431460D01*
X642470Y-430000D01*
X642160Y-428330D01*
Y-426670D01*
X642470Y-425000D01*
X643090Y-423540D01*
X644030Y-422290D01*
X645110Y-421460D01*
X646350Y-421250D01*
X647590Y-421460D01*
X648670Y-422290D01*
X649610Y-423540D01*
X650230Y-425000D01*
X650540Y-426670D01*
Y-428330D01*
X650230Y-430000D01*
X649610Y-431460D01*
X648670Y-432710D01*
X647590Y-433540D01*
X646350Y-433750D01*
G01X647590Y-430420D02*
X649450Y-433750D01*
G01X658750Y-421250D02*
Y-433750D01*
G01X655190Y-421250D02*
X662310D01*
G01X671150Y-433750D02*
Y-428130D01*
X668050Y-421250D01*
G01X674250D02*
X671150Y-428130D01*
G01X658750Y-483750D02*
X659830Y-483540D01*
X661070Y-482920D01*
X661850Y-481880D01*
X662160Y-480420D01*
X661850Y-478960D01*
X660920Y-477710D01*
X659520Y-477080D01*
X657980D01*
X657040Y-476670D01*
X656270Y-475630D01*
X655960Y-474170D01*
X656430Y-472710D01*
X657510Y-471670D01*
X658750Y-471250D01*
X659990Y-471670D01*
X661070Y-472710D01*
X661540Y-474170D01*
X661230Y-475630D01*
X660460Y-476670D01*
X659520Y-477080D01*
X657980D01*
X656580Y-477710D01*
X655650Y-478960D01*
X655340Y-480420D01*
X655650Y-481880D01*
X656430Y-482920D01*
X657670Y-483540D01*
X658750Y-483750D01*
G01Y-458750D02*
X659830Y-458540D01*
X661070Y-457920D01*
X661850Y-456880D01*
X662160Y-455420D01*
X661850Y-453960D01*
X660920Y-452710D01*
X659520Y-452080D01*
X657980D01*
X657040Y-451670D01*
X656270Y-450630D01*
X655960Y-449170D01*
X656430Y-447710D01*
X657510Y-446670D01*
X658750Y-446250D01*
X659990Y-446670D01*
X661070Y-447710D01*
X661540Y-449170D01*
X661230Y-450630D01*
X660460Y-451670D01*
X659520Y-452080D01*
X657980D01*
X656580Y-452710D01*
X655650Y-453960D01*
X655340Y-455420D01*
X655650Y-456880D01*
X656430Y-457920D01*
X657670Y-458540D01*
X658750Y-458750D01*
M02*
