G04 ================== begin FILE IDENTIFICATION RECORD ==================*
G04 Layout Name:  PMOD2BNCSIMPLE_v1_06_65mil.brd*
G04 Film Name:    Drill_1-4*
G04 File Format:  Gerber RS274X*
G04 File Origin:  Cadence Allegro 23.1-P001*
G04 Origin Date:  Thu Nov 30 16:24:50 2023*
G04 *
G04 Layer:  MANUFACTURING/NCLEGEND-1-4*
G04 Layer:  BOARD GEOMETRY/OUTLINE*
G04 Layer:  BOARD GEOMETRY/DESIGN_OUTLINE*
G04 Layer:  BOARD GEOMETRY/CUTOUT*
G04 *
G04 Offset:    (0.0000 0.0000)*
G04 Mirror:    No*
G04 Mode:      Positive*
G04 Rotation:  0*
G04 FullContactRelief:  No*
G04 UndefLineWidth:     0.0050*
G04 ================== end FILE IDENTIFICATION RECORD ====================*
%FSLAX55Y55*MOIN*%
%IR0*IPPOS*OFA0.00000B0.00000*MIA0B0*SFA1.00000B1.00000*%
%AMMACRO12*
1,1,.005,.0065,0.0*
20,1,.005,.0065,0.0,-.0065,0.0,0.0*
1,1,.005,-.0065,0.0*
1,1,.005,0.0,.0065*
20,1,.005,0.0,.0065,0.0,-.0065,0.0*
1,1,.005,0.0,-.0065*
%
%ADD12MACRO12*%
%AMMACRO11*
1,1,.005,.0315,0.0*
20,1,.005,.0315,0.0,0.0,-.0315,0.0*
1,1,.005,0.0,-.0315*
20,1,.005,0.0,-.0315,-.0315,0.0,0.0*
1,1,.005,-.0315,0.0*
20,1,.005,-.0315,0.0,0.0,.0315,0.0*
1,1,.005,0.0,.0315*
20,1,.005,0.0,.0315,.0315,0.0,0.0*
1,1,.005,.0315,0.0*
%
%ADD11MACRO11*%
%AMMACRO13*
1,1,.005,.01224,-.02955*
20,1,.005,.01224,-.02955,-.01224,-.02955,0.0*
1,1,.005,-.01224,-.02955*
20,1,.005,-.01224,-.02955,-.02955,-.01224,0.0*
1,1,.005,-.02955,-.01224*
20,1,.005,-.02955,-.01224,-.02955,.01224,0.0*
1,1,.005,-.02955,.01224*
20,1,.005,-.02955,.01224,-.01224,.02955,0.0*
1,1,.005,-.01224,.02955*
20,1,.005,-.01224,.02955,.01224,.02955,0.0*
1,1,.005,.01224,.02955*
20,1,.005,.01224,.02955,.02955,.01224,0.0*
1,1,.005,.02955,.01224*
20,1,.005,.02955,.01224,.02955,-.01224,0.0*
1,1,.005,.02955,-.01224*
20,1,.005,.02955,-.01224,.01224,-.02955,0.0*
1,1,.005,.01224,-.02955*
%
%ADD13MACRO13*%
%AMMACRO10*
1,1,.005,0.0,.125*
20,1,.005,0.0,.125,.108253,-.0625,0.0*
1,1,.005,.108253,-.0625*
20,1,.005,.108253,-.0625,-.108253,-.0625,0.0*
1,1,.005,-.108253,-.0625*
20,1,.005,-.108253,-.0625,0.0,.125,0.0*
1,1,.005,0.0,.125*
%
%ADD10MACRO10*%
%AMMACRO15*
1,1,.005,.02165,0.0*
20,1,.005,.02165,0.0,.010825,.018749,0.0*
1,1,.005,.010825,.018749*
20,1,.005,.010825,.018749,-.010825,.018749,0.0*
1,1,.005,-.010825,.018749*
20,1,.005,-.010825,.018749,-.02165,0.0,0.0*
1,1,.005,-.02165,0.0*
20,1,.005,-.02165,0.0,-.010825,-.018749,0.0*
1,1,.005,-.010825,-.018749*
20,1,.005,-.010825,-.018749,.010825,-.018749,0.0*
1,1,.005,.010825,-.018749*
20,1,.005,.010825,-.018749,.02165,0.0,0.0*
1,1,.005,.02165,0.0*
%
%ADD15MACRO15*%
%AMMACRO14*
1,1,.005,0.0,.02165*
20,1,.005,0.0,.02165,-.018749,.010825,0.0*
1,1,.005,-.018749,.010825*
20,1,.005,-.018749,.010825,-.018749,-.010825,0.0*
1,1,.005,-.018749,-.010825*
20,1,.005,-.018749,-.010825,0.0,-.02165,0.0*
1,1,.005,0.0,-.02165*
20,1,.005,0.0,-.02165,.018749,-.010825,0.0*
1,1,.005,.018749,-.010825*
20,1,.005,.018749,-.010825,.018749,.010825,0.0*
1,1,.005,.018749,.010825*
20,1,.005,.018749,.010825,0.0,.02165,0.0*
1,1,.005,0.0,.02165*
%
%ADD14MACRO14*%
%ADD16C,.005*%
G75*
%LPD*%
G75*
G54D10*
X-10000Y30000D03*
Y430000D03*
X4950Y-290250D03*
X280000Y30000D03*
Y430000D03*
G54D11*
X-20000Y70000D03*
Y90000D03*
Y170000D03*
Y190000D03*
Y270000D03*
Y290000D03*
Y370000D03*
Y390000D03*
X4950Y-252750D03*
X0Y70000D03*
Y90000D03*
Y170000D03*
Y190000D03*
Y270000D03*
Y290000D03*
Y370000D03*
Y390000D03*
X80000Y70000D03*
Y90000D03*
Y170000D03*
Y190000D03*
Y270000D03*
Y290000D03*
Y370000D03*
Y390000D03*
X100000Y70000D03*
Y90000D03*
Y170000D03*
Y190000D03*
Y270000D03*
Y290000D03*
Y370000D03*
Y390000D03*
X160000Y370000D03*
Y390000D03*
X170000Y70000D03*
Y90000D03*
Y170000D03*
Y190000D03*
Y270000D03*
Y290000D03*
X180000Y370000D03*
Y390000D03*
X190000Y70000D03*
Y90000D03*
Y170000D03*
Y190000D03*
Y270000D03*
Y290000D03*
X270000Y70000D03*
Y90000D03*
Y170000D03*
Y190000D03*
Y270000D03*
Y290000D03*
Y370000D03*
Y390000D03*
X290000Y70000D03*
Y90000D03*
Y170000D03*
Y190000D03*
Y270000D03*
Y290000D03*
Y370000D03*
Y390000D03*
G54D12*
X-19000Y61000D03*
X-14000Y74000D03*
X-11000D03*
X-12720Y92010D03*
Y86440D03*
X-19000Y81000D03*
X-16000Y85000D03*
Y82000D03*
Y79000D03*
Y76000D03*
X-15400Y107280D03*
X-12190Y102720D03*
X-22370Y108990D03*
X-22720Y103430D03*
X-19950Y98600D03*
X-14540Y97280D03*
X-15100Y127280D03*
X-11890Y122720D03*
X-22720Y124010D03*
X-20330Y118980D03*
X-15030Y117280D03*
X-18240Y112720D03*
X-12480Y142720D03*
X-22720Y142820D03*
X-19580Y138220D03*
X-14090Y137280D03*
X-17300Y132720D03*
X-21850Y129510D03*
X-11980Y147280D03*
X-17280Y145560D03*
X-10880Y157970D03*
X-13360Y152990D03*
X-18910Y152450D03*
X-22720Y148390D03*
X-19000Y161000D03*
X-16000Y178000D03*
Y175000D03*
X-13000Y174000D03*
X-12720Y191140D03*
Y196710D03*
X-19000Y181000D03*
X-16000Y184000D03*
Y181000D03*
X-14000Y186000D03*
X-12720Y202280D03*
Y207850D03*
Y213420D03*
X-19000Y201000D03*
X-12720Y218990D03*
Y224560D03*
Y230130D03*
X-19000Y221000D03*
X-12720Y235700D03*
Y241270D03*
Y246840D03*
X-19000Y241000D03*
X-12720Y252410D03*
X-11110Y257740D03*
X-19000Y261000D03*
Y281000D03*
X-16000D03*
Y278000D03*
Y275000D03*
X-13000Y274000D03*
X-12720Y291140D03*
Y296710D03*
X-19000Y301000D03*
X-13000Y286000D03*
X-16000Y284000D03*
X-12720Y302280D03*
Y307850D03*
Y313420D03*
Y318990D03*
Y324560D03*
X-11390Y329970D03*
X-19000Y321000D03*
Y341000D03*
Y361000D03*
Y381000D03*
X-12000Y374000D03*
X-15000D03*
X-16000Y377000D03*
Y380000D03*
Y383000D03*
X-15000Y386000D03*
X-12000D03*
X-19000Y401000D03*
X4950Y-102750D03*
X1000Y61000D03*
X-8000Y74000D03*
X-5000D03*
X-7280Y88110D03*
X1000Y81000D03*
X-4000Y77000D03*
Y80000D03*
Y83000D03*
X-5000Y86000D03*
X-10000Y108640D03*
X-7860Y99220D03*
X-7280Y93680D03*
X1000Y101000D03*
X5970Y114780D03*
X1120Y117520D03*
X-220Y122930D03*
X-7700Y119050D03*
X-7280Y113500D03*
X5240Y121110D03*
X1770Y128130D03*
X2240Y136400D03*
X-220Y141400D03*
X-8030Y139380D03*
X-7280Y133860D03*
X-9770Y128880D03*
X560Y146910D03*
X5040Y150220D03*
X1820Y154780D03*
X-3750D03*
X-7750Y150900D03*
X5360Y160220D03*
X-210D03*
X-5780D03*
X-10000Y174000D03*
X-7000D03*
X-4000Y175000D03*
Y178000D03*
X-7280Y191140D03*
Y196710D03*
X1000Y181000D03*
X-4000D03*
Y184000D03*
X-6000Y186000D03*
X-7280Y202280D03*
Y207850D03*
Y213420D03*
X1000Y201000D03*
X-7280Y218990D03*
Y224560D03*
Y230130D03*
X1000Y221000D03*
X-7280Y235700D03*
Y241270D03*
Y246840D03*
X1000Y241000D03*
X-6130Y260220D03*
X-560D03*
X5010D03*
X-7280Y252410D03*
X-2230Y254780D03*
X3340D03*
X1000Y281000D03*
X-10000Y274000D03*
X-7000D03*
X-4000Y275000D03*
Y278000D03*
Y281000D03*
X-7280Y291140D03*
Y296710D03*
X1000Y301000D03*
X-4000Y284000D03*
X-7000Y286000D03*
X-7280Y302280D03*
Y307850D03*
Y313420D03*
X-7460Y333910D03*
X-7280Y318990D03*
Y324560D03*
X-4350Y329300D03*
X360Y332280D03*
X5930D03*
X1000Y321000D03*
X-3400Y337720D03*
X2170D03*
X1000Y341000D03*
Y361000D03*
X1140Y382720D03*
Y377280D03*
X-4000Y377000D03*
X-6000Y374000D03*
X-9000D03*
X-4000Y383000D03*
X-9000Y386000D03*
X-6000D03*
X1000Y401000D03*
X19610Y7280D03*
X14400Y9250D03*
X12280Y14400D03*
Y19970D03*
X19280Y12720D03*
X17720Y18070D03*
Y23640D03*
X21000Y21000D03*
X12280Y25540D03*
Y31110D03*
Y36680D03*
X17720Y29210D03*
Y34780D03*
Y40350D03*
X21000Y41000D03*
X12280Y42250D03*
Y47820D03*
Y53390D03*
X17720Y45920D03*
Y51490D03*
Y57060D03*
X22280Y70390D03*
X12280Y58960D03*
Y64530D03*
Y70100D03*
Y75670D03*
X17720Y62630D03*
Y68200D03*
Y73770D03*
X21000Y61000D03*
X22280Y92670D03*
Y87100D03*
Y81530D03*
Y75960D03*
X12280Y81240D03*
Y86810D03*
Y92380D03*
X17720Y79340D03*
Y84910D03*
Y90480D03*
X22280Y109380D03*
Y103810D03*
Y98240D03*
X12280Y97950D03*
Y103520D03*
Y109090D03*
X17720Y96050D03*
Y101620D03*
Y107190D03*
X22280Y126090D03*
Y120520D03*
Y114950D03*
X11540Y114610D03*
X17720Y112760D03*
X15850Y118010D03*
X10740Y120220D03*
X9440Y124780D03*
X14870Y126010D03*
X16000Y120850D03*
X22280Y142800D03*
Y137230D03*
Y131660D03*
X6930Y130220D03*
X12280Y131800D03*
X7570Y134780D03*
X17720Y130800D03*
X17490Y136360D03*
X13480Y140220D03*
X7910D03*
X11120Y144780D03*
X22280Y159510D03*
Y153940D03*
Y148370D03*
X10610Y150220D03*
X7390Y154780D03*
X16110Y147260D03*
X17720Y152590D03*
X15980Y157880D03*
X10930Y160220D03*
X16000Y161000D03*
X22280Y176220D03*
Y170650D03*
Y165080D03*
Y192930D03*
Y187360D03*
Y181790D03*
X16000Y181000D03*
X22280Y209640D03*
Y204070D03*
Y198500D03*
Y231920D03*
Y226350D03*
Y220780D03*
Y215210D03*
X16000Y221000D03*
X22280Y248630D03*
Y243060D03*
Y237490D03*
X16000Y241000D03*
X9780Y263110D03*
X8910Y254780D03*
X13800Y257440D03*
X15220Y262830D03*
X22280Y265340D03*
Y259770D03*
Y254200D03*
X9780Y268680D03*
Y274250D03*
Y279820D03*
X15220Y268400D03*
Y273970D03*
Y279540D03*
X22280Y282050D03*
Y276480D03*
Y270910D03*
X9780Y285390D03*
X12200Y290410D03*
X17270Y292720D03*
X22840D03*
X15220Y285110D03*
X20360Y287280D03*
X21000Y301000D03*
X11500Y332280D03*
X17070D03*
X22640D03*
X21000Y321000D03*
X7740Y337720D03*
X13310D03*
X18880D03*
X21000Y341000D03*
Y361000D03*
X6710Y382720D03*
X12280D03*
X17850D03*
X22160Y379200D03*
X6710Y377280D03*
X12280D03*
X17690Y375950D03*
X21630Y372020D03*
X21000Y401000D03*
Y421000D03*
Y441000D03*
X30220Y21810D03*
Y16240D03*
X29560Y10710D03*
X25180Y7280D03*
X24780Y19210D03*
Y13640D03*
X41000Y21000D03*
X39300Y37280D03*
X33730D03*
X30220Y32950D03*
Y27380D03*
X28610Y39960D03*
X24780Y35920D03*
Y30350D03*
Y24780D03*
X33260Y57890D03*
X37200Y53950D03*
X41140Y50010D03*
X39020Y42720D03*
X33450D03*
X27720Y71700D03*
X31370Y67480D03*
X35310Y63550D03*
X39250Y59610D03*
X25380Y65760D03*
X29320Y61820D03*
X38880Y72470D03*
X33060Y70580D03*
X37000Y66650D03*
X40940Y62710D03*
X27720Y88410D03*
Y82840D03*
Y77270D03*
X37720Y89060D03*
Y83490D03*
Y77920D03*
X32280Y92810D03*
Y87240D03*
Y81670D03*
Y76100D03*
X27720Y105120D03*
Y99550D03*
Y93980D03*
X37720Y105770D03*
Y100200D03*
Y94630D03*
X32280Y109520D03*
Y103950D03*
Y98380D03*
X27720Y127400D03*
Y121830D03*
Y116260D03*
Y110690D03*
X37720Y122480D03*
Y116910D03*
Y111340D03*
X32280Y126230D03*
Y120660D03*
Y115090D03*
X27720Y144110D03*
Y138540D03*
Y132970D03*
X37720Y144760D03*
Y139190D03*
Y133620D03*
Y128050D03*
X32280Y142940D03*
Y137370D03*
Y131800D03*
X27720Y160820D03*
Y155250D03*
Y149680D03*
X37720Y161470D03*
Y155900D03*
Y150330D03*
X32280Y159650D03*
Y154080D03*
Y148510D03*
X27720Y177530D03*
Y171960D03*
Y166390D03*
X37720Y178180D03*
Y172610D03*
Y167040D03*
X32280Y176360D03*
Y170790D03*
Y165220D03*
X27720Y194240D03*
Y188670D03*
Y183100D03*
X37720Y194890D03*
Y189320D03*
Y183750D03*
X32280Y193070D03*
Y187500D03*
Y181930D03*
X27720Y210950D03*
Y205380D03*
Y199810D03*
X37720Y211600D03*
Y206030D03*
Y200460D03*
X32280Y209780D03*
Y204210D03*
Y198640D03*
X27720Y227660D03*
Y222090D03*
Y216520D03*
X37720Y228310D03*
Y222740D03*
Y217170D03*
X32280Y226490D03*
Y220920D03*
Y215350D03*
X27720Y244370D03*
Y238800D03*
Y233230D03*
X37720Y245020D03*
Y239450D03*
Y233880D03*
X32280Y248770D03*
Y243200D03*
Y237630D03*
Y232060D03*
X27720Y261080D03*
Y255510D03*
Y249940D03*
X37720Y261730D03*
Y256160D03*
Y250590D03*
X32280Y265480D03*
Y259910D03*
Y254340D03*
X27720Y283360D03*
Y277790D03*
Y272220D03*
Y266650D03*
X37720Y278440D03*
Y272870D03*
Y267300D03*
X32280Y282190D03*
Y276620D03*
Y271050D03*
X26850Y288860D03*
X37720Y300720D03*
Y295150D03*
Y289580D03*
Y284010D03*
X32280Y298900D03*
Y293330D03*
Y287760D03*
X37720Y317430D03*
Y311860D03*
Y306290D03*
X32280Y315610D03*
Y310040D03*
Y304470D03*
X33820Y332540D03*
X37720Y328570D03*
Y323000D03*
X27970Y330670D03*
X31910Y326740D03*
X32280Y321180D03*
X24450Y337720D03*
X29880Y336480D03*
X36000Y341000D03*
X33970Y367380D03*
X37910Y363440D03*
X25570Y368080D03*
X29510Y364140D03*
X33450Y360200D03*
X37380Y356260D03*
X26100Y375260D03*
X30040Y371320D03*
X39780Y370980D03*
X40180Y376540D03*
X41000Y381000D03*
Y401000D03*
Y421000D03*
Y441000D03*
X51930Y15120D03*
X47560Y18580D03*
X44780Y23400D03*
X52060Y21790D03*
X58000Y13000D03*
X54060Y39780D03*
X44780Y28970D03*
X44140Y34510D03*
X50220Y27050D03*
Y32620D03*
X48460Y37900D03*
X55000Y32000D03*
X43190Y55670D03*
X47120Y51730D03*
X51060Y47790D03*
X45080Y46070D03*
X49010Y42130D03*
X44520Y41840D03*
X54640Y56720D03*
X58580Y52780D03*
X48820Y54830D03*
X52760Y50890D03*
X57130Y57420D03*
X42820Y68530D03*
X46760Y64590D03*
X50700Y60650D03*
X44880Y58770D03*
X49960Y72310D03*
X53900Y68370D03*
X57830Y64430D03*
X42280Y73910D03*
X45320Y69240D03*
X49260Y65300D03*
X53190Y61360D03*
X55880Y70270D03*
X52280Y74510D03*
X47720Y88550D03*
Y82980D03*
Y77410D03*
X42280Y90620D03*
Y85050D03*
Y79480D03*
X52280Y80080D03*
Y85650D03*
Y91220D03*
X57720Y79710D03*
Y85280D03*
Y90850D03*
X47720Y105260D03*
Y99690D03*
Y94120D03*
X42280Y107330D03*
Y101760D03*
Y96190D03*
X52280Y96790D03*
Y102360D03*
Y107930D03*
X57720Y96420D03*
Y101990D03*
Y107560D03*
X47720Y127540D03*
Y121970D03*
Y116400D03*
Y110830D03*
X42280Y124040D03*
Y118470D03*
Y112900D03*
X52280Y113500D03*
Y119070D03*
Y124640D03*
X57720Y113130D03*
Y118700D03*
Y124270D03*
X47720Y144250D03*
Y138680D03*
Y133110D03*
X42280Y140750D03*
Y135180D03*
Y129610D03*
X52280Y130210D03*
Y135780D03*
Y141350D03*
X57720Y129840D03*
Y135410D03*
Y140980D03*
X47720Y160960D03*
Y155390D03*
Y149820D03*
X42280Y157460D03*
Y151890D03*
Y146320D03*
X52280Y146920D03*
Y152490D03*
Y158060D03*
X57720Y146550D03*
Y152120D03*
Y157690D03*
X47720Y177670D03*
Y172100D03*
Y166530D03*
X42280Y179740D03*
Y174170D03*
Y168600D03*
Y163030D03*
X52280Y163630D03*
Y169200D03*
Y174770D03*
X57720Y163260D03*
Y168830D03*
Y174400D03*
X47720Y194380D03*
Y188810D03*
Y183240D03*
X42280Y196450D03*
Y190880D03*
Y185310D03*
X52280Y180340D03*
Y185910D03*
Y191480D03*
Y197050D03*
X57720Y179970D03*
Y185540D03*
Y191110D03*
Y196680D03*
X47720Y211090D03*
Y205520D03*
Y199950D03*
X42280Y213160D03*
Y207590D03*
Y202020D03*
X52280Y202620D03*
Y208190D03*
Y213760D03*
X57720Y202250D03*
Y207820D03*
Y213390D03*
X47720Y227800D03*
Y222230D03*
Y216660D03*
X42280Y229870D03*
Y224300D03*
Y218730D03*
X52280Y219330D03*
Y224900D03*
Y230470D03*
X57720Y218960D03*
Y224530D03*
Y230100D03*
X47720Y244510D03*
Y238940D03*
Y233370D03*
X42280Y246580D03*
Y241010D03*
Y235440D03*
X52280Y236040D03*
Y241610D03*
Y247180D03*
X57720Y235670D03*
Y241240D03*
Y246810D03*
X47720Y261220D03*
Y255650D03*
Y250080D03*
X42280Y263290D03*
Y257720D03*
Y252150D03*
X52280Y252750D03*
Y258320D03*
Y263890D03*
X57720Y252380D03*
Y257950D03*
Y263520D03*
X47720Y283500D03*
Y277930D03*
Y272360D03*
Y266790D03*
X42280Y280000D03*
Y274430D03*
Y268860D03*
X52280Y269460D03*
Y275030D03*
Y280600D03*
X57720Y269090D03*
Y274660D03*
Y280230D03*
X47720Y300210D03*
Y294640D03*
Y289070D03*
X42280Y296710D03*
Y291140D03*
Y285570D03*
X52280Y286170D03*
Y291740D03*
Y297310D03*
X57720Y285800D03*
Y291370D03*
Y296940D03*
X47720Y316920D03*
Y311350D03*
Y305780D03*
X42280Y313420D03*
Y307850D03*
Y302280D03*
X52280Y302880D03*
Y308450D03*
Y314020D03*
X57720Y302510D03*
Y308080D03*
Y313650D03*
X47720Y333630D03*
Y328060D03*
Y322490D03*
X42280Y335700D03*
Y330130D03*
Y324560D03*
Y318990D03*
X52280Y319590D03*
Y325160D03*
Y330730D03*
X57720Y319220D03*
Y324790D03*
Y330360D03*
X47720Y350340D03*
Y344770D03*
Y339200D03*
X41320Y352320D03*
X42280Y346840D03*
Y341270D03*
X52280Y336300D03*
Y341870D03*
Y347440D03*
Y353010D03*
X57720Y335930D03*
Y341500D03*
Y347070D03*
Y352640D03*
X41850Y359500D03*
X45790Y355560D03*
X50390Y358260D03*
X46450Y362190D03*
X42510Y366130D03*
X57720Y358210D03*
X54000Y362350D03*
X50060Y366290D03*
X46120Y370230D03*
X44120Y380480D03*
X48060Y384410D03*
X52540Y387720D03*
X58110D03*
X47070Y375720D03*
X51010Y379660D03*
X55930Y382280D03*
X68000Y12000D03*
X62000D03*
X65000D03*
X71000D03*
X74000D03*
X70850Y38710D03*
X65000Y33000D03*
X68000D03*
X62510Y48840D03*
X67700Y46800D03*
X65950Y41360D03*
X65710Y56550D03*
X69650Y52610D03*
X73590Y48680D03*
X61070Y53490D03*
X65010Y49550D03*
X75580Y50580D03*
X71640Y54520D03*
X67700Y58460D03*
X61770Y60490D03*
X63760Y62390D03*
X59820Y66330D03*
X75200Y58660D03*
X71260Y62600D03*
X67320Y66540D03*
X63390Y70480D03*
X59450Y74420D03*
X69010Y74850D03*
X72940Y70910D03*
X62280Y75490D03*
X66090Y70760D03*
X69830Y66650D03*
X67720Y91410D03*
Y85840D03*
Y80270D03*
X62280Y92200D03*
Y86630D03*
Y81060D03*
X67720Y108120D03*
Y102550D03*
Y96980D03*
X62280Y108910D03*
Y103340D03*
Y97770D03*
X75130Y108520D03*
X67720Y124830D03*
Y119260D03*
Y113690D03*
X62280Y125620D03*
Y120050D03*
Y114480D03*
X74780Y114070D03*
X73530Y127600D03*
X67720Y141540D03*
Y135970D03*
Y130400D03*
X62280Y142330D03*
Y136760D03*
Y131190D03*
X72280Y133030D03*
Y138600D03*
Y144170D03*
X67720Y158250D03*
Y152680D03*
Y147110D03*
X62280Y159040D03*
Y153470D03*
Y147900D03*
X72280Y149740D03*
X73750Y155110D03*
X67720Y174960D03*
Y169390D03*
Y163820D03*
X62280Y175750D03*
Y170180D03*
Y164610D03*
X67720Y197240D03*
Y191670D03*
Y186100D03*
Y180530D03*
X62280Y192460D03*
Y186890D03*
Y181320D03*
X67720Y213950D03*
Y208380D03*
Y202810D03*
X62280Y209170D03*
Y203600D03*
Y198030D03*
X67720Y230660D03*
Y225090D03*
Y219520D03*
X62280Y231450D03*
Y225880D03*
Y220310D03*
Y214740D03*
X67720Y247370D03*
Y241800D03*
Y236230D03*
X62280Y248160D03*
Y242590D03*
Y237020D03*
X67720Y264080D03*
Y258510D03*
Y252940D03*
X62280Y264870D03*
Y259300D03*
Y253730D03*
X67720Y280790D03*
Y275220D03*
Y269650D03*
X62280Y281580D03*
Y276010D03*
Y270440D03*
X67720Y297500D03*
Y291930D03*
Y286360D03*
X62280Y298290D03*
Y292720D03*
Y287150D03*
X61000Y301000D03*
X67720Y314210D03*
Y308640D03*
Y303070D03*
X62280Y315000D03*
Y309430D03*
Y303860D03*
X67720Y330920D03*
Y325350D03*
Y319780D03*
X62280Y331710D03*
Y326140D03*
Y320570D03*
X72340Y339780D03*
X67840Y336490D03*
X75470Y345220D03*
X69900D03*
X65480Y341840D03*
X62280Y337280D03*
X61000Y341000D03*
Y361000D03*
X63680Y387720D03*
X68650Y385210D03*
X73640Y382720D03*
X61500Y382280D03*
X66440Y379710D03*
X71450Y377280D03*
X61000Y401000D03*
Y421000D03*
Y441000D03*
X77000Y12000D03*
X86000D03*
X80000D03*
X83000D03*
X89000D03*
X92000D03*
X79140Y54720D03*
X87720Y54380D03*
Y48810D03*
X89420Y50770D03*
X80820Y63030D03*
X84760Y59090D03*
X90000Y74000D03*
X87000D03*
X84000Y75000D03*
X93000Y74000D03*
X87280Y91140D03*
X92720D03*
X81000Y81000D03*
X87000Y86000D03*
X84000Y78000D03*
Y81000D03*
Y84000D03*
X93000Y86000D03*
X86950Y96700D03*
X83010Y100640D03*
X79070Y104580D03*
X92720Y96710D03*
X89860Y101490D03*
X85930Y105430D03*
X81990Y109370D03*
X92280Y110350D03*
X76000Y101000D03*
X77550Y118900D03*
X82960Y120220D03*
X88530D03*
X83900Y125040D03*
X78330Y124780D03*
X83320Y114780D03*
X88890D03*
X76000Y121000D03*
X89940Y128700D03*
X89780Y134270D03*
X89570Y139310D03*
X82690Y144040D03*
X82280Y138490D03*
Y132920D03*
X77720Y136130D03*
Y141700D03*
X81000Y141000D03*
X77690Y159050D03*
X83140Y160220D03*
X88710D03*
X92310Y146550D03*
X86860Y147720D03*
X77720Y147270D03*
X79040Y152680D03*
X84200Y154780D03*
X89770D03*
X76000Y161000D03*
X90000Y174000D03*
X87000D03*
X84000Y175000D03*
Y178000D03*
X93000Y174000D03*
X87280Y191140D03*
Y196710D03*
X92720Y191140D03*
Y196710D03*
X81000Y181000D03*
X87000Y186000D03*
X84000Y181000D03*
Y184000D03*
X93000Y186000D03*
X87280Y202280D03*
X90480Y206830D03*
X81000Y201000D03*
Y221000D03*
Y241000D03*
Y261000D03*
Y281000D03*
X90000Y274000D03*
X87000D03*
X84000Y275000D03*
Y278000D03*
Y281000D03*
X93000Y274000D03*
X87280Y291140D03*
Y296710D03*
X92720Y291140D03*
Y296710D03*
X81000Y301000D03*
X84000Y284000D03*
X87000Y286000D03*
X93000D03*
X87280Y302280D03*
Y307850D03*
Y313420D03*
X92720Y302280D03*
Y307850D03*
Y313420D03*
X87280Y318990D03*
Y324560D03*
Y330130D03*
Y335700D03*
X92720Y318990D03*
Y324560D03*
Y330130D03*
Y335700D03*
X81000Y321000D03*
X83480Y339780D03*
X77910D03*
X90530Y340820D03*
X86590Y344760D03*
X81040Y345220D03*
X81000Y361000D03*
X79210Y382720D03*
X77020Y377280D03*
X82590D03*
X84000Y383000D03*
X86000Y386000D03*
X89000D03*
X92000D03*
Y374000D03*
X89000D03*
X86000D03*
X81000Y401000D03*
Y421000D03*
Y441000D03*
X95000Y12000D03*
X104000D03*
X98000D03*
X101000D03*
X107000D03*
X110000D03*
X106080Y40640D03*
X110000Y33000D03*
X107000D03*
X110400Y45000D03*
X107030Y49330D03*
X108890Y55030D03*
X104540Y50700D03*
X104010Y57870D03*
X100070Y53930D03*
X94640Y52720D03*
X107950Y61800D03*
X101000Y61000D03*
X96000Y75000D03*
X101000Y81000D03*
X96000Y84000D03*
Y81000D03*
Y78000D03*
X97720Y109990D03*
X102820Y107720D03*
X93680Y104960D03*
X98560Y102280D03*
X104130D03*
X108940Y105080D03*
X110220Y110500D03*
X101000Y101000D03*
X94080Y119770D03*
X97720Y115560D03*
X104780Y112940D03*
Y118510D03*
Y124080D03*
X99410Y125560D03*
X93890Y124780D03*
X110220Y116070D03*
Y121640D03*
Y127210D03*
X101000Y121000D03*
X104780Y129650D03*
Y135220D03*
Y140790D03*
X104570Y140260D03*
X110220Y132780D03*
Y138350D03*
X109940Y143910D03*
X97280Y142140D03*
Y136570D03*
X96940Y131530D03*
X94280Y160220D03*
X99850D03*
X105880Y147720D03*
X100400Y146750D03*
X95340Y154780D03*
X100910D03*
X105960Y157110D03*
X109900Y161050D03*
X104470Y163330D03*
X108410Y167270D03*
X96000Y178000D03*
Y175000D03*
X101000Y181000D03*
X96000Y184000D03*
Y181000D03*
X94420Y210770D03*
X93570Y202220D03*
X97510Y206150D03*
X101450Y210090D03*
X105390Y214030D03*
X101000Y201000D03*
X98360Y214710D03*
X102300Y218650D03*
X106240Y222590D03*
X109780Y226890D03*
X109320Y217970D03*
X101000Y221000D03*
X109780Y232460D03*
Y238030D03*
Y243600D03*
Y249170D03*
X101000Y241000D03*
X109780Y254740D03*
Y260310D03*
Y265880D03*
X101000Y261000D03*
X109780Y271450D03*
Y277020D03*
Y282590D03*
X101000Y281000D03*
X96000D03*
Y278000D03*
Y275000D03*
X109780Y288160D03*
X101000Y301000D03*
X96000Y284000D03*
X101000Y321000D03*
Y341000D03*
Y361000D03*
Y381000D03*
X95000Y386000D03*
X96000Y383000D03*
Y380000D03*
Y377000D03*
X95000Y374000D03*
X101000Y401000D03*
Y421000D03*
Y441000D03*
X113000Y12000D03*
X116000D03*
X119000D03*
X121000Y21000D03*
Y15000D03*
Y18000D03*
Y41000D03*
Y24000D03*
Y27000D03*
Y30000D03*
X113000Y33000D03*
X119000D03*
X116000D03*
X120220Y58090D03*
X118280Y52880D03*
X114340Y48940D03*
X114780Y58090D03*
X111370Y53680D03*
X120220Y74230D03*
Y63660D03*
X114780Y74800D03*
Y68660D03*
X124640Y70790D03*
X120300Y66450D03*
X111890Y65740D03*
X120220Y91510D03*
Y85940D03*
Y80370D03*
X114780Y91510D03*
Y85940D03*
Y80370D03*
X124780Y88600D03*
Y83030D03*
X123710Y77560D03*
X120220Y108220D03*
Y102650D03*
Y97080D03*
X114780Y108220D03*
Y102650D03*
Y97080D03*
X124780Y105310D03*
Y99740D03*
Y94170D03*
X120220Y124930D03*
Y119360D03*
Y113790D03*
X114780Y124930D03*
Y119360D03*
Y113790D03*
X124780Y127590D03*
Y122020D03*
Y116450D03*
Y110880D03*
X120220Y141640D03*
Y136070D03*
Y130500D03*
X114780Y141640D03*
Y136070D03*
Y130500D03*
X124780Y144300D03*
Y138730D03*
Y133160D03*
X120220Y158350D03*
Y152780D03*
Y147210D03*
X114780Y158350D03*
Y152780D03*
Y147210D03*
X124780Y161010D03*
Y155440D03*
Y149870D03*
X121000Y161000D03*
X113980Y167360D03*
X117920Y163420D03*
X124780Y177720D03*
Y172150D03*
Y166580D03*
Y194430D03*
Y188860D03*
Y183290D03*
X121000Y181000D03*
X124780Y211140D03*
Y205570D03*
Y200000D03*
X121000Y201000D03*
X113260Y221910D03*
X115220Y227120D03*
X124780Y227850D03*
Y222280D03*
Y216710D03*
X121000Y221000D03*
X115220Y232690D03*
Y238260D03*
Y243830D03*
X124780Y244560D03*
Y238990D03*
Y233420D03*
X121000Y241000D03*
X115220Y249400D03*
Y254970D03*
Y260540D03*
Y266110D03*
X124780Y261270D03*
Y255700D03*
Y250130D03*
X121000Y261000D03*
X115220Y271680D03*
Y277250D03*
Y282820D03*
X124780Y283550D03*
Y277980D03*
Y272410D03*
Y266840D03*
X121000Y281000D03*
X113470Y292330D03*
X118230Y295220D03*
X123800Y295060D03*
X127730Y291120D03*
X116970Y288110D03*
X122510Y288630D03*
X121000Y301000D03*
Y321000D03*
Y341000D03*
Y361000D03*
Y381000D03*
Y401000D03*
Y421000D03*
Y441000D03*
X141000Y21000D03*
X144420Y40130D03*
X145000Y36000D03*
X140220Y57430D03*
X143990Y53320D03*
X134780Y55640D03*
X140480Y44070D03*
X136540Y48010D03*
X128580Y74730D03*
X140220Y74140D03*
X134780Y72350D03*
Y66780D03*
Y61210D03*
X143400Y72260D03*
X142560Y63710D03*
X130220Y91190D03*
Y85620D03*
Y80050D03*
X140220Y90850D03*
Y85280D03*
Y79710D03*
X134780Y89060D03*
Y83490D03*
Y77920D03*
X144780Y77650D03*
Y83220D03*
Y88790D03*
X130220Y107900D03*
Y102330D03*
Y96760D03*
X140220Y107560D03*
Y101990D03*
Y96420D03*
X134780Y105770D03*
Y100200D03*
Y94630D03*
X144780Y94360D03*
Y99930D03*
Y105500D03*
X130220Y124610D03*
Y119040D03*
Y113470D03*
X140220Y124270D03*
Y118700D03*
Y113130D03*
X134780Y122480D03*
Y116910D03*
Y111340D03*
X144780Y111070D03*
Y116640D03*
Y122210D03*
Y127780D03*
X130220Y141320D03*
Y135750D03*
Y130180D03*
X140220Y140980D03*
Y135410D03*
Y129840D03*
X134780Y144760D03*
Y139190D03*
Y133620D03*
Y128050D03*
X144780Y133350D03*
Y138920D03*
X130220Y158030D03*
Y152460D03*
Y146890D03*
X140220Y157690D03*
Y152120D03*
Y146550D03*
X134780Y161470D03*
Y155900D03*
Y150330D03*
X130220Y174740D03*
Y169170D03*
Y163600D03*
X140220Y174400D03*
Y168830D03*
Y163260D03*
X134780Y178180D03*
Y172610D03*
Y167040D03*
X130220Y197020D03*
Y191450D03*
Y185880D03*
Y180310D03*
X140220Y196680D03*
Y191110D03*
Y185540D03*
Y179970D03*
X134780Y194890D03*
Y189320D03*
Y183750D03*
X130220Y213730D03*
Y208160D03*
Y202590D03*
X140220Y213390D03*
Y207820D03*
Y202250D03*
X134780Y211600D03*
Y206030D03*
Y200460D03*
X130220Y230440D03*
Y224870D03*
Y219300D03*
X140220Y230100D03*
Y224530D03*
Y218960D03*
X134780Y228310D03*
Y222740D03*
Y217170D03*
X130220Y247150D03*
Y241580D03*
Y236010D03*
X140220Y246810D03*
Y241240D03*
Y235670D03*
X134780Y245020D03*
Y239450D03*
Y233880D03*
X141000Y241000D03*
X130220Y263860D03*
Y258290D03*
Y252720D03*
X140220Y263520D03*
Y257950D03*
Y252380D03*
X134780Y261730D03*
Y256160D03*
Y250590D03*
X130220Y280570D03*
Y275000D03*
Y269430D03*
X140220Y280230D03*
Y274660D03*
Y269090D03*
X134780Y278440D03*
Y272870D03*
Y267300D03*
X130220Y286140D03*
X144120Y289780D03*
X140220Y285800D03*
X143340Y295220D03*
X137860Y294220D03*
X134780Y289580D03*
Y284010D03*
X141000Y301000D03*
Y321000D03*
Y341000D03*
Y361000D03*
Y381000D03*
Y401000D03*
Y421000D03*
Y441000D03*
X161000Y21000D03*
X155000Y12000D03*
X152000D03*
X158000D03*
X161000D03*
X150000Y14000D03*
X149000Y17000D03*
X147000Y20000D03*
X161000Y41000D03*
X147000Y24000D03*
Y28000D03*
X146000Y32000D03*
X160000Y31000D03*
X147920Y49380D03*
X146500Y67650D03*
X150220Y71790D03*
X161000Y61000D03*
X150220Y77360D03*
Y82930D03*
Y88500D03*
X161000Y81000D03*
X160220Y108090D03*
X150220Y94070D03*
Y99640D03*
Y105210D03*
X154780Y109900D03*
Y104330D03*
X158480Y100170D03*
X160220Y124800D03*
Y119230D03*
Y113660D03*
X150220Y110780D03*
Y116350D03*
Y121920D03*
Y127490D03*
X154780Y126610D03*
Y121040D03*
Y115470D03*
X145580Y144440D03*
X160220Y130370D03*
X150220Y133060D03*
Y138630D03*
X154440Y142280D03*
X159870Y143510D03*
X161100Y140220D03*
X156210Y137560D03*
X154780Y132180D03*
X150080Y147720D03*
X155650D03*
X159930Y151280D03*
X161000Y161000D03*
Y181000D03*
Y201000D03*
Y221000D03*
X160060Y233590D03*
X156120Y237530D03*
X154780Y242940D03*
Y248510D03*
X160220Y242170D03*
Y247740D03*
X154780Y254080D03*
Y259650D03*
Y265220D03*
X160220Y253310D03*
Y258880D03*
Y264450D03*
X154780Y270790D03*
Y276360D03*
Y281930D03*
X160220Y270020D03*
Y275590D03*
Y281160D03*
X161000Y281000D03*
X154780Y287500D03*
X149690Y289780D03*
X160220Y286730D03*
X159160Y292200D03*
X154480Y295220D03*
X148910D03*
X161000Y301000D03*
X162280Y317440D03*
Y311870D03*
Y323010D03*
X156000Y321000D03*
X161000Y341000D03*
Y361000D03*
Y381000D03*
Y401000D03*
Y421000D03*
Y441000D03*
X164000Y12000D03*
X167000D03*
X173000D03*
X170000D03*
X176000D03*
X179000D03*
X168870Y50230D03*
X172810Y54160D03*
X176750Y58100D03*
X176000Y61000D03*
X177000Y74000D03*
X174000Y75000D03*
X177280Y89880D03*
X177000Y86000D03*
X174000Y78000D03*
Y81000D03*
Y84000D03*
X165000Y105220D03*
X167280Y110310D03*
X164030Y99780D03*
X169530Y100680D03*
X172720Y105240D03*
X175960Y109780D03*
X179290Y95650D03*
X176420Y120060D03*
X170850Y119780D03*
X166050Y122600D03*
X170780Y114640D03*
X176320Y115220D03*
X174780Y126650D03*
X164780Y128020D03*
Y133590D03*
X176240Y137600D03*
X174780Y132220D03*
X170220Y129870D03*
Y135440D03*
X166650Y139710D03*
X163870Y155220D03*
X167810Y159160D03*
X173280Y160220D03*
X178850D03*
X163810Y147450D03*
X167740Y151390D03*
X172170Y154780D03*
X177740D03*
X177000Y174000D03*
X174000Y175000D03*
Y178000D03*
X177280Y191140D03*
Y196710D03*
X177000Y186000D03*
X174000Y181000D03*
Y184000D03*
X177280Y202280D03*
Y207850D03*
Y213420D03*
Y218990D03*
Y224560D03*
X176130Y230010D03*
X171040Y232280D03*
X165470D03*
X179310Y234530D03*
X174750Y237720D03*
X169180D03*
X163610Y237750D03*
X177000Y274000D03*
X174000Y275000D03*
Y278000D03*
Y281000D03*
X173830Y299810D03*
X177280Y295440D03*
Y289300D03*
X174000Y284000D03*
X177000Y286000D03*
X167720Y316330D03*
X170080Y311280D03*
X174010Y307340D03*
X177950Y303400D03*
X165960Y307690D03*
X169890Y303750D03*
X176500Y329320D03*
X172170Y325810D03*
X168230Y321870D03*
X179670Y334760D03*
X174100D03*
X169830Y331190D03*
X165890Y327250D03*
X179640Y351500D03*
X172720Y368860D03*
X175050Y363800D03*
X178990Y359860D03*
X167280Y368860D03*
X167820Y363320D03*
X171760Y359380D03*
X175700Y355440D03*
X167000Y386000D03*
X170000D03*
X173000D03*
Y374000D03*
X167000D03*
X176000Y376000D03*
Y379000D03*
Y382000D03*
Y385000D03*
X164000Y376000D03*
Y379000D03*
Y382000D03*
Y385000D03*
X182000Y12000D03*
X185000D03*
X191000D03*
X188000D03*
X194000D03*
X197000D03*
X196020Y37280D03*
X197000Y33000D03*
X194180Y43740D03*
X181900Y60220D03*
X187470D03*
X193040D03*
X186000Y75000D03*
X183000Y74000D03*
X180000D03*
X182720Y88910D03*
X183000Y86000D03*
X186000Y84000D03*
Y81000D03*
Y78000D03*
X195220Y107420D03*
X193480Y102130D03*
X189140Y97790D03*
X181530Y109780D03*
X187050Y109090D03*
X187170Y103520D03*
X183230Y99580D03*
X194150Y119780D03*
X188590Y120060D03*
X184780Y124110D03*
X180220Y124130D03*
X181890Y115220D03*
X187460D03*
X191940Y111910D03*
X193430Y125220D03*
X181000Y121000D03*
X184780Y129680D03*
X182520Y134780D03*
X180220Y129700D03*
X190220Y129780D03*
Y135350D03*
X186690Y139660D03*
X181150Y140220D03*
X196000Y141000D03*
X184420Y160220D03*
X189990D03*
X195560D03*
X183310Y154780D03*
X188880D03*
X194450D03*
X186000Y178000D03*
Y175000D03*
X183000Y174000D03*
X180000D03*
X182720Y191140D03*
Y196710D03*
X183000Y186000D03*
X186000Y184000D03*
Y181000D03*
X182720Y202280D03*
Y207850D03*
Y213420D03*
Y218990D03*
Y224560D03*
Y230130D03*
X181000Y241000D03*
Y261000D03*
X186000Y281000D03*
Y278000D03*
Y275000D03*
X183000Y274000D03*
X180000D03*
X181890Y299460D03*
X182720Y293960D03*
Y287820D03*
X186000Y284000D03*
X195460Y320680D03*
X191530Y324620D03*
X187590Y328560D03*
X182070Y329320D03*
X194540Y329310D03*
X190600Y333250D03*
X185240Y334760D03*
X195390Y335750D03*
X181000Y321000D03*
X186860Y351980D03*
X190800Y348040D03*
X194740Y344100D03*
X183570Y347560D03*
X187510Y343620D03*
X191450Y339690D03*
X181000Y341000D03*
X182920Y355920D03*
X181000Y381000D03*
Y401000D03*
Y421000D03*
Y441000D03*
X201000Y21000D03*
X200000Y12000D03*
X203000D03*
X209000D03*
X206000D03*
X211000Y15000D03*
Y18000D03*
Y21000D03*
X203520Y37280D03*
X209090D03*
X211000Y24000D03*
Y27000D03*
Y30000D03*
X200000Y33000D03*
X206000D03*
X209000D03*
X203000D03*
X206350Y57480D03*
X214400Y58040D03*
X210460Y54100D03*
X214420Y50560D03*
X210690Y45220D03*
X205120D03*
X199550D03*
X199310Y42720D03*
X204880D03*
X210450D03*
X197370Y63730D03*
X201310Y67670D03*
X205240Y71610D03*
X209180Y75550D03*
X200530Y59190D03*
X204470Y63130D03*
X208410Y67060D03*
X212350Y71000D03*
X214220Y65360D03*
X210280Y61420D03*
X209780Y81090D03*
Y86660D03*
Y92230D03*
X201000Y81000D03*
X209780Y97800D03*
Y103370D03*
Y108940D03*
X201000Y101000D03*
X204300Y122950D03*
X199720Y119780D03*
X199000Y125350D03*
X209780Y114510D03*
Y120080D03*
Y125650D03*
X205220Y145150D03*
Y139580D03*
Y134010D03*
Y128440D03*
X199780Y142010D03*
Y136440D03*
Y130870D03*
X209780Y131220D03*
Y136790D03*
Y142360D03*
X201130Y160220D03*
X205070Y156290D03*
X205220Y150720D03*
X199780Y153150D03*
Y147580D03*
X209780Y147930D03*
Y153500D03*
Y159070D03*
Y164640D03*
Y170210D03*
Y175780D03*
Y181350D03*
Y186920D03*
Y192490D03*
X201000Y181000D03*
X209780Y198060D03*
Y203630D03*
Y209200D03*
X201000Y201000D03*
X209780Y214770D03*
Y220340D03*
Y225910D03*
Y231480D03*
X201000Y221000D03*
X209780Y237050D03*
Y242620D03*
Y248190D03*
X201000Y241000D03*
X209780Y253760D03*
Y259330D03*
Y264900D03*
X201000Y261000D03*
X209780Y270470D03*
Y276040D03*
Y281610D03*
X201000Y281000D03*
X209780Y287180D03*
Y292750D03*
Y298320D03*
X201000Y301000D03*
X209780Y303890D03*
X207280Y308870D03*
X203340Y312800D03*
X199400Y316740D03*
X214230Y309620D03*
X210290Y313560D03*
X206350Y317500D03*
X202420Y321440D03*
X198480Y325380D03*
X206560Y332290D03*
X210490Y328350D03*
X214430Y324410D03*
X199330Y331810D03*
X203270Y327870D03*
X207210Y323930D03*
X211140Y319990D03*
X198680Y340170D03*
X202620Y336230D03*
X201000Y361000D03*
Y381000D03*
Y401000D03*
Y421000D03*
Y441000D03*
X221000Y21000D03*
X226410Y39940D03*
X227720Y34530D03*
X214660Y37280D03*
X220230D03*
X222280Y32090D03*
X225840Y27810D03*
X231380Y27280D03*
X222300Y58440D03*
X218360Y54500D03*
X228230Y56880D03*
X224290Y52940D03*
X220350Y49000D03*
X216260Y45220D03*
X216020Y42720D03*
X221590D03*
X215220Y75770D03*
X222100Y73240D03*
X218160Y69300D03*
X230150Y73790D03*
X226210Y69850D03*
X222280Y65910D03*
X218340Y61970D03*
X230180Y66310D03*
X226240Y62380D03*
X215220Y81340D03*
Y86910D03*
Y92480D03*
X225220Y88990D03*
Y83420D03*
Y77850D03*
X219780Y89370D03*
Y83800D03*
X219400Y78240D03*
X229780Y92330D03*
Y86760D03*
Y81190D03*
X215220Y98050D03*
Y103620D03*
Y109190D03*
X225220Y105700D03*
Y100130D03*
Y94560D03*
X219780Y106080D03*
Y100510D03*
Y94940D03*
X229780Y109040D03*
Y103470D03*
Y97900D03*
X215220Y114760D03*
Y120330D03*
Y125900D03*
X225220Y122410D03*
Y116840D03*
Y111270D03*
X219780Y122790D03*
Y117220D03*
Y111650D03*
X229780Y125750D03*
Y120180D03*
Y114610D03*
X215220Y131470D03*
Y137040D03*
Y142610D03*
X225220Y144690D03*
Y139120D03*
Y133550D03*
Y127980D03*
X219780Y145070D03*
Y139500D03*
Y133930D03*
Y128360D03*
X229780Y142460D03*
Y136890D03*
Y131320D03*
X215220Y148180D03*
Y153750D03*
Y159320D03*
X225220Y161400D03*
Y155830D03*
Y150260D03*
X219780Y161780D03*
Y156210D03*
Y150640D03*
X229780Y159170D03*
Y153600D03*
Y148030D03*
X215220Y164890D03*
Y170460D03*
Y176030D03*
X225220Y178110D03*
Y172540D03*
Y166970D03*
X219780Y178490D03*
Y172920D03*
Y167350D03*
X229780Y175880D03*
Y170310D03*
Y164740D03*
X215220Y181600D03*
Y187170D03*
Y192740D03*
X225220Y194820D03*
Y189250D03*
Y183680D03*
X219780Y195200D03*
Y189630D03*
Y184060D03*
X229780Y192590D03*
Y187020D03*
Y181450D03*
X215220Y198310D03*
Y203880D03*
Y209450D03*
X225220Y211530D03*
Y205960D03*
Y200390D03*
X219780Y211910D03*
Y206340D03*
Y200770D03*
X229780Y209300D03*
Y203730D03*
Y198160D03*
X215220Y215020D03*
Y220590D03*
Y226160D03*
Y231730D03*
X225220Y228240D03*
Y222670D03*
Y217100D03*
X219780Y228620D03*
Y223050D03*
Y217480D03*
X229780Y231580D03*
Y226010D03*
Y220440D03*
Y214870D03*
X215220Y237300D03*
Y242870D03*
Y248440D03*
X225220Y244950D03*
Y239380D03*
Y233810D03*
X219780Y245330D03*
Y239760D03*
Y234190D03*
X229780Y248290D03*
Y242720D03*
Y237150D03*
X215220Y254010D03*
Y259580D03*
Y265150D03*
X225220Y261660D03*
Y256090D03*
Y250520D03*
X219780Y262040D03*
Y256470D03*
Y250900D03*
X229780Y265000D03*
Y259430D03*
Y253860D03*
X215220Y270720D03*
Y276290D03*
Y281860D03*
X225220Y278370D03*
Y272800D03*
Y267230D03*
X219780Y278750D03*
Y273180D03*
Y267610D03*
X229780Y281710D03*
Y276140D03*
Y270570D03*
X215220Y287430D03*
Y293000D03*
Y298570D03*
X225220Y300650D03*
Y295080D03*
Y289510D03*
Y283940D03*
X219780Y301030D03*
Y295460D03*
Y289890D03*
Y284320D03*
X229780Y298420D03*
Y292850D03*
Y287280D03*
X215220Y304140D03*
X222310Y316530D03*
X225220Y311790D03*
Y306220D03*
X215080Y316050D03*
X219020Y312120D03*
X219780Y306600D03*
X229780Y315130D03*
Y309560D03*
Y303990D03*
X218370Y320470D03*
X229780Y331840D03*
Y326270D03*
Y320700D03*
Y348550D03*
Y342980D03*
Y337410D03*
X221000Y341000D03*
X230250Y354100D03*
X221000Y361000D03*
Y381000D03*
Y401000D03*
Y421000D03*
Y441000D03*
X241000Y21000D03*
X232990Y32720D03*
X238560D03*
X243650Y35000D03*
X247280Y39230D03*
X236950Y27280D03*
X242520D03*
X246970Y30620D03*
X241000Y41000D03*
X247280Y44800D03*
Y50370D03*
Y55940D03*
X238050Y74190D03*
X234120Y70250D03*
X243980Y72630D03*
X240050Y68690D03*
X236110Y64750D03*
X232170Y60820D03*
X247280Y61510D03*
Y67080D03*
Y72650D03*
X241000Y61000D03*
X235220Y88750D03*
Y83180D03*
X234090Y77730D03*
X245220Y88240D03*
Y82670D03*
X241990Y78130D03*
X239780Y90970D03*
Y85400D03*
X236430Y80270D03*
X247920Y76570D03*
X248440Y84790D03*
X235220Y105460D03*
Y99890D03*
Y94320D03*
X245220Y110520D03*
Y104950D03*
Y99380D03*
Y93810D03*
X239780Y107680D03*
Y102110D03*
Y96540D03*
X235220Y127740D03*
Y122170D03*
Y116600D03*
Y111030D03*
X245220Y127230D03*
Y121660D03*
Y116090D03*
X239780Y124390D03*
Y118820D03*
Y113250D03*
X235220Y144450D03*
Y138880D03*
Y133310D03*
X245220Y143940D03*
Y138370D03*
Y132800D03*
X239780Y141100D03*
Y135530D03*
Y129960D03*
X235220Y161160D03*
Y155590D03*
Y150020D03*
X245220Y160650D03*
Y155080D03*
Y149510D03*
X239780Y157810D03*
Y152240D03*
Y146670D03*
X235220Y177870D03*
Y172300D03*
Y166730D03*
X245220Y177360D03*
Y171790D03*
Y166220D03*
X239780Y174520D03*
Y168950D03*
Y163380D03*
X235220Y194580D03*
Y189010D03*
Y183440D03*
X245220Y194070D03*
Y188500D03*
Y182930D03*
X239780Y196800D03*
Y191230D03*
Y185660D03*
Y180090D03*
X235220Y211290D03*
Y205720D03*
Y200150D03*
X245220Y210780D03*
Y205210D03*
Y199640D03*
X239780Y213510D03*
Y207940D03*
Y202370D03*
X235220Y228000D03*
Y222430D03*
Y216860D03*
X245220Y227490D03*
Y221920D03*
Y216350D03*
X239780Y230220D03*
Y224650D03*
Y219080D03*
X235220Y244710D03*
Y239140D03*
Y233570D03*
X245220Y244200D03*
Y238630D03*
Y233060D03*
X239780Y246930D03*
Y241360D03*
Y235790D03*
X235220Y261420D03*
Y255850D03*
Y250280D03*
X245220Y266480D03*
Y260910D03*
Y255340D03*
Y249770D03*
X239780Y263640D03*
Y258070D03*
Y252500D03*
X235220Y283700D03*
Y278130D03*
Y272560D03*
Y266990D03*
X245220Y283190D03*
Y277620D03*
Y272050D03*
X239780Y280350D03*
Y274780D03*
Y269210D03*
X235220Y300410D03*
Y294840D03*
Y289270D03*
X245220Y299900D03*
Y294330D03*
Y288760D03*
X239780Y297060D03*
Y291490D03*
Y285920D03*
X235220Y317120D03*
Y311550D03*
Y305980D03*
X245450Y316600D03*
X245220Y311040D03*
Y305470D03*
X239780Y313770D03*
Y308200D03*
Y302630D03*
X235220Y333830D03*
Y328260D03*
Y322690D03*
X244830Y322720D03*
X240440Y319300D03*
X235220Y350540D03*
Y344970D03*
Y339400D03*
X241000Y341000D03*
X246610Y362750D03*
X242670Y358810D03*
X238730Y354870D03*
X246010Y369850D03*
X242070Y365910D03*
X238130Y361970D03*
X234190Y358030D03*
X241000Y381000D03*
Y401000D03*
Y421000D03*
Y441000D03*
X256000Y21000D03*
X250910Y34560D03*
X252720Y39830D03*
X256000Y41000D03*
X252720Y45400D03*
Y50970D03*
Y56540D03*
Y62110D03*
Y67680D03*
Y73250D03*
X261000Y61000D03*
X255220Y90520D03*
Y84950D03*
X251860Y80510D03*
X249780Y90690D03*
X259780Y90600D03*
X256340Y77480D03*
X260280Y81420D03*
X264220Y85360D03*
X255220Y107230D03*
Y101660D03*
Y96090D03*
X249780Y107400D03*
Y101830D03*
Y96260D03*
X259780Y96170D03*
Y101740D03*
Y107310D03*
X265220Y96410D03*
Y101980D03*
Y107550D03*
X255220Y123940D03*
Y118370D03*
Y112800D03*
X249780Y124110D03*
Y118540D03*
Y112970D03*
X259780Y112880D03*
Y118450D03*
Y124020D03*
X265220Y113120D03*
Y118690D03*
Y124260D03*
X255220Y140650D03*
Y135080D03*
Y129510D03*
X249780Y140820D03*
Y135250D03*
Y129680D03*
X259780Y129590D03*
Y135160D03*
Y140730D03*
X265220Y129830D03*
Y135400D03*
Y140970D03*
X255220Y157360D03*
Y151790D03*
Y146220D03*
X249780Y157530D03*
Y151960D03*
Y146390D03*
X259780Y146300D03*
Y151870D03*
Y157440D03*
X263070Y161930D03*
X265220Y146540D03*
Y152110D03*
X255220Y179640D03*
Y174070D03*
Y168500D03*
Y162930D03*
X249780Y179810D03*
Y174240D03*
Y168670D03*
Y163100D03*
X255220Y196350D03*
Y190780D03*
Y185210D03*
X249780Y196520D03*
Y190950D03*
Y185380D03*
X261000Y181000D03*
X255220Y213060D03*
Y207490D03*
Y201920D03*
X249780Y213230D03*
Y207660D03*
Y202090D03*
X261000Y201000D03*
X265960Y227700D03*
X255220Y229770D03*
Y224200D03*
Y218630D03*
X249780Y229940D03*
Y224370D03*
Y218800D03*
X261000Y221000D03*
X264780Y233140D03*
X264840Y238710D03*
X255220Y246480D03*
Y240910D03*
Y235340D03*
X249780Y246650D03*
Y241080D03*
Y235510D03*
X261000Y241000D03*
X265280Y249780D03*
X259710D03*
X266550Y255220D03*
X260980D03*
X255410D03*
X250780Y252130D03*
X261000Y261000D03*
Y281000D03*
Y301000D03*
X262110Y317280D03*
X256540D03*
X250970D03*
X261540Y322720D03*
X255970D03*
X250400D03*
X261000Y341000D03*
X250550Y366680D03*
X261000Y361000D03*
X263290Y377280D03*
X258430Y374560D03*
X254490Y370620D03*
X263290Y382720D03*
X257820Y381670D03*
X253880Y377730D03*
X249940Y373790D03*
X261000Y401000D03*
X256000Y421000D03*
Y441000D03*
X281000Y61000D03*
X283000Y74000D03*
X280000D03*
X277000D03*
X274000Y75000D03*
X282720Y92760D03*
Y86620D03*
X277280Y89710D03*
X277000Y86000D03*
X274000Y78000D03*
Y81000D03*
Y84000D03*
X281560Y107280D03*
X276000Y107140D03*
X278940Y102410D03*
X282720Y98330D03*
X270240Y109100D03*
X269780Y103550D03*
X272470Y98670D03*
X277280Y95850D03*
X281550Y127280D03*
X275980Y127130D03*
X279390Y122720D03*
X269780Y123540D03*
X272480Y118670D03*
X277870Y117280D03*
X283440D03*
X280040Y112720D03*
X274470D03*
X279420Y142720D03*
X269780Y143510D03*
X272500Y138650D03*
X277890Y137280D03*
X283460D03*
X280030Y132720D03*
X274460D03*
X270240Y129090D03*
X281420Y147280D03*
X275850Y147000D03*
X267310Y157280D03*
X272880D03*
X278450D03*
X279980Y152720D03*
X274410D03*
X270210Y149060D03*
X268580Y162720D03*
X274150D03*
X279720D03*
X283000Y174000D03*
X280000D03*
X277000D03*
X274000Y175000D03*
Y178000D03*
X277280Y191140D03*
Y196710D03*
X282720Y191140D03*
Y196710D03*
X277000Y186000D03*
X283000D03*
X274000Y181000D03*
Y184000D03*
X277280Y202280D03*
Y207850D03*
Y213420D03*
X282720Y202280D03*
Y207850D03*
X281110Y217460D03*
X281840Y224780D03*
X276270D03*
X270700D03*
X283490Y230220D03*
X277920D03*
X272350D03*
X281000Y221000D03*
X268780Y242650D03*
X274350Y242720D03*
X279920D03*
X270220Y235380D03*
X275460Y237280D03*
X281030D03*
X281990Y249780D03*
X276420D03*
X270850D03*
X283260Y255220D03*
X277690D03*
X272120D03*
X281000Y261000D03*
X283000Y274000D03*
X280000D03*
X277000D03*
X274000Y275000D03*
Y278000D03*
Y281000D03*
X277280Y291140D03*
Y296710D03*
X282720Y291140D03*
Y296710D03*
X274000Y284000D03*
X277000Y286000D03*
X283000D03*
X277280Y302280D03*
Y307850D03*
Y313420D03*
X273250Y317280D03*
X267680D03*
X282720Y302280D03*
Y307850D03*
Y313420D03*
X282370Y318980D03*
X278250Y322720D03*
X272680D03*
X267110D03*
X281000Y341000D03*
Y361000D03*
X268860Y377280D03*
X273470Y377820D03*
X268860Y382720D03*
X282000Y386000D03*
Y374000D03*
X276000Y386000D03*
X279000D03*
Y374000D03*
X276000D03*
X274000Y383000D03*
X281000Y401000D03*
X286000Y75000D03*
Y84000D03*
Y81000D03*
Y78000D03*
X292530Y108670D03*
X287130Y107280D03*
X287120Y127280D03*
X284960Y122720D03*
X290530D03*
X294760Y119100D03*
X295220Y113540D03*
X289010Y117140D03*
X285610Y112720D03*
X284990Y142720D03*
X290560D03*
X294780Y139080D03*
X295220Y133530D03*
X292510Y128660D03*
X289030Y137110D03*
X285600Y132720D03*
X294930Y158920D03*
X295220Y153360D03*
X292410Y148550D03*
X286990Y147280D03*
X284020Y157280D03*
X289550Y156600D03*
X285550Y152720D03*
X285290Y162720D03*
X290860D03*
X286000Y178000D03*
Y175000D03*
Y184000D03*
Y181000D03*
X286110Y212280D03*
X286650Y218000D03*
X287280Y223540D03*
X291100Y214750D03*
X292720Y220070D03*
Y225640D03*
X289040Y229820D03*
X285490Y242720D03*
X287280Y248000D03*
X286600Y237280D03*
X291420Y240070D03*
X292720Y245480D03*
Y251050D03*
X288820Y255030D03*
X286000Y281000D03*
Y278000D03*
Y275000D03*
Y284000D03*
X285000Y386000D03*
X286000Y383000D03*
Y380000D03*
Y377000D03*
X285000Y374000D03*
G54D13*
X-10000Y80000D03*
Y180000D03*
Y280000D03*
Y380000D03*
X4950Y-215250D03*
X90000Y80000D03*
Y180000D03*
Y280000D03*
Y380000D03*
X180000Y80000D03*
Y180000D03*
Y280000D03*
X170000Y380000D03*
X280000Y80000D03*
Y180000D03*
Y280000D03*
Y380000D03*
G54D14*
X4950Y-177750D03*
X115000Y27300D03*
X205000D03*
G54D15*
X4950Y-140250D03*
X65000Y17300D03*
X75000D03*
X65000Y27300D03*
X75000D03*
X85000Y17300D03*
X95000D03*
X85000Y27300D03*
X95000D03*
X105000Y17300D03*
Y27300D03*
X115000Y17300D03*
X155000D03*
Y27300D03*
X165000Y17300D03*
X175000D03*
X165000Y27300D03*
X175000D03*
X185000Y17300D03*
X195000D03*
X185000Y27300D03*
X195000D03*
X205000Y17300D03*
G54D16*
G01X-40000Y-309000D02*
Y-9000D01*
X657500D01*
Y-309000D01*
X-40000D01*
G01Y-271500D02*
X657500D01*
G01X-40000Y-234000D02*
X657500D01*
G01X-40000Y-196500D02*
X657500D01*
G01X-40000Y-159000D02*
X657500D01*
G01X-40000Y-121500D02*
X657500D01*
G01X-29000Y-77750D02*
Y-65250D01*
X-23100D01*
G01X-25280Y-71290D02*
X-29000D01*
G01X-15510Y-65250D02*
X-11790D01*
G01X-13650D02*
Y-77750D01*
G01X-15510D02*
X-11790D01*
G01X-320Y-71500D02*
X2780D01*
Y-75250D01*
X1850Y-76500D01*
X760Y-77330D01*
X-780Y-77750D01*
X-2330Y-77330D01*
X-3420Y-76500D01*
X-4350Y-75250D01*
X-4970Y-73790D01*
X-5280Y-72130D01*
Y-70670D01*
X-4970Y-69420D01*
X-4350Y-67960D01*
X-3420Y-66710D01*
X-2490Y-65880D01*
X-1250Y-65250D01*
X-170D01*
X1070Y-65670D01*
X2010Y-66500D01*
G01X7740Y-65250D02*
Y-74210D01*
X8360Y-76080D01*
X9600Y-77330D01*
X11150Y-77750D01*
X12700Y-77330D01*
X13940Y-76080D01*
X14560Y-74210D01*
Y-65250D01*
G01X20450Y-77750D02*
Y-65250D01*
X24320D01*
X25560Y-65880D01*
X26340Y-66710D01*
X26650Y-68380D01*
X26340Y-70040D01*
X25410Y-71080D01*
X24320Y-71710D01*
X20450D01*
G01X24320D02*
X26650Y-77750D01*
G01X39050D02*
X32850D01*
Y-65250D01*
X39050D01*
G01X36570Y-71290D02*
X32850D01*
G01X-40000Y-84000D02*
X657500D01*
G01X-40000Y-59000D02*
X657500D01*
G01X-40000Y-34000D02*
X657500D01*
G01X-30000Y0D02*
X300000D01*
X310000Y10000D01*
Y50000D01*
X300000Y60000D01*
Y400000D01*
X310000Y410000D01*
Y450000D01*
X300000Y460000D01*
X-30000D01*
X-40000Y450000D01*
Y410000D01*
X-30000Y400000D01*
Y60000D01*
X-40000Y50000D01*
Y10000D01*
X-30000Y0D01*
G01X49900Y-59000D02*
Y-309000D01*
G01X73300Y-77750D02*
Y-65250D01*
X79200D01*
G01X77020Y-71290D02*
X73300D01*
G01X86790Y-65250D02*
X90510D01*
G01X88650D02*
Y-77750D01*
G01X86790D02*
X90510D01*
G01X97490D02*
Y-65250D01*
X104610Y-77750D01*
Y-65250D01*
G01X111590D02*
X115310D01*
G01X113450D02*
Y-77750D01*
G01X111590D02*
X115310D01*
G01X122590Y-76080D02*
X123840Y-77130D01*
X125230Y-77750D01*
X126470D01*
X127710Y-77130D01*
X128640Y-76080D01*
X129110Y-74620D01*
X128800Y-73170D01*
X128020Y-71920D01*
X126620Y-71080D01*
X124770Y-70670D01*
X123680Y-69830D01*
X123210Y-68380D01*
X123530Y-66920D01*
X124300Y-65880D01*
X125380Y-65250D01*
X126470D01*
X127560Y-65670D01*
X128490Y-66710D01*
G01X134990Y-77750D02*
Y-65250D01*
G01X141510D02*
Y-77750D01*
G01Y-71500D02*
X134990D01*
G01X153750Y-77750D02*
X147550D01*
Y-65250D01*
X153750D01*
G01X151270Y-71290D02*
X147550D01*
G01X159640Y-77750D02*
Y-65250D01*
X162740D01*
X163980Y-65880D01*
X164910Y-66710D01*
X165690Y-67960D01*
X166310Y-69420D01*
X166460Y-71500D01*
X166310Y-73580D01*
X165690Y-75040D01*
X164910Y-76290D01*
X163980Y-77130D01*
X162740Y-77750D01*
X159640D01*
G01X170800Y-81920D02*
X180100D01*
G01X184590Y-76080D02*
X185840Y-77130D01*
X187230Y-77750D01*
X188470D01*
X189710Y-77130D01*
X190640Y-76080D01*
X191110Y-74620D01*
X190800Y-73170D01*
X190020Y-71920D01*
X188620Y-71080D01*
X186770Y-70670D01*
X185680Y-69830D01*
X185210Y-68380D01*
X185530Y-66920D01*
X186300Y-65880D01*
X187380Y-65250D01*
X188470D01*
X189560Y-65670D01*
X190490Y-66710D01*
G01X198390Y-65250D02*
X202110D01*
G01X200250D02*
Y-77750D01*
G01X198390D02*
X202110D01*
G01X209700Y-65250D02*
X215600D01*
X209700Y-77750D01*
X215600D01*
G01X228150D02*
X221950D01*
Y-65250D01*
X228150D01*
G01X225670Y-71290D02*
X221950D01*
G01X125850Y-246500D02*
X124610Y-246920D01*
X123680Y-247960D01*
X123060Y-249210D01*
X122590Y-250880D01*
X122440Y-252750D01*
X122590Y-254630D01*
X123060Y-256290D01*
X123680Y-257540D01*
X124610Y-258580D01*
X125850Y-259000D01*
X127090Y-258580D01*
X128020Y-257540D01*
X128640Y-256290D01*
X129110Y-254630D01*
X129260Y-252750D01*
X129110Y-250880D01*
X128640Y-249210D01*
X128020Y-247960D01*
X127090Y-246920D01*
X125850Y-246500D01*
G01X138250Y-259420D02*
X137940Y-259210D01*
Y-258790D01*
X138250Y-258580D01*
X138560Y-258790D01*
Y-259210D01*
X138250Y-259420D01*
G01X150650Y-246500D02*
X149410Y-246920D01*
X148480Y-247960D01*
X147860Y-249210D01*
X147390Y-250880D01*
X147240Y-252750D01*
X147390Y-254630D01*
X147860Y-256290D01*
X148480Y-257540D01*
X149410Y-258580D01*
X150650Y-259000D01*
X151890Y-258580D01*
X152820Y-257540D01*
X153440Y-256290D01*
X153910Y-254630D01*
X154060Y-252750D01*
X153910Y-250880D01*
X153440Y-249210D01*
X152820Y-247960D01*
X151890Y-246920D01*
X150650Y-246500D01*
G01X160100Y-253790D02*
X161190Y-252330D01*
X162120Y-251500D01*
X163360Y-251080D01*
X164450Y-251500D01*
X165220Y-252330D01*
X165840Y-253580D01*
X166000Y-255040D01*
X165840Y-256290D01*
X165220Y-257540D01*
X164290Y-258580D01*
X163210Y-259000D01*
X161970Y-258580D01*
X160880Y-257330D01*
X160260Y-255460D01*
X160100Y-253380D01*
X160410Y-250670D01*
X160880Y-249210D01*
X161650Y-247750D01*
X162740Y-246710D01*
X163820Y-246500D01*
X164910Y-246920D01*
X165690Y-247960D01*
G01X172040Y-256500D02*
X172970Y-257960D01*
X174210Y-258790D01*
X175610Y-259000D01*
X176850Y-258790D01*
X178090Y-257750D01*
X178860Y-256500D01*
X179010Y-255250D01*
X178710Y-253790D01*
X177620Y-252750D01*
X176530Y-252330D01*
X175140D01*
G01X176530D02*
X177460Y-251710D01*
X178240Y-250670D01*
X178550Y-249420D01*
X178240Y-248170D01*
X177460Y-247130D01*
X176070Y-246500D01*
X174680Y-246710D01*
X173280Y-247540D01*
G01X119650Y-209000D02*
X118410Y-209420D01*
X117480Y-210460D01*
X116860Y-211710D01*
X116390Y-213380D01*
X116240Y-215250D01*
X116390Y-217130D01*
X116860Y-218790D01*
X117480Y-220040D01*
X118410Y-221080D01*
X119650Y-221500D01*
X120890Y-221080D01*
X121820Y-220040D01*
X122440Y-218790D01*
X122910Y-217130D01*
X123060Y-215250D01*
X122910Y-213380D01*
X122440Y-211710D01*
X121820Y-210460D01*
X120890Y-209420D01*
X119650Y-209000D01*
G01X132050Y-221920D02*
X131740Y-221710D01*
Y-221290D01*
X132050Y-221080D01*
X132360Y-221290D01*
Y-221710D01*
X132050Y-221920D01*
G01X144450Y-209000D02*
X143210Y-209420D01*
X142280Y-210460D01*
X141660Y-211710D01*
X141190Y-213380D01*
X141040Y-215250D01*
X141190Y-217130D01*
X141660Y-218790D01*
X142280Y-220040D01*
X143210Y-221080D01*
X144450Y-221500D01*
X145690Y-221080D01*
X146620Y-220040D01*
X147240Y-218790D01*
X147710Y-217130D01*
X147860Y-215250D01*
X147710Y-213380D01*
X147240Y-211710D01*
X146620Y-210460D01*
X145690Y-209420D01*
X144450Y-209000D01*
G01X153440Y-219630D02*
X154370Y-220670D01*
X155450Y-221290D01*
X156850Y-221500D01*
X158250Y-221080D01*
X159330Y-220250D01*
X160110Y-218790D01*
X160260Y-217130D01*
X159950Y-215460D01*
X159170Y-214420D01*
X158090Y-213580D01*
X157010Y-213380D01*
X155920Y-213580D01*
X154530Y-214420D01*
X154990Y-209000D01*
X159170D01*
G01X166610Y-220040D02*
X167700Y-221080D01*
X168940Y-221500D01*
X170180Y-221080D01*
X171260Y-219830D01*
X172040Y-217960D01*
X172350Y-216080D01*
Y-213790D01*
X172040Y-211920D01*
X171260Y-210250D01*
X170330Y-209420D01*
X169250Y-209000D01*
X168010Y-209420D01*
X167080Y-210250D01*
X166460Y-211500D01*
X166150Y-213170D01*
X166460Y-214620D01*
X167240Y-216080D01*
X168170Y-216920D01*
X169250Y-217130D01*
X170490Y-216710D01*
X171420Y-215670D01*
X172350Y-213790D01*
G01X181650Y-221500D02*
Y-209000D01*
X179790Y-211500D01*
G01Y-221500D02*
X183510D01*
G01X119650Y-171500D02*
X118410Y-171920D01*
X117480Y-172960D01*
X116860Y-174210D01*
X116390Y-175880D01*
X116240Y-177750D01*
X116390Y-179630D01*
X116860Y-181290D01*
X117480Y-182540D01*
X118410Y-183580D01*
X119650Y-184000D01*
X120890Y-183580D01*
X121820Y-182540D01*
X122440Y-181290D01*
X122910Y-179630D01*
X123060Y-177750D01*
X122910Y-175880D01*
X122440Y-174210D01*
X121820Y-172960D01*
X120890Y-171920D01*
X119650Y-171500D01*
G01X132050Y-184420D02*
X131740Y-184210D01*
Y-183790D01*
X132050Y-183580D01*
X132360Y-183790D01*
Y-184210D01*
X132050Y-184420D01*
G01X144450Y-171500D02*
X143210Y-171920D01*
X142280Y-172960D01*
X141660Y-174210D01*
X141190Y-175880D01*
X141040Y-177750D01*
X141190Y-179630D01*
X141660Y-181290D01*
X142280Y-182540D01*
X143210Y-183580D01*
X144450Y-184000D01*
X145690Y-183580D01*
X146620Y-182540D01*
X147240Y-181290D01*
X147710Y-179630D01*
X147860Y-177750D01*
X147710Y-175880D01*
X147240Y-174210D01*
X146620Y-172960D01*
X145690Y-171920D01*
X144450Y-171500D01*
G01X158710Y-184000D02*
Y-171500D01*
X152970Y-180460D01*
X160730D01*
G01X165840Y-181500D02*
X166770Y-182960D01*
X168010Y-183790D01*
X169410Y-184000D01*
X170650Y-183790D01*
X171890Y-182750D01*
X172660Y-181500D01*
X172810Y-180250D01*
X172510Y-178790D01*
X171420Y-177750D01*
X170330Y-177330D01*
X168940D01*
G01X170330D02*
X171260Y-176710D01*
X172040Y-175670D01*
X172350Y-174420D01*
X172040Y-173170D01*
X171260Y-172130D01*
X169870Y-171500D01*
X168480Y-171710D01*
X167080Y-172540D01*
G01X178240Y-181500D02*
X179170Y-182960D01*
X180410Y-183790D01*
X181810Y-184000D01*
X183050Y-183790D01*
X184290Y-182750D01*
X185060Y-181500D01*
X185210Y-180250D01*
X184910Y-178790D01*
X183820Y-177750D01*
X182730Y-177330D01*
X181340D01*
G01X182730D02*
X183660Y-176710D01*
X184440Y-175670D01*
X184750Y-174420D01*
X184440Y-173170D01*
X183660Y-172130D01*
X182270Y-171500D01*
X180880Y-171710D01*
X179480Y-172540D01*
G01X119650Y-134000D02*
X118410Y-134420D01*
X117480Y-135460D01*
X116860Y-136710D01*
X116390Y-138380D01*
X116240Y-140250D01*
X116390Y-142130D01*
X116860Y-143790D01*
X117480Y-145040D01*
X118410Y-146080D01*
X119650Y-146500D01*
X120890Y-146080D01*
X121820Y-145040D01*
X122440Y-143790D01*
X122910Y-142130D01*
X123060Y-140250D01*
X122910Y-138380D01*
X122440Y-136710D01*
X121820Y-135460D01*
X120890Y-134420D01*
X119650Y-134000D01*
G01X132050Y-146920D02*
X131740Y-146710D01*
Y-146290D01*
X132050Y-146080D01*
X132360Y-146290D01*
Y-146710D01*
X132050Y-146920D01*
G01X144450Y-134000D02*
X143210Y-134420D01*
X142280Y-135460D01*
X141660Y-136710D01*
X141190Y-138380D01*
X141040Y-140250D01*
X141190Y-142130D01*
X141660Y-143790D01*
X142280Y-145040D01*
X143210Y-146080D01*
X144450Y-146500D01*
X145690Y-146080D01*
X146620Y-145040D01*
X147240Y-143790D01*
X147710Y-142130D01*
X147860Y-140250D01*
X147710Y-138380D01*
X147240Y-136710D01*
X146620Y-135460D01*
X145690Y-134420D01*
X144450Y-134000D01*
G01X158710Y-146500D02*
Y-134000D01*
X152970Y-142960D01*
X160730D01*
G01X165840Y-144000D02*
X166770Y-145460D01*
X168010Y-146290D01*
X169410Y-146500D01*
X170650Y-146290D01*
X171890Y-145250D01*
X172660Y-144000D01*
X172810Y-142750D01*
X172510Y-141290D01*
X171420Y-140250D01*
X170330Y-139830D01*
X168940D01*
G01X170330D02*
X171260Y-139210D01*
X172040Y-138170D01*
X172350Y-136920D01*
X172040Y-135670D01*
X171260Y-134630D01*
X169870Y-134000D01*
X168480Y-134210D01*
X167080Y-135040D01*
G01X178240Y-144000D02*
X179170Y-145460D01*
X180410Y-146290D01*
X181810Y-146500D01*
X183050Y-146290D01*
X184290Y-145250D01*
X185060Y-144000D01*
X185210Y-142750D01*
X184910Y-141290D01*
X183820Y-140250D01*
X182730Y-139830D01*
X181340D01*
G01X182730D02*
X183660Y-139210D01*
X184440Y-138170D01*
X184750Y-136920D01*
X184440Y-135670D01*
X183660Y-134630D01*
X182270Y-134000D01*
X180880Y-134210D01*
X179480Y-135040D01*
G01X125850Y-96500D02*
X124610Y-96920D01*
X123680Y-97960D01*
X123060Y-99210D01*
X122590Y-100880D01*
X122440Y-102750D01*
X122590Y-104630D01*
X123060Y-106290D01*
X123680Y-107540D01*
X124610Y-108580D01*
X125850Y-109000D01*
X127090Y-108580D01*
X128020Y-107540D01*
X128640Y-106290D01*
X129110Y-104630D01*
X129260Y-102750D01*
X129110Y-100880D01*
X128640Y-99210D01*
X128020Y-97960D01*
X127090Y-96920D01*
X125850Y-96500D01*
G01X138250Y-109420D02*
X137940Y-109210D01*
Y-108790D01*
X138250Y-108580D01*
X138560Y-108790D01*
Y-109210D01*
X138250Y-109420D01*
G01X150650Y-96500D02*
X149410Y-96920D01*
X148480Y-97960D01*
X147860Y-99210D01*
X147390Y-100880D01*
X147240Y-102750D01*
X147390Y-104630D01*
X147860Y-106290D01*
X148480Y-107540D01*
X149410Y-108580D01*
X150650Y-109000D01*
X151890Y-108580D01*
X152820Y-107540D01*
X153440Y-106290D01*
X153910Y-104630D01*
X154060Y-102750D01*
X153910Y-100880D01*
X153440Y-99210D01*
X152820Y-97960D01*
X151890Y-96920D01*
X150650Y-96500D01*
G01X163050Y-109000D02*
Y-96500D01*
X161190Y-99000D01*
G01Y-109000D02*
X164910D01*
G01X172040Y-106500D02*
X172970Y-107960D01*
X174210Y-108790D01*
X175610Y-109000D01*
X176850Y-108790D01*
X178090Y-107750D01*
X178860Y-106500D01*
X179010Y-105250D01*
X178710Y-103790D01*
X177620Y-102750D01*
X176530Y-102330D01*
X175140D01*
G01X176530D02*
X177460Y-101710D01*
X178240Y-100670D01*
X178550Y-99420D01*
X178240Y-98170D01*
X177460Y-97130D01*
X176070Y-96500D01*
X174680Y-96710D01*
X173280Y-97540D01*
G01X132050Y-284000D02*
X130810Y-284420D01*
X129880Y-285460D01*
X129260Y-286710D01*
X128790Y-288380D01*
X128640Y-290250D01*
X128790Y-292130D01*
X129260Y-293790D01*
X129880Y-295040D01*
X130810Y-296080D01*
X132050Y-296500D01*
X133290Y-296080D01*
X134220Y-295040D01*
X134840Y-293790D01*
X135310Y-292130D01*
X135460Y-290250D01*
X135310Y-288380D01*
X134840Y-286710D01*
X134220Y-285460D01*
X133290Y-284420D01*
X132050Y-284000D01*
G01X144450Y-296920D02*
X144140Y-296710D01*
Y-296290D01*
X144450Y-296080D01*
X144760Y-296290D01*
Y-296710D01*
X144450Y-296920D01*
G01X153900Y-286080D02*
X154840Y-284830D01*
X155920Y-284210D01*
X157160Y-284000D01*
X158710Y-284420D01*
X159800Y-285460D01*
X160110Y-286710D01*
X159950Y-287960D01*
X159330Y-289000D01*
X156230Y-291080D01*
X154840Y-292540D01*
X153900Y-294630D01*
X153590Y-296500D01*
X160110D01*
G01X165840Y-294630D02*
X166770Y-295670D01*
X167850Y-296290D01*
X169250Y-296500D01*
X170650Y-296080D01*
X171730Y-295250D01*
X172510Y-293790D01*
X172660Y-292130D01*
X172350Y-290460D01*
X171570Y-289420D01*
X170490Y-288580D01*
X169410Y-288380D01*
X168320Y-288580D01*
X166930Y-289420D01*
X167390Y-284000D01*
X171570D01*
G01X150340Y-27750D02*
Y-15250D01*
X153440D01*
X154680Y-15880D01*
X155610Y-16710D01*
X156390Y-17960D01*
X157010Y-19420D01*
X157160Y-21500D01*
X157010Y-23580D01*
X156390Y-25040D01*
X155610Y-26290D01*
X154680Y-27130D01*
X153440Y-27750D01*
X150340D01*
G01X163050D02*
Y-15250D01*
X166920D01*
X168160Y-15880D01*
X168940Y-16710D01*
X169250Y-18380D01*
X168940Y-20040D01*
X168010Y-21080D01*
X166920Y-21710D01*
X163050D01*
G01X166920D02*
X169250Y-27750D01*
G01X176690Y-15250D02*
X180410D01*
G01X178550D02*
Y-27750D01*
G01X176690D02*
X180410D01*
G01X187850Y-15250D02*
Y-27750D01*
X194050D01*
G01X200250Y-15250D02*
Y-27750D01*
X206450D01*
G01X231560Y-16290D02*
X230630Y-15670D01*
X229550Y-15250D01*
X228310D01*
X226910Y-15880D01*
X225830Y-16920D01*
X225050Y-18170D01*
X224430Y-20250D01*
X224270Y-22130D01*
X224590Y-24000D01*
X225050Y-25250D01*
X225980Y-26500D01*
X227070Y-27330D01*
X228150Y-27750D01*
X229230D01*
X230320Y-27330D01*
X231250Y-26710D01*
X232030Y-25880D01*
G01X237290Y-27750D02*
Y-15250D01*
G01X243810D02*
Y-27750D01*
G01Y-21500D02*
X237290D01*
G01X249070Y-27750D02*
X252950Y-15250D01*
X256830Y-27750D01*
G01X255430Y-23380D02*
X250470D01*
G01X262250Y-27750D02*
Y-15250D01*
X266120D01*
X267360Y-15880D01*
X268140Y-16710D01*
X268450Y-18380D01*
X268140Y-20040D01*
X267210Y-21080D01*
X266120Y-21710D01*
X262250D01*
G01X266120D02*
X268450Y-27750D01*
G01X277750Y-15250D02*
Y-27750D01*
G01X274190Y-15250D02*
X281310D01*
G01X290150Y-28170D02*
X289840Y-27960D01*
Y-27540D01*
X290150Y-27330D01*
X290460Y-27540D01*
Y-27960D01*
X290150Y-28170D01*
G01Y-22540D02*
X289840Y-22330D01*
Y-21920D01*
X290150Y-21710D01*
X290460Y-21920D01*
Y-22330D01*
X290150Y-22540D01*
G01X314950Y-15250D02*
Y-27750D01*
G01X311390Y-15250D02*
X318510D01*
G01X327350Y-27750D02*
X326110Y-27540D01*
X325030Y-26710D01*
X324090Y-25460D01*
X323470Y-24000D01*
X323160Y-22330D01*
Y-20670D01*
X323470Y-19000D01*
X324090Y-17540D01*
X325030Y-16290D01*
X326110Y-15460D01*
X327350Y-15250D01*
X328590Y-15460D01*
X329670Y-16290D01*
X330610Y-17540D01*
X331230Y-19000D01*
X331540Y-20670D01*
Y-22330D01*
X331230Y-24000D01*
X330610Y-25460D01*
X329670Y-26710D01*
X328590Y-27540D01*
X327350Y-27750D01*
G01X336650D02*
Y-15250D01*
X340370D01*
X341610Y-15880D01*
X342540Y-17330D01*
X342850Y-19000D01*
X342540Y-20670D01*
X341760Y-21920D01*
X340370Y-22540D01*
X336650D01*
G01X364550Y-15250D02*
Y-27750D01*
G01X362380Y-19420D02*
X366720D01*
G01X376950Y-27750D02*
X376020Y-27540D01*
X375090Y-26710D01*
X374470Y-25250D01*
X374160Y-23580D01*
X374470Y-21920D01*
X375090Y-20460D01*
X376020Y-19630D01*
X376950Y-19420D01*
X377880Y-19630D01*
X378810Y-20460D01*
X379430Y-21920D01*
X379590Y-23580D01*
X379430Y-25250D01*
X378810Y-26710D01*
X377880Y-27540D01*
X376950Y-27750D01*
G01X402990Y-21080D02*
X403610Y-20460D01*
X404070Y-19420D01*
X404390Y-17960D01*
X404070Y-16710D01*
X403460Y-15880D01*
X402370Y-15250D01*
X398190D01*
Y-27750D01*
X403300D01*
X404390Y-26920D01*
X405010Y-25670D01*
X405310Y-24210D01*
X405010Y-22750D01*
X404070Y-21500D01*
X402990Y-21080D01*
X398190D01*
G01X414150Y-27750D02*
X412910Y-27540D01*
X411830Y-26710D01*
X410890Y-25460D01*
X410270Y-24000D01*
X409960Y-22330D01*
Y-20670D01*
X410270Y-19000D01*
X410890Y-17540D01*
X411830Y-16290D01*
X412910Y-15460D01*
X414150Y-15250D01*
X415390Y-15460D01*
X416470Y-16290D01*
X417410Y-17540D01*
X418030Y-19000D01*
X418340Y-20670D01*
Y-22330D01*
X418030Y-24000D01*
X417410Y-25460D01*
X416470Y-26710D01*
X415390Y-27540D01*
X414150Y-27750D01*
G01X426550Y-15250D02*
Y-27750D01*
G01X422990Y-15250D02*
X430110D01*
G01X438950D02*
Y-27750D01*
G01X435390Y-15250D02*
X442510D01*
G01X451350Y-27750D02*
X450110Y-27540D01*
X449030Y-26710D01*
X448090Y-25460D01*
X447470Y-24000D01*
X447160Y-22330D01*
Y-20670D01*
X447470Y-19000D01*
X448090Y-17540D01*
X449030Y-16290D01*
X450110Y-15460D01*
X451350Y-15250D01*
X452590Y-15460D01*
X453670Y-16290D01*
X454610Y-17540D01*
X455230Y-19000D01*
X455540Y-20670D01*
Y-22330D01*
X455230Y-24000D01*
X454610Y-25460D01*
X453670Y-26710D01*
X452590Y-27540D01*
X451350Y-27750D01*
G01X459720D02*
Y-15250D01*
X463750Y-25670D01*
X467780Y-15250D01*
Y-27750D01*
G01X168470Y-52750D02*
X172350Y-40250D01*
X176230Y-52750D01*
G01X174830Y-48380D02*
X169870D01*
G01X181650Y-40250D02*
Y-52750D01*
X187850D01*
G01X194050Y-40250D02*
Y-52750D01*
X200250D01*
G01X218540Y-40250D02*
Y-49210D01*
X219160Y-51080D01*
X220400Y-52330D01*
X221950Y-52750D01*
X223500Y-52330D01*
X224740Y-51080D01*
X225360Y-49210D01*
Y-40250D01*
G01X230790Y-52750D02*
Y-40250D01*
X237910Y-52750D01*
Y-40250D01*
G01X244890D02*
X248610D01*
G01X246750D02*
Y-52750D01*
G01X244890D02*
X248610D01*
G01X259150Y-40250D02*
Y-52750D01*
G01X255590Y-40250D02*
X262710D01*
G01X268290Y-51080D02*
X269540Y-52130D01*
X270930Y-52750D01*
X272170D01*
X273410Y-52130D01*
X274340Y-51080D01*
X274810Y-49620D01*
X274500Y-48170D01*
X273720Y-46920D01*
X272320Y-46080D01*
X270470Y-45670D01*
X269380Y-44830D01*
X268910Y-43380D01*
X269230Y-41920D01*
X270000Y-40880D01*
X271080Y-40250D01*
X272170D01*
X273260Y-40670D01*
X274190Y-41710D01*
G01X292470Y-52750D02*
X296350Y-40250D01*
X300230Y-52750D01*
G01X298830Y-48380D02*
X293870D01*
G01X305650Y-52750D02*
Y-40250D01*
X309520D01*
X310760Y-40880D01*
X311540Y-41710D01*
X311850Y-43380D01*
X311540Y-45040D01*
X310610Y-46080D01*
X309520Y-46710D01*
X305650D01*
G01X309520D02*
X311850Y-52750D01*
G01X324250D02*
X318050D01*
Y-40250D01*
X324250D01*
G01X321770Y-46290D02*
X318050D01*
G01X344090Y-40250D02*
X347810D01*
G01X345950D02*
Y-52750D01*
G01X344090D02*
X347810D01*
G01X354790D02*
Y-40250D01*
X361910Y-52750D01*
Y-40250D01*
G01X381290D02*
X385010D01*
G01X383150D02*
Y-52750D01*
G01X381290D02*
X385010D01*
G01X391990D02*
Y-40250D01*
X399110Y-52750D01*
Y-40250D01*
G01X411360Y-41290D02*
X410430Y-40670D01*
X409350Y-40250D01*
X408110D01*
X406710Y-40880D01*
X405630Y-41920D01*
X404850Y-43170D01*
X404230Y-45250D01*
X404070Y-47130D01*
X404390Y-49000D01*
X404850Y-50250D01*
X405780Y-51500D01*
X406870Y-52330D01*
X407950Y-52750D01*
X409030D01*
X410120Y-52330D01*
X411050Y-51710D01*
X411830Y-50880D01*
G01X417090Y-52750D02*
Y-40250D01*
G01X423610D02*
Y-52750D01*
G01Y-46500D02*
X417090D01*
G01X435850Y-52750D02*
X429650D01*
Y-40250D01*
X435850D01*
G01X433370Y-46290D02*
X429650D01*
G01X441890Y-51080D02*
X443140Y-52130D01*
X444530Y-52750D01*
X445770D01*
X447010Y-52130D01*
X447940Y-51080D01*
X448410Y-49620D01*
X448100Y-48170D01*
X447320Y-46920D01*
X445920Y-46080D01*
X444070Y-45670D01*
X442980Y-44830D01*
X442510Y-43380D01*
X442830Y-41920D01*
X443600Y-40880D01*
X444680Y-40250D01*
X445770D01*
X446860Y-40670D01*
X447790Y-41710D01*
G01X251400Y-59000D02*
Y-309000D01*
G01X280540Y-77750D02*
Y-65250D01*
X283640D01*
X284880Y-65880D01*
X285810Y-66710D01*
X286590Y-67960D01*
X287210Y-69420D01*
X287360Y-71500D01*
X287210Y-73580D01*
X286590Y-75040D01*
X285810Y-76290D01*
X284880Y-77130D01*
X283640Y-77750D01*
X280540D01*
G01X293250D02*
Y-65250D01*
X297120D01*
X298360Y-65880D01*
X299140Y-66710D01*
X299450Y-68380D01*
X299140Y-70040D01*
X298210Y-71080D01*
X297120Y-71710D01*
X293250D01*
G01X297120D02*
X299450Y-77750D01*
G01X306890Y-65250D02*
X310610D01*
G01X308750D02*
Y-77750D01*
G01X306890D02*
X310610D01*
G01X318050Y-65250D02*
Y-77750D01*
X324250D01*
G01X330450Y-65250D02*
Y-77750D01*
X336650D01*
G01X349050D02*
X342850D01*
Y-65250D01*
X349050D01*
G01X346570Y-71290D02*
X342850D01*
G01X354940Y-77750D02*
Y-65250D01*
X358040D01*
X359280Y-65880D01*
X360210Y-66710D01*
X360990Y-67960D01*
X361610Y-69420D01*
X361760Y-71500D01*
X361610Y-73580D01*
X360990Y-75040D01*
X360210Y-76290D01*
X359280Y-77130D01*
X358040Y-77750D01*
X354940D01*
G01X366100Y-81920D02*
X375400D01*
G01X379890Y-76080D02*
X381140Y-77130D01*
X382530Y-77750D01*
X383770D01*
X385010Y-77130D01*
X385940Y-76080D01*
X386410Y-74620D01*
X386100Y-73170D01*
X385320Y-71920D01*
X383920Y-71080D01*
X382070Y-70670D01*
X380980Y-69830D01*
X380510Y-68380D01*
X380830Y-66920D01*
X381600Y-65880D01*
X382680Y-65250D01*
X383770D01*
X384860Y-65670D01*
X385790Y-66710D01*
G01X393690Y-65250D02*
X397410D01*
G01X395550D02*
Y-77750D01*
G01X393690D02*
X397410D01*
G01X405000Y-65250D02*
X410900D01*
X405000Y-77750D01*
X410900D01*
G01X423450D02*
X417250D01*
Y-65250D01*
X423450D01*
G01X420970Y-71290D02*
X417250D01*
G01X350140Y-292330D02*
X354160D01*
G01X350140Y-254830D02*
X354160D01*
G01X350140Y-217330D02*
X354160D01*
G01X350140Y-179830D02*
X354160D01*
G01X350140Y-142330D02*
X354160D01*
G01X350140Y-104830D02*
X354160D01*
G01X426450Y-321500D02*
Y-334000D01*
G01X422890Y-321500D02*
X430010D01*
G01X438850Y-334000D02*
X437610Y-333790D01*
X436530Y-332960D01*
X435590Y-331710D01*
X434970Y-330250D01*
X434660Y-328580D01*
Y-326920D01*
X434970Y-325250D01*
X435590Y-323790D01*
X436530Y-322540D01*
X437610Y-321710D01*
X438850Y-321500D01*
X440090Y-321710D01*
X441170Y-322540D01*
X442110Y-323790D01*
X442730Y-325250D01*
X443040Y-326920D01*
Y-328580D01*
X442730Y-330250D01*
X442110Y-331710D01*
X441170Y-332960D01*
X440090Y-333790D01*
X438850Y-334000D01*
G01X451250Y-321500D02*
Y-334000D01*
G01X447690Y-321500D02*
X454810D01*
G01X459770Y-334000D02*
X463650Y-321500D01*
X467530Y-334000D01*
G01X466130Y-329630D02*
X461170D01*
G01X472950Y-321500D02*
Y-334000D01*
X479150D01*
G01X497590D02*
Y-321500D01*
G01X504110D02*
Y-334000D01*
G01Y-327750D02*
X497590D01*
G01X513250Y-334000D02*
X512010Y-333790D01*
X510930Y-332960D01*
X509990Y-331710D01*
X509370Y-330250D01*
X509060Y-328580D01*
Y-326920D01*
X509370Y-325250D01*
X509990Y-323790D01*
X510930Y-322540D01*
X512010Y-321710D01*
X513250Y-321500D01*
X514490Y-321710D01*
X515570Y-322540D01*
X516510Y-323790D01*
X517130Y-325250D01*
X517440Y-326920D01*
Y-328580D01*
X517130Y-330250D01*
X516510Y-331710D01*
X515570Y-332960D01*
X514490Y-333790D01*
X513250Y-334000D01*
G01X522550Y-321500D02*
Y-334000D01*
X528750D01*
G01X541150D02*
X534950D01*
Y-321500D01*
X541150D01*
G01X538670Y-327540D02*
X534950D01*
G01X547190Y-332330D02*
X548440Y-333380D01*
X549830Y-334000D01*
X551070D01*
X552310Y-333380D01*
X553240Y-332330D01*
X553710Y-330870D01*
X553400Y-329420D01*
X552620Y-328170D01*
X551220Y-327330D01*
X549370Y-326920D01*
X548280Y-326080D01*
X547810Y-324630D01*
X548130Y-323170D01*
X548900Y-322130D01*
X549980Y-321500D01*
X551070D01*
X552160Y-321920D01*
X553090Y-322960D01*
G01X562850Y-334420D02*
X562540Y-334210D01*
Y-333790D01*
X562850Y-333580D01*
X563160Y-333790D01*
Y-334210D01*
X562850Y-334420D01*
G01Y-328790D02*
X562540Y-328580D01*
Y-328170D01*
X562850Y-327960D01*
X563160Y-328170D01*
Y-328580D01*
X562850Y-328790D01*
G01X452900Y-59000D02*
Y-309000D01*
G01X457090Y-296500D02*
Y-284000D01*
X464210Y-296500D01*
Y-284000D01*
G01X473050Y-296500D02*
X471810Y-296290D01*
X470730Y-295460D01*
X469790Y-294210D01*
X469170Y-292750D01*
X468860Y-291080D01*
Y-289420D01*
X469170Y-287750D01*
X469790Y-286290D01*
X470730Y-285040D01*
X471810Y-284210D01*
X473050Y-284000D01*
X474290Y-284210D01*
X475370Y-285040D01*
X476310Y-286290D01*
X476930Y-287750D01*
X477240Y-289420D01*
Y-291080D01*
X476930Y-292750D01*
X476310Y-294210D01*
X475370Y-295460D01*
X474290Y-296290D01*
X473050Y-296500D01*
G01X481890D02*
Y-284000D01*
X489010Y-296500D01*
Y-284000D01*
G01X495840Y-292330D02*
X499860D01*
G01X507150Y-296500D02*
Y-284000D01*
X510870D01*
X512110Y-284630D01*
X513040Y-286080D01*
X513350Y-287750D01*
X513040Y-289420D01*
X512260Y-290670D01*
X510870Y-291290D01*
X507150D01*
G01X519550Y-284000D02*
Y-296500D01*
X525750D01*
G01X531170D02*
X535050Y-284000D01*
X538930Y-296500D01*
G01X537530Y-292130D02*
X532570D01*
G01X547450Y-284000D02*
Y-296500D01*
G01X543890Y-284000D02*
X551010D01*
G01X562950Y-296500D02*
X556750D01*
Y-284000D01*
X562950D01*
G01X560470Y-290040D02*
X556750D01*
G01X568840Y-296500D02*
Y-284000D01*
X571940D01*
X573180Y-284630D01*
X574110Y-285460D01*
X574890Y-286710D01*
X575510Y-288170D01*
X575660Y-290250D01*
X575510Y-292330D01*
X574890Y-293790D01*
X574110Y-295040D01*
X573180Y-295880D01*
X571940Y-296500D01*
X568840D01*
G01X482350Y-259000D02*
Y-246500D01*
X486070D01*
X487310Y-247130D01*
X488240Y-248580D01*
X488550Y-250250D01*
X488240Y-251920D01*
X487460Y-253170D01*
X486070Y-253790D01*
X482350D01*
G01X494750Y-246500D02*
Y-259000D01*
X500950D01*
G01X506370D02*
X510250Y-246500D01*
X514130Y-259000D01*
G01X512730Y-254630D02*
X507770D01*
G01X522650Y-246500D02*
Y-259000D01*
G01X519090Y-246500D02*
X526210D01*
G01X538150Y-259000D02*
X531950D01*
Y-246500D01*
X538150D01*
G01X535670Y-252540D02*
X531950D01*
G01X544040Y-259000D02*
Y-246500D01*
X547140D01*
X548380Y-247130D01*
X549310Y-247960D01*
X550090Y-249210D01*
X550710Y-250670D01*
X550860Y-252750D01*
X550710Y-254830D01*
X550090Y-256290D01*
X549310Y-257540D01*
X548380Y-258380D01*
X547140Y-259000D01*
X544040D01*
G01X482350Y-221500D02*
Y-209000D01*
X486070D01*
X487310Y-209630D01*
X488240Y-211080D01*
X488550Y-212750D01*
X488240Y-214420D01*
X487460Y-215670D01*
X486070Y-216290D01*
X482350D01*
G01X494750Y-209000D02*
Y-221500D01*
X500950D01*
G01X506370D02*
X510250Y-209000D01*
X514130Y-221500D01*
G01X512730Y-217130D02*
X507770D01*
G01X522650Y-209000D02*
Y-221500D01*
G01X519090Y-209000D02*
X526210D01*
G01X538150Y-221500D02*
X531950D01*
Y-209000D01*
X538150D01*
G01X535670Y-215040D02*
X531950D01*
G01X544040Y-221500D02*
Y-209000D01*
X547140D01*
X548380Y-209630D01*
X549310Y-210460D01*
X550090Y-211710D01*
X550710Y-213170D01*
X550860Y-215250D01*
X550710Y-217330D01*
X550090Y-218790D01*
X549310Y-220040D01*
X548380Y-220880D01*
X547140Y-221500D01*
X544040D01*
G01X482350Y-184000D02*
Y-171500D01*
X486070D01*
X487310Y-172130D01*
X488240Y-173580D01*
X488550Y-175250D01*
X488240Y-176920D01*
X487460Y-178170D01*
X486070Y-178790D01*
X482350D01*
G01X494750Y-171500D02*
Y-184000D01*
X500950D01*
G01X506370D02*
X510250Y-171500D01*
X514130Y-184000D01*
G01X512730Y-179630D02*
X507770D01*
G01X522650Y-171500D02*
Y-184000D01*
G01X519090Y-171500D02*
X526210D01*
G01X538150Y-184000D02*
X531950D01*
Y-171500D01*
X538150D01*
G01X535670Y-177540D02*
X531950D01*
G01X544040Y-184000D02*
Y-171500D01*
X547140D01*
X548380Y-172130D01*
X549310Y-172960D01*
X550090Y-174210D01*
X550710Y-175670D01*
X550860Y-177750D01*
X550710Y-179830D01*
X550090Y-181290D01*
X549310Y-182540D01*
X548380Y-183380D01*
X547140Y-184000D01*
X544040D01*
G01X482350Y-146500D02*
Y-134000D01*
X486070D01*
X487310Y-134630D01*
X488240Y-136080D01*
X488550Y-137750D01*
X488240Y-139420D01*
X487460Y-140670D01*
X486070Y-141290D01*
X482350D01*
G01X494750Y-134000D02*
Y-146500D01*
X500950D01*
G01X506370D02*
X510250Y-134000D01*
X514130Y-146500D01*
G01X512730Y-142130D02*
X507770D01*
G01X522650Y-134000D02*
Y-146500D01*
G01X519090Y-134000D02*
X526210D01*
G01X538150Y-146500D02*
X531950D01*
Y-134000D01*
X538150D01*
G01X535670Y-140040D02*
X531950D01*
G01X544040Y-146500D02*
Y-134000D01*
X547140D01*
X548380Y-134630D01*
X549310Y-135460D01*
X550090Y-136710D01*
X550710Y-138170D01*
X550860Y-140250D01*
X550710Y-142330D01*
X550090Y-143790D01*
X549310Y-145040D01*
X548380Y-145880D01*
X547140Y-146500D01*
X544040D01*
G01X482350Y-109000D02*
Y-96500D01*
X486070D01*
X487310Y-97130D01*
X488240Y-98580D01*
X488550Y-100250D01*
X488240Y-101920D01*
X487460Y-103170D01*
X486070Y-103790D01*
X482350D01*
G01X494750Y-96500D02*
Y-109000D01*
X500950D01*
G01X506370D02*
X510250Y-96500D01*
X514130Y-109000D01*
G01X512730Y-104630D02*
X507770D01*
G01X522650Y-96500D02*
Y-109000D01*
G01X519090Y-96500D02*
X526210D01*
G01X538150Y-109000D02*
X531950D01*
Y-96500D01*
X538150D01*
G01X535670Y-102540D02*
X531950D01*
G01X544040Y-109000D02*
Y-96500D01*
X547140D01*
X548380Y-97130D01*
X549310Y-97960D01*
X550090Y-99210D01*
X550710Y-100670D01*
X550860Y-102750D01*
X550710Y-104830D01*
X550090Y-106290D01*
X549310Y-107540D01*
X548380Y-108380D01*
X547140Y-109000D01*
X544040D01*
G01X482350Y-77750D02*
Y-65250D01*
X486070D01*
X487310Y-65880D01*
X488240Y-67330D01*
X488550Y-69000D01*
X488240Y-70670D01*
X487460Y-71920D01*
X486070Y-72540D01*
X482350D01*
G01X494750Y-65250D02*
Y-77750D01*
X500950D01*
G01X506370D02*
X510250Y-65250D01*
X514130Y-77750D01*
G01X512730Y-73380D02*
X507770D01*
G01X522650Y-65250D02*
Y-77750D01*
G01X519090Y-65250D02*
X526210D01*
G01X538150Y-77750D02*
X531950D01*
Y-65250D01*
X538150D01*
G01X535670Y-71290D02*
X531950D01*
G01X544040Y-77750D02*
Y-65250D01*
X547140D01*
X548380Y-65880D01*
X549310Y-66710D01*
X550090Y-67960D01*
X550710Y-69420D01*
X550860Y-71500D01*
X550710Y-73580D01*
X550090Y-75040D01*
X549310Y-76290D01*
X548380Y-77130D01*
X547140Y-77750D01*
X544040D01*
G01X580000Y-59000D02*
Y-309000D01*
G01X597200Y-323580D02*
X598140Y-322330D01*
X599220Y-321710D01*
X600460Y-321500D01*
X602010Y-321920D01*
X603100Y-322960D01*
X603410Y-324210D01*
X603250Y-325460D01*
X602630Y-326500D01*
X599530Y-328580D01*
X598140Y-330040D01*
X597200Y-332130D01*
X596890Y-334000D01*
X603410D01*
G01X609600Y-328790D02*
X610690Y-327330D01*
X611620Y-326500D01*
X612860Y-326080D01*
X613950Y-326500D01*
X614720Y-327330D01*
X615340Y-328580D01*
X615500Y-330040D01*
X615340Y-331290D01*
X614720Y-332540D01*
X613790Y-333580D01*
X612710Y-334000D01*
X611470Y-333580D01*
X610380Y-332330D01*
X609760Y-330460D01*
X609600Y-328380D01*
X609910Y-325670D01*
X610380Y-324210D01*
X611150Y-322750D01*
X612240Y-321710D01*
X613320Y-321500D01*
X614410Y-321920D01*
X615190Y-322960D01*
G01X621540Y-332130D02*
X622470Y-333170D01*
X623550Y-333790D01*
X624950Y-334000D01*
X626350Y-333580D01*
X627430Y-332750D01*
X628210Y-331290D01*
X628360Y-329630D01*
X628050Y-327960D01*
X627270Y-326920D01*
X626190Y-326080D01*
X625110Y-325880D01*
X624020Y-326080D01*
X622630Y-326920D01*
X623090Y-321500D01*
X627270D01*
G01X633940Y-332130D02*
X634870Y-333170D01*
X635950Y-333790D01*
X637350Y-334000D01*
X638750Y-333580D01*
X639830Y-332750D01*
X640610Y-331290D01*
X640760Y-329630D01*
X640450Y-327960D01*
X639670Y-326920D01*
X638590Y-326080D01*
X637510Y-325880D01*
X636420Y-326080D01*
X635030Y-326920D01*
X635490Y-321500D01*
X639670D01*
G01X609600Y-253790D02*
X610690Y-252330D01*
X611620Y-251500D01*
X612860Y-251080D01*
X613950Y-251500D01*
X614720Y-252330D01*
X615340Y-253580D01*
X615500Y-255040D01*
X615340Y-256290D01*
X614720Y-257540D01*
X613790Y-258580D01*
X612710Y-259000D01*
X611470Y-258580D01*
X610380Y-257330D01*
X609760Y-255460D01*
X609600Y-253380D01*
X609910Y-250670D01*
X610380Y-249210D01*
X611150Y-247750D01*
X612240Y-246710D01*
X613320Y-246500D01*
X614410Y-246920D01*
X615190Y-247960D01*
G01X626810Y-259000D02*
Y-246500D01*
X621070Y-255460D01*
X628830D01*
G01X612550Y-221500D02*
Y-209000D01*
X610690Y-211500D01*
G01Y-221500D02*
X614410D01*
G01X622000Y-216290D02*
X623090Y-214830D01*
X624020Y-214000D01*
X625260Y-213580D01*
X626350Y-214000D01*
X627120Y-214830D01*
X627740Y-216080D01*
X627900Y-217540D01*
X627740Y-218790D01*
X627120Y-220040D01*
X626190Y-221080D01*
X625110Y-221500D01*
X623870Y-221080D01*
X622780Y-219830D01*
X622160Y-217960D01*
X622000Y-215880D01*
X622310Y-213170D01*
X622780Y-211710D01*
X623550Y-210250D01*
X624640Y-209210D01*
X625720Y-209000D01*
X626810Y-209420D01*
X627590Y-210460D01*
G01X609600Y-136080D02*
X610540Y-134830D01*
X611620Y-134210D01*
X612860Y-134000D01*
X614410Y-134420D01*
X615500Y-135460D01*
X615810Y-136710D01*
X615650Y-137960D01*
X615030Y-139000D01*
X611930Y-141080D01*
X610540Y-142540D01*
X609600Y-144630D01*
X609290Y-146500D01*
X615810D01*
G01X622000Y-136080D02*
X622940Y-134830D01*
X624020Y-134210D01*
X625260Y-134000D01*
X626810Y-134420D01*
X627900Y-135460D01*
X628210Y-136710D01*
X628050Y-137960D01*
X627430Y-139000D01*
X624330Y-141080D01*
X622940Y-142540D01*
X622000Y-144630D01*
X621690Y-146500D01*
X628210D01*
G01X597200Y-98580D02*
X598140Y-97330D01*
X599220Y-96710D01*
X600460Y-96500D01*
X602010Y-96920D01*
X603100Y-97960D01*
X603410Y-99210D01*
X603250Y-100460D01*
X602630Y-101500D01*
X599530Y-103580D01*
X598140Y-105040D01*
X597200Y-107130D01*
X596890Y-109000D01*
X603410D01*
G01X609140Y-107130D02*
X610070Y-108170D01*
X611150Y-108790D01*
X612550Y-109000D01*
X613950Y-108580D01*
X615030Y-107750D01*
X615810Y-106290D01*
X615960Y-104630D01*
X615650Y-102960D01*
X614870Y-101920D01*
X613790Y-101080D01*
X612710Y-100880D01*
X611620Y-101080D01*
X610230Y-101920D01*
X610690Y-96500D01*
X614870D01*
G01X626810Y-109000D02*
Y-96500D01*
X621070Y-105460D01*
X628830D01*
G01X637040Y-109000D02*
X637350Y-106290D01*
X637820Y-104000D01*
X638430Y-101920D01*
X639210Y-99630D01*
X640450Y-96500D01*
X634250D01*
G01X606350Y-77750D02*
X605110Y-77540D01*
X604030Y-76710D01*
X603090Y-75460D01*
X602470Y-74000D01*
X602160Y-72330D01*
Y-70670D01*
X602470Y-69000D01*
X603090Y-67540D01*
X604030Y-66290D01*
X605110Y-65460D01*
X606350Y-65250D01*
X607590Y-65460D01*
X608670Y-66290D01*
X609610Y-67540D01*
X610230Y-69000D01*
X610540Y-70670D01*
Y-72330D01*
X610230Y-74000D01*
X609610Y-75460D01*
X608670Y-76710D01*
X607590Y-77540D01*
X606350Y-77750D01*
G01X607590Y-74420D02*
X609450Y-77750D01*
G01X618750Y-65250D02*
Y-77750D01*
G01X615190Y-65250D02*
X622310D01*
G01X631150Y-77750D02*
Y-72130D01*
X628050Y-65250D01*
G01X634250D02*
X631150Y-72130D01*
G01X620610Y-296500D02*
Y-284000D01*
X614870Y-292960D01*
X622630D01*
G01X615800Y-173580D02*
X616740Y-172330D01*
X617820Y-171710D01*
X619060Y-171500D01*
X620610Y-171920D01*
X621700Y-172960D01*
X622010Y-174210D01*
X621850Y-175460D01*
X621230Y-176500D01*
X618130Y-178580D01*
X616740Y-180040D01*
X615800Y-182130D01*
X615490Y-184000D01*
X622010D01*
M02*
