G04 ================== begin FILE IDENTIFICATION RECORD ==================*
G04 Layout Name:  PMOD2BNCSIMPLE_v1_06_65mil_cheap.brd*
G04 Film Name:    Drill*
G04 File Format:  Gerber RS274X*
G04 File Origin:  Cadence Allegro 23.1-P001*
G04 Origin Date:  Thu Nov 30 21:30:10 2023*
G04 *
G04 Layer:  MANUFACTURING/NCLEGEND-1-4*
G04 Layer:  BOARD GEOMETRY/OUTLINE*
G04 Layer:  BOARD GEOMETRY/DESIGN_OUTLINE*
G04 Layer:  BOARD GEOMETRY/CUTOUT*
G04 *
G04 Offset:    (0.0000 0.0000)*
G04 Mirror:    No*
G04 Mode:      Positive*
G04 Rotation:  0*
G04 FullContactRelief:  No*
G04 UndefLineWidth:     0.0050*
G04 ================== end FILE IDENTIFICATION RECORD ====================*
%FSLAX55Y55*MOIN*%
%IR0*IPPOS*OFA0.00000B0.00000*MIA0B0*SFA1.00000B1.00000*%
%AMMACRO16*
1,1,.005,.005,0.0*
20,1,.005,.005,0.0,-.005,0.0,0.0*
1,1,.005,-.005,0.0*
1,1,.005,0.0,.005*
20,1,.005,0.0,.005,0.0,-.005,0.0*
1,1,.005,0.0,-.005*
%
%ADD16MACRO16*%
%AMMACRO12*
1,1,.005,.0065,.0065*
20,1,.005,.0065,.0065,.0065,-.0065,0.0*
1,1,.005,.0065,-.0065*
20,1,.005,.0065,-.0065,-.0065,-.0065,0.0*
1,1,.005,-.0065,-.0065*
20,1,.005,-.0065,-.0065,-.0065,.0065,0.0*
1,1,.005,-.0065,.0065*
20,1,.005,-.0065,.0065,.0065,.0065,0.0*
1,1,.005,.0065,.0065*
%
%ADD12MACRO12*%
%AMMACRO11*
1,1,.005,.0315,0.0*
20,1,.005,.0315,0.0,0.0,-.0315,0.0*
1,1,.005,0.0,-.0315*
20,1,.005,0.0,-.0315,-.0315,0.0,0.0*
1,1,.005,-.0315,0.0*
20,1,.005,-.0315,0.0,0.0,.0315,0.0*
1,1,.005,0.0,.0315*
20,1,.005,0.0,.0315,.0315,0.0,0.0*
1,1,.005,.0315,0.0*
%
%ADD11MACRO11*%
%AMMACRO13*
1,1,.005,.01224,-.02955*
20,1,.005,.01224,-.02955,-.01224,-.02955,0.0*
1,1,.005,-.01224,-.02955*
20,1,.005,-.01224,-.02955,-.02955,-.01224,0.0*
1,1,.005,-.02955,-.01224*
20,1,.005,-.02955,-.01224,-.02955,.01224,0.0*
1,1,.005,-.02955,.01224*
20,1,.005,-.02955,.01224,-.01224,.02955,0.0*
1,1,.005,-.01224,.02955*
20,1,.005,-.01224,.02955,.01224,.02955,0.0*
1,1,.005,.01224,.02955*
20,1,.005,.01224,.02955,.02955,.01224,0.0*
1,1,.005,.02955,.01224*
20,1,.005,.02955,.01224,.02955,-.01224,0.0*
1,1,.005,.02955,-.01224*
20,1,.005,.02955,-.01224,.01224,-.02955,0.0*
1,1,.005,.01224,-.02955*
%
%ADD13MACRO13*%
%AMMACRO10*
1,1,.005,0.0,.125*
20,1,.005,0.0,.125,.108253,-.0625,0.0*
1,1,.005,.108253,-.0625*
20,1,.005,.108253,-.0625,-.108253,-.0625,0.0*
1,1,.005,-.108253,-.0625*
20,1,.005,-.108253,-.0625,0.0,.125,0.0*
1,1,.005,0.0,.125*
%
%ADD10MACRO10*%
%AMMACRO15*
1,1,.005,.02165,0.0*
20,1,.005,.02165,0.0,.010825,.018749,0.0*
1,1,.005,.010825,.018749*
20,1,.005,.010825,.018749,-.010825,.018749,0.0*
1,1,.005,-.010825,.018749*
20,1,.005,-.010825,.018749,-.02165,0.0,0.0*
1,1,.005,-.02165,0.0*
20,1,.005,-.02165,0.0,-.010825,-.018749,0.0*
1,1,.005,-.010825,-.018749*
20,1,.005,-.010825,-.018749,.010825,-.018749,0.0*
1,1,.005,.010825,-.018749*
20,1,.005,.010825,-.018749,.02165,0.0,0.0*
1,1,.005,.02165,0.0*
%
%ADD15MACRO15*%
%AMMACRO14*
1,1,.005,0.0,.02165*
20,1,.005,0.0,.02165,-.018749,.010825,0.0*
1,1,.005,-.018749,.010825*
20,1,.005,-.018749,.010825,-.018749,-.010825,0.0*
1,1,.005,-.018749,-.010825*
20,1,.005,-.018749,-.010825,0.0,-.02165,0.0*
1,1,.005,0.0,-.02165*
20,1,.005,0.0,-.02165,.018749,-.010825,0.0*
1,1,.005,.018749,-.010825*
20,1,.005,.018749,-.010825,.018749,.010825,0.0*
1,1,.005,.018749,.010825*
20,1,.005,.018749,.010825,0.0,.02165,0.0*
1,1,.005,0.0,.02165*
%
%ADD14MACRO14*%
%ADD17C,.005*%
G75*
%LPD*%
G75*
G54D10*
X-50Y-331250D03*
X-10000Y30000D03*
Y430000D03*
X280000Y30000D03*
Y430000D03*
G54D11*
X-20000Y70000D03*
Y90000D03*
Y170000D03*
Y190000D03*
Y270000D03*
Y290000D03*
Y370000D03*
Y390000D03*
X-50Y-293750D03*
X0Y70000D03*
Y90000D03*
Y170000D03*
Y190000D03*
Y270000D03*
Y290000D03*
Y370000D03*
Y390000D03*
X80000Y70000D03*
Y90000D03*
Y170000D03*
Y190000D03*
Y270000D03*
Y290000D03*
Y370000D03*
Y390000D03*
X100000Y70000D03*
Y90000D03*
Y170000D03*
Y190000D03*
Y270000D03*
Y290000D03*
Y370000D03*
Y390000D03*
X170000Y70000D03*
Y90000D03*
Y170000D03*
Y190000D03*
Y270000D03*
Y290000D03*
Y370000D03*
Y390000D03*
X190000Y70000D03*
Y90000D03*
Y170000D03*
Y190000D03*
Y270000D03*
Y290000D03*
Y370000D03*
Y390000D03*
X270000Y70000D03*
Y90000D03*
Y170000D03*
Y190000D03*
Y270000D03*
Y290000D03*
Y370000D03*
Y390000D03*
X290000Y70000D03*
Y90000D03*
Y170000D03*
Y190000D03*
Y270000D03*
Y290000D03*
Y370000D03*
Y390000D03*
G54D12*
X-12500Y72500D03*
X-13320Y92670D03*
X-17500Y82500D03*
Y77500D03*
X-16360Y106440D03*
X-23320Y108680D03*
X-21130Y98920D03*
X-13320Y102670D03*
X-16280Y126520D03*
X-23320Y127840D03*
X-20460Y118260D03*
X-18630Y136680D03*
X-16660Y146140D03*
X-17090Y153320D03*
X-23320Y145510D03*
X-17500Y177500D03*
X-12500Y172500D03*
X-13320Y190000D03*
X-17500Y182500D03*
X-13320Y200000D03*
Y210000D03*
Y220000D03*
Y230000D03*
Y240000D03*
Y250000D03*
X-17500Y282500D03*
Y277500D03*
X-12500Y272500D03*
X-13320Y290000D03*
Y300000D03*
Y310000D03*
Y320000D03*
X-12270Y329940D03*
X-12500Y372500D03*
X-17500Y377500D03*
Y382500D03*
X-12500Y387500D03*
X-50Y-143750D03*
X-9000Y61000D03*
X-7500Y72500D03*
X-7010Y90800D03*
X-6680Y90640D03*
X-2500Y77500D03*
Y82500D03*
X-7240Y110550D03*
X-8310Y100510D03*
X-9000Y121000D03*
X4120Y114180D03*
X-820Y122860D03*
X5230Y130820D03*
X-820Y138790D03*
X-8360Y140560D03*
X-7170Y130630D03*
X6040Y141160D03*
X1340Y148550D03*
X1660Y154180D03*
X-7540Y150260D03*
X300Y160820D03*
X-9670Y160030D03*
X-7500Y172500D03*
X-2500Y177500D03*
X-6680Y190000D03*
X-2500Y182500D03*
X-6680Y200000D03*
Y210000D03*
Y220000D03*
Y230000D03*
Y240000D03*
X-10200Y259500D03*
X-290Y260820D03*
X-6680Y250000D03*
X2410Y254180D03*
X-2500Y282500D03*
X-7500Y272500D03*
X-2500Y277500D03*
X-6680Y290000D03*
Y300000D03*
Y310000D03*
Y320000D03*
X-3370Y329440D03*
X6380Y331680D03*
X-5200Y337020D03*
X4720Y338320D03*
X-9000Y361000D03*
X-5190Y357260D03*
X0Y383320D03*
Y376680D03*
X-7500Y372500D03*
Y387500D03*
X-9000Y451000D03*
X18000Y21000D03*
X14710Y8090D03*
X11680Y17620D03*
Y27620D03*
Y37620D03*
X18320Y32410D03*
X11680Y47620D03*
Y57620D03*
X18320Y42410D03*
Y52410D03*
X21000Y61000D03*
X11680Y67620D03*
X18320Y62410D03*
Y72410D03*
X18310D03*
X23670Y66630D03*
X19000Y90990D03*
X11680Y77620D03*
Y87620D03*
X18320Y82410D03*
X21680Y86430D03*
Y76430D03*
X11680Y97620D03*
Y107620D03*
X18320Y102410D03*
X21680Y106430D03*
Y96430D03*
X19000Y121000D03*
X18320Y112410D03*
X12920Y120820D03*
X21680Y126430D03*
Y116430D03*
X18320Y129240D03*
X15790Y138910D03*
X21680Y136430D03*
X11080Y150820D03*
X15100Y145400D03*
X18320Y154860D03*
X10300Y160820D03*
X21680Y156430D03*
Y146430D03*
Y176430D03*
Y166430D03*
Y196430D03*
Y186430D03*
X19000Y210990D03*
X21680Y206430D03*
Y226430D03*
Y216430D03*
X19000Y240990D03*
X21680Y246430D03*
Y236430D03*
X9180Y264050D03*
X12360Y255160D03*
X15820Y264540D03*
X21680Y266430D03*
Y256430D03*
X9180Y274050D03*
X15820Y274540D03*
X21680Y276430D03*
X21000Y301000D03*
X9180Y284050D03*
X13840Y292890D03*
X23840Y292710D03*
X15820Y284540D03*
X16380Y331680D03*
X14720Y338320D03*
X21000Y361000D03*
X10000Y383320D03*
X19940Y382260D03*
X10000Y376680D03*
X19440Y373360D03*
X21000Y391000D03*
Y421000D03*
Y451000D03*
X30030Y6190D03*
X30820Y14510D03*
X24610Y6680D03*
X24180Y14300D03*
X31670Y34470D03*
X30820Y24510D03*
X24180Y34300D03*
Y24300D03*
X40080Y43320D03*
X30130Y42330D03*
X41170Y58540D03*
X37810Y52490D03*
X28320Y73770D03*
X34100Y65610D03*
X30740Y59560D03*
X38320Y74860D03*
X31680Y72940D03*
X37780Y65020D03*
X28320Y83770D03*
X38320Y84860D03*
X31680Y92940D03*
Y82940D03*
X28320Y103770D03*
Y93770D03*
X38320Y104860D03*
Y94860D03*
X31680Y102940D03*
X28320Y123770D03*
Y113770D03*
X38320Y124860D03*
Y114860D03*
X31680Y122940D03*
Y112940D03*
X28320Y143770D03*
Y133770D03*
X38320Y144860D03*
Y134860D03*
X31680Y142940D03*
Y132940D03*
X28320Y153770D03*
X38320Y154860D03*
X31680Y152940D03*
X28320Y173770D03*
Y163770D03*
X38320Y174860D03*
Y164860D03*
X31680Y172940D03*
Y162940D03*
X28320Y193770D03*
Y183770D03*
X38320Y194860D03*
Y184860D03*
X31680Y192940D03*
Y182940D03*
X28320Y213770D03*
Y203770D03*
X38320Y204860D03*
X31680Y212940D03*
Y202940D03*
X28320Y223770D03*
X38320Y224860D03*
Y214860D03*
X31680Y222940D03*
X28320Y243770D03*
Y233770D03*
X38320Y244860D03*
Y234860D03*
X31680Y242940D03*
Y232940D03*
X28320Y263770D03*
Y253770D03*
X38320Y264860D03*
Y254860D03*
X31680Y262940D03*
Y252940D03*
X28320Y283770D03*
Y273770D03*
X38320Y274860D03*
X31680Y282940D03*
Y272940D03*
X38320Y294860D03*
Y284860D03*
X31680Y292940D03*
X38320Y314860D03*
Y304860D03*
X31680Y312940D03*
Y302940D03*
X33560Y333650D03*
X38320Y324860D03*
X26370Y331420D03*
X31680Y322940D03*
X24720Y338320D03*
X40650Y352150D03*
X34090Y368120D03*
X41160Y361050D03*
X26510Y366290D03*
X33580Y359220D03*
X39180Y370370D03*
X27010Y375190D03*
X47920Y17380D03*
X52500Y12500D03*
X57500Y10000D03*
X44180Y26650D03*
X41510Y36290D03*
X48790Y38410D03*
X52690Y39180D03*
X48240Y51460D03*
X48140Y51540D03*
X44880Y45420D03*
X58590Y52490D03*
X44850Y57950D03*
X51920Y50880D03*
X55730Y57980D03*
X55720Y57970D03*
X44890Y67310D03*
X51960Y60240D03*
X49110Y74010D03*
X56180Y66930D03*
X41680Y72200D03*
X48660Y65050D03*
X51680Y74760D03*
X48320Y83980D03*
X41680Y92200D03*
Y82200D03*
X51680Y84760D03*
X58320Y84960D03*
X48320Y103980D03*
Y93980D03*
X41680Y102200D03*
X51680Y94760D03*
Y104760D03*
X58320Y94960D03*
Y104960D03*
X48320Y123980D03*
Y113980D03*
X41680Y122200D03*
Y112200D03*
X51680Y114760D03*
Y124760D03*
X58320Y114960D03*
Y124960D03*
X48320Y143980D03*
Y133980D03*
X41680Y142200D03*
Y132200D03*
X51680Y134760D03*
Y144760D03*
X58320Y134960D03*
Y144960D03*
X48320Y153980D03*
X41680Y162200D03*
Y152200D03*
X51680Y154760D03*
X58320Y154960D03*
X48320Y173980D03*
Y163980D03*
X41680Y172200D03*
X51680Y164760D03*
Y174760D03*
X58320Y164960D03*
Y174960D03*
X48320Y193980D03*
Y183980D03*
X41680Y192200D03*
Y182200D03*
X51680Y184760D03*
Y194760D03*
X58320Y184960D03*
Y194960D03*
X48320Y213980D03*
Y203980D03*
X41680Y212200D03*
Y202200D03*
X51680Y204760D03*
X58320Y204960D03*
X48320Y223980D03*
X41680Y222200D03*
X51680Y214760D03*
Y224760D03*
X58320Y214960D03*
Y224960D03*
X48320Y243980D03*
Y233980D03*
X41680Y242200D03*
Y232200D03*
X51680Y234760D03*
Y244760D03*
X58320Y234960D03*
Y244960D03*
X48320Y263980D03*
Y253980D03*
X41680Y262200D03*
Y252200D03*
X51680Y254760D03*
Y264760D03*
X58320Y254960D03*
Y264960D03*
X48320Y273980D03*
X41680Y282200D03*
Y272200D03*
X51680Y274760D03*
X58320Y274960D03*
X48320Y293980D03*
Y283980D03*
X41680Y292200D03*
X51680Y284760D03*
Y294760D03*
X58320Y284960D03*
Y294960D03*
X48320Y313980D03*
Y303980D03*
X41680Y312200D03*
Y302200D03*
X51680Y304760D03*
Y314760D03*
X58320Y304960D03*
Y314960D03*
X48320Y333980D03*
Y323980D03*
X41680Y332200D03*
Y322200D03*
X51680Y324760D03*
Y334760D03*
X58320Y324960D03*
Y334960D03*
X48320Y343980D03*
X41680Y342200D03*
X51680Y344760D03*
X58320Y344960D03*
X48230Y353970D03*
X51680Y354760D03*
X45320Y362480D03*
X58320Y354960D03*
X53490Y363710D03*
X42570Y379770D03*
X49640Y386840D03*
X46420Y370780D03*
X51560Y379360D03*
X51000Y391000D03*
Y421000D03*
Y451000D03*
X65000Y10000D03*
X72500D03*
X68370Y40340D03*
X67500Y35000D03*
X59030Y53170D03*
X67200Y47400D03*
X70320Y52790D03*
X70280Y52830D03*
X62800Y50900D03*
X62700Y50810D03*
X63250Y59860D03*
X73800Y60910D03*
X66730Y67980D03*
X59660Y75050D03*
X73230Y71470D03*
X62620Y72670D03*
X69700Y65600D03*
X68320Y90180D03*
Y80180D03*
X61680Y92630D03*
Y82630D03*
X68320Y110180D03*
Y100180D03*
X61680Y102630D03*
X68320Y120180D03*
X61680Y122630D03*
Y112630D03*
X74180Y116280D03*
X73230Y127060D03*
X68320Y140180D03*
Y130180D03*
X61680Y142630D03*
Y132630D03*
X71680Y136940D03*
X68320Y160180D03*
Y150180D03*
X61680Y152630D03*
X71680Y146940D03*
X74360Y156570D03*
X68320Y170180D03*
X61680Y172630D03*
Y162630D03*
X68320Y190180D03*
Y180180D03*
X61680Y192630D03*
Y182630D03*
X68320Y210180D03*
Y200180D03*
X61680Y212630D03*
Y202630D03*
X68320Y230180D03*
Y220180D03*
X61680Y222630D03*
X68320Y240180D03*
X61680Y242630D03*
Y232630D03*
X68320Y260180D03*
Y250180D03*
X61680Y262630D03*
Y252630D03*
X68320Y280180D03*
Y270180D03*
X61680Y282630D03*
Y272630D03*
X68320Y300180D03*
Y290180D03*
X61680Y292630D03*
X68320Y310180D03*
X61680Y312630D03*
Y302630D03*
X68320Y330180D03*
Y320180D03*
X61680Y332630D03*
Y322630D03*
X72700Y339180D03*
X74170Y345820D03*
X64890Y342100D03*
X69140Y385560D03*
X61290Y381680D03*
X69950Y376680D03*
X59530Y388320D03*
X80000Y10000D03*
X87500D03*
X87780Y55340D03*
X76770Y58530D03*
X90560Y63120D03*
X76690Y58750D03*
X92500Y72500D03*
X87500D03*
X86680Y90000D03*
X82500Y82500D03*
Y77500D03*
X83360Y99440D03*
X76290Y106510D03*
X92260Y99940D03*
X85190Y107010D03*
X79000Y121000D03*
X83080Y120820D03*
X93080D03*
X82810Y124180D03*
X89180Y131880D03*
X81680Y139410D03*
X81000Y151000D03*
X83410Y160820D03*
X86200Y148320D03*
X78320Y148830D03*
X86770Y154180D03*
X92500Y172500D03*
X82500Y177500D03*
X87500Y172500D03*
X86680Y195150D03*
X82500Y182500D03*
X81000Y211000D03*
X87880Y205080D03*
X81000Y241000D03*
X91410Y260090D03*
X92500Y272500D03*
X82500Y282500D03*
Y277500D03*
X87500Y272500D03*
X81000Y301000D03*
X86680Y290000D03*
Y300000D03*
Y310000D03*
X81000Y331000D03*
X86680Y320000D03*
Y330000D03*
X82700Y339180D03*
X92260Y339940D03*
X84170Y345820D03*
X81000Y361000D03*
X78890Y383320D03*
X79950Y376680D03*
X87500Y372500D03*
X92500D03*
X87500Y387500D03*
X92500D03*
X81000Y421000D03*
Y451000D03*
X95000Y10000D03*
X102500D03*
X110000D03*
X109000Y31000D03*
X104830Y38580D03*
X110000Y35000D03*
X97700Y55340D03*
X103690Y56680D03*
X108810Y51960D03*
X108910Y52090D03*
X102400Y63320D03*
X93320Y90000D03*
X97500Y82500D03*
Y77500D03*
X94480Y103320D03*
X104340Y101680D03*
X98320Y112310D03*
X104180Y120420D03*
X95540Y124180D03*
X104180Y130420D03*
Y140420D03*
X103320Y130460D03*
X97210Y144410D03*
X96680Y134420D03*
X93410Y160820D03*
X106430Y148270D03*
X96770Y154180D03*
X106440Y156740D03*
X103200Y162900D03*
X97500Y177500D03*
X93320Y194530D03*
X97500Y182500D03*
X103360Y211150D03*
X96280Y204080D03*
X94950Y212150D03*
X110430Y218220D03*
X109090Y226290D03*
X102020Y219220D03*
X109000Y241000D03*
X109180Y246290D03*
Y236290D03*
Y266290D03*
Y256290D03*
X109000Y271000D03*
X109180Y276290D03*
X97500Y282500D03*
Y277500D03*
X93320Y290000D03*
Y300000D03*
X109180Y286290D03*
X93320Y310000D03*
Y320000D03*
Y330000D03*
X97500Y377500D03*
Y382500D03*
X117500Y10000D03*
X122500Y15000D03*
Y22500D03*
Y30000D03*
X117500Y35000D03*
X118970Y52720D03*
X111900Y45650D03*
X111860Y66560D03*
X113220Y59760D03*
X120540Y65840D03*
X127610Y72910D03*
X127110Y61660D03*
X120820Y62540D03*
X114180Y70400D03*
X111000Y91000D03*
X124180Y82140D03*
Y92140D03*
X120820Y92540D03*
Y82540D03*
X120810Y92540D03*
X114180Y90400D03*
Y80400D03*
X124180Y102140D03*
X120820Y102540D03*
X110820Y109290D03*
Y99290D03*
X114180Y110400D03*
Y100400D03*
X111000Y121000D03*
X124180Y112140D03*
Y122140D03*
X120820Y122540D03*
Y112540D03*
X114180Y120400D03*
X124180Y132140D03*
Y142140D03*
X120820Y142540D03*
Y132540D03*
X110820Y129290D03*
Y139290D03*
X114180Y140400D03*
Y130400D03*
X111000Y151000D03*
X124180Y152140D03*
Y162140D03*
X119710Y162480D03*
X120820Y152540D03*
X114180Y150400D03*
X124180Y172140D03*
X111590Y168320D03*
X111000Y181000D03*
X124180Y182140D03*
Y192140D03*
X111000Y211000D03*
X124180Y202140D03*
Y212140D03*
Y222140D03*
X115820Y226640D03*
X124180Y232140D03*
Y242140D03*
X115820Y246640D03*
Y236640D03*
X124180Y252140D03*
Y262140D03*
X115820Y256640D03*
X124180Y272140D03*
Y282140D03*
X115820Y276640D03*
Y266640D03*
X111000Y301000D03*
X126050Y291170D03*
X116280Y293320D03*
X111000Y331000D03*
Y361000D03*
Y391000D03*
Y421000D03*
Y451000D03*
X141000Y31000D03*
X145000Y25000D03*
X134180Y54580D03*
Y54590D03*
X140500Y43210D03*
X134180Y50960D03*
X128720Y52580D03*
X140820Y69970D03*
Y59970D03*
X134180Y74580D03*
Y64580D03*
Y60960D03*
X141000Y91000D03*
X130820Y82380D03*
Y92380D03*
X140820Y79970D03*
X134180Y84580D03*
X144180Y78250D03*
Y88250D03*
X130820Y102380D03*
X140820Y109970D03*
Y99970D03*
X134180Y104580D03*
Y94580D03*
X144180Y98250D03*
Y108250D03*
X141000Y121000D03*
X130820Y112380D03*
Y122380D03*
X134180Y124580D03*
Y114580D03*
X144180Y118250D03*
X130820Y132380D03*
Y142380D03*
X140820Y139970D03*
Y129970D03*
X134180Y144580D03*
Y134580D03*
X144180Y128250D03*
Y138250D03*
X141000Y151000D03*
X130820Y152380D03*
Y162380D03*
X140820Y159970D03*
X134180Y154580D03*
X130820Y172380D03*
X140820Y169970D03*
X134180Y174580D03*
Y164580D03*
X141000Y181000D03*
X130820Y182380D03*
Y192380D03*
X140820Y189970D03*
X134180Y194580D03*
Y184580D03*
X141000Y211000D03*
X130820Y202380D03*
Y212380D03*
X140820Y199970D03*
X134180Y214580D03*
Y204580D03*
X130820Y222380D03*
X140820Y229970D03*
Y219970D03*
X134180Y224580D03*
X141000Y241000D03*
X130820Y232380D03*
Y242380D03*
X134180Y244580D03*
Y234580D03*
X130820Y252380D03*
Y262380D03*
X140820Y259970D03*
Y249970D03*
X134180Y264580D03*
Y254580D03*
X141000Y271000D03*
X130820Y272380D03*
Y282380D03*
X140820Y279970D03*
X134180Y274580D03*
X141000Y301000D03*
X144730Y289180D03*
X140820Y289970D03*
X136980Y294180D03*
X134180Y284580D03*
X141000Y331000D03*
Y361000D03*
Y391000D03*
Y421000D03*
Y451000D03*
X147500Y17500D03*
X152500Y10000D03*
X160000D03*
X161680Y39220D03*
X146450Y51700D03*
X146330Y51860D03*
X148100Y68400D03*
X150820Y78020D03*
Y88020D03*
Y98020D03*
Y108020D03*
X154180Y104860D03*
X162400Y99180D03*
X160820Y121450D03*
Y111450D03*
X150820Y118020D03*
X154180Y124860D03*
Y114860D03*
X150820Y128020D03*
Y138020D03*
X159740Y142540D03*
X162200Y140820D03*
X154180Y134860D03*
X147850Y147550D03*
X157590Y149790D03*
X156610Y236190D03*
X154180Y245890D03*
X160820Y246200D03*
X154180Y255890D03*
Y265890D03*
X160820Y256200D03*
Y266200D03*
X154180Y275890D03*
X160820Y276200D03*
X154180Y285890D03*
X160820Y286200D03*
X156830Y295370D03*
X146840Y295820D03*
X167500Y10000D03*
X175000D03*
X168080Y57780D03*
X175150Y64850D03*
X177500Y72500D03*
X176680Y90710D03*
X172500Y82500D03*
Y77500D03*
X171930Y102220D03*
X179120Y109180D03*
X176680Y100710D03*
X176430Y119220D03*
X166620Y121180D03*
X170210Y114910D03*
X171920Y125820D03*
X164180Y130880D03*
X174180Y135570D03*
X170820Y135770D03*
X171000Y151000D03*
X177780Y160780D03*
X164660Y156870D03*
X173850Y160820D03*
X166820Y149610D03*
X175710Y154180D03*
X172500Y177500D03*
X177500Y172500D03*
X176680Y190000D03*
X172500Y182500D03*
X171000Y211000D03*
X176680Y200000D03*
Y210000D03*
Y220000D03*
X175370Y229910D03*
X165530Y231680D03*
X171000Y241000D03*
X176970Y237720D03*
X166990Y238320D03*
X172500Y282500D03*
Y277500D03*
X177500Y272500D03*
X176680Y290000D03*
X173360Y299440D03*
X166290Y306510D03*
X164180Y316280D03*
X175190Y307010D03*
X170820Y316010D03*
X164180Y326280D03*
X171270Y333320D03*
X172980Y325780D03*
X179790Y350500D03*
X171000Y361000D03*
X176680Y370000D03*
Y360000D03*
X172500Y377500D03*
Y382500D03*
X177500Y387500D03*
X171000Y421000D03*
Y451000D03*
X195000Y7020D03*
X186070Y11530D03*
X182500Y10000D03*
X192500Y35000D03*
X187890Y55670D03*
X190630Y44180D03*
X182500Y72500D03*
X183320Y90910D03*
X187500Y82500D03*
Y77500D03*
X195820Y106420D03*
X190290Y98090D03*
X183310Y100910D03*
X188760Y106540D03*
X191890Y119180D03*
X184180Y125540D03*
X180170Y115820D03*
X190090Y114610D03*
X194750Y125820D03*
X195540Y113890D03*
X190820Y135020D03*
X182680Y140820D03*
X183850Y160820D03*
X193850D03*
X185710Y154180D03*
X195710D03*
X182500Y172500D03*
X187500Y177500D03*
X183320Y190000D03*
X187500Y182500D03*
X183320Y200000D03*
Y210000D03*
Y220000D03*
Y230000D03*
X183730Y260000D03*
X187500Y282500D03*
X182500Y272500D03*
X187500Y277500D03*
X183320Y290000D03*
X182260Y299940D03*
X181270Y333320D03*
X191270D03*
X182940Y326680D03*
X192260Y323040D03*
X188340Y351350D03*
X195410Y344280D03*
X186860Y343430D03*
X193930Y336360D03*
X183320Y370000D03*
Y360000D03*
X187500Y382500D03*
Y377500D03*
X182500Y387500D03*
X205000Y7020D03*
X212500Y20000D03*
X199000Y31000D03*
X198240Y36680D03*
X208240D03*
X212500Y27500D03*
X205000Y35000D03*
X205440Y50170D03*
X213010Y57720D03*
X213100Y57730D03*
X210630Y44180D03*
X200630D03*
X197710Y43320D03*
X207710D03*
X213100Y60910D03*
X211710Y68930D03*
X204640Y61860D03*
X204670D03*
X207880Y65690D03*
X199050Y66120D03*
X203710Y70920D03*
X201000Y91000D03*
X209180Y89290D03*
Y79290D03*
Y109290D03*
Y99290D03*
X201870Y119670D03*
X209180Y119290D03*
X205820Y138860D03*
Y128860D03*
X199180Y144790D03*
Y134790D03*
X209180Y139290D03*
Y129290D03*
X199000Y151000D03*
X203600Y158610D03*
X205820Y148860D03*
X209180Y159290D03*
Y149290D03*
Y179290D03*
Y169290D03*
X201000Y181000D03*
X209180Y189290D03*
X201000Y211000D03*
X209180Y209290D03*
Y199290D03*
Y229290D03*
Y219290D03*
X201000Y241000D03*
X209180Y239290D03*
Y259290D03*
Y249290D03*
X201000Y271000D03*
X209180Y279290D03*
Y269290D03*
X201000Y301000D03*
X209180Y299290D03*
Y289290D03*
X212540Y312160D03*
X199330Y315970D03*
X206400Y308900D03*
X209560Y330140D03*
X201000Y329280D03*
X208070Y322210D03*
X198400Y326310D03*
X205470Y319240D03*
X202480Y337210D03*
X201000Y361000D03*
Y391000D03*
Y421000D03*
Y451000D03*
X215000Y7020D03*
Y13680D03*
X231000Y31000D03*
X218240Y36680D03*
X228240D03*
X222430Y57730D03*
X215350Y50660D03*
X215410D03*
X228060Y50870D03*
X220630Y44180D03*
X222130Y54340D03*
X222440Y54400D03*
X217710Y43320D03*
X227600Y44800D03*
X220170Y67980D03*
X215470Y72200D03*
X229500Y64800D03*
X227150Y71860D03*
X220080Y64790D03*
X229200Y61410D03*
X229000Y91000D03*
X225820Y86220D03*
Y76220D03*
X219180Y85990D03*
X218790Y76000D03*
X215820Y92720D03*
Y82720D03*
X229180Y81650D03*
X225820Y106220D03*
Y96220D03*
X219180Y105990D03*
Y95990D03*
X215820Y102720D03*
X229180Y101650D03*
X225820Y126220D03*
Y116220D03*
X219180Y125990D03*
Y115990D03*
X215820Y122720D03*
Y112720D03*
X229180Y121650D03*
Y111650D03*
X225820Y136220D03*
X219180Y135990D03*
X215820Y142720D03*
Y132720D03*
X229180Y141650D03*
Y131650D03*
X225820Y156220D03*
Y146220D03*
X219180Y155990D03*
Y145990D03*
X215820Y152720D03*
X229180Y161650D03*
Y151650D03*
X225820Y176220D03*
Y166220D03*
X219180Y175990D03*
Y165990D03*
X215820Y172720D03*
Y162720D03*
X229180Y171650D03*
X225820Y196220D03*
Y186220D03*
X219180Y195990D03*
Y185990D03*
X215820Y192720D03*
Y182720D03*
X229180Y191650D03*
Y181650D03*
X225820Y206220D03*
X219180Y205990D03*
X215820Y212720D03*
Y202720D03*
X229180Y211650D03*
Y201650D03*
X225820Y226220D03*
Y216220D03*
X219180Y225990D03*
Y215990D03*
X215820Y222720D03*
X229180Y231650D03*
Y221650D03*
X225820Y246220D03*
Y236220D03*
X219180Y245990D03*
Y235990D03*
X215820Y242720D03*
Y232720D03*
X229180Y241650D03*
X225820Y266220D03*
Y256220D03*
X219180Y265990D03*
Y255990D03*
X215820Y262720D03*
Y252720D03*
X229180Y261650D03*
Y251650D03*
X229000Y271000D03*
X225820Y276220D03*
X219180Y275990D03*
X215820Y282720D03*
Y272720D03*
X229180Y281650D03*
X229000Y301000D03*
X225820Y296220D03*
Y286220D03*
X219180Y295990D03*
Y285990D03*
X215820Y292720D03*
X229180Y291650D03*
X223700Y315990D03*
X225820Y306220D03*
X215150Y315140D03*
X219180Y305990D03*
X215820Y302720D03*
X229180Y311650D03*
X229000Y331000D03*
X216630Y323070D03*
X229180Y321650D03*
X231000Y361000D03*
Y391000D03*
Y421000D03*
Y451000D03*
X243710Y7020D03*
X233710D03*
X246680Y15940D03*
X236940Y13680D03*
X246680Y35940D03*
Y25940D03*
X235130Y57940D03*
X234670Y51870D03*
X235620Y43420D03*
X242690Y50490D03*
X246680Y45940D03*
X235820Y72550D03*
X245820Y74330D03*
X242200Y65010D03*
X236270Y68480D03*
X241740Y58940D03*
X248810Y66010D03*
X235820Y92550D03*
Y82550D03*
X245820Y84330D03*
X239180Y88050D03*
Y78050D03*
X249180Y76010D03*
Y86010D03*
X235820Y102550D03*
X245820Y104330D03*
Y94330D03*
X239180Y108050D03*
Y98050D03*
X249180Y96010D03*
Y106010D03*
X235820Y122550D03*
Y112550D03*
X245820Y124330D03*
Y114330D03*
X239180Y118050D03*
X249180Y116010D03*
Y126010D03*
X235820Y142550D03*
Y132550D03*
X245820Y144330D03*
Y134330D03*
X239180Y138050D03*
Y128050D03*
X249180Y136010D03*
X235820Y162550D03*
Y152550D03*
X245820Y154330D03*
X239180Y158050D03*
Y148050D03*
X249180Y146010D03*
Y156010D03*
X235820Y172550D03*
X245820Y174330D03*
Y164330D03*
X239180Y178050D03*
Y168050D03*
X249180Y166010D03*
Y176010D03*
X235820Y192550D03*
Y182550D03*
X245820Y194330D03*
Y184330D03*
X239180Y188050D03*
X249180Y186010D03*
Y196010D03*
X235820Y212550D03*
Y202550D03*
X245820Y214330D03*
Y204330D03*
X239180Y208050D03*
Y198050D03*
X249180Y206010D03*
X235820Y222550D03*
X245820Y224330D03*
X239180Y228050D03*
Y218050D03*
X249180Y216010D03*
Y226010D03*
X235820Y242550D03*
Y232550D03*
X245820Y244330D03*
Y234330D03*
X239180Y248050D03*
Y238050D03*
X249180Y236010D03*
Y246010D03*
X235820Y262550D03*
Y252550D03*
X245820Y264330D03*
Y254330D03*
X239180Y258050D03*
X235820Y282550D03*
Y272550D03*
X245820Y274330D03*
X239180Y278050D03*
Y268050D03*
X235820Y292550D03*
X245820Y294330D03*
Y284330D03*
X239180Y298050D03*
Y288050D03*
X235820Y312550D03*
Y302550D03*
X247590Y314180D03*
X245820Y304330D03*
X240730Y317930D03*
X239180Y308050D03*
X244230Y329530D03*
X237160Y322460D03*
X235050Y329750D03*
X242120Y336820D03*
X253320Y20770D03*
X252980Y10770D03*
X259000Y31000D03*
X253320Y40770D03*
Y30770D03*
X249760Y57560D03*
X264260Y57060D03*
X257190Y49990D03*
X252130Y54330D03*
X255820Y65510D03*
Y75510D03*
X259180Y71420D03*
Y61420D03*
X255820Y85510D03*
X265820Y76940D03*
X259180Y91420D03*
Y81420D03*
X255820Y95510D03*
Y105510D03*
X265820Y106940D03*
Y96940D03*
X259180Y101420D03*
X255820Y115510D03*
Y125510D03*
X265820Y126940D03*
Y116940D03*
X259180Y121420D03*
Y111420D03*
X255820Y135510D03*
X265820Y136940D03*
X259180Y141420D03*
Y131420D03*
X255820Y145510D03*
Y155510D03*
X265820Y146940D03*
X261450Y161160D03*
X259180Y151420D03*
X255820Y165510D03*
Y175510D03*
X261000Y181000D03*
X255820Y185510D03*
Y195510D03*
X261000Y211000D03*
X255820Y205510D03*
Y215510D03*
Y225510D03*
X261000Y241000D03*
X255820Y235510D03*
Y245510D03*
X265130Y249180D03*
X253030Y255230D03*
X263010Y255820D03*
X261000Y271000D03*
Y301000D03*
X257590Y314180D03*
X261000Y331000D03*
X260300Y320820D03*
X250300D03*
X261050Y338840D03*
X251300Y336600D03*
X259220Y346420D03*
X249710Y343320D03*
X261000Y361000D03*
X266290Y353490D03*
X261000Y391000D03*
X259000Y421000D03*
X261000Y451000D03*
X272080Y63460D03*
X282500Y72500D03*
X277500D03*
X276680Y90000D03*
X283320D03*
X272500Y82500D03*
Y77500D03*
X271650Y98650D03*
X269180Y108340D03*
X282260Y99940D03*
X277840Y113320D03*
X278420Y116680D03*
X269370Y120930D03*
X281040Y123320D03*
X271080Y130780D03*
X280750Y133320D03*
X272050Y138250D03*
X280110Y143320D03*
X269180Y147830D03*
X277530Y153320D03*
X278110Y156680D03*
X268110D03*
X281220Y163320D03*
X271220D03*
X282500Y172500D03*
X272500Y177500D03*
X277500Y172500D03*
X283320Y192170D03*
X276680Y195120D03*
X272500Y182500D03*
X283320Y202170D03*
X276680Y205120D03*
X272580Y227720D03*
X281930Y224180D03*
X277850Y215050D03*
X275130Y249180D03*
X277020Y243320D03*
X269180Y237120D03*
X276010Y261390D03*
X273010Y255820D03*
X283010D03*
X282500Y272500D03*
X272500Y282500D03*
Y277500D03*
X277500Y272500D03*
X276680Y290000D03*
Y300000D03*
X283320Y290000D03*
Y300000D03*
X276680Y310000D03*
X267590Y314180D03*
X283320Y310000D03*
X280210Y319500D03*
X270300Y320820D03*
X275190Y352990D03*
X268120Y345910D03*
X283320Y370000D03*
X282260Y360060D03*
X276680Y370000D03*
X273360Y360560D03*
X272500Y377500D03*
Y382500D03*
X277500Y387500D03*
X282500D03*
X291000Y61000D03*
X287500Y82500D03*
Y77500D03*
X289650Y106680D03*
X287840Y113320D03*
X295820Y114540D03*
X291040Y123320D03*
X290460Y126680D03*
X295820Y135120D03*
X290110Y143320D03*
X287530Y153320D03*
X289540Y146680D03*
X295820Y154450D03*
X291220Y163320D03*
X287500Y177500D03*
Y182500D03*
X291000Y211000D03*
X286420Y211680D03*
X291070Y228650D03*
X293320Y218910D03*
Y242370D03*
X285100Y236680D03*
X285130Y249180D03*
X292380Y252320D03*
X287500Y282500D03*
Y277500D03*
X291000Y301000D03*
Y331000D03*
Y361000D03*
X287500Y382500D03*
Y377500D03*
X291000Y451000D03*
G54D13*
X-10000Y80000D03*
Y180000D03*
Y280000D03*
Y380000D03*
X-50Y-256250D03*
X90000Y80000D03*
Y180000D03*
Y280000D03*
Y380000D03*
X180000Y80000D03*
Y180000D03*
Y280000D03*
Y380000D03*
X280000Y80000D03*
Y180000D03*
Y280000D03*
Y380000D03*
G54D14*
X-50Y-218750D03*
X115000Y27300D03*
X205000D03*
G54D15*
X-50Y-181250D03*
X65000Y17300D03*
X75000D03*
X65000Y27300D03*
X75000D03*
X85000Y17300D03*
X95000D03*
X85000Y27300D03*
X95000D03*
X105000Y17300D03*
Y27300D03*
X115000Y17300D03*
X155000D03*
Y27300D03*
X165000Y17300D03*
X175000D03*
X165000Y27300D03*
X175000D03*
X185000Y17300D03*
X195000D03*
X185000Y27300D03*
X195000D03*
X205000Y17300D03*
G54D16*
X-50Y-106250D03*
X52500Y27500D03*
Y30000D03*
X55000Y45000D03*
Y47500D03*
X75000Y50000D03*
X72500D03*
X82500Y52500D03*
X87500D03*
Y50000D03*
X82500D03*
X95000Y52500D03*
X100000D03*
X95000Y50000D03*
X100000D03*
X150000D03*
Y52500D03*
X155000Y50000D03*
Y52500D03*
X165000Y50000D03*
Y52500D03*
X173500Y50000D03*
Y52500D03*
X185000Y50000D03*
X187500D03*
X225000Y25000D03*
Y27500D03*
G54D17*
G01X-45000Y-350000D02*
Y-12500D01*
X652500D01*
Y-350000D01*
X-45000D01*
G01Y-312500D02*
X652500D01*
G01X-45000Y-275000D02*
X652500D01*
G01X-45000Y-237500D02*
X652500D01*
G01X-45000Y-200000D02*
X652500D01*
G01X-45000Y-162500D02*
X652500D01*
G01X-45000Y-125000D02*
X652500D01*
G01X-34000Y-81250D02*
Y-68750D01*
X-28100D01*
G01X-30280Y-74790D02*
X-34000D01*
G01X-20510Y-68750D02*
X-16790D01*
G01X-18650D02*
Y-81250D01*
G01X-20510D02*
X-16790D01*
G01X-5320Y-75000D02*
X-2220D01*
Y-78750D01*
X-3150Y-80000D01*
X-4240Y-80830D01*
X-5780Y-81250D01*
X-7330Y-80830D01*
X-8420Y-80000D01*
X-9350Y-78750D01*
X-9970Y-77290D01*
X-10280Y-75630D01*
Y-74170D01*
X-9970Y-72920D01*
X-9350Y-71460D01*
X-8420Y-70210D01*
X-7490Y-69380D01*
X-6250Y-68750D01*
X-5170D01*
X-3930Y-69170D01*
X-2990Y-70000D01*
G01X2740Y-68750D02*
Y-77710D01*
X3360Y-79580D01*
X4600Y-80830D01*
X6150Y-81250D01*
X7700Y-80830D01*
X8940Y-79580D01*
X9560Y-77710D01*
Y-68750D01*
G01X15450Y-81250D02*
Y-68750D01*
X19320D01*
X20560Y-69380D01*
X21340Y-70210D01*
X21650Y-71880D01*
X21340Y-73540D01*
X20410Y-74580D01*
X19320Y-75210D01*
X15450D01*
G01X19320D02*
X21650Y-81250D01*
G01X34050D02*
X27850D01*
Y-68750D01*
X34050D01*
G01X31570Y-74790D02*
X27850D01*
G01X-45000Y-87500D02*
X652500D01*
G01X-45000Y-62500D02*
X652500D01*
G01X-45000Y-37500D02*
X652500D01*
G01X-30000Y0D02*
X300000D01*
X310000Y10000D01*
Y50000D01*
X300000Y60000D01*
Y400000D01*
X310000Y410000D01*
Y450000D01*
X300000Y460000D01*
X-30000D01*
X-40000Y450000D01*
Y410000D01*
X-30000Y400000D01*
Y60000D01*
X-40000Y50000D01*
Y10000D01*
X-30000Y0D01*
G01X44900Y-62500D02*
Y-350000D01*
G01X68300Y-81250D02*
Y-68750D01*
X74200D01*
G01X72020Y-74790D02*
X68300D01*
G01X81790Y-68750D02*
X85510D01*
G01X83650D02*
Y-81250D01*
G01X81790D02*
X85510D01*
G01X92490D02*
Y-68750D01*
X99610Y-81250D01*
Y-68750D01*
G01X106590D02*
X110310D01*
G01X108450D02*
Y-81250D01*
G01X106590D02*
X110310D01*
G01X117590Y-79580D02*
X118840Y-80630D01*
X120230Y-81250D01*
X121470D01*
X122710Y-80630D01*
X123640Y-79580D01*
X124110Y-78120D01*
X123800Y-76670D01*
X123020Y-75420D01*
X121620Y-74580D01*
X119770Y-74170D01*
X118680Y-73330D01*
X118210Y-71880D01*
X118530Y-70420D01*
X119300Y-69380D01*
X120380Y-68750D01*
X121470D01*
X122560Y-69170D01*
X123490Y-70210D01*
G01X129990Y-81250D02*
Y-68750D01*
G01X136510D02*
Y-81250D01*
G01Y-75000D02*
X129990D01*
G01X148750Y-81250D02*
X142550D01*
Y-68750D01*
X148750D01*
G01X146270Y-74790D02*
X142550D01*
G01X154640Y-81250D02*
Y-68750D01*
X157740D01*
X158980Y-69380D01*
X159910Y-70210D01*
X160690Y-71460D01*
X161310Y-72920D01*
X161460Y-75000D01*
X161310Y-77080D01*
X160690Y-78540D01*
X159910Y-79790D01*
X158980Y-80630D01*
X157740Y-81250D01*
X154640D01*
G01X165800Y-85420D02*
X175100D01*
G01X179590Y-79580D02*
X180840Y-80630D01*
X182230Y-81250D01*
X183470D01*
X184710Y-80630D01*
X185640Y-79580D01*
X186110Y-78120D01*
X185800Y-76670D01*
X185020Y-75420D01*
X183620Y-74580D01*
X181770Y-74170D01*
X180680Y-73330D01*
X180210Y-71880D01*
X180530Y-70420D01*
X181300Y-69380D01*
X182380Y-68750D01*
X183470D01*
X184560Y-69170D01*
X185490Y-70210D01*
G01X193390Y-68750D02*
X197110D01*
G01X195250D02*
Y-81250D01*
G01X193390D02*
X197110D01*
G01X204700Y-68750D02*
X210600D01*
X204700Y-81250D01*
X210600D01*
G01X223150D02*
X216950D01*
Y-68750D01*
X223150D01*
G01X220670Y-74790D02*
X216950D01*
G01X127050Y-325000D02*
X125810Y-325420D01*
X124880Y-326460D01*
X124260Y-327710D01*
X123790Y-329380D01*
X123640Y-331250D01*
X123790Y-333130D01*
X124260Y-334790D01*
X124880Y-336040D01*
X125810Y-337080D01*
X127050Y-337500D01*
X128290Y-337080D01*
X129220Y-336040D01*
X129840Y-334790D01*
X130310Y-333130D01*
X130460Y-331250D01*
X130310Y-329380D01*
X129840Y-327710D01*
X129220Y-326460D01*
X128290Y-325420D01*
X127050Y-325000D01*
G01X139450Y-337920D02*
X139140Y-337710D01*
Y-337290D01*
X139450Y-337080D01*
X139760Y-337290D01*
Y-337710D01*
X139450Y-337920D01*
G01X148900Y-327080D02*
X149840Y-325830D01*
X150920Y-325210D01*
X152160Y-325000D01*
X153710Y-325420D01*
X154800Y-326460D01*
X155110Y-327710D01*
X154950Y-328960D01*
X154330Y-330000D01*
X151230Y-332080D01*
X149840Y-333540D01*
X148900Y-335630D01*
X148590Y-337500D01*
X155110D01*
G01X160840Y-335630D02*
X161770Y-336670D01*
X162850Y-337290D01*
X164250Y-337500D01*
X165650Y-337080D01*
X166730Y-336250D01*
X167510Y-334790D01*
X167660Y-333130D01*
X167350Y-331460D01*
X166570Y-330420D01*
X165490Y-329580D01*
X164410Y-329380D01*
X163320Y-329580D01*
X161930Y-330420D01*
X162390Y-325000D01*
X166570D01*
G01X120850Y-287500D02*
X119610Y-287920D01*
X118680Y-288960D01*
X118060Y-290210D01*
X117590Y-291880D01*
X117440Y-293750D01*
X117590Y-295630D01*
X118060Y-297290D01*
X118680Y-298540D01*
X119610Y-299580D01*
X120850Y-300000D01*
X122090Y-299580D01*
X123020Y-298540D01*
X123640Y-297290D01*
X124110Y-295630D01*
X124260Y-293750D01*
X124110Y-291880D01*
X123640Y-290210D01*
X123020Y-288960D01*
X122090Y-287920D01*
X120850Y-287500D01*
G01X133250Y-300420D02*
X132940Y-300210D01*
Y-299790D01*
X133250Y-299580D01*
X133560Y-299790D01*
Y-300210D01*
X133250Y-300420D01*
G01X145650Y-287500D02*
X144410Y-287920D01*
X143480Y-288960D01*
X142860Y-290210D01*
X142390Y-291880D01*
X142240Y-293750D01*
X142390Y-295630D01*
X142860Y-297290D01*
X143480Y-298540D01*
X144410Y-299580D01*
X145650Y-300000D01*
X146890Y-299580D01*
X147820Y-298540D01*
X148440Y-297290D01*
X148910Y-295630D01*
X149060Y-293750D01*
X148910Y-291880D01*
X148440Y-290210D01*
X147820Y-288960D01*
X146890Y-287920D01*
X145650Y-287500D01*
G01X155100Y-294790D02*
X156190Y-293330D01*
X157120Y-292500D01*
X158360Y-292080D01*
X159450Y-292500D01*
X160220Y-293330D01*
X160840Y-294580D01*
X161000Y-296040D01*
X160840Y-297290D01*
X160220Y-298540D01*
X159290Y-299580D01*
X158210Y-300000D01*
X156970Y-299580D01*
X155880Y-298330D01*
X155260Y-296460D01*
X155100Y-294380D01*
X155410Y-291670D01*
X155880Y-290210D01*
X156650Y-288750D01*
X157740Y-287710D01*
X158820Y-287500D01*
X159910Y-287920D01*
X160690Y-288960D01*
G01X167040Y-297500D02*
X167970Y-298960D01*
X169210Y-299790D01*
X170610Y-300000D01*
X171850Y-299790D01*
X173090Y-298750D01*
X173860Y-297500D01*
X174010Y-296250D01*
X173710Y-294790D01*
X172620Y-293750D01*
X171530Y-293330D01*
X170140D01*
G01X171530D02*
X172460Y-292710D01*
X173240Y-291670D01*
X173550Y-290420D01*
X173240Y-289170D01*
X172460Y-288130D01*
X171070Y-287500D01*
X169680Y-287710D01*
X168280Y-288540D01*
G01X114650Y-250000D02*
X113410Y-250420D01*
X112480Y-251460D01*
X111860Y-252710D01*
X111390Y-254380D01*
X111240Y-256250D01*
X111390Y-258130D01*
X111860Y-259790D01*
X112480Y-261040D01*
X113410Y-262080D01*
X114650Y-262500D01*
X115890Y-262080D01*
X116820Y-261040D01*
X117440Y-259790D01*
X117910Y-258130D01*
X118060Y-256250D01*
X117910Y-254380D01*
X117440Y-252710D01*
X116820Y-251460D01*
X115890Y-250420D01*
X114650Y-250000D01*
G01X127050Y-262920D02*
X126740Y-262710D01*
Y-262290D01*
X127050Y-262080D01*
X127360Y-262290D01*
Y-262710D01*
X127050Y-262920D01*
G01X139450Y-250000D02*
X138210Y-250420D01*
X137280Y-251460D01*
X136660Y-252710D01*
X136190Y-254380D01*
X136040Y-256250D01*
X136190Y-258130D01*
X136660Y-259790D01*
X137280Y-261040D01*
X138210Y-262080D01*
X139450Y-262500D01*
X140690Y-262080D01*
X141620Y-261040D01*
X142240Y-259790D01*
X142710Y-258130D01*
X142860Y-256250D01*
X142710Y-254380D01*
X142240Y-252710D01*
X141620Y-251460D01*
X140690Y-250420D01*
X139450Y-250000D01*
G01X148440Y-260630D02*
X149370Y-261670D01*
X150450Y-262290D01*
X151850Y-262500D01*
X153250Y-262080D01*
X154330Y-261250D01*
X155110Y-259790D01*
X155260Y-258130D01*
X154950Y-256460D01*
X154170Y-255420D01*
X153090Y-254580D01*
X152010Y-254380D01*
X150920Y-254580D01*
X149530Y-255420D01*
X149990Y-250000D01*
X154170D01*
G01X161610Y-261040D02*
X162700Y-262080D01*
X163940Y-262500D01*
X165180Y-262080D01*
X166260Y-260830D01*
X167040Y-258960D01*
X167350Y-257080D01*
Y-254790D01*
X167040Y-252920D01*
X166260Y-251250D01*
X165330Y-250420D01*
X164250Y-250000D01*
X163010Y-250420D01*
X162080Y-251250D01*
X161460Y-252500D01*
X161150Y-254170D01*
X161460Y-255620D01*
X162240Y-257080D01*
X163170Y-257920D01*
X164250Y-258130D01*
X165490Y-257710D01*
X166420Y-256670D01*
X167350Y-254790D01*
G01X176650Y-262500D02*
Y-250000D01*
X174790Y-252500D01*
G01Y-262500D02*
X178510D01*
G01X114650Y-212500D02*
X113410Y-212920D01*
X112480Y-213960D01*
X111860Y-215210D01*
X111390Y-216880D01*
X111240Y-218750D01*
X111390Y-220630D01*
X111860Y-222290D01*
X112480Y-223540D01*
X113410Y-224580D01*
X114650Y-225000D01*
X115890Y-224580D01*
X116820Y-223540D01*
X117440Y-222290D01*
X117910Y-220630D01*
X118060Y-218750D01*
X117910Y-216880D01*
X117440Y-215210D01*
X116820Y-213960D01*
X115890Y-212920D01*
X114650Y-212500D01*
G01X127050Y-225420D02*
X126740Y-225210D01*
Y-224790D01*
X127050Y-224580D01*
X127360Y-224790D01*
Y-225210D01*
X127050Y-225420D01*
G01X139450Y-212500D02*
X138210Y-212920D01*
X137280Y-213960D01*
X136660Y-215210D01*
X136190Y-216880D01*
X136040Y-218750D01*
X136190Y-220630D01*
X136660Y-222290D01*
X137280Y-223540D01*
X138210Y-224580D01*
X139450Y-225000D01*
X140690Y-224580D01*
X141620Y-223540D01*
X142240Y-222290D01*
X142710Y-220630D01*
X142860Y-218750D01*
X142710Y-216880D01*
X142240Y-215210D01*
X141620Y-213960D01*
X140690Y-212920D01*
X139450Y-212500D01*
G01X153710Y-225000D02*
Y-212500D01*
X147970Y-221460D01*
X155730D01*
G01X160840Y-222500D02*
X161770Y-223960D01*
X163010Y-224790D01*
X164410Y-225000D01*
X165650Y-224790D01*
X166890Y-223750D01*
X167660Y-222500D01*
X167810Y-221250D01*
X167510Y-219790D01*
X166420Y-218750D01*
X165330Y-218330D01*
X163940D01*
G01X165330D02*
X166260Y-217710D01*
X167040Y-216670D01*
X167350Y-215420D01*
X167040Y-214170D01*
X166260Y-213130D01*
X164870Y-212500D01*
X163480Y-212710D01*
X162080Y-213540D01*
G01X173240Y-222500D02*
X174170Y-223960D01*
X175410Y-224790D01*
X176810Y-225000D01*
X178050Y-224790D01*
X179290Y-223750D01*
X180060Y-222500D01*
X180210Y-221250D01*
X179910Y-219790D01*
X178820Y-218750D01*
X177730Y-218330D01*
X176340D01*
G01X177730D02*
X178660Y-217710D01*
X179440Y-216670D01*
X179750Y-215420D01*
X179440Y-214170D01*
X178660Y-213130D01*
X177270Y-212500D01*
X175880Y-212710D01*
X174480Y-213540D01*
G01X114650Y-175000D02*
X113410Y-175420D01*
X112480Y-176460D01*
X111860Y-177710D01*
X111390Y-179380D01*
X111240Y-181250D01*
X111390Y-183130D01*
X111860Y-184790D01*
X112480Y-186040D01*
X113410Y-187080D01*
X114650Y-187500D01*
X115890Y-187080D01*
X116820Y-186040D01*
X117440Y-184790D01*
X117910Y-183130D01*
X118060Y-181250D01*
X117910Y-179380D01*
X117440Y-177710D01*
X116820Y-176460D01*
X115890Y-175420D01*
X114650Y-175000D01*
G01X127050Y-187920D02*
X126740Y-187710D01*
Y-187290D01*
X127050Y-187080D01*
X127360Y-187290D01*
Y-187710D01*
X127050Y-187920D01*
G01X139450Y-175000D02*
X138210Y-175420D01*
X137280Y-176460D01*
X136660Y-177710D01*
X136190Y-179380D01*
X136040Y-181250D01*
X136190Y-183130D01*
X136660Y-184790D01*
X137280Y-186040D01*
X138210Y-187080D01*
X139450Y-187500D01*
X140690Y-187080D01*
X141620Y-186040D01*
X142240Y-184790D01*
X142710Y-183130D01*
X142860Y-181250D01*
X142710Y-179380D01*
X142240Y-177710D01*
X141620Y-176460D01*
X140690Y-175420D01*
X139450Y-175000D01*
G01X153710Y-187500D02*
Y-175000D01*
X147970Y-183960D01*
X155730D01*
G01X160840Y-185000D02*
X161770Y-186460D01*
X163010Y-187290D01*
X164410Y-187500D01*
X165650Y-187290D01*
X166890Y-186250D01*
X167660Y-185000D01*
X167810Y-183750D01*
X167510Y-182290D01*
X166420Y-181250D01*
X165330Y-180830D01*
X163940D01*
G01X165330D02*
X166260Y-180210D01*
X167040Y-179170D01*
X167350Y-177920D01*
X167040Y-176670D01*
X166260Y-175630D01*
X164870Y-175000D01*
X163480Y-175210D01*
X162080Y-176040D01*
G01X173240Y-185000D02*
X174170Y-186460D01*
X175410Y-187290D01*
X176810Y-187500D01*
X178050Y-187290D01*
X179290Y-186250D01*
X180060Y-185000D01*
X180210Y-183750D01*
X179910Y-182290D01*
X178820Y-181250D01*
X177730Y-180830D01*
X176340D01*
G01X177730D02*
X178660Y-180210D01*
X179440Y-179170D01*
X179750Y-177920D01*
X179440Y-176670D01*
X178660Y-175630D01*
X177270Y-175000D01*
X175880Y-175210D01*
X174480Y-176040D01*
G01X120850Y-137500D02*
X119610Y-137920D01*
X118680Y-138960D01*
X118060Y-140210D01*
X117590Y-141880D01*
X117440Y-143750D01*
X117590Y-145630D01*
X118060Y-147290D01*
X118680Y-148540D01*
X119610Y-149580D01*
X120850Y-150000D01*
X122090Y-149580D01*
X123020Y-148540D01*
X123640Y-147290D01*
X124110Y-145630D01*
X124260Y-143750D01*
X124110Y-141880D01*
X123640Y-140210D01*
X123020Y-138960D01*
X122090Y-137920D01*
X120850Y-137500D01*
G01X133250Y-150420D02*
X132940Y-150210D01*
Y-149790D01*
X133250Y-149580D01*
X133560Y-149790D01*
Y-150210D01*
X133250Y-150420D01*
G01X145650Y-137500D02*
X144410Y-137920D01*
X143480Y-138960D01*
X142860Y-140210D01*
X142390Y-141880D01*
X142240Y-143750D01*
X142390Y-145630D01*
X142860Y-147290D01*
X143480Y-148540D01*
X144410Y-149580D01*
X145650Y-150000D01*
X146890Y-149580D01*
X147820Y-148540D01*
X148440Y-147290D01*
X148910Y-145630D01*
X149060Y-143750D01*
X148910Y-141880D01*
X148440Y-140210D01*
X147820Y-138960D01*
X146890Y-137920D01*
X145650Y-137500D01*
G01X158050Y-150000D02*
Y-137500D01*
X156190Y-140000D01*
G01Y-150000D02*
X159910D01*
G01X167040Y-147500D02*
X167970Y-148960D01*
X169210Y-149790D01*
X170610Y-150000D01*
X171850Y-149790D01*
X173090Y-148750D01*
X173860Y-147500D01*
X174010Y-146250D01*
X173710Y-144790D01*
X172620Y-143750D01*
X171530Y-143330D01*
X170140D01*
G01X171530D02*
X172460Y-142710D01*
X173240Y-141670D01*
X173550Y-140420D01*
X173240Y-139170D01*
X172460Y-138130D01*
X171070Y-137500D01*
X169680Y-137710D01*
X168280Y-138540D01*
G01X127050Y-100000D02*
X125810Y-100420D01*
X124880Y-101460D01*
X124260Y-102710D01*
X123790Y-104380D01*
X123640Y-106250D01*
X123790Y-108130D01*
X124260Y-109790D01*
X124880Y-111040D01*
X125810Y-112080D01*
X127050Y-112500D01*
X128290Y-112080D01*
X129220Y-111040D01*
X129840Y-109790D01*
X130310Y-108130D01*
X130460Y-106250D01*
X130310Y-104380D01*
X129840Y-102710D01*
X129220Y-101460D01*
X128290Y-100420D01*
X127050Y-100000D01*
G01X139450Y-112920D02*
X139140Y-112710D01*
Y-112290D01*
X139450Y-112080D01*
X139760Y-112290D01*
Y-112710D01*
X139450Y-112920D01*
G01X151850Y-100000D02*
X150610Y-100420D01*
X149680Y-101460D01*
X149060Y-102710D01*
X148590Y-104380D01*
X148440Y-106250D01*
X148590Y-108130D01*
X149060Y-109790D01*
X149680Y-111040D01*
X150610Y-112080D01*
X151850Y-112500D01*
X153090Y-112080D01*
X154020Y-111040D01*
X154640Y-109790D01*
X155110Y-108130D01*
X155260Y-106250D01*
X155110Y-104380D01*
X154640Y-102710D01*
X154020Y-101460D01*
X153090Y-100420D01*
X151850Y-100000D01*
G01X164250Y-112500D02*
Y-100000D01*
X162390Y-102500D01*
G01Y-112500D02*
X166110D01*
G01X145340Y-31250D02*
Y-18750D01*
X148440D01*
X149680Y-19380D01*
X150610Y-20210D01*
X151390Y-21460D01*
X152010Y-22920D01*
X152160Y-25000D01*
X152010Y-27080D01*
X151390Y-28540D01*
X150610Y-29790D01*
X149680Y-30630D01*
X148440Y-31250D01*
X145340D01*
G01X158050D02*
Y-18750D01*
X161920D01*
X163160Y-19380D01*
X163940Y-20210D01*
X164250Y-21880D01*
X163940Y-23540D01*
X163010Y-24580D01*
X161920Y-25210D01*
X158050D01*
G01X161920D02*
X164250Y-31250D01*
G01X171690Y-18750D02*
X175410D01*
G01X173550D02*
Y-31250D01*
G01X171690D02*
X175410D01*
G01X182850Y-18750D02*
Y-31250D01*
X189050D01*
G01X195250Y-18750D02*
Y-31250D01*
X201450D01*
G01X226560Y-19790D02*
X225630Y-19170D01*
X224550Y-18750D01*
X223310D01*
X221910Y-19380D01*
X220830Y-20420D01*
X220050Y-21670D01*
X219430Y-23750D01*
X219270Y-25630D01*
X219590Y-27500D01*
X220050Y-28750D01*
X220980Y-30000D01*
X222070Y-30830D01*
X223150Y-31250D01*
X224230D01*
X225320Y-30830D01*
X226250Y-30210D01*
X227030Y-29380D01*
G01X232290Y-31250D02*
Y-18750D01*
G01X238810D02*
Y-31250D01*
G01Y-25000D02*
X232290D01*
G01X244070Y-31250D02*
X247950Y-18750D01*
X251830Y-31250D01*
G01X250430Y-26880D02*
X245470D01*
G01X257250Y-31250D02*
Y-18750D01*
X261120D01*
X262360Y-19380D01*
X263140Y-20210D01*
X263450Y-21880D01*
X263140Y-23540D01*
X262210Y-24580D01*
X261120Y-25210D01*
X257250D01*
G01X261120D02*
X263450Y-31250D01*
G01X272750Y-18750D02*
Y-31250D01*
G01X269190Y-18750D02*
X276310D01*
G01X285150Y-31670D02*
X284840Y-31460D01*
Y-31040D01*
X285150Y-30830D01*
X285460Y-31040D01*
Y-31460D01*
X285150Y-31670D01*
G01Y-26040D02*
X284840Y-25830D01*
Y-25420D01*
X285150Y-25210D01*
X285460Y-25420D01*
Y-25830D01*
X285150Y-26040D01*
G01X309950Y-18750D02*
Y-31250D01*
G01X306390Y-18750D02*
X313510D01*
G01X322350Y-31250D02*
X321110Y-31040D01*
X320030Y-30210D01*
X319090Y-28960D01*
X318470Y-27500D01*
X318160Y-25830D01*
Y-24170D01*
X318470Y-22500D01*
X319090Y-21040D01*
X320030Y-19790D01*
X321110Y-18960D01*
X322350Y-18750D01*
X323590Y-18960D01*
X324670Y-19790D01*
X325610Y-21040D01*
X326230Y-22500D01*
X326540Y-24170D01*
Y-25830D01*
X326230Y-27500D01*
X325610Y-28960D01*
X324670Y-30210D01*
X323590Y-31040D01*
X322350Y-31250D01*
G01X331650D02*
Y-18750D01*
X335370D01*
X336610Y-19380D01*
X337540Y-20830D01*
X337850Y-22500D01*
X337540Y-24170D01*
X336760Y-25420D01*
X335370Y-26040D01*
X331650D01*
G01X359550Y-18750D02*
Y-31250D01*
G01X357380Y-22920D02*
X361720D01*
G01X371950Y-31250D02*
X371020Y-31040D01*
X370090Y-30210D01*
X369470Y-28750D01*
X369160Y-27080D01*
X369470Y-25420D01*
X370090Y-23960D01*
X371020Y-23130D01*
X371950Y-22920D01*
X372880Y-23130D01*
X373810Y-23960D01*
X374430Y-25420D01*
X374590Y-27080D01*
X374430Y-28750D01*
X373810Y-30210D01*
X372880Y-31040D01*
X371950Y-31250D01*
G01X397990Y-24580D02*
X398610Y-23960D01*
X399070Y-22920D01*
X399390Y-21460D01*
X399070Y-20210D01*
X398460Y-19380D01*
X397370Y-18750D01*
X393190D01*
Y-31250D01*
X398300D01*
X399390Y-30420D01*
X400010Y-29170D01*
X400310Y-27710D01*
X400010Y-26250D01*
X399070Y-25000D01*
X397990Y-24580D01*
X393190D01*
G01X409150Y-31250D02*
X407910Y-31040D01*
X406830Y-30210D01*
X405890Y-28960D01*
X405270Y-27500D01*
X404960Y-25830D01*
Y-24170D01*
X405270Y-22500D01*
X405890Y-21040D01*
X406830Y-19790D01*
X407910Y-18960D01*
X409150Y-18750D01*
X410390Y-18960D01*
X411470Y-19790D01*
X412410Y-21040D01*
X413030Y-22500D01*
X413340Y-24170D01*
Y-25830D01*
X413030Y-27500D01*
X412410Y-28960D01*
X411470Y-30210D01*
X410390Y-31040D01*
X409150Y-31250D01*
G01X421550Y-18750D02*
Y-31250D01*
G01X417990Y-18750D02*
X425110D01*
G01X433950D02*
Y-31250D01*
G01X430390Y-18750D02*
X437510D01*
G01X446350Y-31250D02*
X445110Y-31040D01*
X444030Y-30210D01*
X443090Y-28960D01*
X442470Y-27500D01*
X442160Y-25830D01*
Y-24170D01*
X442470Y-22500D01*
X443090Y-21040D01*
X444030Y-19790D01*
X445110Y-18960D01*
X446350Y-18750D01*
X447590Y-18960D01*
X448670Y-19790D01*
X449610Y-21040D01*
X450230Y-22500D01*
X450540Y-24170D01*
Y-25830D01*
X450230Y-27500D01*
X449610Y-28960D01*
X448670Y-30210D01*
X447590Y-31040D01*
X446350Y-31250D01*
G01X454720D02*
Y-18750D01*
X458750Y-29170D01*
X462780Y-18750D01*
Y-31250D01*
G01X163470Y-56250D02*
X167350Y-43750D01*
X171230Y-56250D01*
G01X169830Y-51880D02*
X164870D01*
G01X176650Y-43750D02*
Y-56250D01*
X182850D01*
G01X189050Y-43750D02*
Y-56250D01*
X195250D01*
G01X213540Y-43750D02*
Y-52710D01*
X214160Y-54580D01*
X215400Y-55830D01*
X216950Y-56250D01*
X218500Y-55830D01*
X219740Y-54580D01*
X220360Y-52710D01*
Y-43750D01*
G01X225790Y-56250D02*
Y-43750D01*
X232910Y-56250D01*
Y-43750D01*
G01X239890D02*
X243610D01*
G01X241750D02*
Y-56250D01*
G01X239890D02*
X243610D01*
G01X254150Y-43750D02*
Y-56250D01*
G01X250590Y-43750D02*
X257710D01*
G01X263290Y-54580D02*
X264540Y-55630D01*
X265930Y-56250D01*
X267170D01*
X268410Y-55630D01*
X269340Y-54580D01*
X269810Y-53120D01*
X269500Y-51670D01*
X268720Y-50420D01*
X267320Y-49580D01*
X265470Y-49170D01*
X264380Y-48330D01*
X263910Y-46880D01*
X264230Y-45420D01*
X265000Y-44380D01*
X266080Y-43750D01*
X267170D01*
X268260Y-44170D01*
X269190Y-45210D01*
G01X287470Y-56250D02*
X291350Y-43750D01*
X295230Y-56250D01*
G01X293830Y-51880D02*
X288870D01*
G01X300650Y-56250D02*
Y-43750D01*
X304520D01*
X305760Y-44380D01*
X306540Y-45210D01*
X306850Y-46880D01*
X306540Y-48540D01*
X305610Y-49580D01*
X304520Y-50210D01*
X300650D01*
G01X304520D02*
X306850Y-56250D01*
G01X319250D02*
X313050D01*
Y-43750D01*
X319250D01*
G01X316770Y-49790D02*
X313050D01*
G01X339090Y-43750D02*
X342810D01*
G01X340950D02*
Y-56250D01*
G01X339090D02*
X342810D01*
G01X349790D02*
Y-43750D01*
X356910Y-56250D01*
Y-43750D01*
G01X376290D02*
X380010D01*
G01X378150D02*
Y-56250D01*
G01X376290D02*
X380010D01*
G01X386990D02*
Y-43750D01*
X394110Y-56250D01*
Y-43750D01*
G01X406360Y-44790D02*
X405430Y-44170D01*
X404350Y-43750D01*
X403110D01*
X401710Y-44380D01*
X400630Y-45420D01*
X399850Y-46670D01*
X399230Y-48750D01*
X399070Y-50630D01*
X399390Y-52500D01*
X399850Y-53750D01*
X400780Y-55000D01*
X401870Y-55830D01*
X402950Y-56250D01*
X404030D01*
X405120Y-55830D01*
X406050Y-55210D01*
X406830Y-54380D01*
G01X412090Y-56250D02*
Y-43750D01*
G01X418610D02*
Y-56250D01*
G01Y-50000D02*
X412090D01*
G01X430850Y-56250D02*
X424650D01*
Y-43750D01*
X430850D01*
G01X428370Y-49790D02*
X424650D01*
G01X436890Y-54580D02*
X438140Y-55630D01*
X439530Y-56250D01*
X440770D01*
X442010Y-55630D01*
X442940Y-54580D01*
X443410Y-53120D01*
X443100Y-51670D01*
X442320Y-50420D01*
X440920Y-49580D01*
X439070Y-49170D01*
X437980Y-48330D01*
X437510Y-46880D01*
X437830Y-45420D01*
X438600Y-44380D01*
X439680Y-43750D01*
X440770D01*
X441860Y-44170D01*
X442790Y-45210D01*
G01X246400Y-62500D02*
Y-350000D01*
G01X275540Y-81250D02*
Y-68750D01*
X278640D01*
X279880Y-69380D01*
X280810Y-70210D01*
X281590Y-71460D01*
X282210Y-72920D01*
X282360Y-75000D01*
X282210Y-77080D01*
X281590Y-78540D01*
X280810Y-79790D01*
X279880Y-80630D01*
X278640Y-81250D01*
X275540D01*
G01X288250D02*
Y-68750D01*
X292120D01*
X293360Y-69380D01*
X294140Y-70210D01*
X294450Y-71880D01*
X294140Y-73540D01*
X293210Y-74580D01*
X292120Y-75210D01*
X288250D01*
G01X292120D02*
X294450Y-81250D01*
G01X301890Y-68750D02*
X305610D01*
G01X303750D02*
Y-81250D01*
G01X301890D02*
X305610D01*
G01X313050Y-68750D02*
Y-81250D01*
X319250D01*
G01X325450Y-68750D02*
Y-81250D01*
X331650D01*
G01X344050D02*
X337850D01*
Y-68750D01*
X344050D01*
G01X341570Y-74790D02*
X337850D01*
G01X349940Y-81250D02*
Y-68750D01*
X353040D01*
X354280Y-69380D01*
X355210Y-70210D01*
X355990Y-71460D01*
X356610Y-72920D01*
X356760Y-75000D01*
X356610Y-77080D01*
X355990Y-78540D01*
X355210Y-79790D01*
X354280Y-80630D01*
X353040Y-81250D01*
X349940D01*
G01X361100Y-85420D02*
X370400D01*
G01X374890Y-79580D02*
X376140Y-80630D01*
X377530Y-81250D01*
X378770D01*
X380010Y-80630D01*
X380940Y-79580D01*
X381410Y-78120D01*
X381100Y-76670D01*
X380320Y-75420D01*
X378920Y-74580D01*
X377070Y-74170D01*
X375980Y-73330D01*
X375510Y-71880D01*
X375830Y-70420D01*
X376600Y-69380D01*
X377680Y-68750D01*
X378770D01*
X379860Y-69170D01*
X380790Y-70210D01*
G01X388690Y-68750D02*
X392410D01*
G01X390550D02*
Y-81250D01*
G01X388690D02*
X392410D01*
G01X400000Y-68750D02*
X405900D01*
X400000Y-81250D01*
X405900D01*
G01X418450D02*
X412250D01*
Y-68750D01*
X418450D01*
G01X415970Y-74790D02*
X412250D01*
G01X345140Y-333330D02*
X349160D01*
G01X345140Y-295830D02*
X349160D01*
G01X345140Y-258330D02*
X349160D01*
G01X345140Y-220830D02*
X349160D01*
G01X345140Y-183330D02*
X349160D01*
G01X345140Y-145830D02*
X349160D01*
G01X345140Y-108330D02*
X349160D01*
G01X421450Y-362500D02*
Y-375000D01*
G01X417890Y-362500D02*
X425010D01*
G01X433850Y-375000D02*
X432610Y-374790D01*
X431530Y-373960D01*
X430590Y-372710D01*
X429970Y-371250D01*
X429660Y-369580D01*
Y-367920D01*
X429970Y-366250D01*
X430590Y-364790D01*
X431530Y-363540D01*
X432610Y-362710D01*
X433850Y-362500D01*
X435090Y-362710D01*
X436170Y-363540D01*
X437110Y-364790D01*
X437730Y-366250D01*
X438040Y-367920D01*
Y-369580D01*
X437730Y-371250D01*
X437110Y-372710D01*
X436170Y-373960D01*
X435090Y-374790D01*
X433850Y-375000D01*
G01X446250Y-362500D02*
Y-375000D01*
G01X442690Y-362500D02*
X449810D01*
G01X454770Y-375000D02*
X458650Y-362500D01*
X462530Y-375000D01*
G01X461130Y-370630D02*
X456170D01*
G01X467950Y-362500D02*
Y-375000D01*
X474150D01*
G01X492590D02*
Y-362500D01*
G01X499110D02*
Y-375000D01*
G01Y-368750D02*
X492590D01*
G01X508250Y-375000D02*
X507010Y-374790D01*
X505930Y-373960D01*
X504990Y-372710D01*
X504370Y-371250D01*
X504060Y-369580D01*
Y-367920D01*
X504370Y-366250D01*
X504990Y-364790D01*
X505930Y-363540D01*
X507010Y-362710D01*
X508250Y-362500D01*
X509490Y-362710D01*
X510570Y-363540D01*
X511510Y-364790D01*
X512130Y-366250D01*
X512440Y-367920D01*
Y-369580D01*
X512130Y-371250D01*
X511510Y-372710D01*
X510570Y-373960D01*
X509490Y-374790D01*
X508250Y-375000D01*
G01X517550Y-362500D02*
Y-375000D01*
X523750D01*
G01X536150D02*
X529950D01*
Y-362500D01*
X536150D01*
G01X533670Y-368540D02*
X529950D01*
G01X542190Y-373330D02*
X543440Y-374380D01*
X544830Y-375000D01*
X546070D01*
X547310Y-374380D01*
X548240Y-373330D01*
X548710Y-371870D01*
X548400Y-370420D01*
X547620Y-369170D01*
X546220Y-368330D01*
X544370Y-367920D01*
X543280Y-367080D01*
X542810Y-365630D01*
X543130Y-364170D01*
X543900Y-363130D01*
X544980Y-362500D01*
X546070D01*
X547160Y-362920D01*
X548090Y-363960D01*
G01X557850Y-375420D02*
X557540Y-375210D01*
Y-374790D01*
X557850Y-374580D01*
X558160Y-374790D01*
Y-375210D01*
X557850Y-375420D01*
G01Y-369790D02*
X557540Y-369580D01*
Y-369170D01*
X557850Y-368960D01*
X558160Y-369170D01*
Y-369580D01*
X557850Y-369790D01*
G01X452090Y-337500D02*
Y-325000D01*
X459210Y-337500D01*
Y-325000D01*
G01X468050Y-337500D02*
X466810Y-337290D01*
X465730Y-336460D01*
X464790Y-335210D01*
X464170Y-333750D01*
X463860Y-332080D01*
Y-330420D01*
X464170Y-328750D01*
X464790Y-327290D01*
X465730Y-326040D01*
X466810Y-325210D01*
X468050Y-325000D01*
X469290Y-325210D01*
X470370Y-326040D01*
X471310Y-327290D01*
X471930Y-328750D01*
X472240Y-330420D01*
Y-332080D01*
X471930Y-333750D01*
X471310Y-335210D01*
X470370Y-336460D01*
X469290Y-337290D01*
X468050Y-337500D01*
G01X476890D02*
Y-325000D01*
X484010Y-337500D01*
Y-325000D01*
G01X490840Y-333330D02*
X494860D01*
G01X502150Y-337500D02*
Y-325000D01*
X505870D01*
X507110Y-325630D01*
X508040Y-327080D01*
X508350Y-328750D01*
X508040Y-330420D01*
X507260Y-331670D01*
X505870Y-332290D01*
X502150D01*
G01X514550Y-325000D02*
Y-337500D01*
X520750D01*
G01X526170D02*
X530050Y-325000D01*
X533930Y-337500D01*
G01X532530Y-333130D02*
X527570D01*
G01X542450Y-325000D02*
Y-337500D01*
G01X538890Y-325000D02*
X546010D01*
G01X557950Y-337500D02*
X551750D01*
Y-325000D01*
X557950D01*
G01X555470Y-331040D02*
X551750D01*
G01X563840Y-337500D02*
Y-325000D01*
X566940D01*
X568180Y-325630D01*
X569110Y-326460D01*
X569890Y-327710D01*
X570510Y-329170D01*
X570660Y-331250D01*
X570510Y-333330D01*
X569890Y-334790D01*
X569110Y-336040D01*
X568180Y-336880D01*
X566940Y-337500D01*
X563840D01*
G01X447900Y-62500D02*
Y-350000D01*
G01X477350Y-300000D02*
Y-287500D01*
X481070D01*
X482310Y-288130D01*
X483240Y-289580D01*
X483550Y-291250D01*
X483240Y-292920D01*
X482460Y-294170D01*
X481070Y-294790D01*
X477350D01*
G01X489750Y-287500D02*
Y-300000D01*
X495950D01*
G01X501370D02*
X505250Y-287500D01*
X509130Y-300000D01*
G01X507730Y-295630D02*
X502770D01*
G01X517650Y-287500D02*
Y-300000D01*
G01X514090Y-287500D02*
X521210D01*
G01X533150Y-300000D02*
X526950D01*
Y-287500D01*
X533150D01*
G01X530670Y-293540D02*
X526950D01*
G01X539040Y-300000D02*
Y-287500D01*
X542140D01*
X543380Y-288130D01*
X544310Y-288960D01*
X545090Y-290210D01*
X545710Y-291670D01*
X545860Y-293750D01*
X545710Y-295830D01*
X545090Y-297290D01*
X544310Y-298540D01*
X543380Y-299380D01*
X542140Y-300000D01*
X539040D01*
G01X477350Y-262500D02*
Y-250000D01*
X481070D01*
X482310Y-250630D01*
X483240Y-252080D01*
X483550Y-253750D01*
X483240Y-255420D01*
X482460Y-256670D01*
X481070Y-257290D01*
X477350D01*
G01X489750Y-250000D02*
Y-262500D01*
X495950D01*
G01X501370D02*
X505250Y-250000D01*
X509130Y-262500D01*
G01X507730Y-258130D02*
X502770D01*
G01X517650Y-250000D02*
Y-262500D01*
G01X514090Y-250000D02*
X521210D01*
G01X533150Y-262500D02*
X526950D01*
Y-250000D01*
X533150D01*
G01X530670Y-256040D02*
X526950D01*
G01X539040Y-262500D02*
Y-250000D01*
X542140D01*
X543380Y-250630D01*
X544310Y-251460D01*
X545090Y-252710D01*
X545710Y-254170D01*
X545860Y-256250D01*
X545710Y-258330D01*
X545090Y-259790D01*
X544310Y-261040D01*
X543380Y-261880D01*
X542140Y-262500D01*
X539040D01*
G01X477350Y-225000D02*
Y-212500D01*
X481070D01*
X482310Y-213130D01*
X483240Y-214580D01*
X483550Y-216250D01*
X483240Y-217920D01*
X482460Y-219170D01*
X481070Y-219790D01*
X477350D01*
G01X489750Y-212500D02*
Y-225000D01*
X495950D01*
G01X501370D02*
X505250Y-212500D01*
X509130Y-225000D01*
G01X507730Y-220630D02*
X502770D01*
G01X517650Y-212500D02*
Y-225000D01*
G01X514090Y-212500D02*
X521210D01*
G01X533150Y-225000D02*
X526950D01*
Y-212500D01*
X533150D01*
G01X530670Y-218540D02*
X526950D01*
G01X539040Y-225000D02*
Y-212500D01*
X542140D01*
X543380Y-213130D01*
X544310Y-213960D01*
X545090Y-215210D01*
X545710Y-216670D01*
X545860Y-218750D01*
X545710Y-220830D01*
X545090Y-222290D01*
X544310Y-223540D01*
X543380Y-224380D01*
X542140Y-225000D01*
X539040D01*
G01X477350Y-187500D02*
Y-175000D01*
X481070D01*
X482310Y-175630D01*
X483240Y-177080D01*
X483550Y-178750D01*
X483240Y-180420D01*
X482460Y-181670D01*
X481070Y-182290D01*
X477350D01*
G01X489750Y-175000D02*
Y-187500D01*
X495950D01*
G01X501370D02*
X505250Y-175000D01*
X509130Y-187500D01*
G01X507730Y-183130D02*
X502770D01*
G01X517650Y-175000D02*
Y-187500D01*
G01X514090Y-175000D02*
X521210D01*
G01X533150Y-187500D02*
X526950D01*
Y-175000D01*
X533150D01*
G01X530670Y-181040D02*
X526950D01*
G01X539040Y-187500D02*
Y-175000D01*
X542140D01*
X543380Y-175630D01*
X544310Y-176460D01*
X545090Y-177710D01*
X545710Y-179170D01*
X545860Y-181250D01*
X545710Y-183330D01*
X545090Y-184790D01*
X544310Y-186040D01*
X543380Y-186880D01*
X542140Y-187500D01*
X539040D01*
G01X477350Y-150000D02*
Y-137500D01*
X481070D01*
X482310Y-138130D01*
X483240Y-139580D01*
X483550Y-141250D01*
X483240Y-142920D01*
X482460Y-144170D01*
X481070Y-144790D01*
X477350D01*
G01X489750Y-137500D02*
Y-150000D01*
X495950D01*
G01X501370D02*
X505250Y-137500D01*
X509130Y-150000D01*
G01X507730Y-145630D02*
X502770D01*
G01X517650Y-137500D02*
Y-150000D01*
G01X514090Y-137500D02*
X521210D01*
G01X533150Y-150000D02*
X526950D01*
Y-137500D01*
X533150D01*
G01X530670Y-143540D02*
X526950D01*
G01X539040Y-150000D02*
Y-137500D01*
X542140D01*
X543380Y-138130D01*
X544310Y-138960D01*
X545090Y-140210D01*
X545710Y-141670D01*
X545860Y-143750D01*
X545710Y-145830D01*
X545090Y-147290D01*
X544310Y-148540D01*
X543380Y-149380D01*
X542140Y-150000D01*
X539040D01*
G01X477350Y-112500D02*
Y-100000D01*
X481070D01*
X482310Y-100630D01*
X483240Y-102080D01*
X483550Y-103750D01*
X483240Y-105420D01*
X482460Y-106670D01*
X481070Y-107290D01*
X477350D01*
G01X489750Y-100000D02*
Y-112500D01*
X495950D01*
G01X501370D02*
X505250Y-100000D01*
X509130Y-112500D01*
G01X507730Y-108130D02*
X502770D01*
G01X517650Y-100000D02*
Y-112500D01*
G01X514090Y-100000D02*
X521210D01*
G01X533150Y-112500D02*
X526950D01*
Y-100000D01*
X533150D01*
G01X530670Y-106040D02*
X526950D01*
G01X539040Y-112500D02*
Y-100000D01*
X542140D01*
X543380Y-100630D01*
X544310Y-101460D01*
X545090Y-102710D01*
X545710Y-104170D01*
X545860Y-106250D01*
X545710Y-108330D01*
X545090Y-109790D01*
X544310Y-111040D01*
X543380Y-111880D01*
X542140Y-112500D01*
X539040D01*
G01X477350Y-81250D02*
Y-68750D01*
X481070D01*
X482310Y-69380D01*
X483240Y-70830D01*
X483550Y-72500D01*
X483240Y-74170D01*
X482460Y-75420D01*
X481070Y-76040D01*
X477350D01*
G01X489750Y-68750D02*
Y-81250D01*
X495950D01*
G01X501370D02*
X505250Y-68750D01*
X509130Y-81250D01*
G01X507730Y-76880D02*
X502770D01*
G01X517650Y-68750D02*
Y-81250D01*
G01X514090Y-68750D02*
X521210D01*
G01X533150Y-81250D02*
X526950D01*
Y-68750D01*
X533150D01*
G01X530670Y-74790D02*
X526950D01*
G01X539040Y-81250D02*
Y-68750D01*
X542140D01*
X543380Y-69380D01*
X544310Y-70210D01*
X545090Y-71460D01*
X545710Y-72920D01*
X545860Y-75000D01*
X545710Y-77080D01*
X545090Y-78540D01*
X544310Y-79790D01*
X543380Y-80630D01*
X542140Y-81250D01*
X539040D01*
G01X575000Y-62500D02*
Y-350000D01*
G01X595150Y-375000D02*
Y-362500D01*
X593290Y-365000D01*
G01Y-375000D02*
X597010D01*
G01X604140Y-373130D02*
X605070Y-374170D01*
X606150Y-374790D01*
X607550Y-375000D01*
X608950Y-374580D01*
X610030Y-373750D01*
X610810Y-372290D01*
X610960Y-370630D01*
X610650Y-368960D01*
X609870Y-367920D01*
X608790Y-367080D01*
X607710Y-366880D01*
X606620Y-367080D01*
X605230Y-367920D01*
X605690Y-362500D01*
X609870D01*
G01X617000Y-364580D02*
X617940Y-363330D01*
X619020Y-362710D01*
X620260Y-362500D01*
X621810Y-362920D01*
X622900Y-363960D01*
X623210Y-365210D01*
X623050Y-366460D01*
X622430Y-367500D01*
X619330Y-369580D01*
X617940Y-371040D01*
X617000Y-373130D01*
X616690Y-375000D01*
X623210D01*
G01X632350Y-362500D02*
X631110Y-362920D01*
X630180Y-363960D01*
X629560Y-365210D01*
X629090Y-366880D01*
X628940Y-368750D01*
X629090Y-370630D01*
X629560Y-372290D01*
X630180Y-373540D01*
X631110Y-374580D01*
X632350Y-375000D01*
X633590Y-374580D01*
X634520Y-373540D01*
X635140Y-372290D01*
X635610Y-370630D01*
X635760Y-368750D01*
X635610Y-366880D01*
X635140Y-365210D01*
X634520Y-363960D01*
X633590Y-362920D01*
X632350Y-362500D01*
G01X595150Y-150000D02*
Y-137500D01*
X593290Y-140000D01*
G01Y-150000D02*
X597010D01*
G01X604140Y-147500D02*
X605070Y-148960D01*
X606310Y-149790D01*
X607710Y-150000D01*
X608950Y-149790D01*
X610190Y-148750D01*
X610960Y-147500D01*
X611110Y-146250D01*
X610810Y-144790D01*
X609720Y-143750D01*
X608630Y-143330D01*
X607240D01*
G01X608630D02*
X609560Y-142710D01*
X610340Y-141670D01*
X610650Y-140420D01*
X610340Y-139170D01*
X609560Y-138130D01*
X608170Y-137500D01*
X606780Y-137710D01*
X605380Y-138540D01*
G01X619950Y-150000D02*
X621030Y-149790D01*
X622270Y-149170D01*
X623050Y-148130D01*
X623360Y-146670D01*
X623050Y-145210D01*
X622120Y-143960D01*
X620720Y-143330D01*
X619180D01*
X618240Y-142920D01*
X617470Y-141880D01*
X617160Y-140420D01*
X617630Y-138960D01*
X618710Y-137920D01*
X619950Y-137500D01*
X621190Y-137920D01*
X622270Y-138960D01*
X622740Y-140420D01*
X622430Y-141880D01*
X621660Y-142920D01*
X620720Y-143330D01*
X619180D01*
X617780Y-143960D01*
X616850Y-145210D01*
X616540Y-146670D01*
X616850Y-148130D01*
X617630Y-149170D01*
X618870Y-149790D01*
X619950Y-150000D01*
G01X629400Y-144790D02*
X630490Y-143330D01*
X631420Y-142500D01*
X632660Y-142080D01*
X633750Y-142500D01*
X634520Y-143330D01*
X635140Y-144580D01*
X635300Y-146040D01*
X635140Y-147290D01*
X634520Y-148540D01*
X633590Y-149580D01*
X632510Y-150000D01*
X631270Y-149580D01*
X630180Y-148330D01*
X629560Y-146460D01*
X629400Y-144380D01*
X629710Y-141670D01*
X630180Y-140210D01*
X630950Y-138750D01*
X632040Y-137710D01*
X633120Y-137500D01*
X634210Y-137920D01*
X634990Y-138960D01*
G01X615610Y-337500D02*
Y-325000D01*
X609870Y-333960D01*
X617630D01*
G01X604600Y-294790D02*
X605690Y-293330D01*
X606620Y-292500D01*
X607860Y-292080D01*
X608950Y-292500D01*
X609720Y-293330D01*
X610340Y-294580D01*
X610500Y-296040D01*
X610340Y-297290D01*
X609720Y-298540D01*
X608790Y-299580D01*
X607710Y-300000D01*
X606470Y-299580D01*
X605380Y-298330D01*
X604760Y-296460D01*
X604600Y-294380D01*
X604910Y-291670D01*
X605380Y-290210D01*
X606150Y-288750D01*
X607240Y-287710D01*
X608320Y-287500D01*
X609410Y-287920D01*
X610190Y-288960D01*
G01X621810Y-300000D02*
Y-287500D01*
X616070Y-296460D01*
X623830D01*
G01X607550Y-262500D02*
Y-250000D01*
X605690Y-252500D01*
G01Y-262500D02*
X609410D01*
G01X617000Y-257290D02*
X618090Y-255830D01*
X619020Y-255000D01*
X620260Y-254580D01*
X621350Y-255000D01*
X622120Y-255830D01*
X622740Y-257080D01*
X622900Y-258540D01*
X622740Y-259790D01*
X622120Y-261040D01*
X621190Y-262080D01*
X620110Y-262500D01*
X618870Y-262080D01*
X617780Y-260830D01*
X617160Y-258960D01*
X617000Y-256880D01*
X617310Y-254170D01*
X617780Y-252710D01*
X618550Y-251250D01*
X619640Y-250210D01*
X620720Y-250000D01*
X621810Y-250420D01*
X622590Y-251460D01*
G01X610800Y-214580D02*
X611740Y-213330D01*
X612820Y-212710D01*
X614060Y-212500D01*
X615610Y-212920D01*
X616700Y-213960D01*
X617010Y-215210D01*
X616850Y-216460D01*
X616230Y-217500D01*
X613130Y-219580D01*
X611740Y-221040D01*
X610800Y-223130D01*
X610490Y-225000D01*
X617010D01*
G01X604600Y-177080D02*
X605540Y-175830D01*
X606620Y-175210D01*
X607860Y-175000D01*
X609410Y-175420D01*
X610500Y-176460D01*
X610810Y-177710D01*
X610650Y-178960D01*
X610030Y-180000D01*
X606930Y-182080D01*
X605540Y-183540D01*
X604600Y-185630D01*
X604290Y-187500D01*
X610810D01*
G01X617000Y-177080D02*
X617940Y-175830D01*
X619020Y-175210D01*
X620260Y-175000D01*
X621810Y-175420D01*
X622900Y-176460D01*
X623210Y-177710D01*
X623050Y-178960D01*
X622430Y-180000D01*
X619330Y-182080D01*
X617940Y-183540D01*
X617000Y-185630D01*
X616690Y-187500D01*
X623210D01*
G01X604600Y-102080D02*
X605540Y-100830D01*
X606620Y-100210D01*
X607860Y-100000D01*
X609410Y-100420D01*
X610500Y-101460D01*
X610810Y-102710D01*
X610650Y-103960D01*
X610030Y-105000D01*
X606930Y-107080D01*
X605540Y-108540D01*
X604600Y-110630D01*
X604290Y-112500D01*
X610810D01*
G01X617000Y-107290D02*
X618090Y-105830D01*
X619020Y-105000D01*
X620260Y-104580D01*
X621350Y-105000D01*
X622120Y-105830D01*
X622740Y-107080D01*
X622900Y-108540D01*
X622740Y-109790D01*
X622120Y-111040D01*
X621190Y-112080D01*
X620110Y-112500D01*
X618870Y-112080D01*
X617780Y-110830D01*
X617160Y-108960D01*
X617000Y-106880D01*
X617310Y-104170D01*
X617780Y-102710D01*
X618550Y-101250D01*
X619640Y-100210D01*
X620720Y-100000D01*
X621810Y-100420D01*
X622590Y-101460D01*
G01X601350Y-81250D02*
X600110Y-81040D01*
X599030Y-80210D01*
X598090Y-78960D01*
X597470Y-77500D01*
X597160Y-75830D01*
Y-74170D01*
X597470Y-72500D01*
X598090Y-71040D01*
X599030Y-69790D01*
X600110Y-68960D01*
X601350Y-68750D01*
X602590Y-68960D01*
X603670Y-69790D01*
X604610Y-71040D01*
X605230Y-72500D01*
X605540Y-74170D01*
Y-75830D01*
X605230Y-77500D01*
X604610Y-78960D01*
X603670Y-80210D01*
X602590Y-81040D01*
X601350Y-81250D01*
G01X602590Y-77920D02*
X604450Y-81250D01*
G01X613750Y-68750D02*
Y-81250D01*
G01X610190Y-68750D02*
X617310D01*
G01X626150Y-81250D02*
Y-75630D01*
X623050Y-68750D01*
G01X629250D02*
X626150Y-75630D01*
M02*
