G04 ================== begin FILE IDENTIFICATION RECORD ==================*
G04 Layout Name:  PMOD2BNCSIMPLE_v1_06_65mil.brd*
G04 Film Name:    Drill_3-4*
G04 File Format:  Gerber RS274X*
G04 File Origin:  Cadence Allegro 23.1-P001*
G04 Origin Date:  Wed Nov 29 22:01:42 2023*
G04 *
G04 Layer:  MANUFACTURING/NCLEGEND-3-4*
G04 Layer:  BOARD GEOMETRY/OUTLINE*
G04 Layer:  BOARD GEOMETRY/DESIGN_OUTLINE*
G04 Layer:  BOARD GEOMETRY/CUTOUT*
G04 *
G04 Offset:    (0.0000 0.0000)*
G04 Mirror:    No*
G04 Mode:      Positive*
G04 Rotation:  0*
G04 FullContactRelief:  No*
G04 UndefLineWidth:     0.0050*
G04 ================== end FILE IDENTIFICATION RECORD ====================*
%FSLAX55Y55*MOIN*%
%IR0*IPPOS*OFA0.00000B0.00000*MIA0B0*SFA1.00000B1.00000*%
%AMMACRO10*
1,1,.005,.014,.014*
20,1,.005,.014,.014,.014,-.014,0.0*
1,1,.005,.014,-.014*
20,1,.005,.014,-.014,-.014,-.014,0.0*
1,1,.005,-.014,-.014*
20,1,.005,-.014,-.014,-.014,.014,0.0*
1,1,.005,-.014,.014*
20,1,.005,-.014,.014,.014,.014,0.0*
1,1,.005,.014,.014*
%
%ADD10MACRO10*%
%ADD11C,.005*%
G75*
%LPD*%
G75*
G54D10*
X9950Y-587500D03*
X57500Y27150D03*
X75000Y44650D03*
X85000D03*
X95000D03*
X150000D03*
X165000D03*
X175000D03*
X185000D03*
G54D11*
G01X-35000Y-600000D02*
Y-500000D01*
X662500D01*
Y-600000D01*
X-35000D01*
G01Y-575000D02*
X662500D01*
G01X-35000Y-550000D02*
X662500D01*
G01X-35000Y-525000D02*
X662500D01*
G01X-30000Y0D02*
X300000D01*
X310000Y10000D01*
Y50000D01*
X300000Y60000D01*
Y400000D01*
X310000Y410000D01*
Y450000D01*
X300000Y460000D01*
X-30000D01*
X-40000Y450000D01*
Y410000D01*
X-30000Y400000D01*
Y60000D01*
X-40000Y50000D01*
Y10000D01*
X-30000Y0D01*
G01X-24000Y-568750D02*
Y-556250D01*
X-18100D01*
G01X-20280Y-562290D02*
X-24000D01*
G01X-10510Y-556250D02*
X-6790D01*
G01X-8650D02*
Y-568750D01*
G01X-10510D02*
X-6790D01*
G01X4680Y-562500D02*
X7780D01*
Y-566250D01*
X6850Y-567500D01*
X5760Y-568330D01*
X4220Y-568750D01*
X2670Y-568330D01*
X1580Y-567500D01*
X650Y-566250D01*
X30Y-564790D01*
X-280Y-563130D01*
Y-561670D01*
X30Y-560420D01*
X650Y-558960D01*
X1580Y-557710D01*
X2510Y-556880D01*
X3750Y-556250D01*
X4830D01*
X6070Y-556670D01*
X7010Y-557500D01*
G01X12740Y-556250D02*
Y-565210D01*
X13360Y-567080D01*
X14600Y-568330D01*
X16150Y-568750D01*
X17700Y-568330D01*
X18940Y-567080D01*
X19560Y-565210D01*
Y-556250D01*
G01X25450Y-568750D02*
Y-556250D01*
X29320D01*
X30560Y-556880D01*
X31340Y-557710D01*
X31650Y-559380D01*
X31340Y-561040D01*
X30410Y-562080D01*
X29320Y-562710D01*
X25450D01*
G01X29320D02*
X31650Y-568750D01*
G01X44050D02*
X37850D01*
Y-556250D01*
X44050D01*
G01X41570Y-562290D02*
X37850D01*
G01X54900Y-550000D02*
Y-600000D01*
G01X78300Y-568750D02*
Y-556250D01*
X84200D01*
G01X82020Y-562290D02*
X78300D01*
G01X91790Y-556250D02*
X95510D01*
G01X93650D02*
Y-568750D01*
G01X91790D02*
X95510D01*
G01X102490D02*
Y-556250D01*
X109610Y-568750D01*
Y-556250D01*
G01X116590D02*
X120310D01*
G01X118450D02*
Y-568750D01*
G01X116590D02*
X120310D01*
G01X127590Y-567080D02*
X128840Y-568130D01*
X130230Y-568750D01*
X131470D01*
X132710Y-568130D01*
X133640Y-567080D01*
X134110Y-565620D01*
X133800Y-564170D01*
X133020Y-562920D01*
X131620Y-562080D01*
X129770Y-561670D01*
X128680Y-560830D01*
X128210Y-559380D01*
X128530Y-557920D01*
X129300Y-556880D01*
X130380Y-556250D01*
X131470D01*
X132560Y-556670D01*
X133490Y-557710D01*
G01X139990Y-568750D02*
Y-556250D01*
G01X146510D02*
Y-568750D01*
G01Y-562500D02*
X139990D01*
G01X158750Y-568750D02*
X152550D01*
Y-556250D01*
X158750D01*
G01X156270Y-562290D02*
X152550D01*
G01X164640Y-568750D02*
Y-556250D01*
X167740D01*
X168980Y-556880D01*
X169910Y-557710D01*
X170690Y-558960D01*
X171310Y-560420D01*
X171460Y-562500D01*
X171310Y-564580D01*
X170690Y-566040D01*
X169910Y-567290D01*
X168980Y-568130D01*
X167740Y-568750D01*
X164640D01*
G01X175800Y-572920D02*
X185100D01*
G01X189590Y-567080D02*
X190840Y-568130D01*
X192230Y-568750D01*
X193470D01*
X194710Y-568130D01*
X195640Y-567080D01*
X196110Y-565620D01*
X195800Y-564170D01*
X195020Y-562920D01*
X193620Y-562080D01*
X191770Y-561670D01*
X190680Y-560830D01*
X190210Y-559380D01*
X190530Y-557920D01*
X191300Y-556880D01*
X192380Y-556250D01*
X193470D01*
X194560Y-556670D01*
X195490Y-557710D01*
G01X203390Y-556250D02*
X207110D01*
G01X205250D02*
Y-568750D01*
G01X203390D02*
X207110D01*
G01X214700Y-556250D02*
X220600D01*
X214700Y-568750D01*
X220600D01*
G01X233150D02*
X226950D01*
Y-556250D01*
X233150D01*
G01X230670Y-562290D02*
X226950D01*
G01X130850Y-581250D02*
X129610Y-581670D01*
X128680Y-582710D01*
X128060Y-583960D01*
X127590Y-585630D01*
X127440Y-587500D01*
X127590Y-589380D01*
X128060Y-591040D01*
X128680Y-592290D01*
X129610Y-593330D01*
X130850Y-593750D01*
X132090Y-593330D01*
X133020Y-592290D01*
X133640Y-591040D01*
X134110Y-589380D01*
X134260Y-587500D01*
X134110Y-585630D01*
X133640Y-583960D01*
X133020Y-582710D01*
X132090Y-581670D01*
X130850Y-581250D01*
G01X143250Y-594170D02*
X142940Y-593960D01*
Y-593540D01*
X143250Y-593330D01*
X143560Y-593540D01*
Y-593960D01*
X143250Y-594170D01*
G01X155650Y-581250D02*
X154410Y-581670D01*
X153480Y-582710D01*
X152860Y-583960D01*
X152390Y-585630D01*
X152240Y-587500D01*
X152390Y-589380D01*
X152860Y-591040D01*
X153480Y-592290D01*
X154410Y-593330D01*
X155650Y-593750D01*
X156890Y-593330D01*
X157820Y-592290D01*
X158440Y-591040D01*
X158910Y-589380D01*
X159060Y-587500D01*
X158910Y-585630D01*
X158440Y-583960D01*
X157820Y-582710D01*
X156890Y-581670D01*
X155650Y-581250D01*
G01X165100Y-583330D02*
X166040Y-582080D01*
X167120Y-581460D01*
X168360Y-581250D01*
X169910Y-581670D01*
X171000Y-582710D01*
X171310Y-583960D01*
X171150Y-585210D01*
X170530Y-586250D01*
X167430Y-588330D01*
X166040Y-589790D01*
X165100Y-591880D01*
X164790Y-593750D01*
X171310D01*
G01X180450D02*
X181530Y-593540D01*
X182770Y-592920D01*
X183550Y-591880D01*
X183860Y-590420D01*
X183550Y-588960D01*
X182620Y-587710D01*
X181220Y-587080D01*
X179680D01*
X178740Y-586670D01*
X177970Y-585630D01*
X177660Y-584170D01*
X178130Y-582710D01*
X179210Y-581670D01*
X180450Y-581250D01*
X181690Y-581670D01*
X182770Y-582710D01*
X183240Y-584170D01*
X182930Y-585630D01*
X182160Y-586670D01*
X181220Y-587080D01*
X179680D01*
X178280Y-587710D01*
X177350Y-588960D01*
X177040Y-590420D01*
X177350Y-591880D01*
X178130Y-592920D01*
X179370Y-593540D01*
X180450Y-593750D01*
G01X149140Y-518750D02*
Y-506250D01*
X152240D01*
X153480Y-506880D01*
X154410Y-507710D01*
X155190Y-508960D01*
X155810Y-510420D01*
X155960Y-512500D01*
X155810Y-514580D01*
X155190Y-516040D01*
X154410Y-517290D01*
X153480Y-518130D01*
X152240Y-518750D01*
X149140D01*
G01X161850D02*
Y-506250D01*
X165720D01*
X166960Y-506880D01*
X167740Y-507710D01*
X168050Y-509380D01*
X167740Y-511040D01*
X166810Y-512080D01*
X165720Y-512710D01*
X161850D01*
G01X165720D02*
X168050Y-518750D01*
G01X175490Y-506250D02*
X179210D01*
G01X177350D02*
Y-518750D01*
G01X175490D02*
X179210D01*
G01X186650Y-506250D02*
Y-518750D01*
X192850D01*
G01X199050Y-506250D02*
Y-518750D01*
X205250D01*
G01X230360Y-507290D02*
X229430Y-506670D01*
X228350Y-506250D01*
X227110D01*
X225710Y-506880D01*
X224630Y-507920D01*
X223850Y-509170D01*
X223230Y-511250D01*
X223070Y-513130D01*
X223390Y-515000D01*
X223850Y-516250D01*
X224780Y-517500D01*
X225870Y-518330D01*
X226950Y-518750D01*
X228030D01*
X229120Y-518330D01*
X230050Y-517710D01*
X230830Y-516880D01*
G01X236090Y-518750D02*
Y-506250D01*
G01X242610D02*
Y-518750D01*
G01Y-512500D02*
X236090D01*
G01X247870Y-518750D02*
X251750Y-506250D01*
X255630Y-518750D01*
G01X254230Y-514380D02*
X249270D01*
G01X261050Y-518750D02*
Y-506250D01*
X264920D01*
X266160Y-506880D01*
X266940Y-507710D01*
X267250Y-509380D01*
X266940Y-511040D01*
X266010Y-512080D01*
X264920Y-512710D01*
X261050D01*
G01X264920D02*
X267250Y-518750D01*
G01X276550Y-506250D02*
Y-518750D01*
G01X272990Y-506250D02*
X280110D01*
G01X288950Y-519170D02*
X288640Y-518960D01*
Y-518540D01*
X288950Y-518330D01*
X289260Y-518540D01*
Y-518960D01*
X288950Y-519170D01*
G01Y-513540D02*
X288640Y-513330D01*
Y-512920D01*
X288950Y-512710D01*
X289260Y-512920D01*
Y-513330D01*
X288950Y-513540D01*
G01X314680Y-512500D02*
X317780D01*
Y-516250D01*
X316850Y-517500D01*
X315760Y-518330D01*
X314220Y-518750D01*
X312670Y-518330D01*
X311580Y-517500D01*
X310650Y-516250D01*
X310030Y-514790D01*
X309720Y-513130D01*
Y-511670D01*
X310030Y-510420D01*
X310650Y-508960D01*
X311580Y-507710D01*
X312510Y-506880D01*
X313750Y-506250D01*
X314830D01*
X316070Y-506670D01*
X317010Y-507500D01*
G01X322590Y-518750D02*
Y-506250D01*
X329710Y-518750D01*
Y-506250D01*
G01X335140Y-518750D02*
Y-506250D01*
X338240D01*
X339480Y-506880D01*
X340410Y-507710D01*
X341190Y-508960D01*
X341810Y-510420D01*
X341960Y-512500D01*
X341810Y-514580D01*
X341190Y-516040D01*
X340410Y-517290D01*
X339480Y-518130D01*
X338240Y-518750D01*
X335140D01*
G01X348000Y-508330D02*
X348940Y-507080D01*
X350020Y-506460D01*
X351260Y-506250D01*
X352810Y-506670D01*
X353900Y-507710D01*
X354210Y-508960D01*
X354050Y-510210D01*
X353430Y-511250D01*
X350330Y-513330D01*
X348940Y-514790D01*
X348000Y-516880D01*
X347690Y-518750D01*
X354210D01*
G01X375750Y-506250D02*
Y-518750D01*
G01X373580Y-510420D02*
X377920D01*
G01X388150Y-518750D02*
X387220Y-518540D01*
X386290Y-517710D01*
X385670Y-516250D01*
X385360Y-514580D01*
X385670Y-512920D01*
X386290Y-511460D01*
X387220Y-510630D01*
X388150Y-510420D01*
X389080Y-510630D01*
X390010Y-511460D01*
X390630Y-512920D01*
X390790Y-514580D01*
X390630Y-516250D01*
X390010Y-517710D01*
X389080Y-518540D01*
X388150Y-518750D01*
G01X414190Y-512080D02*
X414810Y-511460D01*
X415270Y-510420D01*
X415590Y-508960D01*
X415270Y-507710D01*
X414660Y-506880D01*
X413570Y-506250D01*
X409390D01*
Y-518750D01*
X414500D01*
X415590Y-517920D01*
X416210Y-516670D01*
X416510Y-515210D01*
X416210Y-513750D01*
X415270Y-512500D01*
X414190Y-512080D01*
X409390D01*
G01X425350Y-518750D02*
X424110Y-518540D01*
X423030Y-517710D01*
X422090Y-516460D01*
X421470Y-515000D01*
X421160Y-513330D01*
Y-511670D01*
X421470Y-510000D01*
X422090Y-508540D01*
X423030Y-507290D01*
X424110Y-506460D01*
X425350Y-506250D01*
X426590Y-506460D01*
X427670Y-507290D01*
X428610Y-508540D01*
X429230Y-510000D01*
X429540Y-511670D01*
Y-513330D01*
X429230Y-515000D01*
X428610Y-516460D01*
X427670Y-517710D01*
X426590Y-518540D01*
X425350Y-518750D01*
G01X437750Y-506250D02*
Y-518750D01*
G01X434190Y-506250D02*
X441310D01*
G01X450150D02*
Y-518750D01*
G01X446590Y-506250D02*
X453710D01*
G01X462550Y-518750D02*
X461310Y-518540D01*
X460230Y-517710D01*
X459290Y-516460D01*
X458670Y-515000D01*
X458360Y-513330D01*
Y-511670D01*
X458670Y-510000D01*
X459290Y-508540D01*
X460230Y-507290D01*
X461310Y-506460D01*
X462550Y-506250D01*
X463790Y-506460D01*
X464870Y-507290D01*
X465810Y-508540D01*
X466430Y-510000D01*
X466740Y-511670D01*
Y-513330D01*
X466430Y-515000D01*
X465810Y-516460D01*
X464870Y-517710D01*
X463790Y-518540D01*
X462550Y-518750D01*
G01X470920D02*
Y-506250D01*
X474950Y-516670D01*
X478980Y-506250D01*
Y-518750D01*
G01X173470Y-543750D02*
X177350Y-531250D01*
X181230Y-543750D01*
G01X179830Y-539380D02*
X174870D01*
G01X186650Y-531250D02*
Y-543750D01*
X192850D01*
G01X199050Y-531250D02*
Y-543750D01*
X205250D01*
G01X223540Y-531250D02*
Y-540210D01*
X224160Y-542080D01*
X225400Y-543330D01*
X226950Y-543750D01*
X228500Y-543330D01*
X229740Y-542080D01*
X230360Y-540210D01*
Y-531250D01*
G01X235790Y-543750D02*
Y-531250D01*
X242910Y-543750D01*
Y-531250D01*
G01X249890D02*
X253610D01*
G01X251750D02*
Y-543750D01*
G01X249890D02*
X253610D01*
G01X264150Y-531250D02*
Y-543750D01*
G01X260590Y-531250D02*
X267710D01*
G01X273290Y-542080D02*
X274540Y-543130D01*
X275930Y-543750D01*
X277170D01*
X278410Y-543130D01*
X279340Y-542080D01*
X279810Y-540620D01*
X279500Y-539170D01*
X278720Y-537920D01*
X277320Y-537080D01*
X275470Y-536670D01*
X274380Y-535830D01*
X273910Y-534380D01*
X274230Y-532920D01*
X275000Y-531880D01*
X276080Y-531250D01*
X277170D01*
X278260Y-531670D01*
X279190Y-532710D01*
G01X297470Y-543750D02*
X301350Y-531250D01*
X305230Y-543750D01*
G01X303830Y-539380D02*
X298870D01*
G01X310650Y-543750D02*
Y-531250D01*
X314520D01*
X315760Y-531880D01*
X316540Y-532710D01*
X316850Y-534380D01*
X316540Y-536040D01*
X315610Y-537080D01*
X314520Y-537710D01*
X310650D01*
G01X314520D02*
X316850Y-543750D01*
G01X329250D02*
X323050D01*
Y-531250D01*
X329250D01*
G01X326770Y-537290D02*
X323050D01*
G01X349090Y-531250D02*
X352810D01*
G01X350950D02*
Y-543750D01*
G01X349090D02*
X352810D01*
G01X359790D02*
Y-531250D01*
X366910Y-543750D01*
Y-531250D01*
G01X386290D02*
X390010D01*
G01X388150D02*
Y-543750D01*
G01X386290D02*
X390010D01*
G01X396990D02*
Y-531250D01*
X404110Y-543750D01*
Y-531250D01*
G01X416360Y-532290D02*
X415430Y-531670D01*
X414350Y-531250D01*
X413110D01*
X411710Y-531880D01*
X410630Y-532920D01*
X409850Y-534170D01*
X409230Y-536250D01*
X409070Y-538130D01*
X409390Y-540000D01*
X409850Y-541250D01*
X410780Y-542500D01*
X411870Y-543330D01*
X412950Y-543750D01*
X414030D01*
X415120Y-543330D01*
X416050Y-542710D01*
X416830Y-541880D01*
G01X422090Y-543750D02*
Y-531250D01*
G01X428610D02*
Y-543750D01*
G01Y-537500D02*
X422090D01*
G01X440850Y-543750D02*
X434650D01*
Y-531250D01*
X440850D01*
G01X438370Y-537290D02*
X434650D01*
G01X446890Y-542080D02*
X448140Y-543130D01*
X449530Y-543750D01*
X450770D01*
X452010Y-543130D01*
X452940Y-542080D01*
X453410Y-540620D01*
X453100Y-539170D01*
X452320Y-537920D01*
X450920Y-537080D01*
X449070Y-536670D01*
X447980Y-535830D01*
X447510Y-534380D01*
X447830Y-532920D01*
X448600Y-531880D01*
X449680Y-531250D01*
X450770D01*
X451860Y-531670D01*
X452790Y-532710D01*
G01X256400Y-550000D02*
Y-600000D01*
G01X285540Y-568750D02*
Y-556250D01*
X288640D01*
X289880Y-556880D01*
X290810Y-557710D01*
X291590Y-558960D01*
X292210Y-560420D01*
X292360Y-562500D01*
X292210Y-564580D01*
X291590Y-566040D01*
X290810Y-567290D01*
X289880Y-568130D01*
X288640Y-568750D01*
X285540D01*
G01X298250D02*
Y-556250D01*
X302120D01*
X303360Y-556880D01*
X304140Y-557710D01*
X304450Y-559380D01*
X304140Y-561040D01*
X303210Y-562080D01*
X302120Y-562710D01*
X298250D01*
G01X302120D02*
X304450Y-568750D01*
G01X311890Y-556250D02*
X315610D01*
G01X313750D02*
Y-568750D01*
G01X311890D02*
X315610D01*
G01X323050Y-556250D02*
Y-568750D01*
X329250D01*
G01X335450Y-556250D02*
Y-568750D01*
X341650D01*
G01X354050D02*
X347850D01*
Y-556250D01*
X354050D01*
G01X351570Y-562290D02*
X347850D01*
G01X359940Y-568750D02*
Y-556250D01*
X363040D01*
X364280Y-556880D01*
X365210Y-557710D01*
X365990Y-558960D01*
X366610Y-560420D01*
X366760Y-562500D01*
X366610Y-564580D01*
X365990Y-566040D01*
X365210Y-567290D01*
X364280Y-568130D01*
X363040Y-568750D01*
X359940D01*
G01X371100Y-572920D02*
X380400D01*
G01X384890Y-567080D02*
X386140Y-568130D01*
X387530Y-568750D01*
X388770D01*
X390010Y-568130D01*
X390940Y-567080D01*
X391410Y-565620D01*
X391100Y-564170D01*
X390320Y-562920D01*
X388920Y-562080D01*
X387070Y-561670D01*
X385980Y-560830D01*
X385510Y-559380D01*
X385830Y-557920D01*
X386600Y-556880D01*
X387680Y-556250D01*
X388770D01*
X389860Y-556670D01*
X390790Y-557710D01*
G01X398690Y-556250D02*
X402410D01*
G01X400550D02*
Y-568750D01*
G01X398690D02*
X402410D01*
G01X410000Y-556250D02*
X415900D01*
X410000Y-568750D01*
X415900D01*
G01X428450D02*
X422250D01*
Y-556250D01*
X428450D01*
G01X425970Y-562290D02*
X422250D01*
G01X355140Y-589580D02*
X359160D01*
G01X431450Y-606250D02*
Y-618750D01*
G01X427890Y-606250D02*
X435010D01*
G01X443850Y-618750D02*
X442610Y-618540D01*
X441530Y-617710D01*
X440590Y-616460D01*
X439970Y-615000D01*
X439660Y-613330D01*
Y-611670D01*
X439970Y-610000D01*
X440590Y-608540D01*
X441530Y-607290D01*
X442610Y-606460D01*
X443850Y-606250D01*
X445090Y-606460D01*
X446170Y-607290D01*
X447110Y-608540D01*
X447730Y-610000D01*
X448040Y-611670D01*
Y-613330D01*
X447730Y-615000D01*
X447110Y-616460D01*
X446170Y-617710D01*
X445090Y-618540D01*
X443850Y-618750D01*
G01X456250Y-606250D02*
Y-618750D01*
G01X452690Y-606250D02*
X459810D01*
G01X464770Y-618750D02*
X468650Y-606250D01*
X472530Y-618750D01*
G01X471130Y-614380D02*
X466170D01*
G01X477950Y-606250D02*
Y-618750D01*
X484150D01*
G01X502590D02*
Y-606250D01*
G01X509110D02*
Y-618750D01*
G01Y-612500D02*
X502590D01*
G01X518250Y-618750D02*
X517010Y-618540D01*
X515930Y-617710D01*
X514990Y-616460D01*
X514370Y-615000D01*
X514060Y-613330D01*
Y-611670D01*
X514370Y-610000D01*
X514990Y-608540D01*
X515930Y-607290D01*
X517010Y-606460D01*
X518250Y-606250D01*
X519490Y-606460D01*
X520570Y-607290D01*
X521510Y-608540D01*
X522130Y-610000D01*
X522440Y-611670D01*
Y-613330D01*
X522130Y-615000D01*
X521510Y-616460D01*
X520570Y-617710D01*
X519490Y-618540D01*
X518250Y-618750D01*
G01X527550Y-606250D02*
Y-618750D01*
X533750D01*
G01X546150D02*
X539950D01*
Y-606250D01*
X546150D01*
G01X543670Y-612290D02*
X539950D01*
G01X552190Y-617080D02*
X553440Y-618130D01*
X554830Y-618750D01*
X556070D01*
X557310Y-618130D01*
X558240Y-617080D01*
X558710Y-615620D01*
X558400Y-614170D01*
X557620Y-612920D01*
X556220Y-612080D01*
X554370Y-611670D01*
X553280Y-610830D01*
X552810Y-609380D01*
X553130Y-607920D01*
X553900Y-606880D01*
X554980Y-606250D01*
X556070D01*
X557160Y-606670D01*
X558090Y-607710D01*
G01X567850Y-619170D02*
X567540Y-618960D01*
Y-618540D01*
X567850Y-618330D01*
X568160Y-618540D01*
Y-618960D01*
X567850Y-619170D01*
G01Y-613540D02*
X567540Y-613330D01*
Y-612920D01*
X567850Y-612710D01*
X568160Y-612920D01*
Y-613330D01*
X567850Y-613540D01*
G01X457900Y-550000D02*
Y-600000D01*
G01X487350Y-593750D02*
Y-581250D01*
X491070D01*
X492310Y-581880D01*
X493240Y-583330D01*
X493550Y-585000D01*
X493240Y-586670D01*
X492460Y-587920D01*
X491070Y-588540D01*
X487350D01*
G01X499750Y-581250D02*
Y-593750D01*
X505950D01*
G01X511370D02*
X515250Y-581250D01*
X519130Y-593750D01*
G01X517730Y-589380D02*
X512770D01*
G01X527650Y-581250D02*
Y-593750D01*
G01X524090Y-581250D02*
X531210D01*
G01X543150Y-593750D02*
X536950D01*
Y-581250D01*
X543150D01*
G01X540670Y-587290D02*
X536950D01*
G01X549040Y-593750D02*
Y-581250D01*
X552140D01*
X553380Y-581880D01*
X554310Y-582710D01*
X555090Y-583960D01*
X555710Y-585420D01*
X555860Y-587500D01*
X555710Y-589580D01*
X555090Y-591040D01*
X554310Y-592290D01*
X553380Y-593130D01*
X552140Y-593750D01*
X549040D01*
G01X487350Y-568750D02*
Y-556250D01*
X491070D01*
X492310Y-556880D01*
X493240Y-558330D01*
X493550Y-560000D01*
X493240Y-561670D01*
X492460Y-562920D01*
X491070Y-563540D01*
X487350D01*
G01X499750Y-556250D02*
Y-568750D01*
X505950D01*
G01X511370D02*
X515250Y-556250D01*
X519130Y-568750D01*
G01X517730Y-564380D02*
X512770D01*
G01X527650Y-556250D02*
Y-568750D01*
G01X524090Y-556250D02*
X531210D01*
G01X543150Y-568750D02*
X536950D01*
Y-556250D01*
X543150D01*
G01X540670Y-562290D02*
X536950D01*
G01X549040Y-568750D02*
Y-556250D01*
X552140D01*
X553380Y-556880D01*
X554310Y-557710D01*
X555090Y-558960D01*
X555710Y-560420D01*
X555860Y-562500D01*
X555710Y-564580D01*
X555090Y-566040D01*
X554310Y-567290D01*
X553380Y-568130D01*
X552140Y-568750D01*
X549040D01*
G01X585000Y-550000D02*
Y-600000D01*
G01X611350Y-568750D02*
X610110Y-568540D01*
X609030Y-567710D01*
X608090Y-566460D01*
X607470Y-565000D01*
X607160Y-563330D01*
Y-561670D01*
X607470Y-560000D01*
X608090Y-558540D01*
X609030Y-557290D01*
X610110Y-556460D01*
X611350Y-556250D01*
X612590Y-556460D01*
X613670Y-557290D01*
X614610Y-558540D01*
X615230Y-560000D01*
X615540Y-561670D01*
Y-563330D01*
X615230Y-565000D01*
X614610Y-566460D01*
X613670Y-567710D01*
X612590Y-568540D01*
X611350Y-568750D01*
G01X612590Y-565420D02*
X614450Y-568750D01*
G01X623750Y-556250D02*
Y-568750D01*
G01X620190Y-556250D02*
X627310D01*
G01X636150Y-568750D02*
Y-563130D01*
X633050Y-556250D01*
G01X639250D02*
X636150Y-563130D01*
G01X623750Y-618750D02*
X624830Y-618540D01*
X626070Y-617920D01*
X626850Y-616880D01*
X627160Y-615420D01*
X626850Y-613960D01*
X625920Y-612710D01*
X624520Y-612080D01*
X622980D01*
X622040Y-611670D01*
X621270Y-610630D01*
X620960Y-609170D01*
X621430Y-607710D01*
X622510Y-606670D01*
X623750Y-606250D01*
X624990Y-606670D01*
X626070Y-607710D01*
X626540Y-609170D01*
X626230Y-610630D01*
X625460Y-611670D01*
X624520Y-612080D01*
X622980D01*
X621580Y-612710D01*
X620650Y-613960D01*
X620340Y-615420D01*
X620650Y-616880D01*
X621430Y-617920D01*
X622670Y-618540D01*
X623750Y-618750D01*
G01Y-593750D02*
X624830Y-593540D01*
X626070Y-592920D01*
X626850Y-591880D01*
X627160Y-590420D01*
X626850Y-588960D01*
X625920Y-587710D01*
X624520Y-587080D01*
X622980D01*
X622040Y-586670D01*
X621270Y-585630D01*
X620960Y-584170D01*
X621430Y-582710D01*
X622510Y-581670D01*
X623750Y-581250D01*
X624990Y-581670D01*
X626070Y-582710D01*
X626540Y-584170D01*
X626230Y-585630D01*
X625460Y-586670D01*
X624520Y-587080D01*
X622980D01*
X621580Y-587710D01*
X620650Y-588960D01*
X620340Y-590420D01*
X620650Y-591880D01*
X621430Y-592920D01*
X622670Y-593540D01*
X623750Y-593750D01*
M02*
