G04 ================== begin FILE IDENTIFICATION RECORD ==================*
G04 Layout Name:  PMOD2BNCSIMPLE_v1_06_65mil.brd*
G04 Film Name:    Drill_3-4*
G04 File Format:  Gerber RS274X*
G04 File Origin:  Cadence Allegro 23.1-P001*
G04 Origin Date:  Thu Nov 30 16:24:50 2023*
G04 *
G04 Layer:  MANUFACTURING/NCLEGEND-3-4*
G04 Layer:  BOARD GEOMETRY/OUTLINE*
G04 Layer:  BOARD GEOMETRY/DESIGN_OUTLINE*
G04 Layer:  BOARD GEOMETRY/CUTOUT*
G04 *
G04 Offset:    (0.0000 0.0000)*
G04 Mirror:    No*
G04 Mode:      Positive*
G04 Rotation:  0*
G04 FullContactRelief:  No*
G04 UndefLineWidth:     0.0050*
G04 ================== end FILE IDENTIFICATION RECORD ====================*
%FSLAX55Y55*MOIN*%
%IR0*IPPOS*OFA0.00000B0.00000*MIA0B0*SFA1.00000B1.00000*%
%AMMACRO10*
1,1,.005,.014,.014*
20,1,.005,.014,.014,.014,-.014,0.0*
1,1,.005,.014,-.014*
20,1,.005,.014,-.014,-.014,-.014,0.0*
1,1,.005,-.014,-.014*
20,1,.005,-.014,-.014,-.014,.014,0.0*
1,1,.005,-.014,.014*
20,1,.005,-.014,.014,.014,.014,0.0*
1,1,.005,.014,.014*
%
%ADD10MACRO10*%
%ADD11C,.005*%
G75*
%LPD*%
G75*
G54D10*
X4950Y-96500D03*
X57500Y27150D03*
X75000Y44650D03*
X85000D03*
X95000D03*
X150000D03*
X165000D03*
X175000D03*
X185000D03*
G54D11*
G01X-40000Y-109000D02*
Y-9000D01*
X657500D01*
Y-109000D01*
X-40000D01*
G01X-29000Y-77750D02*
Y-65250D01*
X-23100D01*
G01X-25280Y-71290D02*
X-29000D01*
G01X-15510Y-65250D02*
X-11790D01*
G01X-13650D02*
Y-77750D01*
G01X-15510D02*
X-11790D01*
G01X-320Y-71500D02*
X2780D01*
Y-75250D01*
X1850Y-76500D01*
X760Y-77330D01*
X-780Y-77750D01*
X-2330Y-77330D01*
X-3420Y-76500D01*
X-4350Y-75250D01*
X-4970Y-73790D01*
X-5280Y-72130D01*
Y-70670D01*
X-4970Y-69420D01*
X-4350Y-67960D01*
X-3420Y-66710D01*
X-2490Y-65880D01*
X-1250Y-65250D01*
X-170D01*
X1070Y-65670D01*
X2010Y-66500D01*
G01X7740Y-65250D02*
Y-74210D01*
X8360Y-76080D01*
X9600Y-77330D01*
X11150Y-77750D01*
X12700Y-77330D01*
X13940Y-76080D01*
X14560Y-74210D01*
Y-65250D01*
G01X20450Y-77750D02*
Y-65250D01*
X24320D01*
X25560Y-65880D01*
X26340Y-66710D01*
X26650Y-68380D01*
X26340Y-70040D01*
X25410Y-71080D01*
X24320Y-71710D01*
X20450D01*
G01X24320D02*
X26650Y-77750D01*
G01X39050D02*
X32850D01*
Y-65250D01*
X39050D01*
G01X36570Y-71290D02*
X32850D01*
G01X-40000Y-84000D02*
X657500D01*
G01X-40000Y-59000D02*
X657500D01*
G01X-40000Y-34000D02*
X657500D01*
G01X-30000Y0D02*
X300000D01*
X310000Y10000D01*
Y50000D01*
X300000Y60000D01*
Y400000D01*
X310000Y410000D01*
Y450000D01*
X300000Y460000D01*
X-30000D01*
X-40000Y450000D01*
Y410000D01*
X-30000Y400000D01*
Y60000D01*
X-40000Y50000D01*
Y10000D01*
X-30000Y0D01*
G01X49900Y-59000D02*
Y-109000D01*
G01X73300Y-77750D02*
Y-65250D01*
X79200D01*
G01X77020Y-71290D02*
X73300D01*
G01X86790Y-65250D02*
X90510D01*
G01X88650D02*
Y-77750D01*
G01X86790D02*
X90510D01*
G01X97490D02*
Y-65250D01*
X104610Y-77750D01*
Y-65250D01*
G01X111590D02*
X115310D01*
G01X113450D02*
Y-77750D01*
G01X111590D02*
X115310D01*
G01X122590Y-76080D02*
X123840Y-77130D01*
X125230Y-77750D01*
X126470D01*
X127710Y-77130D01*
X128640Y-76080D01*
X129110Y-74620D01*
X128800Y-73170D01*
X128020Y-71920D01*
X126620Y-71080D01*
X124770Y-70670D01*
X123680Y-69830D01*
X123210Y-68380D01*
X123530Y-66920D01*
X124300Y-65880D01*
X125380Y-65250D01*
X126470D01*
X127560Y-65670D01*
X128490Y-66710D01*
G01X134990Y-77750D02*
Y-65250D01*
G01X141510D02*
Y-77750D01*
G01Y-71500D02*
X134990D01*
G01X153750Y-77750D02*
X147550D01*
Y-65250D01*
X153750D01*
G01X151270Y-71290D02*
X147550D01*
G01X159640Y-77750D02*
Y-65250D01*
X162740D01*
X163980Y-65880D01*
X164910Y-66710D01*
X165690Y-67960D01*
X166310Y-69420D01*
X166460Y-71500D01*
X166310Y-73580D01*
X165690Y-75040D01*
X164910Y-76290D01*
X163980Y-77130D01*
X162740Y-77750D01*
X159640D01*
G01X170800Y-81920D02*
X180100D01*
G01X184590Y-76080D02*
X185840Y-77130D01*
X187230Y-77750D01*
X188470D01*
X189710Y-77130D01*
X190640Y-76080D01*
X191110Y-74620D01*
X190800Y-73170D01*
X190020Y-71920D01*
X188620Y-71080D01*
X186770Y-70670D01*
X185680Y-69830D01*
X185210Y-68380D01*
X185530Y-66920D01*
X186300Y-65880D01*
X187380Y-65250D01*
X188470D01*
X189560Y-65670D01*
X190490Y-66710D01*
G01X198390Y-65250D02*
X202110D01*
G01X200250D02*
Y-77750D01*
G01X198390D02*
X202110D01*
G01X209700Y-65250D02*
X215600D01*
X209700Y-77750D01*
X215600D01*
G01X228150D02*
X221950D01*
Y-65250D01*
X228150D01*
G01X225670Y-71290D02*
X221950D01*
G01X125850Y-90250D02*
X124610Y-90670D01*
X123680Y-91710D01*
X123060Y-92960D01*
X122590Y-94630D01*
X122440Y-96500D01*
X122590Y-98380D01*
X123060Y-100040D01*
X123680Y-101290D01*
X124610Y-102330D01*
X125850Y-102750D01*
X127090Y-102330D01*
X128020Y-101290D01*
X128640Y-100040D01*
X129110Y-98380D01*
X129260Y-96500D01*
X129110Y-94630D01*
X128640Y-92960D01*
X128020Y-91710D01*
X127090Y-90670D01*
X125850Y-90250D01*
G01X138250Y-103170D02*
X137940Y-102960D01*
Y-102540D01*
X138250Y-102330D01*
X138560Y-102540D01*
Y-102960D01*
X138250Y-103170D01*
G01X150650Y-90250D02*
X149410Y-90670D01*
X148480Y-91710D01*
X147860Y-92960D01*
X147390Y-94630D01*
X147240Y-96500D01*
X147390Y-98380D01*
X147860Y-100040D01*
X148480Y-101290D01*
X149410Y-102330D01*
X150650Y-102750D01*
X151890Y-102330D01*
X152820Y-101290D01*
X153440Y-100040D01*
X153910Y-98380D01*
X154060Y-96500D01*
X153910Y-94630D01*
X153440Y-92960D01*
X152820Y-91710D01*
X151890Y-90670D01*
X150650Y-90250D01*
G01X160100Y-92330D02*
X161040Y-91080D01*
X162120Y-90460D01*
X163360Y-90250D01*
X164910Y-90670D01*
X166000Y-91710D01*
X166310Y-92960D01*
X166150Y-94210D01*
X165530Y-95250D01*
X162430Y-97330D01*
X161040Y-98790D01*
X160100Y-100880D01*
X159790Y-102750D01*
X166310D01*
G01X175450D02*
X176530Y-102540D01*
X177770Y-101920D01*
X178550Y-100880D01*
X178860Y-99420D01*
X178550Y-97960D01*
X177620Y-96710D01*
X176220Y-96080D01*
X174680D01*
X173740Y-95670D01*
X172970Y-94630D01*
X172660Y-93170D01*
X173130Y-91710D01*
X174210Y-90670D01*
X175450Y-90250D01*
X176690Y-90670D01*
X177770Y-91710D01*
X178240Y-93170D01*
X177930Y-94630D01*
X177160Y-95670D01*
X176220Y-96080D01*
X174680D01*
X173280Y-96710D01*
X172350Y-97960D01*
X172040Y-99420D01*
X172350Y-100880D01*
X173130Y-101920D01*
X174370Y-102540D01*
X175450Y-102750D01*
G01X144140Y-27750D02*
Y-15250D01*
X147240D01*
X148480Y-15880D01*
X149410Y-16710D01*
X150190Y-17960D01*
X150810Y-19420D01*
X150960Y-21500D01*
X150810Y-23580D01*
X150190Y-25040D01*
X149410Y-26290D01*
X148480Y-27130D01*
X147240Y-27750D01*
X144140D01*
G01X156850D02*
Y-15250D01*
X160720D01*
X161960Y-15880D01*
X162740Y-16710D01*
X163050Y-18380D01*
X162740Y-20040D01*
X161810Y-21080D01*
X160720Y-21710D01*
X156850D01*
G01X160720D02*
X163050Y-27750D01*
G01X170490Y-15250D02*
X174210D01*
G01X172350D02*
Y-27750D01*
G01X170490D02*
X174210D01*
G01X181650Y-15250D02*
Y-27750D01*
X187850D01*
G01X194050Y-15250D02*
Y-27750D01*
X200250D01*
G01X225360Y-16290D02*
X224430Y-15670D01*
X223350Y-15250D01*
X222110D01*
X220710Y-15880D01*
X219630Y-16920D01*
X218850Y-18170D01*
X218230Y-20250D01*
X218070Y-22130D01*
X218390Y-24000D01*
X218850Y-25250D01*
X219780Y-26500D01*
X220870Y-27330D01*
X221950Y-27750D01*
X223030D01*
X224120Y-27330D01*
X225050Y-26710D01*
X225830Y-25880D01*
G01X231090Y-27750D02*
Y-15250D01*
G01X237610D02*
Y-27750D01*
G01Y-21500D02*
X231090D01*
G01X242870Y-27750D02*
X246750Y-15250D01*
X250630Y-27750D01*
G01X249230Y-23380D02*
X244270D01*
G01X256050Y-27750D02*
Y-15250D01*
X259920D01*
X261160Y-15880D01*
X261940Y-16710D01*
X262250Y-18380D01*
X261940Y-20040D01*
X261010Y-21080D01*
X259920Y-21710D01*
X256050D01*
G01X259920D02*
X262250Y-27750D01*
G01X271550Y-15250D02*
Y-27750D01*
G01X267990Y-15250D02*
X275110D01*
G01X283950Y-28170D02*
X283640Y-27960D01*
Y-27540D01*
X283950Y-27330D01*
X284260Y-27540D01*
Y-27960D01*
X283950Y-28170D01*
G01Y-22540D02*
X283640Y-22330D01*
Y-21920D01*
X283950Y-21710D01*
X284260Y-21920D01*
Y-22330D01*
X283950Y-22540D01*
G01X309680Y-21500D02*
X312780D01*
Y-25250D01*
X311850Y-26500D01*
X310760Y-27330D01*
X309220Y-27750D01*
X307670Y-27330D01*
X306580Y-26500D01*
X305650Y-25250D01*
X305030Y-23790D01*
X304720Y-22130D01*
Y-20670D01*
X305030Y-19420D01*
X305650Y-17960D01*
X306580Y-16710D01*
X307510Y-15880D01*
X308750Y-15250D01*
X309830D01*
X311070Y-15670D01*
X312010Y-16500D01*
G01X317590Y-27750D02*
Y-15250D01*
X324710Y-27750D01*
Y-15250D01*
G01X330140Y-27750D02*
Y-15250D01*
X333240D01*
X334480Y-15880D01*
X335410Y-16710D01*
X336190Y-17960D01*
X336810Y-19420D01*
X336960Y-21500D01*
X336810Y-23580D01*
X336190Y-25040D01*
X335410Y-26290D01*
X334480Y-27130D01*
X333240Y-27750D01*
X330140D01*
G01X343000Y-17330D02*
X343940Y-16080D01*
X345020Y-15460D01*
X346260Y-15250D01*
X347810Y-15670D01*
X348900Y-16710D01*
X349210Y-17960D01*
X349050Y-19210D01*
X348430Y-20250D01*
X345330Y-22330D01*
X343940Y-23790D01*
X343000Y-25880D01*
X342690Y-27750D01*
X349210D01*
G01X370750Y-15250D02*
Y-27750D01*
G01X368580Y-19420D02*
X372920D01*
G01X383150Y-27750D02*
X382220Y-27540D01*
X381290Y-26710D01*
X380670Y-25250D01*
X380360Y-23580D01*
X380670Y-21920D01*
X381290Y-20460D01*
X382220Y-19630D01*
X383150Y-19420D01*
X384080Y-19630D01*
X385010Y-20460D01*
X385630Y-21920D01*
X385790Y-23580D01*
X385630Y-25250D01*
X385010Y-26710D01*
X384080Y-27540D01*
X383150Y-27750D01*
G01X409190Y-21080D02*
X409810Y-20460D01*
X410270Y-19420D01*
X410590Y-17960D01*
X410270Y-16710D01*
X409660Y-15880D01*
X408570Y-15250D01*
X404390D01*
Y-27750D01*
X409500D01*
X410590Y-26920D01*
X411210Y-25670D01*
X411510Y-24210D01*
X411210Y-22750D01*
X410270Y-21500D01*
X409190Y-21080D01*
X404390D01*
G01X420350Y-27750D02*
X419110Y-27540D01*
X418030Y-26710D01*
X417090Y-25460D01*
X416470Y-24000D01*
X416160Y-22330D01*
Y-20670D01*
X416470Y-19000D01*
X417090Y-17540D01*
X418030Y-16290D01*
X419110Y-15460D01*
X420350Y-15250D01*
X421590Y-15460D01*
X422670Y-16290D01*
X423610Y-17540D01*
X424230Y-19000D01*
X424540Y-20670D01*
Y-22330D01*
X424230Y-24000D01*
X423610Y-25460D01*
X422670Y-26710D01*
X421590Y-27540D01*
X420350Y-27750D01*
G01X432750Y-15250D02*
Y-27750D01*
G01X429190Y-15250D02*
X436310D01*
G01X445150D02*
Y-27750D01*
G01X441590Y-15250D02*
X448710D01*
G01X457550Y-27750D02*
X456310Y-27540D01*
X455230Y-26710D01*
X454290Y-25460D01*
X453670Y-24000D01*
X453360Y-22330D01*
Y-20670D01*
X453670Y-19000D01*
X454290Y-17540D01*
X455230Y-16290D01*
X456310Y-15460D01*
X457550Y-15250D01*
X458790Y-15460D01*
X459870Y-16290D01*
X460810Y-17540D01*
X461430Y-19000D01*
X461740Y-20670D01*
Y-22330D01*
X461430Y-24000D01*
X460810Y-25460D01*
X459870Y-26710D01*
X458790Y-27540D01*
X457550Y-27750D01*
G01X465920D02*
Y-15250D01*
X469950Y-25670D01*
X473980Y-15250D01*
Y-27750D01*
G01X168470Y-52750D02*
X172350Y-40250D01*
X176230Y-52750D01*
G01X174830Y-48380D02*
X169870D01*
G01X181650Y-40250D02*
Y-52750D01*
X187850D01*
G01X194050Y-40250D02*
Y-52750D01*
X200250D01*
G01X218540Y-40250D02*
Y-49210D01*
X219160Y-51080D01*
X220400Y-52330D01*
X221950Y-52750D01*
X223500Y-52330D01*
X224740Y-51080D01*
X225360Y-49210D01*
Y-40250D01*
G01X230790Y-52750D02*
Y-40250D01*
X237910Y-52750D01*
Y-40250D01*
G01X244890D02*
X248610D01*
G01X246750D02*
Y-52750D01*
G01X244890D02*
X248610D01*
G01X259150Y-40250D02*
Y-52750D01*
G01X255590Y-40250D02*
X262710D01*
G01X268290Y-51080D02*
X269540Y-52130D01*
X270930Y-52750D01*
X272170D01*
X273410Y-52130D01*
X274340Y-51080D01*
X274810Y-49620D01*
X274500Y-48170D01*
X273720Y-46920D01*
X272320Y-46080D01*
X270470Y-45670D01*
X269380Y-44830D01*
X268910Y-43380D01*
X269230Y-41920D01*
X270000Y-40880D01*
X271080Y-40250D01*
X272170D01*
X273260Y-40670D01*
X274190Y-41710D01*
G01X292470Y-52750D02*
X296350Y-40250D01*
X300230Y-52750D01*
G01X298830Y-48380D02*
X293870D01*
G01X305650Y-52750D02*
Y-40250D01*
X309520D01*
X310760Y-40880D01*
X311540Y-41710D01*
X311850Y-43380D01*
X311540Y-45040D01*
X310610Y-46080D01*
X309520Y-46710D01*
X305650D01*
G01X309520D02*
X311850Y-52750D01*
G01X324250D02*
X318050D01*
Y-40250D01*
X324250D01*
G01X321770Y-46290D02*
X318050D01*
G01X344090Y-40250D02*
X347810D01*
G01X345950D02*
Y-52750D01*
G01X344090D02*
X347810D01*
G01X354790D02*
Y-40250D01*
X361910Y-52750D01*
Y-40250D01*
G01X381290D02*
X385010D01*
G01X383150D02*
Y-52750D01*
G01X381290D02*
X385010D01*
G01X391990D02*
Y-40250D01*
X399110Y-52750D01*
Y-40250D01*
G01X411360Y-41290D02*
X410430Y-40670D01*
X409350Y-40250D01*
X408110D01*
X406710Y-40880D01*
X405630Y-41920D01*
X404850Y-43170D01*
X404230Y-45250D01*
X404070Y-47130D01*
X404390Y-49000D01*
X404850Y-50250D01*
X405780Y-51500D01*
X406870Y-52330D01*
X407950Y-52750D01*
X409030D01*
X410120Y-52330D01*
X411050Y-51710D01*
X411830Y-50880D01*
G01X417090Y-52750D02*
Y-40250D01*
G01X423610D02*
Y-52750D01*
G01Y-46500D02*
X417090D01*
G01X435850Y-52750D02*
X429650D01*
Y-40250D01*
X435850D01*
G01X433370Y-46290D02*
X429650D01*
G01X441890Y-51080D02*
X443140Y-52130D01*
X444530Y-52750D01*
X445770D01*
X447010Y-52130D01*
X447940Y-51080D01*
X448410Y-49620D01*
X448100Y-48170D01*
X447320Y-46920D01*
X445920Y-46080D01*
X444070Y-45670D01*
X442980Y-44830D01*
X442510Y-43380D01*
X442830Y-41920D01*
X443600Y-40880D01*
X444680Y-40250D01*
X445770D01*
X446860Y-40670D01*
X447790Y-41710D01*
G01X251400Y-59000D02*
Y-109000D01*
G01X280540Y-77750D02*
Y-65250D01*
X283640D01*
X284880Y-65880D01*
X285810Y-66710D01*
X286590Y-67960D01*
X287210Y-69420D01*
X287360Y-71500D01*
X287210Y-73580D01*
X286590Y-75040D01*
X285810Y-76290D01*
X284880Y-77130D01*
X283640Y-77750D01*
X280540D01*
G01X293250D02*
Y-65250D01*
X297120D01*
X298360Y-65880D01*
X299140Y-66710D01*
X299450Y-68380D01*
X299140Y-70040D01*
X298210Y-71080D01*
X297120Y-71710D01*
X293250D01*
G01X297120D02*
X299450Y-77750D01*
G01X306890Y-65250D02*
X310610D01*
G01X308750D02*
Y-77750D01*
G01X306890D02*
X310610D01*
G01X318050Y-65250D02*
Y-77750D01*
X324250D01*
G01X330450Y-65250D02*
Y-77750D01*
X336650D01*
G01X349050D02*
X342850D01*
Y-65250D01*
X349050D01*
G01X346570Y-71290D02*
X342850D01*
G01X354940Y-77750D02*
Y-65250D01*
X358040D01*
X359280Y-65880D01*
X360210Y-66710D01*
X360990Y-67960D01*
X361610Y-69420D01*
X361760Y-71500D01*
X361610Y-73580D01*
X360990Y-75040D01*
X360210Y-76290D01*
X359280Y-77130D01*
X358040Y-77750D01*
X354940D01*
G01X366100Y-81920D02*
X375400D01*
G01X379890Y-76080D02*
X381140Y-77130D01*
X382530Y-77750D01*
X383770D01*
X385010Y-77130D01*
X385940Y-76080D01*
X386410Y-74620D01*
X386100Y-73170D01*
X385320Y-71920D01*
X383920Y-71080D01*
X382070Y-70670D01*
X380980Y-69830D01*
X380510Y-68380D01*
X380830Y-66920D01*
X381600Y-65880D01*
X382680Y-65250D01*
X383770D01*
X384860Y-65670D01*
X385790Y-66710D01*
G01X393690Y-65250D02*
X397410D01*
G01X395550D02*
Y-77750D01*
G01X393690D02*
X397410D01*
G01X405000Y-65250D02*
X410900D01*
X405000Y-77750D01*
X410900D01*
G01X423450D02*
X417250D01*
Y-65250D01*
X423450D01*
G01X420970Y-71290D02*
X417250D01*
G01X350140Y-98580D02*
X354160D01*
G01X426450Y-115250D02*
Y-127750D01*
G01X422890Y-115250D02*
X430010D01*
G01X438850Y-127750D02*
X437610Y-127540D01*
X436530Y-126710D01*
X435590Y-125460D01*
X434970Y-124000D01*
X434660Y-122330D01*
Y-120670D01*
X434970Y-119000D01*
X435590Y-117540D01*
X436530Y-116290D01*
X437610Y-115460D01*
X438850Y-115250D01*
X440090Y-115460D01*
X441170Y-116290D01*
X442110Y-117540D01*
X442730Y-119000D01*
X443040Y-120670D01*
Y-122330D01*
X442730Y-124000D01*
X442110Y-125460D01*
X441170Y-126710D01*
X440090Y-127540D01*
X438850Y-127750D01*
G01X451250Y-115250D02*
Y-127750D01*
G01X447690Y-115250D02*
X454810D01*
G01X459770Y-127750D02*
X463650Y-115250D01*
X467530Y-127750D01*
G01X466130Y-123380D02*
X461170D01*
G01X472950Y-115250D02*
Y-127750D01*
X479150D01*
G01X497590D02*
Y-115250D01*
G01X504110D02*
Y-127750D01*
G01Y-121500D02*
X497590D01*
G01X513250Y-127750D02*
X512010Y-127540D01*
X510930Y-126710D01*
X509990Y-125460D01*
X509370Y-124000D01*
X509060Y-122330D01*
Y-120670D01*
X509370Y-119000D01*
X509990Y-117540D01*
X510930Y-116290D01*
X512010Y-115460D01*
X513250Y-115250D01*
X514490Y-115460D01*
X515570Y-116290D01*
X516510Y-117540D01*
X517130Y-119000D01*
X517440Y-120670D01*
Y-122330D01*
X517130Y-124000D01*
X516510Y-125460D01*
X515570Y-126710D01*
X514490Y-127540D01*
X513250Y-127750D01*
G01X522550Y-115250D02*
Y-127750D01*
X528750D01*
G01X541150D02*
X534950D01*
Y-115250D01*
X541150D01*
G01X538670Y-121290D02*
X534950D01*
G01X547190Y-126080D02*
X548440Y-127130D01*
X549830Y-127750D01*
X551070D01*
X552310Y-127130D01*
X553240Y-126080D01*
X553710Y-124620D01*
X553400Y-123170D01*
X552620Y-121920D01*
X551220Y-121080D01*
X549370Y-120670D01*
X548280Y-119830D01*
X547810Y-118380D01*
X548130Y-116920D01*
X548900Y-115880D01*
X549980Y-115250D01*
X551070D01*
X552160Y-115670D01*
X553090Y-116710D01*
G01X562850Y-128170D02*
X562540Y-127960D01*
Y-127540D01*
X562850Y-127330D01*
X563160Y-127540D01*
Y-127960D01*
X562850Y-128170D01*
G01Y-122540D02*
X562540Y-122330D01*
Y-121920D01*
X562850Y-121710D01*
X563160Y-121920D01*
Y-122330D01*
X562850Y-122540D01*
G01X452900Y-59000D02*
Y-109000D01*
G01X482350Y-102750D02*
Y-90250D01*
X486070D01*
X487310Y-90880D01*
X488240Y-92330D01*
X488550Y-94000D01*
X488240Y-95670D01*
X487460Y-96920D01*
X486070Y-97540D01*
X482350D01*
G01X494750Y-90250D02*
Y-102750D01*
X500950D01*
G01X506370D02*
X510250Y-90250D01*
X514130Y-102750D01*
G01X512730Y-98380D02*
X507770D01*
G01X522650Y-90250D02*
Y-102750D01*
G01X519090Y-90250D02*
X526210D01*
G01X538150Y-102750D02*
X531950D01*
Y-90250D01*
X538150D01*
G01X535670Y-96290D02*
X531950D01*
G01X544040Y-102750D02*
Y-90250D01*
X547140D01*
X548380Y-90880D01*
X549310Y-91710D01*
X550090Y-92960D01*
X550710Y-94420D01*
X550860Y-96500D01*
X550710Y-98580D01*
X550090Y-100040D01*
X549310Y-101290D01*
X548380Y-102130D01*
X547140Y-102750D01*
X544040D01*
G01X482350Y-77750D02*
Y-65250D01*
X486070D01*
X487310Y-65880D01*
X488240Y-67330D01*
X488550Y-69000D01*
X488240Y-70670D01*
X487460Y-71920D01*
X486070Y-72540D01*
X482350D01*
G01X494750Y-65250D02*
Y-77750D01*
X500950D01*
G01X506370D02*
X510250Y-65250D01*
X514130Y-77750D01*
G01X512730Y-73380D02*
X507770D01*
G01X522650Y-65250D02*
Y-77750D01*
G01X519090Y-65250D02*
X526210D01*
G01X538150Y-77750D02*
X531950D01*
Y-65250D01*
X538150D01*
G01X535670Y-71290D02*
X531950D01*
G01X544040Y-77750D02*
Y-65250D01*
X547140D01*
X548380Y-65880D01*
X549310Y-66710D01*
X550090Y-67960D01*
X550710Y-69420D01*
X550860Y-71500D01*
X550710Y-73580D01*
X550090Y-75040D01*
X549310Y-76290D01*
X548380Y-77130D01*
X547140Y-77750D01*
X544040D01*
G01X580000Y-59000D02*
Y-109000D01*
G01X606350Y-77750D02*
X605110Y-77540D01*
X604030Y-76710D01*
X603090Y-75460D01*
X602470Y-74000D01*
X602160Y-72330D01*
Y-70670D01*
X602470Y-69000D01*
X603090Y-67540D01*
X604030Y-66290D01*
X605110Y-65460D01*
X606350Y-65250D01*
X607590Y-65460D01*
X608670Y-66290D01*
X609610Y-67540D01*
X610230Y-69000D01*
X610540Y-70670D01*
Y-72330D01*
X610230Y-74000D01*
X609610Y-75460D01*
X608670Y-76710D01*
X607590Y-77540D01*
X606350Y-77750D01*
G01X607590Y-74420D02*
X609450Y-77750D01*
G01X618750Y-65250D02*
Y-77750D01*
G01X615190Y-65250D02*
X622310D01*
G01X631150Y-77750D02*
Y-72130D01*
X628050Y-65250D01*
G01X634250D02*
X631150Y-72130D01*
G01X618750Y-127750D02*
X619830Y-127540D01*
X621070Y-126920D01*
X621850Y-125880D01*
X622160Y-124420D01*
X621850Y-122960D01*
X620920Y-121710D01*
X619520Y-121080D01*
X617980D01*
X617040Y-120670D01*
X616270Y-119630D01*
X615960Y-118170D01*
X616430Y-116710D01*
X617510Y-115670D01*
X618750Y-115250D01*
X619990Y-115670D01*
X621070Y-116710D01*
X621540Y-118170D01*
X621230Y-119630D01*
X620460Y-120670D01*
X619520Y-121080D01*
X617980D01*
X616580Y-121710D01*
X615650Y-122960D01*
X615340Y-124420D01*
X615650Y-125880D01*
X616430Y-126920D01*
X617670Y-127540D01*
X618750Y-127750D01*
G01Y-102750D02*
X619830Y-102540D01*
X621070Y-101920D01*
X621850Y-100880D01*
X622160Y-99420D01*
X621850Y-97960D01*
X620920Y-96710D01*
X619520Y-96080D01*
X617980D01*
X617040Y-95670D01*
X616270Y-94630D01*
X615960Y-93170D01*
X616430Y-91710D01*
X617510Y-90670D01*
X618750Y-90250D01*
X619990Y-90670D01*
X621070Y-91710D01*
X621540Y-93170D01*
X621230Y-94630D01*
X620460Y-95670D01*
X619520Y-96080D01*
X617980D01*
X616580Y-96710D01*
X615650Y-97960D01*
X615340Y-99420D01*
X615650Y-100880D01*
X616430Y-101920D01*
X617670Y-102540D01*
X618750Y-102750D01*
M02*
