G04 ================== begin FILE IDENTIFICATION RECORD ==================*
G04 Layout Name:  PMOD2BNCSIMPLE_v1_06_65mil_cheap.brd*
G04 Film Name:    Silkscreen_Top*
G04 File Format:  Gerber RS274X*
G04 File Origin:  Cadence Allegro 23.1-P001*
G04 Origin Date:  Thu Nov 30 21:30:10 2023*
G04 *
G04 Layer:  PACKAGE GEOMETRY/SILKSCREEN_TOP*
G04 *
G04 Offset:    (0.0000 0.0000)*
G04 Mirror:    No*
G04 Mode:      Positive*
G04 Rotation:  0*
G04 FullContactRelief:  No*
G04 UndefLineWidth:     0.0050*
G04 ================== end FILE IDENTIFICATION RECORD ====================*
%FSLAX55Y55*MOIN*%
%IR0*IPPOS*OFA0.00000B0.00000*MIA0B0*SFA1.00000B1.00000*%
%ADD10C,.0031*%
%ADD11C,.006*%
%ADD12C,.0024*%
%ADD13C,.0039*%
%ADD14C,.0079*%
%ADD15C,.005*%
G75*
%LPD*%
G75*
G54D10*
G01X-25750Y164250D02*
Y195750D01*
X5750D01*
Y164250D01*
X-25750D01*
G01Y264250D02*
Y295750D01*
X5750D01*
Y264250D01*
X-25750D01*
G01X74250Y164250D02*
Y195750D01*
X105750D01*
Y164250D01*
X74250D01*
G01Y364250D02*
Y395750D01*
X105750D01*
Y364250D01*
X74250D01*
G01X195750Y195750D02*
Y164250D01*
X164250D01*
Y195750D01*
X195750D01*
G01Y295750D02*
Y264250D01*
X164250D01*
Y295750D01*
X195750D01*
G01X295750Y195750D02*
Y164250D01*
X264250D01*
Y195750D01*
X295750D01*
G01Y395750D02*
Y364250D01*
X264250D01*
Y395750D01*
X295750D01*
G54D11*
G01X130000Y3300D02*
X50000D01*
G01X220000D02*
X140000D01*
G54D12*
G01X-25750Y64250D02*
Y95750D01*
X5750D01*
Y64250D01*
X-25750D01*
G01Y364250D02*
Y395750D01*
X5750D01*
Y364250D01*
X-25750D01*
G01X74250Y64250D02*
Y95750D01*
X105750D01*
Y64250D01*
X74250D01*
G01Y264250D02*
Y295750D01*
X105750D01*
Y264250D01*
X74250D01*
G01X164250Y64250D02*
Y95750D01*
X195750D01*
Y64250D01*
X164250D01*
G01Y364250D02*
Y395750D01*
X195750D01*
Y364250D01*
X164250D01*
G01X264250Y64250D02*
Y95750D01*
X295750D01*
Y64250D01*
X264250D01*
G01Y264250D02*
Y295750D01*
X295750D01*
Y264250D01*
X264250D01*
G54D13*
G01X4170Y180000D02*
G02X4570I200J0D01*
G01X4170D02*
G02X4570I200J0D01*
G01X4170Y280000D02*
G02X4570I200J0D01*
G01X4170D02*
G02X4570I200J0D01*
G01X104170Y180000D02*
G02X104570I200J0D01*
G01X104170D02*
G02X104570I200J0D01*
G01X104170Y380000D02*
G02X104570I200J0D01*
G01X104170D02*
G02X104570I200J0D01*
G01X165830Y180000D02*
G02X165430I-200J0D01*
G01X165830D02*
G02X165430I-200J0D01*
G01X165830Y280000D02*
G02X165430I-200J0D01*
G01X165830D02*
G02X165430I-200J0D01*
G01X265830Y180000D02*
G02X265430I-200J0D01*
G01X265830D02*
G02X265430I-200J0D01*
G01X265830Y380000D02*
G02X265430I-200J0D01*
G01X265830D02*
G02X265430I-200J0D01*
G54D14*
G01X-6060Y67400D02*
X-13940D01*
G01X-22600Y76060D02*
Y83940D01*
G01X-6060Y92600D02*
X-13940D01*
G01X-5080Y167600D02*
X-14530D01*
G01X-22400Y175280D02*
Y184720D01*
G01X-14530Y192400D02*
X-5080D01*
G01Y267600D02*
X-14530D01*
G01X-22400Y275280D02*
Y284720D01*
G01X-14530Y292400D02*
X-5080D01*
G01X-6060Y367400D02*
X-13940D01*
G01X-22600Y376060D02*
Y383940D01*
G01X-6060Y392600D02*
X-13940D01*
G01X2600Y76060D02*
Y83940D01*
G01X2400Y184720D02*
Y175280D01*
G01Y284720D02*
Y275280D01*
G01X2600Y376060D02*
Y383940D01*
G01X93940Y67400D02*
X86060D01*
G01X77400Y76060D02*
Y83940D01*
G01X93940Y92600D02*
X86060D01*
G01X94920Y167600D02*
X85470D01*
G01X77600Y175280D02*
Y184720D01*
G01X85470Y192400D02*
X94920D01*
G01X93940Y267400D02*
X86060D01*
G01X77400Y276060D02*
Y283940D01*
G01X93940Y292600D02*
X86060D01*
G01X94920Y367600D02*
X85470D01*
G01X77600Y375280D02*
Y384720D01*
G01X85470Y392400D02*
X94920D01*
G01X102600Y76060D02*
Y83940D01*
G01X102400Y184720D02*
Y175280D01*
G01X102600Y276060D02*
Y283940D01*
G01X102400Y384720D02*
Y375280D01*
G01X183940Y67400D02*
X176060D01*
G01X167400Y76060D02*
Y83940D01*
G01X183940Y92600D02*
X176060D01*
G01X167600Y175280D02*
Y184720D01*
G01X184530Y167600D02*
X175080D01*
G01Y192400D02*
X184530D01*
G01X167600Y275280D02*
Y284720D01*
G01X184530Y267600D02*
X175080D01*
G01Y292400D02*
X184530D01*
G01X183940Y367400D02*
X176060D01*
G01X167400Y376060D02*
Y383940D01*
G01X183940Y392600D02*
X176060D01*
G01X192600Y76060D02*
Y83940D01*
G01X192400Y184720D02*
Y175280D01*
G01Y284720D02*
Y275280D01*
G01X192600Y376060D02*
Y383940D01*
G01X283940Y67400D02*
X276060D01*
G01X267400Y76060D02*
Y83940D01*
G01X283940Y92600D02*
X276060D01*
G01X267600Y175280D02*
Y184720D01*
G01X284530Y167600D02*
X275080D01*
G01Y192400D02*
X284530D01*
G01X283940Y267400D02*
X276060D01*
G01X267400Y276060D02*
Y283940D01*
G01X283940Y292600D02*
X276060D01*
G01X284530Y367600D02*
X275080D01*
G01X267600Y375280D02*
Y384720D01*
G01X275080Y392400D02*
X284530D01*
G01X292600Y76060D02*
Y83940D01*
G01X292400Y184720D02*
Y175280D01*
G01X292600Y276060D02*
Y283940D01*
G01X292400Y384720D02*
Y375280D01*
G54D15*
G01X10930Y81500D02*
X11400Y80750D01*
X11960Y80250D01*
X12610Y80000D01*
X13360Y80250D01*
X13920Y80750D01*
X14480Y81500D01*
X14670Y82500D01*
Y87500D01*
G01X17970Y80000D02*
X20300Y87500D01*
X22630Y80000D01*
G01X21790Y82620D02*
X18810D01*
G01X27800Y80000D02*
Y87500D01*
X26680Y86000D01*
G01Y80000D02*
X28920D01*
G01X10930Y181500D02*
X11400Y180750D01*
X11960Y180250D01*
X12610Y180000D01*
X13360Y180250D01*
X13920Y180750D01*
X14480Y181500D01*
X14670Y182500D01*
Y187500D01*
G01X17970Y180000D02*
X20300Y187500D01*
X22630Y180000D01*
G01X21790Y182620D02*
X18810D01*
G01X25750Y181120D02*
X26310Y180500D01*
X26960Y180120D01*
X27800Y180000D01*
X28640Y180250D01*
X29290Y180750D01*
X29760Y181620D01*
X29850Y182620D01*
X29670Y183620D01*
X29200Y184250D01*
X28550Y184750D01*
X27890Y184870D01*
X27240Y184750D01*
X26400Y184250D01*
X26680Y187500D01*
X29200D01*
G01X10930Y281500D02*
X11400Y280750D01*
X11960Y280250D01*
X12610Y280000D01*
X13360Y280250D01*
X13920Y280750D01*
X14480Y281500D01*
X14670Y282500D01*
Y287500D01*
G01X17970Y280000D02*
X20300Y287500D01*
X22630Y280000D01*
G01X21790Y282620D02*
X18810D01*
G01X26030Y283120D02*
X26680Y284000D01*
X27240Y284500D01*
X27990Y284750D01*
X28640Y284500D01*
X29110Y284000D01*
X29480Y283250D01*
X29570Y282370D01*
X29480Y281620D01*
X29110Y280870D01*
X28550Y280250D01*
X27890Y280000D01*
X27150Y280250D01*
X26490Y281000D01*
X26120Y282130D01*
X26030Y283370D01*
X26210Y285000D01*
X26490Y285880D01*
X26960Y286750D01*
X27610Y287380D01*
X28270Y287500D01*
X28920Y287250D01*
X29390Y286620D01*
G01X10930Y381500D02*
X11400Y380750D01*
X11960Y380250D01*
X12610Y380000D01*
X13360Y380250D01*
X13920Y380750D01*
X14480Y381500D01*
X14670Y382500D01*
Y387500D01*
G01X17970Y380000D02*
X20300Y387500D01*
X22630Y380000D01*
G01X21790Y382620D02*
X18810D01*
G01X26030Y386250D02*
X26590Y387000D01*
X27240Y387380D01*
X27990Y387500D01*
X28920Y387250D01*
X29570Y386620D01*
X29760Y385880D01*
X29670Y385120D01*
X29290Y384500D01*
X27430Y383250D01*
X26590Y382370D01*
X26030Y381120D01*
X25840Y380000D01*
X29760D01*
G01X23430Y442500D02*
Y450000D01*
X25670D01*
X26420Y449620D01*
X26980Y448750D01*
X27170Y447750D01*
X26980Y446750D01*
X26510Y446000D01*
X25670Y445620D01*
X23430D01*
G01X30370Y442500D02*
Y450000D01*
X32800Y443750D01*
X35230Y450000D01*
Y442500D01*
G01X40300D02*
X39550Y442620D01*
X38900Y443120D01*
X38340Y443870D01*
X37970Y444750D01*
X37780Y445750D01*
Y446750D01*
X37970Y447750D01*
X38340Y448630D01*
X38900Y449370D01*
X39550Y449880D01*
X40300Y450000D01*
X41050Y449880D01*
X41700Y449370D01*
X42260Y448630D01*
X42630Y447750D01*
X42820Y446750D01*
Y445750D01*
X42630Y444750D01*
X42260Y443870D01*
X41700Y443120D01*
X41050Y442620D01*
X40300Y442500D01*
G01X45750D02*
Y450000D01*
X47610D01*
X48360Y449620D01*
X48920Y449120D01*
X49390Y448380D01*
X49760Y447500D01*
X49850Y446250D01*
X49760Y445000D01*
X49390Y444120D01*
X48920Y443370D01*
X48360Y442870D01*
X47610Y442500D01*
X45750D01*
G01X53530Y448750D02*
X54090Y449500D01*
X54740Y449880D01*
X55490Y450000D01*
X56420Y449750D01*
X57070Y449120D01*
X57260Y448380D01*
X57170Y447620D01*
X56790Y447000D01*
X54930Y445750D01*
X54090Y444870D01*
X53530Y443620D01*
X53340Y442500D01*
X57260D01*
G01X60840Y443500D02*
X61590Y442870D01*
X62430Y442500D01*
X63170D01*
X63920Y442870D01*
X64480Y443500D01*
X64760Y444380D01*
X64570Y445250D01*
X64110Y446000D01*
X63270Y446500D01*
X62150Y446750D01*
X61490Y447250D01*
X61210Y448120D01*
X61400Y449000D01*
X61870Y449620D01*
X62520Y450000D01*
X63170D01*
X63830Y449750D01*
X64390Y449120D01*
G01X67870Y442500D02*
Y450000D01*
X70300Y443750D01*
X72730Y450000D01*
Y442500D01*
G01X75470D02*
X77800Y450000D01*
X80130Y442500D01*
G01X79290Y445120D02*
X76310D01*
G01X50750Y51120D02*
X51310Y50500D01*
X51960Y50120D01*
X52800Y50000D01*
X53640Y50250D01*
X54290Y50750D01*
X54760Y51620D01*
X54850Y52620D01*
X54670Y53620D01*
X54200Y54250D01*
X53550Y54750D01*
X52890Y54870D01*
X52240Y54750D01*
X51400Y54250D01*
X51680Y57500D01*
X54200D01*
G01X73530Y56250D02*
X74090Y57000D01*
X74740Y57380D01*
X75490Y57500D01*
X76420Y57250D01*
X77070Y56620D01*
X77260Y55880D01*
X77170Y55120D01*
X76790Y54500D01*
X74930Y53250D01*
X74090Y52370D01*
X73530Y51120D01*
X73340Y50000D01*
X77260D01*
G01X88250Y51500D02*
X88810Y50620D01*
X89550Y50120D01*
X90390Y50000D01*
X91140Y50120D01*
X91890Y50750D01*
X92350Y51500D01*
X92450Y52250D01*
X92260Y53120D01*
X91610Y53750D01*
X90950Y54000D01*
X90110D01*
G01X90950D02*
X91510Y54370D01*
X91980Y55000D01*
X92170Y55750D01*
X91980Y56500D01*
X91510Y57120D01*
X90670Y57500D01*
X89830Y57380D01*
X88990Y56870D01*
G01X106420Y50000D02*
Y57500D01*
X102970Y52130D01*
X107630D01*
G01X50930Y81500D02*
X51400Y80750D01*
X51960Y80250D01*
X52610Y80000D01*
X53360Y80250D01*
X53920Y80750D01*
X54480Y81500D01*
X54670Y82500D01*
Y87500D01*
G01X57970Y80000D02*
X60300Y87500D01*
X62630Y80000D01*
G01X61790Y82620D02*
X58810D01*
G01X68920Y80000D02*
Y87500D01*
X65470Y82130D01*
X70130D01*
G01X50930Y181500D02*
X51400Y180750D01*
X51960Y180250D01*
X52610Y180000D01*
X53360Y180250D01*
X53920Y180750D01*
X54480Y181500D01*
X54670Y182500D01*
Y187500D01*
G01X57970Y180000D02*
X60300Y187500D01*
X62630Y180000D01*
G01X61790Y182620D02*
X58810D01*
G01X67800Y180000D02*
X68450Y180120D01*
X69200Y180500D01*
X69670Y181120D01*
X69850Y182000D01*
X69670Y182870D01*
X69110Y183620D01*
X68270Y184000D01*
X67330D01*
X66770Y184250D01*
X66310Y184870D01*
X66120Y185750D01*
X66400Y186620D01*
X67050Y187250D01*
X67800Y187500D01*
X68550Y187250D01*
X69200Y186620D01*
X69480Y185750D01*
X69290Y184870D01*
X68830Y184250D01*
X68270Y184000D01*
X67330D01*
X66490Y183620D01*
X65930Y182870D01*
X65750Y182000D01*
X65930Y181120D01*
X66400Y180500D01*
X67150Y180120D01*
X67800Y180000D01*
G01X50930Y281500D02*
X51400Y280750D01*
X51960Y280250D01*
X52610Y280000D01*
X53360Y280250D01*
X53920Y280750D01*
X54480Y281500D01*
X54670Y282500D01*
Y287500D01*
G01X57970Y280000D02*
X60300Y287500D01*
X62630Y280000D01*
G01X61790Y282620D02*
X58810D01*
G01X65750Y281500D02*
X66310Y280620D01*
X67050Y280120D01*
X67890Y280000D01*
X68640Y280120D01*
X69390Y280750D01*
X69850Y281500D01*
X69950Y282250D01*
X69760Y283120D01*
X69110Y283750D01*
X68450Y284000D01*
X67610D01*
G01X68450D02*
X69010Y284370D01*
X69480Y285000D01*
X69670Y285750D01*
X69480Y286500D01*
X69010Y287120D01*
X68170Y287500D01*
X67330Y287380D01*
X66490Y286870D01*
G01X50930Y381500D02*
X51400Y380750D01*
X51960Y380250D01*
X52610Y380000D01*
X53360Y380250D01*
X53920Y380750D01*
X54480Y381500D01*
X54670Y382500D01*
Y387500D01*
G01X57970Y380000D02*
X60300Y387500D01*
X62630Y380000D01*
G01X61790Y382620D02*
X58810D01*
G01X67610Y380000D02*
X67800Y381620D01*
X68080Y383000D01*
X68450Y384250D01*
X68920Y385620D01*
X69670Y387500D01*
X65930D01*
G01X45300Y422500D02*
X44550Y422620D01*
X43900Y423120D01*
X43340Y423870D01*
X42970Y424750D01*
X42780Y425750D01*
Y426750D01*
X42970Y427750D01*
X43340Y428630D01*
X43900Y429370D01*
X44550Y429880D01*
X45300Y430000D01*
X46050Y429880D01*
X46700Y429370D01*
X47260Y428630D01*
X47630Y427750D01*
X47820Y426750D01*
Y425750D01*
X47630Y424750D01*
X47260Y423870D01*
X46700Y423120D01*
X46050Y422620D01*
X45300Y422500D01*
G01X46050Y424500D02*
X47170Y422500D01*
G01X51210Y427500D02*
Y424000D01*
X51590Y423120D01*
X52150Y422620D01*
X52800Y422500D01*
X53450Y422620D01*
X54010Y423120D01*
X54390Y424000D01*
G01Y422500D02*
Y427500D01*
G01X59180Y430000D02*
X61420D01*
G01X60300D02*
Y422500D01*
G01X59180D02*
X61420D01*
G01X67800D02*
X67050Y422620D01*
X66400Y423120D01*
X65840Y423870D01*
X65470Y424750D01*
X65280Y425750D01*
Y426750D01*
X65470Y427750D01*
X65840Y428630D01*
X66400Y429370D01*
X67050Y429880D01*
X67800Y430000D01*
X68550Y429880D01*
X69200Y429370D01*
X69760Y428630D01*
X70130Y427750D01*
X70320Y426750D01*
Y425750D01*
X70130Y424750D01*
X69760Y423870D01*
X69200Y423120D01*
X68550Y422620D01*
X67800Y422500D01*
G01X68550Y424500D02*
X69670Y422500D01*
G01X77350Y429370D02*
X76790Y429750D01*
X76140Y430000D01*
X75390D01*
X74550Y429620D01*
X73900Y429000D01*
X73430Y428250D01*
X73060Y427000D01*
X72970Y425870D01*
X73150Y424750D01*
X73430Y424000D01*
X73990Y423250D01*
X74650Y422750D01*
X75300Y422500D01*
X75950D01*
X76610Y422750D01*
X77170Y423120D01*
X77630Y423620D01*
G01X80930Y430000D02*
Y422500D01*
X84670D01*
G01X150750Y51120D02*
X151310Y50500D01*
X151960Y50120D01*
X152800Y50000D01*
X153640Y50250D01*
X154290Y50750D01*
X154760Y51620D01*
X154850Y52620D01*
X154670Y53620D01*
X154200Y54250D01*
X153550Y54750D01*
X152890Y54870D01*
X152240Y54750D01*
X151400Y54250D01*
X151680Y57500D01*
X154200D01*
G01X166030Y56250D02*
X166590Y57000D01*
X167240Y57380D01*
X167990Y57500D01*
X168920Y57250D01*
X169570Y56620D01*
X169760Y55880D01*
X169670Y55120D01*
X169290Y54500D01*
X167430Y53250D01*
X166590Y52370D01*
X166030Y51120D01*
X165840Y50000D01*
X169760D01*
G01X180750Y51500D02*
X181310Y50620D01*
X182050Y50120D01*
X182890Y50000D01*
X183640Y50120D01*
X184390Y50750D01*
X184850Y51500D01*
X184950Y52250D01*
X184760Y53120D01*
X184110Y53750D01*
X183450Y54000D01*
X182610D01*
G01X183450D02*
X184010Y54370D01*
X184480Y55000D01*
X184670Y55750D01*
X184480Y56500D01*
X184010Y57120D01*
X183170Y57500D01*
X182330Y57380D01*
X181490Y56870D01*
G01X198920Y50000D02*
Y57500D01*
X195470Y52130D01*
X200130D01*
G01X190930Y381500D02*
X191400Y380750D01*
X191960Y380250D01*
X192610Y380000D01*
X193360Y380250D01*
X193920Y380750D01*
X194480Y381500D01*
X194670Y382500D01*
Y387500D01*
G01X201050Y384000D02*
X201420Y384370D01*
X201700Y385000D01*
X201890Y385880D01*
X201700Y386620D01*
X201330Y387120D01*
X200670Y387500D01*
X198150D01*
Y380000D01*
X201230D01*
X201890Y380500D01*
X202260Y381250D01*
X202450Y382130D01*
X202260Y383000D01*
X201700Y383750D01*
X201050Y384000D01*
X198150D01*
G01X206030Y386250D02*
X206590Y387000D01*
X207240Y387380D01*
X207990Y387500D01*
X208920Y387250D01*
X209570Y386620D01*
X209760Y385880D01*
X209670Y385120D01*
X209290Y384500D01*
X207430Y383250D01*
X206590Y382370D01*
X206030Y381120D01*
X205840Y380000D01*
X209760D01*
G01X200930Y81500D02*
X201400Y80750D01*
X201960Y80250D01*
X202610Y80000D01*
X203360Y80250D01*
X203920Y80750D01*
X204480Y81500D01*
X204670Y82500D01*
Y87500D01*
G01X211050Y84000D02*
X211420Y84370D01*
X211700Y85000D01*
X211890Y85880D01*
X211700Y86620D01*
X211330Y87120D01*
X210670Y87500D01*
X208150D01*
Y80000D01*
X211230D01*
X211890Y80500D01*
X212260Y81250D01*
X212450Y82130D01*
X212260Y83000D01*
X211700Y83750D01*
X211050Y84000D01*
X208150D01*
G01X217800Y80000D02*
Y87500D01*
X216680Y86000D01*
G01Y80000D02*
X218920D01*
G01X200930Y181500D02*
X201400Y180750D01*
X201960Y180250D01*
X202610Y180000D01*
X203360Y180250D01*
X203920Y180750D01*
X204480Y181500D01*
X204670Y182500D01*
Y187500D01*
G01X211050Y184000D02*
X211420Y184370D01*
X211700Y185000D01*
X211890Y185880D01*
X211700Y186620D01*
X211330Y187120D01*
X210670Y187500D01*
X208150D01*
Y180000D01*
X211230D01*
X211890Y180500D01*
X212260Y181250D01*
X212450Y182130D01*
X212260Y183000D01*
X211700Y183750D01*
X211050Y184000D01*
X208150D01*
G01X215750Y181120D02*
X216310Y180500D01*
X216960Y180120D01*
X217800Y180000D01*
X218640Y180250D01*
X219290Y180750D01*
X219760Y181620D01*
X219850Y182620D01*
X219670Y183620D01*
X219200Y184250D01*
X218550Y184750D01*
X217890Y184870D01*
X217240Y184750D01*
X216400Y184250D01*
X216680Y187500D01*
X219200D01*
G01X200930Y281500D02*
X201400Y280750D01*
X201960Y280250D01*
X202610Y280000D01*
X203360Y280250D01*
X203920Y280750D01*
X204480Y281500D01*
X204670Y282500D01*
Y287500D01*
G01X211050Y284000D02*
X211420Y284370D01*
X211700Y285000D01*
X211890Y285880D01*
X211700Y286620D01*
X211330Y287120D01*
X210670Y287500D01*
X208150D01*
Y280000D01*
X211230D01*
X211890Y280500D01*
X212260Y281250D01*
X212450Y282130D01*
X212260Y283000D01*
X211700Y283750D01*
X211050Y284000D01*
X208150D01*
G01X216030Y283120D02*
X216680Y284000D01*
X217240Y284500D01*
X217990Y284750D01*
X218640Y284500D01*
X219110Y284000D01*
X219480Y283250D01*
X219570Y282370D01*
X219480Y281620D01*
X219110Y280870D01*
X218550Y280250D01*
X217890Y280000D01*
X217150Y280250D01*
X216490Y281000D01*
X216120Y282130D01*
X216030Y283370D01*
X216210Y285000D01*
X216490Y285880D01*
X216960Y286750D01*
X217610Y287380D01*
X218270Y287500D01*
X218920Y287250D01*
X219390Y286620D01*
G01X230930Y281500D02*
X231400Y280750D01*
X231960Y280250D01*
X232610Y280000D01*
X233360Y280250D01*
X233920Y280750D01*
X234480Y281500D01*
X234670Y282500D01*
Y287500D01*
G01X241050Y284000D02*
X241420Y284370D01*
X241700Y285000D01*
X241890Y285880D01*
X241700Y286620D01*
X241330Y287120D01*
X240670Y287500D01*
X238150D01*
Y280000D01*
X241230D01*
X241890Y280500D01*
X242260Y281250D01*
X242450Y282130D01*
X242260Y283000D01*
X241700Y283750D01*
X241050Y284000D01*
X238150D01*
G01X245750Y281500D02*
X246310Y280620D01*
X247050Y280120D01*
X247890Y280000D01*
X248640Y280120D01*
X249390Y280750D01*
X249850Y281500D01*
X249950Y282250D01*
X249760Y283120D01*
X249110Y283750D01*
X248450Y284000D01*
X247610D01*
G01X248450D02*
X249010Y284370D01*
X249480Y285000D01*
X249670Y285750D01*
X249480Y286500D01*
X249010Y287120D01*
X248170Y287500D01*
X247330Y287380D01*
X246490Y286870D01*
G01X240930Y81500D02*
X241400Y80750D01*
X241960Y80250D01*
X242610Y80000D01*
X243360Y80250D01*
X243920Y80750D01*
X244480Y81500D01*
X244670Y82500D01*
Y87500D01*
G01X251050Y84000D02*
X251420Y84370D01*
X251700Y85000D01*
X251890Y85880D01*
X251700Y86620D01*
X251330Y87120D01*
X250670Y87500D01*
X248150D01*
Y80000D01*
X251230D01*
X251890Y80500D01*
X252260Y81250D01*
X252450Y82130D01*
X252260Y83000D01*
X251700Y83750D01*
X251050Y84000D01*
X248150D01*
G01X258920Y80000D02*
Y87500D01*
X255470Y82130D01*
X260130D01*
G01X240930Y181500D02*
X241400Y180750D01*
X241960Y180250D01*
X242610Y180000D01*
X243360Y180250D01*
X243920Y180750D01*
X244480Y181500D01*
X244670Y182500D01*
Y187500D01*
G01X251050Y184000D02*
X251420Y184370D01*
X251700Y185000D01*
X251890Y185880D01*
X251700Y186620D01*
X251330Y187120D01*
X250670Y187500D01*
X248150D01*
Y180000D01*
X251230D01*
X251890Y180500D01*
X252260Y181250D01*
X252450Y182130D01*
X252260Y183000D01*
X251700Y183750D01*
X251050Y184000D01*
X248150D01*
G01X257800Y180000D02*
X258450Y180120D01*
X259200Y180500D01*
X259670Y181120D01*
X259850Y182000D01*
X259670Y182870D01*
X259110Y183620D01*
X258270Y184000D01*
X257330D01*
X256770Y184250D01*
X256310Y184870D01*
X256120Y185750D01*
X256400Y186620D01*
X257050Y187250D01*
X257800Y187500D01*
X258550Y187250D01*
X259200Y186620D01*
X259480Y185750D01*
X259290Y184870D01*
X258830Y184250D01*
X258270Y184000D01*
X257330D01*
X256490Y183620D01*
X255930Y182870D01*
X255750Y182000D01*
X255930Y181120D01*
X256400Y180500D01*
X257150Y180120D01*
X257800Y180000D01*
G01X240930Y381500D02*
X241400Y380750D01*
X241960Y380250D01*
X242610Y380000D01*
X243360Y380250D01*
X243920Y380750D01*
X244480Y381500D01*
X244670Y382500D01*
Y387500D01*
G01X251050Y384000D02*
X251420Y384370D01*
X251700Y385000D01*
X251890Y385880D01*
X251700Y386620D01*
X251330Y387120D01*
X250670Y387500D01*
X248150D01*
Y380000D01*
X251230D01*
X251890Y380500D01*
X252260Y381250D01*
X252450Y382130D01*
X252260Y383000D01*
X251700Y383750D01*
X251050Y384000D01*
X248150D01*
G01X257610Y380000D02*
X257800Y381620D01*
X258080Y383000D01*
X258450Y384250D01*
X258920Y385620D01*
X259670Y387500D01*
X255930D01*
M02*
