G04 ================== begin FILE IDENTIFICATION RECORD ==================*
G04 Layout Name:  PMOD2BNCSIMPLE_v1_06_62mil_cheap.brd*
G04 Film Name:    BOTTOM*
G04 File Format:  Gerber RS274X*
G04 File Origin:  Cadence Allegro 23.1-P001*
G04 Origin Date:  Sun Dec  3 21:01:37 2023*
G04 *
G04 Layer:  ETCH/BOTTOM*
G04 Layer:  PIN/BOTTOM*
G04 Layer:  VIA CLASS/BOTTOM*
G04 *
G04 Offset:    (0.0000 0.0000)*
G04 Mirror:    No*
G04 Mode:      Positive*
G04 Rotation:  0*
G04 FullContactRelief:  No*
G04 UndefLineWidth:     0.0000*
G04 ================== end FILE IDENTIFICATION RECORD ====================*
%FSLAX55Y55*MOIN*%
%IR0*IPPOS*OFA0.00000B0.00000*MIA0B0*SFA1.00000B1.00000*%
%ADD12C,.02*%
%ADD10C,.05*%
%ADD15C,.065*%
%ADD14R,.0512X.0453*%
%ADD16R,.065X.065*%
%ADD11C,.0945*%
%ADD13R,.0886X.0886*%
%ADD17C,.0134*%
%ADD20C,.105*%
%ADD18R,.4004X.4004*%
%ADD19C,.0754*%
G75*
%LPD*%
G75*
G36*
G01X-37990Y450000D02*
X-30000Y457990D01*
X300000D01*
X307990Y450000D01*
Y410000D01*
X297990Y400000D01*
Y60000D01*
X307990Y50000D01*
Y10000D01*
X300000Y2010D01*
X-30000D01*
X-37990Y10000D01*
Y50000D01*
X-27990Y60000D01*
Y400000D01*
X-37990Y410000D01*
Y450000D01*
G37*
%LPC*%
G75*
G36*
G01X184930Y268650D02*
G02Y271370I699J1360D01*
G02X190000Y275250I5070J-1372D01*
G02Y264750I0J-5250D01*
G02X184930Y268650I0J5246D01*
G37*
G36*
G01X175050Y375570D02*
Y384430D01*
G02X175570Y384950I520J0D01*
G01X184430D01*
G02X184950Y384430I0J-520D01*
G01Y375570D01*
G02X184430Y375050I-520J0D01*
G01X175570D01*
G02X175050Y375570I0J520D01*
G37*
G36*
G01X-14950D02*
Y384430D01*
G02X-14430Y384950I520J0D01*
G01X-5570D01*
G02X-5050Y384430I0J-520D01*
G01Y375570D01*
G02X-5570Y375050I-520J0D01*
G01X-14430D01*
G02X-14950Y375570I0J520D01*
G37*
G36*
G01X275050Y275570D02*
Y284430D01*
G02X275570Y284950I520J0D01*
G01X284430D01*
G02X284950Y284430I0J-520D01*
G01Y275570D01*
G02X284430Y275050I-520J0D01*
G01X275570D01*
G02X275050Y275570I0J520D01*
G37*
G36*
G01X85050D02*
Y284430D01*
G02X85570Y284950I520J0D01*
G01X94430D01*
G02X94950Y284430I0J-520D01*
G01Y275570D01*
G02X94430Y275050I-520J0D01*
G01X85570D01*
G02X85050Y275570I0J520D01*
G37*
G36*
G01X175050Y175570D02*
Y184430D01*
G02X175570Y184950I520J0D01*
G01X184430D01*
G02X184950Y184430I0J-520D01*
G01Y175570D01*
G02X184430Y175050I-520J0D01*
G01X175570D01*
G02X175050Y175570I0J520D01*
G37*
G36*
G01X-14950D02*
Y184430D01*
G02X-14430Y184950I520J0D01*
G01X-5570D01*
G02X-5050Y184430I0J-520D01*
G01Y175570D01*
G02X-5570Y175050I-520J0D01*
G01X-14430D01*
G02X-14950Y175570I0J520D01*
G37*
G36*
G01X275050Y75570D02*
Y84430D01*
G02X275570Y84950I520J0D01*
G01X284430D01*
G02X284950Y84430I0J-520D01*
G01Y75570D01*
G02X284430Y75050I-520J0D01*
G01X275570D01*
G02X275050Y75570I0J520D01*
G37*
G36*
G01X85050D02*
Y84430D01*
G02X85570Y84950I520J0D01*
G01X94430D01*
G02X94950Y84430I0J-520D01*
G01Y75570D01*
G02X94430Y75050I-520J0D01*
G01X85570D01*
G02X85050Y75570I0J520D01*
G37*
G36*
G01X201230Y24050D02*
Y30550D01*
G02X201750Y31070I520J0D01*
G01X208250D01*
G02X208770Y30550I0J-520D01*
G01Y24050D01*
G02X208250Y23530I-520J0D01*
G01X201750D01*
G02X201230Y24050I0J520D01*
G37*
G36*
G01X111230D02*
Y30550D01*
G02X111750Y31070I520J0D01*
G01X118250D01*
G02X118770Y30550I0J-520D01*
G01Y24050D01*
G02X118250Y23530I-520J0D01*
G01X111750D01*
G02X111230Y24050I0J520D01*
G37*
G36*
G01X54420Y24880D02*
Y29420D01*
G02X54940Y29940I520J0D01*
G01X60060D01*
G02X60580Y29420I0J-520D01*
G01Y24880D01*
G02X60060Y24360I-520J0D01*
G01X54940D01*
G02X54420Y24880I0J520D01*
G37*
G36*
G01X-11410Y156410D02*
X-8910Y158910D01*
G02X-7500Y159490I1410J-1424D01*
G01X12500D01*
G02X13910Y158910I0J-2004D01*
G01X16410Y156410D01*
G02X16990Y155000I-1424J-1410D01*
G01Y150000D01*
G02X16410Y148590I-2004J0D01*
G01X13910Y146090D01*
G02X12500Y145510I-1410J1424D01*
G01X5820D01*
X4490Y144180D01*
Y140820D01*
X5820Y139490D01*
X12500D01*
G02X13910Y138910I0J-2004D01*
G01X16410Y136410D01*
G02X16990Y135000I-1424J-1410D01*
G01Y130000D01*
G02X16410Y128590I-2004J0D01*
G01X13910Y126090D01*
G02X12500Y125510I-1410J1424D01*
G01X5820D01*
X4490Y124180D01*
Y120820D01*
X5820Y119490D01*
X12500D01*
G02X13910Y118910I0J-2004D01*
G01X16410Y116410D01*
G02X16990Y115000I-1424J-1410D01*
G01Y13320D01*
X18320Y11990D01*
X24180D01*
X25510Y13320D01*
Y35000D01*
G02X26090Y36410I2004J0D01*
G01X31090Y41410D01*
G02X32500Y41990I1410J-1424D01*
G01X42500D01*
G02X43910Y41410I0J-2004D01*
G01X48910Y36410D01*
G02X49490Y35000I-1424J-1410D01*
G01Y23320D01*
X52970Y19840D01*
X54420D01*
Y20120D01*
G02X54940Y20640I520J0D01*
G01X60060D01*
G02X60580Y20120I0J-520D01*
G01Y19840D01*
X62210D01*
G02X65000Y21070I2790J-2549D01*
G02Y13530I0J-3770D01*
G02X61520Y15860I0J3764D01*
G01X60580D01*
Y15580D01*
G02X60060Y15060I-520J0D01*
G01X54940D01*
G02X54420Y15580I0J520D01*
G01Y15860D01*
X52150D01*
G02X50740Y16440I0J2004D01*
G01X46090Y21090D01*
G02X45510Y22500I1424J1410D01*
G01Y34180D01*
X41680Y38010D01*
X33320D01*
X29490Y34180D01*
Y12500D01*
G02X28910Y11090I-2004J0D01*
G01X26410Y8590D01*
G02X25000Y8010I-1410J1424D01*
G01X17500D01*
G02X16090Y8590I0J2004D01*
G01X13590Y11090D01*
G02X13010Y12500I1424J1410D01*
G01Y114180D01*
X11680Y115510D01*
X5000D01*
G02X3590Y116090I0J2004D01*
G01X1090Y118590D01*
G02X510Y120000I1424J1410D01*
G01Y125000D01*
G02X1090Y126410I2004J0D01*
G01X3590Y128910D01*
G02X5000Y129490I1410J-1424D01*
G01X11680D01*
X13010Y130820D01*
Y134180D01*
X11680Y135510D01*
X5000D01*
G02X3590Y136090I0J2004D01*
G01X1090Y138590D01*
G02X510Y140000I1424J1410D01*
G01Y145000D01*
G02X1090Y146410I2004J0D01*
G01X3590Y148910D01*
G02X5000Y149490I1410J-1424D01*
G01X11680D01*
X13010Y150820D01*
Y154180D01*
X11680Y155510D01*
X-6680D01*
X-8010Y154180D01*
Y152500D01*
G02X-8590Y151090I-2004J0D01*
G01X-11090Y148590D01*
G02X-12500Y148010I-1410J1424D01*
G01X-16680D01*
X-18010Y146680D01*
Y143320D01*
X-16680Y141990D01*
X-12500D01*
G02X-11090Y141410I0J-2004D01*
G01X-8590Y138910D01*
G02X-8010Y137500I-1424J-1410D01*
G01Y132500D01*
G02X-8590Y131090I-2004J0D01*
G01X-11090Y128590D01*
G02X-12500Y128010I-1410J1424D01*
G01X-16680D01*
X-18010Y126680D01*
Y123320D01*
X-16680Y121990D01*
X-12500D01*
G02X-11090Y121410I0J-2004D01*
G01X-8590Y118910D01*
G02X-8010Y117500I-1424J-1410D01*
G01Y112500D01*
G02X-8590Y111090I-2004J0D01*
G01X-11090Y108590D01*
G02X-12500Y108010I-1410J1424D01*
G01X-16680D01*
X-18010Y106680D01*
Y103320D01*
X-16680Y101990D01*
X-12500D01*
G02X-11090Y101410I0J-2004D01*
G01X-8590Y98910D01*
G02X-8010Y97500I-1424J-1410D01*
G01Y84950D01*
X-5570D01*
G02X-5050Y84430I0J-520D01*
G01Y75570D01*
G02X-5570Y75050I-520J0D01*
G01X-14430D01*
G02X-14950Y75570I0J520D01*
G01Y84430D01*
G02X-14430Y84950I520J0D01*
G01X-11990D01*
Y96680D01*
X-13320Y98010D01*
X-17500D01*
G02X-18910Y98590I0J2004D01*
G01X-21410Y101090D01*
G02X-21990Y102500I1424J1410D01*
G01Y107500D01*
G02X-21410Y108910I2004J0D01*
G01X-18910Y111410D01*
G02X-17500Y111990I1410J-1424D01*
G01X-13320D01*
X-11990Y113320D01*
Y116680D01*
X-13320Y118010D01*
X-17500D01*
G02X-18910Y118590I0J2004D01*
G01X-21410Y121090D01*
G02X-21990Y122500I1424J1410D01*
G01Y127500D01*
G02X-21410Y128910I2004J0D01*
G01X-18910Y131410D01*
G02X-17500Y131990I1410J-1424D01*
G01X-13320D01*
X-11990Y133320D01*
Y136680D01*
X-13320Y138010D01*
X-17500D01*
G02X-18910Y138590I0J2004D01*
G01X-21410Y141090D01*
G02X-21990Y142500I1424J1410D01*
G01Y147500D01*
G02X-21410Y148910I2004J0D01*
G01X-18910Y151410D01*
G02X-17500Y151990I1410J-1424D01*
G01X-13320D01*
X-11990Y153320D01*
Y155000D01*
G02X-11410Y156410I2004J0D01*
G37*
G36*
G01X170000Y159490D02*
X200000D01*
G02X201410Y158910I0J-2004D01*
G01X203910Y156410D01*
G02X204490Y155000I-1424J-1410D01*
G01Y125000D01*
G02X203910Y123590I-2004J0D01*
G01X201410Y121090D01*
G02X200000Y120510I-1410J1424D01*
G01X190000D01*
G02X188590Y121090I0J2004D01*
G01X186090Y123590D01*
G02X185510Y125000I1424J1410D01*
G01Y134180D01*
X184180Y135510D01*
X180820D01*
X179490Y134180D01*
Y125000D01*
G02X178910Y123590I-2004J0D01*
G01X176410Y121090D01*
G02X175000Y120510I-1410J1424D01*
G01X170000D01*
G02X168590Y121090I0J2004D01*
G01X166090Y123590D01*
G02X165510Y125000I1424J1410D01*
G01Y134180D01*
X164180Y135510D01*
X160820D01*
X159490Y134180D01*
Y105820D01*
X160820Y104490D01*
X166680D01*
X168010Y105820D01*
Y110000D01*
G02X168590Y111410I2004J0D01*
G01X171090Y113910D01*
G02X172500Y114490I1410J-1424D01*
G01X187500D01*
G02X188910Y113910I0J-2004D01*
G01X191410Y111410D01*
G02X191990Y110000I-1424J-1410D01*
G01Y102500D01*
G02X191410Y101090I-2004J0D01*
G01X181990Y91680D01*
Y84950D01*
X184430D01*
G02X184950Y84430I0J-520D01*
G01Y75570D01*
G02X184430Y75050I-520J0D01*
G01X175570D01*
G02X175050Y75570I0J520D01*
G01Y84430D01*
G02X175570Y84950I520J0D01*
G01X178010D01*
Y92500D01*
G02X178590Y93910I2004J0D01*
G01X188010Y103320D01*
Y109180D01*
X186680Y110510D01*
X173320D01*
X171990Y109180D01*
Y105000D01*
G02X171410Y103590I-2004J0D01*
G01X168910Y101090D01*
G02X167500Y100510I-1410J1424D01*
G01X160000D01*
G02X158590Y101090I0J2004D01*
G01X156090Y103590D01*
G02X155510Y105000I1424J1410D01*
G01Y135000D01*
G02X156090Y136410I2004J0D01*
G01X158590Y138910D01*
G02X160000Y139490I1410J-1424D01*
G01X165000D01*
G02X166410Y138910I0J-2004D01*
G01X168910Y136410D01*
G02X169490Y135000I-1424J-1410D01*
G01Y125820D01*
X170820Y124490D01*
X174180D01*
X175510Y125820D01*
Y135000D01*
G02X176090Y136410I2004J0D01*
G01X178590Y138910D01*
G02X180000Y139490I1410J-1424D01*
G01X185000D01*
G02X186410Y138910I0J-2004D01*
G01X188910Y136410D01*
G02X189490Y135000I-1424J-1410D01*
G01Y125820D01*
X190820Y124490D01*
X199180D01*
X200510Y125820D01*
Y154180D01*
X199180Y155510D01*
X170820D01*
X158910Y143590D01*
G02X157500Y143010I-1410J1424D01*
G01X150820D01*
X149490Y141680D01*
Y72500D01*
G02X148910Y71090I-2004J0D01*
G01X139490Y61680D01*
Y51480D01*
X146240Y44740D01*
G03X146920Y45020I282J282D01*
G01Y46920D01*
G02X147440Y47440I520J0D01*
G01X152560D01*
G02X153080Y46920I0J-520D01*
G01Y42380D01*
G02X152560Y41860I-520J0D01*
G01X151890D01*
G03X151570Y41220I-3J-399D01*
G02X151990Y40000I-1562J-1220D01*
G01Y38140D01*
X152560D01*
G02X153080Y37620I0J-520D01*
G01Y33080D01*
G02X152560Y32560I-520J0D01*
G01X151990D01*
Y30550D01*
G03X152640Y30240I400J2D01*
G02X155000Y31070I2360J-2940D01*
G02Y23530I0J-3770D01*
G02X152640Y24360I0J3770D01*
G03X151990Y24050I-250J-312D01*
G01Y23120D01*
X154140Y20970D01*
X154250Y20990D01*
G02X155000Y21070I773J-3688D01*
G02X151230Y17300I0J-3770D01*
G02X151310Y18050I3768J-23D01*
G01X151330Y18160D01*
X148590Y20890D01*
G02X148010Y22300I1424J1410D01*
G01Y32560D01*
X147440D01*
G02X146920Y33080I0J520D01*
G01Y37620D01*
G02X147440Y38140I520J0D01*
G01X148010D01*
Y39180D01*
X147970Y39220D01*
X146950D01*
G02X145540Y39800I0J2004D01*
G01X136090Y49250D01*
G02X135510Y50660I1424J1410D01*
G01Y62500D01*
G02X136090Y63910I2004J0D01*
G01X145510Y73320D01*
Y142500D01*
G02X146090Y143910I2004J0D01*
G01X148590Y146410D01*
G02X150000Y146990I1410J-1424D01*
G01X156680D01*
X168590Y158910D01*
G02X170000Y159490I1410J-1424D01*
G37*
G36*
G01X275050Y375570D02*
Y384430D01*
G02X275570Y384950I520J0D01*
G01X284430D01*
G02X284950Y384430I0J-520D01*
G01Y375570D01*
G02X284430Y375050I-520J0D01*
G01X281990D01*
Y365000D01*
G02X281410Y363590I-2004J0D01*
G01X234490Y316680D01*
Y72760D01*
G02X233910Y71350I-2004J0D01*
G01X211290Y48730D01*
G02X209880Y48150I-1410J1424D01*
G01X194860D01*
G02X193450Y48730I0J2004D01*
G01X189180Y53010D01*
X185250D01*
X184490Y52250D01*
Y48640D01*
G02X184370Y47970I-1988J10D01*
G03X184750Y47440I377J-131D01*
G01X187560D01*
G02X188080Y46920I0J-520D01*
G01Y43200D01*
X227890D01*
X250510Y65820D01*
Y247500D01*
G02X251090Y248910I2004J0D01*
G01X258590Y256410D01*
G02X260000Y256990I1410J-1424D01*
G01X285000D01*
G02X286410Y256410I0J-2004D01*
G01X291410Y251410D01*
G02X291990Y250000I-1424J-1410D01*
G01Y242500D01*
G02X291410Y241090I-2004J0D01*
G01X288910Y238590D01*
G02X287500Y238010I-1410J1424D01*
G01X275810D01*
X274490Y236690D01*
Y233330D01*
X278330Y229490D01*
X287510D01*
G02X288920Y228910I0J-2004D01*
G01X291410Y226420D01*
G02X291990Y225010I-1424J-1410D01*
G01Y217500D01*
G02X291410Y216090I-2004J0D01*
G01X288910Y213590D01*
G02X287500Y213010I-1410J1424D01*
G01X283320D01*
X281990Y211680D01*
Y184950D01*
X284430D01*
G02X284950Y184430I0J-520D01*
G01Y175570D01*
G02X284430Y175050I-520J0D01*
G01X275570D01*
G02X275050Y175570I0J520D01*
G01Y184430D01*
G02X275570Y184950I520J0D01*
G01X278010D01*
Y212500D01*
G02X278590Y213910I2004J0D01*
G01X281090Y216410D01*
G02X282500Y216990I1410J-1424D01*
G01X286680D01*
X288010Y218320D01*
Y224190D01*
X286690Y225510D01*
X277510D01*
G02X276100Y226090I0J2004D01*
G01X271090Y231100D01*
G02X270510Y232510I1424J1410D01*
G01Y237510D01*
G02X271090Y238920I2004J0D01*
G01X273580Y241410D01*
G02X274990Y241990I1410J-1424D01*
G01X286680D01*
X288010Y243320D01*
Y249180D01*
X284180Y253010D01*
X260820D01*
X254490Y246680D01*
Y65000D01*
G02X253910Y63590I-2004J0D01*
G01X230120Y39800D01*
G02X228710Y39220I-1410J1424D01*
G01X187980D01*
X187540Y38780D01*
G03X187710Y38110I283J-285D01*
G02X188080Y37620I-149J-497D01*
G01Y33080D01*
G02X187560Y32560I-520J0D01*
G01X186990D01*
Y30500D01*
G02X188770Y27300I-1986J-3200D01*
G02X181230I-3770J0D01*
G02X183010Y30500I3766J0D01*
G01Y32560D01*
X182440D01*
G02X181920Y33080I0J520D01*
G01Y37620D01*
G02X182440Y38140I520J0D01*
G01X183010D01*
Y39050D01*
G02X183590Y40460I2004J0D01*
G01X184320Y41180D01*
G03X184040Y41860I-283J281D01*
G01X182440D01*
G02X182120Y41980I13J520D01*
G03X181550Y41920I-255J-311D01*
G02X181410Y41750I-1604J1178D01*
G01X179460Y39800D01*
G02X178050Y39220I-1410J1424D01*
G01X177030D01*
X176990Y39180D01*
Y38140D01*
X177560D01*
G02X178080Y37620I0J-520D01*
G01Y33080D01*
G02X177560Y32560I-520J0D01*
G01X176990D01*
Y30500D01*
G02X178770Y27300I-1986J-3200D01*
G02X171230I-3770J0D01*
G02X173010Y30500I3766J0D01*
G01Y32560D01*
X172440D01*
G02X171920Y33080I0J520D01*
G01Y37620D01*
G02X172440Y38140I520J0D01*
G01X173010D01*
Y40000D01*
G02X173430Y41220I1982J0D01*
G03X173110Y41860I-317J241D01*
G01X172440D01*
G02X171920Y42380I0J520D01*
G01Y46920D01*
G02X172440Y47440I520J0D01*
G01X177560D01*
G02X177880Y47320I-13J-520D01*
G03X178450Y47380I255J311D01*
G02X178590Y47550I1604J-1178D01*
G01X180510Y49460D01*
Y53070D01*
G02X181090Y54480I2004J0D01*
G01X183020Y56410D01*
G02X184430Y56990I1410J-1424D01*
G01X190000D01*
G02X191410Y56410I0J-2004D01*
G01X195680Y52130D01*
X209060D01*
X230510Y73580D01*
Y317500D01*
G02X231090Y318910I2004J0D01*
G01X278010Y365820D01*
Y375050D01*
X275570D01*
G02X275050Y375570I0J520D01*
G37*
G36*
G01X43590Y378910D02*
X51090Y386410D01*
G02X52500Y386990I1410J-1424D01*
G01X65000D01*
G02X66410Y386410I0J-2004D01*
G01X70820Y381990D01*
X85050D01*
Y384430D01*
G02X85570Y384950I520J0D01*
G01X94430D01*
G02X94950Y384430I0J-520D01*
G01Y375570D01*
G02X94430Y375050I-520J0D01*
G01X85570D01*
G02X85050Y375570I0J520D01*
G01Y378010D01*
X70000D01*
G02X68590Y378590I0J2004D01*
G01X64180Y383010D01*
X53320D01*
X46990Y376680D01*
Y368320D01*
X56410Y358910D01*
G02X56990Y357500I-1424J-1410D01*
G01Y76980D01*
X78910Y55070D01*
G02X79490Y53660I-1424J-1410D01*
G01Y49460D01*
X81410Y47550D01*
G02X81550Y47380I-1462J-1347D01*
G03X82120Y47320I315J251D01*
G02X82440Y47440I333J-400D01*
G01X85250D01*
G03X85630Y47970I3J399D01*
G02X85510Y48640I1868J680D01*
G01Y55000D01*
G02X86090Y56410I2004J0D01*
G01X91090Y61410D01*
G02X92500Y61990I1410J-1424D01*
G01X109180D01*
X125510Y78320D01*
Y285340D01*
X125340Y285510D01*
X118320D01*
X114490Y281680D01*
Y225000D01*
G02X113910Y223590I-2004J0D01*
G01X91990Y201680D01*
Y184950D01*
X94430D01*
G02X94950Y184430I0J-520D01*
G01Y175570D01*
G02X94430Y175050I-520J0D01*
G01X85570D01*
G02X85050Y175570I0J520D01*
G01Y184430D01*
G02X85570Y184950I520J0D01*
G01X88010D01*
Y202500D01*
G02X88590Y203910I2004J0D01*
G01X110510Y225820D01*
Y282500D01*
G02X111090Y283910I2004J0D01*
G01X116090Y288910D01*
G02X117500Y289490I1410J-1424D01*
G01X126160D01*
G02X127570Y288910I0J-2004D01*
G01X128910Y287570D01*
G02X129490Y286160I-1424J-1410D01*
G01Y77500D01*
G02X128910Y76090I-2004J0D01*
G01X111410Y58590D01*
G02X110000Y58010I-1410J1424D01*
G01X93320D01*
X89490Y54180D01*
Y49460D01*
X91410Y47550D01*
G02X91550Y47380I-1462J-1347D01*
G03X92120Y47320I315J251D01*
G02X92440Y47440I333J-400D01*
G01X97560D01*
G02X98080Y46920I0J-520D01*
G01Y42380D01*
G02X97560Y41860I-520J0D01*
G01X96890D01*
G03X96570Y41220I-3J-399D01*
G02X96990Y40000I-1562J-1220D01*
G01Y38140D01*
X97560D01*
G02X98080Y37620I0J-520D01*
G01Y33080D01*
G02X97560Y32560I-520J0D01*
G01X96990D01*
Y30500D01*
G02X98770Y27300I-1986J-3200D01*
G02X91230I-3770J0D01*
G02X93010Y30500I3766J0D01*
G01Y32560D01*
X92440D01*
G02X91920Y33080I0J520D01*
G01Y37620D01*
G02X92440Y38140I520J0D01*
G01X93010D01*
Y39180D01*
X92970Y39220D01*
X91950D01*
G02X90540Y39800I0J2004D01*
G01X88590Y41750D01*
G02X88450Y41920I1462J1347D01*
G03X87880Y41980I-315J-251D01*
G02X87560Y41860I-333J400D01*
G01X86890D01*
G03X86570Y41220I-3J-399D01*
G02X86990Y40000I-1562J-1220D01*
G01Y38140D01*
X87560D01*
G02X88080Y37620I0J-520D01*
G01Y33080D01*
G02X87560Y32560I-520J0D01*
G01X86990D01*
Y30500D01*
G02X88770Y27300I-1986J-3200D01*
G02X81230I-3770J0D01*
G02X83010Y30500I3766J0D01*
G01Y32560D01*
X82440D01*
G02X81920Y33080I0J520D01*
G01Y37620D01*
G02X82440Y38140I520J0D01*
G01X83010D01*
Y39180D01*
X82970Y39220D01*
X81950D01*
G02X80540Y39800I0J2004D01*
G01X78590Y41750D01*
G02X78450Y41920I1462J1347D01*
G03X77880Y41980I-315J-251D01*
G02X77560Y41860I-333J400D01*
G01X75710D01*
G03X75430Y41180I3J-399D01*
G01X76410Y40210D01*
G02X76990Y38800I-1424J-1410D01*
G01Y38140D01*
X77560D01*
G02X78080Y37620I0J-520D01*
G01Y33080D01*
G02X77560Y32560I-520J0D01*
G01X76990D01*
Y30500D01*
G02X78770Y27300I-1986J-3200D01*
G02X71230I-3770J0D01*
G02X73010Y30500I3766J0D01*
G01Y32560D01*
X72440D01*
G02X71920Y33080I0J520D01*
G01Y38010D01*
X65000D01*
G02X63590Y38590I0J2004D01*
G01X56090Y46090D01*
G02X55510Y47500I1424J1410D01*
G01Y49180D01*
X33590Y71090D01*
G02X33010Y72500I1424J1410D01*
G01Y326680D01*
X29180Y330510D01*
X-4190D01*
X-8010Y326690D01*
Y284950D01*
X-5570D01*
G02X-5050Y284430I0J-520D01*
G01Y275570D01*
G02X-5570Y275050I-520J0D01*
G01X-14430D01*
G02X-14950Y275570I0J520D01*
G01Y284430D01*
G02X-14430Y284950I520J0D01*
G01X-11990D01*
Y327510D01*
G02X-11410Y328920I2004J0D01*
G01X-6420Y333910D01*
G02X-5010Y334490I1410J-1424D01*
G01X30000D01*
G02X31410Y333910I0J-2004D01*
G01X36410Y328910D01*
G02X36990Y327500I-1424J-1410D01*
G01Y73320D01*
X58910Y51410D01*
G02X59490Y50000I-1424J-1410D01*
G01Y48320D01*
X65820Y41990D01*
X71920D01*
Y46920D01*
G02X72440Y47440I520J0D01*
G01X75250D01*
G03X75630Y47970I3J399D01*
G02X75510Y48640I1868J680D01*
G01Y52840D01*
X53590Y74750D01*
G02X53010Y76160I1424J1410D01*
G01Y356680D01*
X43590Y366090D01*
G02X43010Y367500I1424J1410D01*
G01Y377500D01*
G02X43590Y378910I2004J0D01*
G37*
G36*
G01X180000Y329490D02*
X197500D01*
G02X198910Y328910I0J-2004D01*
G01X201410Y326410D01*
G02X201990Y325000I-1424J-1410D01*
G01Y305900D01*
X203400Y304490D01*
X210000D01*
G02X211410Y303910I0J-2004D01*
G01X213910Y301410D01*
G02X214490Y300000I-1424J-1410D01*
G01Y75010D01*
G02X213910Y73600I-2004J0D01*
G01X201400Y61090D01*
G02X199990Y60510I-1410J1424D01*
G01X170820D01*
X161990Y51680D01*
Y47440D01*
X167560D01*
G02X168080Y46920I0J-520D01*
G01Y42380D01*
G02X167560Y41860I-520J0D01*
G01X165710D01*
G03X165430Y41180I3J-399D01*
G01X166410Y40210D01*
G02X166990Y38800I-1424J-1410D01*
G01Y38140D01*
X167560D01*
G02X168080Y37620I0J-520D01*
G01Y33080D01*
G02X167560Y32560I-520J0D01*
G01X166990D01*
Y30500D01*
G02X168770Y27300I-1986J-3200D01*
G02X161230I-3770J0D01*
G02X163010Y30500I3766J0D01*
G01Y32560D01*
X162440D01*
G02X161920Y33080I0J520D01*
G01Y37620D01*
G02X162190Y38070I520J-6D01*
G03X162280Y38700I-193J349D01*
G01X161770Y39220D01*
X161350D01*
G02X159940Y39800I0J2004D01*
G01X158590Y41150D01*
G02X158010Y42560I1424J1410D01*
G01Y52500D01*
G02X158590Y53910I2004J0D01*
G01X168590Y63910D01*
G02X168910Y64170I1410J-1408D01*
G03X168790Y64890I-216J334D01*
G02X164750Y70000I1212J5110D01*
G02X175250I5250J0D01*
G02X172240Y65250I-5253J0D01*
G03X172410Y64490I171J-361D01*
G01X187590D01*
G03X187760Y65250I-1J399D01*
G02X184750Y70000I2243J4750D01*
G02X195250I5250J0D01*
G02X192240Y65250I-5253J0D01*
G03X192410Y64490I171J-361D01*
G01X199170D01*
X210510Y75830D01*
Y299180D01*
X209180Y300510D01*
X202580D01*
G02X201170Y301090I0J2004D01*
G01X198590Y303670D01*
G02X198010Y305080I1424J1410D01*
G01Y324180D01*
X196680Y325510D01*
X180820D01*
X179490Y324180D01*
Y298320D01*
X181410Y296410D01*
G02X181990Y295000I-1424J-1410D01*
G01Y284950D01*
X184430D01*
G02X184950Y284430I0J-520D01*
G01Y275570D01*
G02X184430Y275050I-520J0D01*
G01X175570D01*
G02X175050Y275570I0J520D01*
G01Y284430D01*
G02X175570Y284950I520J0D01*
G01X178010D01*
Y294180D01*
X176090Y296090D01*
G02X175510Y297500I1424J1410D01*
G01Y325000D01*
G02X176090Y326410I2004J0D01*
G01X178590Y328910D01*
G02X180000Y329490I1410J-1424D01*
G37*
G54D20*
X-20000Y70000D03*
X0D03*
X80000D03*
X100000D03*
X270000D03*
X290000D03*
X-20000Y90000D03*
X0D03*
X80000D03*
X100000D03*
X170000D03*
X190000D03*
X270000D03*
X290000D03*
X-20000Y170000D03*
X0D03*
X80000D03*
X100000D03*
X170000D03*
X190000D03*
X270000D03*
X290000D03*
X-20000Y190000D03*
X0D03*
X80000D03*
X100000D03*
X170000D03*
X190000D03*
X270000D03*
X290000D03*
X-20000Y270000D03*
X0D03*
X80000D03*
X100000D03*
X170000D03*
X270000D03*
X290000D03*
X-20000Y290000D03*
X0D03*
X80000D03*
X100000D03*
X170000D03*
X190000D03*
X270000D03*
X290000D03*
X-20000Y370000D03*
X0D03*
X80000D03*
X100000D03*
X170000D03*
X190000D03*
X270000D03*
X290000D03*
X-20000Y390000D03*
X0D03*
X80000D03*
X100000D03*
X170000D03*
X190000D03*
X270000D03*
X290000D03*
G54D18*
X-10000Y30000D03*
X280000D03*
X-10000Y430000D03*
X280000D03*
G54D19*
X75000Y17300D03*
X85000D03*
X95000D03*
X105000D03*
X115000D03*
X165000D03*
X175000D03*
X185000D03*
X195000D03*
X205000D03*
X65000Y27300D03*
X105000D03*
X195000D03*
%LPD*%
G75*
G54D10*
X-10000Y30000D03*
Y430000D03*
X280000Y30000D03*
Y430000D03*
G54D11*
X-20000Y70000D03*
Y90000D03*
Y170000D03*
Y190000D03*
Y270000D03*
Y290000D03*
Y370000D03*
Y390000D03*
X0Y70000D03*
Y90000D03*
Y170000D03*
Y190000D03*
Y270000D03*
Y290000D03*
Y370000D03*
Y390000D03*
X80000Y70000D03*
Y90000D03*
Y170000D03*
Y190000D03*
Y270000D03*
Y290000D03*
Y370000D03*
Y390000D03*
X100000Y70000D03*
Y90000D03*
Y170000D03*
Y190000D03*
Y270000D03*
Y290000D03*
Y370000D03*
Y390000D03*
X170000Y70000D03*
Y90000D03*
Y170000D03*
Y190000D03*
Y270000D03*
Y290000D03*
Y370000D03*
Y390000D03*
X190000Y70000D03*
Y90000D03*
Y170000D03*
Y190000D03*
Y270000D03*
Y290000D03*
Y370000D03*
Y390000D03*
X270000Y70000D03*
Y90000D03*
Y170000D03*
Y190000D03*
Y270000D03*
Y290000D03*
Y370000D03*
Y390000D03*
X290000Y70000D03*
Y90000D03*
Y170000D03*
Y190000D03*
Y270000D03*
Y290000D03*
Y370000D03*
Y390000D03*
G54D12*
X-12500Y72500D03*
X-17500Y82500D03*
Y77500D03*
X-15000Y105000D03*
X-24970Y100600D03*
X-23980Y110550D03*
X-15000Y125000D03*
X-15040Y115030D03*
X-24000Y119470D03*
X-15000Y145000D03*
X-24970Y129420D03*
X-16690Y135030D03*
X-24970Y140640D03*
X-23950Y150580D03*
X-14970Y154990D03*
X-17500Y177500D03*
X-12500Y172500D03*
X-17500Y182500D03*
X-14970Y197280D03*
Y207280D03*
Y217280D03*
Y227280D03*
Y237280D03*
Y247280D03*
X-14750Y257280D03*
X-17500Y277500D03*
Y282500D03*
X-12500Y272500D03*
X-14970Y300000D03*
Y310000D03*
X-14550Y329990D03*
X-14970Y320000D03*
X-17000Y378000D03*
Y382000D03*
X-12000Y387000D03*
Y373000D03*
X-9000Y61000D03*
X-7500Y72500D03*
X-2500Y77500D03*
Y82500D03*
X-5030Y98640D03*
X-7030Y108440D03*
X-5000Y115000D03*
X-7500Y122500D03*
X-7560Y127910D03*
X-2470Y121510D03*
X2590Y112880D03*
X-5030Y137580D03*
X-2470Y140070D03*
X1260Y130790D03*
X-8330Y162470D03*
X1670D03*
X-8510Y146960D03*
X-210Y152530D03*
X-2500Y177500D03*
X-7500Y172500D03*
X-2500Y182500D03*
X-5030Y195130D03*
Y205130D03*
Y215130D03*
Y225130D03*
Y235130D03*
Y245130D03*
X1700Y252530D03*
X-6200Y262470D03*
X3800D03*
X-2500Y282500D03*
Y277500D03*
X-7500Y272500D03*
X-5030Y300000D03*
Y310000D03*
X-1230Y327250D03*
X-5030Y320000D03*
X2090Y337970D03*
X-7480Y337060D03*
X-8000Y387000D03*
Y373000D03*
X23440Y5030D03*
X13610Y6860D03*
X22530Y17190D03*
X21970Y26860D03*
Y36860D03*
X19970Y56860D03*
Y46860D03*
X10030Y56200D03*
Y66200D03*
X20030Y70360D03*
X10030Y86200D03*
Y76200D03*
X20030Y80360D03*
X19000Y90990D03*
X10030Y106200D03*
Y96200D03*
X20030Y110360D03*
Y100360D03*
X11690Y122470D03*
X19000Y121000D03*
X10000Y133000D03*
X10030Y142470D03*
X20030Y140360D03*
X11670Y162470D03*
X9790Y152470D03*
X20030Y160360D03*
Y150360D03*
Y170360D03*
Y190360D03*
Y180360D03*
Y200360D03*
X19000Y210990D03*
X20030Y230360D03*
Y220360D03*
X19000Y240990D03*
X11700Y252530D03*
X17470Y260700D03*
X20030Y250360D03*
X17470Y270700D03*
X20030Y280360D03*
X7530Y271750D03*
Y281750D03*
X10050Y291430D03*
X19400Y294970D03*
X20000Y305000D03*
X7500D03*
X20000Y317500D03*
X7500D03*
X18740Y328030D03*
X8740D03*
X22090Y337970D03*
X12090D03*
X21000Y361000D03*
X19250Y371220D03*
X10000Y375030D03*
X19990Y384540D03*
X10000Y384970D03*
X21000Y391000D03*
Y421000D03*
Y451000D03*
X32080Y10060D03*
X32470Y20050D03*
Y30050D03*
X32860Y55120D03*
X29730Y44260D03*
X39000Y62500D03*
X25780Y62190D03*
X31290Y70740D03*
X29970Y90650D03*
Y80650D03*
X39970Y80680D03*
Y90680D03*
X29970Y100650D03*
X39970Y100680D03*
X29970Y120650D03*
Y110650D03*
X39970Y110680D03*
Y120680D03*
X29970Y140650D03*
Y130650D03*
X39970Y130680D03*
Y140680D03*
X29970Y160650D03*
Y150650D03*
X39970Y150680D03*
Y160680D03*
X29970Y170650D03*
X39970Y170680D03*
X29970Y190650D03*
Y180650D03*
X39970Y180680D03*
Y190680D03*
X29970Y210650D03*
Y200650D03*
X39970Y200680D03*
Y210680D03*
X29970Y230650D03*
Y220650D03*
X39970Y220680D03*
Y230680D03*
X29970Y240650D03*
X39970Y240680D03*
X29970Y260650D03*
Y250650D03*
X39970Y250680D03*
Y260680D03*
X29970Y280650D03*
Y270650D03*
X39970Y270680D03*
Y280680D03*
X28360Y290520D03*
X30030Y297300D03*
X39970Y290680D03*
Y300680D03*
X30030Y307300D03*
Y317300D03*
X39970Y310680D03*
X28320Y325160D03*
X39970Y320680D03*
X38900Y330630D03*
X40030Y339600D03*
Y349600D03*
X31830Y337700D03*
X33390Y357080D03*
X26320Y364150D03*
X41200Y363320D03*
X34130Y370400D03*
X40030Y371700D03*
X27060Y377470D03*
X57520Y22770D03*
X57500Y22820D03*
X42530Y23710D03*
X47770Y15200D03*
X57500Y12880D03*
X52500Y27500D03*
X55000Y32500D03*
X47500Y40000D03*
X41780Y33690D03*
X55040Y35030D03*
X54000Y47500D03*
X46500Y55000D03*
X55420Y57110D03*
X41710Y44970D03*
X42280Y71250D03*
X48350Y64180D03*
X54430Y68760D03*
X49970Y76400D03*
Y86400D03*
Y96400D03*
Y106400D03*
Y116400D03*
Y126400D03*
Y136400D03*
Y146400D03*
Y156400D03*
Y166400D03*
Y176400D03*
Y186400D03*
Y196400D03*
Y206400D03*
Y216400D03*
Y226400D03*
Y236400D03*
Y246400D03*
Y256400D03*
Y266400D03*
Y276400D03*
Y286400D03*
Y296400D03*
Y306400D03*
Y316400D03*
Y326400D03*
Y336400D03*
Y346400D03*
X55490Y364040D03*
X48270Y356250D03*
X56400Y380030D03*
X49970Y372370D03*
X41980Y381510D03*
X49050Y388580D03*
X51000Y421000D03*
Y451000D03*
X70000Y10000D03*
X62500D03*
X64970Y35350D03*
X75000Y52500D03*
X60000D03*
X75000Y50000D03*
X60000D03*
X68570Y54620D03*
X65000Y45000D03*
X61500Y61690D03*
X69970Y86990D03*
X70040Y76990D03*
X59970Y85090D03*
X74150Y106320D03*
X69970Y106990D03*
Y96990D03*
X59970Y105090D03*
Y95090D03*
X69970Y126990D03*
Y116990D03*
X59970Y125090D03*
Y115090D03*
X69970Y136990D03*
X59970Y145090D03*
Y135090D03*
X69970Y156990D03*
Y146990D03*
X59970Y155090D03*
X69970Y176990D03*
Y166990D03*
X59970Y175090D03*
Y165090D03*
X69970Y196990D03*
Y186990D03*
X59970Y195090D03*
Y185090D03*
X69970Y206990D03*
X59970Y205090D03*
X69970Y226990D03*
Y216990D03*
X59970Y225090D03*
Y215090D03*
X69970Y246990D03*
Y236990D03*
X59970Y245090D03*
Y235090D03*
X69970Y256990D03*
X59970Y265090D03*
Y255090D03*
X69970Y276990D03*
Y266990D03*
X59970Y275090D03*
X69970Y296990D03*
Y286990D03*
X59970Y295090D03*
Y285090D03*
X69970Y316990D03*
Y306990D03*
X59970Y315090D03*
Y305090D03*
X75920Y335030D03*
X69970Y326990D03*
X59970Y335090D03*
Y325090D03*
X75870Y344970D03*
X65870D03*
X59970Y345090D03*
Y355090D03*
X65940Y377030D03*
X68530Y388280D03*
X68800Y388230D03*
X58950Y389970D03*
X92500Y10000D03*
X85000D03*
X77500D03*
X80000Y50000D03*
X85000D03*
X90000D03*
Y52500D03*
X85000D03*
X80000D03*
X92500Y72500D03*
X87500D03*
X82500Y77500D03*
Y82500D03*
X87470Y107060D03*
X81220Y99250D03*
X90000Y113000D03*
X83000D03*
X90310Y122470D03*
X79000Y121000D03*
X89000Y133000D03*
Y140000D03*
X80000Y134000D03*
X87980Y152530D03*
X81850Y146380D03*
X91180Y149970D03*
X88370Y162470D03*
X78370D03*
X81000Y151000D03*
X92500Y172500D03*
X82500Y177500D03*
X87500Y172500D03*
X82500Y182500D03*
X85030Y197720D03*
X87800Y207320D03*
X81000Y211000D03*
Y241000D03*
X92500Y272500D03*
X82500Y277500D03*
Y282500D03*
X87500Y272500D03*
X85030Y300900D03*
Y310900D03*
Y320900D03*
Y330900D03*
X85870Y344970D03*
X92000Y372000D03*
X88000D03*
X92000Y388000D03*
X88000D03*
X81000Y421000D03*
Y451000D03*
X107500Y10000D03*
X100000D03*
X104970Y35550D03*
X95000Y52500D03*
Y50000D03*
X100000Y52500D03*
Y50000D03*
X105230Y49770D03*
X104460Y55030D03*
X95000Y55000D03*
X110000Y67500D03*
X97500Y82500D03*
Y77500D03*
X104980Y100030D03*
X94540Y99990D03*
X102500Y112500D03*
X99180Y117850D03*
X104000Y133000D03*
Y140000D03*
X96000D03*
Y133000D03*
X107530Y155500D03*
X97980Y152530D03*
X101180Y149970D03*
X110550Y146470D03*
X98370Y162470D03*
X97500Y177500D03*
Y182500D03*
X94870Y214400D03*
X96640Y202170D03*
X96630Y202100D03*
X103700Y209180D03*
X101940Y221470D03*
X107530Y229760D03*
X109000Y241000D03*
X107530Y249760D03*
Y259760D03*
X97500Y282500D03*
Y277500D03*
X107530Y279760D03*
X109000Y271000D03*
X109930Y289470D03*
X94970Y300000D03*
Y310000D03*
Y320000D03*
Y330000D03*
X94540Y339990D03*
X98000Y382000D03*
Y378000D03*
X122500Y17500D03*
Y10000D03*
X115000D03*
Y35000D03*
X122500Y32500D03*
Y25000D03*
X112310Y56840D03*
X112090Y42570D03*
X119160Y49640D03*
X125000Y67500D03*
X122470Y59080D03*
X112530Y76840D03*
Y86840D03*
X122530Y92300D03*
Y82300D03*
X112530Y96840D03*
X112470Y106660D03*
X122530Y102300D03*
X112470Y126660D03*
Y116660D03*
X122530Y122300D03*
Y112300D03*
X112470Y136660D03*
X122530Y142300D03*
Y132300D03*
Y162300D03*
Y152300D03*
X111000Y151000D03*
X117030Y167470D03*
X122530Y172300D03*
Y192300D03*
Y182300D03*
X111000Y181000D03*
X122530Y212300D03*
Y202300D03*
X111000Y211000D03*
X110780Y216250D03*
X117470Y223670D03*
X122530Y222300D03*
X117470Y233670D03*
Y243670D03*
X122530Y242300D03*
Y232300D03*
X117470Y253670D03*
Y263670D03*
X122530Y262300D03*
Y252300D03*
X120000Y282500D03*
X117470Y273670D03*
X122530Y272300D03*
X117500Y292500D03*
X127760Y291780D03*
X111000Y301000D03*
Y331000D03*
Y361000D03*
Y391000D03*
Y421000D03*
Y451000D03*
X144560Y36570D03*
X141000Y31000D03*
X145000Y25000D03*
X142470Y56080D03*
X137490Y43640D03*
X132530Y52320D03*
Y62320D03*
X130240Y73220D03*
X142470Y76760D03*
Y86760D03*
X132470Y92960D03*
Y82960D03*
X142470Y96760D03*
Y106760D03*
X132470Y102960D03*
X142470Y116760D03*
Y126760D03*
X132470Y122960D03*
Y112960D03*
X142470Y136760D03*
X132470Y142960D03*
Y132960D03*
X142470Y146760D03*
Y156760D03*
X132470Y152960D03*
X142470Y166760D03*
Y176760D03*
X132470Y172960D03*
Y162960D03*
X142470Y186760D03*
Y196760D03*
X132470Y192960D03*
Y182960D03*
X142470Y206760D03*
X132470Y212960D03*
Y202960D03*
X142470Y216760D03*
Y226760D03*
X132470Y222960D03*
X142470Y236760D03*
Y246760D03*
X132470Y242960D03*
Y232960D03*
X142470Y256760D03*
X132470Y262960D03*
Y252960D03*
X142470Y266760D03*
Y276760D03*
X132470Y282960D03*
Y272960D03*
X137540Y295730D03*
X142630Y286760D03*
X141000Y331000D03*
Y361000D03*
Y391000D03*
Y421000D03*
Y451000D03*
X147500Y17500D03*
X152500Y10000D03*
X160000D03*
X150000Y50000D03*
Y52500D03*
X155000Y50000D03*
Y52500D03*
X154200Y59600D03*
X159200Y58730D03*
X147010Y64990D03*
X152470Y73370D03*
Y83370D03*
Y93370D03*
X152530Y103370D03*
X160650Y97530D03*
X152470Y123370D03*
X152530D03*
Y113370D03*
X162470Y119240D03*
X152530Y133370D03*
X162470Y129240D03*
X146620Y148650D03*
X156370Y150900D03*
X155480Y185790D03*
X155000Y216000D03*
X162470Y247380D03*
X152530Y245350D03*
X154850Y235620D03*
X162470Y257380D03*
X152530Y265350D03*
Y255350D03*
X162470Y277380D03*
Y267380D03*
X152530Y275350D03*
X147390Y297470D03*
X157270Y295920D03*
X162470Y287380D03*
X152530Y285350D03*
X167500Y10000D03*
X175000D03*
X165000Y52500D03*
Y50000D03*
X170000Y52500D03*
Y50000D03*
X175000Y52500D03*
Y50000D03*
X177500Y72500D03*
X172500Y77500D03*
Y82500D03*
X170600Y98570D03*
X175030Y107530D03*
X179440Y98970D03*
X165030Y109570D03*
X171160Y117470D03*
X175000Y140000D03*
X172500Y130000D03*
X170000Y140000D03*
X165000Y145000D03*
X177500Y152500D03*
X163440Y157970D03*
X172370Y162470D03*
X171000Y151000D03*
X172500Y177500D03*
X177500Y172500D03*
X172500Y182500D03*
X175030Y210000D03*
Y200000D03*
X163140Y230030D03*
X173140Y229820D03*
X175030Y220000D03*
X179000Y238020D03*
X171000Y241000D03*
X172500Y277500D03*
Y282500D03*
X177500Y272500D03*
X172530Y312500D03*
Y302500D03*
X175500Y330500D03*
X172530Y322500D03*
X177500Y350000D03*
X175000Y360000D03*
X172000Y382000D03*
Y378000D03*
X178000Y388000D03*
X171000Y421000D03*
Y451000D03*
X195000Y5380D03*
X185850Y9420D03*
X182500Y10000D03*
X189960Y35030D03*
X185000Y50000D03*
X180000D03*
Y52500D03*
X185000D03*
X195530Y66380D03*
X182500Y72500D03*
X187500Y82500D03*
Y77500D03*
X185030Y107270D03*
X194970Y106780D03*
X191820Y97290D03*
X192500Y127500D03*
X182470Y124650D03*
X181160Y117470D03*
X191050Y115980D03*
X192500Y137500D03*
X182500Y132500D03*
Y142500D03*
X192500Y152500D03*
X185000D03*
X182370Y162470D03*
X192370D03*
X187500Y177500D03*
X182500Y172500D03*
X187500Y182500D03*
X184970Y210000D03*
Y200000D03*
Y230000D03*
Y220000D03*
X188810Y236070D03*
X185960Y260020D03*
X185630Y270010D03*
X187500Y282500D03*
Y277500D03*
X182500Y272500D03*
X182470Y312500D03*
Y302500D03*
X195030Y302960D03*
Y312960D03*
X185000Y332500D03*
X182470Y322500D03*
X195000Y332500D03*
X194640Y322530D03*
X184690Y343270D03*
X190410Y351610D03*
X184970Y360000D03*
X188000Y378000D03*
Y382000D03*
X182000Y388000D03*
X205000Y5380D03*
X212500Y20000D03*
X209960Y35030D03*
X199960D03*
X212500Y27500D03*
X212070Y58110D03*
X204040Y73580D03*
X207530Y82960D03*
Y92960D03*
X201000Y91000D03*
X207530Y102960D03*
Y112960D03*
Y122960D03*
X197500Y127500D03*
X199500Y117530D03*
X207530Y132960D03*
Y142960D03*
X197500Y145000D03*
Y137500D03*
X207530Y152960D03*
X202360Y162160D03*
X207530Y162960D03*
Y172960D03*
Y182960D03*
Y192960D03*
X201000Y181000D03*
X207530Y202960D03*
Y212960D03*
X201000Y211000D03*
X207530Y222960D03*
Y232960D03*
Y242960D03*
X201000Y241000D03*
X207530Y252960D03*
Y262960D03*
Y272960D03*
Y282960D03*
X201000Y271000D03*
X200000Y297500D03*
X207530Y292960D03*
X212500Y315000D03*
X210000Y307500D03*
X205030Y312960D03*
X212500Y330000D03*
X204640Y322530D03*
X204550Y337470D03*
X197480Y344540D03*
X201000Y361000D03*
Y391000D03*
Y421000D03*
Y451000D03*
X215000Y5380D03*
X228220D03*
X215000Y15320D03*
X225000Y25000D03*
Y27500D03*
X229950Y35420D03*
X219960Y35030D03*
X231000Y31000D03*
X219000Y52500D03*
X224790Y45270D03*
X231860Y52350D03*
X226500Y60000D03*
X219140Y65180D03*
X217470Y88310D03*
X216590Y76130D03*
X227470Y76400D03*
Y86400D03*
X217470Y98310D03*
Y108310D03*
X227470Y96400D03*
Y106400D03*
X217470Y118310D03*
X227470Y116400D03*
Y126400D03*
X217470Y128310D03*
Y138310D03*
X227470Y136400D03*
X217470Y148310D03*
Y158310D03*
X227470Y146400D03*
Y156400D03*
X217470Y168310D03*
Y178310D03*
X227470Y166400D03*
Y176400D03*
X217470Y188310D03*
X227470Y186400D03*
Y196400D03*
X217470Y198310D03*
Y208310D03*
X227470Y206400D03*
X217470Y218310D03*
Y228310D03*
X227470Y216400D03*
Y226400D03*
X217470Y238310D03*
Y248310D03*
X227470Y236400D03*
Y246400D03*
X217470Y258310D03*
X227470Y256400D03*
Y266400D03*
X217470Y268310D03*
Y278310D03*
X227470Y276400D03*
X217470Y288310D03*
Y298310D03*
X227470Y286400D03*
Y296400D03*
X217470Y308310D03*
X227530Y311980D03*
Y321980D03*
X218690Y323320D03*
X215110Y338170D03*
X231000Y361000D03*
Y391000D03*
Y421000D03*
Y451000D03*
X238220Y5380D03*
X248220D03*
X236700Y15320D03*
X245030Y20850D03*
Y30850D03*
Y40850D03*
X244090Y49570D03*
X237020Y42490D03*
X234000Y67500D03*
X237530Y73800D03*
X238940Y59420D03*
X246010Y66490D03*
X237530Y83800D03*
X247470Y76380D03*
Y86380D03*
X237530Y93800D03*
Y103800D03*
X247470Y96380D03*
Y106380D03*
X237530Y113800D03*
Y123800D03*
X247470Y116380D03*
Y126380D03*
X237530Y133800D03*
Y143800D03*
X247470Y136380D03*
X237530Y153800D03*
X247470Y146380D03*
Y156380D03*
X237530Y163800D03*
Y173800D03*
X247470Y166380D03*
Y176380D03*
X237530Y183800D03*
Y193800D03*
X247470Y186380D03*
Y196380D03*
X237530Y203800D03*
Y213800D03*
X247470Y206380D03*
X237530Y223800D03*
X247470Y216380D03*
Y226380D03*
X237530Y233800D03*
Y243800D03*
X247470Y236380D03*
Y246380D03*
X237530Y253800D03*
Y263800D03*
X247470Y256380D03*
Y266380D03*
X237530Y273800D03*
Y283800D03*
X247470Y276380D03*
X237530Y293800D03*
X247470Y286380D03*
Y296380D03*
X237530Y303800D03*
Y313800D03*
X247470Y306380D03*
X234690Y327720D03*
X241770Y334790D03*
X240990Y319960D03*
X248060Y327030D03*
X248840Y341870D03*
X254970Y12760D03*
Y22760D03*
Y32760D03*
Y42760D03*
X260570Y51040D03*
X251170Y56640D03*
X257470Y74400D03*
Y64400D03*
Y84400D03*
Y104400D03*
Y94400D03*
Y124400D03*
Y114400D03*
Y144400D03*
Y134400D03*
Y154400D03*
Y174400D03*
Y164400D03*
Y194400D03*
Y184400D03*
Y214400D03*
Y204400D03*
Y224400D03*
Y244400D03*
Y234400D03*
X261000Y241000D03*
X252500Y255000D03*
X259880Y259470D03*
X261000Y271000D03*
Y301000D03*
X255360Y312530D03*
X265360D03*
X256060Y333030D03*
X252780Y322470D03*
X262780D03*
X255080Y346610D03*
X261320Y338800D03*
X262150Y353680D03*
X261000Y361000D03*
Y391000D03*
X259000Y421000D03*
X261000Y451000D03*
X267470Y58280D03*
X282500Y72500D03*
X277500D03*
X272500Y77500D03*
Y82500D03*
X267470Y78280D03*
X280000Y105000D03*
X267530Y108170D03*
X269580Y98390D03*
X283470Y124970D03*
X267470Y118280D03*
X274870Y114970D03*
X282770Y144970D03*
X267470Y128280D03*
X269600Y138370D03*
X279000Y134970D03*
X274850Y154970D03*
X267530Y148150D03*
X282500Y172500D03*
X272500Y177500D03*
X277500Y172500D03*
X272500Y182500D03*
X275030Y196100D03*
Y206100D03*
X276470Y215990D03*
X274120Y223860D03*
X267530Y231380D03*
X269200Y241240D03*
X269880Y259470D03*
X279880D03*
X266970Y249530D03*
X276970D03*
X282500Y272500D03*
X272500Y277500D03*
Y282500D03*
X277500Y272500D03*
X275030Y300000D03*
Y310000D03*
X272780Y322470D03*
X282380Y319660D03*
X268400Y345870D03*
X275470Y352940D03*
X269220Y360750D03*
X282540Y360010D03*
X272000Y378000D03*
Y382000D03*
X282000Y388000D03*
X278000D03*
X291000Y61000D03*
X287500Y82500D03*
Y77500D03*
X288000Y105000D03*
X288010Y96900D03*
X293000Y125000D03*
X284870Y114970D03*
X292750Y144280D03*
X284850Y154970D03*
X287500Y177500D03*
Y182500D03*
X284970Y202740D03*
X291000Y211000D03*
X284040Y222530D03*
X294970Y220010D03*
X292380Y229660D03*
X283940Y235030D03*
X293240Y238710D03*
X294970Y248560D03*
X289870Y257160D03*
X287500Y282500D03*
Y277500D03*
X284970Y300000D03*
X291000Y301000D03*
X284970Y310000D03*
X291000Y331000D03*
Y361000D03*
X288000Y378000D03*
Y382000D03*
X291000Y451000D03*
G54D13*
X-10000Y80000D03*
Y180000D03*
Y280000D03*
Y380000D03*
X90000Y80000D03*
Y180000D03*
Y280000D03*
Y380000D03*
X180000Y80000D03*
Y180000D03*
Y280000D03*
Y380000D03*
X280000Y80000D03*
Y180000D03*
Y280000D03*
Y380000D03*
G54D14*
X57500Y17850D03*
Y27150D03*
X75000Y35350D03*
Y44650D03*
X85000Y35350D03*
Y44650D03*
X95000Y35350D03*
Y44650D03*
X150000Y35350D03*
Y44650D03*
X165000Y35350D03*
X175000D03*
X165000Y44650D03*
X175000D03*
X185000Y35350D03*
Y44650D03*
G54D15*
X65000Y17300D03*
X75000D03*
X65000Y27300D03*
X75000D03*
X85000Y17300D03*
X95000D03*
X85000Y27300D03*
X95000D03*
X105000Y17300D03*
Y27300D03*
X115000Y17300D03*
X155000D03*
Y27300D03*
X165000Y17300D03*
X175000D03*
X165000Y27300D03*
X175000D03*
X185000Y17300D03*
X195000D03*
X185000Y27300D03*
X195000D03*
X205000Y17300D03*
G54D16*
X115000Y27300D03*
X205000D03*
G54D17*
G01X-20000Y64550D02*
Y70000D01*
G01D02*
Y75450D01*
G01X-25450Y70000D02*
X-20000D01*
G01D02*
X-14550D01*
G01X-20000Y84550D02*
Y90000D01*
G01D02*
Y95450D01*
G01X-25450Y90000D02*
X-20000D01*
G01D02*
X-14550D01*
G01X57500Y17850D02*
X52150D01*
X47500Y22500D01*
Y35000D01*
X42500Y40000D01*
X32500D01*
X27500Y35000D01*
Y12500D01*
X25000Y10000D01*
X17500D01*
X15000Y12500D01*
Y115000D01*
X12500Y117500D01*
X5000D01*
X2500Y120000D01*
Y125000D01*
X5000Y127500D01*
X12500D01*
X15000Y130000D01*
Y135000D01*
X12500Y137500D01*
X5000D01*
X2500Y140000D01*
Y145000D01*
X5000Y147500D01*
X12500D01*
X15000Y150000D01*
Y155000D01*
X12500Y157500D01*
X-7500D01*
X-10000Y155000D01*
Y152500D01*
X-12500Y150000D01*
X-17500D01*
X-20000Y147500D01*
Y142500D01*
X-17500Y140000D01*
X-12500D01*
X-10000Y137500D01*
Y132500D01*
X-12500Y130000D01*
X-17500D01*
X-20000Y127500D01*
Y122500D01*
X-17500Y120000D01*
X-12500D01*
X-10000Y117500D01*
Y112500D01*
X-12500Y110000D01*
X-17500D01*
X-20000Y107500D01*
Y102500D01*
X-17500Y100000D01*
X-12500D01*
X-10000Y97500D01*
Y80000D01*
G01X-20000Y164550D02*
Y170000D01*
G01D02*
Y175450D01*
G01X-25450Y170000D02*
X-20000D01*
G01D02*
X-14550D01*
G01X-20000Y184550D02*
Y190000D01*
G01D02*
Y195450D01*
G01X-25450Y190000D02*
X-20000D01*
G01D02*
X-14550D01*
G01X-20000Y264550D02*
Y270000D01*
G01D02*
Y275450D01*
G01X-25450Y270000D02*
X-20000D01*
G01D02*
X-14550D01*
G01X-20000Y284550D02*
Y290000D01*
G01D02*
Y295450D01*
G01X-25450Y290000D02*
X-20000D01*
G01D02*
X-14550D01*
G01X-20000Y364550D02*
Y370000D01*
G01D02*
Y375450D01*
G01X-25450Y370000D02*
X-20000D01*
G01D02*
X-14550D01*
G01X-20000Y384550D02*
Y390000D01*
G01D02*
Y395450D01*
G01X-25450Y390000D02*
X-20000D01*
G01D02*
X-14550D01*
G01X0Y64550D02*
Y70000D01*
G01D02*
Y75450D01*
G01X-5450Y70000D02*
X0D01*
G01D02*
X5450D01*
G01X0Y84550D02*
Y90000D01*
G01D02*
Y95450D01*
G01X-5450Y90000D02*
X0D01*
G01D02*
X5450D01*
G01X0Y164550D02*
Y170000D01*
G01D02*
Y175450D01*
G01X-5450Y170000D02*
X0D01*
G01D02*
X5450D01*
G01X0Y184550D02*
Y190000D01*
G01D02*
Y195450D01*
G01X-5450Y190000D02*
X0D01*
G01D02*
X5450D01*
G01X0Y264550D02*
Y270000D01*
G01D02*
Y275450D01*
G01X-5450Y270000D02*
X0D01*
G01D02*
X5450D01*
G01X-10000Y280000D02*
Y327510D01*
X-5010Y332500D01*
X30000D01*
X35000Y327500D01*
Y72500D01*
X57500Y50000D01*
Y47500D01*
X65000Y40000D01*
X73800D01*
X75000Y38800D01*
Y35350D01*
G01X0Y284550D02*
Y290000D01*
G01D02*
Y295450D01*
G01X-5450Y290000D02*
X0D01*
G01D02*
X5450D01*
G01X0Y364550D02*
Y370000D01*
G01D02*
Y375450D01*
G01X-5450Y370000D02*
X0D01*
G01D02*
X5450D01*
G01X0Y384550D02*
Y390000D01*
G01D02*
Y395450D01*
G01X-5450Y390000D02*
X0D01*
G01D02*
X5450D01*
G01X65000Y17300D02*
X64450Y17850D01*
X57500D01*
G01Y27150D02*
Y30140D01*
G01Y24160D02*
Y27150D01*
G01X54220D02*
X57500D01*
G01X85000Y35350D02*
Y40000D01*
X83790Y41210D01*
X81950D01*
X80000Y43160D01*
Y46140D01*
X77500Y48640D01*
Y53660D01*
X55000Y76160D01*
Y357500D01*
X45000Y367500D01*
Y377500D01*
X52500Y385000D01*
X65000D01*
X70000Y380000D01*
X90000D01*
G01X75000Y35350D02*
Y27300D01*
G01Y44650D02*
Y47500D01*
G01X74550Y70000D02*
X80000D01*
G01X74550Y90000D02*
X80000D01*
G01X74550Y170000D02*
X80000D01*
G01X74550Y190000D02*
X80000D01*
G01X74550Y270000D02*
X80000D01*
G01X74550Y290000D02*
X80000D01*
G01X74550Y370000D02*
X80000D01*
G01X74550Y390000D02*
X80000D01*
G01X85000Y35350D02*
Y27300D01*
G01Y47640D02*
Y44650D01*
G01X90000Y180000D02*
Y202500D01*
X112500Y225000D01*
Y282500D01*
X117500Y287500D01*
X126160D01*
X127500Y286160D01*
Y77500D01*
X110000Y60000D01*
X92500D01*
X87500Y55000D01*
Y48640D01*
X90000Y46140D01*
Y43160D01*
X91950Y41210D01*
X93790D01*
X95000Y40000D01*
Y35350D01*
G01X80000Y64550D02*
Y70000D01*
G01D02*
Y75450D01*
G01Y70000D02*
X85450D01*
G01X80000Y84550D02*
Y90000D01*
G01D02*
Y95450D01*
G01Y90000D02*
X85450D01*
G01X80000Y164550D02*
Y170000D01*
G01D02*
Y175450D01*
G01Y170000D02*
X85450D01*
G01X80000Y184550D02*
Y190000D01*
G01D02*
Y195450D01*
G01Y190000D02*
X85450D01*
G01X80000Y264550D02*
Y270000D01*
G01D02*
Y275450D01*
G01Y270000D02*
X85450D01*
G01X80000Y284550D02*
Y290000D01*
G01D02*
Y295450D01*
G01Y290000D02*
X85450D01*
G01X80000Y364550D02*
Y370000D01*
G01D02*
Y375450D01*
G01Y370000D02*
X85450D01*
G01X80000Y384550D02*
Y390000D01*
G01D02*
Y395450D01*
G01Y390000D02*
X85450D01*
G01X105000Y13330D02*
Y17300D01*
G01D02*
Y21270D01*
G01X101030Y17300D02*
X105000D01*
G01D02*
X108970D01*
G01X105000Y23330D02*
Y27300D01*
G01D02*
Y31270D01*
G01X101030Y27300D02*
X105000D01*
G01D02*
X108970D01*
G01X95000D02*
Y35350D01*
G01X99650Y44650D02*
X95000D01*
G01D02*
Y50000D01*
G01X100000Y64550D02*
Y70000D01*
G01D02*
Y75450D01*
G01X94550Y70000D02*
X100000D01*
G01D02*
X105450D01*
G01X100000Y84550D02*
Y90000D01*
G01D02*
Y95450D01*
G01X94550Y90000D02*
X100000D01*
G01D02*
X105450D01*
G01X100000Y164550D02*
Y170000D01*
G01D02*
Y175450D01*
G01X94550Y170000D02*
X100000D01*
G01D02*
X105450D01*
G01X100000Y184550D02*
Y190000D01*
G01D02*
Y195450D01*
G01X94550Y190000D02*
X100000D01*
G01D02*
X105450D01*
G01X100000Y264550D02*
Y270000D01*
G01D02*
Y275450D01*
G01X94550Y270000D02*
X100000D01*
G01D02*
X105450D01*
G01X100000Y284550D02*
Y290000D01*
G01D02*
Y295450D01*
G01X94550Y290000D02*
X100000D01*
G01D02*
X105450D01*
G01X100000Y364550D02*
Y370000D01*
G01D02*
Y375450D01*
G01X94550Y370000D02*
X100000D01*
G01D02*
X105450D01*
G01X100000Y384550D02*
Y390000D01*
G01D02*
Y395450D01*
G01X94550Y390000D02*
X100000D01*
G01D02*
X105450D01*
G01X180000Y80000D02*
Y92500D01*
X190000Y102500D01*
Y110000D01*
X187500Y112500D01*
X172500D01*
X170000Y110000D01*
Y105000D01*
X167500Y102500D01*
X160000D01*
X157500Y105000D01*
Y135000D01*
X160000Y137500D01*
X165000D01*
X167500Y135000D01*
Y125000D01*
X170000Y122500D01*
X175000D01*
X177500Y125000D01*
Y135000D01*
X180000Y137500D01*
X185000D01*
X187500Y135000D01*
Y125000D01*
X190000Y122500D01*
X200000D01*
X202500Y125000D01*
Y155000D01*
X200000Y157500D01*
X170000D01*
X157500Y145000D01*
X150000D01*
X147500Y142500D01*
Y72500D01*
X137500Y62500D01*
Y50660D01*
X146950Y41210D01*
X148790D01*
X150000Y40000D01*
Y35350D01*
G01X155000Y17300D02*
X150000Y22300D01*
Y35350D01*
G01X165000D02*
Y38800D01*
X162590Y41210D01*
X161350D01*
X160000Y42560D01*
Y52500D01*
X170000Y62500D01*
X199990D01*
X212500Y75010D01*
Y300000D01*
X210000Y302500D01*
X202580D01*
X200000Y305080D01*
Y325000D01*
X197500Y327500D01*
X180000D01*
X177500Y325000D01*
Y297500D01*
X180000Y295000D01*
Y280000D01*
G01X150000Y44650D02*
Y47640D01*
G01Y44650D02*
X153280D01*
G01X175000Y27300D02*
Y35350D01*
G01D02*
Y40000D01*
X176210Y41210D01*
X178050D01*
X180000Y43160D01*
Y46140D01*
X182500Y48640D01*
Y53070D01*
X184430Y55000D01*
X190000D01*
X194860Y50140D01*
X209880D01*
X232500Y72760D01*
Y317500D01*
X280000Y365000D01*
Y380000D01*
G01X165000Y27300D02*
Y35350D01*
G01Y44650D02*
Y47640D01*
G01X175000Y44650D02*
Y47640D01*
G01X170000Y70000D02*
Y75450D01*
G01X164550Y70000D02*
X170000D01*
G01D02*
X175450D01*
G01X170000Y84550D02*
Y90000D01*
G01D02*
Y95450D01*
G01X164550Y90000D02*
X170000D01*
G01D02*
X175450D01*
G01X170000Y164550D02*
Y170000D01*
G01D02*
Y175450D01*
G01X164550Y170000D02*
X170000D01*
G01D02*
X175450D01*
G01X170000Y184550D02*
Y190000D01*
G01D02*
Y195450D01*
G01X164550Y190000D02*
X170000D01*
G01D02*
X175450D01*
G01X170000Y264550D02*
Y270000D01*
G01D02*
Y275450D01*
G01X164550Y270000D02*
X170000D01*
G01D02*
X175450D01*
G01X170000Y284550D02*
Y290000D01*
G01D02*
Y295450D01*
G01X164550Y290000D02*
X170000D01*
G01D02*
X175450D01*
G01X170000Y364550D02*
Y370000D01*
G01D02*
Y375450D01*
G01X164550Y370000D02*
X170000D01*
G01D02*
X175450D01*
G01X170000Y384550D02*
Y390000D01*
G01D02*
Y395450D01*
G01X164550Y390000D02*
X170000D01*
G01D02*
X175450D01*
G01X195000Y13330D02*
Y17300D01*
G01D02*
Y21270D01*
G01X191030Y17300D02*
X195000D01*
G01D02*
X198970D01*
G01X185000Y27300D02*
Y35350D01*
G01X280000Y180000D02*
Y212500D01*
X282500Y215000D01*
X287500D01*
X290000Y217500D01*
Y225010D01*
X287510Y227500D01*
X277510D01*
X272500Y232510D01*
Y237510D01*
X274990Y240000D01*
X287500D01*
X290000Y242500D01*
Y250000D01*
X285000Y255000D01*
X260000D01*
X252500Y247500D01*
Y65000D01*
X228710Y41210D01*
X187160D01*
X185000Y39050D01*
Y35350D01*
G01X195000Y23330D02*
Y27300D01*
G01D02*
Y31270D01*
G01X191030Y27300D02*
X195000D01*
G01D02*
X198970D01*
G01X185000Y44650D02*
Y47640D01*
G01Y44650D02*
X188280D01*
G01X190000Y70000D02*
Y75450D01*
G01X184550Y70000D02*
X190000D01*
G01D02*
X195450D01*
G01X190000Y84550D02*
Y90000D01*
G01D02*
Y95450D01*
G01X184550Y90000D02*
X190000D01*
G01D02*
X195450D01*
G01X190000Y164550D02*
Y170000D01*
G01D02*
Y175450D01*
G01X184550Y170000D02*
X190000D01*
G01D02*
X195450D01*
G01X190000Y184550D02*
Y190000D01*
G01D02*
Y195450D01*
G01X184550Y190000D02*
X190000D01*
G01D02*
X195450D01*
G01X190000Y264550D02*
Y270000D01*
G01D02*
Y275450D01*
G01Y270000D02*
X195450D01*
G01X190000Y284550D02*
Y290000D01*
G01D02*
Y295450D01*
G01X184550Y290000D02*
X190000D01*
G01D02*
X195450D01*
G01X190000Y364550D02*
Y370000D01*
G01D02*
Y375450D01*
G01X184550Y370000D02*
X190000D01*
G01D02*
X195450D01*
G01X190000Y384550D02*
Y390000D01*
G01D02*
Y395450D01*
G01X184550Y390000D02*
X190000D01*
G01D02*
X195450D01*
G01X264550Y70000D02*
X270000D01*
G01X264550Y90000D02*
X270000D01*
G01X264550Y170000D02*
X270000D01*
G01X264550Y190000D02*
X270000D01*
G01X264550Y270000D02*
X270000D01*
G01X264550Y290000D02*
X270000D01*
G01X264550Y370000D02*
X270000D01*
G01X264550Y390000D02*
X270000D01*
G01Y64550D02*
Y70000D01*
G01D02*
Y75450D01*
G01Y70000D02*
X275450D01*
G01X270000Y84550D02*
Y90000D01*
G01D02*
Y95450D01*
G01Y90000D02*
X275450D01*
G01X270000Y164550D02*
Y170000D01*
G01D02*
Y175450D01*
G01Y170000D02*
X275450D01*
G01X270000Y184550D02*
Y190000D01*
G01D02*
Y195450D01*
G01Y190000D02*
X275450D01*
G01X270000Y264550D02*
Y270000D01*
G01D02*
Y275450D01*
G01Y270000D02*
X275450D01*
G01X270000Y284550D02*
Y290000D01*
G01D02*
Y295450D01*
G01Y290000D02*
X275450D01*
G01X270000Y364550D02*
Y370000D01*
G01D02*
Y375450D01*
G01Y370000D02*
X275450D01*
G01X270000Y384550D02*
Y390000D01*
G01D02*
Y395450D01*
G01Y390000D02*
X275450D01*
G01X290000Y64550D02*
Y70000D01*
G01D02*
Y75450D01*
G01X284550Y70000D02*
X290000D01*
G01D02*
X295450D01*
G01X290000Y84550D02*
Y90000D01*
G01D02*
Y95450D01*
G01X284550Y90000D02*
X290000D01*
G01D02*
X295450D01*
G01X290000Y164550D02*
Y170000D01*
G01D02*
Y175450D01*
G01X284550Y170000D02*
X290000D01*
G01D02*
X295450D01*
G01X290000Y184550D02*
Y190000D01*
G01D02*
Y195450D01*
G01X284550Y190000D02*
X290000D01*
G01D02*
X295450D01*
G01X290000Y264550D02*
Y270000D01*
G01D02*
Y275450D01*
G01X284550Y270000D02*
X290000D01*
G01D02*
X295450D01*
G01X290000Y284550D02*
Y290000D01*
G01D02*
Y295450D01*
G01X284550Y290000D02*
X290000D01*
G01D02*
X295450D01*
G01X290000Y364550D02*
Y370000D01*
G01D02*
Y375450D01*
G01X284550Y370000D02*
X290000D01*
G01D02*
X295450D01*
G01X290000Y384550D02*
Y390000D01*
G01D02*
Y395450D01*
G01X284550Y390000D02*
X290000D01*
G01D02*
X295450D01*
M02*
