G04 ================== begin FILE IDENTIFICATION RECORD ==================*
G04 Layout Name:  PMOD2BNCSIMPLE_v1_06_62mil_cheap.brd*
G04 Film Name:    BOTTOM*
G04 File Format:  Gerber RS274X*
G04 File Origin:  Cadence Allegro 23.1-P001*
G04 Origin Date:  Sun Dec 10 17:18:10 2023*
G04 *
G04 Layer:  ETCH/BOTTOM*
G04 Layer:  PIN/BOTTOM*
G04 Layer:  VIA CLASS/BOTTOM*
G04 *
G04 Offset:    (0.0000 0.0000)*
G04 Mirror:    No*
G04 Mode:      Positive*
G04 Rotation:  0*
G04 FullContactRelief:  No*
G04 UndefLineWidth:     0.0000*
G04 ================== end FILE IDENTIFICATION RECORD ====================*
%FSLAX55Y55*MOIN*%
%IR0*IPPOS*OFA0.00000B0.00000*MIA0B0*SFA1.00000B1.00000*%
%ADD10C,.255*%
%ADD12C,.02*%
%ADD15C,.065*%
%ADD14R,.0512X.0453*%
%ADD16R,.065X.065*%
%ADD11C,.0945*%
%ADD13R,.0886X.0886*%
%ADD17C,.0134*%
%ADD20C,.105*%
%ADD18C,.2654*%
%ADD19C,.0754*%
G75*
%LPD*%
G75*
G36*
G01X-37990Y450000D02*
X-30000Y457990D01*
X300000D01*
X307990Y450000D01*
Y410000D01*
X297990Y400000D01*
Y60000D01*
X307990Y50000D01*
Y10000D01*
X300000Y2010D01*
X-30000D01*
X-37990Y10000D01*
Y50000D01*
X-27990Y60000D01*
Y400000D01*
X-37990Y410000D01*
Y450000D01*
G37*
%LPC*%
G75*
G36*
G01X184930Y268650D02*
G02Y271370I699J1360D01*
G02X190000Y275250I5070J-1372D01*
G02Y264750I0J-5250D01*
G02X184930Y268650I0J5246D01*
G37*
G36*
G01X175050Y375570D02*
Y384430D01*
G02X175570Y384950I520J0D01*
G01X184430D01*
G02X184950Y384430I0J-520D01*
G01Y375570D01*
G02X184430Y375050I-520J0D01*
G01X175570D01*
G02X175050Y375570I0J520D01*
G37*
G36*
G01X-14950D02*
Y384430D01*
G02X-14430Y384950I520J0D01*
G01X-5570D01*
G02X-5050Y384430I0J-520D01*
G01Y375570D01*
G02X-5570Y375050I-520J0D01*
G01X-14430D01*
G02X-14950Y375570I0J520D01*
G37*
G36*
G01X275050Y275570D02*
Y284430D01*
G02X275570Y284950I520J0D01*
G01X284430D01*
G02X284950Y284430I0J-520D01*
G01Y275570D01*
G02X284430Y275050I-520J0D01*
G01X275570D01*
G02X275050Y275570I0J520D01*
G37*
G36*
G01X85050D02*
Y284430D01*
G02X85570Y284950I520J0D01*
G01X94430D01*
G02X94950Y284430I0J-520D01*
G01Y275570D01*
G02X94430Y275050I-520J0D01*
G01X85570D01*
G02X85050Y275570I0J520D01*
G37*
G36*
G01X175050Y175570D02*
Y184430D01*
G02X175570Y184950I520J0D01*
G01X184430D01*
G02X184950Y184430I0J-520D01*
G01Y175570D01*
G02X184430Y175050I-520J0D01*
G01X175570D01*
G02X175050Y175570I0J520D01*
G37*
G36*
G01X-14950D02*
Y184430D01*
G02X-14430Y184950I520J0D01*
G01X-5570D01*
G02X-5050Y184430I0J-520D01*
G01Y175570D01*
G02X-5570Y175050I-520J0D01*
G01X-14430D01*
G02X-14950Y175570I0J520D01*
G37*
G36*
G01X275050Y75570D02*
Y84430D01*
G02X275570Y84950I520J0D01*
G01X284430D01*
G02X284950Y84430I0J-520D01*
G01Y75570D01*
G02X284430Y75050I-520J0D01*
G01X275570D01*
G02X275050Y75570I0J520D01*
G37*
G36*
G01X85050D02*
Y84430D01*
G02X85570Y84950I520J0D01*
G01X94430D01*
G02X94950Y84430I0J-520D01*
G01Y75570D01*
G02X94430Y75050I-520J0D01*
G01X85570D01*
G02X85050Y75570I0J520D01*
G37*
G36*
G01X201230Y24050D02*
Y30550D01*
G02X201750Y31070I520J0D01*
G01X208250D01*
G02X208770Y30550I0J-520D01*
G01Y24050D01*
G02X208250Y23530I-520J0D01*
G01X201750D01*
G02X201230Y24050I0J520D01*
G37*
G36*
G01X111230D02*
Y30550D01*
G02X111750Y31070I520J0D01*
G01X118250D01*
G02X118770Y30550I0J-520D01*
G01Y24050D01*
G02X118250Y23530I-520J0D01*
G01X111750D01*
G02X111230Y24050I0J520D01*
G37*
G36*
G01X54420Y24880D02*
Y29420D01*
G02X54940Y29940I520J0D01*
G01X60060D01*
G02X60580Y29420I0J-520D01*
G01Y24880D01*
G02X60060Y24360I-520J0D01*
G01X54940D01*
G02X54420Y24880I0J520D01*
G37*
G36*
G01X-11050Y156050D02*
X-8550Y158550D01*
G02X-7500Y158990I1056J-1047D01*
G01X12500D01*
G02X13550Y158550I-6J-1487D01*
G01X16050Y156050D01*
G02X16490Y155000I-1047J-1056D01*
G01Y150000D01*
G02X16050Y148950I-1487J6D01*
G01X13550Y146450D01*
G02X12500Y146010I-1056J1047D01*
G01X5620D01*
X3990Y144380D01*
Y140620D01*
X5620Y138990D01*
X12500D01*
G02X13550Y138550I-6J-1487D01*
G01X16050Y136050D01*
G02X16490Y135000I-1047J-1056D01*
G01Y130000D01*
G02X16050Y128950I-1487J6D01*
G01X13550Y126450D01*
G02X12500Y126010I-1056J1047D01*
G01X5620D01*
X3990Y124380D01*
Y120620D01*
X5620Y118990D01*
X12500D01*
G02X13550Y118550I-6J-1487D01*
G01X16050Y116050D01*
G02X16490Y115000I-1047J-1056D01*
G01Y13120D01*
X18120Y11490D01*
X24380D01*
X26010Y13120D01*
Y35000D01*
G02X26450Y36050I1487J-6D01*
G01X31450Y41050D01*
G02X32500Y41490I1056J-1047D01*
G01X42500D01*
G02X43550Y41050I-6J-1487D01*
G01X48550Y36050D01*
G02X48990Y35000I-1047J-1056D01*
G01Y23120D01*
X52770Y19340D01*
X54420D01*
Y20120D01*
G02X54940Y20640I520J0D01*
G01X60060D01*
G02X60580Y20120I0J-520D01*
G01Y19340D01*
X61830D01*
G02X65000Y21070I3170J-2039D01*
G02Y13530I0J-3770D01*
G02X61390Y16220I0J3767D01*
G01X61350Y16360D01*
X60580D01*
Y15580D01*
G02X60060Y15060I-520J0D01*
G01X54940D01*
G02X54420Y15580I0J520D01*
G01Y16360D01*
X52150D01*
G02X51100Y16800I6J1487D01*
G01X46450Y21450D01*
G02X46010Y22500I1047J1056D01*
G01Y34380D01*
X41880Y38510D01*
X33120D01*
X28990Y34380D01*
Y12500D01*
G02X28550Y11450I-1487J6D01*
G01X26050Y8950D01*
G02X25000Y8510I-1056J1047D01*
G01X17500D01*
G02X16450Y8950I6J1487D01*
G01X13950Y11450D01*
G02X13510Y12500I1047J1056D01*
G01Y114380D01*
X11880Y116010D01*
X5000D01*
G02X3950Y116450I6J1487D01*
G01X1450Y118950D01*
G02X1010Y120000I1047J1056D01*
G01Y125000D01*
G02X1450Y126050I1487J-6D01*
G01X3950Y128550D01*
G02X5000Y128990I1056J-1047D01*
G01X11880D01*
X13510Y130620D01*
Y134380D01*
X11880Y136010D01*
X5000D01*
G02X3950Y136450I6J1487D01*
G01X1450Y138950D01*
G02X1010Y140000I1047J1056D01*
G01Y145000D01*
G02X1450Y146050I1487J-6D01*
G01X3950Y148550D01*
G02X5000Y148990I1056J-1047D01*
G01X11880D01*
X13510Y150620D01*
Y154380D01*
X11880Y156010D01*
X-6880D01*
X-8510Y154380D01*
Y152500D01*
G02X-8950Y151450I-1487J6D01*
G01X-11450Y148950D01*
G02X-12500Y148510I-1056J1047D01*
G01X-16880D01*
X-18510Y146880D01*
Y143120D01*
X-16880Y141490D01*
X-12500D01*
G02X-11450Y141050I-6J-1487D01*
G01X-8950Y138550D01*
G02X-8510Y137500I-1047J-1056D01*
G01Y132500D01*
G02X-8950Y131450I-1487J6D01*
G01X-11450Y128950D01*
G02X-12500Y128510I-1056J1047D01*
G01X-16880D01*
X-18510Y126880D01*
Y123120D01*
X-16880Y121490D01*
X-12500D01*
G02X-11450Y121050I-6J-1487D01*
G01X-8950Y118550D01*
G02X-8510Y117500I-1047J-1056D01*
G01Y112500D01*
G02X-8950Y111450I-1487J6D01*
G01X-11450Y108950D01*
G02X-12500Y108510I-1056J1047D01*
G01X-16880D01*
X-18510Y106880D01*
Y103120D01*
X-16880Y101490D01*
X-12500D01*
G02X-11450Y101050I-6J-1487D01*
G01X-8950Y98550D01*
G02X-8510Y97500I-1047J-1056D01*
G01Y84950D01*
X-5570D01*
G02X-5050Y84430I0J-520D01*
G01Y75570D01*
G02X-5570Y75050I-520J0D01*
G01X-14430D01*
G02X-14950Y75570I0J520D01*
G01Y84430D01*
G02X-14430Y84950I520J0D01*
G01X-11490D01*
Y96880D01*
X-13120Y98510D01*
X-17500D01*
G02X-18550Y98950I6J1487D01*
G01X-21050Y101450D01*
G02X-21490Y102500I1047J1056D01*
G01Y107500D01*
G02X-21050Y108550I1487J-6D01*
G01X-18550Y111050D01*
G02X-17500Y111490I1056J-1047D01*
G01X-13120D01*
X-11490Y113120D01*
Y116880D01*
X-13120Y118510D01*
X-17500D01*
G02X-18550Y118950I6J1487D01*
G01X-21050Y121450D01*
G02X-21490Y122500I1047J1056D01*
G01Y127500D01*
G02X-21050Y128550I1487J-6D01*
G01X-18550Y131050D01*
G02X-17500Y131490I1056J-1047D01*
G01X-13120D01*
X-11490Y133120D01*
Y136880D01*
X-13120Y138510D01*
X-17500D01*
G02X-18550Y138950I6J1487D01*
G01X-21050Y141450D01*
G02X-21490Y142500I1047J1056D01*
G01Y147500D01*
G02X-21050Y148550I1487J-6D01*
G01X-18550Y151050D01*
G02X-17500Y151490I1056J-1047D01*
G01X-13120D01*
X-11490Y153120D01*
Y155000D01*
G02X-11050Y156050I1487J-6D01*
G37*
G36*
G01X170000Y158990D02*
X200000D01*
G02X201050Y158550I-6J-1487D01*
G01X203550Y156050D01*
G02X203990Y155000I-1047J-1056D01*
G01Y125000D01*
G02X203550Y123950I-1487J6D01*
G01X201050Y121450D01*
G02X200000Y121010I-1056J1047D01*
G01X190000D01*
G02X188950Y121450I6J1487D01*
G01X186450Y123950D01*
G02X186010Y125000I1047J1056D01*
G01Y134380D01*
X184380Y136010D01*
X180620D01*
X178990Y134380D01*
Y125000D01*
G02X178550Y123950I-1487J6D01*
G01X176050Y121450D01*
G02X175000Y121010I-1056J1047D01*
G01X170000D01*
G02X168950Y121450I6J1487D01*
G01X166450Y123950D01*
G02X166010Y125000I1047J1056D01*
G01Y134380D01*
X164380Y136010D01*
X160620D01*
X158990Y134380D01*
Y105620D01*
X160620Y103990D01*
X166880D01*
X168510Y105620D01*
Y110000D01*
G02X168950Y111050I1487J-6D01*
G01X171450Y113550D01*
G02X172500Y113990I1056J-1047D01*
G01X187500D01*
G02X188550Y113550I-6J-1487D01*
G01X191050Y111050D01*
G02X191490Y110000I-1047J-1056D01*
G01Y102500D01*
G02X191050Y101450I-1487J6D01*
G01X181490Y91880D01*
Y84950D01*
X184430D01*
G02X184950Y84430I0J-520D01*
G01Y75570D01*
G02X184430Y75050I-520J0D01*
G01X175570D01*
G02X175050Y75570I0J520D01*
G01Y84430D01*
G02X175570Y84950I520J0D01*
G01X178510D01*
Y92500D01*
G02X178950Y93550I1487J-6D01*
G01X188510Y103120D01*
Y109380D01*
X186880Y111010D01*
X173120D01*
X171490Y109380D01*
Y105000D01*
G02X171050Y103950I-1487J6D01*
G01X168550Y101450D01*
G02X167500Y101010I-1056J1047D01*
G01X160000D01*
G02X158950Y101450I6J1487D01*
G01X156450Y103950D01*
G02X156010Y105000I1047J1056D01*
G01Y135000D01*
G02X156450Y136050I1487J-6D01*
G01X158950Y138550D01*
G02X160000Y138990I1056J-1047D01*
G01X165000D01*
G02X166050Y138550I-6J-1487D01*
G01X168550Y136050D01*
G02X168990Y135000I-1047J-1056D01*
G01Y125620D01*
X170620Y123990D01*
X174380D01*
X176010Y125620D01*
Y135000D01*
G02X176450Y136050I1487J-6D01*
G01X178950Y138550D01*
G02X180000Y138990I1056J-1047D01*
G01X185000D01*
G02X186050Y138550I-6J-1487D01*
G01X188550Y136050D01*
G02X188990Y135000I-1047J-1056D01*
G01Y125620D01*
X190620Y123990D01*
X199380D01*
X201010Y125620D01*
Y154380D01*
X199380Y156010D01*
X170620D01*
X158550Y143950D01*
G02X157500Y143510I-1056J1047D01*
G01X150620D01*
X148990Y141880D01*
Y72500D01*
G02X148550Y71450I-1487J6D01*
G01X138990Y61880D01*
Y51280D01*
X146240Y44030D01*
G03X146920Y44310I281J283D01*
G01Y46920D01*
G02X147440Y47440I520J0D01*
G01X152560D01*
G02X153080Y46920I0J-520D01*
G01Y42380D01*
G02X152560Y41860I-520J0D01*
G01X151210D01*
G03X150920Y41180I-5J-400D01*
G01X151050Y41050D01*
G02X151490Y40000I-1047J-1056D01*
G01Y38140D01*
X152560D01*
G02X153080Y37620I0J-520D01*
G01Y33080D01*
G02X152560Y32560I-520J0D01*
G01X151490D01*
Y30080D01*
G03X152190Y29810I400J-4D01*
G02X155000Y31070I2810J-2503D01*
G02Y23530I0J-3770D01*
G02X152190Y24790I0J3763D01*
G03X151490Y24520I-300J-266D01*
G01Y22920D01*
X153600Y20800D01*
G02X155000Y21070I1400J-3495D01*
G02X151230Y17300I0J-3770D01*
G02X151500Y18700I3770J-1D01*
G01X148950Y21250D01*
G02X148510Y22300I1047J1056D01*
G01Y32560D01*
X147440D01*
G02X146920Y33080I0J520D01*
G01Y37620D01*
G02X147440Y38140I520J0D01*
G01X148510D01*
Y39380D01*
X148170Y39720D01*
X146950D01*
G02X145900Y40160I6J1487D01*
G01X136450Y49610D01*
G02X136010Y50660I1047J1056D01*
G01Y62500D01*
G02X136450Y63550I1487J-6D01*
G01X146010Y73120D01*
Y142500D01*
G02X146450Y143550I1487J-6D01*
G01X148950Y146050D01*
G02X150000Y146490I1056J-1047D01*
G01X156880D01*
X168950Y158550D01*
G02X170000Y158990I1056J-1047D01*
G37*
G36*
G01X176450Y326050D02*
X178950Y328550D01*
G02X180000Y328990I1056J-1047D01*
G01X197500D01*
G02X198550Y328550I-6J-1487D01*
G01X201050Y326050D01*
G02X201490Y325000I-1047J-1056D01*
G01Y305700D01*
X203200Y303990D01*
X210000D01*
G02X211050Y303550I-6J-1487D01*
G01X213550Y301050D01*
G02X213990Y300000I-1047J-1056D01*
G01Y75010D01*
G02X213550Y73960I-1487J6D01*
G01X201040Y61450D01*
G02X199990Y61010I-1056J1047D01*
G01X170620D01*
X161490Y51880D01*
Y43180D01*
X161580Y43090D01*
G03X161920Y43230I141J141D01*
G01Y46920D01*
G02X162440Y47440I520J0D01*
G01X167560D01*
G02X168080Y46920I0J-520D01*
G01Y42380D01*
G02X167560Y41860I-520J0D01*
G01X165010D01*
G03X164720Y41180I-5J-400D01*
G01X166050Y39850D01*
G02X166490Y38800I-1047J-1056D01*
G01Y38140D01*
X167560D01*
G02X168080Y37620I0J-520D01*
G01Y33080D01*
G02X167560Y32560I-520J0D01*
G01X166490D01*
Y30760D01*
G02X168770Y27300I-1485J-3460D01*
G02X161230I-3770J0D01*
G02X163510Y30760I3765J0D01*
G01Y32560D01*
X162440D01*
G02X161920Y33080I0J520D01*
G01Y37620D01*
G02X162440Y38140I520J0D01*
G01X162590D01*
G03X162880Y38820I5J400D01*
G01X161970Y39720D01*
X161350D01*
G02X160300Y40160I6J1487D01*
G01X158950Y41510D01*
G02X158510Y42560I1047J1056D01*
G01Y52500D01*
G02X158950Y53550I1487J-6D01*
G01X168950Y63550D01*
G02X170000Y63990I1056J-1047D01*
G01X199370D01*
X211010Y75630D01*
Y299380D01*
X209380Y301010D01*
X202580D01*
G02X201530Y301450I6J1487D01*
G01X198950Y304030D01*
G02X198510Y305080I1047J1056D01*
G01Y324380D01*
X196880Y326010D01*
X180620D01*
X178990Y324380D01*
Y298120D01*
X181050Y296050D01*
G02X181490Y295000I-1047J-1056D01*
G01Y284950D01*
X184430D01*
G02X184950Y284430I0J-520D01*
G01Y275570D01*
G02X184430Y275050I-520J0D01*
G01X175570D01*
G02X175050Y275570I0J520D01*
G01Y284430D01*
G02X175570Y284950I520J0D01*
G01X178510D01*
Y294380D01*
X176450Y296450D01*
G02X176010Y297500I1047J1056D01*
G01Y325000D01*
G02X176450Y326050I1487J-6D01*
G37*
G36*
G01X275050Y375570D02*
Y384430D01*
G02X275570Y384950I520J0D01*
G01X284430D01*
G02X284950Y384430I0J-520D01*
G01Y375570D01*
G02X284430Y375050I-520J0D01*
G01X281490D01*
Y365000D01*
G02X281050Y363950I-1487J6D01*
G01X233990Y316880D01*
Y72760D01*
G02X233550Y71710I-1487J6D01*
G01X210930Y49090D01*
G02X209880Y48650I-1056J1047D01*
G01X194860D01*
G02X193810Y49090I6J1487D01*
G01X189380Y53510D01*
X185050D01*
X183990Y52450D01*
Y48640D01*
G02X183850Y48010I-1487J0D01*
G03X184210Y47440I359J-172D01*
G01X187560D01*
G02X188080Y46920I0J-520D01*
G01Y42700D01*
X228090D01*
X251010Y65620D01*
Y247500D01*
G02X251450Y248550I1487J-6D01*
G01X258950Y256050D01*
G02X260000Y256490I1056J-1047D01*
G01X285000D01*
G02X286050Y256050I-6J-1487D01*
G01X291050Y251050D01*
G02X291490Y250000I-1047J-1056D01*
G01Y242500D01*
G02X291050Y241450I-1487J6D01*
G01X288550Y238950D01*
G02X287500Y238510I-1056J1047D01*
G01X275610D01*
X273990Y236890D01*
Y233130D01*
X278130Y228990D01*
X287510D01*
G02X288560Y228550I-6J-1487D01*
G01X291050Y226060D01*
G02X291490Y225010I-1047J-1056D01*
G01Y217500D01*
G02X291050Y216450I-1487J6D01*
G01X288550Y213950D01*
G02X287500Y213510I-1056J1047D01*
G01X283120D01*
X281490Y211880D01*
Y184950D01*
X284430D01*
G02X284950Y184430I0J-520D01*
G01Y175570D01*
G02X284430Y175050I-520J0D01*
G01X275570D01*
G02X275050Y175570I0J520D01*
G01Y184430D01*
G02X275570Y184950I520J0D01*
G01X278510D01*
Y212500D01*
G02X278950Y213550I1487J-6D01*
G01X281450Y216050D01*
G02X282500Y216490I1056J-1047D01*
G01X286880D01*
X288510Y218120D01*
Y224390D01*
X286890Y226010D01*
X277510D01*
G02X276460Y226450I6J1487D01*
G01X271450Y231460D01*
G02X271010Y232510I1047J1056D01*
G01Y237510D01*
G02X271450Y238560I1487J-6D01*
G01X273940Y241050D01*
G02X274990Y241490I1056J-1047D01*
G01X286880D01*
X288510Y243120D01*
Y249380D01*
X284380Y253510D01*
X260620D01*
X253990Y246880D01*
Y65000D01*
G02X253550Y63950I-1487J6D01*
G01X229760Y40160D01*
G02X228710Y39720I-1056J1047D01*
G01X187780D01*
X186490Y38430D01*
Y38140D01*
X187560D01*
G02X188080Y37620I0J-520D01*
G01Y33080D01*
G02X187560Y32560I-520J0D01*
G01X186490D01*
Y30760D01*
G02X188770Y27300I-1485J-3460D01*
G02X181230I-3770J0D01*
G02X183510Y30760I3765J0D01*
G01Y32560D01*
X182440D01*
G02X181920Y33080I0J520D01*
G01Y37620D01*
G02X182440Y38140I520J0D01*
G01X183510D01*
Y39050D01*
G02X183950Y40100I1487J-6D01*
G01X185030Y41180D01*
G03X184740Y41860I-285J280D01*
G01X182440D01*
G02X181920Y42380I0J520D01*
G01Y45470D01*
G03X181580Y45610I-199J-1D01*
G01X181490Y45520D01*
Y43160D01*
G02X181050Y42110I-1487J6D01*
G01X179100Y40160D01*
G02X178050Y39720I-1056J1047D01*
G01X176830D01*
X176490Y39380D01*
Y38140D01*
X177560D01*
G02X178080Y37620I0J-520D01*
G01Y33080D01*
G02X177560Y32560I-520J0D01*
G01X176490D01*
Y30760D01*
G02X178770Y27300I-1485J-3460D01*
G02X171230I-3770J0D01*
G02X173510Y30760I3765J0D01*
G01Y32560D01*
X172440D01*
G02X171920Y33080I0J520D01*
G01Y37620D01*
G02X172440Y38140I520J0D01*
G01X173510D01*
Y40000D01*
G02X173950Y41050I1487J-6D01*
G01X174080Y41180D01*
G03X173790Y41860I-285J280D01*
G01X172440D01*
G02X171920Y42380I0J520D01*
G01Y46920D01*
G02X172440Y47440I520J0D01*
G01X177560D01*
G02X178080Y46920I0J-520D01*
G01Y43830D01*
G03X178420Y43690I199J1D01*
G01X178510Y43780D01*
Y46140D01*
G02X178950Y47190I1487J-6D01*
G01X181010Y49260D01*
Y53070D01*
G02X181450Y54120I1487J-6D01*
G01X183380Y56050D01*
G02X184430Y56490I1056J-1047D01*
G01X190000D01*
G02X191050Y56050I-6J-1487D01*
G01X195480Y51630D01*
X209260D01*
X231010Y73380D01*
Y317500D01*
G02X231450Y318550I1487J-6D01*
G01X278510Y365620D01*
Y375050D01*
X275570D01*
G02X275050Y375570I0J520D01*
G37*
G36*
G01X52500Y386490D02*
X65000D01*
G02X66050Y386050I-6J-1487D01*
G01X70620Y381490D01*
X85050D01*
Y384430D01*
G02X85570Y384950I520J0D01*
G01X94430D01*
G02X94950Y384430I0J-520D01*
G01Y375570D01*
G02X94430Y375050I-520J0D01*
G01X85570D01*
G02X85050Y375570I0J520D01*
G01Y378510D01*
X70000D01*
G02X68950Y378950I6J1487D01*
G01X64380Y383510D01*
X53120D01*
X46490Y376880D01*
Y368120D01*
X56050Y358550D01*
G02X56490Y357500I-1047J-1056D01*
G01Y76780D01*
X78550Y54710D01*
G02X78990Y53660I-1047J-1056D01*
G01Y49260D01*
X81050Y47190D01*
G02X81490Y46140I-1047J-1056D01*
G01Y43780D01*
X81580Y43690D01*
G03X81920Y43830I141J141D01*
G01Y46920D01*
G02X82440Y47440I520J0D01*
G01X85790D01*
G03X86150Y48010I1J398D01*
G02X86010Y48640I1348J630D01*
G01Y55000D01*
G02X86450Y56050I1487J-6D01*
G01X91450Y61050D01*
G02X92500Y61490I1056J-1047D01*
G01X109380D01*
X126010Y78120D01*
Y285540D01*
X125540Y286010D01*
X118120D01*
X113990Y281880D01*
Y225000D01*
G02X113550Y223950I-1487J6D01*
G01X91490Y201880D01*
Y184950D01*
X94430D01*
G02X94950Y184430I0J-520D01*
G01Y175570D01*
G02X94430Y175050I-520J0D01*
G01X85570D01*
G02X85050Y175570I0J520D01*
G01Y184430D01*
G02X85570Y184950I520J0D01*
G01X88510D01*
Y202500D01*
G02X88950Y203550I1487J-6D01*
G01X111010Y225620D01*
Y282500D01*
G02X111450Y283550I1487J-6D01*
G01X116450Y288550D01*
G02X117500Y288990I1056J-1047D01*
G01X126160D01*
G02X127210Y288550I-6J-1487D01*
G01X128550Y287210D01*
G02X128990Y286160I-1047J-1056D01*
G01Y77500D01*
G02X128550Y76450I-1487J6D01*
G01X111050Y58950D01*
G02X110000Y58510I-1056J1047D01*
G01X93120D01*
X88990Y54380D01*
Y49260D01*
X91050Y47190D01*
G02X91490Y46140I-1047J-1056D01*
G01Y43780D01*
X91580Y43690D01*
G03X91920Y43830I141J141D01*
G01Y46920D01*
G02X92440Y47440I520J0D01*
G01X97560D01*
G02X98080Y46920I0J-520D01*
G01Y42380D01*
G02X97560Y41860I-520J0D01*
G01X96210D01*
G03X95920Y41180I-5J-400D01*
G01X96050Y41050D01*
G02X96490Y40000I-1047J-1056D01*
G01Y38140D01*
X97560D01*
G02X98080Y37620I0J-520D01*
G01Y33080D01*
G02X97560Y32560I-520J0D01*
G01X96490D01*
Y30760D01*
G02X98770Y27300I-1485J-3460D01*
G02X91230I-3770J0D01*
G02X93510Y30760I3765J0D01*
G01Y32560D01*
X92440D01*
G02X91920Y33080I0J520D01*
G01Y37620D01*
G02X92440Y38140I520J0D01*
G01X93510D01*
Y39380D01*
X93170Y39720D01*
X91950D01*
G02X90900Y40160I6J1487D01*
G01X88950Y42110D01*
G02X88510Y43160I1047J1056D01*
G01Y45520D01*
X88420Y45610D01*
G03X88080Y45470I-141J-141D01*
G01Y42380D01*
G02X87560Y41860I-520J0D01*
G01X86210D01*
G03X85920Y41180I-5J-400D01*
G01X86050Y41050D01*
G02X86490Y40000I-1047J-1056D01*
G01Y38140D01*
X87560D01*
G02X88080Y37620I0J-520D01*
G01Y33080D01*
G02X87560Y32560I-520J0D01*
G01X86490D01*
Y30760D01*
G02X88770Y27300I-1485J-3460D01*
G02X81230I-3770J0D01*
G02X83510Y30760I3765J0D01*
G01Y32560D01*
X82440D01*
G02X81920Y33080I0J520D01*
G01Y37620D01*
G02X82440Y38140I520J0D01*
G01X83510D01*
Y39380D01*
X83170Y39720D01*
X81950D01*
G02X80900Y40160I6J1487D01*
G01X78950Y42110D01*
G02X78510Y43160I1047J1056D01*
G01Y45520D01*
X78420Y45610D01*
G03X78080Y45470I-141J-141D01*
G01Y42380D01*
G02X77560Y41860I-520J0D01*
G01X74990D01*
G03X74740Y41160I6J-397D01*
G01X76050Y39850D01*
G02X76490Y38800I-1047J-1056D01*
G01Y38140D01*
X77560D01*
G02X78080Y37620I0J-520D01*
G01Y33080D01*
G02X77560Y32560I-520J0D01*
G01X76490D01*
Y30760D01*
G02X78770Y27300I-1485J-3460D01*
G02X71230I-3770J0D01*
G02X73510Y30760I3765J0D01*
G01Y32560D01*
X72440D01*
G02X71920Y33080I0J520D01*
G01Y37620D01*
G02X72000Y37900I521J2D01*
G03X71670Y38510I-337J212D01*
G01X65000D01*
G02X63950Y38950I6J1487D01*
G01X56450Y46450D01*
G02X56010Y47500I1047J1056D01*
G01Y49380D01*
X33950Y71450D01*
G02X33510Y72500I1047J1056D01*
G01Y326880D01*
X29380Y331010D01*
X-4390D01*
X-8510Y326890D01*
Y284950D01*
X-5570D01*
G02X-5050Y284430I0J-520D01*
G01Y275570D01*
G02X-5570Y275050I-520J0D01*
G01X-14430D01*
G02X-14950Y275570I0J520D01*
G01Y284430D01*
G02X-14430Y284950I520J0D01*
G01X-11490D01*
Y327510D01*
G02X-11050Y328560I1487J-6D01*
G01X-6060Y333550D01*
G02X-5010Y333990I1056J-1047D01*
G01X30000D01*
G02X31050Y333550I-6J-1487D01*
G01X36050Y328550D01*
G02X36490Y327500I-1047J-1056D01*
G01Y73120D01*
X58550Y51050D01*
G02X58990Y50000I-1047J-1056D01*
G01Y48120D01*
X65620Y41490D01*
X71670D01*
G03X72000Y42100I-7J398D01*
G02X71920Y42380I441J278D01*
G01Y46920D01*
G02X72440Y47440I520J0D01*
G01X75790D01*
G03X76150Y48010I1J398D01*
G02X76010Y48640I1348J630D01*
G01Y53040D01*
X53950Y75110D01*
G02X53510Y76160I1047J1056D01*
G01Y356880D01*
X43950Y366450D01*
G02X43510Y367500I1047J1056D01*
G01Y377500D01*
G02X43950Y378550I1487J-6D01*
G01X51450Y386050D01*
G02X52500Y386490I1056J-1047D01*
G37*
G54D20*
X-20000Y70000D03*
X0D03*
X80000D03*
X100000D03*
X170000D03*
X190000D03*
X270000D03*
X290000D03*
X-20000Y90000D03*
X0D03*
X80000D03*
X100000D03*
X170000D03*
X190000D03*
X270000D03*
X290000D03*
X-20000Y170000D03*
X0D03*
X80000D03*
X100000D03*
X170000D03*
X190000D03*
X270000D03*
X290000D03*
X-20000Y190000D03*
X0D03*
X80000D03*
X100000D03*
X170000D03*
X190000D03*
X270000D03*
X290000D03*
X-20000Y270000D03*
X0D03*
X80000D03*
X100000D03*
X170000D03*
X270000D03*
X290000D03*
X-20000Y290000D03*
X0D03*
X80000D03*
X100000D03*
X170000D03*
X190000D03*
X270000D03*
X290000D03*
X-20000Y370000D03*
X0D03*
X80000D03*
X100000D03*
X170000D03*
X190000D03*
X270000D03*
X290000D03*
X-20000Y390000D03*
X0D03*
X80000D03*
X100000D03*
X170000D03*
X190000D03*
X270000D03*
X290000D03*
G54D18*
X-10000Y30000D03*
X280000D03*
X-10000Y430000D03*
X280000D03*
G54D19*
X75000Y17300D03*
X95000D03*
X85000D03*
X105000D03*
X115000D03*
X175000D03*
X165000D03*
X195000D03*
X185000D03*
X205000D03*
X65000Y27300D03*
X105000D03*
X195000D03*
%LPD*%
G75*
G54D10*
X-10000Y30000D03*
Y430000D03*
X280000Y30000D03*
Y430000D03*
G54D11*
X-20000Y70000D03*
Y90000D03*
Y170000D03*
Y190000D03*
Y270000D03*
Y290000D03*
Y370000D03*
Y390000D03*
X0Y70000D03*
Y90000D03*
Y170000D03*
Y190000D03*
Y270000D03*
Y290000D03*
Y370000D03*
Y390000D03*
X80000Y70000D03*
Y90000D03*
Y170000D03*
Y190000D03*
Y270000D03*
Y290000D03*
Y370000D03*
Y390000D03*
X100000Y70000D03*
Y90000D03*
Y170000D03*
Y190000D03*
Y270000D03*
Y290000D03*
Y370000D03*
Y390000D03*
X170000Y70000D03*
Y90000D03*
Y170000D03*
Y190000D03*
Y270000D03*
Y290000D03*
Y370000D03*
Y390000D03*
X190000Y70000D03*
Y90000D03*
Y170000D03*
Y190000D03*
Y270000D03*
Y290000D03*
Y370000D03*
Y390000D03*
X270000Y70000D03*
Y90000D03*
Y170000D03*
Y190000D03*
Y270000D03*
Y290000D03*
Y370000D03*
Y390000D03*
X290000Y70000D03*
Y90000D03*
Y170000D03*
Y190000D03*
Y270000D03*
Y290000D03*
Y370000D03*
Y390000D03*
G54D12*
X-12500Y72500D03*
X-17500Y82500D03*
Y77500D03*
X-15000Y105000D03*
X-24970Y100600D03*
X-23980Y110550D03*
X-15000Y125000D03*
X-15040Y115030D03*
X-24000Y119470D03*
X-15000Y145000D03*
X-24970Y129420D03*
X-16690Y135030D03*
X-24970Y140640D03*
X-23950Y150580D03*
X-14970Y154990D03*
X-17500Y177500D03*
X-12500Y172500D03*
X-17500Y182500D03*
X-14970Y197280D03*
Y207280D03*
Y217280D03*
Y227280D03*
Y237280D03*
Y247280D03*
X-14750Y257280D03*
X-17500Y277500D03*
Y282500D03*
X-12500Y272500D03*
X-14970Y300000D03*
Y310000D03*
X-14550Y329990D03*
X-14970Y320000D03*
X-17000Y378000D03*
Y382000D03*
X-12000Y387000D03*
Y373000D03*
X-9000Y61000D03*
X-7500Y72500D03*
X-2500Y77500D03*
Y82500D03*
X-5030Y98640D03*
X-7030Y108440D03*
X-5000Y115000D03*
X-7500Y122500D03*
X-7560Y127910D03*
X-2470Y121510D03*
X2590Y112880D03*
X-5030Y137580D03*
X-2500Y143000D03*
X1260Y130790D03*
X-8330Y162470D03*
X1670D03*
X-8510Y146960D03*
X-210Y152530D03*
X-2500Y177500D03*
X-7500Y172500D03*
X-2500Y182500D03*
X-5030Y195130D03*
Y205130D03*
Y215130D03*
Y225130D03*
Y235130D03*
Y245130D03*
X1700Y252530D03*
X-6200Y262470D03*
X3800D03*
X-2500Y282500D03*
Y277500D03*
X-7500Y272500D03*
X-5030Y300000D03*
Y310000D03*
X-1230Y327250D03*
X-5030Y320000D03*
X2090Y337970D03*
X-7480Y337060D03*
X-8000Y387000D03*
Y373000D03*
X23440Y5030D03*
X13610Y6860D03*
X21500Y17000D03*
X10030Y16700D03*
X21500Y27000D03*
Y37000D03*
X10030Y36700D03*
Y26700D03*
X19970Y56860D03*
Y46860D03*
X10030Y56200D03*
Y46700D03*
Y66200D03*
X20030Y70360D03*
X10030Y86200D03*
Y76200D03*
X20030Y80360D03*
X19000Y90990D03*
X10030Y106200D03*
Y96200D03*
X20030Y110360D03*
Y100360D03*
X11690Y122470D03*
X19000Y121000D03*
X10000Y133000D03*
X10030Y142470D03*
X20030Y140360D03*
X11670Y162470D03*
X9790Y152470D03*
X20030Y160360D03*
Y150360D03*
Y170360D03*
Y190360D03*
Y180360D03*
Y200360D03*
X19000Y210990D03*
X20030Y230360D03*
Y220360D03*
X19000Y240990D03*
X11700Y252530D03*
X17470Y260700D03*
X20030Y250360D03*
X17470Y270700D03*
X20030Y280360D03*
X7530Y271750D03*
Y281750D03*
X10050Y291430D03*
X19400Y294970D03*
X20000Y305000D03*
X7500D03*
X20000Y317500D03*
X7500D03*
X18740Y328030D03*
X8740D03*
X22090Y337970D03*
X12090D03*
X21000Y361000D03*
X19250Y371220D03*
X10000Y375030D03*
X19990Y384540D03*
X10000Y384970D03*
X21000Y391000D03*
Y421000D03*
Y451000D03*
X32080Y10060D03*
X32470Y20050D03*
Y30050D03*
X32860Y55120D03*
X29730Y44260D03*
X39000Y62500D03*
X25780Y62190D03*
X31290Y70740D03*
X29970Y90650D03*
Y80650D03*
X39970Y80680D03*
Y90680D03*
X29970Y100650D03*
X39970Y100680D03*
X29970Y120650D03*
Y110650D03*
X39970Y110680D03*
Y120680D03*
X29970Y140650D03*
Y130650D03*
X39970Y130680D03*
Y140680D03*
X29970Y160650D03*
Y150650D03*
X39970Y150680D03*
Y160680D03*
X29970Y170650D03*
X39970Y170680D03*
X29970Y190650D03*
Y180650D03*
X39970Y180680D03*
Y190680D03*
X29970Y210650D03*
Y200650D03*
X39970Y200680D03*
Y210680D03*
X29970Y230650D03*
Y220650D03*
X39970Y220680D03*
Y230680D03*
X29970Y240650D03*
X39970Y240680D03*
X29970Y260650D03*
Y250650D03*
X39970Y250680D03*
Y260680D03*
X29970Y280650D03*
Y270650D03*
X39970Y270680D03*
Y280680D03*
X28360Y290520D03*
X30030Y297300D03*
X39970Y290680D03*
Y300680D03*
X30030Y307300D03*
Y317300D03*
X39970Y310680D03*
X28320Y325160D03*
X39970Y320680D03*
X38900Y330630D03*
X40030Y339600D03*
Y349600D03*
X31830Y337700D03*
X33390Y357080D03*
X26320Y364150D03*
X41200Y363320D03*
X34130Y370400D03*
X40030Y371700D03*
X27060Y377470D03*
X42530Y23710D03*
X47770Y15200D03*
X57500Y12880D03*
X57040Y35030D03*
X57000Y32500D03*
X52500Y27500D03*
X51000Y37500D03*
X41780Y33690D03*
X54000Y47500D03*
X46500Y55000D03*
X55420Y57110D03*
X41710Y44970D03*
X42280Y71250D03*
X48350Y64180D03*
X54430Y68760D03*
X49970Y76400D03*
Y86400D03*
Y96400D03*
Y106400D03*
Y116400D03*
Y126400D03*
Y136400D03*
Y146400D03*
Y156400D03*
Y166400D03*
Y176400D03*
Y186400D03*
Y196400D03*
Y206400D03*
Y216400D03*
Y226400D03*
Y236400D03*
Y246400D03*
Y256400D03*
Y266400D03*
Y276400D03*
Y286400D03*
Y296400D03*
Y306400D03*
Y316400D03*
Y326400D03*
Y336400D03*
Y346400D03*
X55490Y364040D03*
X48270Y356250D03*
X56400Y380030D03*
X49970Y372370D03*
X41980Y381510D03*
X49050Y388580D03*
X51000Y421000D03*
Y451000D03*
X70000Y10000D03*
X62500D03*
X62000Y52000D03*
X68000Y45000D03*
X62000Y49000D03*
X75000Y52500D03*
Y50000D03*
X68570Y54620D03*
X61500Y61690D03*
X69970Y86990D03*
X70040Y76990D03*
X59970Y85090D03*
X74150Y106320D03*
X69970Y106990D03*
Y96990D03*
X59970Y105090D03*
Y95090D03*
X69970Y126990D03*
Y116990D03*
X59970Y125090D03*
Y115090D03*
X69970Y136990D03*
X59970Y145090D03*
Y135090D03*
X69970Y156990D03*
Y146990D03*
X59970Y155090D03*
X69970Y176990D03*
Y166990D03*
X59970Y175090D03*
Y165090D03*
X69970Y196990D03*
Y186990D03*
X59970Y195090D03*
Y185090D03*
X69970Y206990D03*
X59970Y205090D03*
X69970Y226990D03*
Y216990D03*
X59970Y225090D03*
Y215090D03*
X69970Y246990D03*
Y236990D03*
X59970Y245090D03*
Y235090D03*
X69970Y256990D03*
X59970Y265090D03*
Y255090D03*
X69970Y276990D03*
Y266990D03*
X59970Y275090D03*
X69970Y296990D03*
Y286990D03*
X59970Y295090D03*
Y285090D03*
X69970Y316990D03*
Y306990D03*
X59970Y315090D03*
Y305090D03*
X75920Y335030D03*
X69970Y326990D03*
X59970Y335090D03*
Y325090D03*
X75870Y344970D03*
X65870D03*
X59970Y345090D03*
Y355090D03*
X65940Y377030D03*
X68800Y388230D03*
X68530Y388280D03*
X58950Y389970D03*
X92500Y10000D03*
X85000D03*
X77500D03*
X80000Y50000D03*
X85000Y50500D03*
X90000Y50000D03*
Y52500D03*
X85000Y53000D03*
X80000Y52500D03*
X92500Y72500D03*
X87500D03*
X82500Y77500D03*
Y82500D03*
X87470Y107060D03*
X81220Y99250D03*
X90000Y113000D03*
X83000D03*
X90310Y122470D03*
X79000Y121000D03*
X89000Y133000D03*
Y140000D03*
X80000Y134000D03*
X87980Y152530D03*
X81850Y146380D03*
X91180Y149970D03*
X88370Y162470D03*
X78370D03*
X81000Y151000D03*
X92500Y172500D03*
X82500Y177500D03*
X87500Y172500D03*
X82500Y182500D03*
X85030Y197720D03*
X87800Y207320D03*
X81000Y211000D03*
Y241000D03*
X92500Y272500D03*
X82500Y277500D03*
Y282500D03*
X87500Y272500D03*
X85030Y300900D03*
Y310900D03*
Y320900D03*
Y330900D03*
X85870Y344970D03*
X92000Y372000D03*
X88000D03*
X92000Y388000D03*
X88000D03*
X81000Y421000D03*
Y451000D03*
X107500Y10000D03*
X100000D03*
X104970Y35550D03*
X95000Y50000D03*
Y52500D03*
X100000D03*
Y50000D03*
X105230Y49770D03*
X104460Y55030D03*
X95000Y55000D03*
X110000Y67500D03*
X97500Y82500D03*
Y77500D03*
X104980Y100030D03*
X94540Y99990D03*
X102500Y112500D03*
X99180Y117850D03*
X104000Y133000D03*
Y140000D03*
X96000D03*
Y133000D03*
X107530Y155500D03*
X97980Y152530D03*
X101180Y149970D03*
X110550Y146470D03*
X98370Y162470D03*
X97500Y177500D03*
Y182500D03*
X94870Y214400D03*
X96630Y202100D03*
X96640Y202170D03*
X103700Y209180D03*
X101940Y221470D03*
X107530Y229760D03*
X109000Y241000D03*
X107530Y249760D03*
Y259760D03*
X97500Y282500D03*
Y277500D03*
X107530Y279760D03*
X109000Y271000D03*
X109930Y289470D03*
X94970Y300000D03*
Y310000D03*
Y320000D03*
Y330000D03*
X94540Y339990D03*
X98000Y382000D03*
Y378000D03*
X122500Y17500D03*
Y10000D03*
X115000D03*
Y35000D03*
X122500Y32500D03*
Y25000D03*
X112310Y56840D03*
X112090Y42570D03*
X119160Y49640D03*
X125000Y67500D03*
X122470Y59080D03*
X112530Y76840D03*
Y86840D03*
X122530Y92300D03*
Y82300D03*
X112530Y96840D03*
X112470Y106660D03*
X122530Y102300D03*
X112470Y126660D03*
Y116660D03*
X122530Y122300D03*
Y112300D03*
X112470Y136660D03*
X122530Y142300D03*
Y132300D03*
Y162300D03*
Y152300D03*
X111000Y151000D03*
X117030Y167470D03*
X122530Y172300D03*
Y192300D03*
Y182300D03*
X111000Y181000D03*
X122530Y212300D03*
Y202300D03*
X111000Y211000D03*
X110780Y216250D03*
X117470Y223670D03*
X122530Y222300D03*
X117470Y233670D03*
Y243670D03*
X122530Y242300D03*
Y232300D03*
X117470Y253670D03*
Y263670D03*
X122530Y262300D03*
Y252300D03*
X120000Y282500D03*
X117470Y273670D03*
X122530Y272300D03*
X117500Y292500D03*
X127760Y291780D03*
X111000Y301000D03*
Y331000D03*
Y361000D03*
Y391000D03*
Y421000D03*
Y451000D03*
X144560Y36570D03*
X141000Y31000D03*
X145000Y25000D03*
X142470Y56080D03*
X137490Y43640D03*
X132530Y52320D03*
Y62320D03*
X130240Y73220D03*
X142470Y76760D03*
Y86760D03*
X132470Y92960D03*
Y82960D03*
X142470Y96760D03*
Y106760D03*
X132470Y102960D03*
X142470Y116760D03*
Y126760D03*
X132470Y122960D03*
Y112960D03*
X142470Y136760D03*
X132470Y142960D03*
Y132960D03*
X142470Y146760D03*
Y156760D03*
X132470Y152960D03*
X142470Y166760D03*
Y176760D03*
X132470Y172960D03*
Y162960D03*
X142470Y186760D03*
Y196760D03*
X132470Y192960D03*
Y182960D03*
X142470Y206760D03*
X132470Y212960D03*
Y202960D03*
X142470Y216760D03*
Y226760D03*
X132470Y222960D03*
X142470Y236760D03*
Y246760D03*
X132470Y242960D03*
Y232960D03*
X142470Y256760D03*
X132470Y262960D03*
Y252960D03*
X142470Y266760D03*
Y276760D03*
X132470Y282960D03*
Y272960D03*
X137540Y295730D03*
X142630Y286760D03*
X141000Y331000D03*
Y361000D03*
Y391000D03*
Y421000D03*
Y451000D03*
X147500Y17500D03*
X152500Y10000D03*
X160000D03*
X150000Y50000D03*
Y52500D03*
X155000Y50000D03*
Y52500D03*
X154200Y59600D03*
X159200Y58730D03*
X147010Y64990D03*
X152470Y73370D03*
Y83370D03*
Y93370D03*
X152530Y103370D03*
X160650Y97530D03*
X152530Y123370D03*
X152470D03*
X152530Y113370D03*
X162470Y119240D03*
X152530Y133370D03*
X162470Y129240D03*
X146620Y148650D03*
X156370Y150900D03*
X155480Y185790D03*
X155000Y216000D03*
X162470Y247380D03*
X152530Y245350D03*
X154850Y235620D03*
X162470Y257380D03*
X152530Y265350D03*
Y255350D03*
X162470Y277380D03*
Y267380D03*
X152530Y275350D03*
X147390Y297470D03*
X157270Y295920D03*
X162470Y287380D03*
X152530Y285350D03*
X167500Y10000D03*
X175000D03*
X165000Y52500D03*
Y50000D03*
X170000Y52500D03*
Y50000D03*
X175000Y52500D03*
Y50000D03*
X177500Y72500D03*
X172500Y77500D03*
Y82500D03*
X170600Y98570D03*
X175030Y107530D03*
X179440Y98970D03*
X165030Y109570D03*
X171160Y117470D03*
X175000Y140000D03*
X172500Y130000D03*
X170000Y140000D03*
X165000Y145000D03*
X177500Y152500D03*
X163440Y157970D03*
X172370Y162470D03*
X171000Y151000D03*
X172500Y177500D03*
X177500Y172500D03*
X172500Y182500D03*
X175030Y210000D03*
Y200000D03*
X163140Y230030D03*
X173140Y229820D03*
X175030Y220000D03*
X179000Y238020D03*
X171000Y241000D03*
X172500Y277500D03*
Y282500D03*
X177500Y272500D03*
X172530Y312500D03*
Y302500D03*
X175500Y330500D03*
X172530Y322500D03*
X177500Y350000D03*
X175000Y360000D03*
X172000Y382000D03*
Y378000D03*
X178000Y388000D03*
X171000Y421000D03*
Y451000D03*
X195000Y5380D03*
X185850Y9420D03*
X182500Y10000D03*
X189960Y35030D03*
X185000Y50000D03*
X180000D03*
Y52500D03*
X185000D03*
X195530Y66380D03*
X182500Y72500D03*
X187500Y82500D03*
Y77500D03*
X185030Y107270D03*
X194970Y106780D03*
X191820Y97290D03*
X192500Y127500D03*
X182470Y124650D03*
X181160Y117470D03*
X191050Y115980D03*
X192500Y137500D03*
X182500Y132500D03*
Y142500D03*
X192500Y152500D03*
X185000D03*
X182370Y162470D03*
X192370D03*
X187500Y177500D03*
X182500Y172500D03*
X187500Y182500D03*
X184970Y210000D03*
Y200000D03*
Y230000D03*
Y220000D03*
X188810Y236070D03*
X185960Y260020D03*
X187500Y282500D03*
Y277500D03*
X182500Y272500D03*
X185630Y270010D03*
X182470Y312500D03*
Y302500D03*
X195030Y302960D03*
Y312960D03*
X185000Y332500D03*
X182470Y322500D03*
X195000Y332500D03*
X194640Y322530D03*
X184690Y343270D03*
X190410Y351610D03*
X184970Y360000D03*
X188000Y378000D03*
Y382000D03*
X182000Y388000D03*
X205000Y5380D03*
X212500Y20000D03*
X209960Y35030D03*
X199960D03*
X212500Y27500D03*
X212070Y58110D03*
X204040Y73580D03*
X207530Y82960D03*
Y92960D03*
X201000Y91000D03*
X207530Y102960D03*
Y112960D03*
Y122960D03*
X197500Y127500D03*
X199500Y117530D03*
X207530Y132960D03*
Y142960D03*
X197500Y145000D03*
Y137500D03*
X207530Y152960D03*
X202360Y162160D03*
X207530Y162960D03*
Y172960D03*
Y182960D03*
Y192960D03*
X201000Y181000D03*
X207530Y202960D03*
Y212960D03*
X201000Y211000D03*
X207530Y222960D03*
Y232960D03*
Y242960D03*
X201000Y241000D03*
X207530Y252960D03*
Y262960D03*
Y272960D03*
Y282960D03*
X201000Y271000D03*
X200000Y297500D03*
X207530Y292960D03*
X212500Y315000D03*
X210000Y307500D03*
X205030Y312960D03*
X212500Y330000D03*
X204640Y322530D03*
X204550Y337470D03*
X197480Y344540D03*
X201000Y361000D03*
Y391000D03*
Y421000D03*
Y451000D03*
X215000Y5380D03*
X228220D03*
X215000Y15320D03*
X225000Y25000D03*
Y27500D03*
X229950Y35420D03*
X219960Y35030D03*
X231000Y31000D03*
X219000Y52500D03*
X224790Y45270D03*
X231860Y52350D03*
X226500Y60000D03*
X219140Y65180D03*
X217470Y88310D03*
X216590Y76130D03*
X227470Y76400D03*
Y86400D03*
X217470Y98310D03*
Y108310D03*
X227470Y96400D03*
Y106400D03*
X217470Y118310D03*
X227470Y116400D03*
Y126400D03*
X217470Y128310D03*
Y138310D03*
X227470Y136400D03*
X217470Y148310D03*
Y158310D03*
X227470Y146400D03*
Y156400D03*
X217470Y168310D03*
Y178310D03*
X227470Y166400D03*
Y176400D03*
X217470Y188310D03*
X227470Y186400D03*
Y196400D03*
X217470Y198310D03*
Y208310D03*
X227470Y206400D03*
X217470Y218310D03*
Y228310D03*
X227470Y216400D03*
Y226400D03*
X217470Y238310D03*
Y248310D03*
X227470Y236400D03*
Y246400D03*
X217470Y258310D03*
X227470Y256400D03*
Y266400D03*
X217470Y268310D03*
Y278310D03*
X227470Y276400D03*
X217470Y288310D03*
Y298310D03*
X227470Y286400D03*
Y296400D03*
X217470Y308310D03*
X227530Y311980D03*
Y321980D03*
X218690Y323320D03*
X215110Y338170D03*
X231000Y361000D03*
Y391000D03*
Y421000D03*
Y451000D03*
X238220Y5380D03*
X248220D03*
X236700Y15320D03*
X245030Y20850D03*
Y30850D03*
Y40850D03*
X244090Y49570D03*
X237020Y42490D03*
X234000Y67500D03*
X237530Y73800D03*
X238940Y59420D03*
X246010Y66490D03*
X237530Y83800D03*
X247470Y76380D03*
Y86380D03*
X237530Y93800D03*
Y103800D03*
X247470Y96380D03*
Y106380D03*
X237530Y113800D03*
Y123800D03*
X247470Y116380D03*
Y126380D03*
X237530Y133800D03*
Y143800D03*
X247470Y136380D03*
X237530Y153800D03*
X247470Y146380D03*
Y156380D03*
X237530Y163800D03*
Y173800D03*
X247470Y166380D03*
Y176380D03*
X237530Y183800D03*
Y193800D03*
X247470Y186380D03*
Y196380D03*
X237530Y203800D03*
Y213800D03*
X247470Y206380D03*
X237530Y223800D03*
X247470Y216380D03*
Y226380D03*
X237530Y233800D03*
Y243800D03*
X247470Y236380D03*
Y246380D03*
X237530Y253800D03*
Y263800D03*
X247470Y256380D03*
Y266380D03*
X237530Y273800D03*
Y283800D03*
X247470Y276380D03*
X237530Y293800D03*
X247470Y286380D03*
Y296380D03*
X237530Y303800D03*
Y313800D03*
X247470Y306380D03*
X234690Y327720D03*
X241770Y334790D03*
X240990Y319960D03*
X248060Y327030D03*
X248840Y341870D03*
X254970Y12760D03*
Y22760D03*
Y32760D03*
Y42760D03*
X260570Y51040D03*
X251170Y56640D03*
X257470Y74400D03*
Y64400D03*
Y84400D03*
Y104400D03*
Y94400D03*
Y124400D03*
Y114400D03*
Y144400D03*
Y134400D03*
Y154400D03*
Y174400D03*
Y164400D03*
Y194400D03*
Y184400D03*
Y214400D03*
Y204400D03*
Y224400D03*
Y244400D03*
Y234400D03*
X261000Y241000D03*
X252500Y255000D03*
X259880Y259470D03*
X261000Y271000D03*
Y301000D03*
X255360Y312530D03*
X265360D03*
X256060Y333030D03*
X252780Y322470D03*
X262780D03*
X255080Y346610D03*
X261320Y338800D03*
X262150Y353680D03*
X261000Y361000D03*
Y391000D03*
X259000Y421000D03*
X261000Y451000D03*
X267470Y58280D03*
X282500Y72500D03*
X277500D03*
X272500Y77500D03*
Y82500D03*
X267470Y78280D03*
X280000Y105000D03*
X267530Y108170D03*
X269580Y98390D03*
X283470Y124970D03*
X267470Y118280D03*
X274870Y114970D03*
X282770Y144970D03*
X267470Y128280D03*
X269600Y138370D03*
X279000Y134970D03*
X274850Y154970D03*
X267530Y148150D03*
X282500Y172500D03*
X272500Y177500D03*
X277500Y172500D03*
X272500Y182500D03*
X275030Y196100D03*
Y206100D03*
X276470Y215990D03*
X274120Y223860D03*
X267530Y231380D03*
X269200Y241240D03*
X269880Y259470D03*
X279880D03*
X266970Y249530D03*
X276970D03*
X282500Y272500D03*
X272500Y277500D03*
Y282500D03*
X277500Y272500D03*
X275030Y300000D03*
Y310000D03*
X272780Y322470D03*
X282380Y319660D03*
X268400Y345870D03*
X275470Y352940D03*
X269220Y360750D03*
X282540Y360010D03*
X272000Y378000D03*
Y382000D03*
X282000Y388000D03*
X278000D03*
X291000Y61000D03*
X287500Y82500D03*
Y77500D03*
X288000Y105000D03*
X288010Y96900D03*
X293000Y125000D03*
X284870Y114970D03*
X292750Y144280D03*
X284850Y154970D03*
X287500Y177500D03*
Y182500D03*
X284970Y202740D03*
X291000Y211000D03*
X284040Y222530D03*
X294970Y220010D03*
X292380Y229660D03*
X283940Y235030D03*
X293240Y238710D03*
X294970Y248560D03*
X289870Y257160D03*
X287500Y282500D03*
Y277500D03*
X284970Y300000D03*
X291000Y301000D03*
X284970Y310000D03*
X291000Y331000D03*
Y361000D03*
X288000Y378000D03*
Y382000D03*
X291000Y451000D03*
G54D13*
X-10000Y80000D03*
Y180000D03*
Y280000D03*
Y380000D03*
X90000Y80000D03*
Y180000D03*
Y280000D03*
Y380000D03*
X180000Y80000D03*
Y180000D03*
Y280000D03*
Y380000D03*
X280000Y80000D03*
Y180000D03*
Y280000D03*
Y380000D03*
G54D14*
X57500Y17850D03*
Y27150D03*
X75000Y35350D03*
Y44650D03*
X85000Y35350D03*
Y44650D03*
X95000Y35350D03*
Y44650D03*
X150000Y35350D03*
Y44650D03*
X165000Y35350D03*
X175000D03*
X165000Y44650D03*
X175000D03*
X185000Y35350D03*
Y44650D03*
G54D15*
X65000Y17300D03*
X75000D03*
X65000Y27300D03*
X75000D03*
X85000Y17300D03*
X95000D03*
X85000Y27300D03*
X95000D03*
X105000Y17300D03*
Y27300D03*
X115000Y17300D03*
X155000D03*
Y27300D03*
X165000Y17300D03*
X175000D03*
X165000Y27300D03*
X175000D03*
X185000Y17300D03*
X195000D03*
X185000Y27300D03*
X195000D03*
X205000Y17300D03*
G54D16*
X115000Y27300D03*
X205000D03*
G54D17*
G01X-20000Y64550D02*
Y70000D01*
G01D02*
Y75450D01*
G01X-25450Y70000D02*
X-20000D01*
G01D02*
X-14550D01*
G01X-20000Y84550D02*
Y90000D01*
G01D02*
Y95450D01*
G01X-25450Y90000D02*
X-20000D01*
G01D02*
X-14550D01*
G01X57500Y17850D02*
X52150D01*
X47500Y22500D01*
Y35000D01*
X42500Y40000D01*
X32500D01*
X27500Y35000D01*
Y12500D01*
X25000Y10000D01*
X17500D01*
X15000Y12500D01*
Y115000D01*
X12500Y117500D01*
X5000D01*
X2500Y120000D01*
Y125000D01*
X5000Y127500D01*
X12500D01*
X15000Y130000D01*
Y135000D01*
X12500Y137500D01*
X5000D01*
X2500Y140000D01*
Y145000D01*
X5000Y147500D01*
X12500D01*
X15000Y150000D01*
Y155000D01*
X12500Y157500D01*
X-7500D01*
X-10000Y155000D01*
Y152500D01*
X-12500Y150000D01*
X-17500D01*
X-20000Y147500D01*
Y142500D01*
X-17500Y140000D01*
X-12500D01*
X-10000Y137500D01*
Y132500D01*
X-12500Y130000D01*
X-17500D01*
X-20000Y127500D01*
Y122500D01*
X-17500Y120000D01*
X-12500D01*
X-10000Y117500D01*
Y112500D01*
X-12500Y110000D01*
X-17500D01*
X-20000Y107500D01*
Y102500D01*
X-17500Y100000D01*
X-12500D01*
X-10000Y97500D01*
Y80000D01*
G01X-20000Y164550D02*
Y170000D01*
G01D02*
Y175450D01*
G01X-25450Y170000D02*
X-20000D01*
G01D02*
X-14550D01*
G01X-20000Y184550D02*
Y190000D01*
G01D02*
Y195450D01*
G01X-25450Y190000D02*
X-20000D01*
G01D02*
X-14550D01*
G01X-20000Y264550D02*
Y270000D01*
G01D02*
Y275450D01*
G01X-25450Y270000D02*
X-20000D01*
G01D02*
X-14550D01*
G01X-20000Y284550D02*
Y290000D01*
G01D02*
Y295450D01*
G01X-25450Y290000D02*
X-20000D01*
G01D02*
X-14550D01*
G01X-20000Y364550D02*
Y370000D01*
G01D02*
Y375450D01*
G01X-25450Y370000D02*
X-20000D01*
G01D02*
X-14550D01*
G01X-20000Y384550D02*
Y390000D01*
G01D02*
Y395450D01*
G01X-25450Y390000D02*
X-20000D01*
G01D02*
X-14550D01*
G01X0Y64550D02*
Y70000D01*
G01D02*
Y75450D01*
G01X-5450Y70000D02*
X0D01*
G01D02*
X5450D01*
G01X0Y84550D02*
Y90000D01*
G01D02*
Y95450D01*
G01X-5450Y90000D02*
X0D01*
G01D02*
X5450D01*
G01X0Y164550D02*
Y170000D01*
G01D02*
Y175450D01*
G01X-5450Y170000D02*
X0D01*
G01D02*
X5450D01*
G01X0Y184550D02*
Y190000D01*
G01D02*
Y195450D01*
G01X-5450Y190000D02*
X0D01*
G01D02*
X5450D01*
G01X0Y264550D02*
Y270000D01*
G01D02*
Y275450D01*
G01X-5450Y270000D02*
X0D01*
G01D02*
X5450D01*
G01X-10000Y280000D02*
Y327510D01*
X-5010Y332500D01*
X30000D01*
X35000Y327500D01*
Y72500D01*
X57500Y50000D01*
Y47500D01*
X65000Y40000D01*
X73800D01*
X75000Y38800D01*
Y35350D01*
G01X0Y284550D02*
Y290000D01*
G01D02*
Y295450D01*
G01X-5450Y290000D02*
X0D01*
G01D02*
X5450D01*
G01X0Y364550D02*
Y370000D01*
G01D02*
Y375450D01*
G01X-5450Y370000D02*
X0D01*
G01D02*
X5450D01*
G01X0Y384550D02*
Y390000D01*
G01D02*
Y395450D01*
G01X-5450Y390000D02*
X0D01*
G01D02*
X5450D01*
G01X65000Y17300D02*
X64450Y17850D01*
X57500D01*
G01Y27150D02*
Y30140D01*
G01Y24160D02*
Y27150D01*
G01X54220D02*
X57500D01*
G01X85000Y35350D02*
Y40000D01*
X83790Y41210D01*
X81950D01*
X80000Y43160D01*
Y46140D01*
X77500Y48640D01*
Y53660D01*
X55000Y76160D01*
Y357500D01*
X45000Y367500D01*
Y377500D01*
X52500Y385000D01*
X65000D01*
X70000Y380000D01*
X90000D01*
G01X75000Y35350D02*
Y27300D01*
G01Y44650D02*
Y47500D01*
G01Y41660D02*
Y44650D01*
G01X71720D02*
X75000D01*
G01X74550Y70000D02*
X80000D01*
G01X74550Y90000D02*
X80000D01*
G01X74550Y170000D02*
X80000D01*
G01X74550Y190000D02*
X80000D01*
G01X74550Y270000D02*
X80000D01*
G01X74550Y290000D02*
X80000D01*
G01X74550Y370000D02*
X80000D01*
G01X74550Y390000D02*
X80000D01*
G01X85000Y35350D02*
Y27300D01*
G01Y47640D02*
Y44650D01*
G01X90000Y180000D02*
Y202500D01*
X112500Y225000D01*
Y282500D01*
X117500Y287500D01*
X126160D01*
X127500Y286160D01*
Y77500D01*
X110000Y60000D01*
X92500D01*
X87500Y55000D01*
Y48640D01*
X90000Y46140D01*
Y43160D01*
X91950Y41210D01*
X93790D01*
X95000Y40000D01*
Y35350D01*
G01X80000Y64550D02*
Y70000D01*
G01D02*
Y75450D01*
G01Y70000D02*
X85450D01*
G01X80000Y84550D02*
Y90000D01*
G01D02*
Y95450D01*
G01Y90000D02*
X85450D01*
G01X80000Y164550D02*
Y170000D01*
G01D02*
Y175450D01*
G01Y170000D02*
X85450D01*
G01X80000Y184550D02*
Y190000D01*
G01D02*
Y195450D01*
G01Y190000D02*
X85450D01*
G01X80000Y264550D02*
Y270000D01*
G01D02*
Y275450D01*
G01Y270000D02*
X85450D01*
G01X80000Y284550D02*
Y290000D01*
G01D02*
Y295450D01*
G01Y290000D02*
X85450D01*
G01X80000Y364550D02*
Y370000D01*
G01D02*
Y375450D01*
G01Y370000D02*
X85450D01*
G01X80000Y384550D02*
Y390000D01*
G01D02*
Y395450D01*
G01Y390000D02*
X85450D01*
G01X105000Y13330D02*
Y17300D01*
G01D02*
Y21270D01*
G01X101030Y17300D02*
X105000D01*
G01D02*
X108970D01*
G01X105000Y23330D02*
Y27300D01*
G01D02*
Y31270D01*
G01X101030Y27300D02*
X105000D01*
G01D02*
X108970D01*
G01X95000D02*
Y35350D01*
G01X99650Y44650D02*
X95000D01*
G01D02*
Y50000D01*
G01X100000Y64550D02*
Y70000D01*
G01D02*
Y75450D01*
G01X94550Y70000D02*
X100000D01*
G01D02*
X105450D01*
G01X100000Y84550D02*
Y90000D01*
G01D02*
Y95450D01*
G01X94550Y90000D02*
X100000D01*
G01D02*
X105450D01*
G01X100000Y164550D02*
Y170000D01*
G01D02*
Y175450D01*
G01X94550Y170000D02*
X100000D01*
G01D02*
X105450D01*
G01X100000Y184550D02*
Y190000D01*
G01D02*
Y195450D01*
G01X94550Y190000D02*
X100000D01*
G01D02*
X105450D01*
G01X100000Y264550D02*
Y270000D01*
G01D02*
Y275450D01*
G01X94550Y270000D02*
X100000D01*
G01D02*
X105450D01*
G01X100000Y284550D02*
Y290000D01*
G01D02*
Y295450D01*
G01X94550Y290000D02*
X100000D01*
G01D02*
X105450D01*
G01X100000Y364550D02*
Y370000D01*
G01D02*
Y375450D01*
G01X94550Y370000D02*
X100000D01*
G01D02*
X105450D01*
G01X100000Y384550D02*
Y390000D01*
G01D02*
Y395450D01*
G01X94550Y390000D02*
X100000D01*
G01D02*
X105450D01*
G01X180000Y80000D02*
Y92500D01*
X190000Y102500D01*
Y110000D01*
X187500Y112500D01*
X172500D01*
X170000Y110000D01*
Y105000D01*
X167500Y102500D01*
X160000D01*
X157500Y105000D01*
Y135000D01*
X160000Y137500D01*
X165000D01*
X167500Y135000D01*
Y125000D01*
X170000Y122500D01*
X175000D01*
X177500Y125000D01*
Y135000D01*
X180000Y137500D01*
X185000D01*
X187500Y135000D01*
Y125000D01*
X190000Y122500D01*
X200000D01*
X202500Y125000D01*
Y155000D01*
X200000Y157500D01*
X170000D01*
X157500Y145000D01*
X150000D01*
X147500Y142500D01*
Y72500D01*
X137500Y62500D01*
Y50660D01*
X146950Y41210D01*
X148790D01*
X150000Y40000D01*
Y35350D01*
G01X155000Y17300D02*
X150000Y22300D01*
Y35350D01*
G01X165000D02*
Y38800D01*
X162590Y41210D01*
X161350D01*
X160000Y42560D01*
Y52500D01*
X170000Y62500D01*
X199990D01*
X212500Y75010D01*
Y300000D01*
X210000Y302500D01*
X202580D01*
X200000Y305080D01*
Y325000D01*
X197500Y327500D01*
X180000D01*
X177500Y325000D01*
Y297500D01*
X180000Y295000D01*
Y280000D01*
G01X150000Y44650D02*
Y47640D01*
G01X146720Y44650D02*
X150000D01*
G01D02*
X153280D01*
G01X175000Y27300D02*
Y35350D01*
G01D02*
Y40000D01*
X176210Y41210D01*
X178050D01*
X180000Y43160D01*
Y46140D01*
X182500Y48640D01*
Y53070D01*
X184430Y55000D01*
X190000D01*
X194860Y50140D01*
X209880D01*
X232500Y72760D01*
Y317500D01*
X280000Y365000D01*
Y380000D01*
G01X165000Y27300D02*
Y35350D01*
G01Y44650D02*
Y47640D01*
G01X175000Y44650D02*
Y47640D01*
G01X165000Y41660D02*
Y44650D01*
G01D02*
X168280D01*
G01X170000Y64550D02*
Y70000D01*
G01D02*
Y75450D01*
G01X164550Y70000D02*
X170000D01*
G01D02*
X175450D01*
G01X170000Y84550D02*
Y90000D01*
G01D02*
Y95450D01*
G01X164550Y90000D02*
X170000D01*
G01D02*
X175450D01*
G01X170000Y164550D02*
Y170000D01*
G01D02*
Y175450D01*
G01X164550Y170000D02*
X170000D01*
G01D02*
X175450D01*
G01X170000Y184550D02*
Y190000D01*
G01D02*
Y195450D01*
G01X164550Y190000D02*
X170000D01*
G01D02*
X175450D01*
G01X170000Y264550D02*
Y270000D01*
G01D02*
Y275450D01*
G01X164550Y270000D02*
X170000D01*
G01D02*
X175450D01*
G01X170000Y284550D02*
Y290000D01*
G01D02*
Y295450D01*
G01X164550Y290000D02*
X170000D01*
G01D02*
X175450D01*
G01X170000Y364550D02*
Y370000D01*
G01Y384550D02*
Y390000D01*
G01Y370000D02*
Y375450D01*
G01X164550Y370000D02*
X170000D01*
G01D02*
X175450D01*
G01X170000Y390000D02*
Y395450D01*
G01X164550Y390000D02*
X170000D01*
G01D02*
X175450D01*
G01X195000Y13330D02*
Y17300D01*
G01D02*
Y21270D01*
G01X191030Y17300D02*
X195000D01*
G01D02*
X198970D01*
G01X185000Y27300D02*
Y35350D01*
G01X280000Y180000D02*
Y212500D01*
X282500Y215000D01*
X287500D01*
X290000Y217500D01*
Y225010D01*
X287510Y227500D01*
X277510D01*
X272500Y232510D01*
Y237510D01*
X274990Y240000D01*
X287500D01*
X290000Y242500D01*
Y250000D01*
X285000Y255000D01*
X260000D01*
X252500Y247500D01*
Y65000D01*
X228710Y41210D01*
X187160D01*
X185000Y39050D01*
Y35350D01*
G01X195000Y23330D02*
Y27300D01*
G01D02*
Y31270D01*
G01X191030Y27300D02*
X195000D01*
G01D02*
X198970D01*
G01X185000Y41660D02*
Y44650D01*
G01D02*
Y47640D01*
G01Y44650D02*
X188280D01*
G01X190000Y64550D02*
Y70000D01*
G01D02*
Y75450D01*
G01X184550Y70000D02*
X190000D01*
G01D02*
X195450D01*
G01X190000Y84550D02*
Y90000D01*
G01D02*
Y95450D01*
G01X184550Y90000D02*
X190000D01*
G01D02*
X195450D01*
G01X190000Y164550D02*
Y170000D01*
G01D02*
Y175450D01*
G01X184550Y170000D02*
X190000D01*
G01D02*
X195450D01*
G01X190000Y184550D02*
Y190000D01*
G01D02*
Y195450D01*
G01X184550Y190000D02*
X190000D01*
G01D02*
X195450D01*
G01X190000Y264550D02*
Y270000D01*
G01D02*
Y275450D01*
G01Y270000D02*
X195450D01*
G01X190000Y284550D02*
Y290000D01*
G01D02*
Y295450D01*
G01X184550Y290000D02*
X190000D01*
G01D02*
X195450D01*
G01X190000Y364550D02*
Y370000D01*
G01D02*
Y375450D01*
G01X184550Y370000D02*
X190000D01*
G01D02*
X195450D01*
G01X190000Y384550D02*
Y390000D01*
G01D02*
Y395450D01*
G01X184550Y390000D02*
X190000D01*
G01D02*
X195450D01*
G01X264550Y70000D02*
X270000D01*
G01X264550Y90000D02*
X270000D01*
G01X264550Y170000D02*
X270000D01*
G01X264550Y190000D02*
X270000D01*
G01X264550Y270000D02*
X270000D01*
G01X264550Y290000D02*
X270000D01*
G01X264550Y370000D02*
X270000D01*
G01X264550Y390000D02*
X270000D01*
G01Y64550D02*
Y70000D01*
G01D02*
Y75450D01*
G01Y70000D02*
X275450D01*
G01X270000Y84550D02*
Y90000D01*
G01D02*
Y95450D01*
G01Y90000D02*
X275450D01*
G01X270000Y164550D02*
Y170000D01*
G01D02*
Y175450D01*
G01Y170000D02*
X275450D01*
G01X270000Y184550D02*
Y190000D01*
G01D02*
Y195450D01*
G01Y190000D02*
X275450D01*
G01X270000Y264550D02*
Y270000D01*
G01D02*
Y275450D01*
G01Y270000D02*
X275450D01*
G01X270000Y284550D02*
Y290000D01*
G01D02*
Y295450D01*
G01Y290000D02*
X275450D01*
G01X270000Y364550D02*
Y370000D01*
G01D02*
Y375450D01*
G01Y370000D02*
X275450D01*
G01X270000Y384550D02*
Y390000D01*
G01D02*
Y395450D01*
G01Y390000D02*
X275450D01*
G01X290000Y64550D02*
Y70000D01*
G01D02*
Y75450D01*
G01X284550Y70000D02*
X290000D01*
G01D02*
X295450D01*
G01X290000Y84550D02*
Y90000D01*
G01D02*
Y95450D01*
G01X284550Y90000D02*
X290000D01*
G01D02*
X295450D01*
G01X290000Y164550D02*
Y170000D01*
G01D02*
Y175450D01*
G01X284550Y170000D02*
X290000D01*
G01D02*
X295450D01*
G01X290000Y184550D02*
Y190000D01*
G01D02*
Y195450D01*
G01X284550Y190000D02*
X290000D01*
G01D02*
X295450D01*
G01X290000Y264550D02*
Y270000D01*
G01D02*
Y275450D01*
G01X284550Y270000D02*
X290000D01*
G01D02*
X295450D01*
G01X290000Y284550D02*
Y290000D01*
G01D02*
Y295450D01*
G01X284550Y290000D02*
X290000D01*
G01D02*
X295450D01*
G01X290000Y364550D02*
Y370000D01*
G01D02*
Y375450D01*
G01X284550Y370000D02*
X290000D01*
G01D02*
X295450D01*
G01X290000Y384550D02*
Y390000D01*
G01D02*
Y395450D01*
G01X284550Y390000D02*
X290000D01*
G01D02*
X295450D01*
M02*
