G04 ================== begin FILE IDENTIFICATION RECORD ==================*
G04 Layout Name:  PMOD2BNCSIMPLE_v1_06_62mil.brd*
G04 Film Name:    Drill_1-4*
G04 File Format:  Gerber RS274X*
G04 File Origin:  Cadence Allegro 23.1-P001*
G04 Origin Date:  Tue Nov 28 22:05:12 2023*
G04 *
G04 Layer:  MANUFACTURING/NCLEGEND-1-4*
G04 Layer:  BOARD GEOMETRY/OUTLINE*
G04 Layer:  BOARD GEOMETRY/DESIGN_OUTLINE*
G04 Layer:  BOARD GEOMETRY/CUTOUT*
G04 *
G04 Offset:    (0.0000 0.0000)*
G04 Mirror:    No*
G04 Mode:      Positive*
G04 Rotation:  0*
G04 FullContactRelief:  No*
G04 UndefLineWidth:     0.0050*
G04 ================== end FILE IDENTIFICATION RECORD ====================*
%FSLAX55Y55*MOIN*%
%IR0*IPPOS*OFA0.00000B0.00000*MIA0B0*SFA1.00000B1.00000*%
%AMMACRO10*
1,1,.005,.0065,0.0*
20,1,.005,.0065,0.0,-.0065,0.0,0.0*
1,1,.005,-.0065,0.0*
1,1,.005,0.0,.0065*
20,1,.005,0.0,.0065,0.0,-.0065,0.0*
1,1,.005,0.0,-.0065*
%
%ADD10MACRO10*%
%AMMACRO11*
1,1,.005,.0315,0.0*
20,1,.005,.0315,0.0,0.0,-.0315,0.0*
1,1,.005,0.0,-.0315*
20,1,.005,0.0,-.0315,-.0315,0.0,0.0*
1,1,.005,-.0315,0.0*
20,1,.005,-.0315,0.0,0.0,.0315,0.0*
1,1,.005,0.0,.0315*
20,1,.005,0.0,.0315,.0315,0.0,0.0*
1,1,.005,.0315,0.0*
%
%ADD11MACRO11*%
%AMMACRO12*
1,1,.005,.01224,-.02955*
20,1,.005,.01224,-.02955,-.01224,-.02955,0.0*
1,1,.005,-.01224,-.02955*
20,1,.005,-.01224,-.02955,-.02955,-.01224,0.0*
1,1,.005,-.02955,-.01224*
20,1,.005,-.02955,-.01224,-.02955,.01224,0.0*
1,1,.005,-.02955,.01224*
20,1,.005,-.02955,.01224,-.01224,.02955,0.0*
1,1,.005,-.01224,.02955*
20,1,.005,-.01224,.02955,.01224,.02955,0.0*
1,1,.005,.01224,.02955*
20,1,.005,.01224,.02955,.02955,.01224,0.0*
1,1,.005,.02955,.01224*
20,1,.005,.02955,.01224,.02955,-.01224,0.0*
1,1,.005,.02955,-.01224*
20,1,.005,.02955,-.01224,.01224,-.02955,0.0*
1,1,.005,.01224,-.02955*
%
%ADD12MACRO12*%
%AMMACRO14*
1,1,.005,.02165,0.0*
20,1,.005,.02165,0.0,.010825,.018749,0.0*
1,1,.005,.010825,.018749*
20,1,.005,.010825,.018749,-.010825,.018749,0.0*
1,1,.005,-.010825,.018749*
20,1,.005,-.010825,.018749,-.02165,0.0,0.0*
1,1,.005,-.02165,0.0*
20,1,.005,-.02165,0.0,-.010825,-.018749,0.0*
1,1,.005,-.010825,-.018749*
20,1,.005,-.010825,-.018749,.010825,-.018749,0.0*
1,1,.005,.010825,-.018749*
20,1,.005,.010825,-.018749,.02165,0.0,0.0*
1,1,.005,.02165,0.0*
%
%ADD14MACRO14*%
%AMMACRO13*
1,1,.005,0.0,.02165*
20,1,.005,0.0,.02165,-.018749,.010825,0.0*
1,1,.005,-.018749,.010825*
20,1,.005,-.018749,.010825,-.018749,-.010825,0.0*
1,1,.005,-.018749,-.010825*
20,1,.005,-.018749,-.010825,0.0,-.02165,0.0*
1,1,.005,0.0,-.02165*
20,1,.005,0.0,-.02165,.018749,-.010825,0.0*
1,1,.005,.018749,-.010825*
20,1,.005,.018749,-.010825,.018749,.010825,0.0*
1,1,.005,.018749,.010825*
20,1,.005,.018749,.010825,0.0,.02165,0.0*
1,1,.005,0.0,.02165*
%
%ADD13MACRO13*%
%ADD15C,.005*%
G75*
%LPD*%
G75*
G54D10*
X15180Y18380D03*
X15920Y12860D03*
X9820Y17540D03*
Y11970D03*
X13470Y7750D03*
X15180Y35090D03*
Y29520D03*
Y23950D03*
X9820Y34250D03*
Y28680D03*
Y23110D03*
X6000Y20810D03*
Y30810D03*
X16910Y54820D03*
X12680Y51210D03*
X15180Y46230D03*
Y40660D03*
X9290Y55580D03*
X7320Y50360D03*
X9820Y45390D03*
Y39820D03*
X6000Y40810D03*
X17320Y68860D03*
Y63290D03*
X13230Y59510D03*
X6000Y60810D03*
X14430Y94820D03*
X6000Y80810D03*
X11000Y81000D03*
X10230Y98490D03*
X9820Y104040D03*
Y109610D03*
X18450Y100180D03*
X15180Y104680D03*
Y110250D03*
X6000Y100810D03*
Y110810D03*
X11220Y115000D03*
X16110Y117680D03*
X6000Y130810D03*
X11000Y131000D03*
X12320Y151400D03*
X16260Y147460D03*
X17320Y141990D03*
X6000Y150810D03*
X17640Y160180D03*
X13130Y156910D03*
X6000Y160800D03*
X17320Y185640D03*
X6000Y180810D03*
X11000Y181000D03*
X18090Y199820D03*
X12520D03*
X15890Y195390D03*
X15660Y205180D03*
X10090D03*
X5600Y201880D03*
X4850Y196360D03*
X17320Y218860D03*
X17910Y213320D03*
X6000Y210810D03*
X11000Y211000D03*
X16000D03*
X6000Y230810D03*
X11000Y231000D03*
X19820Y16830D03*
X35180Y14250D03*
X19020Y7320D03*
X23860Y10080D03*
X25180Y15490D03*
X29820Y17990D03*
Y12420D03*
X33210Y8000D03*
X19820Y22400D03*
Y27970D03*
Y33540D03*
X35180Y36530D03*
Y30960D03*
Y25390D03*
Y19820D03*
X25180Y21060D03*
Y26630D03*
Y32200D03*
X29820Y34700D03*
Y29130D03*
Y23560D03*
X19820Y39110D03*
Y44680D03*
X21290Y50060D03*
X26200Y52680D03*
X31740Y52050D03*
X35180Y47670D03*
Y42100D03*
X25180Y37770D03*
Y43340D03*
X29820Y40270D03*
X37320Y61290D03*
Y66860D03*
Y72430D03*
X22680Y68860D03*
Y63290D03*
X21610Y57820D03*
X31000Y61000D03*
X37320Y78000D03*
Y83570D03*
Y89140D03*
X36560Y94650D03*
X20000Y94820D03*
X31000Y81000D03*
X21000Y91000D03*
X25500Y95720D03*
X34040Y100180D03*
X28470Y100310D03*
X23430Y102680D03*
X20740Y110480D03*
X26290Y110010D03*
X31360Y112320D03*
X36930D03*
X21650Y117130D03*
X37320Y120870D03*
Y126440D03*
Y132010D03*
X21000Y121000D03*
X31000Y131000D03*
X37320Y137580D03*
Y143150D03*
Y148720D03*
X21810Y149480D03*
X22680Y143970D03*
X31000Y151000D03*
X36940Y154280D03*
X31400Y154820D03*
X25830D03*
X20260D03*
X34350Y160180D03*
X28780D03*
X23210D03*
X21000Y171000D03*
X22680Y186660D03*
X31000Y181000D03*
X34700Y209080D03*
X21850Y209380D03*
X27030Y207340D03*
X31780Y204440D03*
X35720Y200500D03*
X27710Y196000D03*
X23660Y199820D03*
X19830Y191450D03*
X34640Y196640D03*
X30700Y200580D03*
X26760Y204520D03*
X21230Y205180D03*
X22680Y218860D03*
X25000Y213800D03*
X30450Y212680D03*
X31000Y231000D03*
X21000Y241000D03*
X44950Y-102500D03*
X39820Y17320D03*
X38740Y7320D03*
X43680Y9900D03*
X45180Y15260D03*
X50470Y16670D03*
X51000Y11000D03*
X39820Y22890D03*
Y28460D03*
Y34030D03*
X52230Y36550D03*
X52680Y31000D03*
Y25430D03*
X45180Y20830D03*
Y26400D03*
Y31970D03*
X56000Y30990D03*
X53730Y55900D03*
X54490Y40140D03*
X50550Y44080D03*
X46610Y48020D03*
X42670Y51960D03*
X38730Y55900D03*
X53540Y48650D03*
X49600Y52590D03*
X45660Y56530D03*
X42580Y38870D03*
X48000Y40180D03*
X49790Y59830D03*
X47320Y64830D03*
Y70400D03*
Y75970D03*
X52790Y64410D03*
X52680Y69980D03*
Y75550D03*
X42680Y61230D03*
Y66800D03*
Y72370D03*
X46000Y61000D03*
X56000D03*
X47320Y81540D03*
Y87110D03*
Y92680D03*
X52680Y81120D03*
Y86690D03*
Y92260D03*
X42680Y77940D03*
Y83510D03*
Y89080D03*
Y94650D03*
X47320Y98250D03*
Y103820D03*
Y109390D03*
X52680Y97830D03*
Y103400D03*
Y108970D03*
X39530Y99250D03*
X47320Y114960D03*
Y120530D03*
Y126100D03*
Y131670D03*
X52680Y114540D03*
Y120110D03*
Y125680D03*
Y131250D03*
X41610Y115330D03*
X42680Y120800D03*
Y126370D03*
Y131940D03*
X47320Y137240D03*
Y142810D03*
Y148380D03*
X52680Y136820D03*
Y142390D03*
Y147960D03*
X42680Y137510D03*
Y143080D03*
Y148650D03*
X47320Y153950D03*
Y159520D03*
Y165090D03*
Y170660D03*
X52680Y153530D03*
Y159100D03*
Y164670D03*
Y170240D03*
X42680Y154220D03*
X39800Y158990D03*
X41000Y171000D03*
X54390Y189390D03*
X47540Y188680D03*
X51470Y184740D03*
X55410Y180800D03*
X47320Y176230D03*
X43470Y180250D03*
X39530Y184190D03*
X52680Y175810D03*
X50390Y180890D03*
X46460Y184830D03*
X42520Y188770D03*
X38640Y205140D03*
X42580Y201200D03*
X46520Y197270D03*
X50460Y193330D03*
X39660Y196560D03*
X43600Y192620D03*
X38580Y192700D03*
X51000Y201000D03*
X41000Y211000D03*
X51000D03*
X41000Y221000D03*
X51000D03*
X41000Y231000D03*
X51000D03*
X41000Y241000D03*
X51000D03*
X61000Y11000D03*
X71000D03*
Y21000D03*
Y31000D03*
X75640Y50590D03*
X71700Y54520D03*
X67120Y55070D03*
X57670Y51960D03*
X66000Y41000D03*
X71000Y51000D03*
X67760Y58460D03*
X67320Y64020D03*
Y69590D03*
Y75160D03*
X75130Y58660D03*
X72680Y63660D03*
Y69230D03*
Y74800D03*
X62680Y75700D03*
Y70130D03*
Y64560D03*
X63180Y59010D03*
X57320Y75310D03*
Y69740D03*
Y64170D03*
X67320Y80730D03*
Y86300D03*
Y91870D03*
X72680Y80370D03*
Y85940D03*
Y91510D03*
X62680Y92410D03*
Y86840D03*
Y81270D03*
X57320Y92020D03*
Y86450D03*
Y80880D03*
X67320Y97440D03*
Y103010D03*
Y108580D03*
Y114150D03*
X72680Y97080D03*
Y102650D03*
Y108220D03*
Y113790D03*
X62680Y109120D03*
Y103550D03*
Y97980D03*
X57320Y114300D03*
Y108730D03*
Y103160D03*
Y97590D03*
X67320Y119720D03*
Y125290D03*
Y130860D03*
X72680Y119360D03*
Y124930D03*
Y130500D03*
X62680Y131400D03*
Y125830D03*
Y120260D03*
Y114690D03*
X57320Y131010D03*
Y125440D03*
Y119870D03*
X67320Y136430D03*
Y142000D03*
Y147570D03*
X72680Y136070D03*
Y141640D03*
Y147210D03*
Y152780D03*
X62680Y148110D03*
Y142540D03*
Y136970D03*
X57320Y147720D03*
Y142150D03*
Y136580D03*
X67320Y153140D03*
Y158710D03*
Y164280D03*
Y169850D03*
X72680Y158350D03*
Y163920D03*
Y169490D03*
X62680Y170390D03*
Y164820D03*
Y159250D03*
Y153680D03*
X57320Y170000D03*
Y164430D03*
Y158860D03*
Y153290D03*
X67320Y175420D03*
Y180990D03*
Y186560D03*
X72680Y175060D03*
Y180630D03*
Y186200D03*
X58330Y185450D03*
X62270Y181510D03*
X62680Y175960D03*
X57320Y175570D03*
X61000Y191000D03*
X67320Y192130D03*
Y197700D03*
Y203270D03*
X69580Y208360D03*
X74840Y210180D03*
X72680Y191770D03*
Y197340D03*
Y202910D03*
X61000Y201000D03*
Y211000D03*
X71000D03*
X61000Y221000D03*
X71000D03*
X61000Y231000D03*
X71000D03*
X61000Y241000D03*
X71000D03*
X81000Y11000D03*
X91000D03*
X79070Y54720D03*
X87680Y50450D03*
Y56020D03*
X94630Y52680D03*
X77320Y60770D03*
Y66340D03*
Y71910D03*
X83780Y60000D03*
X82680Y65460D03*
Y71030D03*
X92680Y72900D03*
Y67330D03*
X87320Y74520D03*
Y68950D03*
X87810Y63400D03*
X92080Y59820D03*
X77320Y77480D03*
Y83050D03*
Y88620D03*
Y94190D03*
X82680Y76600D03*
Y82170D03*
Y87740D03*
Y93310D03*
X94630Y94820D03*
X92680Y89610D03*
Y84040D03*
Y78470D03*
X87320Y91230D03*
Y85660D03*
Y80090D03*
X77320Y99760D03*
Y105330D03*
Y110900D03*
X82680Y98880D03*
Y104450D03*
Y110020D03*
X87320Y114510D03*
X90940Y110270D03*
X92380Y100180D03*
X87980Y96760D03*
X77320Y116470D03*
Y122040D03*
Y127610D03*
Y133180D03*
X82680Y115590D03*
Y121160D03*
Y126730D03*
Y132300D03*
X92680Y131100D03*
Y125530D03*
Y119960D03*
X87320Y131220D03*
Y125650D03*
Y120080D03*
X77320Y138750D03*
Y144320D03*
Y149890D03*
X82680Y137870D03*
Y143440D03*
Y149010D03*
X94940Y147320D03*
X92680Y142240D03*
Y136670D03*
X90910Y152190D03*
X87320Y147930D03*
Y142360D03*
Y136790D03*
X86000Y151000D03*
X77320Y155460D03*
Y161030D03*
X79760Y166040D03*
X85080Y167680D03*
X90370Y165920D03*
X92850Y160930D03*
X82680Y154580D03*
Y160150D03*
X87930Y158290D03*
X92290Y154820D03*
X86000Y161000D03*
X81000Y171000D03*
X91000D03*
X81000Y181000D03*
X91000D03*
X81000Y191000D03*
X91000D03*
X80410Y210180D03*
X85980D03*
X91550D03*
X77900Y204820D03*
X83470D03*
X89040D03*
X94610D03*
X81000Y201000D03*
X91000D03*
X81000Y221000D03*
X91000D03*
X81000Y231000D03*
X91000D03*
X81000Y241000D03*
X91000D03*
X101000Y11000D03*
X111000D03*
Y21000D03*
X105180Y52530D03*
X99820Y54700D03*
X112310Y43530D03*
X108370Y39590D03*
X109800Y51080D03*
X107310Y46090D03*
X103040Y63250D03*
X105180Y58100D03*
X97650Y59820D03*
X111000Y61000D03*
Y71000D03*
X107320Y91140D03*
X112680D03*
X101000Y81000D03*
X106090Y112690D03*
X107680Y107360D03*
Y101790D03*
X105460Y96680D03*
X96490Y109820D03*
X102030Y109190D03*
X102320Y103630D03*
X97950Y100180D03*
X111840Y100620D03*
X112320Y106170D03*
X112920Y111710D03*
X101000Y101000D03*
X95530Y115180D03*
X111000Y121000D03*
X101000Y131000D03*
X111650Y147320D03*
X106080D03*
X100510D03*
X113170Y152680D03*
X107600D03*
X102030D03*
X96460D03*
X111000Y141000D03*
X98370Y160180D03*
X103940D03*
X109510D03*
X97860Y154820D03*
X103430D03*
X109000D03*
X111000Y171000D03*
X101000Y181000D03*
X111000Y191000D03*
X97120Y210180D03*
X100180Y204820D03*
X105440Y206660D03*
X101000Y201000D03*
X111000D03*
X102570Y211350D03*
X106510Y215290D03*
X107320Y220800D03*
X109380Y210600D03*
X112680Y215090D03*
Y220660D03*
X101000Y231000D03*
X111000Y241000D03*
X132680Y16650D03*
X132370Y11080D03*
X128260Y7320D03*
X122800Y8420D03*
X119820Y13130D03*
X127320Y18400D03*
X126590Y12880D03*
X116000Y11000D03*
X132680Y33360D03*
Y27790D03*
Y22220D03*
X119820Y18700D03*
Y24270D03*
Y29840D03*
Y35410D03*
X127320Y35110D03*
Y29540D03*
Y23970D03*
X132680Y55640D03*
Y50070D03*
Y44500D03*
Y38930D03*
X117320Y40390D03*
Y45960D03*
X127320Y51820D03*
Y46250D03*
Y40680D03*
X123500Y40280D03*
X122680Y45790D03*
X120400Y50880D03*
X115130Y52680D03*
X132680Y72350D03*
Y66780D03*
Y61210D03*
X127320Y74100D03*
Y68530D03*
Y62960D03*
Y57390D03*
X121000Y61000D03*
X132680Y94630D03*
Y89060D03*
Y83490D03*
Y77920D03*
X127320Y90810D03*
Y85240D03*
Y79670D03*
X121000Y81000D03*
X132450Y111330D03*
X132680Y105770D03*
Y100200D03*
X114990Y96210D03*
X117680Y101090D03*
Y106660D03*
X122260Y109820D03*
X127320Y107520D03*
Y101950D03*
Y96380D03*
X121000Y101000D03*
X121140Y132680D03*
X126700Y132980D03*
X121140Y127320D03*
X126710D03*
X131480Y130200D03*
X128420Y115180D03*
X131000Y121000D03*
X127320Y138520D03*
Y144090D03*
X122790Y147320D03*
X117220D03*
X132680Y135640D03*
Y141210D03*
Y146780D03*
X129760Y151520D03*
X124310Y152680D03*
X118740D03*
X115080Y160180D03*
X120650D03*
X125860Y162140D03*
X127320Y167520D03*
X114570Y154820D03*
X120140D03*
X125710D03*
X129840Y158560D03*
X132680Y163350D03*
Y168920D03*
X127320Y173090D03*
X123710Y177320D03*
X118140D03*
X132680Y174490D03*
X129630Y179150D03*
X125310Y182680D03*
X119740D03*
X131000Y191000D03*
X121000Y201000D03*
X131000D03*
X121000Y211000D03*
X131000D03*
Y221000D03*
X121000Y231000D03*
X131000D03*
Y241000D03*
X134820Y18520D03*
Y12950D03*
X137910Y8310D03*
X143390Y7320D03*
X147440Y11150D03*
X147680Y16720D03*
X141320Y15450D03*
X151000Y11000D03*
X134820Y35230D03*
Y29660D03*
Y24090D03*
X145710Y33070D03*
X141320Y26590D03*
Y21020D03*
X140000Y32500D03*
Y37500D03*
X145670Y55180D03*
X140100D03*
X135600Y51880D03*
X134820Y46370D03*
Y40800D03*
X152380Y51100D03*
X146960Y49820D03*
X141390D03*
X140180Y44390D03*
X145470Y42680D03*
X134820Y75650D03*
Y70080D03*
Y64510D03*
X138440Y60270D03*
X144000Y59820D03*
X149530Y59190D03*
X140180Y73400D03*
Y67830D03*
X145070Y65180D03*
X134820Y92360D03*
Y86790D03*
Y81220D03*
X140180Y90110D03*
Y84540D03*
Y78970D03*
X151000Y81000D03*
X149630Y108410D03*
X144910Y111370D03*
X139500Y112680D03*
X135270Y109050D03*
X134820Y103500D03*
Y97930D03*
X151800Y103020D03*
X146260Y102450D03*
X142330Y106390D03*
X140180Y101250D03*
Y95680D03*
X148860Y127320D03*
X143290D03*
X137820Y128390D03*
X134820Y133090D03*
X148860Y132680D03*
X143290D03*
X141000Y121000D03*
X134820Y138660D03*
Y144230D03*
X135910Y149690D03*
X140610Y152680D03*
X146180D03*
X151750D03*
X140180Y137290D03*
Y142860D03*
X143510Y147320D03*
X149080D03*
X137320Y167410D03*
X137410Y161840D03*
X141070Y157650D03*
X142680Y169550D03*
Y163980D03*
X146740Y160180D03*
X152310D03*
X148860Y182680D03*
X143320Y182090D03*
X139380Y178150D03*
X137320Y172980D03*
X148860Y177320D03*
X143800Y175000D03*
X141000Y191000D03*
Y201000D03*
X151000D03*
X141000Y211000D03*
X151000D03*
X141000Y221000D03*
Y231000D03*
X151000D03*
X141000Y241000D03*
X161000Y11000D03*
X171000D03*
X161000Y21000D03*
Y31000D03*
X155180Y55920D03*
X170270Y54820D03*
X164700D03*
X162680Y49640D03*
X157320Y51720D03*
X168720Y50010D03*
X161000Y41000D03*
X166000Y51000D03*
X154810Y61480D03*
X168670Y60180D03*
X163100D03*
X158400Y57180D03*
X161000Y71000D03*
X162680Y91140D03*
X157320D03*
X171000Y81000D03*
X162680Y96710D03*
Y102280D03*
Y107850D03*
X159130Y112150D03*
X153570Y112350D03*
X157320Y96710D03*
Y102280D03*
X170960Y109820D03*
X167680Y105330D03*
X169790Y100180D03*
X162520Y111310D03*
X165570Y95640D03*
X161000Y121000D03*
X171000Y131000D03*
X157320Y152680D03*
X162890D03*
X168460D03*
X154650Y147320D03*
X160220D03*
X165790D03*
X171360D03*
X161000Y141000D03*
X157880Y160180D03*
X163450D03*
X169020D03*
X161000Y171000D03*
X171000Y181000D03*
X161000Y191000D03*
X163770Y209950D03*
X167710Y206010D03*
X171650Y202070D03*
X161000Y201000D03*
X166000D03*
X162680Y218860D03*
X166490Y214800D03*
X170420Y210860D03*
X157320Y218860D03*
X159830Y213890D03*
X171000Y231000D03*
X161000Y241000D03*
X181000Y11000D03*
X191000D03*
X175510Y56720D03*
X172660Y53940D03*
X188160Y56880D03*
X190170Y55180D03*
X182680Y70770D03*
Y65200D03*
X179450Y60660D03*
X177320Y72330D03*
Y66760D03*
X173730Y62510D03*
X187320Y76120D03*
Y70550D03*
X182680Y93050D03*
Y87480D03*
Y81910D03*
Y76340D03*
X176650Y94570D03*
X177320Y89040D03*
Y83470D03*
Y77900D03*
X187320Y92830D03*
Y87260D03*
Y81690D03*
X181370Y112590D03*
X176530Y109820D03*
X175360Y100180D03*
X180570Y98210D03*
X187320Y109540D03*
Y103970D03*
Y98400D03*
X177500Y105000D03*
X182680Y129140D03*
Y123570D03*
Y118000D03*
X177320Y128240D03*
Y122670D03*
Y117100D03*
X187320Y131820D03*
Y126250D03*
Y120680D03*
Y115110D03*
X176000Y131000D03*
X174030Y152680D03*
X178870Y149920D03*
X182680Y145850D03*
Y140280D03*
Y134710D03*
X176360Y144870D03*
X177320Y139380D03*
Y133810D03*
X187320Y148530D03*
Y142960D03*
Y137390D03*
X179260Y155470D03*
X182680Y159870D03*
X185220Y164820D03*
X187320Y159670D03*
Y154100D03*
X174590Y160180D03*
X177320Y165030D03*
X180690Y169470D03*
X186210Y170180D03*
X191160Y167620D03*
X191000Y171000D03*
X190120Y191170D03*
X183460Y190250D03*
X187400Y186320D03*
X181000Y181000D03*
X186000D03*
X174360Y206920D03*
X178300Y202980D03*
X182240Y199040D03*
X186180Y195100D03*
X175590Y198130D03*
X179520Y194190D03*
X191000Y201000D03*
X181000Y211000D03*
X191000D03*
X181000Y221000D03*
X191000D03*
X181000Y231000D03*
X191000D03*
X181000Y241000D03*
X191000D03*
X210020Y11200D03*
X209820Y16770D03*
X201000Y11000D03*
X206000D03*
X209820Y22340D03*
Y27910D03*
Y33480D03*
X205800Y37320D03*
X200230D03*
X194660D03*
X201000Y21000D03*
X198530Y54750D03*
X207010Y53220D03*
X208320Y45280D03*
X202750D03*
X197180D03*
X206860Y42680D03*
X201290D03*
X195720D03*
X192680Y73140D03*
X202680Y73570D03*
X199970Y68700D03*
X196030Y64760D03*
X192100Y60820D03*
X196740Y73030D03*
X192800Y69090D03*
X210340Y66570D03*
X206400Y62630D03*
X202460Y58690D03*
X207320Y75780D03*
X206480Y70270D03*
X202540Y66340D03*
X198600Y62400D03*
X194670Y58460D03*
X192680Y89850D03*
Y84280D03*
Y78710D03*
X202680Y90280D03*
Y84710D03*
Y79140D03*
X197320Y95280D03*
Y89710D03*
Y84140D03*
Y78570D03*
X207320Y92490D03*
Y86920D03*
Y81350D03*
X192680Y112130D03*
Y106560D03*
Y100990D03*
Y95420D03*
X202680Y112560D03*
Y106990D03*
Y101420D03*
Y95850D03*
X197320Y111990D03*
Y106420D03*
Y100850D03*
X207320Y109200D03*
Y103630D03*
Y98060D03*
X192680Y128840D03*
Y123270D03*
Y117700D03*
X202680Y129270D03*
Y123700D03*
Y118130D03*
X197320Y128700D03*
Y123130D03*
Y117560D03*
X207320Y131480D03*
Y125910D03*
Y120340D03*
Y114770D03*
X192680Y151120D03*
Y145550D03*
Y139980D03*
Y134410D03*
X202680Y151550D03*
Y145980D03*
Y140410D03*
Y134840D03*
X197320Y150980D03*
Y145410D03*
Y139840D03*
Y134270D03*
X207320Y148190D03*
Y142620D03*
Y137050D03*
X192680Y162260D03*
Y156690D03*
X202680Y168260D03*
Y162690D03*
Y157120D03*
X197320Y167690D03*
Y162120D03*
Y156550D03*
X207320Y170470D03*
Y164900D03*
Y159330D03*
Y153760D03*
X194060Y187230D03*
X197990Y183290D03*
X201930Y179350D03*
X202680Y173830D03*
X191340Y182380D03*
X195280Y178440D03*
X197320Y173260D03*
X210140Y186420D03*
X207320Y181610D03*
Y176040D03*
X201000Y191000D03*
Y201000D03*
Y211000D03*
Y221000D03*
Y231000D03*
Y241000D03*
X228240Y7980D03*
X224820Y12380D03*
Y17950D03*
X219520Y8220D03*
X214020Y7320D03*
X217320Y14860D03*
X224820Y23520D03*
X226760Y29520D03*
X221210Y29990D03*
X217320Y26000D03*
Y20430D03*
X215180Y31140D03*
Y36710D03*
X220490Y56710D03*
X216550Y52770D03*
X212610Y48830D03*
X212300Y41480D03*
X221000Y41000D03*
Y51000D03*
X212680Y71630D03*
X215950Y69720D03*
X217320Y75110D03*
X210950Y57160D03*
X214890Y61100D03*
X218830Y65040D03*
X222680Y69070D03*
Y74640D03*
X228370Y64580D03*
X224430Y60650D03*
X227320Y73430D03*
X226000Y71000D03*
X212680Y93910D03*
Y88340D03*
Y82770D03*
Y77200D03*
X217320Y80680D03*
Y86250D03*
Y91820D03*
X222680Y80210D03*
Y85780D03*
Y91350D03*
X227320Y90140D03*
Y84570D03*
Y79000D03*
X212680Y110620D03*
Y105050D03*
Y99480D03*
X217320Y97390D03*
Y102960D03*
Y108530D03*
Y114100D03*
X222680Y96920D03*
Y102490D03*
Y108060D03*
Y113630D03*
X227770Y113440D03*
X227320Y95710D03*
X227500Y105000D03*
X212680Y132900D03*
Y127330D03*
Y121760D03*
Y116190D03*
X217320Y119670D03*
Y125240D03*
Y130810D03*
X222680Y119200D03*
Y124770D03*
Y130340D03*
X227320Y130140D03*
Y124570D03*
Y119000D03*
X212680Y149610D03*
Y144040D03*
Y138470D03*
X217320Y136380D03*
Y141950D03*
Y147520D03*
X222680Y135910D03*
Y141480D03*
Y147050D03*
Y152620D03*
X227320Y152420D03*
Y146850D03*
Y141280D03*
Y135710D03*
X212680Y171890D03*
Y166320D03*
Y160750D03*
Y155180D03*
X217320Y153090D03*
Y158660D03*
Y164230D03*
Y169800D03*
X222680Y158190D03*
Y163760D03*
Y169330D03*
X227320Y157990D03*
X222000Y190710D03*
X218060Y186770D03*
X214120Y182840D03*
X212680Y177460D03*
X214070Y190360D03*
X217320Y175370D03*
Y180940D03*
X222680Y174900D03*
Y180470D03*
X226430Y184580D03*
X226000Y191000D03*
X225930Y194650D03*
X225890Y202170D03*
X221950Y198230D03*
X218010Y194300D03*
X211000Y201000D03*
Y211000D03*
X221000D03*
X211000Y221000D03*
X221000D03*
X211000Y231000D03*
X221000D03*
X211000Y241000D03*
X221000D03*
X244260Y7320D03*
X239820Y16630D03*
X233790Y7510D03*
X246890Y13180D03*
X232320Y14420D03*
X241000Y11000D03*
X239820Y22200D03*
X247320Y35440D03*
Y29870D03*
Y24300D03*
Y18730D03*
X244250Y29540D03*
X239640Y32680D03*
X234430Y30710D03*
X232320Y25560D03*
Y19990D03*
X247320Y52150D03*
Y46580D03*
Y41010D03*
X231000Y41000D03*
X241000D03*
X231000Y51000D03*
X241000D03*
X232680Y74080D03*
X232310Y68520D03*
X247320Y68860D03*
Y63290D03*
Y57720D03*
X231000Y61000D03*
X241000D03*
X232680Y90790D03*
Y85220D03*
Y79650D03*
X241000Y81000D03*
X244840Y111440D03*
X245180Y105880D03*
Y100310D03*
X232010Y109820D03*
X237580D03*
X239820Y104730D03*
X236620Y100180D03*
X231060Y99840D03*
X232500Y105000D03*
X232680Y131310D03*
Y125740D03*
Y120170D03*
X241000Y131000D03*
X247320Y141140D03*
Y146710D03*
X248390Y152180D03*
X232680Y148020D03*
Y142450D03*
Y136880D03*
X241000Y151000D03*
X247950Y157320D03*
X242380D03*
X236810D03*
X232680Y153590D03*
X247630Y162680D03*
X242060D03*
X236490D03*
X230940Y162220D03*
X231000Y171000D03*
X230370Y188520D03*
X247320Y190870D03*
X231000Y181000D03*
X241000D03*
X247770Y209820D03*
X242200D03*
X237750Y206470D03*
X233810Y202530D03*
X229870Y198590D03*
X233770Y210050D03*
X229830Y206110D03*
X241280Y202680D03*
X246210Y200070D03*
X238250Y196390D03*
X243660Y195060D03*
X236000Y201000D03*
X247320Y218860D03*
X237710Y213990D03*
X231000Y211000D03*
Y221000D03*
Y231000D03*
X241000D03*
X231000Y241000D03*
X252680Y13160D03*
X249720Y8440D03*
X261000Y11000D03*
X252680Y35440D03*
Y29870D03*
Y24300D03*
Y18730D03*
X261000Y21000D03*
Y31000D03*
X252680Y52150D03*
Y46580D03*
Y41010D03*
X261000Y41000D03*
Y51000D03*
X252680Y68860D03*
Y63290D03*
Y57720D03*
X261000Y61000D03*
Y81000D03*
X251000Y91000D03*
Y101000D03*
X261000D03*
X251000Y111000D03*
X261000D03*
X251000Y121000D03*
X261000Y131000D03*
X252680Y141140D03*
Y146710D03*
X257290Y149820D03*
X253090Y155180D03*
X261840Y153040D03*
X262680Y158550D03*
X258770Y162520D03*
X253200Y162680D03*
X251000Y171000D03*
X252680Y191170D03*
X261000Y181000D03*
X250150Y196140D03*
X251000Y201000D03*
X261000D03*
X252680Y218860D03*
X252100Y213320D03*
X261000Y211000D03*
Y231000D03*
X251000Y241000D03*
G54D11*
X10000Y70000D03*
Y90000D03*
Y122500D03*
Y142500D03*
Y167500D03*
Y187500D03*
Y220000D03*
Y240000D03*
X30000Y70000D03*
Y90000D03*
Y122500D03*
Y142500D03*
Y167500D03*
Y187500D03*
Y220000D03*
Y240000D03*
X44950Y-202500D03*
X100000Y70000D03*
Y90000D03*
Y120000D03*
Y140000D03*
Y170000D03*
Y190000D03*
Y220000D03*
Y240000D03*
X120000Y70000D03*
Y90000D03*
Y120000D03*
Y140000D03*
Y170000D03*
Y190000D03*
Y220000D03*
Y240000D03*
X150000Y70000D03*
Y90000D03*
Y120000D03*
Y140000D03*
Y170000D03*
Y190000D03*
Y220000D03*
Y240000D03*
X170000Y70000D03*
Y90000D03*
Y120000D03*
Y140000D03*
Y170000D03*
Y190000D03*
Y220000D03*
Y240000D03*
X240000Y70000D03*
Y90000D03*
Y120000D03*
Y140000D03*
Y170000D03*
Y190000D03*
Y220000D03*
Y240000D03*
X260000Y70000D03*
Y90000D03*
Y120000D03*
Y140000D03*
Y170000D03*
Y190000D03*
Y220000D03*
Y240000D03*
G54D12*
X20000Y80000D03*
Y132500D03*
Y177500D03*
Y230000D03*
X44950Y-177500D03*
X110000Y80000D03*
Y130000D03*
Y180000D03*
Y230000D03*
X160000Y80000D03*
Y130000D03*
Y180000D03*
Y230000D03*
X250000Y80000D03*
Y130000D03*
Y180000D03*
Y230000D03*
G54D13*
X44950Y-152500D03*
X115000Y27300D03*
X205000D03*
G54D14*
X44950Y-127500D03*
X65000Y17300D03*
X75000D03*
X65000Y27300D03*
X75000D03*
X85000Y17300D03*
X95000D03*
X85000Y27300D03*
X95000D03*
X105000Y17300D03*
X115000D03*
X105000Y27300D03*
X155000Y17300D03*
X165000D03*
X155000Y27300D03*
X165000D03*
X175000Y17300D03*
X185000D03*
X175000Y27300D03*
X185000D03*
X195000Y17300D03*
X205000D03*
X195000Y27300D03*
G54D15*
G01X0Y-215000D02*
Y-15000D01*
X697500D01*
Y-215000D01*
X0D01*
G01Y-190000D02*
X697500D01*
G01X0Y-165000D02*
X697500D01*
G01X0Y-140000D02*
X697500D01*
G01X0Y-115000D02*
X697500D01*
G01X11000Y-83750D02*
Y-71250D01*
X16900D01*
G01X14720Y-77290D02*
X11000D01*
G01X24490Y-71250D02*
X28210D01*
G01X26350D02*
Y-83750D01*
G01X24490D02*
X28210D01*
G01X39680Y-77500D02*
X42780D01*
Y-81250D01*
X41850Y-82500D01*
X40760Y-83330D01*
X39220Y-83750D01*
X37670Y-83330D01*
X36580Y-82500D01*
X35650Y-81250D01*
X35030Y-79790D01*
X34720Y-78130D01*
Y-76670D01*
X35030Y-75420D01*
X35650Y-73960D01*
X36580Y-72710D01*
X37510Y-71880D01*
X38750Y-71250D01*
X39830D01*
X41070Y-71670D01*
X42010Y-72500D01*
G01X47740Y-71250D02*
Y-80210D01*
X48360Y-82080D01*
X49600Y-83330D01*
X51150Y-83750D01*
X52700Y-83330D01*
X53940Y-82080D01*
X54560Y-80210D01*
Y-71250D01*
G01X60450Y-83750D02*
Y-71250D01*
X64320D01*
X65560Y-71880D01*
X66340Y-72710D01*
X66650Y-74380D01*
X66340Y-76040D01*
X65410Y-77080D01*
X64320Y-77710D01*
X60450D01*
G01X64320D02*
X66650Y-83750D01*
G01X79050D02*
X72850D01*
Y-71250D01*
X79050D01*
G01X76570Y-77290D02*
X72850D01*
G01X0Y-90000D02*
X697500D01*
G01X0Y-65000D02*
X697500D01*
G01X0Y-40000D02*
X697500D01*
G01X0Y0D02*
Y250000D01*
X270000D01*
Y0D01*
X0D01*
G01X2000Y2000D02*
Y248000D01*
X268000D01*
Y2000D01*
X2000D01*
G01X0Y0D02*
Y250000D01*
X270000D01*
Y0D01*
X0D01*
G01X89900Y-65000D02*
Y-215000D01*
G01X113300Y-83750D02*
Y-71250D01*
X119200D01*
G01X117020Y-77290D02*
X113300D01*
G01X126790Y-71250D02*
X130510D01*
G01X128650D02*
Y-83750D01*
G01X126790D02*
X130510D01*
G01X137490D02*
Y-71250D01*
X144610Y-83750D01*
Y-71250D01*
G01X151590D02*
X155310D01*
G01X153450D02*
Y-83750D01*
G01X151590D02*
X155310D01*
G01X162590Y-82080D02*
X163840Y-83130D01*
X165230Y-83750D01*
X166470D01*
X167710Y-83130D01*
X168640Y-82080D01*
X169110Y-80620D01*
X168800Y-79170D01*
X168020Y-77920D01*
X166620Y-77080D01*
X164770Y-76670D01*
X163680Y-75830D01*
X163210Y-74380D01*
X163530Y-72920D01*
X164300Y-71880D01*
X165380Y-71250D01*
X166470D01*
X167560Y-71670D01*
X168490Y-72710D01*
G01X174990Y-83750D02*
Y-71250D01*
G01X181510D02*
Y-83750D01*
G01Y-77500D02*
X174990D01*
G01X193750Y-83750D02*
X187550D01*
Y-71250D01*
X193750D01*
G01X191270Y-77290D02*
X187550D01*
G01X199640Y-83750D02*
Y-71250D01*
X202740D01*
X203980Y-71880D01*
X204910Y-72710D01*
X205690Y-73960D01*
X206310Y-75420D01*
X206460Y-77500D01*
X206310Y-79580D01*
X205690Y-81040D01*
X204910Y-82290D01*
X203980Y-83130D01*
X202740Y-83750D01*
X199640D01*
G01X210800Y-87920D02*
X220100D01*
G01X224590Y-82080D02*
X225840Y-83130D01*
X227230Y-83750D01*
X228470D01*
X229710Y-83130D01*
X230640Y-82080D01*
X231110Y-80620D01*
X230800Y-79170D01*
X230020Y-77920D01*
X228620Y-77080D01*
X226770Y-76670D01*
X225680Y-75830D01*
X225210Y-74380D01*
X225530Y-72920D01*
X226300Y-71880D01*
X227380Y-71250D01*
X228470D01*
X229560Y-71670D01*
X230490Y-72710D01*
G01X238390Y-71250D02*
X242110D01*
G01X240250D02*
Y-83750D01*
G01X238390D02*
X242110D01*
G01X249700Y-71250D02*
X255600D01*
X249700Y-83750D01*
X255600D01*
G01X268150D02*
X261950D01*
Y-71250D01*
X268150D01*
G01X265670Y-77290D02*
X261950D01*
G01X165850Y-196250D02*
X164610Y-196670D01*
X163680Y-197710D01*
X163060Y-198960D01*
X162590Y-200630D01*
X162440Y-202500D01*
X162590Y-204380D01*
X163060Y-206040D01*
X163680Y-207290D01*
X164610Y-208330D01*
X165850Y-208750D01*
X167090Y-208330D01*
X168020Y-207290D01*
X168640Y-206040D01*
X169110Y-204380D01*
X169260Y-202500D01*
X169110Y-200630D01*
X168640Y-198960D01*
X168020Y-197710D01*
X167090Y-196670D01*
X165850Y-196250D01*
G01X178250Y-209170D02*
X177940Y-208960D01*
Y-208540D01*
X178250Y-208330D01*
X178560Y-208540D01*
Y-208960D01*
X178250Y-209170D01*
G01X190650Y-196250D02*
X189410Y-196670D01*
X188480Y-197710D01*
X187860Y-198960D01*
X187390Y-200630D01*
X187240Y-202500D01*
X187390Y-204380D01*
X187860Y-206040D01*
X188480Y-207290D01*
X189410Y-208330D01*
X190650Y-208750D01*
X191890Y-208330D01*
X192820Y-207290D01*
X193440Y-206040D01*
X193910Y-204380D01*
X194060Y-202500D01*
X193910Y-200630D01*
X193440Y-198960D01*
X192820Y-197710D01*
X191890Y-196670D01*
X190650Y-196250D01*
G01X200100Y-203540D02*
X201190Y-202080D01*
X202120Y-201250D01*
X203360Y-200830D01*
X204450Y-201250D01*
X205220Y-202080D01*
X205840Y-203330D01*
X206000Y-204790D01*
X205840Y-206040D01*
X205220Y-207290D01*
X204290Y-208330D01*
X203210Y-208750D01*
X201970Y-208330D01*
X200880Y-207080D01*
X200260Y-205210D01*
X200100Y-203130D01*
X200410Y-200420D01*
X200880Y-198960D01*
X201650Y-197500D01*
X202740Y-196460D01*
X203820Y-196250D01*
X204910Y-196670D01*
X205690Y-197710D01*
G01X212040Y-206250D02*
X212970Y-207710D01*
X214210Y-208540D01*
X215610Y-208750D01*
X216850Y-208540D01*
X218090Y-207500D01*
X218860Y-206250D01*
X219010Y-205000D01*
X218710Y-203540D01*
X217620Y-202500D01*
X216530Y-202080D01*
X215140D01*
G01X216530D02*
X217460Y-201460D01*
X218240Y-200420D01*
X218550Y-199170D01*
X218240Y-197920D01*
X217460Y-196880D01*
X216070Y-196250D01*
X214680Y-196460D01*
X213280Y-197290D01*
G01X159650Y-171250D02*
X158410Y-171670D01*
X157480Y-172710D01*
X156860Y-173960D01*
X156390Y-175630D01*
X156240Y-177500D01*
X156390Y-179380D01*
X156860Y-181040D01*
X157480Y-182290D01*
X158410Y-183330D01*
X159650Y-183750D01*
X160890Y-183330D01*
X161820Y-182290D01*
X162440Y-181040D01*
X162910Y-179380D01*
X163060Y-177500D01*
X162910Y-175630D01*
X162440Y-173960D01*
X161820Y-172710D01*
X160890Y-171670D01*
X159650Y-171250D01*
G01X172050Y-184170D02*
X171740Y-183960D01*
Y-183540D01*
X172050Y-183330D01*
X172360Y-183540D01*
Y-183960D01*
X172050Y-184170D01*
G01X184450Y-171250D02*
X183210Y-171670D01*
X182280Y-172710D01*
X181660Y-173960D01*
X181190Y-175630D01*
X181040Y-177500D01*
X181190Y-179380D01*
X181660Y-181040D01*
X182280Y-182290D01*
X183210Y-183330D01*
X184450Y-183750D01*
X185690Y-183330D01*
X186620Y-182290D01*
X187240Y-181040D01*
X187710Y-179380D01*
X187860Y-177500D01*
X187710Y-175630D01*
X187240Y-173960D01*
X186620Y-172710D01*
X185690Y-171670D01*
X184450Y-171250D01*
G01X193440Y-181880D02*
X194370Y-182920D01*
X195450Y-183540D01*
X196850Y-183750D01*
X198250Y-183330D01*
X199330Y-182500D01*
X200110Y-181040D01*
X200260Y-179380D01*
X199950Y-177710D01*
X199170Y-176670D01*
X198090Y-175830D01*
X197010Y-175630D01*
X195920Y-175830D01*
X194530Y-176670D01*
X194990Y-171250D01*
X199170D01*
G01X206610Y-182290D02*
X207700Y-183330D01*
X208940Y-183750D01*
X210180Y-183330D01*
X211260Y-182080D01*
X212040Y-180210D01*
X212350Y-178330D01*
Y-176040D01*
X212040Y-174170D01*
X211260Y-172500D01*
X210330Y-171670D01*
X209250Y-171250D01*
X208010Y-171670D01*
X207080Y-172500D01*
X206460Y-173750D01*
X206150Y-175420D01*
X206460Y-176870D01*
X207240Y-178330D01*
X208170Y-179170D01*
X209250Y-179380D01*
X210490Y-178960D01*
X211420Y-177920D01*
X212350Y-176040D01*
G01X221650Y-183750D02*
Y-171250D01*
X219790Y-173750D01*
G01Y-183750D02*
X223510D01*
G01X159650Y-146250D02*
X158410Y-146670D01*
X157480Y-147710D01*
X156860Y-148960D01*
X156390Y-150630D01*
X156240Y-152500D01*
X156390Y-154380D01*
X156860Y-156040D01*
X157480Y-157290D01*
X158410Y-158330D01*
X159650Y-158750D01*
X160890Y-158330D01*
X161820Y-157290D01*
X162440Y-156040D01*
X162910Y-154380D01*
X163060Y-152500D01*
X162910Y-150630D01*
X162440Y-148960D01*
X161820Y-147710D01*
X160890Y-146670D01*
X159650Y-146250D01*
G01X172050Y-159170D02*
X171740Y-158960D01*
Y-158540D01*
X172050Y-158330D01*
X172360Y-158540D01*
Y-158960D01*
X172050Y-159170D01*
G01X184450Y-146250D02*
X183210Y-146670D01*
X182280Y-147710D01*
X181660Y-148960D01*
X181190Y-150630D01*
X181040Y-152500D01*
X181190Y-154380D01*
X181660Y-156040D01*
X182280Y-157290D01*
X183210Y-158330D01*
X184450Y-158750D01*
X185690Y-158330D01*
X186620Y-157290D01*
X187240Y-156040D01*
X187710Y-154380D01*
X187860Y-152500D01*
X187710Y-150630D01*
X187240Y-148960D01*
X186620Y-147710D01*
X185690Y-146670D01*
X184450Y-146250D01*
G01X198710Y-158750D02*
Y-146250D01*
X192970Y-155210D01*
X200730D01*
G01X205840Y-156250D02*
X206770Y-157710D01*
X208010Y-158540D01*
X209410Y-158750D01*
X210650Y-158540D01*
X211890Y-157500D01*
X212660Y-156250D01*
X212810Y-155000D01*
X212510Y-153540D01*
X211420Y-152500D01*
X210330Y-152080D01*
X208940D01*
G01X210330D02*
X211260Y-151460D01*
X212040Y-150420D01*
X212350Y-149170D01*
X212040Y-147920D01*
X211260Y-146880D01*
X209870Y-146250D01*
X208480Y-146460D01*
X207080Y-147290D01*
G01X218240Y-156250D02*
X219170Y-157710D01*
X220410Y-158540D01*
X221810Y-158750D01*
X223050Y-158540D01*
X224290Y-157500D01*
X225060Y-156250D01*
X225210Y-155000D01*
X224910Y-153540D01*
X223820Y-152500D01*
X222730Y-152080D01*
X221340D01*
G01X222730D02*
X223660Y-151460D01*
X224440Y-150420D01*
X224750Y-149170D01*
X224440Y-147920D01*
X223660Y-146880D01*
X222270Y-146250D01*
X220880Y-146460D01*
X219480Y-147290D01*
G01X159650Y-121250D02*
X158410Y-121670D01*
X157480Y-122710D01*
X156860Y-123960D01*
X156390Y-125630D01*
X156240Y-127500D01*
X156390Y-129380D01*
X156860Y-131040D01*
X157480Y-132290D01*
X158410Y-133330D01*
X159650Y-133750D01*
X160890Y-133330D01*
X161820Y-132290D01*
X162440Y-131040D01*
X162910Y-129380D01*
X163060Y-127500D01*
X162910Y-125630D01*
X162440Y-123960D01*
X161820Y-122710D01*
X160890Y-121670D01*
X159650Y-121250D01*
G01X172050Y-134170D02*
X171740Y-133960D01*
Y-133540D01*
X172050Y-133330D01*
X172360Y-133540D01*
Y-133960D01*
X172050Y-134170D01*
G01X184450Y-121250D02*
X183210Y-121670D01*
X182280Y-122710D01*
X181660Y-123960D01*
X181190Y-125630D01*
X181040Y-127500D01*
X181190Y-129380D01*
X181660Y-131040D01*
X182280Y-132290D01*
X183210Y-133330D01*
X184450Y-133750D01*
X185690Y-133330D01*
X186620Y-132290D01*
X187240Y-131040D01*
X187710Y-129380D01*
X187860Y-127500D01*
X187710Y-125630D01*
X187240Y-123960D01*
X186620Y-122710D01*
X185690Y-121670D01*
X184450Y-121250D01*
G01X198710Y-133750D02*
Y-121250D01*
X192970Y-130210D01*
X200730D01*
G01X205840Y-131250D02*
X206770Y-132710D01*
X208010Y-133540D01*
X209410Y-133750D01*
X210650Y-133540D01*
X211890Y-132500D01*
X212660Y-131250D01*
X212810Y-130000D01*
X212510Y-128540D01*
X211420Y-127500D01*
X210330Y-127080D01*
X208940D01*
G01X210330D02*
X211260Y-126460D01*
X212040Y-125420D01*
X212350Y-124170D01*
X212040Y-122920D01*
X211260Y-121880D01*
X209870Y-121250D01*
X208480Y-121460D01*
X207080Y-122290D01*
G01X218240Y-131250D02*
X219170Y-132710D01*
X220410Y-133540D01*
X221810Y-133750D01*
X223050Y-133540D01*
X224290Y-132500D01*
X225060Y-131250D01*
X225210Y-130000D01*
X224910Y-128540D01*
X223820Y-127500D01*
X222730Y-127080D01*
X221340D01*
G01X222730D02*
X223660Y-126460D01*
X224440Y-125420D01*
X224750Y-124170D01*
X224440Y-122920D01*
X223660Y-121880D01*
X222270Y-121250D01*
X220880Y-121460D01*
X219480Y-122290D01*
G01X165850Y-96250D02*
X164610Y-96670D01*
X163680Y-97710D01*
X163060Y-98960D01*
X162590Y-100630D01*
X162440Y-102500D01*
X162590Y-104380D01*
X163060Y-106040D01*
X163680Y-107290D01*
X164610Y-108330D01*
X165850Y-108750D01*
X167090Y-108330D01*
X168020Y-107290D01*
X168640Y-106040D01*
X169110Y-104380D01*
X169260Y-102500D01*
X169110Y-100630D01*
X168640Y-98960D01*
X168020Y-97710D01*
X167090Y-96670D01*
X165850Y-96250D01*
G01X178250Y-109170D02*
X177940Y-108960D01*
Y-108540D01*
X178250Y-108330D01*
X178560Y-108540D01*
Y-108960D01*
X178250Y-109170D01*
G01X190650Y-96250D02*
X189410Y-96670D01*
X188480Y-97710D01*
X187860Y-98960D01*
X187390Y-100630D01*
X187240Y-102500D01*
X187390Y-104380D01*
X187860Y-106040D01*
X188480Y-107290D01*
X189410Y-108330D01*
X190650Y-108750D01*
X191890Y-108330D01*
X192820Y-107290D01*
X193440Y-106040D01*
X193910Y-104380D01*
X194060Y-102500D01*
X193910Y-100630D01*
X193440Y-98960D01*
X192820Y-97710D01*
X191890Y-96670D01*
X190650Y-96250D01*
G01X203050Y-108750D02*
Y-96250D01*
X201190Y-98750D01*
G01Y-108750D02*
X204910D01*
G01X212040Y-106250D02*
X212970Y-107710D01*
X214210Y-108540D01*
X215610Y-108750D01*
X216850Y-108540D01*
X218090Y-107500D01*
X218860Y-106250D01*
X219010Y-105000D01*
X218710Y-103540D01*
X217620Y-102500D01*
X216530Y-102080D01*
X215140D01*
G01X216530D02*
X217460Y-101460D01*
X218240Y-100420D01*
X218550Y-99170D01*
X218240Y-97920D01*
X217460Y-96880D01*
X216070Y-96250D01*
X214680Y-96460D01*
X213280Y-97290D01*
G01X190340Y-33750D02*
Y-21250D01*
X193440D01*
X194680Y-21880D01*
X195610Y-22710D01*
X196390Y-23960D01*
X197010Y-25420D01*
X197160Y-27500D01*
X197010Y-29580D01*
X196390Y-31040D01*
X195610Y-32290D01*
X194680Y-33130D01*
X193440Y-33750D01*
X190340D01*
G01X203050D02*
Y-21250D01*
X206920D01*
X208160Y-21880D01*
X208940Y-22710D01*
X209250Y-24380D01*
X208940Y-26040D01*
X208010Y-27080D01*
X206920Y-27710D01*
X203050D01*
G01X206920D02*
X209250Y-33750D01*
G01X216690Y-21250D02*
X220410D01*
G01X218550D02*
Y-33750D01*
G01X216690D02*
X220410D01*
G01X227850Y-21250D02*
Y-33750D01*
X234050D01*
G01X240250Y-21250D02*
Y-33750D01*
X246450D01*
G01X271560Y-22290D02*
X270630Y-21670D01*
X269550Y-21250D01*
X268310D01*
X266910Y-21880D01*
X265830Y-22920D01*
X265050Y-24170D01*
X264430Y-26250D01*
X264270Y-28130D01*
X264590Y-30000D01*
X265050Y-31250D01*
X265980Y-32500D01*
X267070Y-33330D01*
X268150Y-33750D01*
X269230D01*
X270320Y-33330D01*
X271250Y-32710D01*
X272030Y-31880D01*
G01X277290Y-33750D02*
Y-21250D01*
G01X283810D02*
Y-33750D01*
G01Y-27500D02*
X277290D01*
G01X289070Y-33750D02*
X292950Y-21250D01*
X296830Y-33750D01*
G01X295430Y-29380D02*
X290470D01*
G01X302250Y-33750D02*
Y-21250D01*
X306120D01*
X307360Y-21880D01*
X308140Y-22710D01*
X308450Y-24380D01*
X308140Y-26040D01*
X307210Y-27080D01*
X306120Y-27710D01*
X302250D01*
G01X306120D02*
X308450Y-33750D01*
G01X317750Y-21250D02*
Y-33750D01*
G01X314190Y-21250D02*
X321310D01*
G01X330150Y-34170D02*
X329840Y-33960D01*
Y-33540D01*
X330150Y-33330D01*
X330460Y-33540D01*
Y-33960D01*
X330150Y-34170D01*
G01Y-28540D02*
X329840Y-28330D01*
Y-27920D01*
X330150Y-27710D01*
X330460Y-27920D01*
Y-28330D01*
X330150Y-28540D01*
G01X354950Y-21250D02*
Y-33750D01*
G01X351390Y-21250D02*
X358510D01*
G01X367350Y-33750D02*
X366110Y-33540D01*
X365030Y-32710D01*
X364090Y-31460D01*
X363470Y-30000D01*
X363160Y-28330D01*
Y-26670D01*
X363470Y-25000D01*
X364090Y-23540D01*
X365030Y-22290D01*
X366110Y-21460D01*
X367350Y-21250D01*
X368590Y-21460D01*
X369670Y-22290D01*
X370610Y-23540D01*
X371230Y-25000D01*
X371540Y-26670D01*
Y-28330D01*
X371230Y-30000D01*
X370610Y-31460D01*
X369670Y-32710D01*
X368590Y-33540D01*
X367350Y-33750D01*
G01X376650D02*
Y-21250D01*
X380370D01*
X381610Y-21880D01*
X382540Y-23330D01*
X382850Y-25000D01*
X382540Y-26670D01*
X381760Y-27920D01*
X380370Y-28540D01*
X376650D01*
G01X404550Y-21250D02*
Y-33750D01*
G01X402380Y-25420D02*
X406720D01*
G01X416950Y-33750D02*
X416020Y-33540D01*
X415090Y-32710D01*
X414470Y-31250D01*
X414160Y-29580D01*
X414470Y-27920D01*
X415090Y-26460D01*
X416020Y-25630D01*
X416950Y-25420D01*
X417880Y-25630D01*
X418810Y-26460D01*
X419430Y-27920D01*
X419590Y-29580D01*
X419430Y-31250D01*
X418810Y-32710D01*
X417880Y-33540D01*
X416950Y-33750D01*
G01X442990Y-27080D02*
X443610Y-26460D01*
X444070Y-25420D01*
X444390Y-23960D01*
X444070Y-22710D01*
X443460Y-21880D01*
X442370Y-21250D01*
X438190D01*
Y-33750D01*
X443300D01*
X444390Y-32920D01*
X445010Y-31670D01*
X445310Y-30210D01*
X445010Y-28750D01*
X444070Y-27500D01*
X442990Y-27080D01*
X438190D01*
G01X454150Y-33750D02*
X452910Y-33540D01*
X451830Y-32710D01*
X450890Y-31460D01*
X450270Y-30000D01*
X449960Y-28330D01*
Y-26670D01*
X450270Y-25000D01*
X450890Y-23540D01*
X451830Y-22290D01*
X452910Y-21460D01*
X454150Y-21250D01*
X455390Y-21460D01*
X456470Y-22290D01*
X457410Y-23540D01*
X458030Y-25000D01*
X458340Y-26670D01*
Y-28330D01*
X458030Y-30000D01*
X457410Y-31460D01*
X456470Y-32710D01*
X455390Y-33540D01*
X454150Y-33750D01*
G01X466550Y-21250D02*
Y-33750D01*
G01X462990Y-21250D02*
X470110D01*
G01X478950D02*
Y-33750D01*
G01X475390Y-21250D02*
X482510D01*
G01X491350Y-33750D02*
X490110Y-33540D01*
X489030Y-32710D01*
X488090Y-31460D01*
X487470Y-30000D01*
X487160Y-28330D01*
Y-26670D01*
X487470Y-25000D01*
X488090Y-23540D01*
X489030Y-22290D01*
X490110Y-21460D01*
X491350Y-21250D01*
X492590Y-21460D01*
X493670Y-22290D01*
X494610Y-23540D01*
X495230Y-25000D01*
X495540Y-26670D01*
Y-28330D01*
X495230Y-30000D01*
X494610Y-31460D01*
X493670Y-32710D01*
X492590Y-33540D01*
X491350Y-33750D01*
G01X499720D02*
Y-21250D01*
X503750Y-31670D01*
X507780Y-21250D01*
Y-33750D01*
G01X208470Y-58750D02*
X212350Y-46250D01*
X216230Y-58750D01*
G01X214830Y-54380D02*
X209870D01*
G01X221650Y-46250D02*
Y-58750D01*
X227850D01*
G01X234050Y-46250D02*
Y-58750D01*
X240250D01*
G01X258540Y-46250D02*
Y-55210D01*
X259160Y-57080D01*
X260400Y-58330D01*
X261950Y-58750D01*
X263500Y-58330D01*
X264740Y-57080D01*
X265360Y-55210D01*
Y-46250D01*
G01X270790Y-58750D02*
Y-46250D01*
X277910Y-58750D01*
Y-46250D01*
G01X284890D02*
X288610D01*
G01X286750D02*
Y-58750D01*
G01X284890D02*
X288610D01*
G01X299150Y-46250D02*
Y-58750D01*
G01X295590Y-46250D02*
X302710D01*
G01X308290Y-57080D02*
X309540Y-58130D01*
X310930Y-58750D01*
X312170D01*
X313410Y-58130D01*
X314340Y-57080D01*
X314810Y-55620D01*
X314500Y-54170D01*
X313720Y-52920D01*
X312320Y-52080D01*
X310470Y-51670D01*
X309380Y-50830D01*
X308910Y-49380D01*
X309230Y-47920D01*
X310000Y-46880D01*
X311080Y-46250D01*
X312170D01*
X313260Y-46670D01*
X314190Y-47710D01*
G01X332470Y-58750D02*
X336350Y-46250D01*
X340230Y-58750D01*
G01X338830Y-54380D02*
X333870D01*
G01X345650Y-58750D02*
Y-46250D01*
X349520D01*
X350760Y-46880D01*
X351540Y-47710D01*
X351850Y-49380D01*
X351540Y-51040D01*
X350610Y-52080D01*
X349520Y-52710D01*
X345650D01*
G01X349520D02*
X351850Y-58750D01*
G01X364250D02*
X358050D01*
Y-46250D01*
X364250D01*
G01X361770Y-52290D02*
X358050D01*
G01X384090Y-46250D02*
X387810D01*
G01X385950D02*
Y-58750D01*
G01X384090D02*
X387810D01*
G01X394790D02*
Y-46250D01*
X401910Y-58750D01*
Y-46250D01*
G01X421290D02*
X425010D01*
G01X423150D02*
Y-58750D01*
G01X421290D02*
X425010D01*
G01X431990D02*
Y-46250D01*
X439110Y-58750D01*
Y-46250D01*
G01X451360Y-47290D02*
X450430Y-46670D01*
X449350Y-46250D01*
X448110D01*
X446710Y-46880D01*
X445630Y-47920D01*
X444850Y-49170D01*
X444230Y-51250D01*
X444070Y-53130D01*
X444390Y-55000D01*
X444850Y-56250D01*
X445780Y-57500D01*
X446870Y-58330D01*
X447950Y-58750D01*
X449030D01*
X450120Y-58330D01*
X451050Y-57710D01*
X451830Y-56880D01*
G01X457090Y-58750D02*
Y-46250D01*
G01X463610D02*
Y-58750D01*
G01Y-52500D02*
X457090D01*
G01X475850Y-58750D02*
X469650D01*
Y-46250D01*
X475850D01*
G01X473370Y-52290D02*
X469650D01*
G01X481890Y-57080D02*
X483140Y-58130D01*
X484530Y-58750D01*
X485770D01*
X487010Y-58130D01*
X487940Y-57080D01*
X488410Y-55620D01*
X488100Y-54170D01*
X487320Y-52920D01*
X485920Y-52080D01*
X484070Y-51670D01*
X482980Y-50830D01*
X482510Y-49380D01*
X482830Y-47920D01*
X483600Y-46880D01*
X484680Y-46250D01*
X485770D01*
X486860Y-46670D01*
X487790Y-47710D01*
G01X291400Y-65000D02*
Y-215000D01*
G01X320540Y-83750D02*
Y-71250D01*
X323640D01*
X324880Y-71880D01*
X325810Y-72710D01*
X326590Y-73960D01*
X327210Y-75420D01*
X327360Y-77500D01*
X327210Y-79580D01*
X326590Y-81040D01*
X325810Y-82290D01*
X324880Y-83130D01*
X323640Y-83750D01*
X320540D01*
G01X333250D02*
Y-71250D01*
X337120D01*
X338360Y-71880D01*
X339140Y-72710D01*
X339450Y-74380D01*
X339140Y-76040D01*
X338210Y-77080D01*
X337120Y-77710D01*
X333250D01*
G01X337120D02*
X339450Y-83750D01*
G01X346890Y-71250D02*
X350610D01*
G01X348750D02*
Y-83750D01*
G01X346890D02*
X350610D01*
G01X358050Y-71250D02*
Y-83750D01*
X364250D01*
G01X370450Y-71250D02*
Y-83750D01*
X376650D01*
G01X389050D02*
X382850D01*
Y-71250D01*
X389050D01*
G01X386570Y-77290D02*
X382850D01*
G01X394940Y-83750D02*
Y-71250D01*
X398040D01*
X399280Y-71880D01*
X400210Y-72710D01*
X400990Y-73960D01*
X401610Y-75420D01*
X401760Y-77500D01*
X401610Y-79580D01*
X400990Y-81040D01*
X400210Y-82290D01*
X399280Y-83130D01*
X398040Y-83750D01*
X394940D01*
G01X406100Y-87920D02*
X415400D01*
G01X419890Y-82080D02*
X421140Y-83130D01*
X422530Y-83750D01*
X423770D01*
X425010Y-83130D01*
X425940Y-82080D01*
X426410Y-80620D01*
X426100Y-79170D01*
X425320Y-77920D01*
X423920Y-77080D01*
X422070Y-76670D01*
X420980Y-75830D01*
X420510Y-74380D01*
X420830Y-72920D01*
X421600Y-71880D01*
X422680Y-71250D01*
X423770D01*
X424860Y-71670D01*
X425790Y-72710D01*
G01X433690Y-71250D02*
X437410D01*
G01X435550D02*
Y-83750D01*
G01X433690D02*
X437410D01*
G01X445000Y-71250D02*
X450900D01*
X445000Y-83750D01*
X450900D01*
G01X463450D02*
X457250D01*
Y-71250D01*
X463450D01*
G01X460970Y-77290D02*
X457250D01*
G01X390140Y-204580D02*
X394160D01*
G01X390140Y-179580D02*
X394160D01*
G01X390140Y-154580D02*
X394160D01*
G01X390140Y-129580D02*
X394160D01*
G01X390140Y-104580D02*
X394160D01*
G01X466450Y-221250D02*
Y-233750D01*
G01X462890Y-221250D02*
X470010D01*
G01X478850Y-233750D02*
X477610Y-233540D01*
X476530Y-232710D01*
X475590Y-231460D01*
X474970Y-230000D01*
X474660Y-228330D01*
Y-226670D01*
X474970Y-225000D01*
X475590Y-223540D01*
X476530Y-222290D01*
X477610Y-221460D01*
X478850Y-221250D01*
X480090Y-221460D01*
X481170Y-222290D01*
X482110Y-223540D01*
X482730Y-225000D01*
X483040Y-226670D01*
Y-228330D01*
X482730Y-230000D01*
X482110Y-231460D01*
X481170Y-232710D01*
X480090Y-233540D01*
X478850Y-233750D01*
G01X491250Y-221250D02*
Y-233750D01*
G01X487690Y-221250D02*
X494810D01*
G01X499770Y-233750D02*
X503650Y-221250D01*
X507530Y-233750D01*
G01X506130Y-229380D02*
X501170D01*
G01X512950Y-221250D02*
Y-233750D01*
X519150D01*
G01X537590D02*
Y-221250D01*
G01X544110D02*
Y-233750D01*
G01Y-227500D02*
X537590D01*
G01X553250Y-233750D02*
X552010Y-233540D01*
X550930Y-232710D01*
X549990Y-231460D01*
X549370Y-230000D01*
X549060Y-228330D01*
Y-226670D01*
X549370Y-225000D01*
X549990Y-223540D01*
X550930Y-222290D01*
X552010Y-221460D01*
X553250Y-221250D01*
X554490Y-221460D01*
X555570Y-222290D01*
X556510Y-223540D01*
X557130Y-225000D01*
X557440Y-226670D01*
Y-228330D01*
X557130Y-230000D01*
X556510Y-231460D01*
X555570Y-232710D01*
X554490Y-233540D01*
X553250Y-233750D01*
G01X562550Y-221250D02*
Y-233750D01*
X568750D01*
G01X581150D02*
X574950D01*
Y-221250D01*
X581150D01*
G01X578670Y-227290D02*
X574950D01*
G01X587190Y-232080D02*
X588440Y-233130D01*
X589830Y-233750D01*
X591070D01*
X592310Y-233130D01*
X593240Y-232080D01*
X593710Y-230620D01*
X593400Y-229170D01*
X592620Y-227920D01*
X591220Y-227080D01*
X589370Y-226670D01*
X588280Y-225830D01*
X587810Y-224380D01*
X588130Y-222920D01*
X588900Y-221880D01*
X589980Y-221250D01*
X591070D01*
X592160Y-221670D01*
X593090Y-222710D01*
G01X602850Y-234170D02*
X602540Y-233960D01*
Y-233540D01*
X602850Y-233330D01*
X603160Y-233540D01*
Y-233960D01*
X602850Y-234170D01*
G01Y-228540D02*
X602540Y-228330D01*
Y-227920D01*
X602850Y-227710D01*
X603160Y-227920D01*
Y-228330D01*
X602850Y-228540D01*
G01X492900Y-65000D02*
Y-215000D01*
G01X522350Y-208750D02*
Y-196250D01*
X526070D01*
X527310Y-196880D01*
X528240Y-198330D01*
X528550Y-200000D01*
X528240Y-201670D01*
X527460Y-202920D01*
X526070Y-203540D01*
X522350D01*
G01X534750Y-196250D02*
Y-208750D01*
X540950D01*
G01X546370D02*
X550250Y-196250D01*
X554130Y-208750D01*
G01X552730Y-204380D02*
X547770D01*
G01X562650Y-196250D02*
Y-208750D01*
G01X559090Y-196250D02*
X566210D01*
G01X578150Y-208750D02*
X571950D01*
Y-196250D01*
X578150D01*
G01X575670Y-202290D02*
X571950D01*
G01X584040Y-208750D02*
Y-196250D01*
X587140D01*
X588380Y-196880D01*
X589310Y-197710D01*
X590090Y-198960D01*
X590710Y-200420D01*
X590860Y-202500D01*
X590710Y-204580D01*
X590090Y-206040D01*
X589310Y-207290D01*
X588380Y-208130D01*
X587140Y-208750D01*
X584040D01*
G01X522350Y-183750D02*
Y-171250D01*
X526070D01*
X527310Y-171880D01*
X528240Y-173330D01*
X528550Y-175000D01*
X528240Y-176670D01*
X527460Y-177920D01*
X526070Y-178540D01*
X522350D01*
G01X534750Y-171250D02*
Y-183750D01*
X540950D01*
G01X546370D02*
X550250Y-171250D01*
X554130Y-183750D01*
G01X552730Y-179380D02*
X547770D01*
G01X562650Y-171250D02*
Y-183750D01*
G01X559090Y-171250D02*
X566210D01*
G01X578150Y-183750D02*
X571950D01*
Y-171250D01*
X578150D01*
G01X575670Y-177290D02*
X571950D01*
G01X584040Y-183750D02*
Y-171250D01*
X587140D01*
X588380Y-171880D01*
X589310Y-172710D01*
X590090Y-173960D01*
X590710Y-175420D01*
X590860Y-177500D01*
X590710Y-179580D01*
X590090Y-181040D01*
X589310Y-182290D01*
X588380Y-183130D01*
X587140Y-183750D01*
X584040D01*
G01X522350Y-158750D02*
Y-146250D01*
X526070D01*
X527310Y-146880D01*
X528240Y-148330D01*
X528550Y-150000D01*
X528240Y-151670D01*
X527460Y-152920D01*
X526070Y-153540D01*
X522350D01*
G01X534750Y-146250D02*
Y-158750D01*
X540950D01*
G01X546370D02*
X550250Y-146250D01*
X554130Y-158750D01*
G01X552730Y-154380D02*
X547770D01*
G01X562650Y-146250D02*
Y-158750D01*
G01X559090Y-146250D02*
X566210D01*
G01X578150Y-158750D02*
X571950D01*
Y-146250D01*
X578150D01*
G01X575670Y-152290D02*
X571950D01*
G01X584040Y-158750D02*
Y-146250D01*
X587140D01*
X588380Y-146880D01*
X589310Y-147710D01*
X590090Y-148960D01*
X590710Y-150420D01*
X590860Y-152500D01*
X590710Y-154580D01*
X590090Y-156040D01*
X589310Y-157290D01*
X588380Y-158130D01*
X587140Y-158750D01*
X584040D01*
G01X522350Y-133750D02*
Y-121250D01*
X526070D01*
X527310Y-121880D01*
X528240Y-123330D01*
X528550Y-125000D01*
X528240Y-126670D01*
X527460Y-127920D01*
X526070Y-128540D01*
X522350D01*
G01X534750Y-121250D02*
Y-133750D01*
X540950D01*
G01X546370D02*
X550250Y-121250D01*
X554130Y-133750D01*
G01X552730Y-129380D02*
X547770D01*
G01X562650Y-121250D02*
Y-133750D01*
G01X559090Y-121250D02*
X566210D01*
G01X578150Y-133750D02*
X571950D01*
Y-121250D01*
X578150D01*
G01X575670Y-127290D02*
X571950D01*
G01X584040Y-133750D02*
Y-121250D01*
X587140D01*
X588380Y-121880D01*
X589310Y-122710D01*
X590090Y-123960D01*
X590710Y-125420D01*
X590860Y-127500D01*
X590710Y-129580D01*
X590090Y-131040D01*
X589310Y-132290D01*
X588380Y-133130D01*
X587140Y-133750D01*
X584040D01*
G01X522350Y-108750D02*
Y-96250D01*
X526070D01*
X527310Y-96880D01*
X528240Y-98330D01*
X528550Y-100000D01*
X528240Y-101670D01*
X527460Y-102920D01*
X526070Y-103540D01*
X522350D01*
G01X534750Y-96250D02*
Y-108750D01*
X540950D01*
G01X546370D02*
X550250Y-96250D01*
X554130Y-108750D01*
G01X552730Y-104380D02*
X547770D01*
G01X562650Y-96250D02*
Y-108750D01*
G01X559090Y-96250D02*
X566210D01*
G01X578150Y-108750D02*
X571950D01*
Y-96250D01*
X578150D01*
G01X575670Y-102290D02*
X571950D01*
G01X584040Y-108750D02*
Y-96250D01*
X587140D01*
X588380Y-96880D01*
X589310Y-97710D01*
X590090Y-98960D01*
X590710Y-100420D01*
X590860Y-102500D01*
X590710Y-104580D01*
X590090Y-106040D01*
X589310Y-107290D01*
X588380Y-108130D01*
X587140Y-108750D01*
X584040D01*
G01X522350Y-83750D02*
Y-71250D01*
X526070D01*
X527310Y-71880D01*
X528240Y-73330D01*
X528550Y-75000D01*
X528240Y-76670D01*
X527460Y-77920D01*
X526070Y-78540D01*
X522350D01*
G01X534750Y-71250D02*
Y-83750D01*
X540950D01*
G01X546370D02*
X550250Y-71250D01*
X554130Y-83750D01*
G01X552730Y-79380D02*
X547770D01*
G01X562650Y-71250D02*
Y-83750D01*
G01X559090Y-71250D02*
X566210D01*
G01X578150Y-83750D02*
X571950D01*
Y-71250D01*
X578150D01*
G01X575670Y-77290D02*
X571950D01*
G01X584040Y-83750D02*
Y-71250D01*
X587140D01*
X588380Y-71880D01*
X589310Y-72710D01*
X590090Y-73960D01*
X590710Y-75420D01*
X590860Y-77500D01*
X590710Y-79580D01*
X590090Y-81040D01*
X589310Y-82290D01*
X588380Y-83130D01*
X587140Y-83750D01*
X584040D01*
G01X620000Y-65000D02*
Y-215000D01*
G01X640150Y-233750D02*
Y-221250D01*
X638290Y-223750D01*
G01Y-233750D02*
X642010D01*
G01X649140Y-231250D02*
X650070Y-232710D01*
X651310Y-233540D01*
X652710Y-233750D01*
X653950Y-233540D01*
X655190Y-232500D01*
X655960Y-231250D01*
X656110Y-230000D01*
X655810Y-228540D01*
X654720Y-227500D01*
X653630Y-227080D01*
X652240D01*
G01X653630D02*
X654560Y-226460D01*
X655340Y-225420D01*
X655650Y-224170D01*
X655340Y-222920D01*
X654560Y-221880D01*
X653170Y-221250D01*
X651780Y-221460D01*
X650380Y-222290D01*
G01X664640Y-233750D02*
X664950Y-231040D01*
X665420Y-228750D01*
X666030Y-226670D01*
X666810Y-224380D01*
X668050Y-221250D01*
X661850D01*
G01X677350D02*
X676110Y-221670D01*
X675180Y-222710D01*
X674560Y-223960D01*
X674090Y-225630D01*
X673940Y-227500D01*
X674090Y-229380D01*
X674560Y-231040D01*
X675180Y-232290D01*
X676110Y-233330D01*
X677350Y-233750D01*
X678590Y-233330D01*
X679520Y-232290D01*
X680140Y-231040D01*
X680610Y-229380D01*
X680760Y-227500D01*
X680610Y-225630D01*
X680140Y-223960D01*
X679520Y-222710D01*
X678590Y-221670D01*
X677350Y-221250D01*
G01X649600Y-203540D02*
X650690Y-202080D01*
X651620Y-201250D01*
X652860Y-200830D01*
X653950Y-201250D01*
X654720Y-202080D01*
X655340Y-203330D01*
X655500Y-204790D01*
X655340Y-206040D01*
X654720Y-207290D01*
X653790Y-208330D01*
X652710Y-208750D01*
X651470Y-208330D01*
X650380Y-207080D01*
X649760Y-205210D01*
X649600Y-203130D01*
X649910Y-200420D01*
X650380Y-198960D01*
X651150Y-197500D01*
X652240Y-196460D01*
X653320Y-196250D01*
X654410Y-196670D01*
X655190Y-197710D01*
G01X666810Y-208750D02*
Y-196250D01*
X661070Y-205210D01*
X668830D01*
G01X652550Y-183750D02*
Y-171250D01*
X650690Y-173750D01*
G01Y-183750D02*
X654410D01*
G01X662000Y-178540D02*
X663090Y-177080D01*
X664020Y-176250D01*
X665260Y-175830D01*
X666350Y-176250D01*
X667120Y-177080D01*
X667740Y-178330D01*
X667900Y-179790D01*
X667740Y-181040D01*
X667120Y-182290D01*
X666190Y-183330D01*
X665110Y-183750D01*
X663870Y-183330D01*
X662780Y-182080D01*
X662160Y-180210D01*
X662000Y-178130D01*
X662310Y-175420D01*
X662780Y-173960D01*
X663550Y-172500D01*
X664640Y-171460D01*
X665720Y-171250D01*
X666810Y-171670D01*
X667590Y-172710D01*
G01X649600Y-123330D02*
X650540Y-122080D01*
X651620Y-121460D01*
X652860Y-121250D01*
X654410Y-121670D01*
X655500Y-122710D01*
X655810Y-123960D01*
X655650Y-125210D01*
X655030Y-126250D01*
X651930Y-128330D01*
X650540Y-129790D01*
X649600Y-131880D01*
X649290Y-133750D01*
X655810D01*
G01X662000Y-123330D02*
X662940Y-122080D01*
X664020Y-121460D01*
X665260Y-121250D01*
X666810Y-121670D01*
X667900Y-122710D01*
X668210Y-123960D01*
X668050Y-125210D01*
X667430Y-126250D01*
X664330Y-128330D01*
X662940Y-129790D01*
X662000Y-131880D01*
X661690Y-133750D01*
X668210D01*
G01X640150Y-108750D02*
Y-96250D01*
X638290Y-98750D01*
G01Y-108750D02*
X642010D01*
G01X649600Y-98330D02*
X650540Y-97080D01*
X651620Y-96460D01*
X652860Y-96250D01*
X654410Y-96670D01*
X655500Y-97710D01*
X655810Y-98960D01*
X655650Y-100210D01*
X655030Y-101250D01*
X651930Y-103330D01*
X650540Y-104790D01*
X649600Y-106880D01*
X649290Y-108750D01*
X655810D01*
G01X662000Y-103540D02*
X663090Y-102080D01*
X664020Y-101250D01*
X665260Y-100830D01*
X666350Y-101250D01*
X667120Y-102080D01*
X667740Y-103330D01*
X667900Y-104790D01*
X667740Y-106040D01*
X667120Y-107290D01*
X666190Y-108330D01*
X665110Y-108750D01*
X663870Y-108330D01*
X662780Y-107080D01*
X662160Y-105210D01*
X662000Y-103130D01*
X662310Y-100420D01*
X662780Y-98960D01*
X663550Y-97500D01*
X664640Y-96460D01*
X665720Y-96250D01*
X666810Y-96670D01*
X667590Y-97710D01*
G01X674400Y-103540D02*
X675490Y-102080D01*
X676420Y-101250D01*
X677660Y-100830D01*
X678750Y-101250D01*
X679520Y-102080D01*
X680140Y-103330D01*
X680300Y-104790D01*
X680140Y-106040D01*
X679520Y-107290D01*
X678590Y-108330D01*
X677510Y-108750D01*
X676270Y-108330D01*
X675180Y-107080D01*
X674560Y-105210D01*
X674400Y-103130D01*
X674710Y-100420D01*
X675180Y-98960D01*
X675950Y-97500D01*
X677040Y-96460D01*
X678120Y-96250D01*
X679210Y-96670D01*
X679990Y-97710D01*
G01X646350Y-83750D02*
X645110Y-83540D01*
X644030Y-82710D01*
X643090Y-81460D01*
X642470Y-80000D01*
X642160Y-78330D01*
Y-76670D01*
X642470Y-75000D01*
X643090Y-73540D01*
X644030Y-72290D01*
X645110Y-71460D01*
X646350Y-71250D01*
X647590Y-71460D01*
X648670Y-72290D01*
X649610Y-73540D01*
X650230Y-75000D01*
X650540Y-76670D01*
Y-78330D01*
X650230Y-80000D01*
X649610Y-81460D01*
X648670Y-82710D01*
X647590Y-83540D01*
X646350Y-83750D01*
G01X647590Y-80420D02*
X649450Y-83750D01*
G01X658750Y-71250D02*
Y-83750D01*
G01X655190Y-71250D02*
X662310D01*
G01X671150Y-83750D02*
Y-78130D01*
X668050Y-71250D01*
G01X674250D02*
X671150Y-78130D01*
G01X655800Y-148330D02*
X656740Y-147080D01*
X657820Y-146460D01*
X659060Y-146250D01*
X660610Y-146670D01*
X661700Y-147710D01*
X662010Y-148960D01*
X661850Y-150210D01*
X661230Y-151250D01*
X658130Y-153330D01*
X656740Y-154790D01*
X655800Y-156880D01*
X655490Y-158750D01*
X662010D01*
M02*
