G04 ================== begin FILE IDENTIFICATION RECORD ==================*
G04 Layout Name:  PMOD2BNCSIMPLE_v1_06_62mil.brd*
G04 Film Name:    Drill_3-4*
G04 File Format:  Gerber RS274X*
G04 File Origin:  Cadence Allegro 23.1-P001*
G04 Origin Date:  Tue Nov 28 22:05:12 2023*
G04 *
G04 Layer:  MANUFACTURING/NCLEGEND-3-4*
G04 Layer:  BOARD GEOMETRY/OUTLINE*
G04 Layer:  BOARD GEOMETRY/DESIGN_OUTLINE*
G04 Layer:  BOARD GEOMETRY/CUTOUT*
G04 *
G04 Offset:    (0.0000 0.0000)*
G04 Mirror:    No*
G04 Mode:      Positive*
G04 Rotation:  0*
G04 FullContactRelief:  No*
G04 UndefLineWidth:     0.0050*
G04 ================== end FILE IDENTIFICATION RECORD ====================*
%FSLAX55Y55*MOIN*%
%IR0*IPPOS*OFA0.00000B0.00000*MIA0B0*SFA1.00000B1.00000*%
%AMMACRO10*
1,1,.005,.014,.014*
20,1,.005,.014,.014,.014,-.014,0.0*
1,1,.005,.014,-.014*
20,1,.005,.014,-.014,-.014,-.014,0.0*
1,1,.005,-.014,-.014*
20,1,.005,-.014,-.014,-.014,.014,0.0*
1,1,.005,-.014,.014*
20,1,.005,-.014,.014,.014,.014,0.0*
1,1,.005,.014,.014*
%
%ADD10MACRO10*%
%ADD11C,.005*%
G75*
%LPD*%
G75*
G54D10*
X47450Y-480000D03*
X57500Y27150D03*
X75000Y44650D03*
X85000D03*
X95000D03*
X150000D03*
X165000D03*
X185000D03*
X175000D03*
G54D11*
G01X2500Y-492500D02*
Y-392500D01*
X700000D01*
Y-492500D01*
X2500D01*
G01X13500Y-461250D02*
Y-448750D01*
X19400D01*
G01X17220Y-454790D02*
X13500D01*
G01X26990Y-448750D02*
X30710D01*
G01X28850D02*
Y-461250D01*
G01X26990D02*
X30710D01*
G01X42180Y-455000D02*
X45280D01*
Y-458750D01*
X44350Y-460000D01*
X43260Y-460830D01*
X41720Y-461250D01*
X40170Y-460830D01*
X39080Y-460000D01*
X38150Y-458750D01*
X37530Y-457290D01*
X37220Y-455630D01*
Y-454170D01*
X37530Y-452920D01*
X38150Y-451460D01*
X39080Y-450210D01*
X40010Y-449380D01*
X41250Y-448750D01*
X42330D01*
X43570Y-449170D01*
X44510Y-450000D01*
G01X50240Y-448750D02*
Y-457710D01*
X50860Y-459580D01*
X52100Y-460830D01*
X53650Y-461250D01*
X55200Y-460830D01*
X56440Y-459580D01*
X57060Y-457710D01*
Y-448750D01*
G01X62950Y-461250D02*
Y-448750D01*
X66820D01*
X68060Y-449380D01*
X68840Y-450210D01*
X69150Y-451880D01*
X68840Y-453540D01*
X67910Y-454580D01*
X66820Y-455210D01*
X62950D01*
G01X66820D02*
X69150Y-461250D01*
G01X81550D02*
X75350D01*
Y-448750D01*
X81550D01*
G01X79070Y-454790D02*
X75350D01*
G01X2500Y-467500D02*
X700000D01*
G01X2500Y-442500D02*
X700000D01*
G01X2500Y-417500D02*
X700000D01*
G01X0Y0D02*
Y250000D01*
X270000D01*
Y0D01*
X0D01*
G01X2000Y2000D02*
Y248000D01*
X268000D01*
Y2000D01*
X2000D01*
G01X0Y0D02*
Y250000D01*
X270000D01*
Y0D01*
X0D01*
G01X92400Y-442500D02*
Y-492500D01*
G01X115800Y-461250D02*
Y-448750D01*
X121700D01*
G01X119520Y-454790D02*
X115800D01*
G01X129290Y-448750D02*
X133010D01*
G01X131150D02*
Y-461250D01*
G01X129290D02*
X133010D01*
G01X139990D02*
Y-448750D01*
X147110Y-461250D01*
Y-448750D01*
G01X154090D02*
X157810D01*
G01X155950D02*
Y-461250D01*
G01X154090D02*
X157810D01*
G01X165090Y-459580D02*
X166340Y-460630D01*
X167730Y-461250D01*
X168970D01*
X170210Y-460630D01*
X171140Y-459580D01*
X171610Y-458120D01*
X171300Y-456670D01*
X170520Y-455420D01*
X169120Y-454580D01*
X167270Y-454170D01*
X166180Y-453330D01*
X165710Y-451880D01*
X166030Y-450420D01*
X166800Y-449380D01*
X167880Y-448750D01*
X168970D01*
X170060Y-449170D01*
X170990Y-450210D01*
G01X177490Y-461250D02*
Y-448750D01*
G01X184010D02*
Y-461250D01*
G01Y-455000D02*
X177490D01*
G01X196250Y-461250D02*
X190050D01*
Y-448750D01*
X196250D01*
G01X193770Y-454790D02*
X190050D01*
G01X202140Y-461250D02*
Y-448750D01*
X205240D01*
X206480Y-449380D01*
X207410Y-450210D01*
X208190Y-451460D01*
X208810Y-452920D01*
X208960Y-455000D01*
X208810Y-457080D01*
X208190Y-458540D01*
X207410Y-459790D01*
X206480Y-460630D01*
X205240Y-461250D01*
X202140D01*
G01X213300Y-465420D02*
X222600D01*
G01X227090Y-459580D02*
X228340Y-460630D01*
X229730Y-461250D01*
X230970D01*
X232210Y-460630D01*
X233140Y-459580D01*
X233610Y-458120D01*
X233300Y-456670D01*
X232520Y-455420D01*
X231120Y-454580D01*
X229270Y-454170D01*
X228180Y-453330D01*
X227710Y-451880D01*
X228030Y-450420D01*
X228800Y-449380D01*
X229880Y-448750D01*
X230970D01*
X232060Y-449170D01*
X232990Y-450210D01*
G01X240890Y-448750D02*
X244610D01*
G01X242750D02*
Y-461250D01*
G01X240890D02*
X244610D01*
G01X252200Y-448750D02*
X258100D01*
X252200Y-461250D01*
X258100D01*
G01X270650D02*
X264450D01*
Y-448750D01*
X270650D01*
G01X268170Y-454790D02*
X264450D01*
G01X168350Y-473750D02*
X167110Y-474170D01*
X166180Y-475210D01*
X165560Y-476460D01*
X165090Y-478130D01*
X164940Y-480000D01*
X165090Y-481880D01*
X165560Y-483540D01*
X166180Y-484790D01*
X167110Y-485830D01*
X168350Y-486250D01*
X169590Y-485830D01*
X170520Y-484790D01*
X171140Y-483540D01*
X171610Y-481880D01*
X171760Y-480000D01*
X171610Y-478130D01*
X171140Y-476460D01*
X170520Y-475210D01*
X169590Y-474170D01*
X168350Y-473750D01*
G01X180750Y-486670D02*
X180440Y-486460D01*
Y-486040D01*
X180750Y-485830D01*
X181060Y-486040D01*
Y-486460D01*
X180750Y-486670D01*
G01X193150Y-473750D02*
X191910Y-474170D01*
X190980Y-475210D01*
X190360Y-476460D01*
X189890Y-478130D01*
X189740Y-480000D01*
X189890Y-481880D01*
X190360Y-483540D01*
X190980Y-484790D01*
X191910Y-485830D01*
X193150Y-486250D01*
X194390Y-485830D01*
X195320Y-484790D01*
X195940Y-483540D01*
X196410Y-481880D01*
X196560Y-480000D01*
X196410Y-478130D01*
X195940Y-476460D01*
X195320Y-475210D01*
X194390Y-474170D01*
X193150Y-473750D01*
G01X202600Y-475830D02*
X203540Y-474580D01*
X204620Y-473960D01*
X205860Y-473750D01*
X207410Y-474170D01*
X208500Y-475210D01*
X208810Y-476460D01*
X208650Y-477710D01*
X208030Y-478750D01*
X204930Y-480830D01*
X203540Y-482290D01*
X202600Y-484380D01*
X202290Y-486250D01*
X208810D01*
G01X217950D02*
X219030Y-486040D01*
X220270Y-485420D01*
X221050Y-484380D01*
X221360Y-482920D01*
X221050Y-481460D01*
X220120Y-480210D01*
X218720Y-479580D01*
X217180D01*
X216240Y-479170D01*
X215470Y-478130D01*
X215160Y-476670D01*
X215630Y-475210D01*
X216710Y-474170D01*
X217950Y-473750D01*
X219190Y-474170D01*
X220270Y-475210D01*
X220740Y-476670D01*
X220430Y-478130D01*
X219660Y-479170D01*
X218720Y-479580D01*
X217180D01*
X215780Y-480210D01*
X214850Y-481460D01*
X214540Y-482920D01*
X214850Y-484380D01*
X215630Y-485420D01*
X216870Y-486040D01*
X217950Y-486250D01*
G01X186640Y-411250D02*
Y-398750D01*
X189740D01*
X190980Y-399380D01*
X191910Y-400210D01*
X192690Y-401460D01*
X193310Y-402920D01*
X193460Y-405000D01*
X193310Y-407080D01*
X192690Y-408540D01*
X191910Y-409790D01*
X190980Y-410630D01*
X189740Y-411250D01*
X186640D01*
G01X199350D02*
Y-398750D01*
X203220D01*
X204460Y-399380D01*
X205240Y-400210D01*
X205550Y-401880D01*
X205240Y-403540D01*
X204310Y-404580D01*
X203220Y-405210D01*
X199350D01*
G01X203220D02*
X205550Y-411250D01*
G01X212990Y-398750D02*
X216710D01*
G01X214850D02*
Y-411250D01*
G01X212990D02*
X216710D01*
G01X224150Y-398750D02*
Y-411250D01*
X230350D01*
G01X236550Y-398750D02*
Y-411250D01*
X242750D01*
G01X267860Y-399790D02*
X266930Y-399170D01*
X265850Y-398750D01*
X264610D01*
X263210Y-399380D01*
X262130Y-400420D01*
X261350Y-401670D01*
X260730Y-403750D01*
X260570Y-405630D01*
X260890Y-407500D01*
X261350Y-408750D01*
X262280Y-410000D01*
X263370Y-410830D01*
X264450Y-411250D01*
X265530D01*
X266620Y-410830D01*
X267550Y-410210D01*
X268330Y-409380D01*
G01X273590Y-411250D02*
Y-398750D01*
G01X280110D02*
Y-411250D01*
G01Y-405000D02*
X273590D01*
G01X285370Y-411250D02*
X289250Y-398750D01*
X293130Y-411250D01*
G01X291730Y-406880D02*
X286770D01*
G01X298550Y-411250D02*
Y-398750D01*
X302420D01*
X303660Y-399380D01*
X304440Y-400210D01*
X304750Y-401880D01*
X304440Y-403540D01*
X303510Y-404580D01*
X302420Y-405210D01*
X298550D01*
G01X302420D02*
X304750Y-411250D01*
G01X314050Y-398750D02*
Y-411250D01*
G01X310490Y-398750D02*
X317610D01*
G01X326450Y-411670D02*
X326140Y-411460D01*
Y-411040D01*
X326450Y-410830D01*
X326760Y-411040D01*
Y-411460D01*
X326450Y-411670D01*
G01Y-406040D02*
X326140Y-405830D01*
Y-405420D01*
X326450Y-405210D01*
X326760Y-405420D01*
Y-405830D01*
X326450Y-406040D01*
G01X352180Y-405000D02*
X355280D01*
Y-408750D01*
X354350Y-410000D01*
X353260Y-410830D01*
X351720Y-411250D01*
X350170Y-410830D01*
X349080Y-410000D01*
X348150Y-408750D01*
X347530Y-407290D01*
X347220Y-405630D01*
Y-404170D01*
X347530Y-402920D01*
X348150Y-401460D01*
X349080Y-400210D01*
X350010Y-399380D01*
X351250Y-398750D01*
X352330D01*
X353570Y-399170D01*
X354510Y-400000D01*
G01X360090Y-411250D02*
Y-398750D01*
X367210Y-411250D01*
Y-398750D01*
G01X372640Y-411250D02*
Y-398750D01*
X375740D01*
X376980Y-399380D01*
X377910Y-400210D01*
X378690Y-401460D01*
X379310Y-402920D01*
X379460Y-405000D01*
X379310Y-407080D01*
X378690Y-408540D01*
X377910Y-409790D01*
X376980Y-410630D01*
X375740Y-411250D01*
X372640D01*
G01X385500Y-400830D02*
X386440Y-399580D01*
X387520Y-398960D01*
X388760Y-398750D01*
X390310Y-399170D01*
X391400Y-400210D01*
X391710Y-401460D01*
X391550Y-402710D01*
X390930Y-403750D01*
X387830Y-405830D01*
X386440Y-407290D01*
X385500Y-409380D01*
X385190Y-411250D01*
X391710D01*
G01X413250Y-398750D02*
Y-411250D01*
G01X411080Y-402920D02*
X415420D01*
G01X425650Y-411250D02*
X424720Y-411040D01*
X423790Y-410210D01*
X423170Y-408750D01*
X422860Y-407080D01*
X423170Y-405420D01*
X423790Y-403960D01*
X424720Y-403130D01*
X425650Y-402920D01*
X426580Y-403130D01*
X427510Y-403960D01*
X428130Y-405420D01*
X428290Y-407080D01*
X428130Y-408750D01*
X427510Y-410210D01*
X426580Y-411040D01*
X425650Y-411250D01*
G01X451690Y-404580D02*
X452310Y-403960D01*
X452770Y-402920D01*
X453090Y-401460D01*
X452770Y-400210D01*
X452160Y-399380D01*
X451070Y-398750D01*
X446890D01*
Y-411250D01*
X452000D01*
X453090Y-410420D01*
X453710Y-409170D01*
X454010Y-407710D01*
X453710Y-406250D01*
X452770Y-405000D01*
X451690Y-404580D01*
X446890D01*
G01X462850Y-411250D02*
X461610Y-411040D01*
X460530Y-410210D01*
X459590Y-408960D01*
X458970Y-407500D01*
X458660Y-405830D01*
Y-404170D01*
X458970Y-402500D01*
X459590Y-401040D01*
X460530Y-399790D01*
X461610Y-398960D01*
X462850Y-398750D01*
X464090Y-398960D01*
X465170Y-399790D01*
X466110Y-401040D01*
X466730Y-402500D01*
X467040Y-404170D01*
Y-405830D01*
X466730Y-407500D01*
X466110Y-408960D01*
X465170Y-410210D01*
X464090Y-411040D01*
X462850Y-411250D01*
G01X475250Y-398750D02*
Y-411250D01*
G01X471690Y-398750D02*
X478810D01*
G01X487650D02*
Y-411250D01*
G01X484090Y-398750D02*
X491210D01*
G01X500050Y-411250D02*
X498810Y-411040D01*
X497730Y-410210D01*
X496790Y-408960D01*
X496170Y-407500D01*
X495860Y-405830D01*
Y-404170D01*
X496170Y-402500D01*
X496790Y-401040D01*
X497730Y-399790D01*
X498810Y-398960D01*
X500050Y-398750D01*
X501290Y-398960D01*
X502370Y-399790D01*
X503310Y-401040D01*
X503930Y-402500D01*
X504240Y-404170D01*
Y-405830D01*
X503930Y-407500D01*
X503310Y-408960D01*
X502370Y-410210D01*
X501290Y-411040D01*
X500050Y-411250D01*
G01X508420D02*
Y-398750D01*
X512450Y-409170D01*
X516480Y-398750D01*
Y-411250D01*
G01X210970Y-436250D02*
X214850Y-423750D01*
X218730Y-436250D01*
G01X217330Y-431880D02*
X212370D01*
G01X224150Y-423750D02*
Y-436250D01*
X230350D01*
G01X236550Y-423750D02*
Y-436250D01*
X242750D01*
G01X261040Y-423750D02*
Y-432710D01*
X261660Y-434580D01*
X262900Y-435830D01*
X264450Y-436250D01*
X266000Y-435830D01*
X267240Y-434580D01*
X267860Y-432710D01*
Y-423750D01*
G01X273290Y-436250D02*
Y-423750D01*
X280410Y-436250D01*
Y-423750D01*
G01X287390D02*
X291110D01*
G01X289250D02*
Y-436250D01*
G01X287390D02*
X291110D01*
G01X301650Y-423750D02*
Y-436250D01*
G01X298090Y-423750D02*
X305210D01*
G01X310790Y-434580D02*
X312040Y-435630D01*
X313430Y-436250D01*
X314670D01*
X315910Y-435630D01*
X316840Y-434580D01*
X317310Y-433120D01*
X317000Y-431670D01*
X316220Y-430420D01*
X314820Y-429580D01*
X312970Y-429170D01*
X311880Y-428330D01*
X311410Y-426880D01*
X311730Y-425420D01*
X312500Y-424380D01*
X313580Y-423750D01*
X314670D01*
X315760Y-424170D01*
X316690Y-425210D01*
G01X334970Y-436250D02*
X338850Y-423750D01*
X342730Y-436250D01*
G01X341330Y-431880D02*
X336370D01*
G01X348150Y-436250D02*
Y-423750D01*
X352020D01*
X353260Y-424380D01*
X354040Y-425210D01*
X354350Y-426880D01*
X354040Y-428540D01*
X353110Y-429580D01*
X352020Y-430210D01*
X348150D01*
G01X352020D02*
X354350Y-436250D01*
G01X366750D02*
X360550D01*
Y-423750D01*
X366750D01*
G01X364270Y-429790D02*
X360550D01*
G01X386590Y-423750D02*
X390310D01*
G01X388450D02*
Y-436250D01*
G01X386590D02*
X390310D01*
G01X397290D02*
Y-423750D01*
X404410Y-436250D01*
Y-423750D01*
G01X423790D02*
X427510D01*
G01X425650D02*
Y-436250D01*
G01X423790D02*
X427510D01*
G01X434490D02*
Y-423750D01*
X441610Y-436250D01*
Y-423750D01*
G01X453860Y-424790D02*
X452930Y-424170D01*
X451850Y-423750D01*
X450610D01*
X449210Y-424380D01*
X448130Y-425420D01*
X447350Y-426670D01*
X446730Y-428750D01*
X446570Y-430630D01*
X446890Y-432500D01*
X447350Y-433750D01*
X448280Y-435000D01*
X449370Y-435830D01*
X450450Y-436250D01*
X451530D01*
X452620Y-435830D01*
X453550Y-435210D01*
X454330Y-434380D01*
G01X459590Y-436250D02*
Y-423750D01*
G01X466110D02*
Y-436250D01*
G01Y-430000D02*
X459590D01*
G01X478350Y-436250D02*
X472150D01*
Y-423750D01*
X478350D01*
G01X475870Y-429790D02*
X472150D01*
G01X484390Y-434580D02*
X485640Y-435630D01*
X487030Y-436250D01*
X488270D01*
X489510Y-435630D01*
X490440Y-434580D01*
X490910Y-433120D01*
X490600Y-431670D01*
X489820Y-430420D01*
X488420Y-429580D01*
X486570Y-429170D01*
X485480Y-428330D01*
X485010Y-426880D01*
X485330Y-425420D01*
X486100Y-424380D01*
X487180Y-423750D01*
X488270D01*
X489360Y-424170D01*
X490290Y-425210D01*
G01X293900Y-442500D02*
Y-492500D01*
G01X323040Y-461250D02*
Y-448750D01*
X326140D01*
X327380Y-449380D01*
X328310Y-450210D01*
X329090Y-451460D01*
X329710Y-452920D01*
X329860Y-455000D01*
X329710Y-457080D01*
X329090Y-458540D01*
X328310Y-459790D01*
X327380Y-460630D01*
X326140Y-461250D01*
X323040D01*
G01X335750D02*
Y-448750D01*
X339620D01*
X340860Y-449380D01*
X341640Y-450210D01*
X341950Y-451880D01*
X341640Y-453540D01*
X340710Y-454580D01*
X339620Y-455210D01*
X335750D01*
G01X339620D02*
X341950Y-461250D01*
G01X349390Y-448750D02*
X353110D01*
G01X351250D02*
Y-461250D01*
G01X349390D02*
X353110D01*
G01X360550Y-448750D02*
Y-461250D01*
X366750D01*
G01X372950Y-448750D02*
Y-461250D01*
X379150D01*
G01X391550D02*
X385350D01*
Y-448750D01*
X391550D01*
G01X389070Y-454790D02*
X385350D01*
G01X397440Y-461250D02*
Y-448750D01*
X400540D01*
X401780Y-449380D01*
X402710Y-450210D01*
X403490Y-451460D01*
X404110Y-452920D01*
X404260Y-455000D01*
X404110Y-457080D01*
X403490Y-458540D01*
X402710Y-459790D01*
X401780Y-460630D01*
X400540Y-461250D01*
X397440D01*
G01X408600Y-465420D02*
X417900D01*
G01X422390Y-459580D02*
X423640Y-460630D01*
X425030Y-461250D01*
X426270D01*
X427510Y-460630D01*
X428440Y-459580D01*
X428910Y-458120D01*
X428600Y-456670D01*
X427820Y-455420D01*
X426420Y-454580D01*
X424570Y-454170D01*
X423480Y-453330D01*
X423010Y-451880D01*
X423330Y-450420D01*
X424100Y-449380D01*
X425180Y-448750D01*
X426270D01*
X427360Y-449170D01*
X428290Y-450210D01*
G01X436190Y-448750D02*
X439910D01*
G01X438050D02*
Y-461250D01*
G01X436190D02*
X439910D01*
G01X447500Y-448750D02*
X453400D01*
X447500Y-461250D01*
X453400D01*
G01X465950D02*
X459750D01*
Y-448750D01*
X465950D01*
G01X463470Y-454790D02*
X459750D01*
G01X392640Y-482080D02*
X396660D01*
G01X468950Y-498750D02*
Y-511250D01*
G01X465390Y-498750D02*
X472510D01*
G01X481350Y-511250D02*
X480110Y-511040D01*
X479030Y-510210D01*
X478090Y-508960D01*
X477470Y-507500D01*
X477160Y-505830D01*
Y-504170D01*
X477470Y-502500D01*
X478090Y-501040D01*
X479030Y-499790D01*
X480110Y-498960D01*
X481350Y-498750D01*
X482590Y-498960D01*
X483670Y-499790D01*
X484610Y-501040D01*
X485230Y-502500D01*
X485540Y-504170D01*
Y-505830D01*
X485230Y-507500D01*
X484610Y-508960D01*
X483670Y-510210D01*
X482590Y-511040D01*
X481350Y-511250D01*
G01X493750Y-498750D02*
Y-511250D01*
G01X490190Y-498750D02*
X497310D01*
G01X502270Y-511250D02*
X506150Y-498750D01*
X510030Y-511250D01*
G01X508630Y-506880D02*
X503670D01*
G01X515450Y-498750D02*
Y-511250D01*
X521650D01*
G01X540090D02*
Y-498750D01*
G01X546610D02*
Y-511250D01*
G01Y-505000D02*
X540090D01*
G01X555750Y-511250D02*
X554510Y-511040D01*
X553430Y-510210D01*
X552490Y-508960D01*
X551870Y-507500D01*
X551560Y-505830D01*
Y-504170D01*
X551870Y-502500D01*
X552490Y-501040D01*
X553430Y-499790D01*
X554510Y-498960D01*
X555750Y-498750D01*
X556990Y-498960D01*
X558070Y-499790D01*
X559010Y-501040D01*
X559630Y-502500D01*
X559940Y-504170D01*
Y-505830D01*
X559630Y-507500D01*
X559010Y-508960D01*
X558070Y-510210D01*
X556990Y-511040D01*
X555750Y-511250D01*
G01X565050Y-498750D02*
Y-511250D01*
X571250D01*
G01X583650D02*
X577450D01*
Y-498750D01*
X583650D01*
G01X581170Y-504790D02*
X577450D01*
G01X589690Y-509580D02*
X590940Y-510630D01*
X592330Y-511250D01*
X593570D01*
X594810Y-510630D01*
X595740Y-509580D01*
X596210Y-508120D01*
X595900Y-506670D01*
X595120Y-505420D01*
X593720Y-504580D01*
X591870Y-504170D01*
X590780Y-503330D01*
X590310Y-501880D01*
X590630Y-500420D01*
X591400Y-499380D01*
X592480Y-498750D01*
X593570D01*
X594660Y-499170D01*
X595590Y-500210D01*
G01X605350Y-511670D02*
X605040Y-511460D01*
Y-511040D01*
X605350Y-510830D01*
X605660Y-511040D01*
Y-511460D01*
X605350Y-511670D01*
G01Y-506040D02*
X605040Y-505830D01*
Y-505420D01*
X605350Y-505210D01*
X605660Y-505420D01*
Y-505830D01*
X605350Y-506040D01*
G01X495400Y-442500D02*
Y-492500D01*
G01X524850Y-486250D02*
Y-473750D01*
X528570D01*
X529810Y-474380D01*
X530740Y-475830D01*
X531050Y-477500D01*
X530740Y-479170D01*
X529960Y-480420D01*
X528570Y-481040D01*
X524850D01*
G01X537250Y-473750D02*
Y-486250D01*
X543450D01*
G01X548870D02*
X552750Y-473750D01*
X556630Y-486250D01*
G01X555230Y-481880D02*
X550270D01*
G01X565150Y-473750D02*
Y-486250D01*
G01X561590Y-473750D02*
X568710D01*
G01X580650Y-486250D02*
X574450D01*
Y-473750D01*
X580650D01*
G01X578170Y-479790D02*
X574450D01*
G01X586540Y-486250D02*
Y-473750D01*
X589640D01*
X590880Y-474380D01*
X591810Y-475210D01*
X592590Y-476460D01*
X593210Y-477920D01*
X593360Y-480000D01*
X593210Y-482080D01*
X592590Y-483540D01*
X591810Y-484790D01*
X590880Y-485630D01*
X589640Y-486250D01*
X586540D01*
G01X524850Y-461250D02*
Y-448750D01*
X528570D01*
X529810Y-449380D01*
X530740Y-450830D01*
X531050Y-452500D01*
X530740Y-454170D01*
X529960Y-455420D01*
X528570Y-456040D01*
X524850D01*
G01X537250Y-448750D02*
Y-461250D01*
X543450D01*
G01X548870D02*
X552750Y-448750D01*
X556630Y-461250D01*
G01X555230Y-456880D02*
X550270D01*
G01X565150Y-448750D02*
Y-461250D01*
G01X561590Y-448750D02*
X568710D01*
G01X580650Y-461250D02*
X574450D01*
Y-448750D01*
X580650D01*
G01X578170Y-454790D02*
X574450D01*
G01X586540Y-461250D02*
Y-448750D01*
X589640D01*
X590880Y-449380D01*
X591810Y-450210D01*
X592590Y-451460D01*
X593210Y-452920D01*
X593360Y-455000D01*
X593210Y-457080D01*
X592590Y-458540D01*
X591810Y-459790D01*
X590880Y-460630D01*
X589640Y-461250D01*
X586540D01*
G01X622500Y-442500D02*
Y-492500D01*
G01X648850Y-461250D02*
X647610Y-461040D01*
X646530Y-460210D01*
X645590Y-458960D01*
X644970Y-457500D01*
X644660Y-455830D01*
Y-454170D01*
X644970Y-452500D01*
X645590Y-451040D01*
X646530Y-449790D01*
X647610Y-448960D01*
X648850Y-448750D01*
X650090Y-448960D01*
X651170Y-449790D01*
X652110Y-451040D01*
X652730Y-452500D01*
X653040Y-454170D01*
Y-455830D01*
X652730Y-457500D01*
X652110Y-458960D01*
X651170Y-460210D01*
X650090Y-461040D01*
X648850Y-461250D01*
G01X650090Y-457920D02*
X651950Y-461250D01*
G01X661250Y-448750D02*
Y-461250D01*
G01X657690Y-448750D02*
X664810D01*
G01X673650Y-461250D02*
Y-455630D01*
X670550Y-448750D01*
G01X676750D02*
X673650Y-455630D01*
G01X661250Y-511250D02*
X662330Y-511040D01*
X663570Y-510420D01*
X664350Y-509380D01*
X664660Y-507920D01*
X664350Y-506460D01*
X663420Y-505210D01*
X662020Y-504580D01*
X660480D01*
X659540Y-504170D01*
X658770Y-503130D01*
X658460Y-501670D01*
X658930Y-500210D01*
X660010Y-499170D01*
X661250Y-498750D01*
X662490Y-499170D01*
X663570Y-500210D01*
X664040Y-501670D01*
X663730Y-503130D01*
X662960Y-504170D01*
X662020Y-504580D01*
X660480D01*
X659080Y-505210D01*
X658150Y-506460D01*
X657840Y-507920D01*
X658150Y-509380D01*
X658930Y-510420D01*
X660170Y-511040D01*
X661250Y-511250D01*
G01Y-486250D02*
X662330Y-486040D01*
X663570Y-485420D01*
X664350Y-484380D01*
X664660Y-482920D01*
X664350Y-481460D01*
X663420Y-480210D01*
X662020Y-479580D01*
X660480D01*
X659540Y-479170D01*
X658770Y-478130D01*
X658460Y-476670D01*
X658930Y-475210D01*
X660010Y-474170D01*
X661250Y-473750D01*
X662490Y-474170D01*
X663570Y-475210D01*
X664040Y-476670D01*
X663730Y-478130D01*
X662960Y-479170D01*
X662020Y-479580D01*
X660480D01*
X659080Y-480210D01*
X658150Y-481460D01*
X657840Y-482920D01*
X658150Y-484380D01*
X658930Y-485420D01*
X660170Y-486040D01*
X661250Y-486250D01*
M02*
