G04 ================== begin FILE IDENTIFICATION RECORD ==================*
G04 Layout Name:  PMOD2BNCSIMPLE_v1_06_62mil.brd*
G04 Film Name:    Drill_1-2*
G04 File Format:  Gerber RS274X*
G04 File Origin:  Cadence Allegro 23.1-P001*
G04 Origin Date:  Tue Nov 28 22:05:12 2023*
G04 *
G04 Layer:  MANUFACTURING/NCLEGEND-1-2*
G04 Layer:  BOARD GEOMETRY/OUTLINE*
G04 Layer:  BOARD GEOMETRY/DESIGN_OUTLINE*
G04 Layer:  BOARD GEOMETRY/CUTOUT*
G04 *
G04 Offset:    (0.0000 0.0000)*
G04 Mirror:    No*
G04 Mode:      Positive*
G04 Rotation:  0*
G04 FullContactRelief:  No*
G04 UndefLineWidth:     0.0050*
G04 ================== end FILE IDENTIFICATION RECORD ====================*
%FSLAX55Y55*MOIN*%
%IR0*IPPOS*OFA0.00000B0.00000*MIA0B0*SFA1.00000B1.00000*%
%AMMACRO10*
1,1,.005,.014,.014*
20,1,.005,.014,.014,.014,-.014,0.0*
1,1,.005,.014,-.014*
20,1,.005,.014,-.014,-.014,-.014,0.0*
1,1,.005,-.014,-.014*
20,1,.005,-.014,-.014,-.014,.014,0.0*
1,1,.005,-.014,.014*
20,1,.005,-.014,.014,.014,.014,0.0*
1,1,.005,.014,.014*
%
%ADD10MACRO10*%
%ADD11C,.005*%
G75*
%LPD*%
G75*
G54D10*
X47450Y-342500D03*
X60000Y44650D03*
X80000D03*
X90000D03*
X100000D03*
X155000D03*
X170000D03*
X190000D03*
X180000D03*
G54D11*
G01X2500Y-355000D02*
Y-255000D01*
X700000D01*
Y-355000D01*
X2500D01*
G01Y-330000D02*
X700000D01*
G01X13500Y-323750D02*
Y-311250D01*
X19400D01*
G01X17220Y-317290D02*
X13500D01*
G01X26990Y-311250D02*
X30710D01*
G01X28850D02*
Y-323750D01*
G01X26990D02*
X30710D01*
G01X42180Y-317500D02*
X45280D01*
Y-321250D01*
X44350Y-322500D01*
X43260Y-323330D01*
X41720Y-323750D01*
X40170Y-323330D01*
X39080Y-322500D01*
X38150Y-321250D01*
X37530Y-319790D01*
X37220Y-318130D01*
Y-316670D01*
X37530Y-315420D01*
X38150Y-313960D01*
X39080Y-312710D01*
X40010Y-311880D01*
X41250Y-311250D01*
X42330D01*
X43570Y-311670D01*
X44510Y-312500D01*
G01X50240Y-311250D02*
Y-320210D01*
X50860Y-322080D01*
X52100Y-323330D01*
X53650Y-323750D01*
X55200Y-323330D01*
X56440Y-322080D01*
X57060Y-320210D01*
Y-311250D01*
G01X62950Y-323750D02*
Y-311250D01*
X66820D01*
X68060Y-311880D01*
X68840Y-312710D01*
X69150Y-314380D01*
X68840Y-316040D01*
X67910Y-317080D01*
X66820Y-317710D01*
X62950D01*
G01X66820D02*
X69150Y-323750D01*
G01X81550D02*
X75350D01*
Y-311250D01*
X81550D01*
G01X79070Y-317290D02*
X75350D01*
G01X2500Y-305000D02*
X700000D01*
G01X2500Y-280000D02*
X700000D01*
G01X0Y0D02*
Y250000D01*
X270000D01*
Y0D01*
X0D01*
G01X2000Y2000D02*
Y248000D01*
X268000D01*
Y2000D01*
X2000D01*
G01X0Y0D02*
Y250000D01*
X270000D01*
Y0D01*
X0D01*
G01X92400Y-305000D02*
Y-355000D01*
G01X115800Y-323750D02*
Y-311250D01*
X121700D01*
G01X119520Y-317290D02*
X115800D01*
G01X129290Y-311250D02*
X133010D01*
G01X131150D02*
Y-323750D01*
G01X129290D02*
X133010D01*
G01X139990D02*
Y-311250D01*
X147110Y-323750D01*
Y-311250D01*
G01X154090D02*
X157810D01*
G01X155950D02*
Y-323750D01*
G01X154090D02*
X157810D01*
G01X165090Y-322080D02*
X166340Y-323130D01*
X167730Y-323750D01*
X168970D01*
X170210Y-323130D01*
X171140Y-322080D01*
X171610Y-320620D01*
X171300Y-319170D01*
X170520Y-317920D01*
X169120Y-317080D01*
X167270Y-316670D01*
X166180Y-315830D01*
X165710Y-314380D01*
X166030Y-312920D01*
X166800Y-311880D01*
X167880Y-311250D01*
X168970D01*
X170060Y-311670D01*
X170990Y-312710D01*
G01X177490Y-323750D02*
Y-311250D01*
G01X184010D02*
Y-323750D01*
G01Y-317500D02*
X177490D01*
G01X196250Y-323750D02*
X190050D01*
Y-311250D01*
X196250D01*
G01X193770Y-317290D02*
X190050D01*
G01X202140Y-323750D02*
Y-311250D01*
X205240D01*
X206480Y-311880D01*
X207410Y-312710D01*
X208190Y-313960D01*
X208810Y-315420D01*
X208960Y-317500D01*
X208810Y-319580D01*
X208190Y-321040D01*
X207410Y-322290D01*
X206480Y-323130D01*
X205240Y-323750D01*
X202140D01*
G01X213300Y-327920D02*
X222600D01*
G01X227090Y-322080D02*
X228340Y-323130D01*
X229730Y-323750D01*
X230970D01*
X232210Y-323130D01*
X233140Y-322080D01*
X233610Y-320620D01*
X233300Y-319170D01*
X232520Y-317920D01*
X231120Y-317080D01*
X229270Y-316670D01*
X228180Y-315830D01*
X227710Y-314380D01*
X228030Y-312920D01*
X228800Y-311880D01*
X229880Y-311250D01*
X230970D01*
X232060Y-311670D01*
X232990Y-312710D01*
G01X240890Y-311250D02*
X244610D01*
G01X242750D02*
Y-323750D01*
G01X240890D02*
X244610D01*
G01X252200Y-311250D02*
X258100D01*
X252200Y-323750D01*
X258100D01*
G01X270650D02*
X264450D01*
Y-311250D01*
X270650D01*
G01X268170Y-317290D02*
X264450D01*
G01X168350Y-336250D02*
X167110Y-336670D01*
X166180Y-337710D01*
X165560Y-338960D01*
X165090Y-340630D01*
X164940Y-342500D01*
X165090Y-344380D01*
X165560Y-346040D01*
X166180Y-347290D01*
X167110Y-348330D01*
X168350Y-348750D01*
X169590Y-348330D01*
X170520Y-347290D01*
X171140Y-346040D01*
X171610Y-344380D01*
X171760Y-342500D01*
X171610Y-340630D01*
X171140Y-338960D01*
X170520Y-337710D01*
X169590Y-336670D01*
X168350Y-336250D01*
G01X180750Y-349170D02*
X180440Y-348960D01*
Y-348540D01*
X180750Y-348330D01*
X181060Y-348540D01*
Y-348960D01*
X180750Y-349170D01*
G01X193150Y-336250D02*
X191910Y-336670D01*
X190980Y-337710D01*
X190360Y-338960D01*
X189890Y-340630D01*
X189740Y-342500D01*
X189890Y-344380D01*
X190360Y-346040D01*
X190980Y-347290D01*
X191910Y-348330D01*
X193150Y-348750D01*
X194390Y-348330D01*
X195320Y-347290D01*
X195940Y-346040D01*
X196410Y-344380D01*
X196560Y-342500D01*
X196410Y-340630D01*
X195940Y-338960D01*
X195320Y-337710D01*
X194390Y-336670D01*
X193150Y-336250D01*
G01X202600Y-338330D02*
X203540Y-337080D01*
X204620Y-336460D01*
X205860Y-336250D01*
X207410Y-336670D01*
X208500Y-337710D01*
X208810Y-338960D01*
X208650Y-340210D01*
X208030Y-341250D01*
X204930Y-343330D01*
X203540Y-344790D01*
X202600Y-346880D01*
X202290Y-348750D01*
X208810D01*
G01X217950D02*
X219030Y-348540D01*
X220270Y-347920D01*
X221050Y-346880D01*
X221360Y-345420D01*
X221050Y-343960D01*
X220120Y-342710D01*
X218720Y-342080D01*
X217180D01*
X216240Y-341670D01*
X215470Y-340630D01*
X215160Y-339170D01*
X215630Y-337710D01*
X216710Y-336670D01*
X217950Y-336250D01*
X219190Y-336670D01*
X220270Y-337710D01*
X220740Y-339170D01*
X220430Y-340630D01*
X219660Y-341670D01*
X218720Y-342080D01*
X217180D01*
X215780Y-342710D01*
X214850Y-343960D01*
X214540Y-345420D01*
X214850Y-346880D01*
X215630Y-347920D01*
X216870Y-348540D01*
X217950Y-348750D01*
G01X205240Y-273750D02*
Y-261250D01*
X208340D01*
X209580Y-261880D01*
X210510Y-262710D01*
X211290Y-263960D01*
X211910Y-265420D01*
X212060Y-267500D01*
X211910Y-269580D01*
X211290Y-271040D01*
X210510Y-272290D01*
X209580Y-273130D01*
X208340Y-273750D01*
X205240D01*
G01X217950D02*
Y-261250D01*
X221820D01*
X223060Y-261880D01*
X223840Y-262710D01*
X224150Y-264380D01*
X223840Y-266040D01*
X222910Y-267080D01*
X221820Y-267710D01*
X217950D01*
G01X221820D02*
X224150Y-273750D01*
G01X231590Y-261250D02*
X235310D01*
G01X233450D02*
Y-273750D01*
G01X231590D02*
X235310D01*
G01X242750Y-261250D02*
Y-273750D01*
X248950D01*
G01X255150Y-261250D02*
Y-273750D01*
X261350D01*
G01X286460Y-262290D02*
X285530Y-261670D01*
X284450Y-261250D01*
X283210D01*
X281810Y-261880D01*
X280730Y-262920D01*
X279950Y-264170D01*
X279330Y-266250D01*
X279170Y-268130D01*
X279490Y-270000D01*
X279950Y-271250D01*
X280880Y-272500D01*
X281970Y-273330D01*
X283050Y-273750D01*
X284130D01*
X285220Y-273330D01*
X286150Y-272710D01*
X286930Y-271880D01*
G01X292190Y-273750D02*
Y-261250D01*
G01X298710D02*
Y-273750D01*
G01Y-267500D02*
X292190D01*
G01X303970Y-273750D02*
X307850Y-261250D01*
X311730Y-273750D01*
G01X310330Y-269380D02*
X305370D01*
G01X317150Y-273750D02*
Y-261250D01*
X321020D01*
X322260Y-261880D01*
X323040Y-262710D01*
X323350Y-264380D01*
X323040Y-266040D01*
X322110Y-267080D01*
X321020Y-267710D01*
X317150D01*
G01X321020D02*
X323350Y-273750D01*
G01X332650Y-261250D02*
Y-273750D01*
G01X329090Y-261250D02*
X336210D01*
G01X345050Y-274170D02*
X344740Y-273960D01*
Y-273540D01*
X345050Y-273330D01*
X345360Y-273540D01*
Y-273960D01*
X345050Y-274170D01*
G01Y-268540D02*
X344740Y-268330D01*
Y-267920D01*
X345050Y-267710D01*
X345360Y-267920D01*
Y-268330D01*
X345050Y-268540D01*
G01X369850Y-261250D02*
Y-273750D01*
G01X366290Y-261250D02*
X373410D01*
G01X382250Y-273750D02*
X381010Y-273540D01*
X379930Y-272710D01*
X378990Y-271460D01*
X378370Y-270000D01*
X378060Y-268330D01*
Y-266670D01*
X378370Y-265000D01*
X378990Y-263540D01*
X379930Y-262290D01*
X381010Y-261460D01*
X382250Y-261250D01*
X383490Y-261460D01*
X384570Y-262290D01*
X385510Y-263540D01*
X386130Y-265000D01*
X386440Y-266670D01*
Y-268330D01*
X386130Y-270000D01*
X385510Y-271460D01*
X384570Y-272710D01*
X383490Y-273540D01*
X382250Y-273750D01*
G01X391550D02*
Y-261250D01*
X395270D01*
X396510Y-261880D01*
X397440Y-263330D01*
X397750Y-265000D01*
X397440Y-266670D01*
X396660Y-267920D01*
X395270Y-268540D01*
X391550D01*
G01X419450Y-261250D02*
Y-273750D01*
G01X417280Y-265420D02*
X421620D01*
G01X431850Y-273750D02*
X430920Y-273540D01*
X429990Y-272710D01*
X429370Y-271250D01*
X429060Y-269580D01*
X429370Y-267920D01*
X429990Y-266460D01*
X430920Y-265630D01*
X431850Y-265420D01*
X432780Y-265630D01*
X433710Y-266460D01*
X434330Y-267920D01*
X434490Y-269580D01*
X434330Y-271250D01*
X433710Y-272710D01*
X432780Y-273540D01*
X431850Y-273750D01*
G01X457580Y-267500D02*
X460680D01*
Y-271250D01*
X459750Y-272500D01*
X458660Y-273330D01*
X457120Y-273750D01*
X455570Y-273330D01*
X454480Y-272500D01*
X453550Y-271250D01*
X452930Y-269790D01*
X452620Y-268130D01*
Y-266670D01*
X452930Y-265420D01*
X453550Y-263960D01*
X454480Y-262710D01*
X455410Y-261880D01*
X456650Y-261250D01*
X457730D01*
X458970Y-261670D01*
X459910Y-262500D01*
G01X465490Y-273750D02*
Y-261250D01*
X472610Y-273750D01*
Y-261250D01*
G01X478040Y-273750D02*
Y-261250D01*
X481140D01*
X482380Y-261880D01*
X483310Y-262710D01*
X484090Y-263960D01*
X484710Y-265420D01*
X484860Y-267500D01*
X484710Y-269580D01*
X484090Y-271040D01*
X483310Y-272290D01*
X482380Y-273130D01*
X481140Y-273750D01*
X478040D01*
G01X493850D02*
Y-261250D01*
X491990Y-263750D01*
G01Y-273750D02*
X495710D01*
G01X210970Y-298750D02*
X214850Y-286250D01*
X218730Y-298750D01*
G01X217330Y-294380D02*
X212370D01*
G01X224150Y-286250D02*
Y-298750D01*
X230350D01*
G01X236550Y-286250D02*
Y-298750D01*
X242750D01*
G01X261040Y-286250D02*
Y-295210D01*
X261660Y-297080D01*
X262900Y-298330D01*
X264450Y-298750D01*
X266000Y-298330D01*
X267240Y-297080D01*
X267860Y-295210D01*
Y-286250D01*
G01X273290Y-298750D02*
Y-286250D01*
X280410Y-298750D01*
Y-286250D01*
G01X287390D02*
X291110D01*
G01X289250D02*
Y-298750D01*
G01X287390D02*
X291110D01*
G01X301650Y-286250D02*
Y-298750D01*
G01X298090Y-286250D02*
X305210D01*
G01X310790Y-297080D02*
X312040Y-298130D01*
X313430Y-298750D01*
X314670D01*
X315910Y-298130D01*
X316840Y-297080D01*
X317310Y-295620D01*
X317000Y-294170D01*
X316220Y-292920D01*
X314820Y-292080D01*
X312970Y-291670D01*
X311880Y-290830D01*
X311410Y-289380D01*
X311730Y-287920D01*
X312500Y-286880D01*
X313580Y-286250D01*
X314670D01*
X315760Y-286670D01*
X316690Y-287710D01*
G01X334970Y-298750D02*
X338850Y-286250D01*
X342730Y-298750D01*
G01X341330Y-294380D02*
X336370D01*
G01X348150Y-298750D02*
Y-286250D01*
X352020D01*
X353260Y-286880D01*
X354040Y-287710D01*
X354350Y-289380D01*
X354040Y-291040D01*
X353110Y-292080D01*
X352020Y-292710D01*
X348150D01*
G01X352020D02*
X354350Y-298750D01*
G01X366750D02*
X360550D01*
Y-286250D01*
X366750D01*
G01X364270Y-292290D02*
X360550D01*
G01X386590Y-286250D02*
X390310D01*
G01X388450D02*
Y-298750D01*
G01X386590D02*
X390310D01*
G01X397290D02*
Y-286250D01*
X404410Y-298750D01*
Y-286250D01*
G01X423790D02*
X427510D01*
G01X425650D02*
Y-298750D01*
G01X423790D02*
X427510D01*
G01X434490D02*
Y-286250D01*
X441610Y-298750D01*
Y-286250D01*
G01X453860Y-287290D02*
X452930Y-286670D01*
X451850Y-286250D01*
X450610D01*
X449210Y-286880D01*
X448130Y-287920D01*
X447350Y-289170D01*
X446730Y-291250D01*
X446570Y-293130D01*
X446890Y-295000D01*
X447350Y-296250D01*
X448280Y-297500D01*
X449370Y-298330D01*
X450450Y-298750D01*
X451530D01*
X452620Y-298330D01*
X453550Y-297710D01*
X454330Y-296880D01*
G01X459590Y-298750D02*
Y-286250D01*
G01X466110D02*
Y-298750D01*
G01Y-292500D02*
X459590D01*
G01X478350Y-298750D02*
X472150D01*
Y-286250D01*
X478350D01*
G01X475870Y-292290D02*
X472150D01*
G01X484390Y-297080D02*
X485640Y-298130D01*
X487030Y-298750D01*
X488270D01*
X489510Y-298130D01*
X490440Y-297080D01*
X490910Y-295620D01*
X490600Y-294170D01*
X489820Y-292920D01*
X488420Y-292080D01*
X486570Y-291670D01*
X485480Y-290830D01*
X485010Y-289380D01*
X485330Y-287920D01*
X486100Y-286880D01*
X487180Y-286250D01*
X488270D01*
X489360Y-286670D01*
X490290Y-287710D01*
G01X293900Y-305000D02*
Y-355000D01*
G01X323040Y-323750D02*
Y-311250D01*
X326140D01*
X327380Y-311880D01*
X328310Y-312710D01*
X329090Y-313960D01*
X329710Y-315420D01*
X329860Y-317500D01*
X329710Y-319580D01*
X329090Y-321040D01*
X328310Y-322290D01*
X327380Y-323130D01*
X326140Y-323750D01*
X323040D01*
G01X335750D02*
Y-311250D01*
X339620D01*
X340860Y-311880D01*
X341640Y-312710D01*
X341950Y-314380D01*
X341640Y-316040D01*
X340710Y-317080D01*
X339620Y-317710D01*
X335750D01*
G01X339620D02*
X341950Y-323750D01*
G01X349390Y-311250D02*
X353110D01*
G01X351250D02*
Y-323750D01*
G01X349390D02*
X353110D01*
G01X360550Y-311250D02*
Y-323750D01*
X366750D01*
G01X372950Y-311250D02*
Y-323750D01*
X379150D01*
G01X391550D02*
X385350D01*
Y-311250D01*
X391550D01*
G01X389070Y-317290D02*
X385350D01*
G01X397440Y-323750D02*
Y-311250D01*
X400540D01*
X401780Y-311880D01*
X402710Y-312710D01*
X403490Y-313960D01*
X404110Y-315420D01*
X404260Y-317500D01*
X404110Y-319580D01*
X403490Y-321040D01*
X402710Y-322290D01*
X401780Y-323130D01*
X400540Y-323750D01*
X397440D01*
G01X408600Y-327920D02*
X417900D01*
G01X422390Y-322080D02*
X423640Y-323130D01*
X425030Y-323750D01*
X426270D01*
X427510Y-323130D01*
X428440Y-322080D01*
X428910Y-320620D01*
X428600Y-319170D01*
X427820Y-317920D01*
X426420Y-317080D01*
X424570Y-316670D01*
X423480Y-315830D01*
X423010Y-314380D01*
X423330Y-312920D01*
X424100Y-311880D01*
X425180Y-311250D01*
X426270D01*
X427360Y-311670D01*
X428290Y-312710D01*
G01X436190Y-311250D02*
X439910D01*
G01X438050D02*
Y-323750D01*
G01X436190D02*
X439910D01*
G01X447500Y-311250D02*
X453400D01*
X447500Y-323750D01*
X453400D01*
G01X465950D02*
X459750D01*
Y-311250D01*
X465950D01*
G01X463470Y-317290D02*
X459750D01*
G01X392640Y-344580D02*
X396660D01*
G01X468950Y-361250D02*
Y-373750D01*
G01X465390Y-361250D02*
X472510D01*
G01X481350Y-373750D02*
X480110Y-373540D01*
X479030Y-372710D01*
X478090Y-371460D01*
X477470Y-370000D01*
X477160Y-368330D01*
Y-366670D01*
X477470Y-365000D01*
X478090Y-363540D01*
X479030Y-362290D01*
X480110Y-361460D01*
X481350Y-361250D01*
X482590Y-361460D01*
X483670Y-362290D01*
X484610Y-363540D01*
X485230Y-365000D01*
X485540Y-366670D01*
Y-368330D01*
X485230Y-370000D01*
X484610Y-371460D01*
X483670Y-372710D01*
X482590Y-373540D01*
X481350Y-373750D01*
G01X493750Y-361250D02*
Y-373750D01*
G01X490190Y-361250D02*
X497310D01*
G01X502270Y-373750D02*
X506150Y-361250D01*
X510030Y-373750D01*
G01X508630Y-369380D02*
X503670D01*
G01X515450Y-361250D02*
Y-373750D01*
X521650D01*
G01X540090D02*
Y-361250D01*
G01X546610D02*
Y-373750D01*
G01Y-367500D02*
X540090D01*
G01X555750Y-373750D02*
X554510Y-373540D01*
X553430Y-372710D01*
X552490Y-371460D01*
X551870Y-370000D01*
X551560Y-368330D01*
Y-366670D01*
X551870Y-365000D01*
X552490Y-363540D01*
X553430Y-362290D01*
X554510Y-361460D01*
X555750Y-361250D01*
X556990Y-361460D01*
X558070Y-362290D01*
X559010Y-363540D01*
X559630Y-365000D01*
X559940Y-366670D01*
Y-368330D01*
X559630Y-370000D01*
X559010Y-371460D01*
X558070Y-372710D01*
X556990Y-373540D01*
X555750Y-373750D01*
G01X565050Y-361250D02*
Y-373750D01*
X571250D01*
G01X583650D02*
X577450D01*
Y-361250D01*
X583650D01*
G01X581170Y-367290D02*
X577450D01*
G01X589690Y-372080D02*
X590940Y-373130D01*
X592330Y-373750D01*
X593570D01*
X594810Y-373130D01*
X595740Y-372080D01*
X596210Y-370620D01*
X595900Y-369170D01*
X595120Y-367920D01*
X593720Y-367080D01*
X591870Y-366670D01*
X590780Y-365830D01*
X590310Y-364380D01*
X590630Y-362920D01*
X591400Y-361880D01*
X592480Y-361250D01*
X593570D01*
X594660Y-361670D01*
X595590Y-362710D01*
G01X605350Y-374170D02*
X605040Y-373960D01*
Y-373540D01*
X605350Y-373330D01*
X605660Y-373540D01*
Y-373960D01*
X605350Y-374170D01*
G01Y-368540D02*
X605040Y-368330D01*
Y-367920D01*
X605350Y-367710D01*
X605660Y-367920D01*
Y-368330D01*
X605350Y-368540D01*
G01X495400Y-305000D02*
Y-355000D01*
G01X524850Y-348750D02*
Y-336250D01*
X528570D01*
X529810Y-336880D01*
X530740Y-338330D01*
X531050Y-340000D01*
X530740Y-341670D01*
X529960Y-342920D01*
X528570Y-343540D01*
X524850D01*
G01X537250Y-336250D02*
Y-348750D01*
X543450D01*
G01X548870D02*
X552750Y-336250D01*
X556630Y-348750D01*
G01X555230Y-344380D02*
X550270D01*
G01X565150Y-336250D02*
Y-348750D01*
G01X561590Y-336250D02*
X568710D01*
G01X580650Y-348750D02*
X574450D01*
Y-336250D01*
X580650D01*
G01X578170Y-342290D02*
X574450D01*
G01X586540Y-348750D02*
Y-336250D01*
X589640D01*
X590880Y-336880D01*
X591810Y-337710D01*
X592590Y-338960D01*
X593210Y-340420D01*
X593360Y-342500D01*
X593210Y-344580D01*
X592590Y-346040D01*
X591810Y-347290D01*
X590880Y-348130D01*
X589640Y-348750D01*
X586540D01*
G01X524850Y-323750D02*
Y-311250D01*
X528570D01*
X529810Y-311880D01*
X530740Y-313330D01*
X531050Y-315000D01*
X530740Y-316670D01*
X529960Y-317920D01*
X528570Y-318540D01*
X524850D01*
G01X537250Y-311250D02*
Y-323750D01*
X543450D01*
G01X548870D02*
X552750Y-311250D01*
X556630Y-323750D01*
G01X555230Y-319380D02*
X550270D01*
G01X565150Y-311250D02*
Y-323750D01*
G01X561590Y-311250D02*
X568710D01*
G01X580650Y-323750D02*
X574450D01*
Y-311250D01*
X580650D01*
G01X578170Y-317290D02*
X574450D01*
G01X586540Y-323750D02*
Y-311250D01*
X589640D01*
X590880Y-311880D01*
X591810Y-312710D01*
X592590Y-313960D01*
X593210Y-315420D01*
X593360Y-317500D01*
X593210Y-319580D01*
X592590Y-321040D01*
X591810Y-322290D01*
X590880Y-323130D01*
X589640Y-323750D01*
X586540D01*
G01X622500Y-305000D02*
Y-355000D01*
G01X648850Y-323750D02*
X647610Y-323540D01*
X646530Y-322710D01*
X645590Y-321460D01*
X644970Y-320000D01*
X644660Y-318330D01*
Y-316670D01*
X644970Y-315000D01*
X645590Y-313540D01*
X646530Y-312290D01*
X647610Y-311460D01*
X648850Y-311250D01*
X650090Y-311460D01*
X651170Y-312290D01*
X652110Y-313540D01*
X652730Y-315000D01*
X653040Y-316670D01*
Y-318330D01*
X652730Y-320000D01*
X652110Y-321460D01*
X651170Y-322710D01*
X650090Y-323540D01*
X648850Y-323750D01*
G01X650090Y-320420D02*
X651950Y-323750D01*
G01X661250Y-311250D02*
Y-323750D01*
G01X657690Y-311250D02*
X664810D01*
G01X673650Y-323750D02*
Y-318130D01*
X670550Y-311250D01*
G01X676750D02*
X673650Y-318130D01*
G01X661250Y-373750D02*
X662330Y-373540D01*
X663570Y-372920D01*
X664350Y-371880D01*
X664660Y-370420D01*
X664350Y-368960D01*
X663420Y-367710D01*
X662020Y-367080D01*
X660480D01*
X659540Y-366670D01*
X658770Y-365630D01*
X658460Y-364170D01*
X658930Y-362710D01*
X660010Y-361670D01*
X661250Y-361250D01*
X662490Y-361670D01*
X663570Y-362710D01*
X664040Y-364170D01*
X663730Y-365630D01*
X662960Y-366670D01*
X662020Y-367080D01*
X660480D01*
X659080Y-367710D01*
X658150Y-368960D01*
X657840Y-370420D01*
X658150Y-371880D01*
X658930Y-372920D01*
X660170Y-373540D01*
X661250Y-373750D01*
G01Y-348750D02*
X662330Y-348540D01*
X663570Y-347920D01*
X664350Y-346880D01*
X664660Y-345420D01*
X664350Y-343960D01*
X663420Y-342710D01*
X662020Y-342080D01*
X660480D01*
X659540Y-341670D01*
X658770Y-340630D01*
X658460Y-339170D01*
X658930Y-337710D01*
X660010Y-336670D01*
X661250Y-336250D01*
X662490Y-336670D01*
X663570Y-337710D01*
X664040Y-339170D01*
X663730Y-340630D01*
X662960Y-341670D01*
X662020Y-342080D01*
X660480D01*
X659080Y-342710D01*
X658150Y-343960D01*
X657840Y-345420D01*
X658150Y-346880D01*
X658930Y-347920D01*
X660170Y-348540D01*
X661250Y-348750D01*
M02*
