G04 ================== begin FILE IDENTIFICATION RECORD ==================*
G04 Layout Name:  PMOD2BNCSIMPLE_v1_06_62mil_cheap.brd*
G04 Film Name:    Soldermask_Top*
G04 File Format:  Gerber RS274X*
G04 File Origin:  Cadence Allegro 23.1-P001*
G04 Origin Date:  Sun Dec  3 21:01:37 2023*
G04 *
G04 Layer:  VIA CLASS/SOLDERMASK_TOP*
G04 Layer:  PIN/SOLDERMASK_TOP*
G04 *
G04 Offset:    (0.0000 0.0000)*
G04 Mirror:    No*
G04 Mode:      Positive*
G04 Rotation:  0*
G04 FullContactRelief:  No*
G04 UndefLineWidth:     0.0000*
G04 ================== end FILE IDENTIFICATION RECORD ====================*
%FSLAX55Y55*MOIN*%
%IR0*IPPOS*OFA0.00000B0.00000*MIA0B0*SFA1.00000B1.00000*%
%ADD10C,.3*%
%ADD11C,.02*%
%ADD12R,.0512X.0453*%
%LPD*%
G75*
G54D10*
X-10000Y30000D03*
Y430000D03*
X280000Y30000D03*
Y430000D03*
G54D11*
X-12500Y72500D03*
X-17500Y82500D03*
Y77500D03*
X-15000Y105000D03*
X-24970Y100600D03*
X-23980Y110550D03*
X-15000Y125000D03*
X-15040Y115030D03*
X-24000Y119470D03*
X-15000Y145000D03*
X-24970Y129420D03*
X-16690Y135030D03*
X-24970Y140640D03*
X-23950Y150580D03*
X-14970Y154990D03*
X-17500Y177500D03*
X-12500Y172500D03*
X-17500Y182500D03*
X-14970Y197280D03*
Y207280D03*
Y217280D03*
Y227280D03*
Y237280D03*
Y247280D03*
X-14750Y257280D03*
X-17500Y277500D03*
Y282500D03*
X-12500Y272500D03*
X-14970Y300000D03*
Y310000D03*
X-14550Y329990D03*
X-14970Y320000D03*
X-17000Y378000D03*
Y382000D03*
X-12000Y387000D03*
Y373000D03*
X-9000Y61000D03*
X-7500Y72500D03*
X-2500Y77500D03*
Y82500D03*
X-5030Y98640D03*
X-7030Y108440D03*
X-5000Y115000D03*
X-7500Y122500D03*
X-7560Y127910D03*
X-2470Y121510D03*
X2590Y112880D03*
X-5030Y137580D03*
X-2470Y140070D03*
X1260Y130790D03*
X-8330Y162470D03*
X1670D03*
X-8510Y146960D03*
X-210Y152530D03*
X-2500Y177500D03*
X-7500Y172500D03*
X-2500Y182500D03*
X-5030Y195130D03*
Y205130D03*
Y215130D03*
Y225130D03*
Y235130D03*
Y245130D03*
X1700Y252530D03*
X-6200Y262470D03*
X3800D03*
X-2500Y282500D03*
Y277500D03*
X-7500Y272500D03*
X-5030Y300000D03*
Y310000D03*
X-1230Y327250D03*
X-5030Y320000D03*
X2090Y337970D03*
X-7480Y337060D03*
X-8000Y387000D03*
Y373000D03*
X23440Y5030D03*
X13610Y6860D03*
X22530Y17190D03*
X21970Y26860D03*
Y36860D03*
X19970Y56860D03*
Y46860D03*
X10030Y56200D03*
Y66200D03*
X20030Y70360D03*
X10030Y86200D03*
Y76200D03*
X20030Y80360D03*
X19000Y90990D03*
X10030Y106200D03*
Y96200D03*
X20030Y110360D03*
Y100360D03*
X11690Y122470D03*
X19000Y121000D03*
X10000Y133000D03*
X10030Y142470D03*
X20030Y140360D03*
X11670Y162470D03*
X9790Y152470D03*
X20030Y160360D03*
Y150360D03*
Y170360D03*
Y190360D03*
Y180360D03*
Y200360D03*
X19000Y210990D03*
X20030Y230360D03*
Y220360D03*
X19000Y240990D03*
X11700Y252530D03*
X17470Y260700D03*
X20030Y250360D03*
X17470Y270700D03*
X20030Y280360D03*
X7530Y271750D03*
Y281750D03*
X10050Y291430D03*
X19400Y294970D03*
X20000Y305000D03*
X7500D03*
X20000Y317500D03*
X7500D03*
X18740Y328030D03*
X8740D03*
X22090Y337970D03*
X12090D03*
X21000Y361000D03*
X19250Y371220D03*
X10000Y375030D03*
X19990Y384540D03*
X10000Y384970D03*
X21000Y391000D03*
Y421000D03*
Y451000D03*
X32080Y10060D03*
X32470Y20050D03*
Y30050D03*
X32860Y55120D03*
X29730Y44260D03*
X39000Y62500D03*
X25780Y62190D03*
X31290Y70740D03*
X29970Y90650D03*
Y80650D03*
X39970Y80680D03*
Y90680D03*
X29970Y100650D03*
X39970Y100680D03*
X29970Y120650D03*
Y110650D03*
X39970Y110680D03*
Y120680D03*
X29970Y140650D03*
Y130650D03*
X39970Y130680D03*
Y140680D03*
X29970Y160650D03*
Y150650D03*
X39970Y150680D03*
Y160680D03*
X29970Y170650D03*
X39970Y170680D03*
X29970Y190650D03*
Y180650D03*
X39970Y180680D03*
Y190680D03*
X29970Y210650D03*
Y200650D03*
X39970Y200680D03*
Y210680D03*
X29970Y230650D03*
Y220650D03*
X39970Y220680D03*
Y230680D03*
X29970Y240650D03*
X39970Y240680D03*
X29970Y260650D03*
Y250650D03*
X39970Y250680D03*
Y260680D03*
X29970Y280650D03*
Y270650D03*
X39970Y270680D03*
Y280680D03*
X28360Y290520D03*
X30030Y297300D03*
X39970Y290680D03*
Y300680D03*
X30030Y307300D03*
Y317300D03*
X39970Y310680D03*
X28320Y325160D03*
X39970Y320680D03*
X38900Y330630D03*
X40030Y339600D03*
Y349600D03*
X31830Y337700D03*
X33390Y357080D03*
X26320Y364150D03*
X41200Y363320D03*
X34130Y370400D03*
X40030Y371700D03*
X27060Y377470D03*
X57520Y22770D03*
X57500Y22820D03*
X42530Y23710D03*
X47770Y15200D03*
X57500Y12880D03*
X52500Y27500D03*
X55000Y32500D03*
X47500Y40000D03*
X41780Y33690D03*
X55040Y35030D03*
X54000Y47500D03*
X46500Y55000D03*
X55420Y57110D03*
X41710Y44970D03*
X42280Y71250D03*
X48350Y64180D03*
X54430Y68760D03*
X49970Y76400D03*
Y86400D03*
Y96400D03*
Y106400D03*
Y116400D03*
Y126400D03*
Y136400D03*
Y146400D03*
Y156400D03*
Y166400D03*
Y176400D03*
Y186400D03*
Y196400D03*
Y206400D03*
Y216400D03*
Y226400D03*
Y236400D03*
Y246400D03*
Y256400D03*
Y266400D03*
Y276400D03*
Y286400D03*
Y296400D03*
Y306400D03*
Y316400D03*
Y326400D03*
Y336400D03*
Y346400D03*
X55490Y364040D03*
X48270Y356250D03*
X56400Y380030D03*
X49970Y372370D03*
X41980Y381510D03*
X49050Y388580D03*
X51000Y421000D03*
Y451000D03*
X70000Y10000D03*
X62500D03*
X64970Y35350D03*
X75000Y52500D03*
X60000D03*
X75000Y50000D03*
X60000D03*
X68570Y54620D03*
X65000Y45000D03*
X61500Y61690D03*
X69970Y86990D03*
X70040Y76990D03*
X59970Y85090D03*
X74150Y106320D03*
X69970Y106990D03*
Y96990D03*
X59970Y105090D03*
Y95090D03*
X69970Y126990D03*
Y116990D03*
X59970Y125090D03*
Y115090D03*
X69970Y136990D03*
X59970Y145090D03*
Y135090D03*
X69970Y156990D03*
Y146990D03*
X59970Y155090D03*
X69970Y176990D03*
Y166990D03*
X59970Y175090D03*
Y165090D03*
X69970Y196990D03*
Y186990D03*
X59970Y195090D03*
Y185090D03*
X69970Y206990D03*
X59970Y205090D03*
X69970Y226990D03*
Y216990D03*
X59970Y225090D03*
Y215090D03*
X69970Y246990D03*
Y236990D03*
X59970Y245090D03*
Y235090D03*
X69970Y256990D03*
X59970Y265090D03*
Y255090D03*
X69970Y276990D03*
Y266990D03*
X59970Y275090D03*
X69970Y296990D03*
Y286990D03*
X59970Y295090D03*
Y285090D03*
X69970Y316990D03*
Y306990D03*
X59970Y315090D03*
Y305090D03*
X75920Y335030D03*
X69970Y326990D03*
X59970Y335090D03*
Y325090D03*
X75870Y344970D03*
X65870D03*
X59970Y345090D03*
Y355090D03*
X65940Y377030D03*
X68530Y388280D03*
X68800Y388230D03*
X58950Y389970D03*
X92500Y10000D03*
X85000D03*
X77500D03*
X80000Y50000D03*
X85000D03*
X90000D03*
Y52500D03*
X85000D03*
X80000D03*
X92500Y72500D03*
X87500D03*
X82500Y77500D03*
Y82500D03*
X87470Y107060D03*
X81220Y99250D03*
X90000Y113000D03*
X83000D03*
X90310Y122470D03*
X79000Y121000D03*
X89000Y133000D03*
Y140000D03*
X80000Y134000D03*
X87980Y152530D03*
X81850Y146380D03*
X91180Y149970D03*
X88370Y162470D03*
X78370D03*
X81000Y151000D03*
X92500Y172500D03*
X82500Y177500D03*
X87500Y172500D03*
X82500Y182500D03*
X85030Y197720D03*
X87800Y207320D03*
X81000Y211000D03*
Y241000D03*
X92500Y272500D03*
X82500Y277500D03*
Y282500D03*
X87500Y272500D03*
X85030Y300900D03*
Y310900D03*
Y320900D03*
Y330900D03*
X85870Y344970D03*
X92000Y372000D03*
X88000D03*
X92000Y388000D03*
X88000D03*
X81000Y421000D03*
Y451000D03*
X107500Y10000D03*
X100000D03*
X104970Y35550D03*
X95000Y52500D03*
Y50000D03*
X100000Y52500D03*
Y50000D03*
X105230Y49770D03*
X104460Y55030D03*
X95000Y55000D03*
X110000Y67500D03*
X97500Y82500D03*
Y77500D03*
X104980Y100030D03*
X94540Y99990D03*
X102500Y112500D03*
X99180Y117850D03*
X104000Y133000D03*
Y140000D03*
X96000D03*
Y133000D03*
X107530Y155500D03*
X97980Y152530D03*
X101180Y149970D03*
X110550Y146470D03*
X98370Y162470D03*
X97500Y177500D03*
Y182500D03*
X94870Y214400D03*
X96640Y202170D03*
X96630Y202100D03*
X103700Y209180D03*
X101940Y221470D03*
X107530Y229760D03*
X109000Y241000D03*
X107530Y249760D03*
Y259760D03*
X97500Y282500D03*
Y277500D03*
X107530Y279760D03*
X109000Y271000D03*
X109930Y289470D03*
X94970Y300000D03*
Y310000D03*
Y320000D03*
Y330000D03*
X94540Y339990D03*
X98000Y382000D03*
Y378000D03*
X122500Y17500D03*
Y10000D03*
X115000D03*
Y35000D03*
X122500Y32500D03*
Y25000D03*
X112310Y56840D03*
X112090Y42570D03*
X119160Y49640D03*
X125000Y67500D03*
X122470Y59080D03*
X112530Y76840D03*
Y86840D03*
X122530Y92300D03*
Y82300D03*
X112530Y96840D03*
X112470Y106660D03*
X122530Y102300D03*
X112470Y126660D03*
Y116660D03*
X122530Y122300D03*
Y112300D03*
X112470Y136660D03*
X122530Y142300D03*
Y132300D03*
Y162300D03*
Y152300D03*
X111000Y151000D03*
X117030Y167470D03*
X122530Y172300D03*
Y192300D03*
Y182300D03*
X111000Y181000D03*
X122530Y212300D03*
Y202300D03*
X111000Y211000D03*
X110780Y216250D03*
X117470Y223670D03*
X122530Y222300D03*
X117470Y233670D03*
Y243670D03*
X122530Y242300D03*
Y232300D03*
X117470Y253670D03*
Y263670D03*
X122530Y262300D03*
Y252300D03*
X120000Y282500D03*
X117470Y273670D03*
X122530Y272300D03*
X117500Y292500D03*
X127760Y291780D03*
X111000Y301000D03*
Y331000D03*
Y361000D03*
Y391000D03*
Y421000D03*
Y451000D03*
X144560Y36570D03*
X141000Y31000D03*
X145000Y25000D03*
X142470Y56080D03*
X137490Y43640D03*
X132530Y52320D03*
Y62320D03*
X130240Y73220D03*
X142470Y76760D03*
Y86760D03*
X132470Y92960D03*
Y82960D03*
X142470Y96760D03*
Y106760D03*
X132470Y102960D03*
X142470Y116760D03*
Y126760D03*
X132470Y122960D03*
Y112960D03*
X142470Y136760D03*
X132470Y142960D03*
Y132960D03*
X142470Y146760D03*
Y156760D03*
X132470Y152960D03*
X142470Y166760D03*
Y176760D03*
X132470Y172960D03*
Y162960D03*
X142470Y186760D03*
Y196760D03*
X132470Y192960D03*
Y182960D03*
X142470Y206760D03*
X132470Y212960D03*
Y202960D03*
X142470Y216760D03*
Y226760D03*
X132470Y222960D03*
X142470Y236760D03*
Y246760D03*
X132470Y242960D03*
Y232960D03*
X142470Y256760D03*
X132470Y262960D03*
Y252960D03*
X142470Y266760D03*
Y276760D03*
X132470Y282960D03*
Y272960D03*
X137540Y295730D03*
X142630Y286760D03*
X141000Y331000D03*
Y361000D03*
Y391000D03*
Y421000D03*
Y451000D03*
X147500Y17500D03*
X152500Y10000D03*
X160000D03*
X150000Y50000D03*
Y52500D03*
X155000Y50000D03*
Y52500D03*
X154200Y59600D03*
X159200Y58730D03*
X147010Y64990D03*
X152470Y73370D03*
Y83370D03*
Y93370D03*
X152530Y103370D03*
X160650Y97530D03*
X152470Y123370D03*
X152530D03*
Y113370D03*
X162470Y119240D03*
X152530Y133370D03*
X162470Y129240D03*
X146620Y148650D03*
X156370Y150900D03*
X155480Y185790D03*
X155000Y216000D03*
X162470Y247380D03*
X152530Y245350D03*
X154850Y235620D03*
X162470Y257380D03*
X152530Y265350D03*
Y255350D03*
X162470Y277380D03*
Y267380D03*
X152530Y275350D03*
X147390Y297470D03*
X157270Y295920D03*
X162470Y287380D03*
X152530Y285350D03*
X167500Y10000D03*
X175000D03*
X165000Y52500D03*
Y50000D03*
X170000Y52500D03*
Y50000D03*
X175000Y52500D03*
Y50000D03*
X177500Y72500D03*
X172500Y77500D03*
Y82500D03*
X170600Y98570D03*
X175030Y107530D03*
X179440Y98970D03*
X165030Y109570D03*
X171160Y117470D03*
X175000Y140000D03*
X172500Y130000D03*
X170000Y140000D03*
X165000Y145000D03*
X177500Y152500D03*
X163440Y157970D03*
X172370Y162470D03*
X171000Y151000D03*
X172500Y177500D03*
X177500Y172500D03*
X172500Y182500D03*
X175030Y210000D03*
Y200000D03*
X163140Y230030D03*
X173140Y229820D03*
X175030Y220000D03*
X179000Y238020D03*
X171000Y241000D03*
X172500Y277500D03*
Y282500D03*
X177500Y272500D03*
X172530Y312500D03*
Y302500D03*
X175500Y330500D03*
X172530Y322500D03*
X177500Y350000D03*
X175000Y360000D03*
X172000Y382000D03*
Y378000D03*
X178000Y388000D03*
X171000Y421000D03*
Y451000D03*
X195000Y5380D03*
X185850Y9420D03*
X182500Y10000D03*
X189960Y35030D03*
X185000Y50000D03*
X180000D03*
Y52500D03*
X185000D03*
X195530Y66380D03*
X182500Y72500D03*
X187500Y82500D03*
Y77500D03*
X185030Y107270D03*
X194970Y106780D03*
X191820Y97290D03*
X192500Y127500D03*
X182470Y124650D03*
X181160Y117470D03*
X191050Y115980D03*
X192500Y137500D03*
X182500Y132500D03*
Y142500D03*
X192500Y152500D03*
X185000D03*
X182370Y162470D03*
X192370D03*
X187500Y177500D03*
X182500Y172500D03*
X187500Y182500D03*
X184970Y210000D03*
Y200000D03*
Y230000D03*
Y220000D03*
X188810Y236070D03*
X185960Y260020D03*
X185630Y270010D03*
X187500Y282500D03*
Y277500D03*
X182500Y272500D03*
X182470Y312500D03*
Y302500D03*
X195030Y302960D03*
Y312960D03*
X185000Y332500D03*
X182470Y322500D03*
X195000Y332500D03*
X194640Y322530D03*
X184690Y343270D03*
X190410Y351610D03*
X184970Y360000D03*
X188000Y378000D03*
Y382000D03*
X182000Y388000D03*
X205000Y5380D03*
X212500Y20000D03*
X209960Y35030D03*
X199960D03*
X212500Y27500D03*
X212070Y58110D03*
X204040Y73580D03*
X207530Y82960D03*
Y92960D03*
X201000Y91000D03*
X207530Y102960D03*
Y112960D03*
Y122960D03*
X197500Y127500D03*
X199500Y117530D03*
X207530Y132960D03*
Y142960D03*
X197500Y145000D03*
Y137500D03*
X207530Y152960D03*
X202360Y162160D03*
X207530Y162960D03*
Y172960D03*
Y182960D03*
Y192960D03*
X201000Y181000D03*
X207530Y202960D03*
Y212960D03*
X201000Y211000D03*
X207530Y222960D03*
Y232960D03*
Y242960D03*
X201000Y241000D03*
X207530Y252960D03*
Y262960D03*
Y272960D03*
Y282960D03*
X201000Y271000D03*
X200000Y297500D03*
X207530Y292960D03*
X212500Y315000D03*
X210000Y307500D03*
X205030Y312960D03*
X212500Y330000D03*
X204640Y322530D03*
X204550Y337470D03*
X197480Y344540D03*
X201000Y361000D03*
Y391000D03*
Y421000D03*
Y451000D03*
X215000Y5380D03*
X228220D03*
X215000Y15320D03*
X225000Y25000D03*
Y27500D03*
X229950Y35420D03*
X219960Y35030D03*
X231000Y31000D03*
X219000Y52500D03*
X224790Y45270D03*
X231860Y52350D03*
X226500Y60000D03*
X219140Y65180D03*
X217470Y88310D03*
X216590Y76130D03*
X227470Y76400D03*
Y86400D03*
X217470Y98310D03*
Y108310D03*
X227470Y96400D03*
Y106400D03*
X217470Y118310D03*
X227470Y116400D03*
Y126400D03*
X217470Y128310D03*
Y138310D03*
X227470Y136400D03*
X217470Y148310D03*
Y158310D03*
X227470Y146400D03*
Y156400D03*
X217470Y168310D03*
Y178310D03*
X227470Y166400D03*
Y176400D03*
X217470Y188310D03*
X227470Y186400D03*
Y196400D03*
X217470Y198310D03*
Y208310D03*
X227470Y206400D03*
X217470Y218310D03*
Y228310D03*
X227470Y216400D03*
Y226400D03*
X217470Y238310D03*
Y248310D03*
X227470Y236400D03*
Y246400D03*
X217470Y258310D03*
X227470Y256400D03*
Y266400D03*
X217470Y268310D03*
Y278310D03*
X227470Y276400D03*
X217470Y288310D03*
Y298310D03*
X227470Y286400D03*
Y296400D03*
X217470Y308310D03*
X227530Y311980D03*
Y321980D03*
X218690Y323320D03*
X215110Y338170D03*
X231000Y361000D03*
Y391000D03*
Y421000D03*
Y451000D03*
X238220Y5380D03*
X248220D03*
X236700Y15320D03*
X245030Y20850D03*
Y30850D03*
Y40850D03*
X244090Y49570D03*
X237020Y42490D03*
X234000Y67500D03*
X237530Y73800D03*
X238940Y59420D03*
X246010Y66490D03*
X237530Y83800D03*
X247470Y76380D03*
Y86380D03*
X237530Y93800D03*
Y103800D03*
X247470Y96380D03*
Y106380D03*
X237530Y113800D03*
Y123800D03*
X247470Y116380D03*
Y126380D03*
X237530Y133800D03*
Y143800D03*
X247470Y136380D03*
X237530Y153800D03*
X247470Y146380D03*
Y156380D03*
X237530Y163800D03*
Y173800D03*
X247470Y166380D03*
Y176380D03*
X237530Y183800D03*
Y193800D03*
X247470Y186380D03*
Y196380D03*
X237530Y203800D03*
Y213800D03*
X247470Y206380D03*
X237530Y223800D03*
X247470Y216380D03*
Y226380D03*
X237530Y233800D03*
Y243800D03*
X247470Y236380D03*
Y246380D03*
X237530Y253800D03*
Y263800D03*
X247470Y256380D03*
Y266380D03*
X237530Y273800D03*
Y283800D03*
X247470Y276380D03*
X237530Y293800D03*
X247470Y286380D03*
Y296380D03*
X237530Y303800D03*
Y313800D03*
X247470Y306380D03*
X234690Y327720D03*
X241770Y334790D03*
X240990Y319960D03*
X248060Y327030D03*
X248840Y341870D03*
X254970Y12760D03*
Y22760D03*
Y32760D03*
Y42760D03*
X260570Y51040D03*
X251170Y56640D03*
X257470Y74400D03*
Y64400D03*
Y84400D03*
Y104400D03*
Y94400D03*
Y124400D03*
Y114400D03*
Y144400D03*
Y134400D03*
Y154400D03*
Y174400D03*
Y164400D03*
Y194400D03*
Y184400D03*
Y214400D03*
Y204400D03*
Y224400D03*
Y244400D03*
Y234400D03*
X261000Y241000D03*
X252500Y255000D03*
X259880Y259470D03*
X261000Y271000D03*
Y301000D03*
X255360Y312530D03*
X265360D03*
X256060Y333030D03*
X252780Y322470D03*
X262780D03*
X255080Y346610D03*
X261320Y338800D03*
X262150Y353680D03*
X261000Y361000D03*
Y391000D03*
X259000Y421000D03*
X261000Y451000D03*
X267470Y58280D03*
X282500Y72500D03*
X277500D03*
X272500Y77500D03*
Y82500D03*
X267470Y78280D03*
X280000Y105000D03*
X267530Y108170D03*
X269580Y98390D03*
X283470Y124970D03*
X267470Y118280D03*
X274870Y114970D03*
X282770Y144970D03*
X267470Y128280D03*
X269600Y138370D03*
X279000Y134970D03*
X274850Y154970D03*
X267530Y148150D03*
X282500Y172500D03*
X272500Y177500D03*
X277500Y172500D03*
X272500Y182500D03*
X275030Y196100D03*
Y206100D03*
X276470Y215990D03*
X274120Y223860D03*
X267530Y231380D03*
X269200Y241240D03*
X269880Y259470D03*
X279880D03*
X266970Y249530D03*
X276970D03*
X282500Y272500D03*
X272500Y277500D03*
Y282500D03*
X277500Y272500D03*
X275030Y300000D03*
Y310000D03*
X272780Y322470D03*
X282380Y319660D03*
X268400Y345870D03*
X275470Y352940D03*
X269220Y360750D03*
X282540Y360010D03*
X272000Y378000D03*
Y382000D03*
X282000Y388000D03*
X278000D03*
X291000Y61000D03*
X287500Y82500D03*
Y77500D03*
X288000Y105000D03*
X288010Y96900D03*
X293000Y125000D03*
X284870Y114970D03*
X292750Y144280D03*
X284850Y154970D03*
X287500Y177500D03*
Y182500D03*
X284970Y202740D03*
X291000Y211000D03*
X284040Y222530D03*
X294970Y220010D03*
X292380Y229660D03*
X283940Y235030D03*
X293240Y238710D03*
X294970Y248560D03*
X289870Y257160D03*
X287500Y282500D03*
Y277500D03*
X284970Y300000D03*
X291000Y301000D03*
X284970Y310000D03*
X291000Y331000D03*
Y361000D03*
X288000Y378000D03*
Y382000D03*
X291000Y451000D03*
G54D12*
X60000Y35350D03*
Y44650D03*
X90000Y35350D03*
X80000D03*
X90000Y44650D03*
X80000D03*
X100000Y35350D03*
Y44650D03*
X155000Y35350D03*
Y44650D03*
X180000Y35350D03*
X170000D03*
X180000Y44650D03*
X170000D03*
X225000Y10350D03*
Y19650D03*
M02*
