G04 ================== begin FILE IDENTIFICATION RECORD ==================*
G04 Layout Name:  PMOD2BNCSIMPLE_v1_06_62mil_cheap.brd*
G04 Film Name:    TOP*
G04 File Format:  Gerber RS274X*
G04 File Origin:  Cadence Allegro 23.1-P001*
G04 Origin Date:  Sun Dec 10 17:18:10 2023*
G04 *
G04 Layer:  ETCH/TOP*
G04 Layer:  PIN/TOP*
G04 Layer:  VIA CLASS/TOP*
G04 *
G04 Offset:    (0.0000 0.0000)*
G04 Mirror:    No*
G04 Mode:      Positive*
G04 Rotation:  0*
G04 FullContactRelief:  No*
G04 UndefLineWidth:     0.0000*
G04 ================== end FILE IDENTIFICATION RECORD ====================*
%FSLAX55Y55*MOIN*%
%IR0*IPPOS*OFA0.00000B0.00000*MIA0B0*SFA1.00000B1.00000*%
%ADD10C,.255*%
%ADD12C,.02*%
%ADD15R,.0512X.0453*%
%ADD14C,.065*%
%ADD16R,.065X.065*%
%ADD11C,.0945*%
%ADD13R,.0886X.0886*%
%ADD17C,.0134*%
%ADD20C,.105*%
%ADD18C,.2654*%
%ADD19C,.0754*%
G75*
%LPD*%
G75*
G36*
G01X-37990Y450000D02*
X-30000Y457990D01*
X300000D01*
X307990Y450000D01*
Y410000D01*
X297990Y400000D01*
Y60000D01*
X307990Y50000D01*
Y10000D01*
X300000Y2010D01*
X-30000D01*
X-37990Y10000D01*
Y50000D01*
X-27990Y60000D01*
Y400000D01*
X-37990Y410000D01*
Y450000D01*
G37*
%LPC*%
G75*
G36*
G01X184930Y268650D02*
G02Y271370I699J1360D01*
G02X190000Y275250I5070J-1372D01*
G02Y264750I0J-5250D01*
G02X184930Y268650I0J5246D01*
G37*
G36*
G01X275050Y375570D02*
Y384430D01*
G02X275570Y384950I520J0D01*
G01X284430D01*
G02X284950Y384430I0J-520D01*
G01Y375570D01*
G02X284430Y375050I-520J0D01*
G01X275570D01*
G02X275050Y375570I0J520D01*
G37*
G36*
G01X85050D02*
Y384430D01*
G02X85570Y384950I520J0D01*
G01X94430D01*
G02X94950Y384430I0J-520D01*
G01Y375570D01*
G02X94430Y375050I-520J0D01*
G01X85570D01*
G02X85050Y375570I0J520D01*
G37*
G36*
G01X175050Y275570D02*
Y284430D01*
G02X175570Y284950I520J0D01*
G01X184430D01*
G02X184950Y284430I0J-520D01*
G01Y275570D01*
G02X184430Y275050I-520J0D01*
G01X175570D01*
G02X175050Y275570I0J520D01*
G37*
G36*
G01X-14950D02*
Y284430D01*
G02X-14430Y284950I520J0D01*
G01X-5570D01*
G02X-5050Y284430I0J-520D01*
G01Y275570D01*
G02X-5570Y275050I-520J0D01*
G01X-14430D01*
G02X-14950Y275570I0J520D01*
G37*
G36*
G01X275050Y175570D02*
Y184430D01*
G02X275570Y184950I520J0D01*
G01X284430D01*
G02X284950Y184430I0J-520D01*
G01Y175570D01*
G02X284430Y175050I-520J0D01*
G01X275570D01*
G02X275050Y175570I0J520D01*
G37*
G36*
G01X85050D02*
Y184430D01*
G02X85570Y184950I520J0D01*
G01X94430D01*
G02X94950Y184430I0J-520D01*
G01Y175570D01*
G02X94430Y175050I-520J0D01*
G01X85570D01*
G02X85050Y175570I0J520D01*
G37*
G36*
G01X175050Y75570D02*
Y84430D01*
G02X175570Y84950I520J0D01*
G01X184430D01*
G02X184950Y84430I0J-520D01*
G01Y75570D01*
G02X184430Y75050I-520J0D01*
G01X175570D01*
G02X175050Y75570I0J520D01*
G37*
G36*
G01X-14950D02*
Y84430D01*
G02X-14430Y84950I520J0D01*
G01X-5570D01*
G02X-5050Y84430I0J-520D01*
G01Y75570D01*
G02X-5570Y75050I-520J0D01*
G01X-14430D01*
G02X-14950Y75570I0J520D01*
G37*
G36*
G01X58920Y42380D02*
Y46920D01*
G02X59440Y47440I520J0D01*
G01X64560D01*
G02X65080Y46920I0J-520D01*
G01Y42380D01*
G02X64560Y41860I-520J0D01*
G01X59440D01*
G02X58920Y42380I0J520D01*
G37*
G36*
G01X201230Y24050D02*
Y30550D01*
G02X201750Y31070I520J0D01*
G01X208250D01*
G02X208770Y30550I0J-520D01*
G01Y24050D01*
G02X208250Y23530I-520J0D01*
G01X201750D01*
G02X201230Y24050I0J520D01*
G37*
G36*
G01X111230D02*
Y30550D01*
G02X111750Y31070I520J0D01*
G01X118250D01*
G02X118770Y30550I0J-520D01*
G01Y24050D01*
G02X118250Y23530I-520J0D01*
G01X111750D01*
G02X111230Y24050I0J520D01*
G37*
G36*
G01X221920Y17380D02*
Y21920D01*
G02X222440Y22440I520J0D01*
G01X227560D01*
G02X228080Y21920I0J-520D01*
G01Y17380D01*
G02X227560Y16860I-520J0D01*
G01X222440D01*
G02X221920Y17380I0J520D01*
G37*
G36*
G01X261450Y158550D02*
X263950Y161050D01*
G02X265000Y161490I1056J-1047D01*
G01X290000D01*
G02X291050Y161050I-6J-1487D01*
G01X293550Y158550D01*
G02X293990Y157500I-1047J-1056D01*
G01Y152500D01*
G02X293550Y151450I-1487J6D01*
G01X291050Y148950D01*
G02X290000Y148510I-1056J1047D01*
G01X275620D01*
X273990Y146880D01*
Y143120D01*
X275620Y141490D01*
X290000D01*
G02X291050Y141050I-6J-1487D01*
G01X293550Y138550D01*
G02X293990Y137500I-1047J-1056D01*
G01Y132500D01*
G02X293550Y131450I-1487J6D01*
G01X291050Y128950D01*
G02X290000Y128510I-1056J1047D01*
G01X275620D01*
X273990Y126880D01*
Y123120D01*
X275620Y121490D01*
X290000D01*
G02X291050Y121050I-6J-1487D01*
G01X293550Y118550D01*
G02X293990Y117500I-1047J-1056D01*
G01Y112500D01*
G02X293550Y111450I-1487J6D01*
G01X291050Y108950D01*
G02X290000Y108510I-1056J1047D01*
G01X275620D01*
X273990Y106880D01*
Y103120D01*
X275620Y101490D01*
X277500D01*
G02X278550Y101050I-6J-1487D01*
G01X281050Y98550D01*
G02X281490Y97500I-1047J-1056D01*
G01Y84950D01*
X284430D01*
G02X284950Y84430I0J-520D01*
G01Y75570D01*
G02X284430Y75050I-520J0D01*
G01X275570D01*
G02X275050Y75570I0J520D01*
G01Y84430D01*
G02X275570Y84950I520J0D01*
G01X278510D01*
Y96880D01*
X276880Y98510D01*
X275000D01*
G02X273950Y98950I6J1487D01*
G01X271450Y101450D01*
G02X271010Y102500I1047J1056D01*
G01Y107500D01*
G02X271450Y108550I1487J-6D01*
G01X273950Y111050D01*
G02X275000Y111490I1056J-1047D01*
G01X289380D01*
X291010Y113120D01*
Y116880D01*
X289380Y118510D01*
X275000D01*
G02X273950Y118950I6J1487D01*
G01X271450Y121450D01*
G02X271010Y122500I1047J1056D01*
G01Y127500D01*
G02X271450Y128550I1487J-6D01*
G01X273950Y131050D01*
G02X275000Y131490I1056J-1047D01*
G01X289380D01*
X291010Y133120D01*
Y136880D01*
X289380Y138510D01*
X275000D01*
G02X273950Y138950I6J1487D01*
G01X271450Y141450D01*
G02X271010Y142500I1047J1056D01*
G01Y147500D01*
G02X271450Y148550I1487J-6D01*
G01X273950Y151050D01*
G02X275000Y151490I1056J-1047D01*
G01X289380D01*
X291010Y153120D01*
Y156880D01*
X289380Y158510D01*
X265620D01*
X263990Y156880D01*
Y60000D01*
G02X263550Y58950I-1487J6D01*
G01X251490Y46880D01*
Y12500D01*
G02X251050Y11450I-1487J6D01*
G01X248900Y9300D01*
G02X247850Y8860I-1056J1047D01*
G01X228080D01*
Y8080D01*
G02X227560Y7560I-520J0D01*
G01X222440D01*
G02X221920Y8080I0J520D01*
G01Y8860D01*
X191950D01*
G02X190900Y9300I6J1487D01*
G01X186400Y13800D01*
G02X185000Y13530I-1401J3500D01*
G02X188770Y17300I0J3770D01*
G02X188500Y15900I-3770J1D01*
G01X192570Y11840D01*
X221920D01*
Y12620D01*
G02X222440Y13140I520J0D01*
G01X227560D01*
G02X228080Y12620I0J-520D01*
G01Y11840D01*
X247230D01*
X248510Y13120D01*
Y47500D01*
G02X248950Y48550I1487J-6D01*
G01X261010Y60620D01*
Y157500D01*
G02X261450Y158550I1487J-6D01*
G37*
G36*
G01X11450Y287900D02*
X14600Y291050D01*
G02X15650Y291490I1056J-1047D01*
G01X21850D01*
G02X22900Y291050I-6J-1487D01*
G01X26050Y287900D01*
G02X26490Y286850I-1047J-1056D01*
G01Y70620D01*
X55620Y41490D01*
X58800D01*
G02X59850Y41050I-6J-1487D01*
G01X62770Y38140D01*
X64560D01*
G02X65080Y37620I0J-520D01*
G01Y33080D01*
G02X64560Y32560I-520J0D01*
G01X63490D01*
Y31320D01*
G03X64000Y30930I401J-4D01*
G02X65000Y31070I1018J-3628D01*
G02X61230Y27300I0J-3770D01*
G02X61500Y28700I3770J-1D01*
G01X60950Y29250D01*
G02X60510Y30300I1047J1056D01*
G01Y32560D01*
X59440D01*
G02X58920Y33080I0J520D01*
G01Y37770D01*
X58180Y38510D01*
X55000D01*
G02X53950Y38950I6J1487D01*
G01X23950Y68950D01*
G02X23510Y70000I1047J1056D01*
G01Y286230D01*
X21230Y288510D01*
X16270D01*
X13990Y286230D01*
Y260000D01*
G02X13550Y258950I-1487J6D01*
G01X11050Y256450D01*
G02X10000Y256010I-1056J1047D01*
G01X-6880D01*
X-8510Y254380D01*
Y184950D01*
X-5570D01*
G02X-5050Y184430I0J-520D01*
G01Y175570D01*
G02X-5570Y175050I-520J0D01*
G01X-14430D01*
G02X-14950Y175570I0J520D01*
G01Y184430D01*
G02X-14430Y184950I520J0D01*
G01X-11490D01*
Y255000D01*
G02X-11050Y256050I1487J-6D01*
G01X-8550Y258550D01*
G02X-7500Y258990I1056J-1047D01*
G01X9380D01*
X11010Y260620D01*
Y286850D01*
G02X11450Y287900I1487J-6D01*
G37*
G36*
G01X136450Y289710D02*
X140290Y293550D01*
G02X141340Y293990I1056J-1047D01*
G01X153660D01*
G02X154710Y293550I-6J-1487D01*
G01X158550Y289710D01*
G02X158990Y288660I-1047J-1056D01*
G01Y240620D01*
X163120Y236490D01*
X174990D01*
G02X176040Y236050I-6J-1487D01*
G01X181050Y231040D01*
G02X181490Y229990I-1047J-1056D01*
G01Y184950D01*
X184430D01*
G02X184950Y184430I0J-520D01*
G01Y175570D01*
G02X184430Y175050I-520J0D01*
G01X175570D01*
G02X175050Y175570I0J520D01*
G01Y184430D01*
G02X175570Y184950I520J0D01*
G01X178510D01*
Y229370D01*
X174370Y233510D01*
X162500D01*
G02X161450Y233950I6J1487D01*
G01X156450Y238950D01*
G02X156010Y240000I1047J1056D01*
G01Y288040D01*
X153040Y291010D01*
X141960D01*
X138990Y288040D01*
Y55620D01*
X151240Y43370D01*
G03X151920Y43650I281J283D01*
G01Y46920D01*
G02X152440Y47440I520J0D01*
G01X157560D01*
G02X158080Y46920I0J-520D01*
G01Y42380D01*
G02X157560Y41860I-520J0D01*
G01X156210D01*
G03X155920Y41180I-5J-400D01*
G01X156050Y41050D01*
G02X156490Y40000I-1047J-1056D01*
G01Y38140D01*
X157560D01*
G02X158080Y37620I0J-520D01*
G01Y33080D01*
G02X157560Y32560I-520J0D01*
G01X156490D01*
Y30760D01*
G02X158770Y27300I-1485J-3460D01*
G02X151230I-3770J0D01*
G02X153510Y30760I3765J0D01*
G01Y32560D01*
X152440D01*
G02X151920Y33080I0J520D01*
G01Y37620D01*
G02X152440Y38140I520J0D01*
G01X153510D01*
Y39380D01*
X153170Y39720D01*
X151290D01*
G02X150240Y40160I6J1487D01*
G01X136450Y53950D01*
G02X136010Y55000I1047J1056D01*
G01Y288660D01*
G02X136450Y289710I1487J-6D01*
G37*
G36*
G01X-14430Y384950D02*
X-5570D01*
G02X-5050Y384430I0J-520D01*
G01Y381490D01*
X17500D01*
G02X18550Y381050I-6J-1487D01*
G01X46050Y353550D01*
G02X46490Y352500I-1047J-1056D01*
G01Y73780D01*
X76240Y44030D01*
G03X76920Y44310I281J283D01*
G01Y46920D01*
G02X77440Y47440I520J0D01*
G01X81420D01*
G03X81710Y48120I5J400D01*
G01X81450Y48380D01*
G02X81010Y49430I1047J1056D01*
G01Y56880D01*
X63950Y73950D01*
G02X63510Y75000I1047J1056D01*
G01Y337500D01*
G02X63950Y338550I1487J-6D01*
G01X66450Y341050D01*
G02X67500Y341490I1056J-1047D01*
G01X87500D01*
G02X88550Y341050I-6J-1487D01*
G01X91050Y338550D01*
G02X91490Y337500I-1047J-1056D01*
G01Y284950D01*
X94430D01*
G02X94950Y284430I0J-520D01*
G01Y275570D01*
G02X94430Y275050I-520J0D01*
G01X85570D01*
G02X85050Y275570I0J520D01*
G01Y284430D01*
G02X85570Y284950I520J0D01*
G01X88510D01*
Y336880D01*
X86880Y338510D01*
X68120D01*
X66490Y336880D01*
Y75620D01*
X74460Y67650D01*
G03X75120Y68080I289J278D01*
G02X74750Y70000I4877J1935D01*
G02X80000Y64750I5250J0D01*
G02X78080Y65120I15J5247D01*
G03X77650Y64460I-152J-371D01*
G01X83550Y58550D01*
G02X83990Y57500I-1047J-1056D01*
G01Y50050D01*
X86050Y47980D01*
G02X86490Y46930I-1047J-1056D01*
G01Y43780D01*
X86580Y43690D01*
G03X86920Y43830I141J141D01*
G01Y46920D01*
G02X87440Y47440I520J0D01*
G01X92560D01*
G02X93080Y46920I0J-520D01*
G01Y42380D01*
G02X92560Y41860I-520J0D01*
G01X91210D01*
G03X90920Y41180I-5J-400D01*
G01X91050Y41050D01*
G02X91490Y40000I-1047J-1056D01*
G01Y38140D01*
X92560D01*
G02X93080Y37620I0J-520D01*
G01Y33080D01*
G02X92560Y32560I-520J0D01*
G01X91490D01*
Y30080D01*
G03X92190Y29810I400J-4D01*
G02X97810I2810J-2503D01*
G03X98510Y30080I300J266D01*
G01Y32560D01*
X97440D01*
G02X96920Y33080I0J520D01*
G01Y37620D01*
G02X97440Y38140I520J0D01*
G01X98510D01*
Y38800D01*
G02X98950Y39850I1487J-6D01*
G01X100280Y41180D01*
G03X99990Y41860I-285J280D01*
G01X97440D01*
G02X96920Y42380I0J520D01*
G01Y46920D01*
G02X97440Y47440I520J0D01*
G01X102560D01*
G02X103080Y46920I0J-520D01*
G01Y43660D01*
G03X103760Y43380I399J3D01*
G01X116010Y55630D01*
Y159370D01*
X114370Y161010D01*
X108120D01*
X103550Y156450D01*
G02X102500Y156010I-1056J1047D01*
G01X80620D01*
X76490Y151880D01*
Y130610D01*
X78110Y128990D01*
X81880D01*
X83510Y130620D01*
Y142500D01*
G02X83950Y143550I1487J-6D01*
G01X86450Y146050D01*
G02X87500Y146490I1056J-1047D01*
G01X90000D01*
G02X91050Y146050I-6J-1487D01*
G01X93550Y143550D01*
G02X93990Y142500I-1047J-1056D01*
G01Y130620D01*
X95620Y128990D01*
X96870D01*
X98510Y130630D01*
Y142500D01*
G02X98950Y143550I1487J-6D01*
G01X101450Y146050D01*
G02X102500Y146490I1056J-1047D01*
G01X105000D01*
G02X106050Y146050I-6J-1487D01*
G01X108550Y143550D01*
G02X108990Y142500I-1047J-1056D01*
G01Y107490D01*
G02X108550Y106440I-1487J6D01*
G01X106060Y103950D01*
G02X105010Y103510I-1056J1047D01*
G01X97500D01*
G02X96450Y103950I6J1487D01*
G01X93950Y106450D01*
G02X93510Y107500I1047J1056D01*
G01Y114380D01*
X91880Y116010D01*
X80620D01*
X78990Y114380D01*
Y110620D01*
X91050Y98550D01*
G02X91490Y97500I-1047J-1056D01*
G01Y84950D01*
X94430D01*
G02X94950Y84430I0J-520D01*
G01Y75570D01*
G02X94430Y75050I-520J0D01*
G01X85570D01*
G02X85050Y75570I0J520D01*
G01Y84430D01*
G02X85570Y84950I520J0D01*
G01X88510D01*
Y96880D01*
X76450Y108950D01*
G02X76010Y110000I1047J1056D01*
G01Y115000D01*
G02X76450Y116050I1487J-6D01*
G01X78950Y118550D01*
G02X80000Y118990I1056J-1047D01*
G01X92500D01*
G02X93550Y118550I-6J-1487D01*
G01X96050Y116050D01*
G02X96490Y115000I-1047J-1056D01*
G01Y108120D01*
X98120Y106490D01*
X104390D01*
X106010Y108110D01*
Y141880D01*
X104380Y143510D01*
X103120D01*
X101490Y141880D01*
Y130010D01*
G02X101050Y128960I-1487J6D01*
G01X98540Y126450D01*
G02X97490Y126010I-1056J1047D01*
G01X95000D01*
G02X93950Y126450I6J1487D01*
G01X91450Y128950D01*
G02X91010Y130000I1047J1056D01*
G01Y141880D01*
X89380Y143510D01*
X88120D01*
X86490Y141880D01*
Y130000D01*
G02X86050Y128950I-1487J6D01*
G01X83550Y126450D01*
G02X82500Y126010I-1056J1047D01*
G01X77490D01*
G02X76440Y126450I6J1487D01*
G01X73950Y128940D01*
G02X73510Y129990I1047J1056D01*
G01Y152500D01*
G02X73950Y153550I1487J-6D01*
G01X78950Y158550D01*
G02X80000Y158990I1056J-1047D01*
G01X101880D01*
X106450Y163550D01*
G02X107500Y163990I1056J-1047D01*
G01X114990D01*
G02X116040Y163550I-6J-1487D01*
G01X118550Y161040D01*
G02X118990Y159990I-1047J-1056D01*
G01Y55010D01*
G02X118550Y53960I-1487J6D01*
G01X104290Y39700D01*
G02X103240Y39260I-1056J1047D01*
G01X102570D01*
X102120Y38820D01*
G03X102410Y38140I285J-280D01*
G01X102560D01*
G02X103080Y37620I0J-520D01*
G01Y33080D01*
G02X102560Y32560I-520J0D01*
G01X101490D01*
Y30080D01*
G03X102190Y29810I400J-4D01*
G02X105000Y31070I2810J-2503D01*
G02Y23530I0J-3770D01*
G02X102150Y24830I0J3774D01*
G03X101450Y24570I-301J-263D01*
G01Y22260D01*
G02X101010Y21210I-1487J6D01*
G01X98500Y18700D01*
G02X98770Y17300I-3500J-1401D01*
G02X95000Y21070I-3770J0D01*
G02X96400Y20800I-1J-3770D01*
G01X98470Y22880D01*
Y24480D01*
G03X97780Y24750I-399J-3D01*
G02X95000Y23530I-2780J2557D01*
G02X92190Y24790I0J3763D01*
G03X91490Y24520I-300J-266D01*
G01Y22300D01*
G02X91050Y21250I-1487J6D01*
G01X88500Y18700D01*
G02X88770Y17300I-3500J-1401D01*
G02X85000Y21070I-3770J0D01*
G02X86400Y20800I-1J-3770D01*
G01X88510Y22920D01*
Y24520D01*
G03X87810Y24790I-400J4D01*
G02X82190I-2810J2503D01*
G03X81490Y24520I-300J-266D01*
G01Y22300D01*
G02X81050Y21250I-1487J6D01*
G01X78500Y18700D01*
G02X78770Y17300I-3500J-1401D01*
G02X75000Y21070I-3770J0D01*
G02X76400Y20800I-1J-3770D01*
G01X78510Y22920D01*
Y24520D01*
G03X77810Y24790I-400J4D01*
G02X75000Y23530I-2810J2503D01*
G02Y31070I0J3770D01*
G02X77810Y29810I0J-3763D01*
G03X78510Y30080I300J266D01*
G01Y32560D01*
X77440D01*
G02X76920Y33080I0J520D01*
G01Y37620D01*
G02X77440Y38140I520J0D01*
G01X78510D01*
Y39380D01*
X78170Y39720D01*
X76950D01*
G02X75900Y40160I6J1487D01*
G01X43950Y72110D01*
G02X43510Y73160I1047J1056D01*
G01Y351880D01*
X16880Y378510D01*
X-5050D01*
Y375570D01*
G02X-5570Y375050I-520J0D01*
G01X-14430D01*
G02X-14950Y375570I0J520D01*
G01Y384430D01*
G02X-14430Y384950I520J0D01*
G37*
G36*
G01X175570D02*
X184430D01*
G02X184950Y384430I0J-520D01*
G01Y375570D01*
G02X184430Y375050I-520J0D01*
G01X181490D01*
Y355610D01*
X223550Y313540D01*
G02X223990Y312490I-1047J-1056D01*
G01Y75010D01*
G02X223550Y73960I-1487J6D01*
G01X206040Y56450D01*
G02X204990Y56010I-1056J1047D01*
G01X180620D01*
X178990Y54380D01*
Y48880D01*
G02X178740Y48060I-1488J6D01*
G03X179070Y47440I333J-221D01*
G01X182560D01*
G02X183080Y46920I0J-520D01*
G01Y44220D01*
G03X183760Y43940I399J3D01*
G01X185880Y46050D01*
G02X186930Y46490I1056J-1047D01*
G01X216870D01*
X241010Y70630D01*
Y315000D01*
G02X241450Y316050I1487J-6D01*
G01X243950Y318550D01*
G02X245000Y318990I1056J-1047D01*
G01X277510D01*
G02X278560Y318550I-6J-1487D01*
G01X281050Y316060D01*
G02X281490Y315010I-1047J-1056D01*
G01Y284950D01*
X284430D01*
G02X284950Y284430I0J-520D01*
G01Y275570D01*
G02X284430Y275050I-520J0D01*
G01X275570D01*
G02X275050Y275570I0J520D01*
G01Y284430D01*
G02X275570Y284950I520J0D01*
G01X278510D01*
Y314390D01*
X276890Y316010D01*
X245620D01*
X243990Y314380D01*
Y70010D01*
G02X243550Y68960I-1487J6D01*
G01X218540Y43950D01*
G02X217490Y43510I-1056J1047D01*
G01X187550D01*
X184190Y40160D01*
G02X183140Y39720I-1056J1047D01*
G01X181830D01*
X181490Y39380D01*
Y38140D01*
X182560D01*
G02X183080Y37620I0J-520D01*
G01Y33080D01*
G02X182560Y32560I-520J0D01*
G01X181490D01*
Y30080D01*
G03X182190Y29810I400J-4D01*
G02X185000Y31070I2810J-2503D01*
G02Y23530I0J-3770D01*
G02X182190Y24790I0J3763D01*
G03X181490Y24520I-300J-266D01*
G01Y22300D01*
G02X181050Y21250I-1487J6D01*
G01X178500Y18700D01*
G02X178770Y17300I-3500J-1401D01*
G02X175000Y21070I-3770J0D01*
G02X176400Y20800I-1J-3770D01*
G01X178510Y22920D01*
Y24520D01*
G03X177810Y24790I-400J4D01*
G02X172190I-2810J2503D01*
G03X171490Y24520I-300J-266D01*
G01Y22300D01*
G02X171050Y21250I-1487J6D01*
G01X168500Y18700D01*
G02X168770Y17300I-3500J-1401D01*
G02X165000Y21070I-3770J0D01*
G02X166400Y20800I-1J-3770D01*
G01X168510Y22920D01*
Y24520D01*
G03X167810Y24790I-400J4D01*
G02X165000Y23530I-2810J2503D01*
G02Y31070I0J3770D01*
G02X167810Y29810I0J-3763D01*
G03X168510Y30080I300J266D01*
G01Y32560D01*
X167440D01*
G02X166920Y33080I0J520D01*
G01Y37620D01*
G02X167440Y38140I520J0D01*
G01X168510D01*
Y40000D01*
G02X168950Y41050I1487J-6D01*
G01X169080Y41180D01*
G03X168790Y41860I-285J280D01*
G01X167440D01*
G02X166920Y42380I0J520D01*
G01Y46920D01*
G02X167440Y47440I520J0D01*
G01X172560D01*
G02X173080Y46920I0J-520D01*
G01Y46600D01*
X173420D01*
X173470Y46740D01*
G02X173830Y47310I1405J-489D01*
G01X176010Y49500D01*
Y55000D01*
G02X176450Y56050I1487J-6D01*
G01X178950Y58550D01*
G02X180000Y58990I1056J-1047D01*
G01X204370D01*
X221010Y75630D01*
Y311870D01*
X178950Y353940D01*
G02X178510Y354990I1047J1056D01*
G01Y375050D01*
X175570D01*
G02X175050Y375570I0J520D01*
G01Y384430D01*
G02X175570Y384950I520J0D01*
G37*
G54D20*
X-20000Y70000D03*
X0D03*
X100000D03*
X170000D03*
X190000D03*
X270000D03*
X290000D03*
X-20000Y90000D03*
X0D03*
X80000D03*
X100000D03*
X170000D03*
X190000D03*
X270000D03*
X290000D03*
X-20000Y170000D03*
X0D03*
X80000D03*
X100000D03*
X170000D03*
X190000D03*
X270000D03*
X290000D03*
X-20000Y190000D03*
X0D03*
X80000D03*
X100000D03*
X170000D03*
X190000D03*
X270000D03*
X290000D03*
X-20000Y270000D03*
X0D03*
X80000D03*
X100000D03*
X170000D03*
X270000D03*
X290000D03*
X-20000Y290000D03*
X0D03*
X80000D03*
X100000D03*
X170000D03*
X190000D03*
X270000D03*
X290000D03*
X-20000Y370000D03*
X0D03*
X80000D03*
X100000D03*
X170000D03*
X190000D03*
X270000D03*
X290000D03*
X-20000Y390000D03*
X0D03*
X80000D03*
X100000D03*
X170000D03*
X190000D03*
X270000D03*
X290000D03*
G54D18*
X-10000Y30000D03*
X280000D03*
X-10000Y430000D03*
X280000D03*
G54D19*
X65000Y17300D03*
X105000D03*
X115000D03*
X155000D03*
X195000D03*
X205000D03*
X195000Y27300D03*
%LPD*%
G75*
G36*
G01X176370Y45640D02*
X176580Y45850D01*
G02X176920Y45710I141J-141D01*
G01Y42380D01*
G03X177440Y41860I520J0D01*
G01X178790D01*
G02X179080Y41180I5J-400D01*
G01X178950Y41050D01*
G03X178510Y40000I1047J-1056D01*
G01Y38140D01*
X177440D01*
G03X176920Y37620I0J-520D01*
G01Y33080D01*
G03X177440Y32560I520J0D01*
G01X178510D01*
Y30080D01*
G02X177810Y29810I-400J-4D01*
G03X172190I-2810J-2503D01*
G02X171490Y30080I-300J266D01*
G01Y32560D01*
X172560D01*
G03X173080Y33080I0J520D01*
G01Y37620D01*
G03X172560Y38140I-520J0D01*
G01X171490D01*
Y39380D01*
X171830Y39720D01*
X173050D01*
G03X174100Y40160I-6J1487D01*
G01X175930Y41990D01*
G03X176370Y43040I-1047J1056D01*
G01Y45640D01*
G37*
G54D10*
X-10000Y30000D03*
Y430000D03*
X280000Y30000D03*
Y430000D03*
G54D11*
X-20000Y70000D03*
Y90000D03*
Y170000D03*
Y190000D03*
Y270000D03*
Y290000D03*
Y370000D03*
Y390000D03*
X0Y70000D03*
Y90000D03*
Y170000D03*
Y190000D03*
Y270000D03*
Y290000D03*
Y370000D03*
Y390000D03*
X80000Y70000D03*
Y90000D03*
Y170000D03*
Y190000D03*
Y270000D03*
Y290000D03*
Y370000D03*
Y390000D03*
X100000Y70000D03*
Y90000D03*
Y170000D03*
Y190000D03*
Y270000D03*
Y290000D03*
Y370000D03*
Y390000D03*
X170000Y70000D03*
Y90000D03*
Y170000D03*
Y190000D03*
Y270000D03*
Y290000D03*
Y370000D03*
Y390000D03*
X190000Y70000D03*
Y90000D03*
Y170000D03*
Y190000D03*
Y270000D03*
Y290000D03*
Y370000D03*
Y390000D03*
X270000Y70000D03*
Y90000D03*
Y170000D03*
Y190000D03*
Y270000D03*
Y290000D03*
Y370000D03*
Y390000D03*
X290000Y70000D03*
Y90000D03*
Y170000D03*
Y190000D03*
Y270000D03*
Y290000D03*
Y370000D03*
Y390000D03*
G54D12*
X-12500Y72500D03*
X-17500Y82500D03*
Y77500D03*
X-15000Y105000D03*
X-24970Y100600D03*
X-23980Y110550D03*
X-15000Y125000D03*
X-15040Y115030D03*
X-24000Y119470D03*
X-15000Y145000D03*
X-24970Y129420D03*
X-16690Y135030D03*
X-24970Y140640D03*
X-23950Y150580D03*
X-14970Y154990D03*
X-17500Y177500D03*
X-12500Y172500D03*
X-17500Y182500D03*
X-14970Y197280D03*
Y207280D03*
Y217280D03*
Y227280D03*
Y237280D03*
Y247280D03*
X-14750Y257280D03*
X-17500Y277500D03*
Y282500D03*
X-12500Y272500D03*
X-14970Y300000D03*
Y310000D03*
X-14550Y329990D03*
X-14970Y320000D03*
X-17000Y378000D03*
Y382000D03*
X-12000Y387000D03*
Y373000D03*
X-9000Y61000D03*
X-7500Y72500D03*
X-2500Y77500D03*
Y82500D03*
X-5030Y98640D03*
X-7030Y108440D03*
X-5000Y115000D03*
X-7500Y122500D03*
X-7560Y127910D03*
X-2470Y121510D03*
X2590Y112880D03*
X-5030Y137580D03*
X-2500Y143000D03*
X1260Y130790D03*
X-8330Y162470D03*
X1670D03*
X-8510Y146960D03*
X-210Y152530D03*
X-2500Y177500D03*
X-7500Y172500D03*
X-2500Y182500D03*
X-5030Y195130D03*
Y205130D03*
Y215130D03*
Y225130D03*
Y235130D03*
Y245130D03*
X1700Y252530D03*
X-6200Y262470D03*
X3800D03*
X-2500Y282500D03*
Y277500D03*
X-7500Y272500D03*
X-5030Y300000D03*
Y310000D03*
X-1230Y327250D03*
X-5030Y320000D03*
X2090Y337970D03*
X-7480Y337060D03*
X-8000Y387000D03*
Y373000D03*
X23440Y5030D03*
X13610Y6860D03*
X21500Y17000D03*
X10030Y16700D03*
X21500Y27000D03*
Y37000D03*
X10030Y36700D03*
Y26700D03*
X19970Y56860D03*
Y46860D03*
X10030Y56200D03*
Y46700D03*
Y66200D03*
X20030Y70360D03*
X10030Y86200D03*
Y76200D03*
X20030Y80360D03*
X19000Y90990D03*
X10030Y106200D03*
Y96200D03*
X20030Y110360D03*
Y100360D03*
X11690Y122470D03*
X19000Y121000D03*
X10000Y133000D03*
X10030Y142470D03*
X20030Y140360D03*
X11670Y162470D03*
X9790Y152470D03*
X20030Y160360D03*
Y150360D03*
Y170360D03*
Y190360D03*
Y180360D03*
Y200360D03*
X19000Y210990D03*
X20030Y230360D03*
Y220360D03*
X19000Y240990D03*
X11700Y252530D03*
X17470Y260700D03*
X20030Y250360D03*
X17470Y270700D03*
X20030Y280360D03*
X7530Y271750D03*
Y281750D03*
X10050Y291430D03*
X19400Y294970D03*
X20000Y305000D03*
X7500D03*
X20000Y317500D03*
X7500D03*
X18740Y328030D03*
X8740D03*
X22090Y337970D03*
X12090D03*
X21000Y361000D03*
X19250Y371220D03*
X10000Y375030D03*
X19990Y384540D03*
X10000Y384970D03*
X21000Y391000D03*
Y421000D03*
Y451000D03*
X32080Y10060D03*
X32470Y20050D03*
Y30050D03*
X32860Y55120D03*
X29730Y44260D03*
X39000Y62500D03*
X25780Y62190D03*
X31290Y70740D03*
X29970Y90650D03*
Y80650D03*
X39970Y80680D03*
Y90680D03*
X29970Y100650D03*
X39970Y100680D03*
X29970Y120650D03*
Y110650D03*
X39970Y110680D03*
Y120680D03*
X29970Y140650D03*
Y130650D03*
X39970Y130680D03*
Y140680D03*
X29970Y160650D03*
Y150650D03*
X39970Y150680D03*
Y160680D03*
X29970Y170650D03*
X39970Y170680D03*
X29970Y190650D03*
Y180650D03*
X39970Y180680D03*
Y190680D03*
X29970Y210650D03*
Y200650D03*
X39970Y200680D03*
Y210680D03*
X29970Y230650D03*
Y220650D03*
X39970Y220680D03*
Y230680D03*
X29970Y240650D03*
X39970Y240680D03*
X29970Y260650D03*
Y250650D03*
X39970Y250680D03*
Y260680D03*
X29970Y280650D03*
Y270650D03*
X39970Y270680D03*
Y280680D03*
X28360Y290520D03*
X30030Y297300D03*
X39970Y290680D03*
Y300680D03*
X30030Y307300D03*
Y317300D03*
X39970Y310680D03*
X28320Y325160D03*
X39970Y320680D03*
X38900Y330630D03*
X40030Y339600D03*
Y349600D03*
X31830Y337700D03*
X33390Y357080D03*
X26320Y364150D03*
X41200Y363320D03*
X34130Y370400D03*
X40030Y371700D03*
X27060Y377470D03*
X42530Y23710D03*
X47770Y15200D03*
X57500Y12880D03*
X57040Y35030D03*
X57000Y32500D03*
X52500Y27500D03*
X51000Y37500D03*
X41780Y33690D03*
X54000Y47500D03*
X46500Y55000D03*
X55420Y57110D03*
X41710Y44970D03*
X42280Y71250D03*
X48350Y64180D03*
X54430Y68760D03*
X49970Y76400D03*
Y86400D03*
Y96400D03*
Y106400D03*
Y116400D03*
Y126400D03*
Y136400D03*
Y146400D03*
Y156400D03*
Y166400D03*
Y176400D03*
Y186400D03*
Y196400D03*
Y206400D03*
Y216400D03*
Y226400D03*
Y236400D03*
Y246400D03*
Y256400D03*
Y266400D03*
Y276400D03*
Y286400D03*
Y296400D03*
Y306400D03*
Y316400D03*
Y326400D03*
Y336400D03*
Y346400D03*
X55490Y364040D03*
X48270Y356250D03*
X56400Y380030D03*
X49970Y372370D03*
X41980Y381510D03*
X49050Y388580D03*
X51000Y421000D03*
Y451000D03*
X70000Y10000D03*
X62500D03*
X62000Y52000D03*
X68000Y45000D03*
X62000Y49000D03*
X75000Y52500D03*
Y50000D03*
X68570Y54620D03*
X61500Y61690D03*
X69970Y86990D03*
X70040Y76990D03*
X59970Y85090D03*
X74150Y106320D03*
X69970Y106990D03*
Y96990D03*
X59970Y105090D03*
Y95090D03*
X69970Y126990D03*
Y116990D03*
X59970Y125090D03*
Y115090D03*
X69970Y136990D03*
X59970Y145090D03*
Y135090D03*
X69970Y156990D03*
Y146990D03*
X59970Y155090D03*
X69970Y176990D03*
Y166990D03*
X59970Y175090D03*
Y165090D03*
X69970Y196990D03*
Y186990D03*
X59970Y195090D03*
Y185090D03*
X69970Y206990D03*
X59970Y205090D03*
X69970Y226990D03*
Y216990D03*
X59970Y225090D03*
Y215090D03*
X69970Y246990D03*
Y236990D03*
X59970Y245090D03*
Y235090D03*
X69970Y256990D03*
X59970Y265090D03*
Y255090D03*
X69970Y276990D03*
Y266990D03*
X59970Y275090D03*
X69970Y296990D03*
Y286990D03*
X59970Y295090D03*
Y285090D03*
X69970Y316990D03*
Y306990D03*
X59970Y315090D03*
Y305090D03*
X75920Y335030D03*
X69970Y326990D03*
X59970Y335090D03*
Y325090D03*
X75870Y344970D03*
X65870D03*
X59970Y345090D03*
Y355090D03*
X65940Y377030D03*
X68800Y388230D03*
X68530Y388280D03*
X58950Y389970D03*
X92500Y10000D03*
X85000D03*
X77500D03*
X80000Y50000D03*
X85000Y50500D03*
X90000Y50000D03*
Y52500D03*
X85000Y53000D03*
X80000Y52500D03*
X92500Y72500D03*
X87500D03*
X82500Y77500D03*
Y82500D03*
X87470Y107060D03*
X81220Y99250D03*
X90000Y113000D03*
X83000D03*
X90310Y122470D03*
X79000Y121000D03*
X89000Y133000D03*
Y140000D03*
X80000Y134000D03*
X87980Y152530D03*
X81850Y146380D03*
X91180Y149970D03*
X88370Y162470D03*
X78370D03*
X81000Y151000D03*
X92500Y172500D03*
X82500Y177500D03*
X87500Y172500D03*
X82500Y182500D03*
X85030Y197720D03*
X87800Y207320D03*
X81000Y211000D03*
Y241000D03*
X92500Y272500D03*
X82500Y277500D03*
Y282500D03*
X87500Y272500D03*
X85030Y300900D03*
Y310900D03*
Y320900D03*
Y330900D03*
X85870Y344970D03*
X92000Y372000D03*
X88000D03*
X92000Y388000D03*
X88000D03*
X81000Y421000D03*
Y451000D03*
X107500Y10000D03*
X100000D03*
X104970Y35550D03*
X95000Y50000D03*
Y52500D03*
X100000D03*
Y50000D03*
X105230Y49770D03*
X104460Y55030D03*
X95000Y55000D03*
X110000Y67500D03*
X97500Y82500D03*
Y77500D03*
X104980Y100030D03*
X94540Y99990D03*
X102500Y112500D03*
X99180Y117850D03*
X104000Y133000D03*
Y140000D03*
X96000D03*
Y133000D03*
X107530Y155500D03*
X97980Y152530D03*
X101180Y149970D03*
X110550Y146470D03*
X98370Y162470D03*
X97500Y177500D03*
Y182500D03*
X94870Y214400D03*
X96630Y202100D03*
X96640Y202170D03*
X103700Y209180D03*
X101940Y221470D03*
X107530Y229760D03*
X109000Y241000D03*
X107530Y249760D03*
Y259760D03*
X97500Y282500D03*
Y277500D03*
X107530Y279760D03*
X109000Y271000D03*
X109930Y289470D03*
X94970Y300000D03*
Y310000D03*
Y320000D03*
Y330000D03*
X94540Y339990D03*
X98000Y382000D03*
Y378000D03*
X122500Y17500D03*
Y10000D03*
X115000D03*
Y35000D03*
X122500Y32500D03*
Y25000D03*
X112310Y56840D03*
X112090Y42570D03*
X119160Y49640D03*
X125000Y67500D03*
X122470Y59080D03*
X112530Y76840D03*
Y86840D03*
X122530Y92300D03*
Y82300D03*
X112530Y96840D03*
X112470Y106660D03*
X122530Y102300D03*
X112470Y126660D03*
Y116660D03*
X122530Y122300D03*
Y112300D03*
X112470Y136660D03*
X122530Y142300D03*
Y132300D03*
Y162300D03*
Y152300D03*
X111000Y151000D03*
X117030Y167470D03*
X122530Y172300D03*
Y192300D03*
Y182300D03*
X111000Y181000D03*
X122530Y212300D03*
Y202300D03*
X111000Y211000D03*
X110780Y216250D03*
X117470Y223670D03*
X122530Y222300D03*
X117470Y233670D03*
Y243670D03*
X122530Y242300D03*
Y232300D03*
X117470Y253670D03*
Y263670D03*
X122530Y262300D03*
Y252300D03*
X120000Y282500D03*
X117470Y273670D03*
X122530Y272300D03*
X117500Y292500D03*
X127760Y291780D03*
X111000Y301000D03*
Y331000D03*
Y361000D03*
Y391000D03*
Y421000D03*
Y451000D03*
X144560Y36570D03*
X141000Y31000D03*
X145000Y25000D03*
X142470Y56080D03*
X137490Y43640D03*
X132530Y52320D03*
Y62320D03*
X130240Y73220D03*
X142470Y76760D03*
Y86760D03*
X132470Y92960D03*
Y82960D03*
X142470Y96760D03*
Y106760D03*
X132470Y102960D03*
X142470Y116760D03*
Y126760D03*
X132470Y122960D03*
Y112960D03*
X142470Y136760D03*
X132470Y142960D03*
Y132960D03*
X142470Y146760D03*
Y156760D03*
X132470Y152960D03*
X142470Y166760D03*
Y176760D03*
X132470Y172960D03*
Y162960D03*
X142470Y186760D03*
Y196760D03*
X132470Y192960D03*
Y182960D03*
X142470Y206760D03*
X132470Y212960D03*
Y202960D03*
X142470Y216760D03*
Y226760D03*
X132470Y222960D03*
X142470Y236760D03*
Y246760D03*
X132470Y242960D03*
Y232960D03*
X142470Y256760D03*
X132470Y262960D03*
Y252960D03*
X142470Y266760D03*
Y276760D03*
X132470Y282960D03*
Y272960D03*
X137540Y295730D03*
X142630Y286760D03*
X141000Y331000D03*
Y361000D03*
Y391000D03*
Y421000D03*
Y451000D03*
X147500Y17500D03*
X152500Y10000D03*
X160000D03*
X150000Y50000D03*
Y52500D03*
X155000Y50000D03*
Y52500D03*
X154200Y59600D03*
X159200Y58730D03*
X147010Y64990D03*
X152470Y73370D03*
Y83370D03*
Y93370D03*
X152530Y103370D03*
X160650Y97530D03*
X152530Y123370D03*
X152470D03*
X152530Y113370D03*
X162470Y119240D03*
X152530Y133370D03*
X162470Y129240D03*
X146620Y148650D03*
X156370Y150900D03*
X155480Y185790D03*
X155000Y216000D03*
X162470Y247380D03*
X152530Y245350D03*
X154850Y235620D03*
X162470Y257380D03*
X152530Y265350D03*
Y255350D03*
X162470Y277380D03*
Y267380D03*
X152530Y275350D03*
X147390Y297470D03*
X157270Y295920D03*
X162470Y287380D03*
X152530Y285350D03*
X167500Y10000D03*
X175000D03*
X165000Y52500D03*
Y50000D03*
X170000Y52500D03*
Y50000D03*
X175000Y52500D03*
Y50000D03*
X177500Y72500D03*
X172500Y77500D03*
Y82500D03*
X170600Y98570D03*
X175030Y107530D03*
X179440Y98970D03*
X165030Y109570D03*
X171160Y117470D03*
X175000Y140000D03*
X172500Y130000D03*
X170000Y140000D03*
X165000Y145000D03*
X177500Y152500D03*
X163440Y157970D03*
X172370Y162470D03*
X171000Y151000D03*
X172500Y177500D03*
X177500Y172500D03*
X172500Y182500D03*
X175030Y210000D03*
Y200000D03*
X163140Y230030D03*
X173140Y229820D03*
X175030Y220000D03*
X179000Y238020D03*
X171000Y241000D03*
X172500Y277500D03*
Y282500D03*
X177500Y272500D03*
X172530Y312500D03*
Y302500D03*
X175500Y330500D03*
X172530Y322500D03*
X177500Y350000D03*
X175000Y360000D03*
X172000Y382000D03*
Y378000D03*
X178000Y388000D03*
X171000Y421000D03*
Y451000D03*
X195000Y5380D03*
X185850Y9420D03*
X182500Y10000D03*
X189960Y35030D03*
X185000Y50000D03*
X180000D03*
Y52500D03*
X185000D03*
X195530Y66380D03*
X182500Y72500D03*
X187500Y82500D03*
Y77500D03*
X185030Y107270D03*
X194970Y106780D03*
X191820Y97290D03*
X192500Y127500D03*
X182470Y124650D03*
X181160Y117470D03*
X191050Y115980D03*
X192500Y137500D03*
X182500Y132500D03*
Y142500D03*
X192500Y152500D03*
X185000D03*
X182370Y162470D03*
X192370D03*
X187500Y177500D03*
X182500Y172500D03*
X187500Y182500D03*
X184970Y210000D03*
Y200000D03*
Y230000D03*
Y220000D03*
X188810Y236070D03*
X185960Y260020D03*
X187500Y282500D03*
Y277500D03*
X182500Y272500D03*
X185630Y270010D03*
X182470Y312500D03*
Y302500D03*
X195030Y302960D03*
Y312960D03*
X185000Y332500D03*
X182470Y322500D03*
X195000Y332500D03*
X194640Y322530D03*
X184690Y343270D03*
X190410Y351610D03*
X184970Y360000D03*
X188000Y378000D03*
Y382000D03*
X182000Y388000D03*
X205000Y5380D03*
X212500Y20000D03*
X209960Y35030D03*
X199960D03*
X212500Y27500D03*
X212070Y58110D03*
X204040Y73580D03*
X207530Y82960D03*
Y92960D03*
X201000Y91000D03*
X207530Y102960D03*
Y112960D03*
Y122960D03*
X197500Y127500D03*
X199500Y117530D03*
X207530Y132960D03*
Y142960D03*
X197500Y145000D03*
Y137500D03*
X207530Y152960D03*
X202360Y162160D03*
X207530Y162960D03*
Y172960D03*
Y182960D03*
Y192960D03*
X201000Y181000D03*
X207530Y202960D03*
Y212960D03*
X201000Y211000D03*
X207530Y222960D03*
Y232960D03*
Y242960D03*
X201000Y241000D03*
X207530Y252960D03*
Y262960D03*
Y272960D03*
Y282960D03*
X201000Y271000D03*
X200000Y297500D03*
X207530Y292960D03*
X212500Y315000D03*
X210000Y307500D03*
X205030Y312960D03*
X212500Y330000D03*
X204640Y322530D03*
X204550Y337470D03*
X197480Y344540D03*
X201000Y361000D03*
Y391000D03*
Y421000D03*
Y451000D03*
X215000Y5380D03*
X228220D03*
X215000Y15320D03*
X225000Y25000D03*
Y27500D03*
X229950Y35420D03*
X219960Y35030D03*
X231000Y31000D03*
X219000Y52500D03*
X224790Y45270D03*
X231860Y52350D03*
X226500Y60000D03*
X219140Y65180D03*
X217470Y88310D03*
X216590Y76130D03*
X227470Y76400D03*
Y86400D03*
X217470Y98310D03*
Y108310D03*
X227470Y96400D03*
Y106400D03*
X217470Y118310D03*
X227470Y116400D03*
Y126400D03*
X217470Y128310D03*
Y138310D03*
X227470Y136400D03*
X217470Y148310D03*
Y158310D03*
X227470Y146400D03*
Y156400D03*
X217470Y168310D03*
Y178310D03*
X227470Y166400D03*
Y176400D03*
X217470Y188310D03*
X227470Y186400D03*
Y196400D03*
X217470Y198310D03*
Y208310D03*
X227470Y206400D03*
X217470Y218310D03*
Y228310D03*
X227470Y216400D03*
Y226400D03*
X217470Y238310D03*
Y248310D03*
X227470Y236400D03*
Y246400D03*
X217470Y258310D03*
X227470Y256400D03*
Y266400D03*
X217470Y268310D03*
Y278310D03*
X227470Y276400D03*
X217470Y288310D03*
Y298310D03*
X227470Y286400D03*
Y296400D03*
X217470Y308310D03*
X227530Y311980D03*
Y321980D03*
X218690Y323320D03*
X215110Y338170D03*
X231000Y361000D03*
Y391000D03*
Y421000D03*
Y451000D03*
X238220Y5380D03*
X248220D03*
X236700Y15320D03*
X245030Y20850D03*
Y30850D03*
Y40850D03*
X244090Y49570D03*
X237020Y42490D03*
X234000Y67500D03*
X237530Y73800D03*
X238940Y59420D03*
X246010Y66490D03*
X237530Y83800D03*
X247470Y76380D03*
Y86380D03*
X237530Y93800D03*
Y103800D03*
X247470Y96380D03*
Y106380D03*
X237530Y113800D03*
Y123800D03*
X247470Y116380D03*
Y126380D03*
X237530Y133800D03*
Y143800D03*
X247470Y136380D03*
X237530Y153800D03*
X247470Y146380D03*
Y156380D03*
X237530Y163800D03*
Y173800D03*
X247470Y166380D03*
Y176380D03*
X237530Y183800D03*
Y193800D03*
X247470Y186380D03*
Y196380D03*
X237530Y203800D03*
Y213800D03*
X247470Y206380D03*
X237530Y223800D03*
X247470Y216380D03*
Y226380D03*
X237530Y233800D03*
Y243800D03*
X247470Y236380D03*
Y246380D03*
X237530Y253800D03*
Y263800D03*
X247470Y256380D03*
Y266380D03*
X237530Y273800D03*
Y283800D03*
X247470Y276380D03*
X237530Y293800D03*
X247470Y286380D03*
Y296380D03*
X237530Y303800D03*
Y313800D03*
X247470Y306380D03*
X234690Y327720D03*
X241770Y334790D03*
X240990Y319960D03*
X248060Y327030D03*
X248840Y341870D03*
X254970Y12760D03*
Y22760D03*
Y32760D03*
Y42760D03*
X260570Y51040D03*
X251170Y56640D03*
X257470Y74400D03*
Y64400D03*
Y84400D03*
Y104400D03*
Y94400D03*
Y124400D03*
Y114400D03*
Y144400D03*
Y134400D03*
Y154400D03*
Y174400D03*
Y164400D03*
Y194400D03*
Y184400D03*
Y214400D03*
Y204400D03*
Y224400D03*
Y244400D03*
Y234400D03*
X261000Y241000D03*
X252500Y255000D03*
X259880Y259470D03*
X261000Y271000D03*
Y301000D03*
X255360Y312530D03*
X265360D03*
X256060Y333030D03*
X252780Y322470D03*
X262780D03*
X255080Y346610D03*
X261320Y338800D03*
X262150Y353680D03*
X261000Y361000D03*
Y391000D03*
X259000Y421000D03*
X261000Y451000D03*
X267470Y58280D03*
X282500Y72500D03*
X277500D03*
X272500Y77500D03*
Y82500D03*
X267470Y78280D03*
X280000Y105000D03*
X267530Y108170D03*
X269580Y98390D03*
X283470Y124970D03*
X267470Y118280D03*
X274870Y114970D03*
X282770Y144970D03*
X267470Y128280D03*
X269600Y138370D03*
X279000Y134970D03*
X274850Y154970D03*
X267530Y148150D03*
X282500Y172500D03*
X272500Y177500D03*
X277500Y172500D03*
X272500Y182500D03*
X275030Y196100D03*
Y206100D03*
X276470Y215990D03*
X274120Y223860D03*
X267530Y231380D03*
X269200Y241240D03*
X269880Y259470D03*
X279880D03*
X266970Y249530D03*
X276970D03*
X282500Y272500D03*
X272500Y277500D03*
Y282500D03*
X277500Y272500D03*
X275030Y300000D03*
Y310000D03*
X272780Y322470D03*
X282380Y319660D03*
X268400Y345870D03*
X275470Y352940D03*
X269220Y360750D03*
X282540Y360010D03*
X272000Y378000D03*
Y382000D03*
X282000Y388000D03*
X278000D03*
X291000Y61000D03*
X287500Y82500D03*
Y77500D03*
X288000Y105000D03*
X288010Y96900D03*
X293000Y125000D03*
X284870Y114970D03*
X292750Y144280D03*
X284850Y154970D03*
X287500Y177500D03*
Y182500D03*
X284970Y202740D03*
X291000Y211000D03*
X284040Y222530D03*
X294970Y220010D03*
X292380Y229660D03*
X283940Y235030D03*
X293240Y238710D03*
X294970Y248560D03*
X289870Y257160D03*
X287500Y282500D03*
Y277500D03*
X284970Y300000D03*
X291000Y301000D03*
X284970Y310000D03*
X291000Y331000D03*
Y361000D03*
X288000Y378000D03*
Y382000D03*
X291000Y451000D03*
G54D13*
X-10000Y80000D03*
Y180000D03*
Y280000D03*
Y380000D03*
X90000Y80000D03*
Y180000D03*
Y280000D03*
Y380000D03*
X180000Y80000D03*
Y180000D03*
Y280000D03*
Y380000D03*
X280000Y80000D03*
Y180000D03*
Y280000D03*
Y380000D03*
G54D14*
X65000Y17300D03*
X75000D03*
X65000Y27300D03*
X75000D03*
X85000Y17300D03*
X95000D03*
X85000Y27300D03*
X95000D03*
X105000Y17300D03*
Y27300D03*
X115000Y17300D03*
X155000D03*
Y27300D03*
X165000Y17300D03*
X175000D03*
X165000Y27300D03*
X175000D03*
X185000Y17300D03*
X195000D03*
X185000Y27300D03*
X195000D03*
X205000Y17300D03*
G54D15*
X62000Y35350D03*
Y44650D03*
X90000Y35350D03*
X80000D03*
X90000Y44650D03*
X80000D03*
X100000Y35350D03*
Y44650D03*
X155000Y35350D03*
Y44650D03*
X180000Y35350D03*
X170000D03*
X180000Y44650D03*
X170000D03*
X225000Y10350D03*
Y19650D03*
G54D16*
X115000Y27300D03*
X205000D03*
G54D17*
G01X-20000Y64550D02*
Y70000D01*
G01D02*
Y75450D01*
G01X-25450Y70000D02*
X-20000D01*
G01D02*
X-14550D01*
G01X-20000Y84550D02*
Y90000D01*
G01D02*
Y95450D01*
G01X-25450Y90000D02*
X-20000D01*
G01D02*
X-14550D01*
G01X-20000Y164550D02*
Y170000D01*
G01D02*
Y175450D01*
G01X-25450Y170000D02*
X-20000D01*
G01D02*
X-14550D01*
G01X-20000Y184550D02*
Y190000D01*
G01D02*
Y195450D01*
G01X-25450Y190000D02*
X-20000D01*
G01D02*
X-14550D01*
G01X-20000Y264550D02*
Y270000D01*
G01D02*
Y275450D01*
G01X-25450Y270000D02*
X-20000D01*
G01D02*
X-14550D01*
G01X-20000Y284550D02*
Y290000D01*
G01D02*
Y295450D01*
G01X-25450Y290000D02*
X-20000D01*
G01D02*
X-14550D01*
G01X-20000Y364550D02*
Y370000D01*
G01D02*
Y375450D01*
G01X-25450Y370000D02*
X-20000D01*
G01D02*
X-14550D01*
G01X-20000Y384550D02*
Y390000D01*
G01D02*
Y395450D01*
G01X-25450Y390000D02*
X-20000D01*
G01D02*
X-14550D01*
G01X0Y64550D02*
Y70000D01*
G01D02*
Y75450D01*
G01X-5450Y70000D02*
X0D01*
G01D02*
X5450D01*
G01X0Y84550D02*
Y90000D01*
G01D02*
Y95450D01*
G01X-5450Y90000D02*
X0D01*
G01D02*
X5450D01*
G01X0Y164550D02*
Y170000D01*
G01D02*
Y175450D01*
G01X-5450Y170000D02*
X0D01*
G01D02*
X5450D01*
G01X0Y184550D02*
Y190000D01*
G01D02*
Y195450D01*
G01X-5450Y190000D02*
X0D01*
G01D02*
X5450D01*
G01X62000Y35350D02*
Y36800D01*
X58800Y40000D01*
X55000D01*
X25000Y70000D01*
Y286850D01*
X21850Y290000D01*
X15650D01*
X12500Y286850D01*
Y260000D01*
X10000Y257500D01*
X-7500D01*
X-10000Y255000D01*
Y180000D01*
G01X0Y264550D02*
Y270000D01*
G01D02*
Y275450D01*
G01X-5450Y270000D02*
X0D01*
G01D02*
X5450D01*
G01X0Y284550D02*
Y290000D01*
G01D02*
Y295450D01*
G01X-5450Y290000D02*
X0D01*
G01D02*
X5450D01*
G01X0Y364550D02*
Y370000D01*
G01D02*
Y375450D01*
G01X-5450Y370000D02*
X0D01*
G01D02*
X5450D01*
G01X0Y384550D02*
Y390000D01*
G01X-10000Y380000D02*
X17500D01*
X45000Y352500D01*
Y73160D01*
X76950Y41210D01*
X78790D01*
X80000Y40000D01*
Y35350D01*
G01X0Y390000D02*
Y395450D01*
G01X-5450Y390000D02*
X0D01*
G01D02*
X5450D01*
G01X75000Y17300D02*
X80000Y22300D01*
Y35350D01*
G01X65000Y27300D02*
X62000Y30300D01*
Y35350D01*
G01Y44650D02*
Y49000D01*
G01Y41660D02*
Y44650D01*
G01X58720D02*
X62000D01*
G01D02*
X65280D01*
G01X74550Y70000D02*
X80000D01*
G01X90000Y280000D02*
Y337500D01*
X87500Y340000D01*
X67500D01*
X65000Y337500D01*
Y75000D01*
X82500Y57500D01*
Y49430D01*
X85000Y46930D01*
Y43160D01*
X86950Y41210D01*
X88790D01*
X90000Y40000D01*
Y35350D01*
G01X74550Y90000D02*
X80000D01*
G01X90000Y80000D02*
Y97500D01*
X77500Y110000D01*
Y115000D01*
X80000Y117500D01*
X92500D01*
X95000Y115000D01*
Y107500D01*
X97500Y105000D01*
X105010D01*
X107500Y107490D01*
Y142500D01*
X105000Y145000D01*
X102500D01*
X100000Y142500D01*
Y130010D01*
X97490Y127500D01*
X95000D01*
X92500Y130000D01*
Y142500D01*
X90000Y145000D01*
X87500D01*
X85000Y142500D01*
Y130000D01*
X82500Y127500D01*
X77490D01*
X75000Y129990D01*
Y152500D01*
X80000Y157500D01*
X102500D01*
X107500Y162500D01*
X114990D01*
X117500Y159990D01*
Y55010D01*
X103240Y40750D01*
X101950D01*
X100000Y38800D01*
Y35350D01*
G01X74550Y170000D02*
X80000D01*
G01X74550Y190000D02*
X80000D01*
G01X74550Y270000D02*
X80000D01*
G01X74550Y290000D02*
X80000D01*
G01X74550Y370000D02*
X80000D01*
G01X74550Y390000D02*
X80000D01*
G01X85000Y17300D02*
X90000Y22300D01*
Y35350D01*
G01X80000Y44650D02*
Y47500D01*
G01X90000Y44650D02*
Y47640D01*
G01Y44650D02*
X93280D01*
G01X80000Y64550D02*
Y70000D01*
G01D02*
Y75450D01*
G01Y70000D02*
X85450D01*
G01X80000Y84550D02*
Y90000D01*
G01D02*
Y95450D01*
G01Y90000D02*
X85450D01*
G01X80000Y164550D02*
Y170000D01*
G01D02*
Y175450D01*
G01Y170000D02*
X85450D01*
G01X80000Y184550D02*
Y190000D01*
G01D02*
Y195450D01*
G01Y190000D02*
X85450D01*
G01X80000Y264550D02*
Y270000D01*
G01D02*
Y275450D01*
G01Y270000D02*
X85450D01*
G01X80000Y284550D02*
Y290000D01*
G01D02*
Y295450D01*
G01Y290000D02*
X85450D01*
G01X80000Y364550D02*
Y370000D01*
G01D02*
Y375450D01*
G01Y370000D02*
X85450D01*
G01X80000Y384550D02*
Y390000D01*
G01D02*
Y395450D01*
G01Y390000D02*
X85450D01*
G01X105000Y13330D02*
Y17300D01*
G01D02*
Y21270D01*
G01X101030Y17300D02*
X105000D01*
G01D02*
X108970D01*
G01X95000D02*
X99960Y22260D01*
Y27750D01*
X100000Y27790D01*
Y35350D01*
G01X105000Y23330D02*
Y27300D01*
G01D02*
Y31270D01*
G01Y27300D02*
X108970D01*
G01X100000Y44650D02*
Y47640D01*
G01Y41660D02*
Y44650D01*
G01X96720D02*
X100000D01*
G01D02*
X103280D01*
G01X100000Y64550D02*
Y70000D01*
G01D02*
Y75450D01*
G01X94550Y70000D02*
X100000D01*
G01D02*
X105450D01*
G01X100000Y84550D02*
Y90000D01*
G01D02*
Y95450D01*
G01X94550Y90000D02*
X100000D01*
G01D02*
X105450D01*
G01X100000Y164550D02*
Y170000D01*
G01D02*
Y175450D01*
G01X94550Y170000D02*
X100000D01*
G01D02*
X105450D01*
G01X100000Y184550D02*
Y190000D01*
G01D02*
Y195450D01*
G01X94550Y190000D02*
X100000D01*
G01D02*
X105450D01*
G01X100000Y264550D02*
Y270000D01*
G01D02*
Y275450D01*
G01X94550Y270000D02*
X100000D01*
G01D02*
X105450D01*
G01X100000Y284550D02*
Y290000D01*
G01D02*
Y295450D01*
G01X94550Y290000D02*
X100000D01*
G01D02*
X105450D01*
G01X100000Y364550D02*
Y370000D01*
G01D02*
Y375450D01*
G01X94550Y370000D02*
X100000D01*
G01D02*
X105450D01*
G01X100000Y384550D02*
Y390000D01*
G01D02*
Y395450D01*
G01X94550Y390000D02*
X100000D01*
G01D02*
X105450D01*
G01X180000Y180000D02*
Y229990D01*
X174990Y235000D01*
X162500D01*
X157500Y240000D01*
Y288660D01*
X153660Y292500D01*
X141340D01*
X137500Y288660D01*
Y55000D01*
X151290Y41210D01*
X153790D01*
X155000Y40000D01*
Y35350D01*
G01Y27300D02*
Y35350D01*
G01Y44650D02*
Y47640D01*
G01X151720Y44650D02*
X155000D01*
G01D02*
X158280D01*
G01X175000Y17300D02*
X180000Y22300D01*
Y35350D01*
G01X165000Y17300D02*
X170000Y22300D01*
Y35350D01*
G01X180000Y380000D02*
Y354990D01*
X222500Y312490D01*
Y75010D01*
X204990Y57500D01*
X180000D01*
X177500Y55000D01*
Y48880D01*
X174880Y46260D01*
Y43040D01*
X173050Y41210D01*
X171210D01*
X170000Y40000D01*
Y35350D01*
G01Y44650D02*
Y47500D01*
G01X176720Y44650D02*
X180000D01*
G01X170000Y64550D02*
Y70000D01*
G01D02*
Y75450D01*
G01X164550Y70000D02*
X170000D01*
G01D02*
X175450D01*
G01X170000Y84550D02*
Y90000D01*
G01D02*
Y95450D01*
G01X164550Y90000D02*
X170000D01*
G01D02*
X175450D01*
G01X170000Y164550D02*
Y170000D01*
G01D02*
Y175450D01*
G01X164550Y170000D02*
X170000D01*
G01D02*
X175450D01*
G01X170000Y184550D02*
Y190000D01*
G01D02*
Y195450D01*
G01X164550Y190000D02*
X170000D01*
G01D02*
X175450D01*
G01X170000Y264550D02*
Y270000D01*
G01D02*
Y275450D01*
G01X164550Y270000D02*
X170000D01*
G01D02*
X175450D01*
G01X170000Y284550D02*
Y290000D01*
G01D02*
Y295450D01*
G01X164550Y290000D02*
X170000D01*
G01D02*
X175450D01*
G01X170000Y364550D02*
Y370000D01*
G01Y384550D02*
Y390000D01*
G01Y370000D02*
Y375450D01*
G01X164550Y370000D02*
X170000D01*
G01D02*
X175450D01*
G01X170000Y390000D02*
Y395450D01*
G01X164550Y390000D02*
X170000D01*
G01D02*
X175450D01*
G01X185000Y17300D02*
X191950Y10350D01*
X225000D01*
G01X195000Y13330D02*
Y17300D01*
G01D02*
Y21270D01*
G01X191030Y17300D02*
X195000D01*
G01D02*
X198970D01*
G01X280000Y280000D02*
Y315010D01*
X277510Y317500D01*
X245000D01*
X242500Y315000D01*
Y70010D01*
X217490Y45000D01*
X186930D01*
X183140Y41210D01*
X181210D01*
X180000Y40000D01*
Y35350D01*
G01X195000Y23330D02*
Y27300D01*
G01D02*
Y31270D01*
G01X191030Y27300D02*
X195000D01*
G01D02*
X198970D01*
G01X180000Y47750D02*
Y44650D01*
G01D02*
X183280D01*
G01X190000Y64550D02*
Y70000D01*
G01D02*
Y75450D01*
G01X184550Y70000D02*
X190000D01*
G01D02*
X195450D01*
G01X190000Y84550D02*
Y90000D01*
G01D02*
Y95450D01*
G01X184550Y90000D02*
X190000D01*
G01D02*
X195450D01*
G01X190000Y164550D02*
Y170000D01*
G01D02*
Y175450D01*
G01X184550Y170000D02*
X190000D01*
G01D02*
X195450D01*
G01X190000Y184550D02*
Y190000D01*
G01D02*
Y195450D01*
G01X184550Y190000D02*
X190000D01*
G01D02*
X195450D01*
G01X190000Y264550D02*
Y270000D01*
G01D02*
Y275450D01*
G01Y270000D02*
X195450D01*
G01X190000Y284550D02*
Y290000D01*
G01D02*
Y295450D01*
G01X184550Y290000D02*
X190000D01*
G01D02*
X195450D01*
G01X190000Y364550D02*
Y370000D01*
G01D02*
Y375450D01*
G01X184550Y370000D02*
X190000D01*
G01D02*
X195450D01*
G01X190000Y384550D02*
Y390000D01*
G01D02*
Y395450D01*
G01X184550Y390000D02*
X190000D01*
G01D02*
X195450D01*
G01X280000Y80000D02*
Y97500D01*
X277500Y100000D01*
X275000D01*
X272500Y102500D01*
Y107500D01*
X275000Y110000D01*
X290000D01*
X292500Y112500D01*
Y117500D01*
X290000Y120000D01*
X275000D01*
X272500Y122500D01*
Y127500D01*
X275000Y130000D01*
X290000D01*
X292500Y132500D01*
Y137500D01*
X290000Y140000D01*
X275000D01*
X272500Y142500D01*
Y147500D01*
X275000Y150000D01*
X290000D01*
X292500Y152500D01*
Y157500D01*
X290000Y160000D01*
X265000D01*
X262500Y157500D01*
Y60000D01*
X250000Y47500D01*
Y12500D01*
X247850Y10350D01*
X225000D01*
G01Y19650D02*
Y22640D01*
G01Y16660D02*
Y19650D01*
G01X221720D02*
X225000D01*
G01D02*
X228280D01*
G01X264550Y70000D02*
X270000D01*
G01X264550Y90000D02*
X270000D01*
G01X264550Y170000D02*
X270000D01*
G01X264550Y190000D02*
X270000D01*
G01X264550Y270000D02*
X270000D01*
G01X264550Y290000D02*
X270000D01*
G01X264550Y370000D02*
X270000D01*
G01X264550Y390000D02*
X270000D01*
G01Y64550D02*
Y70000D01*
G01D02*
Y75450D01*
G01Y70000D02*
X275450D01*
G01X270000Y84550D02*
Y90000D01*
G01D02*
Y95450D01*
G01Y90000D02*
X275450D01*
G01X270000Y164550D02*
Y170000D01*
G01D02*
Y175450D01*
G01Y170000D02*
X275450D01*
G01X270000Y184550D02*
Y190000D01*
G01D02*
Y195450D01*
G01Y190000D02*
X275450D01*
G01X270000Y264550D02*
Y270000D01*
G01D02*
Y275450D01*
G01Y270000D02*
X275450D01*
G01X270000Y284550D02*
Y290000D01*
G01D02*
Y295450D01*
G01Y290000D02*
X275450D01*
G01X270000Y364550D02*
Y370000D01*
G01D02*
Y375450D01*
G01Y370000D02*
X275450D01*
G01X270000Y384550D02*
Y390000D01*
G01D02*
Y395450D01*
G01Y390000D02*
X275450D01*
G01X290000Y64550D02*
Y70000D01*
G01D02*
Y75450D01*
G01X284550Y70000D02*
X290000D01*
G01D02*
X295450D01*
G01X290000Y84550D02*
Y90000D01*
G01D02*
Y95450D01*
G01X284550Y90000D02*
X290000D01*
G01D02*
X295450D01*
G01X290000Y164550D02*
Y170000D01*
G01D02*
Y175450D01*
G01X284550Y170000D02*
X290000D01*
G01D02*
X295450D01*
G01X290000Y184550D02*
Y190000D01*
G01D02*
Y195450D01*
G01X284550Y190000D02*
X290000D01*
G01D02*
X295450D01*
G01X290000Y264550D02*
Y270000D01*
G01D02*
Y275450D01*
G01X284550Y270000D02*
X290000D01*
G01D02*
X295450D01*
G01X290000Y284550D02*
Y290000D01*
G01D02*
Y295450D01*
G01X284550Y290000D02*
X290000D01*
G01D02*
X295450D01*
G01X290000Y364550D02*
Y370000D01*
G01D02*
Y375450D01*
G01X284550Y370000D02*
X290000D01*
G01D02*
X295450D01*
G01X290000Y384550D02*
Y390000D01*
G01D02*
Y395450D01*
G01X284550Y390000D02*
X290000D01*
G01D02*
X295450D01*
M02*
