G04 ================== begin FILE IDENTIFICATION RECORD ==================*
G04 Layout Name:  PMOD2BNCSIMPLE_v1_06_62mil_cheap.brd*
G04 Film Name:    TOP*
G04 File Format:  Gerber RS274X*
G04 File Origin:  Cadence Allegro 23.1-P001*
G04 Origin Date:  Sun Dec  3 21:01:37 2023*
G04 *
G04 Layer:  ETCH/TOP*
G04 Layer:  PIN/TOP*
G04 Layer:  VIA CLASS/TOP*
G04 *
G04 Offset:    (0.0000 0.0000)*
G04 Mirror:    No*
G04 Mode:      Positive*
G04 Rotation:  0*
G04 FullContactRelief:  No*
G04 UndefLineWidth:     0.0000*
G04 ================== end FILE IDENTIFICATION RECORD ====================*
%FSLAX55Y55*MOIN*%
%IR0*IPPOS*OFA0.00000B0.00000*MIA0B0*SFA1.00000B1.00000*%
%ADD12C,.02*%
%ADD10C,.05*%
%ADD15R,.0512X.0453*%
%ADD14C,.065*%
%ADD16R,.065X.065*%
%ADD11C,.0945*%
%ADD13R,.0886X.0886*%
%ADD17C,.0134*%
%ADD20C,.105*%
%ADD18R,.4004X.4004*%
%ADD19C,.0754*%
G75*
%LPD*%
G75*
G36*
G01X-37990Y450000D02*
X-30000Y457990D01*
X300000D01*
X307990Y450000D01*
Y410000D01*
X297990Y400000D01*
Y60000D01*
X307990Y50000D01*
Y10000D01*
X300000Y2010D01*
X-30000D01*
X-37990Y10000D01*
Y50000D01*
X-27990Y60000D01*
Y400000D01*
X-37990Y410000D01*
Y450000D01*
G37*
%LPC*%
G75*
G36*
G01X184930Y268650D02*
G02Y271370I699J1360D01*
G02X190000Y275250I5070J-1372D01*
G02Y264750I0J-5250D01*
G02X184930Y268650I0J5246D01*
G37*
G36*
G01X275050Y375570D02*
Y384430D01*
G02X275570Y384950I520J0D01*
G01X284430D01*
G02X284950Y384430I0J-520D01*
G01Y375570D01*
G02X284430Y375050I-520J0D01*
G01X275570D01*
G02X275050Y375570I0J520D01*
G37*
G36*
G01X85050D02*
Y384430D01*
G02X85570Y384950I520J0D01*
G01X94430D01*
G02X94950Y384430I0J-520D01*
G01Y375570D01*
G02X94430Y375050I-520J0D01*
G01X85570D01*
G02X85050Y375570I0J520D01*
G37*
G36*
G01X175050Y275570D02*
Y284430D01*
G02X175570Y284950I520J0D01*
G01X184430D01*
G02X184950Y284430I0J-520D01*
G01Y275570D01*
G02X184430Y275050I-520J0D01*
G01X175570D01*
G02X175050Y275570I0J520D01*
G37*
G36*
G01X-14950D02*
Y284430D01*
G02X-14430Y284950I520J0D01*
G01X-5570D01*
G02X-5050Y284430I0J-520D01*
G01Y275570D01*
G02X-5570Y275050I-520J0D01*
G01X-14430D01*
G02X-14950Y275570I0J520D01*
G37*
G36*
G01X275050Y175570D02*
Y184430D01*
G02X275570Y184950I520J0D01*
G01X284430D01*
G02X284950Y184430I0J-520D01*
G01Y175570D01*
G02X284430Y175050I-520J0D01*
G01X275570D01*
G02X275050Y175570I0J520D01*
G37*
G36*
G01X85050D02*
Y184430D01*
G02X85570Y184950I520J0D01*
G01X94430D01*
G02X94950Y184430I0J-520D01*
G01Y175570D01*
G02X94430Y175050I-520J0D01*
G01X85570D01*
G02X85050Y175570I0J520D01*
G37*
G36*
G01X175050Y75570D02*
Y84430D01*
G02X175570Y84950I520J0D01*
G01X184430D01*
G02X184950Y84430I0J-520D01*
G01Y75570D01*
G02X184430Y75050I-520J0D01*
G01X175570D01*
G02X175050Y75570I0J520D01*
G37*
G36*
G01X-14950D02*
Y84430D01*
G02X-14430Y84950I520J0D01*
G01X-5570D01*
G02X-5050Y84430I0J-520D01*
G01Y75570D01*
G02X-5570Y75050I-520J0D01*
G01X-14430D01*
G02X-14950Y75570I0J520D01*
G37*
G36*
G01X201230Y24050D02*
Y30550D01*
G02X201750Y31070I520J0D01*
G01X208250D01*
G02X208770Y30550I0J-520D01*
G01Y24050D01*
G02X208250Y23530I-520J0D01*
G01X201750D01*
G02X201230Y24050I0J520D01*
G37*
G36*
G01X111230D02*
Y30550D01*
G02X111750Y31070I520J0D01*
G01X118250D01*
G02X118770Y30550I0J-520D01*
G01Y24050D01*
G02X118250Y23530I-520J0D01*
G01X111750D01*
G02X111230Y24050I0J520D01*
G37*
G36*
G01X221920Y17380D02*
Y21920D01*
G02X222440Y22440I520J0D01*
G01X227560D01*
G02X228080Y21920I0J-520D01*
G01Y17380D01*
G02X227560Y16860I-520J0D01*
G01X222440D01*
G02X221920Y17380I0J520D01*
G37*
G36*
G01X11090Y288260D02*
X14240Y291410D01*
G02X15650Y291990I1410J-1424D01*
G01X21850D01*
G02X23260Y291410I0J-2004D01*
G01X26410Y288260D01*
G02X26990Y286850I-1424J-1410D01*
G01Y70820D01*
X55820Y41990D01*
X56920D01*
Y46920D01*
G02X57440Y47440I520J0D01*
G01X62560D01*
G02X63080Y46920I0J-520D01*
G01Y42380D01*
G02X62560Y41860I-520J0D01*
G01X60710D01*
G03X60430Y41180I3J-399D01*
G01X61410Y40210D01*
G02X61990Y38800I-1424J-1410D01*
G01Y38140D01*
X62560D01*
G02X63080Y37620I0J-520D01*
G01Y33080D01*
G02X62930Y32720I-520J5D01*
G03X62940Y32160I292J-275D01*
G01X63420Y31680D01*
X63430D01*
G02X63550Y31570I-1285J-1523D01*
G01X64140Y30970D01*
X64250Y30990D01*
G02X65000Y31070I773J-3688D01*
G02X61230Y27300I0J-3770D01*
G02X61310Y28050I3768J-23D01*
G01X61330Y28160D01*
X60850Y28640D01*
G02X60720Y28750I1219J1572D01*
G01X58590Y30880D01*
G02X58010Y32290I1424J1410D01*
G01Y32560D01*
X57440D01*
G02X56920Y33080I0J520D01*
G01Y38010D01*
X55000D01*
G02X53590Y38590I0J2004D01*
G01X23590Y68590D01*
G02X23010Y70000I1424J1410D01*
G01Y286030D01*
X21030Y288010D01*
X16470D01*
X14490Y286030D01*
Y260000D01*
G02X13910Y258590I-2004J0D01*
G01X11410Y256090D01*
G02X10000Y255510I-1410J1424D01*
G01X-6680D01*
X-8010Y254180D01*
Y184950D01*
X-5570D01*
G02X-5050Y184430I0J-520D01*
G01Y175570D01*
G02X-5570Y175050I-520J0D01*
G01X-14430D01*
G02X-14950Y175570I0J520D01*
G01Y184430D01*
G02X-14430Y184950I520J0D01*
G01X-11990D01*
Y255000D01*
G02X-11410Y256410I2004J0D01*
G01X-8910Y258910D01*
G02X-7500Y259490I1410J-1424D01*
G01X9180D01*
X10510Y260820D01*
Y286850D01*
G02X11090Y288260I2004J0D01*
G37*
G36*
G01X136090Y290070D02*
X139930Y293910D01*
G02X141340Y294490I1410J-1424D01*
G01X153660D01*
G02X155070Y293910I0J-2004D01*
G01X158910Y290070D01*
G02X159490Y288660I-1424J-1410D01*
G01Y240820D01*
X163320Y236990D01*
X174990D01*
G02X176400Y236410I0J-2004D01*
G01X181410Y231400D01*
G02X181990Y229990I-1424J-1410D01*
G01Y184950D01*
X184430D01*
G02X184950Y184430I0J-520D01*
G01Y175570D01*
G02X184430Y175050I-520J0D01*
G01X175570D01*
G02X175050Y175570I0J520D01*
G01Y184430D01*
G02X175570Y184950I520J0D01*
G01X178010D01*
Y229170D01*
X174170Y233010D01*
X162500D01*
G02X161090Y233590I0J2004D01*
G01X156090Y238590D01*
G02X155510Y240000I1424J1410D01*
G01Y287840D01*
X152840Y290510D01*
X142160D01*
X139490Y287840D01*
Y55820D01*
X151240Y44080D01*
G03X151920Y44360I282J282D01*
G01Y46920D01*
G02X152440Y47440I520J0D01*
G01X157560D01*
G02X158080Y46920I0J-520D01*
G01Y42380D01*
G02X157560Y41860I-520J0D01*
G01X156890D01*
G03X156570Y41220I-3J-399D01*
G02X156990Y40000I-1562J-1220D01*
G01Y38140D01*
X157560D01*
G02X158080Y37620I0J-520D01*
G01Y33080D01*
G02X157560Y32560I-520J0D01*
G01X156990D01*
Y30500D01*
G02X158770Y27300I-1986J-3200D01*
G02X151230I-3770J0D01*
G02X153010Y30500I3766J0D01*
G01Y32560D01*
X152440D01*
G02X151920Y33080I0J520D01*
G01Y37620D01*
G02X152440Y38140I520J0D01*
G01X153010D01*
Y39180D01*
X152970Y39220D01*
X151290D01*
G02X149880Y39800I0J2004D01*
G01X136090Y53590D01*
G02X135510Y55000I1424J1410D01*
G01Y288660D01*
G02X136090Y290070I2004J0D01*
G37*
G36*
G01X77440Y47440D02*
X80720D01*
G03X81020Y48100I0J398D01*
G02X80510Y49430I1479J1330D01*
G01Y56680D01*
X63590Y73590D01*
G02X63010Y75000I1424J1410D01*
G01Y337500D01*
G02X63590Y338910I2004J0D01*
G01X66090Y341410D01*
G02X67500Y341990I1410J-1424D01*
G01X87500D01*
G02X88910Y341410I0J-2004D01*
G01X91410Y338910D01*
G02X91990Y337500I-1424J-1410D01*
G01Y284950D01*
X94430D01*
G02X94950Y284430I0J-520D01*
G01Y275570D01*
G02X94430Y275050I-520J0D01*
G01X85570D01*
G02X85050Y275570I0J520D01*
G01Y284430D01*
G02X85570Y284950I520J0D01*
G01X88010D01*
Y336680D01*
X86680Y338010D01*
X68320D01*
X66990Y336680D01*
Y75820D01*
X74170Y68640D01*
G03X74850Y69000I285J283D01*
G02X74750Y70000I5148J1020D01*
G02X80000Y64750I5250J0D01*
G02X79000Y64850I20J5248D01*
G03X78640Y64170I-77J-395D01*
G01X83910Y58910D01*
G02X84490Y57500I-1424J-1410D01*
G01Y50250D01*
X86410Y48340D01*
G02X86850Y47660I-1417J-1399D01*
G03X87320Y47420I372J148D01*
G02X87440Y47440I145J-501D01*
G01X92560D01*
G02X93080Y46920I0J-520D01*
G01Y42380D01*
G02X92560Y41860I-520J0D01*
G01X91890D01*
G03X91570Y41220I-3J-399D01*
G02X91990Y40000I-1562J-1220D01*
G01Y38140D01*
X92560D01*
G02X93080Y37620I0J-520D01*
G01Y33080D01*
G02X92560Y32560I-520J0D01*
G01X91990D01*
Y30550D01*
G03X92640Y30240I400J2D01*
G02X97360I2360J-2940D01*
G03X98010Y30550I250J312D01*
G01Y32560D01*
X97440D01*
G02X96920Y33080I0J520D01*
G01Y37620D01*
G02X97440Y38140I520J0D01*
G01X98010D01*
Y38800D01*
G02X98590Y40210I2004J0D01*
G01X99570Y41180D01*
G03X99290Y41860I-283J281D01*
G01X97440D01*
G02X96920Y42380I0J520D01*
G01Y46920D01*
G02X97440Y47440I520J0D01*
G01X102560D01*
G02X103080Y46920I0J-520D01*
G01Y44370D01*
G03X103760Y44090I398J2D01*
G01X115510Y55830D01*
Y159170D01*
X114170Y160510D01*
X108320D01*
X103910Y156090D01*
G02X102500Y155510I-1410J1424D01*
G01X80820D01*
X76990Y151680D01*
Y130810D01*
X78310Y129490D01*
X81680D01*
X83010Y130820D01*
Y142500D01*
G02X83590Y143910I2004J0D01*
G01X86090Y146410D01*
G02X87500Y146990I1410J-1424D01*
G01X90000D01*
G02X91410Y146410I0J-2004D01*
G01X93910Y143910D01*
G02X94490Y142500I-1424J-1410D01*
G01Y130820D01*
X95820Y129490D01*
X96670D01*
X98010Y130830D01*
Y142500D01*
G02X98590Y143910I2004J0D01*
G01X101090Y146410D01*
G02X102500Y146990I1410J-1424D01*
G01X105000D01*
G02X106410Y146410I0J-2004D01*
G01X108910Y143910D01*
G02X109490Y142500I-1424J-1410D01*
G01Y107490D01*
G02X108910Y106080I-2004J0D01*
G01X106420Y103590D01*
G02X105010Y103010I-1410J1424D01*
G01X97500D01*
G02X96090Y103590I0J2004D01*
G01X93590Y106090D01*
G02X93010Y107500I1424J1410D01*
G01Y114180D01*
X91680Y115510D01*
X80820D01*
X79490Y114180D01*
Y110820D01*
X91410Y98910D01*
G02X91990Y97500I-1424J-1410D01*
G01Y84950D01*
X94430D01*
G02X94950Y84430I0J-520D01*
G01Y75570D01*
G02X94430Y75050I-520J0D01*
G01X85570D01*
G02X85050Y75570I0J520D01*
G01Y84430D01*
G02X85570Y84950I520J0D01*
G01X88010D01*
Y96680D01*
X76090Y108590D01*
G02X75510Y110000I1424J1410D01*
G01Y115000D01*
G02X76090Y116410I2004J0D01*
G01X78590Y118910D01*
G02X80000Y119490I1410J-1424D01*
G01X92500D01*
G02X93910Y118910I0J-2004D01*
G01X96410Y116410D01*
G02X96990Y115000I-1424J-1410D01*
G01Y108320D01*
X98320Y106990D01*
X104190D01*
X105510Y108310D01*
Y141680D01*
X104180Y143010D01*
X103320D01*
X101990Y141680D01*
Y130010D01*
G02X101410Y128600I-2004J0D01*
G01X98900Y126090D01*
G02X97490Y125510I-1410J1424D01*
G01X95000D01*
G02X93590Y126090I0J2004D01*
G01X91090Y128590D01*
G02X90510Y130000I1424J1410D01*
G01Y141680D01*
X89180Y143010D01*
X88320D01*
X86990Y141680D01*
Y130000D01*
G02X86410Y128590I-2004J0D01*
G01X83910Y126090D01*
G02X82500Y125510I-1410J1424D01*
G01X77490D01*
G02X76080Y126090I0J2004D01*
G01X73590Y128580D01*
G02X73010Y129990I1424J1410D01*
G01Y152500D01*
G02X73590Y153910I2004J0D01*
G01X78590Y158910D01*
G02X80000Y159490I1410J-1424D01*
G01X101680D01*
X106090Y163910D01*
G02X107500Y164490I1410J-1424D01*
G01X114990D01*
G02X116400Y163910I0J-2004D01*
G01X118910Y161400D01*
G02X119490Y159990I-1424J-1410D01*
G01Y55010D01*
G02X118910Y53600I-2004J0D01*
G01X104650Y39340D01*
G02X103240Y38760I-1410J1424D01*
G01X102770D01*
X102350Y38330D01*
X102540Y38140D01*
X102610Y38130D01*
G02X103080Y37620I-49J-517D01*
G01Y33080D01*
G02X102560Y32560I-520J0D01*
G01X101990D01*
Y30550D01*
G03X102640Y30240I400J2D01*
G02X105000Y31070I2360J-2940D01*
G02Y23530I0J-3770D01*
G02X102600Y24390I0J3779D01*
G03X101950Y24080I-251J-310D01*
G01Y22260D01*
G02X101370Y20850I-2004J0D01*
G01X98670Y18160D01*
X98690Y18050D01*
G02X98770Y17300I-3688J-773D01*
G02X95000Y21070I-3770J0D01*
G02X95750Y20990I-23J-3768D01*
G01X95860Y20970D01*
X97970Y23080D01*
Y24020D01*
G03X97320Y24330I-400J-3D01*
G02X95000Y23530I-2320J2964D01*
G02X92640Y24360I0J3770D01*
G03X91990Y24050I-250J-312D01*
G01Y22300D01*
G02X91410Y20890I-2004J0D01*
G01X88670Y18160D01*
X88690Y18050D01*
G02X88770Y17300I-3688J-773D01*
G02X85000Y21070I-3770J0D01*
G02X85750Y20990I-23J-3768D01*
G01X85860Y20970D01*
X88010Y23120D01*
Y24050D01*
G03X87360Y24360I-400J-2D01*
G02X82640I-2360J2940D01*
G03X81990Y24050I-250J-312D01*
G01Y22300D01*
G02X81410Y20890I-2004J0D01*
G01X78670Y18160D01*
X78690Y18050D01*
G02X78770Y17300I-3688J-773D01*
G02X75000Y21070I-3770J0D01*
G02X75750Y20990I-23J-3768D01*
G01X75860Y20970D01*
X78010Y23120D01*
Y24050D01*
G03X77360Y24360I-400J-2D01*
G02X75000Y23530I-2360J2940D01*
G02Y31070I0J3770D01*
G02X77360Y30240I0J-3770D01*
G03X78010Y30550I250J312D01*
G01Y32560D01*
X77440D01*
G02X76920Y33080I0J520D01*
G01Y37620D01*
G02X77440Y38140I520J0D01*
G01X78010D01*
Y39180D01*
X77970Y39220D01*
X76950D01*
G02X75540Y39800I0J2004D01*
G01X43590Y71750D01*
G02X43010Y73160I1424J1410D01*
G01Y351680D01*
X16680Y378010D01*
X-5050D01*
Y375570D01*
G02X-5570Y375050I-520J0D01*
G01X-14430D01*
G02X-14950Y375570I0J520D01*
G01Y384430D01*
G02X-14430Y384950I520J0D01*
G01X-5570D01*
G02X-5050Y384430I0J-520D01*
G01Y381990D01*
X17500D01*
G02X18910Y381410I0J-2004D01*
G01X46410Y353910D01*
G02X46990Y352500I-1424J-1410D01*
G01Y73980D01*
X76240Y44740D01*
G03X76920Y45020I282J282D01*
G01Y46920D01*
G02X77440Y47440I520J0D01*
G37*
G36*
G01X175050Y375570D02*
Y384430D01*
G02X175570Y384950I520J0D01*
G01X184430D01*
G02X184950Y384430I0J-520D01*
G01Y375570D01*
G02X184430Y375050I-520J0D01*
G01X181990D01*
Y355810D01*
X223910Y313900D01*
G02X224490Y312490I-1424J-1410D01*
G01Y75010D01*
G02X223910Y73600I-2004J0D01*
G01X206400Y56090D01*
G02X204990Y55510I-1410J1424D01*
G01X180820D01*
X179490Y54180D01*
Y48880D01*
G02X179290Y48010I-1992J0D01*
G03X179650Y47440I359J-172D01*
G01X182560D01*
G02X183080Y46920I0J-520D01*
G01Y44930D01*
G03X183760Y44650I398J2D01*
G01X185520Y46410D01*
G02X186930Y46990I1410J-1424D01*
G01X216670D01*
X240510Y70830D01*
Y315000D01*
G02X241090Y316410I2004J0D01*
G01X243590Y318910D01*
G02X245000Y319490I1410J-1424D01*
G01X277510D01*
G02X278920Y318910I0J-2004D01*
G01X281410Y316420D01*
G02X281990Y315010I-1424J-1410D01*
G01Y284950D01*
X284430D01*
G02X284950Y284430I0J-520D01*
G01Y275570D01*
G02X284430Y275050I-520J0D01*
G01X275570D01*
G02X275050Y275570I0J520D01*
G01Y284430D01*
G02X275570Y284950I520J0D01*
G01X278010D01*
Y314190D01*
X276690Y315510D01*
X245820D01*
X244490Y314180D01*
Y70010D01*
G02X243910Y68600I-2004J0D01*
G01X218900Y43590D01*
G02X217490Y43010I-1410J1424D01*
G01X187750D01*
X184550Y39800D01*
G02X183140Y39220I-1410J1424D01*
G01X182030D01*
X181990Y39180D01*
Y38140D01*
X182560D01*
G02X183080Y37620I0J-520D01*
G01Y33080D01*
G02X182560Y32560I-520J0D01*
G01X181990D01*
Y30550D01*
G03X182640Y30240I400J2D01*
G02X185000Y31070I2360J-2940D01*
G02Y23530I0J-3770D01*
G02X182640Y24360I0J3770D01*
G03X181990Y24050I-250J-312D01*
G01Y22300D01*
G02X181410Y20890I-2004J0D01*
G01X178670Y18160D01*
X178690Y18050D01*
G02X178770Y17300I-3688J-773D01*
G02X175000Y21070I-3770J0D01*
G02X175750Y20990I-23J-3768D01*
G01X175860Y20970D01*
X178010Y23120D01*
Y24050D01*
G03X177360Y24360I-400J-2D01*
G02X172640I-2360J2940D01*
G03X171990Y24050I-250J-312D01*
G01Y22300D01*
G02X171410Y20890I-2004J0D01*
G01X168670Y18160D01*
X168690Y18050D01*
G02X168770Y17300I-3688J-773D01*
G02X165000Y21070I-3770J0D01*
G02X165750Y20990I-23J-3768D01*
G01X165860Y20970D01*
X168010Y23120D01*
Y24050D01*
G03X167360Y24360I-400J-2D01*
G02X165000Y23530I-2360J2940D01*
G02Y31070I0J3770D01*
G02X167360Y30240I0J-3770D01*
G03X168010Y30550I250J312D01*
G01Y32560D01*
X167440D01*
G02X166920Y33080I0J520D01*
G01Y37620D01*
G02X167440Y38140I520J0D01*
G01X168010D01*
Y40000D01*
G02X168430Y41220I1982J0D01*
G03X168110Y41860I-317J241D01*
G01X167440D01*
G02X166920Y42380I0J520D01*
G01Y46920D01*
G02X167440Y47440I520J0D01*
G01X172560D01*
G02X172800Y47370I-21J-519D01*
G03X173310Y47480I190J354D01*
G02X173470Y47670I1600J-1185D01*
G01X175510Y49700D01*
Y55000D01*
G02X176090Y56410I2004J0D01*
G01X178590Y58910D01*
G02X180000Y59490I1410J-1424D01*
G01X204170D01*
X220510Y75830D01*
Y311670D01*
X178590Y353580D01*
G02X178010Y354990I1424J1410D01*
G01Y375050D01*
X175570D01*
G02X175050Y375570I0J520D01*
G37*
G36*
G01X265000Y161990D02*
X290000D01*
G02X291410Y161410I0J-2004D01*
G01X293910Y158910D01*
G02X294490Y157500I-1424J-1410D01*
G01Y152500D01*
G02X293910Y151090I-2004J0D01*
G01X291410Y148590D01*
G02X290000Y148010I-1410J1424D01*
G01X275820D01*
X274490Y146680D01*
Y143320D01*
X275820Y141990D01*
X290000D01*
G02X291410Y141410I0J-2004D01*
G01X293910Y138910D01*
G02X294490Y137500I-1424J-1410D01*
G01Y132500D01*
G02X293910Y131090I-2004J0D01*
G01X291410Y128590D01*
G02X290000Y128010I-1410J1424D01*
G01X275820D01*
X274490Y126680D01*
Y123320D01*
X275820Y121990D01*
X290000D01*
G02X291410Y121410I0J-2004D01*
G01X293910Y118910D01*
G02X294490Y117500I-1424J-1410D01*
G01Y112500D01*
G02X293910Y111090I-2004J0D01*
G01X291410Y108590D01*
G02X290000Y108010I-1410J1424D01*
G01X275820D01*
X274490Y106680D01*
Y103320D01*
X275820Y101990D01*
X277500D01*
G02X278910Y101410I0J-2004D01*
G01X281410Y98910D01*
G02X281990Y97500I-1424J-1410D01*
G01Y84950D01*
X284430D01*
G02X284950Y84430I0J-520D01*
G01Y75570D01*
G02X284430Y75050I-520J0D01*
G01X275570D01*
G02X275050Y75570I0J520D01*
G01Y84430D01*
G02X275570Y84950I520J0D01*
G01X278010D01*
Y96680D01*
X276680Y98010D01*
X275000D01*
G02X273590Y98590I0J2004D01*
G01X271090Y101090D01*
G02X270510Y102500I1424J1410D01*
G01Y107500D01*
G02X271090Y108910I2004J0D01*
G01X273590Y111410D01*
G02X275000Y111990I1410J-1424D01*
G01X289180D01*
X290510Y113320D01*
Y116680D01*
X289180Y118010D01*
X275000D01*
G02X273590Y118590I0J2004D01*
G01X271090Y121090D01*
G02X270510Y122500I1424J1410D01*
G01Y127500D01*
G02X271090Y128910I2004J0D01*
G01X273590Y131410D01*
G02X275000Y131990I1410J-1424D01*
G01X289180D01*
X290510Y133320D01*
Y136680D01*
X289180Y138010D01*
X275000D01*
G02X273590Y138590I0J2004D01*
G01X271090Y141090D01*
G02X270510Y142500I1424J1410D01*
G01Y147500D01*
G02X271090Y148910I2004J0D01*
G01X273590Y151410D01*
G02X275000Y151990I1410J-1424D01*
G01X289180D01*
X290510Y153320D01*
Y156680D01*
X289180Y158010D01*
X265820D01*
X264490Y156680D01*
Y92410D01*
G03X265250Y92240I399J1D01*
G02X270000Y95250I4750J-2243D01*
G02Y84750I0J-5250D01*
G02X265250Y87760I0J5253D01*
G03X264490Y87590I-361J-171D01*
G01Y72410D01*
G03X265250Y72240I399J1D01*
G02X270000Y75250I4750J-2243D01*
G02Y64750I0J-5250D01*
G02X265250Y67760I0J5253D01*
G03X264490Y67590I-361J-171D01*
G01Y60000D01*
G02X263910Y58590I-2004J0D01*
G01X251990Y46680D01*
Y12500D01*
G02X251410Y11090I-2004J0D01*
G01X249260Y8940D01*
G02X247850Y8360I-1410J1424D01*
G01X228080D01*
Y8080D01*
G02X227560Y7560I-520J0D01*
G01X222440D01*
G02X221920Y8080I0J520D01*
G01Y8360D01*
X191950D01*
G02X190540Y8940I0J2004D01*
G01X185860Y13630D01*
X185750Y13610D01*
G02X185000Y13530I-773J3688D01*
G02X188770Y17300I0J3770D01*
G02X188690Y16550I-3768J23D01*
G01X188670Y16440D01*
X192770Y12340D01*
X221920D01*
Y12620D01*
G02X222440Y13140I520J0D01*
G01X227560D01*
G02X228080Y12620I0J-520D01*
G01Y12340D01*
X247030D01*
X248010Y13320D01*
Y47500D01*
G02X248590Y48910I2004J0D01*
G01X260510Y60820D01*
Y157500D01*
G02X261090Y158910I2004J0D01*
G01X263590Y161410D01*
G02X265000Y161990I1410J-1424D01*
G37*
G54D20*
X-20000Y70000D03*
X0D03*
X100000D03*
X170000D03*
X190000D03*
X290000D03*
X-20000Y90000D03*
X0D03*
X80000D03*
X100000D03*
X170000D03*
X190000D03*
X290000D03*
X-20000Y170000D03*
X0D03*
X80000D03*
X100000D03*
X170000D03*
X190000D03*
X270000D03*
X290000D03*
X-20000Y190000D03*
X0D03*
X80000D03*
X100000D03*
X170000D03*
X190000D03*
X270000D03*
X290000D03*
X-20000Y270000D03*
X0D03*
X80000D03*
X100000D03*
X170000D03*
X270000D03*
X290000D03*
X-20000Y290000D03*
X0D03*
X80000D03*
X100000D03*
X170000D03*
X190000D03*
X270000D03*
X290000D03*
X-20000Y370000D03*
X0D03*
X80000D03*
X100000D03*
X170000D03*
X190000D03*
X270000D03*
X290000D03*
X-20000Y390000D03*
X0D03*
X80000D03*
X100000D03*
X170000D03*
X190000D03*
X270000D03*
X290000D03*
G54D18*
X-10000Y30000D03*
X280000D03*
X-10000Y430000D03*
X280000D03*
G54D19*
X65000Y17300D03*
X105000D03*
X115000D03*
X155000D03*
X195000D03*
X205000D03*
X195000Y27300D03*
%LPD*%
G75*
G54D10*
X-10000Y30000D03*
Y430000D03*
X280000Y30000D03*
Y430000D03*
G54D11*
X-20000Y70000D03*
Y90000D03*
Y170000D03*
Y190000D03*
Y270000D03*
Y290000D03*
Y370000D03*
Y390000D03*
X0Y70000D03*
Y90000D03*
Y170000D03*
Y190000D03*
Y270000D03*
Y290000D03*
Y370000D03*
Y390000D03*
X80000Y70000D03*
Y90000D03*
Y170000D03*
Y190000D03*
Y270000D03*
Y290000D03*
Y370000D03*
Y390000D03*
X100000Y70000D03*
Y90000D03*
Y170000D03*
Y190000D03*
Y270000D03*
Y290000D03*
Y370000D03*
Y390000D03*
X170000Y70000D03*
Y90000D03*
Y170000D03*
Y190000D03*
Y270000D03*
Y290000D03*
Y370000D03*
Y390000D03*
X190000Y70000D03*
Y90000D03*
Y170000D03*
Y190000D03*
Y270000D03*
Y290000D03*
Y370000D03*
Y390000D03*
X270000Y70000D03*
Y90000D03*
Y170000D03*
Y190000D03*
Y270000D03*
Y290000D03*
Y370000D03*
Y390000D03*
X290000Y70000D03*
Y90000D03*
Y170000D03*
Y190000D03*
Y270000D03*
Y290000D03*
Y370000D03*
Y390000D03*
G54D12*
X-12500Y72500D03*
X-17500Y82500D03*
Y77500D03*
X-15000Y105000D03*
X-24970Y100600D03*
X-23980Y110550D03*
X-15000Y125000D03*
X-15040Y115030D03*
X-24000Y119470D03*
X-15000Y145000D03*
X-24970Y129420D03*
X-16690Y135030D03*
X-24970Y140640D03*
X-23950Y150580D03*
X-14970Y154990D03*
X-17500Y177500D03*
X-12500Y172500D03*
X-17500Y182500D03*
X-14970Y197280D03*
Y207280D03*
Y217280D03*
Y227280D03*
Y237280D03*
Y247280D03*
X-14750Y257280D03*
X-17500Y277500D03*
Y282500D03*
X-12500Y272500D03*
X-14970Y300000D03*
Y310000D03*
X-14550Y329990D03*
X-14970Y320000D03*
X-17000Y378000D03*
Y382000D03*
X-12000Y387000D03*
Y373000D03*
X-9000Y61000D03*
X-7500Y72500D03*
X-2500Y77500D03*
Y82500D03*
X-5030Y98640D03*
X-7030Y108440D03*
X-5000Y115000D03*
X-7500Y122500D03*
X-7560Y127910D03*
X-2470Y121510D03*
X2590Y112880D03*
X-5030Y137580D03*
X-2470Y140070D03*
X1260Y130790D03*
X-8330Y162470D03*
X1670D03*
X-8510Y146960D03*
X-210Y152530D03*
X-2500Y177500D03*
X-7500Y172500D03*
X-2500Y182500D03*
X-5030Y195130D03*
Y205130D03*
Y215130D03*
Y225130D03*
Y235130D03*
Y245130D03*
X1700Y252530D03*
X-6200Y262470D03*
X3800D03*
X-2500Y282500D03*
Y277500D03*
X-7500Y272500D03*
X-5030Y300000D03*
Y310000D03*
X-1230Y327250D03*
X-5030Y320000D03*
X2090Y337970D03*
X-7480Y337060D03*
X-8000Y387000D03*
Y373000D03*
X23440Y5030D03*
X13610Y6860D03*
X22530Y17190D03*
X21970Y26860D03*
Y36860D03*
X19970Y56860D03*
Y46860D03*
X10030Y56200D03*
Y66200D03*
X20030Y70360D03*
X10030Y86200D03*
Y76200D03*
X20030Y80360D03*
X19000Y90990D03*
X10030Y106200D03*
Y96200D03*
X20030Y110360D03*
Y100360D03*
X11690Y122470D03*
X19000Y121000D03*
X10000Y133000D03*
X10030Y142470D03*
X20030Y140360D03*
X11670Y162470D03*
X9790Y152470D03*
X20030Y160360D03*
Y150360D03*
Y170360D03*
Y190360D03*
Y180360D03*
Y200360D03*
X19000Y210990D03*
X20030Y230360D03*
Y220360D03*
X19000Y240990D03*
X11700Y252530D03*
X17470Y260700D03*
X20030Y250360D03*
X17470Y270700D03*
X20030Y280360D03*
X7530Y271750D03*
Y281750D03*
X10050Y291430D03*
X19400Y294970D03*
X20000Y305000D03*
X7500D03*
X20000Y317500D03*
X7500D03*
X18740Y328030D03*
X8740D03*
X22090Y337970D03*
X12090D03*
X21000Y361000D03*
X19250Y371220D03*
X10000Y375030D03*
X19990Y384540D03*
X10000Y384970D03*
X21000Y391000D03*
Y421000D03*
Y451000D03*
X32080Y10060D03*
X32470Y20050D03*
Y30050D03*
X32860Y55120D03*
X29730Y44260D03*
X39000Y62500D03*
X25780Y62190D03*
X31290Y70740D03*
X29970Y90650D03*
Y80650D03*
X39970Y80680D03*
Y90680D03*
X29970Y100650D03*
X39970Y100680D03*
X29970Y120650D03*
Y110650D03*
X39970Y110680D03*
Y120680D03*
X29970Y140650D03*
Y130650D03*
X39970Y130680D03*
Y140680D03*
X29970Y160650D03*
Y150650D03*
X39970Y150680D03*
Y160680D03*
X29970Y170650D03*
X39970Y170680D03*
X29970Y190650D03*
Y180650D03*
X39970Y180680D03*
Y190680D03*
X29970Y210650D03*
Y200650D03*
X39970Y200680D03*
Y210680D03*
X29970Y230650D03*
Y220650D03*
X39970Y220680D03*
Y230680D03*
X29970Y240650D03*
X39970Y240680D03*
X29970Y260650D03*
Y250650D03*
X39970Y250680D03*
Y260680D03*
X29970Y280650D03*
Y270650D03*
X39970Y270680D03*
Y280680D03*
X28360Y290520D03*
X30030Y297300D03*
X39970Y290680D03*
Y300680D03*
X30030Y307300D03*
Y317300D03*
X39970Y310680D03*
X28320Y325160D03*
X39970Y320680D03*
X38900Y330630D03*
X40030Y339600D03*
Y349600D03*
X31830Y337700D03*
X33390Y357080D03*
X26320Y364150D03*
X41200Y363320D03*
X34130Y370400D03*
X40030Y371700D03*
X27060Y377470D03*
X57520Y22770D03*
X57500Y22820D03*
X42530Y23710D03*
X47770Y15200D03*
X57500Y12880D03*
X52500Y27500D03*
X55000Y32500D03*
X47500Y40000D03*
X41780Y33690D03*
X55040Y35030D03*
X54000Y47500D03*
X46500Y55000D03*
X55420Y57110D03*
X41710Y44970D03*
X42280Y71250D03*
X48350Y64180D03*
X54430Y68760D03*
X49970Y76400D03*
Y86400D03*
Y96400D03*
Y106400D03*
Y116400D03*
Y126400D03*
Y136400D03*
Y146400D03*
Y156400D03*
Y166400D03*
Y176400D03*
Y186400D03*
Y196400D03*
Y206400D03*
Y216400D03*
Y226400D03*
Y236400D03*
Y246400D03*
Y256400D03*
Y266400D03*
Y276400D03*
Y286400D03*
Y296400D03*
Y306400D03*
Y316400D03*
Y326400D03*
Y336400D03*
Y346400D03*
X55490Y364040D03*
X48270Y356250D03*
X56400Y380030D03*
X49970Y372370D03*
X41980Y381510D03*
X49050Y388580D03*
X51000Y421000D03*
Y451000D03*
X70000Y10000D03*
X62500D03*
X64970Y35350D03*
X75000Y52500D03*
X60000D03*
X75000Y50000D03*
X60000D03*
X68570Y54620D03*
X65000Y45000D03*
X61500Y61690D03*
X69970Y86990D03*
X70040Y76990D03*
X59970Y85090D03*
X74150Y106320D03*
X69970Y106990D03*
Y96990D03*
X59970Y105090D03*
Y95090D03*
X69970Y126990D03*
Y116990D03*
X59970Y125090D03*
Y115090D03*
X69970Y136990D03*
X59970Y145090D03*
Y135090D03*
X69970Y156990D03*
Y146990D03*
X59970Y155090D03*
X69970Y176990D03*
Y166990D03*
X59970Y175090D03*
Y165090D03*
X69970Y196990D03*
Y186990D03*
X59970Y195090D03*
Y185090D03*
X69970Y206990D03*
X59970Y205090D03*
X69970Y226990D03*
Y216990D03*
X59970Y225090D03*
Y215090D03*
X69970Y246990D03*
Y236990D03*
X59970Y245090D03*
Y235090D03*
X69970Y256990D03*
X59970Y265090D03*
Y255090D03*
X69970Y276990D03*
Y266990D03*
X59970Y275090D03*
X69970Y296990D03*
Y286990D03*
X59970Y295090D03*
Y285090D03*
X69970Y316990D03*
Y306990D03*
X59970Y315090D03*
Y305090D03*
X75920Y335030D03*
X69970Y326990D03*
X59970Y335090D03*
Y325090D03*
X75870Y344970D03*
X65870D03*
X59970Y345090D03*
Y355090D03*
X65940Y377030D03*
X68530Y388280D03*
X68800Y388230D03*
X58950Y389970D03*
X92500Y10000D03*
X85000D03*
X77500D03*
X80000Y50000D03*
X85000D03*
X90000D03*
Y52500D03*
X85000D03*
X80000D03*
X92500Y72500D03*
X87500D03*
X82500Y77500D03*
Y82500D03*
X87470Y107060D03*
X81220Y99250D03*
X90000Y113000D03*
X83000D03*
X90310Y122470D03*
X79000Y121000D03*
X89000Y133000D03*
Y140000D03*
X80000Y134000D03*
X87980Y152530D03*
X81850Y146380D03*
X91180Y149970D03*
X88370Y162470D03*
X78370D03*
X81000Y151000D03*
X92500Y172500D03*
X82500Y177500D03*
X87500Y172500D03*
X82500Y182500D03*
X85030Y197720D03*
X87800Y207320D03*
X81000Y211000D03*
Y241000D03*
X92500Y272500D03*
X82500Y277500D03*
Y282500D03*
X87500Y272500D03*
X85030Y300900D03*
Y310900D03*
Y320900D03*
Y330900D03*
X85870Y344970D03*
X92000Y372000D03*
X88000D03*
X92000Y388000D03*
X88000D03*
X81000Y421000D03*
Y451000D03*
X107500Y10000D03*
X100000D03*
X104970Y35550D03*
X95000Y52500D03*
Y50000D03*
X100000Y52500D03*
Y50000D03*
X105230Y49770D03*
X104460Y55030D03*
X95000Y55000D03*
X110000Y67500D03*
X97500Y82500D03*
Y77500D03*
X104980Y100030D03*
X94540Y99990D03*
X102500Y112500D03*
X99180Y117850D03*
X104000Y133000D03*
Y140000D03*
X96000D03*
Y133000D03*
X107530Y155500D03*
X97980Y152530D03*
X101180Y149970D03*
X110550Y146470D03*
X98370Y162470D03*
X97500Y177500D03*
Y182500D03*
X94870Y214400D03*
X96640Y202170D03*
X96630Y202100D03*
X103700Y209180D03*
X101940Y221470D03*
X107530Y229760D03*
X109000Y241000D03*
X107530Y249760D03*
Y259760D03*
X97500Y282500D03*
Y277500D03*
X107530Y279760D03*
X109000Y271000D03*
X109930Y289470D03*
X94970Y300000D03*
Y310000D03*
Y320000D03*
Y330000D03*
X94540Y339990D03*
X98000Y382000D03*
Y378000D03*
X122500Y17500D03*
Y10000D03*
X115000D03*
Y35000D03*
X122500Y32500D03*
Y25000D03*
X112310Y56840D03*
X112090Y42570D03*
X119160Y49640D03*
X125000Y67500D03*
X122470Y59080D03*
X112530Y76840D03*
Y86840D03*
X122530Y92300D03*
Y82300D03*
X112530Y96840D03*
X112470Y106660D03*
X122530Y102300D03*
X112470Y126660D03*
Y116660D03*
X122530Y122300D03*
Y112300D03*
X112470Y136660D03*
X122530Y142300D03*
Y132300D03*
Y162300D03*
Y152300D03*
X111000Y151000D03*
X117030Y167470D03*
X122530Y172300D03*
Y192300D03*
Y182300D03*
X111000Y181000D03*
X122530Y212300D03*
Y202300D03*
X111000Y211000D03*
X110780Y216250D03*
X117470Y223670D03*
X122530Y222300D03*
X117470Y233670D03*
Y243670D03*
X122530Y242300D03*
Y232300D03*
X117470Y253670D03*
Y263670D03*
X122530Y262300D03*
Y252300D03*
X120000Y282500D03*
X117470Y273670D03*
X122530Y272300D03*
X117500Y292500D03*
X127760Y291780D03*
X111000Y301000D03*
Y331000D03*
Y361000D03*
Y391000D03*
Y421000D03*
Y451000D03*
X144560Y36570D03*
X141000Y31000D03*
X145000Y25000D03*
X142470Y56080D03*
X137490Y43640D03*
X132530Y52320D03*
Y62320D03*
X130240Y73220D03*
X142470Y76760D03*
Y86760D03*
X132470Y92960D03*
Y82960D03*
X142470Y96760D03*
Y106760D03*
X132470Y102960D03*
X142470Y116760D03*
Y126760D03*
X132470Y122960D03*
Y112960D03*
X142470Y136760D03*
X132470Y142960D03*
Y132960D03*
X142470Y146760D03*
Y156760D03*
X132470Y152960D03*
X142470Y166760D03*
Y176760D03*
X132470Y172960D03*
Y162960D03*
X142470Y186760D03*
Y196760D03*
X132470Y192960D03*
Y182960D03*
X142470Y206760D03*
X132470Y212960D03*
Y202960D03*
X142470Y216760D03*
Y226760D03*
X132470Y222960D03*
X142470Y236760D03*
Y246760D03*
X132470Y242960D03*
Y232960D03*
X142470Y256760D03*
X132470Y262960D03*
Y252960D03*
X142470Y266760D03*
Y276760D03*
X132470Y282960D03*
Y272960D03*
X137540Y295730D03*
X142630Y286760D03*
X141000Y331000D03*
Y361000D03*
Y391000D03*
Y421000D03*
Y451000D03*
X147500Y17500D03*
X152500Y10000D03*
X160000D03*
X150000Y50000D03*
Y52500D03*
X155000Y50000D03*
Y52500D03*
X154200Y59600D03*
X159200Y58730D03*
X147010Y64990D03*
X152470Y73370D03*
Y83370D03*
Y93370D03*
X152530Y103370D03*
X160650Y97530D03*
X152470Y123370D03*
X152530D03*
Y113370D03*
X162470Y119240D03*
X152530Y133370D03*
X162470Y129240D03*
X146620Y148650D03*
X156370Y150900D03*
X155480Y185790D03*
X155000Y216000D03*
X162470Y247380D03*
X152530Y245350D03*
X154850Y235620D03*
X162470Y257380D03*
X152530Y265350D03*
Y255350D03*
X162470Y277380D03*
Y267380D03*
X152530Y275350D03*
X147390Y297470D03*
X157270Y295920D03*
X162470Y287380D03*
X152530Y285350D03*
X167500Y10000D03*
X175000D03*
X165000Y52500D03*
Y50000D03*
X170000Y52500D03*
Y50000D03*
X175000Y52500D03*
Y50000D03*
X177500Y72500D03*
X172500Y77500D03*
Y82500D03*
X170600Y98570D03*
X175030Y107530D03*
X179440Y98970D03*
X165030Y109570D03*
X171160Y117470D03*
X175000Y140000D03*
X172500Y130000D03*
X170000Y140000D03*
X165000Y145000D03*
X177500Y152500D03*
X163440Y157970D03*
X172370Y162470D03*
X171000Y151000D03*
X172500Y177500D03*
X177500Y172500D03*
X172500Y182500D03*
X175030Y210000D03*
Y200000D03*
X163140Y230030D03*
X173140Y229820D03*
X175030Y220000D03*
X179000Y238020D03*
X171000Y241000D03*
X172500Y277500D03*
Y282500D03*
X177500Y272500D03*
X172530Y312500D03*
Y302500D03*
X175500Y330500D03*
X172530Y322500D03*
X177500Y350000D03*
X175000Y360000D03*
X172000Y382000D03*
Y378000D03*
X178000Y388000D03*
X171000Y421000D03*
Y451000D03*
X195000Y5380D03*
X185850Y9420D03*
X182500Y10000D03*
X189960Y35030D03*
X185000Y50000D03*
X180000D03*
Y52500D03*
X185000D03*
X195530Y66380D03*
X182500Y72500D03*
X187500Y82500D03*
Y77500D03*
X185030Y107270D03*
X194970Y106780D03*
X191820Y97290D03*
X192500Y127500D03*
X182470Y124650D03*
X181160Y117470D03*
X191050Y115980D03*
X192500Y137500D03*
X182500Y132500D03*
Y142500D03*
X192500Y152500D03*
X185000D03*
X182370Y162470D03*
X192370D03*
X187500Y177500D03*
X182500Y172500D03*
X187500Y182500D03*
X184970Y210000D03*
Y200000D03*
Y230000D03*
Y220000D03*
X188810Y236070D03*
X185960Y260020D03*
X185630Y270010D03*
X187500Y282500D03*
Y277500D03*
X182500Y272500D03*
X182470Y312500D03*
Y302500D03*
X195030Y302960D03*
Y312960D03*
X185000Y332500D03*
X182470Y322500D03*
X195000Y332500D03*
X194640Y322530D03*
X184690Y343270D03*
X190410Y351610D03*
X184970Y360000D03*
X188000Y378000D03*
Y382000D03*
X182000Y388000D03*
X205000Y5380D03*
X212500Y20000D03*
X209960Y35030D03*
X199960D03*
X212500Y27500D03*
X212070Y58110D03*
X204040Y73580D03*
X207530Y82960D03*
Y92960D03*
X201000Y91000D03*
X207530Y102960D03*
Y112960D03*
Y122960D03*
X197500Y127500D03*
X199500Y117530D03*
X207530Y132960D03*
Y142960D03*
X197500Y145000D03*
Y137500D03*
X207530Y152960D03*
X202360Y162160D03*
X207530Y162960D03*
Y172960D03*
Y182960D03*
Y192960D03*
X201000Y181000D03*
X207530Y202960D03*
Y212960D03*
X201000Y211000D03*
X207530Y222960D03*
Y232960D03*
Y242960D03*
X201000Y241000D03*
X207530Y252960D03*
Y262960D03*
Y272960D03*
Y282960D03*
X201000Y271000D03*
X200000Y297500D03*
X207530Y292960D03*
X212500Y315000D03*
X210000Y307500D03*
X205030Y312960D03*
X212500Y330000D03*
X204640Y322530D03*
X204550Y337470D03*
X197480Y344540D03*
X201000Y361000D03*
Y391000D03*
Y421000D03*
Y451000D03*
X215000Y5380D03*
X228220D03*
X215000Y15320D03*
X225000Y25000D03*
Y27500D03*
X229950Y35420D03*
X219960Y35030D03*
X231000Y31000D03*
X219000Y52500D03*
X224790Y45270D03*
X231860Y52350D03*
X226500Y60000D03*
X219140Y65180D03*
X217470Y88310D03*
X216590Y76130D03*
X227470Y76400D03*
Y86400D03*
X217470Y98310D03*
Y108310D03*
X227470Y96400D03*
Y106400D03*
X217470Y118310D03*
X227470Y116400D03*
Y126400D03*
X217470Y128310D03*
Y138310D03*
X227470Y136400D03*
X217470Y148310D03*
Y158310D03*
X227470Y146400D03*
Y156400D03*
X217470Y168310D03*
Y178310D03*
X227470Y166400D03*
Y176400D03*
X217470Y188310D03*
X227470Y186400D03*
Y196400D03*
X217470Y198310D03*
Y208310D03*
X227470Y206400D03*
X217470Y218310D03*
Y228310D03*
X227470Y216400D03*
Y226400D03*
X217470Y238310D03*
Y248310D03*
X227470Y236400D03*
Y246400D03*
X217470Y258310D03*
X227470Y256400D03*
Y266400D03*
X217470Y268310D03*
Y278310D03*
X227470Y276400D03*
X217470Y288310D03*
Y298310D03*
X227470Y286400D03*
Y296400D03*
X217470Y308310D03*
X227530Y311980D03*
Y321980D03*
X218690Y323320D03*
X215110Y338170D03*
X231000Y361000D03*
Y391000D03*
Y421000D03*
Y451000D03*
X238220Y5380D03*
X248220D03*
X236700Y15320D03*
X245030Y20850D03*
Y30850D03*
Y40850D03*
X244090Y49570D03*
X237020Y42490D03*
X234000Y67500D03*
X237530Y73800D03*
X238940Y59420D03*
X246010Y66490D03*
X237530Y83800D03*
X247470Y76380D03*
Y86380D03*
X237530Y93800D03*
Y103800D03*
X247470Y96380D03*
Y106380D03*
X237530Y113800D03*
Y123800D03*
X247470Y116380D03*
Y126380D03*
X237530Y133800D03*
Y143800D03*
X247470Y136380D03*
X237530Y153800D03*
X247470Y146380D03*
Y156380D03*
X237530Y163800D03*
Y173800D03*
X247470Y166380D03*
Y176380D03*
X237530Y183800D03*
Y193800D03*
X247470Y186380D03*
Y196380D03*
X237530Y203800D03*
Y213800D03*
X247470Y206380D03*
X237530Y223800D03*
X247470Y216380D03*
Y226380D03*
X237530Y233800D03*
Y243800D03*
X247470Y236380D03*
Y246380D03*
X237530Y253800D03*
Y263800D03*
X247470Y256380D03*
Y266380D03*
X237530Y273800D03*
Y283800D03*
X247470Y276380D03*
X237530Y293800D03*
X247470Y286380D03*
Y296380D03*
X237530Y303800D03*
Y313800D03*
X247470Y306380D03*
X234690Y327720D03*
X241770Y334790D03*
X240990Y319960D03*
X248060Y327030D03*
X248840Y341870D03*
X254970Y12760D03*
Y22760D03*
Y32760D03*
Y42760D03*
X260570Y51040D03*
X251170Y56640D03*
X257470Y74400D03*
Y64400D03*
Y84400D03*
Y104400D03*
Y94400D03*
Y124400D03*
Y114400D03*
Y144400D03*
Y134400D03*
Y154400D03*
Y174400D03*
Y164400D03*
Y194400D03*
Y184400D03*
Y214400D03*
Y204400D03*
Y224400D03*
Y244400D03*
Y234400D03*
X261000Y241000D03*
X252500Y255000D03*
X259880Y259470D03*
X261000Y271000D03*
Y301000D03*
X255360Y312530D03*
X265360D03*
X256060Y333030D03*
X252780Y322470D03*
X262780D03*
X255080Y346610D03*
X261320Y338800D03*
X262150Y353680D03*
X261000Y361000D03*
Y391000D03*
X259000Y421000D03*
X261000Y451000D03*
X267470Y58280D03*
X282500Y72500D03*
X277500D03*
X272500Y77500D03*
Y82500D03*
X267470Y78280D03*
X280000Y105000D03*
X267530Y108170D03*
X269580Y98390D03*
X283470Y124970D03*
X267470Y118280D03*
X274870Y114970D03*
X282770Y144970D03*
X267470Y128280D03*
X269600Y138370D03*
X279000Y134970D03*
X274850Y154970D03*
X267530Y148150D03*
X282500Y172500D03*
X272500Y177500D03*
X277500Y172500D03*
X272500Y182500D03*
X275030Y196100D03*
Y206100D03*
X276470Y215990D03*
X274120Y223860D03*
X267530Y231380D03*
X269200Y241240D03*
X269880Y259470D03*
X279880D03*
X266970Y249530D03*
X276970D03*
X282500Y272500D03*
X272500Y277500D03*
Y282500D03*
X277500Y272500D03*
X275030Y300000D03*
Y310000D03*
X272780Y322470D03*
X282380Y319660D03*
X268400Y345870D03*
X275470Y352940D03*
X269220Y360750D03*
X282540Y360010D03*
X272000Y378000D03*
Y382000D03*
X282000Y388000D03*
X278000D03*
X291000Y61000D03*
X287500Y82500D03*
Y77500D03*
X288000Y105000D03*
X288010Y96900D03*
X293000Y125000D03*
X284870Y114970D03*
X292750Y144280D03*
X284850Y154970D03*
X287500Y177500D03*
Y182500D03*
X284970Y202740D03*
X291000Y211000D03*
X284040Y222530D03*
X294970Y220010D03*
X292380Y229660D03*
X283940Y235030D03*
X293240Y238710D03*
X294970Y248560D03*
X289870Y257160D03*
X287500Y282500D03*
Y277500D03*
X284970Y300000D03*
X291000Y301000D03*
X284970Y310000D03*
X291000Y331000D03*
Y361000D03*
X288000Y378000D03*
Y382000D03*
X291000Y451000D03*
G54D13*
X-10000Y80000D03*
Y180000D03*
Y280000D03*
Y380000D03*
X90000Y80000D03*
Y180000D03*
Y280000D03*
Y380000D03*
X180000Y80000D03*
Y180000D03*
Y280000D03*
Y380000D03*
X280000Y80000D03*
Y180000D03*
Y280000D03*
Y380000D03*
G54D14*
X65000Y17300D03*
X75000D03*
X65000Y27300D03*
X75000D03*
X85000Y17300D03*
X95000D03*
X85000Y27300D03*
X95000D03*
X105000Y17300D03*
Y27300D03*
X115000Y17300D03*
X155000D03*
Y27300D03*
X165000Y17300D03*
X175000D03*
X165000Y27300D03*
X175000D03*
X185000Y17300D03*
X195000D03*
X185000Y27300D03*
X195000D03*
X205000Y17300D03*
G54D15*
X60000Y35350D03*
Y44650D03*
X90000Y35350D03*
X80000D03*
X90000Y44650D03*
X80000D03*
X100000Y35350D03*
Y44650D03*
X155000Y35350D03*
Y44650D03*
X180000Y35350D03*
X170000D03*
X180000Y44650D03*
X170000D03*
X225000Y10350D03*
Y19650D03*
G54D16*
X115000Y27300D03*
X205000D03*
G54D17*
G01X-20000Y64550D02*
Y70000D01*
G01D02*
Y75450D01*
G01X-25450Y70000D02*
X-20000D01*
G01D02*
X-14550D01*
G01X-20000Y84550D02*
Y90000D01*
G01D02*
Y95450D01*
G01X-25450Y90000D02*
X-20000D01*
G01D02*
X-14550D01*
G01X-20000Y164550D02*
Y170000D01*
G01D02*
Y175450D01*
G01X-25450Y170000D02*
X-20000D01*
G01D02*
X-14550D01*
G01X-20000Y184550D02*
Y190000D01*
G01D02*
Y195450D01*
G01X-25450Y190000D02*
X-20000D01*
G01D02*
X-14550D01*
G01X-20000Y264550D02*
Y270000D01*
G01D02*
Y275450D01*
G01X-25450Y270000D02*
X-20000D01*
G01D02*
X-14550D01*
G01X-20000Y284550D02*
Y290000D01*
G01D02*
Y295450D01*
G01X-25450Y290000D02*
X-20000D01*
G01D02*
X-14550D01*
G01X-20000Y364550D02*
Y370000D01*
G01D02*
Y375450D01*
G01X-25450Y370000D02*
X-20000D01*
G01D02*
X-14550D01*
G01X-20000Y384550D02*
Y390000D01*
G01D02*
Y395450D01*
G01X-25450Y390000D02*
X-20000D01*
G01D02*
X-14550D01*
G01X0Y64550D02*
Y70000D01*
G01D02*
Y75450D01*
G01X-5450Y70000D02*
X0D01*
G01D02*
X5450D01*
G01X0Y84550D02*
Y90000D01*
G01D02*
Y95450D01*
G01X-5450Y90000D02*
X0D01*
G01D02*
X5450D01*
G01X0Y164550D02*
Y170000D01*
G01D02*
Y175450D01*
G01X-5450Y170000D02*
X0D01*
G01D02*
X5450D01*
G01X0Y184550D02*
Y190000D01*
G01D02*
Y195450D01*
G01X-5450Y190000D02*
X0D01*
G01D02*
X5450D01*
G01X60000Y35350D02*
Y38800D01*
X58800Y40000D01*
X55000D01*
X25000Y70000D01*
Y286850D01*
X21850Y290000D01*
X15650D01*
X12500Y286850D01*
Y260000D01*
X10000Y257500D01*
X-7500D01*
X-10000Y255000D01*
Y180000D01*
G01X0Y264550D02*
Y270000D01*
G01D02*
Y275450D01*
G01X-5450Y270000D02*
X0D01*
G01D02*
X5450D01*
G01X0Y284550D02*
Y290000D01*
G01D02*
Y295450D01*
G01X-5450Y290000D02*
X0D01*
G01D02*
X5450D01*
G01X0Y364550D02*
Y370000D01*
G01D02*
Y375450D01*
G01X-5450Y370000D02*
X0D01*
G01D02*
X5450D01*
G01X0Y384550D02*
Y390000D01*
G01X-10000Y380000D02*
X17500D01*
X45000Y352500D01*
Y73160D01*
X76950Y41210D01*
X78790D01*
X80000Y40000D01*
Y35350D01*
G01X0Y390000D02*
Y395450D01*
G01X-5450Y390000D02*
X0D01*
G01D02*
X5450D01*
G01X56720Y44650D02*
X60000D01*
G01X75000Y17300D02*
X80000Y22300D01*
Y35350D01*
G01X60000D02*
Y32290D01*
X62130Y30160D01*
X62140D01*
X65000Y27300D01*
G01X60000Y48100D02*
Y44650D01*
G01D02*
X63280D01*
G01X74550Y70000D02*
X80000D01*
G01X90000Y280000D02*
Y337500D01*
X87500Y340000D01*
X67500D01*
X65000Y337500D01*
Y75000D01*
X82500Y57500D01*
Y49430D01*
X85000Y46930D01*
Y43160D01*
X86950Y41210D01*
X88790D01*
X90000Y40000D01*
Y35350D01*
G01X74550Y90000D02*
X80000D01*
G01X90000Y80000D02*
Y97500D01*
X77500Y110000D01*
Y115000D01*
X80000Y117500D01*
X92500D01*
X95000Y115000D01*
Y107500D01*
X97500Y105000D01*
X105010D01*
X107500Y107490D01*
Y142500D01*
X105000Y145000D01*
X102500D01*
X100000Y142500D01*
Y130010D01*
X97490Y127500D01*
X95000D01*
X92500Y130000D01*
Y142500D01*
X90000Y145000D01*
X87500D01*
X85000Y142500D01*
Y130000D01*
X82500Y127500D01*
X77490D01*
X75000Y129990D01*
Y152500D01*
X80000Y157500D01*
X102500D01*
X107500Y162500D01*
X114990D01*
X117500Y159990D01*
Y55010D01*
X103240Y40750D01*
X101950D01*
X100000Y38800D01*
Y35350D01*
G01X74550Y170000D02*
X80000D01*
G01X74550Y190000D02*
X80000D01*
G01X74550Y270000D02*
X80000D01*
G01X74550Y290000D02*
X80000D01*
G01X74550Y370000D02*
X80000D01*
G01X74550Y390000D02*
X80000D01*
G01X90000Y35350D02*
Y22300D01*
X85000Y17300D01*
G01X80000Y44650D02*
Y47500D01*
G01X90000Y44650D02*
Y47640D01*
G01Y44650D02*
X93280D01*
G01X80000Y64550D02*
Y70000D01*
G01D02*
Y75450D01*
G01Y70000D02*
X85450D01*
G01X80000Y84550D02*
Y90000D01*
G01D02*
Y95450D01*
G01Y90000D02*
X85450D01*
G01X80000Y164550D02*
Y170000D01*
G01D02*
Y175450D01*
G01Y170000D02*
X85450D01*
G01X80000Y184550D02*
Y190000D01*
G01D02*
Y195450D01*
G01Y190000D02*
X85450D01*
G01X80000Y264550D02*
Y270000D01*
G01D02*
Y275450D01*
G01Y270000D02*
X85450D01*
G01X80000Y284550D02*
Y290000D01*
G01D02*
Y295450D01*
G01Y290000D02*
X85450D01*
G01X80000Y364550D02*
Y370000D01*
G01D02*
Y375450D01*
G01Y370000D02*
X85450D01*
G01X80000Y384550D02*
Y390000D01*
G01D02*
Y395450D01*
G01Y390000D02*
X85450D01*
G01X105000Y13330D02*
Y17300D01*
G01D02*
Y21270D01*
G01X101030Y17300D02*
X105000D01*
G01D02*
X108970D01*
G01X100000Y35350D02*
Y27790D01*
X99960Y27750D01*
Y22260D01*
X95000Y17300D01*
G01X105000Y23330D02*
Y27300D01*
G01D02*
Y31270D01*
G01Y27300D02*
X108970D01*
G01X100000Y44650D02*
Y47640D01*
G01X96720Y44650D02*
X100000D01*
G01D02*
X103280D01*
G01X100000Y64550D02*
Y70000D01*
G01D02*
Y75450D01*
G01X94550Y70000D02*
X100000D01*
G01D02*
X105450D01*
G01X100000Y84550D02*
Y90000D01*
G01D02*
Y95450D01*
G01X94550Y90000D02*
X100000D01*
G01D02*
X105450D01*
G01X100000Y164550D02*
Y170000D01*
G01D02*
Y175450D01*
G01X94550Y170000D02*
X100000D01*
G01D02*
X105450D01*
G01X100000Y184550D02*
Y190000D01*
G01D02*
Y195450D01*
G01X94550Y190000D02*
X100000D01*
G01D02*
X105450D01*
G01X100000Y264550D02*
Y270000D01*
G01D02*
Y275450D01*
G01X94550Y270000D02*
X100000D01*
G01D02*
X105450D01*
G01X100000Y284550D02*
Y290000D01*
G01D02*
Y295450D01*
G01X94550Y290000D02*
X100000D01*
G01D02*
X105450D01*
G01X100000Y364550D02*
Y370000D01*
G01D02*
Y375450D01*
G01X94550Y370000D02*
X100000D01*
G01D02*
X105450D01*
G01X100000Y384550D02*
Y390000D01*
G01D02*
Y395450D01*
G01X94550Y390000D02*
X100000D01*
G01D02*
X105450D01*
G01X180000Y180000D02*
Y229990D01*
X174990Y235000D01*
X162500D01*
X157500Y240000D01*
Y288660D01*
X153660Y292500D01*
X141340D01*
X137500Y288660D01*
Y55000D01*
X151290Y41210D01*
X153790D01*
X155000Y40000D01*
Y35350D01*
G01Y27300D02*
Y35350D01*
G01Y44650D02*
Y47640D01*
G01X151720Y44650D02*
X155000D01*
G01D02*
X158280D01*
G01X180000Y35350D02*
Y22300D01*
X175000Y17300D01*
G01X170000Y35350D02*
Y22300D01*
X165000Y17300D01*
G01X180000Y380000D02*
Y354990D01*
X222500Y312490D01*
Y75010D01*
X204990Y57500D01*
X180000D01*
X177500Y55000D01*
Y48880D01*
X174880Y46260D01*
Y43040D01*
X173050Y41210D01*
X171210D01*
X170000Y40000D01*
Y35350D01*
G01Y44650D02*
Y47500D01*
G01Y64550D02*
Y70000D01*
G01D02*
Y75450D01*
G01X164550Y70000D02*
X170000D01*
G01D02*
X175450D01*
G01X170000Y84550D02*
Y90000D01*
G01D02*
Y95450D01*
G01X164550Y90000D02*
X170000D01*
G01D02*
X175450D01*
G01X170000Y164550D02*
Y170000D01*
G01D02*
Y175450D01*
G01X164550Y170000D02*
X170000D01*
G01D02*
X175450D01*
G01X170000Y184550D02*
Y190000D01*
G01D02*
Y195450D01*
G01X164550Y190000D02*
X170000D01*
G01D02*
X175450D01*
G01X170000Y264550D02*
Y270000D01*
G01D02*
Y275450D01*
G01X164550Y270000D02*
X170000D01*
G01D02*
X175450D01*
G01X170000Y284550D02*
Y290000D01*
G01D02*
Y295450D01*
G01X164550Y290000D02*
X170000D01*
G01D02*
X175450D01*
G01X170000Y364550D02*
Y370000D01*
G01D02*
Y375450D01*
G01X164550Y370000D02*
X170000D01*
G01D02*
X175450D01*
G01X170000Y384550D02*
Y390000D01*
G01D02*
Y395450D01*
G01X164550Y390000D02*
X170000D01*
G01D02*
X175450D01*
G01X225000Y10350D02*
X191950D01*
X185000Y17300D01*
G01X195000Y13330D02*
Y17300D01*
G01D02*
Y21270D01*
G01X191030Y17300D02*
X195000D01*
G01D02*
X198970D01*
G01X280000Y280000D02*
Y315010D01*
X277510Y317500D01*
X245000D01*
X242500Y315000D01*
Y70010D01*
X217490Y45000D01*
X186930D01*
X183140Y41210D01*
X181210D01*
X180000Y40000D01*
Y35350D01*
G01X195000Y23330D02*
Y27300D01*
G01D02*
Y31270D01*
G01X191030Y27300D02*
X195000D01*
G01D02*
X198970D01*
G01X180000Y47750D02*
Y44650D01*
G01X190000Y64550D02*
Y70000D01*
G01D02*
Y75450D01*
G01X184550Y70000D02*
X190000D01*
G01D02*
X195450D01*
G01X190000Y84550D02*
Y90000D01*
G01D02*
Y95450D01*
G01X184550Y90000D02*
X190000D01*
G01D02*
X195450D01*
G01X190000Y164550D02*
Y170000D01*
G01D02*
Y175450D01*
G01X184550Y170000D02*
X190000D01*
G01D02*
X195450D01*
G01X190000Y184550D02*
Y190000D01*
G01D02*
Y195450D01*
G01X184550Y190000D02*
X190000D01*
G01D02*
X195450D01*
G01X190000Y264550D02*
Y270000D01*
G01D02*
Y275450D01*
G01Y270000D02*
X195450D01*
G01X190000Y284550D02*
Y290000D01*
G01D02*
Y295450D01*
G01X184550Y290000D02*
X190000D01*
G01D02*
X195450D01*
G01X190000Y364550D02*
Y370000D01*
G01D02*
Y375450D01*
G01X184550Y370000D02*
X190000D01*
G01D02*
X195450D01*
G01X190000Y384550D02*
Y390000D01*
G01D02*
Y395450D01*
G01X184550Y390000D02*
X190000D01*
G01D02*
X195450D01*
G01X280000Y80000D02*
Y97500D01*
X277500Y100000D01*
X275000D01*
X272500Y102500D01*
Y107500D01*
X275000Y110000D01*
X290000D01*
X292500Y112500D01*
Y117500D01*
X290000Y120000D01*
X275000D01*
X272500Y122500D01*
Y127500D01*
X275000Y130000D01*
X290000D01*
X292500Y132500D01*
Y137500D01*
X290000Y140000D01*
X275000D01*
X272500Y142500D01*
Y147500D01*
X275000Y150000D01*
X290000D01*
X292500Y152500D01*
Y157500D01*
X290000Y160000D01*
X265000D01*
X262500Y157500D01*
Y60000D01*
X250000Y47500D01*
Y12500D01*
X247850Y10350D01*
X225000D01*
G01Y19650D02*
Y22640D01*
G01Y16660D02*
Y19650D01*
G01X221720D02*
X225000D01*
G01D02*
X228280D01*
G01X264550Y170000D02*
X270000D01*
G01X264550Y190000D02*
X270000D01*
G01X264550Y270000D02*
X270000D01*
G01X264550Y290000D02*
X270000D01*
G01X264550Y370000D02*
X270000D01*
G01X264550Y390000D02*
X270000D01*
G01Y64550D02*
Y70000D01*
G01D02*
Y75450D01*
G01Y70000D02*
X275450D01*
G01X270000Y84550D02*
Y90000D01*
G01D02*
Y95450D01*
G01Y90000D02*
X275450D01*
G01X270000Y164550D02*
Y170000D01*
G01D02*
Y175450D01*
G01Y170000D02*
X275450D01*
G01X270000Y184550D02*
Y190000D01*
G01D02*
Y195450D01*
G01Y190000D02*
X275450D01*
G01X270000Y264550D02*
Y270000D01*
G01D02*
Y275450D01*
G01Y270000D02*
X275450D01*
G01X270000Y284550D02*
Y290000D01*
G01D02*
Y295450D01*
G01Y290000D02*
X275450D01*
G01X270000Y364550D02*
Y370000D01*
G01D02*
Y375450D01*
G01Y370000D02*
X275450D01*
G01X270000Y384550D02*
Y390000D01*
G01D02*
Y395450D01*
G01Y390000D02*
X275450D01*
G01X290000Y64550D02*
Y70000D01*
G01D02*
Y75450D01*
G01X284550Y70000D02*
X290000D01*
G01D02*
X295450D01*
G01X290000Y84550D02*
Y90000D01*
G01D02*
Y95450D01*
G01X284550Y90000D02*
X290000D01*
G01D02*
X295450D01*
G01X290000Y164550D02*
Y170000D01*
G01D02*
Y175450D01*
G01X284550Y170000D02*
X290000D01*
G01D02*
X295450D01*
G01X290000Y184550D02*
Y190000D01*
G01D02*
Y195450D01*
G01X284550Y190000D02*
X290000D01*
G01D02*
X295450D01*
G01X290000Y264550D02*
Y270000D01*
G01D02*
Y275450D01*
G01X284550Y270000D02*
X290000D01*
G01D02*
X295450D01*
G01X290000Y284550D02*
Y290000D01*
G01D02*
Y295450D01*
G01X284550Y290000D02*
X290000D01*
G01D02*
X295450D01*
G01X290000Y364550D02*
Y370000D01*
G01D02*
Y375450D01*
G01X284550Y370000D02*
X290000D01*
G01D02*
X295450D01*
G01X290000Y384550D02*
Y390000D01*
G01D02*
Y395450D01*
G01X284550Y390000D02*
X290000D01*
G01D02*
X295450D01*
M02*
