G04 ================== begin FILE IDENTIFICATION RECORD ==================*
G04 Layout Name:  C:/Jeonghyun/Lab/PMOD2BNC_v2/allegro/PMOD2BNC.brd*
G04 Film Name:    BOTTOM*
G04 File Format:  Gerber RS274X*
G04 File Origin:  Cadence Allegro 23.1-S003*
G04 Origin Date:  Tue Apr  2 17:07:05 2024*
G04 *
G04 Layer:  ETCH/BOTTOM*
G04 Layer:  PIN/BOTTOM*
G04 Layer:  VIA CLASS/BOTTOM*
G04 *
G04 Offset:    (0.0000 0.0000)*
G04 Mirror:    No*
G04 Mode:      Positive*
G04 Rotation:  0*
G04 FullContactRelief:  No*
G04 UndefLineWidth:     0.0000*
G04 ================== end FILE IDENTIFICATION RECORD ====================*
%FSLAX55Y55*MOIN*%
%IR0*IPPOS*OFA0.00000B0.00000*MIA0B0*SFA1.00000B1.00000*%
%ADD12C,.2165*%
%ADD13C,.08*%
%ADD14R,.07X.07*%
%ADD15C,.0591*%
%ADD11C,.0197*%
%ADD10R,.075X.075*%
%ADD16C,.005*%
%ADD17C,.0135*%
%ADD19C,.227*%
%ADD20C,.0904*%
%ADD18C,.0696*%
G75*
%LPD*%
G75*
G36*
G01X10Y419990D02*
X499990D01*
Y10D01*
X10D01*
Y419990D01*
G37*
%LPC*%
G75*
G36*
G01X375730Y246250D02*
Y253750D01*
G02X376250Y254270I520J0D01*
G01X383750D01*
G02X384270Y253750I0J-520D01*
G01Y246250D01*
G02X383750Y245730I-520J0D01*
G01X376250D01*
G02X375730Y246250I0J520D01*
G37*
G36*
G01X325730D02*
Y253750D01*
G02X326250Y254270I520J0D01*
G01X333750D01*
G02X334270Y253750I0J-520D01*
G01Y246250D01*
G02X333750Y245730I-520J0D01*
G01X326250D01*
G02X325730Y246250I0J520D01*
G37*
G36*
G01X275730D02*
Y253750D01*
G02X276250Y254270I520J0D01*
G01X283750D01*
G02X284270Y253750I0J-520D01*
G01Y246250D01*
G02X283750Y245730I-520J0D01*
G01X276250D01*
G02X275730Y246250I0J520D01*
G37*
G36*
G01X225730D02*
Y253750D01*
G02X226250Y254270I520J0D01*
G01X233750D01*
G02X234270Y253750I0J-520D01*
G01Y246250D01*
G02X233750Y245730I-520J0D01*
G01X226250D01*
G02X225730Y246250I0J520D01*
G37*
G36*
G01X175730D02*
Y253750D01*
G02X176250Y254270I520J0D01*
G01X183750D01*
G02X184270Y253750I0J-520D01*
G01Y246250D01*
G02X183750Y245730I-520J0D01*
G01X176250D01*
G02X175730Y246250I0J520D01*
G37*
G36*
G01X125730D02*
Y253750D01*
G02X126250Y254270I520J0D01*
G01X133750D01*
G02X134270Y253750I0J-520D01*
G01Y246250D01*
G02X133750Y245730I-520J0D01*
G01X126250D01*
G02X125730Y246250I0J520D01*
G37*
G36*
G01X75730D02*
Y253750D01*
G02X76250Y254270I520J0D01*
G01X83750D01*
G02X84270Y253750I0J-520D01*
G01Y246250D01*
G02X83750Y245730I-520J0D01*
G01X76250D01*
G02X75730Y246250I0J520D01*
G37*
G36*
G01X25730D02*
Y253750D01*
G02X26250Y254270I520J0D01*
G01X33750D01*
G02X34270Y253750I0J-520D01*
G01Y246250D01*
G02X33750Y245730I-520J0D01*
G01X26250D01*
G02X25730Y246250I0J520D01*
G37*
G36*
G01X325730Y156250D02*
Y163750D01*
G02X326250Y164270I520J0D01*
G01X333750D01*
G02X334270Y163750I0J-520D01*
G01Y156250D01*
G02X333750Y155730I-520J0D01*
G01X326250D01*
G02X325730Y156250I0J520D01*
G37*
G36*
G01X225730D02*
Y163750D01*
G02X226250Y164270I520J0D01*
G01X233750D01*
G02X234270Y163750I0J-520D01*
G01Y156250D01*
G02X233750Y155730I-520J0D01*
G01X226250D01*
G02X225730Y156250I0J520D01*
G37*
G36*
G01X175730D02*
Y163750D01*
G02X176250Y164270I520J0D01*
G01X183750D01*
G02X184270Y163750I0J-520D01*
G01Y156250D01*
G02X183750Y155730I-520J0D01*
G01X176250D01*
G02X175730Y156250I0J520D01*
G37*
G36*
G01X125730D02*
Y163750D01*
G02X126250Y164270I520J0D01*
G01X133750D01*
G02X134270Y163750I0J-520D01*
G01Y156250D01*
G02X133750Y155730I-520J0D01*
G01X126250D01*
G02X125730Y156250I0J520D01*
G37*
G36*
G01X75730D02*
Y163750D01*
G02X76250Y164270I520J0D01*
G01X83750D01*
G02X84270Y163750I0J-520D01*
G01Y156250D01*
G02X83750Y155730I-520J0D01*
G01X76250D01*
G02X75730Y156250I0J520D01*
G37*
G36*
G01X25730D02*
Y163750D01*
G02X26250Y164270I520J0D01*
G01X33750D01*
G02X34270Y163750I0J-520D01*
G01Y156250D01*
G02X33750Y155730I-520J0D01*
G01X26250D01*
G02X25730Y156250I0J520D01*
G37*
G36*
G01X375730Y106250D02*
Y113750D01*
G02X376250Y114270I520J0D01*
G01X383750D01*
G02X384270Y113750I0J-520D01*
G01Y106250D01*
G02X383750Y105730I-520J0D01*
G01X376250D01*
G02X375730Y106250I0J520D01*
G37*
G36*
G01X325730D02*
Y113750D01*
G02X326250Y114270I520J0D01*
G01X333750D01*
G02X334270Y113750I0J-520D01*
G01Y106250D01*
G02X333750Y105730I-520J0D01*
G01X326250D01*
G02X325730Y106250I0J520D01*
G37*
G36*
G01X225730D02*
Y113750D01*
G02X226250Y114270I520J0D01*
G01X233750D01*
G02X234270Y113750I0J-520D01*
G01Y106250D01*
G02X233750Y105730I-520J0D01*
G01X226250D01*
G02X225730Y106250I0J520D01*
G37*
G36*
G01X320480Y1500D02*
Y8500D01*
G02X321000Y9020I520J0D01*
G01X328000D01*
G02X328520Y8500I0J-520D01*
G01Y1500D01*
G02X328000Y980I-520J0D01*
G01X321000D01*
G02X320480Y1500I0J520D01*
G37*
G36*
G01X230480D02*
Y8500D01*
G02X231000Y9020I520J0D01*
G01X238000D01*
G02X238520Y8500I0J-520D01*
G01Y1500D01*
G02X238000Y980I-520J0D01*
G01X231000D01*
G02X230480Y1500I0J520D01*
G37*
G36*
G01X140480D02*
Y8500D01*
G02X141000Y9020I520J0D01*
G01X148000D01*
G02X148520Y8500I0J-520D01*
G01Y1500D01*
G02X148000Y980I-520J0D01*
G01X141000D01*
G02X140480Y1500I0J520D01*
G37*
G36*
G01X50480D02*
Y8500D01*
G02X51000Y9020I520J0D01*
G01X58000D01*
G02X58520Y8500I0J-520D01*
G01Y1500D01*
G02X58000Y980I-520J0D01*
G01X51000D01*
G02X50480Y1500I0J520D01*
G37*
G36*
G01X37010Y145700D02*
G03X37250Y146410I-5J397D01*
G02X35480Y150000I2756J3590D01*
G02X44520I4520J0D01*
G02X40370Y145490I-4526J0D01*
G03X40260Y145140I15J-197D01*
G02X40530Y144910I-1611J-2165D01*
G01X41910Y143530D01*
G02X42700Y141620I-1914J-1910D01*
G01Y128380D01*
G02X41910Y126470I-2704J0D01*
G01X40530Y125090D01*
G02X40260Y124860I-1881J1935D01*
G03X40370Y124510I125J-153D01*
G02X44520Y120000I-376J-4510D01*
G02X35480I-4520J0D01*
G02X37770Y123930I4517J0D01*
G01X37870Y123990D01*
Y124300D01*
X37120D01*
X32700Y119880D01*
Y114270D01*
X33750D01*
G02X34270Y113750I0J-520D01*
G01Y106250D01*
G02X33750Y105730I-520J0D01*
G01X26250D01*
G02X25730Y106250I0J520D01*
G01Y113750D01*
G02X26250Y114270I520J0D01*
G01X27300D01*
Y121000D01*
G02X28090Y122910I2704J0D01*
G01X34090Y128910D01*
G02X36000Y129700I1910J-1914D01*
G01X37300D01*
Y140300D01*
X12700D01*
Y92700D01*
X36760D01*
G02X38670Y91910I0J-2704D01*
G01X40050Y90530D01*
G02X40840Y88620I-1914J-1910D01*
G01Y74380D01*
G02X40050Y72470I-2704J0D01*
G01X38670Y71090D01*
G02X36760Y70300I-1910J1914D01*
G01X12700D01*
Y56440D01*
X39620D01*
G02X41530Y55660I13J-2696D01*
G01X42910Y54280D01*
G02X43700Y52370I-1914J-1910D01*
G01Y21120D01*
X47120Y17700D01*
X52300D01*
G02X54500Y18480I2200J-2713D01*
G02Y11520I0J-3480D01*
G02X52300Y12300I0J3493D01*
G01X46000D01*
G02X44090Y13090I0J2704D01*
G01X39090Y18090D01*
G02X38300Y20000I1914J1910D01*
G01Y51060D01*
X11380D01*
G02X9470Y51840I-13J2696D01*
G01X8090Y53220D01*
G02X7300Y55130I1914J1910D01*
G01Y71620D01*
G02X8090Y73530I2704J0D01*
G01X9470Y74910D01*
G02X11380Y75700I1910J-1914D01*
G01X35440D01*
Y87300D01*
X11380D01*
G02X9470Y88090I0J2704D01*
G01X8090Y89470D01*
G02X7300Y91380I1914J1910D01*
G01Y141620D01*
G02X8090Y143530I2704J0D01*
G01X9470Y144910D01*
G02X11380Y145700I1910J-1914D01*
G01X17010D01*
G03X17250Y146410I-5J397D01*
G02X15480Y150000I2756J3590D01*
G02X24520I4520J0D01*
G02X22750Y146410I-4526J0D01*
G03X22990Y145700I245J-313D01*
G01X37010D01*
G37*
G36*
G01X375730Y156250D02*
Y163750D01*
G02X376250Y164270I520J0D01*
G01X383750D01*
G02X384270Y163750I0J-520D01*
G01Y156250D01*
G02X383750Y155730I-520J0D01*
G01X382700D01*
Y141000D01*
G02X381910Y139090I-2704J0D01*
G01X358700Y115880D01*
Y99000D01*
G02X357910Y97090I-2704J0D01*
G01X332910Y72090D01*
G02X331000Y71300I-1910J1914D01*
G01X258120D01*
X204910Y18090D01*
G02X203000Y17300I-1910J1914D01*
G01X197880D01*
G03X197530Y16710I-1J-398D01*
G02X197980Y15000I-3024J-1710D01*
G02X191020I-3480J0D01*
G02X191470Y16710I3474J0D01*
G03X191120Y17300I-349J192D01*
G01X187880D01*
G03X187530Y16710I-1J-398D01*
G02X187980Y15000I-3024J-1710D01*
G02X181020I-3480J0D01*
G02X181470Y16710I3474J0D01*
G03X181120Y17300I-349J192D01*
G01X180620D01*
X177960Y14650D01*
X177950Y14580D01*
G02X174500Y11520I-3450J415D01*
G02X171020Y15000I0J3480D01*
G02X174080Y18450I3475J0D01*
G01X174150Y18460D01*
X177590Y21910D01*
G02X179500Y22700I1910J-1914D01*
G01X201880D01*
X255090Y75910D01*
G02X257000Y76700I1910J-1914D01*
G01X329880D01*
X353300Y100120D01*
Y117000D01*
G02X354090Y118910I2704J0D01*
G01X377300Y142120D01*
Y155730D01*
X376250D01*
G02X375730Y156250I0J520D01*
G37*
G36*
G01X97090Y173530D02*
X98470Y174910D01*
G02X100380Y175700I1910J-1914D01*
G01X104620D01*
G02X106530Y174910I0J-2704D01*
G01X107910Y173530D01*
G02X108700Y171620I-1914J-1910D01*
G01Y95000D01*
G02X107910Y93090I-2704J0D01*
G01X101910Y87090D01*
G02X100000Y86300I-1910J1914D01*
G01X81110D01*
X65700Y70890D01*
Y25110D01*
X71910Y18900D01*
G02X72380Y18260I-1916J-1900D01*
G03X72910Y18100I347J193D01*
G02X74500Y18480I1582J-3102D01*
G02X76660Y17730I0J-3485D01*
G03X77300Y18040I242J315D01*
G01Y52000D01*
G02X78090Y53910I2704J0D01*
G01X119090Y94910D01*
G02X119120Y94930I1484J-2194D01*
G03X118940Y95610I-277J291D01*
G02X115480Y100000I1055J4390D01*
G02X124520I4520J0D01*
G02X122750Y96410I-4526J0D01*
G03X122990Y95700I245J-313D01*
G01X137010D01*
G03X137250Y96410I-5J397D01*
G02X135480Y100000I2756J3590D01*
G02X144520I4520J0D01*
G02X142750Y96410I-4526J0D01*
G03X142990Y95700I245J-313D01*
G01X144880D01*
X152300Y103120D01*
Y163440D01*
X150700D01*
Y144380D01*
G02X149910Y142470I-2704J0D01*
G01X148530Y141090D01*
G02X146620Y140300I-1910J1914D01*
G01X132700D01*
Y114270D01*
X133750D01*
G02X134270Y113750I0J-520D01*
G01Y106250D01*
G02X133750Y105730I-520J0D01*
G01X126250D01*
G02X125730Y106250I0J520D01*
G01Y113750D01*
G02X126250Y114270I520J0D01*
G01X127300D01*
Y141620D01*
G02X128090Y143530I2704J0D01*
G01X129470Y144910D01*
G02X131380Y145700I1910J-1914D01*
G01X137010D01*
G03X137250Y146410I-5J397D01*
G02X135480Y150000I2756J3590D01*
G02X144520I4520J0D01*
G02X142750Y146410I-4526J0D01*
G03X142990Y145700I245J-313D01*
G01X145300D01*
Y164760D01*
G02X146090Y166670I2704J0D01*
G01X147470Y168050D01*
G02X149380Y168840I1910J-1914D01*
G01X153620D01*
G02X155530Y168050I0J-2704D01*
G01X156910Y166670D01*
G02X157700Y164760I-1914J-1910D01*
G01Y102000D01*
G02X156910Y100090I-2704J0D01*
G01X147910Y91090D01*
G02X146000Y90300I-1910J1914D01*
G01X122120D01*
X82700Y50880D01*
Y18620D01*
G03X83240Y18240I399J-6D01*
G02X84500Y18480I1270J-3238D01*
G02X86670Y17720I0J-3478D01*
G01X86810Y17610D01*
X101800Y32610D01*
Y62500D01*
G02X102590Y64410I2704J0D01*
G01X123090Y84910D01*
G02X125000Y85700I1910J-1914D01*
G01X155530D01*
X158300Y88470D01*
Y139620D01*
G02X159090Y141530I2704J0D01*
G01X160470Y142910D01*
G02X162380Y143700I1910J-1914D01*
G01X205620D01*
G02X207530Y142910I0J-2704D01*
G01X208910Y141530D01*
G02X209700Y139620I-1914J-1910D01*
G01Y128380D01*
G02X208910Y126470I-2704J0D01*
G01X207530Y125090D01*
G02X205620Y124300I-1910J1914D01*
G01X192990D01*
G03X192750Y123590I5J-397D01*
G02X194520Y120000I-2756J-3590D01*
G02X185480I-4520J0D01*
G02X187250Y123590I4526J0D01*
G03X187010Y124300I-245J313D01*
G01X182700D01*
Y114270D01*
X183750D01*
G02X184270Y113750I0J-520D01*
G01Y106250D01*
G02X183750Y105730I-520J0D01*
G01X176250D01*
G02X175730Y106250I0J520D01*
G01Y113750D01*
G02X176250Y114270I520J0D01*
G01X177300D01*
Y125620D01*
G02X178090Y127530I2704J0D01*
G01X179470Y128910D01*
G02X181380Y129700I1910J-1914D01*
G01X204300D01*
Y138300D01*
X163700D01*
Y87350D01*
G02X162910Y85440I-2704J0D01*
G01X158560Y81090D01*
G02X156650Y80300I-1910J1914D01*
G01X126120D01*
X107200Y61380D01*
Y31490D01*
G02X106410Y29580I-2704J0D01*
G01X95690Y18870D01*
G03X95820Y18220I285J-281D01*
G02X97980Y15000I-1320J-3220D01*
G02X94500Y11520I-3480J0D01*
G02X92340Y12270I0J3485D01*
G03X91700Y11960I-242J-315D01*
G01Y9500D01*
G02X90910Y7590I-2704J0D01*
G01X87960Y4650D01*
X87950Y4580D01*
G02X84500Y1520I-3450J415D01*
G02X81020Y5000I0J3480D01*
G02X84080Y8450I3475J0D01*
G01X84150Y8460D01*
X86300Y10620D01*
Y11380D01*
G03X85760Y11760I-399J6D01*
G02X84500Y11520I-1270J3238D01*
G02X83240Y11760I10J3478D01*
G03X82700Y11380I-141J-374D01*
G01Y10500D01*
G02X81910Y8590I-2704J0D01*
G01X77960Y4650D01*
X77950Y4580D01*
G02X74500Y1520I-3450J415D01*
G02X71020Y5000I0J3480D01*
G02X74080Y8450I3475J0D01*
G01X74150Y8460D01*
X77300Y11620D01*
Y11960D01*
G03X76660Y12270I-398J-5D01*
G02X74500Y11520I-2160J2735D01*
G02X73240Y11760I10J3478D01*
G03X72700Y11380I-141J-374D01*
G01Y10500D01*
G02X71910Y8590I-2704J0D01*
G01X67960Y4650D01*
X67950Y4580D01*
G02X64500Y1520I-3450J415D01*
G02X61020Y5000I0J3480D01*
G02X64080Y8450I3475J0D01*
G01X64150Y8460D01*
X67300Y11620D01*
Y11960D01*
G03X66660Y12270I-398J-5D01*
G02X64500Y11520I-2160J2735D01*
G02X61020Y15000I0J3480D01*
G02X63870Y18420I3477J0D01*
G03X64080Y19100I-71J394D01*
G01X61090Y22080D01*
G02X60300Y23990I1914J1910D01*
G01Y72010D01*
G02X61090Y73920I2704J0D01*
G01X78080Y90910D01*
G02X79990Y91700I1910J-1914D01*
G01X98880D01*
X103300Y96120D01*
Y170300D01*
X101700D01*
Y146000D01*
G02X100910Y144090I-2704J0D01*
G01X96910Y140090D01*
G02X95000Y139300I-1910J1914D01*
G01X82700D01*
Y114270D01*
X83750D01*
G02X84270Y113750I0J-520D01*
G01Y106250D01*
G02X83750Y105730I-520J0D01*
G01X76250D01*
G02X75730Y106250I0J520D01*
G01Y113750D01*
G02X76250Y114270I520J0D01*
G01X77300D01*
Y140620D01*
G02X78090Y142530I2704J0D01*
G01X79470Y143910D01*
G02X81380Y144700I1910J-1914D01*
G01X93880D01*
X96300Y147120D01*
Y171620D01*
G02X97090Y173530I2704J0D01*
G37*
G36*
G01X375730Y296250D02*
Y303750D01*
G02X376250Y304270I520J0D01*
G01X383750D01*
G02X384270Y303750I0J-520D01*
G01Y302700D01*
X394000D01*
G02X395910Y301910I0J-2704D01*
G01X407910Y289910D01*
G02X408700Y288000I-1914J-1910D01*
G01Y76000D01*
G02X407910Y74090I-2704J0D01*
G01X397910Y64090D01*
G02X396000Y63300I-1910J1914D01*
G01X281120D01*
X237200Y19380D01*
Y17200D01*
G02X237980Y15000I-2713J-2200D01*
G02X231020I-3480J0D01*
G02X231800Y17200I3493J0D01*
G01Y20500D01*
G02X232590Y22410I2704J0D01*
G01X278090Y67910D01*
G02X280000Y68700I1910J-1914D01*
G01X394880D01*
X403300Y77120D01*
Y286880D01*
X392880Y297300D01*
X384270D01*
Y296250D01*
G02X383750Y295730I-520J0D01*
G01X376250D01*
G02X375730Y296250I0J520D01*
G37*
G36*
G01X328090Y313910D02*
X342090Y327910D01*
G02X344000Y328700I1910J-1914D01*
G01X406000D01*
G02X407910Y327910I0J-2704D01*
G01X418910Y316910D01*
G02X419700Y315000I-1914J-1910D01*
G01Y73000D01*
G02X418910Y71090I-2704J0D01*
G01X405910Y58090D01*
G02X404000Y57300I-1910J1914D01*
G01X284120D01*
X247200Y20380D01*
Y17200D01*
G02X247980Y15000I-2713J-2200D01*
G02X241020I-3480J0D01*
G02X241800Y17200I3493J0D01*
G01Y21500D01*
G02X242590Y23410I2704J0D01*
G01X281090Y61910D01*
G02X283000Y62700I1910J-1914D01*
G01X402880D01*
X414300Y74120D01*
Y313880D01*
X404880Y323300D01*
X345120D01*
X332700Y310880D01*
Y304270D01*
X333750D01*
G02X334270Y303750I0J-520D01*
G01Y296250D01*
G02X333750Y295730I-520J0D01*
G01X326250D01*
G02X325730Y296250I0J520D01*
G01Y303750D01*
G02X326250Y304270I520J0D01*
G01X327300D01*
Y312000D01*
G02X328090Y313910I2704J0D01*
G37*
G36*
G01X278090Y309260D02*
X308740Y339910D01*
G02X310650Y340700I1910J-1914D01*
G01X409000D01*
G02X410910Y339910I0J-2704D01*
G01X430910Y319910D01*
G02X431700Y318000I-1914J-1910D01*
G01Y70000D01*
G02X430910Y68090I-2704J0D01*
G01X414910Y52090D01*
G02X413000Y51300I-1910J1914D01*
G01X287120D01*
X257200Y21380D01*
Y17200D01*
G02X257980Y15000I-2713J-2200D01*
G02X251020I-3480J0D01*
G02X251800Y17200I3493J0D01*
G01Y22500D01*
G02X252590Y24410I2704J0D01*
G01X284090Y55910D01*
G02X286000Y56700I1910J-1914D01*
G01X411880D01*
X426300Y71120D01*
Y316880D01*
X407880Y335300D01*
X311770D01*
X291380Y314910D01*
G03X291520Y314260I281J-279D01*
G02X294520Y310000I-1525J-4260D01*
G02X290000Y305480I-4520J0D01*
G02X285740Y308480I0J4525D01*
G03X285090Y308620I-371J-141D01*
G01X282700Y306230D01*
Y304270D01*
X283750D01*
G02X284270Y303750I0J-520D01*
G01Y296250D01*
G02X283750Y295730I-520J0D01*
G01X276250D01*
G02X275730Y296250I0J520D01*
G01Y303750D01*
G02X276250Y304270I520J0D01*
G01X277300D01*
Y307350D01*
G02X278090Y309260I2704J0D01*
G37*
G36*
G01X228090Y311910D02*
X270090Y353910D01*
G02X272000Y354700I1910J-1914D01*
G01X408000D01*
G02X409910Y353910I0J-2704D01*
G01X442910Y320910D01*
G02X443700Y319000I-1914J-1910D01*
G01Y66000D01*
G02X442910Y64090I-2704J0D01*
G01X424910Y46090D01*
G02X423000Y45300I-1910J1914D01*
G01X291120D01*
X267200Y21380D01*
Y17200D01*
G02X267980Y15000I-2713J-2200D01*
G02X261020I-3480J0D01*
G02X261800Y17200I3493J0D01*
G01Y22500D01*
G02X262590Y24410I2704J0D01*
G01X288090Y49910D01*
G02X290000Y50700I1910J-1914D01*
G01X421880D01*
X438300Y67120D01*
Y317880D01*
X406880Y349300D01*
X273120D01*
X238950Y315140D01*
G03X239300Y314470I287J-276D01*
G02X240000Y314520I671J-4472D01*
G02X235480Y310000I0J-4520D01*
G02X235530Y310700I4522J29D01*
G03X234860Y311050I-394J63D01*
G01X232700Y308880D01*
Y304270D01*
X233750D01*
G02X234270Y303750I0J-520D01*
G01Y296250D01*
G02X233750Y295730I-520J0D01*
G01X226250D01*
G02X225730Y296250I0J520D01*
G01Y303750D01*
G02X226250Y304270I520J0D01*
G01X227300D01*
Y310000D01*
G02X228090Y311910I2704J0D01*
G37*
G36*
G01X177090Y312910D02*
X232090Y367910D01*
G02X234000Y368700I1910J-1914D01*
G01X408000D01*
G02X409910Y367910I0J-2704D01*
G01X454910Y322910D01*
G02X455700Y321000I-1914J-1910D01*
G01Y63000D01*
G02X454910Y61090I-2704J0D01*
G01X433910Y40090D01*
G02X432000Y39300I-1910J1914D01*
G01X335120D01*
X327200Y31380D01*
Y17200D01*
G02X327980Y15000I-2713J-2200D01*
G02X321020I-3480J0D01*
G02X321800Y17200I3493J0D01*
G01Y32500D01*
G02X322590Y34410I2704J0D01*
G01X332090Y43910D01*
G02X334000Y44700I1910J-1914D01*
G01X430880D01*
X450300Y64120D01*
Y319880D01*
X406880Y363300D01*
X235120D01*
X181700Y309880D01*
Y304270D01*
X182750D01*
G02X183270Y303750I0J-520D01*
G01Y296250D01*
G02X182750Y295730I-520J0D01*
G01X175250D01*
G02X174730Y296250I0J520D01*
G01Y303750D01*
G02X175250Y304270I520J0D01*
G01X176300D01*
Y311000D01*
G02X177090Y312910I2704J0D01*
G37*
G36*
G01X128090D02*
X197090Y381910D01*
G02X199000Y382700I1910J-1914D01*
G01X409000D01*
G02X410910Y381910I0J-2704D01*
G01X466910Y325910D01*
G02X467700Y324000I-1914J-1910D01*
G01Y59000D01*
G02X466910Y57090I-2704J0D01*
G01X443910Y34090D01*
G02X442000Y33300I-1910J1914D01*
G01X344120D01*
X337200Y26380D01*
Y17200D01*
G02X337980Y15000I-2713J-2200D01*
G02X331020I-3480J0D01*
G02X331800Y17200I3493J0D01*
G01Y27500D01*
G02X332590Y29410I2704J0D01*
G01X341090Y37910D01*
G02X343000Y38700I1910J-1914D01*
G01X440880D01*
X462300Y60120D01*
Y322880D01*
X407880Y377300D01*
X200120D01*
X132700Y309880D01*
Y304270D01*
X133750D01*
G02X134270Y303750I0J-520D01*
G01Y296250D01*
G02X133750Y295730I-520J0D01*
G01X126250D01*
G02X125730Y296250I0J520D01*
G01Y303750D01*
G02X126250Y304270I520J0D01*
G01X127300D01*
Y311000D01*
G02X128090Y312910I2704J0D01*
G37*
G36*
G01X78090Y312900D02*
X161100Y395910D01*
G02X163010Y396700I1910J-1914D01*
G01X408000D01*
G02X409910Y395910I0J-2704D01*
G01X478910Y326910D01*
G02X479700Y325000I-1914J-1910D01*
G01Y57000D01*
G02X478910Y55090I-2704J0D01*
G01X451910Y28090D01*
G02X450000Y27300I-1910J1914D01*
G01X350120D01*
X347200Y24380D01*
Y17200D01*
G02X347980Y15000I-2713J-2200D01*
G02X341020I-3480J0D01*
G02X341800Y17200I3493J0D01*
G01Y25500D01*
G02X342590Y27410I2704J0D01*
G01X347090Y31910D01*
G02X349000Y32700I1910J-1914D01*
G01X448880D01*
X474300Y58120D01*
Y323880D01*
X406880Y391300D01*
X164130D01*
X82700Y309870D01*
Y304270D01*
X83750D01*
G02X84270Y303750I0J-520D01*
G01Y296250D01*
G02X83750Y295730I-520J0D01*
G01X76250D01*
G02X75730Y296250I0J520D01*
G01Y303750D01*
G02X76250Y304270I520J0D01*
G01X77300D01*
Y310990D01*
G02X78090Y312900I2704J0D01*
G37*
G36*
G01X28090Y309260D02*
X128740Y409910D01*
G02X130650Y410700I1910J-1914D01*
G01X408000D01*
G02X409910Y409910I0J-2704D01*
G01X490910Y328910D01*
G02X491700Y327000I-1914J-1910D01*
G01Y55000D01*
G02X490910Y53090I-2704J0D01*
G01X459910Y22090D01*
G02X458000Y21300I-1910J1914D01*
G01X360120D01*
X357200Y18380D01*
Y17200D01*
X357240Y17150D01*
G02X357980Y15000I-2753J-2150D01*
G02X351020I-3480J0D01*
G02X351800Y17200I3493J0D01*
G01Y19500D01*
G02X352590Y21410I2704J0D01*
G01X357090Y25910D01*
G02X359000Y26700I1910J-1914D01*
G01X456880D01*
X486300Y56120D01*
Y325880D01*
X406880Y405300D01*
X131770D01*
X41380Y314910D01*
G03X41520Y314260I281J-279D01*
G02X44520Y310000I-1525J-4260D01*
G02X40000Y305480I-4520J0D01*
G02X35740Y308480I0J4525D01*
G03X35090Y308620I-371J-141D01*
G01X32700Y306230D01*
Y304270D01*
X33750D01*
G02X34270Y303750I0J-520D01*
G01Y296250D01*
G02X33750Y295730I-520J0D01*
G01X26250D01*
G02X25730Y296250I0J520D01*
G01Y303750D01*
G02X26250Y304270I520J0D01*
G01X27300D01*
Y307350D01*
G02X28090Y309260I2704J0D01*
G37*
G36*
G01X253470Y186910D02*
G02X255380Y187700I1910J-1914D01*
G01X278620D01*
G02X280530Y186910I0J-2704D01*
G01X281910Y185530D01*
G02X282700Y183620I-1914J-1910D01*
G01Y164270D01*
X283750D01*
G02X284270Y163750I0J-520D01*
G01Y156250D01*
G02X283750Y155730I-520J0D01*
G01X276250D01*
G02X275730Y156250I0J520D01*
G01Y163750D01*
G02X276250Y164270I520J0D01*
G01X277300D01*
Y182300D01*
X256700D01*
Y96000D01*
G02X255910Y94090I-2704J0D01*
G01X255190Y93380D01*
G03X255470Y92700I282J-282D01*
G01X291880D01*
X303300Y104120D01*
Y131300D01*
X282700D01*
Y114270D01*
X283750D01*
G02X284270Y113750I0J-520D01*
G01Y106250D01*
G02X283750Y105730I-520J0D01*
G01X276250D01*
G02X275730Y106250I0J520D01*
G01Y113750D01*
G02X276250Y114270I520J0D01*
G01X277300D01*
Y132620D01*
G02X278090Y134530I2704J0D01*
G01X279470Y135910D01*
G02X281380Y136700I1910J-1914D01*
G01X304620D01*
G02X306530Y135910I0J-2704D01*
G01X307910Y134530D01*
G02X308700Y132620I-1914J-1910D01*
G01Y103000D01*
G02X307910Y101090I-2704J0D01*
G01X294910Y88090D01*
G02X293000Y87300I-1910J1914D01*
G01X213120D01*
X161340Y35530D01*
Y17730D01*
G03X162030Y17450I402J0D01*
G02X164500Y18480I2470J-2447D01*
G02Y11520I0J-3480D01*
G02X162030Y12550I0J3477D01*
G03X161340Y12270I-288J-280D01*
G01Y9150D01*
G02X160560Y7240I-2696J-13D01*
G01X157960Y4650D01*
X157950Y4580D01*
G02X154500Y1520I-3450J415D01*
G02X151020Y5000I0J3480D01*
G02X154080Y8450I3475J0D01*
G01X154150Y8460D01*
X155960Y10270D01*
Y11270D01*
G03X155450Y11650I-401J-5D01*
G02X154500Y11520I-942J3351D01*
G02X151020Y15000I0J3480D01*
G02X151800Y17200I3493J0D01*
G01Y43500D01*
G02X152590Y45410I2704J0D01*
G01X203090Y95910D01*
G02X205000Y96700I1910J-1914D01*
G01X216030D01*
G03X216350Y97330I-2J397D01*
G02X215480Y100000I3662J2670D01*
G02X224520I4520J0D01*
G02X223650Y97330I-4532J0D01*
G03X223970Y96700I322J-233D01*
G01X236030D01*
G03X236350Y97330I-2J397D01*
G02X235480Y100000I3662J2670D01*
G02X244520I4520J0D01*
G02X243650Y97330I-4532J0D01*
G03X243970Y96700I322J-233D01*
G01X250880D01*
X251300Y97120D01*
Y183620D01*
G02X252090Y185530I2704J0D01*
G01X253470Y186910D01*
G37*
G54D19*
X20000Y20000D03*
X480000D03*
X20000Y400000D03*
X480000D03*
G54D20*
X20000Y100000D03*
X40000D03*
X70000D03*
X90000D03*
X170000D03*
X190000D03*
X270000D03*
X290000D03*
X320000D03*
X340000D03*
X370000D03*
X390000D03*
X20000Y120000D03*
X70000D03*
X90000D03*
X120000D03*
X140000D03*
X170000D03*
X220000D03*
X240000D03*
X270000D03*
X290000D03*
X320000D03*
X340000D03*
X370000D03*
X390000D03*
X70000Y150000D03*
X90000D03*
X120000D03*
X170000D03*
X190000D03*
X220000D03*
X240000D03*
X270000D03*
X290000D03*
X320000D03*
X340000D03*
X370000D03*
X390000D03*
X20000Y170000D03*
X40000D03*
X70000D03*
X90000D03*
X120000D03*
X140000D03*
X170000D03*
X190000D03*
X220000D03*
X240000D03*
X270000D03*
X290000D03*
X320000D03*
X340000D03*
X370000D03*
X390000D03*
X20000Y240000D03*
X40000D03*
X70000D03*
X90000D03*
X120000D03*
X140000D03*
X170000D03*
X190000D03*
X220000D03*
X240000D03*
X270000D03*
X290000D03*
X320000D03*
X340000D03*
X370000D03*
X390000D03*
X20000Y260000D03*
X40000D03*
X70000D03*
X90000D03*
X120000D03*
X140000D03*
X170000D03*
X190000D03*
X220000D03*
X240000D03*
X270000D03*
X290000D03*
X320000D03*
X340000D03*
X370000D03*
X390000D03*
X20000Y290000D03*
X40000D03*
X70000D03*
X90000D03*
X120000D03*
X140000D03*
X169000D03*
X189000D03*
X220000D03*
X240000D03*
X270000D03*
X290000D03*
X320000D03*
X340000D03*
X370000D03*
X390000D03*
X20000Y310000D03*
X70000D03*
X90000D03*
X120000D03*
X140000D03*
X169000D03*
X189000D03*
X220000D03*
X270000D03*
X320000D03*
X340000D03*
X370000D03*
X390000D03*
G54D18*
X104500Y5000D03*
X94500D03*
X164500D03*
X184500D03*
X174500D03*
X194500D03*
X244500D03*
X264500D03*
X254500D03*
X284500D03*
X274500D03*
X334500D03*
X354500D03*
X344500D03*
X374500D03*
X364500D03*
X104500Y15000D03*
X144500D03*
X284500D03*
X274500D03*
X374500D03*
X364500D03*
%LPD*%
G75*
G36*
G01X206120Y91300D02*
X208530D01*
G02X208810Y90620I-2J-398D01*
G01X157880Y39690D01*
G02X157200Y39970I-282J282D01*
G01Y42380D01*
X206120Y91300D01*
G37*
G54D10*
X30000Y110000D03*
Y160000D03*
Y250000D03*
Y300000D03*
X80000Y110000D03*
Y160000D03*
Y250000D03*
Y300000D03*
X130000Y110000D03*
Y160000D03*
Y250000D03*
Y300000D03*
X180000Y110000D03*
Y160000D03*
Y250000D03*
X179000Y300000D03*
X230000Y110000D03*
Y160000D03*
Y250000D03*
Y300000D03*
X280000Y110000D03*
Y160000D03*
Y250000D03*
Y300000D03*
X330000Y110000D03*
Y160000D03*
Y250000D03*
Y300000D03*
X380000Y110000D03*
Y160000D03*
Y250000D03*
Y300000D03*
G54D11*
X6240Y66600D03*
Y61600D03*
Y56600D03*
X7920Y51890D03*
X8900Y75840D03*
X6240Y71600D03*
Y103150D03*
Y98150D03*
Y93150D03*
X7700Y88360D03*
X6240Y123150D03*
Y118150D03*
Y113150D03*
Y108150D03*
Y143150D03*
Y138150D03*
Y133150D03*
Y128150D03*
X9760Y146700D03*
X13760Y64850D03*
Y59850D03*
X18180Y57510D03*
X23180D03*
X28180D03*
X12540Y49990D03*
X17540D03*
X22540D03*
X27540D03*
X26150Y69240D03*
X21150D03*
X16150D03*
X12230Y86240D03*
X17230D03*
X22230D03*
X27230D03*
X28810Y76760D03*
X23810D03*
X18810D03*
X13810D03*
X28000Y103000D03*
X13760Y102930D03*
Y97930D03*
X16520Y93760D03*
X21520D03*
X26520D03*
X23000Y113000D03*
Y109000D03*
X26240Y118460D03*
X27070Y123390D03*
X13760Y122930D03*
Y117930D03*
Y112930D03*
Y107930D03*
X28580Y139240D03*
X23580D03*
X18580D03*
X13760Y137930D03*
Y132930D03*
Y127930D03*
X23000Y159000D03*
Y163000D03*
X28000Y153000D03*
X26240Y180000D03*
Y175000D03*
Y170000D03*
Y200000D03*
Y195000D03*
Y190000D03*
Y185000D03*
Y210000D03*
Y205000D03*
X48260Y25440D03*
X44760Y26170D03*
X45130Y21190D03*
X37240Y28280D03*
Y23280D03*
X37400Y18280D03*
X40940Y14750D03*
X44500Y11240D03*
X37240Y48280D03*
Y43280D03*
Y38280D03*
Y33280D03*
X43240Y58750D03*
Y63750D03*
X33180Y57510D03*
X38180D03*
X32540Y49990D03*
X43240Y68750D03*
X41900Y86350D03*
Y81350D03*
Y76350D03*
X40600Y71520D03*
X36150Y69240D03*
X31150D03*
X32230Y86240D03*
X34380Y81730D03*
X33810Y76760D03*
X32000Y103000D03*
X43240Y93750D03*
X31520Y93760D03*
X36520D03*
X40840Y91240D03*
X37000Y113000D03*
Y109000D03*
X43240Y108750D03*
Y113750D03*
X33760Y118060D03*
X30610Y126930D03*
X34150Y130460D03*
X36240Y135000D03*
X33580Y139240D03*
X43760Y133450D03*
Y138450D03*
X43500Y143440D03*
X37000Y159000D03*
Y163000D03*
X32000Y153000D03*
X34760Y146760D03*
X29760D03*
X33760Y180000D03*
Y175000D03*
Y170000D03*
Y200000D03*
Y195000D03*
Y190000D03*
Y185000D03*
X43600Y206240D03*
X38600D03*
X33760Y205000D03*
X44680Y213760D03*
X39680D03*
X34680D03*
X29690Y213620D03*
X59240Y27870D03*
X51790Y21900D03*
X55570Y28760D03*
X49500Y18760D03*
Y11240D03*
X67240Y47870D03*
Y42870D03*
Y37870D03*
Y32870D03*
X59240D03*
Y37870D03*
Y42870D03*
Y47870D03*
X52030Y32300D03*
X50760Y37130D03*
Y42130D03*
Y47130D03*
X67240Y62870D03*
Y57870D03*
Y52870D03*
X59240D03*
Y57870D03*
Y62870D03*
Y67870D03*
X50760Y52130D03*
Y57130D03*
Y62130D03*
Y67130D03*
X67000Y82000D03*
Y68000D03*
X59240Y72870D03*
Y77870D03*
Y82870D03*
X50760Y72130D03*
Y77130D03*
Y82130D03*
Y87130D03*
X67000Y88000D03*
X59240Y87870D03*
Y92870D03*
Y97870D03*
Y102870D03*
X50760Y92130D03*
Y97130D03*
Y102130D03*
X59240Y107870D03*
Y112870D03*
Y117870D03*
Y122870D03*
X66760Y109590D03*
Y124590D03*
X50760Y107130D03*
Y112130D03*
Y117130D03*
Y122130D03*
X59240Y127870D03*
X66760Y129590D03*
Y134590D03*
Y139590D03*
Y144590D03*
X49290Y136610D03*
X50240Y141520D03*
X50760Y127130D03*
X54140Y130820D03*
X57670Y134350D03*
X57760Y139350D03*
Y144350D03*
X66760Y154590D03*
Y159590D03*
Y164590D03*
X50240Y146520D03*
Y151520D03*
Y156520D03*
Y161520D03*
X57760Y149350D03*
Y154350D03*
Y159350D03*
Y164350D03*
X66760Y174590D03*
Y179590D03*
X50240Y166520D03*
Y171520D03*
Y176520D03*
Y181520D03*
X57760Y169350D03*
Y174350D03*
Y179350D03*
Y184350D03*
X66760Y169590D03*
Y184590D03*
Y189590D03*
Y194590D03*
Y199590D03*
X50240Y186520D03*
Y191520D03*
Y196520D03*
Y201520D03*
X57760Y189350D03*
Y194350D03*
Y199350D03*
X59240Y212870D03*
Y217870D03*
Y222870D03*
X66760Y204590D03*
Y209590D03*
Y214590D03*
X48600Y206240D03*
X57760Y204350D03*
Y209350D03*
X54660Y213280D03*
X49680Y213760D03*
X62620Y226550D03*
X67610Y226760D03*
X70760Y33830D03*
Y38830D03*
X71000Y45000D03*
X83760Y44830D03*
Y39830D03*
Y34830D03*
X71390Y49700D03*
X78460Y56770D03*
X74920Y53230D03*
X82000Y60300D03*
X85530Y63840D03*
X83760Y49830D03*
X86000Y85000D03*
X71000Y86000D03*
X82000Y84000D03*
X78000Y80000D03*
X74000Y76000D03*
X70000Y72000D03*
X82000Y103000D03*
X78000D03*
X69510Y92760D03*
X74510D03*
X79510D03*
X84510D03*
X87000Y109000D03*
Y113000D03*
X73000Y109000D03*
Y113000D03*
X83760Y125000D03*
Y120000D03*
X76240Y125000D03*
Y120000D03*
X83760Y135000D03*
Y130000D03*
X78520Y144450D03*
X76240Y140000D03*
Y135000D03*
Y130000D03*
X87000Y159000D03*
Y163000D03*
X82000Y153000D03*
X73000Y159000D03*
Y163000D03*
X78000Y153000D03*
X83340Y145760D03*
X83760Y180000D03*
Y175000D03*
Y170000D03*
X76240Y180000D03*
Y175000D03*
Y170000D03*
X83760Y200000D03*
Y195000D03*
Y190000D03*
Y185000D03*
X76240Y200000D03*
Y195000D03*
Y190000D03*
Y185000D03*
X83760Y220000D03*
Y215000D03*
Y210000D03*
Y205000D03*
X68590Y219240D03*
X73590D03*
X76240Y215000D03*
Y210000D03*
Y205000D03*
X72610Y226760D03*
X77610D03*
X82190Y224750D03*
X104280Y25950D03*
X100740Y45600D03*
Y40600D03*
Y35600D03*
X88990Y33910D03*
Y38910D03*
Y43910D03*
X96510Y30230D03*
Y35230D03*
Y40230D03*
Y45230D03*
X99390Y64700D03*
X95850Y61160D03*
X92530Y57840D03*
X88850Y67160D03*
X100740Y50600D03*
X88990Y48910D03*
Y53910D03*
X102920Y68230D03*
X106460Y71770D03*
X102000Y85000D03*
X98000D03*
X92000D03*
X92390Y70700D03*
X99460Y77770D03*
X95920Y74230D03*
X103000Y81300D03*
X106530Y84840D03*
X89510Y92760D03*
X94510D03*
X99410Y93730D03*
X102240Y97850D03*
Y102850D03*
Y107850D03*
Y112850D03*
Y117850D03*
Y122850D03*
Y127850D03*
Y132850D03*
Y137850D03*
X101020Y142700D03*
X97480Y139160D03*
X92570Y138240D03*
X87570D03*
X95240Y160390D03*
Y155390D03*
X106750Y176190D03*
X101780Y176760D03*
X97090Y175030D03*
X95240Y165390D03*
X108260Y44470D03*
Y39470D03*
Y34470D03*
X107820Y29490D03*
X108260Y54470D03*
Y49470D03*
X111410Y64090D03*
X109000Y60000D03*
X114940Y67620D03*
X120920Y86230D03*
X117390Y82700D03*
X113850Y79160D03*
X110530Y75840D03*
X124940Y77620D03*
X117870Y70550D03*
X121410Y74090D03*
X126000Y88000D03*
X123000Y109000D03*
Y113000D03*
X115760Y125220D03*
Y110220D03*
Y145220D03*
Y140220D03*
Y135220D03*
Y130220D03*
X123000Y159000D03*
Y163000D03*
X115760Y160220D03*
Y155220D03*
Y180220D03*
Y175220D03*
Y165220D03*
X108240Y180370D03*
X115760Y200220D03*
Y195220D03*
Y190220D03*
Y185220D03*
X108240Y200370D03*
Y195370D03*
Y190370D03*
Y185370D03*
X125660Y211240D03*
X120660D03*
X115760Y210220D03*
Y205220D03*
X122100Y218760D03*
X117100D03*
X112100D03*
X108430Y215360D03*
X108240Y210370D03*
Y205370D03*
X116010Y404240D03*
X111010D03*
X126010Y411760D03*
X121010D03*
X116010D03*
X111010D03*
X130060Y12420D03*
Y17420D03*
Y22420D03*
Y27420D03*
X137580Y14060D03*
Y19060D03*
Y24060D03*
Y29060D03*
X130060Y32420D03*
X131000Y37330D03*
X134540Y40860D03*
X138070Y44400D03*
X141610Y47930D03*
X138310Y34010D03*
X141850Y37540D03*
X145380Y41080D03*
X145140Y51470D03*
X138360Y78240D03*
X143360D03*
X133360D03*
X129000Y78000D03*
X131000Y88000D03*
X136000D03*
X141000D03*
X132000Y103000D03*
X128000D03*
X131710Y96760D03*
X126710D03*
X137000Y109000D03*
Y113000D03*
X126240Y118180D03*
Y123180D03*
X133760Y120500D03*
Y125500D03*
X126240Y128180D03*
Y133180D03*
Y138180D03*
Y143180D03*
X133760Y130500D03*
Y135500D03*
X137070Y139240D03*
X142070D03*
X137000Y159000D03*
Y163000D03*
X132000Y153000D03*
X128000D03*
X129780Y146720D03*
X144240Y159020D03*
Y164020D03*
X126240Y171270D03*
Y176270D03*
Y181270D03*
X133760Y172510D03*
Y177510D03*
Y182510D03*
X126240Y186270D03*
Y191270D03*
Y196270D03*
Y201270D03*
X133760Y187510D03*
Y192510D03*
Y197510D03*
Y202510D03*
X126240Y206270D03*
X133760Y207510D03*
Y212510D03*
X131820Y217120D03*
X127100Y218760D03*
X141010Y404240D03*
X136010D03*
X141010Y411760D03*
X136010D03*
X131010D03*
X164680Y48010D03*
X161140Y44470D03*
X152680Y48010D03*
X149140Y44470D03*
X146420Y32900D03*
Y37900D03*
X163280Y58610D03*
X159750Y55080D03*
X156210Y51540D03*
X148680Y55010D03*
X152210Y58540D03*
X155750Y62080D03*
X159280Y65610D03*
X162000Y82000D03*
X153360Y78240D03*
X158360D03*
X148360D03*
X162820Y69150D03*
X147000Y88000D03*
X149880Y102190D03*
X146340Y98660D03*
X152850Y89760D03*
X156000Y94000D03*
X151240Y122000D03*
Y117000D03*
Y112000D03*
Y107000D03*
X164760Y109010D03*
X147070Y139240D03*
X151240Y142000D03*
Y137000D03*
Y132000D03*
Y127000D03*
X164760Y129010D03*
Y134010D03*
Y154010D03*
Y159010D03*
Y164010D03*
X146430Y168510D03*
X151240Y169900D03*
X156140Y168940D03*
X157240Y172690D03*
Y177690D03*
Y182690D03*
X164760Y174010D03*
Y179010D03*
Y184010D03*
X157240Y187690D03*
Y192690D03*
X157730Y197670D03*
X161660Y200760D03*
X164760Y189010D03*
X153010Y390240D03*
X148010D03*
X163010Y397760D03*
X158010D03*
X153010D03*
X148010D03*
X161010Y404240D03*
X156010D03*
X151010D03*
X146010D03*
X161010Y411760D03*
X156010D03*
X151010D03*
X146010D03*
X174250Y45930D03*
X181320Y53000D03*
X177780Y49460D03*
X182360Y65680D03*
X178820Y62150D03*
X175280Y58610D03*
X171750Y55080D03*
X168210Y51540D03*
X170360Y65680D03*
X166820Y62150D03*
X165000Y86000D03*
X180960Y76290D03*
X177430Y72750D03*
X173890Y69220D03*
X166360Y72680D03*
X169890Y76220D03*
X173430Y79750D03*
X176960Y83290D03*
X180500Y86830D03*
X166000Y92000D03*
X182000Y103000D03*
X178000D03*
X184030Y90360D03*
X173000Y109000D03*
Y113000D03*
X176240Y120160D03*
Y125160D03*
X183760Y121480D03*
X178620Y129560D03*
X183480Y130760D03*
X182620Y137240D03*
X177620D03*
X172620D03*
X167620D03*
X183890Y144760D03*
X178890D03*
X173890D03*
X182000Y153000D03*
X173000Y159000D03*
Y163000D03*
X178000Y153000D03*
X183760Y180000D03*
Y175000D03*
Y170000D03*
X176240Y180000D03*
Y175000D03*
Y170000D03*
X166660Y200760D03*
X171660D03*
X176660D03*
X181480Y199450D03*
X183760Y195000D03*
Y190000D03*
Y185000D03*
X167430Y193240D03*
X172430D03*
X176240Y190000D03*
Y185000D03*
X184000Y376240D03*
X179000Y383760D03*
X184000D03*
X183010Y390240D03*
X178010D03*
X173010D03*
X168010D03*
X183010Y397760D03*
X178010D03*
X173010D03*
X168010D03*
X181010Y404240D03*
X176010D03*
X171010D03*
X166010D03*
X181010Y411760D03*
X176010D03*
X171010D03*
X166010D03*
X196960Y23760D03*
X201940Y24260D03*
X203460Y43380D03*
X199930Y39850D03*
X196390Y36310D03*
X192850Y32780D03*
X195720Y46280D03*
X192190Y42740D03*
X188650Y39210D03*
X185110Y35670D03*
X195460Y67140D03*
X188390Y60070D03*
X191920Y63610D03*
X184850Y56530D03*
X202790Y53350D03*
X199260Y49810D03*
X202530Y74210D03*
X198990Y70680D03*
X203500Y86830D03*
X191500D03*
X200030Y83360D03*
X196500Y79830D03*
X192960Y76290D03*
X189430Y72750D03*
X185890Y69220D03*
X188030Y83360D03*
X184500Y79830D03*
X200000Y95000D03*
X202060Y106420D03*
Y101420D03*
X195030Y90360D03*
X187570Y93900D03*
X202060Y121420D03*
Y116420D03*
Y111420D03*
X187000Y109000D03*
Y113000D03*
X193240Y106950D03*
Y111950D03*
X188480Y130760D03*
X187620Y137240D03*
X187000Y159000D03*
Y163000D03*
X193240Y156950D03*
Y161950D03*
X200760Y148530D03*
Y153530D03*
Y158530D03*
Y163530D03*
X193240Y176950D03*
Y181950D03*
X200760Y168530D03*
Y173530D03*
Y178530D03*
Y183530D03*
X193240Y186950D03*
Y191950D03*
X196660Y195600D03*
X201660Y195760D03*
X202430Y188240D03*
X189000Y376240D03*
Y383760D03*
X194000D03*
X199000D03*
X203010Y390240D03*
X198010D03*
X193010D03*
X188010D03*
X203010Y397760D03*
X198010D03*
X193010D03*
X188010D03*
X201010Y404240D03*
X196010D03*
X191010D03*
X186010D03*
X201010Y411760D03*
X196010D03*
X191010D03*
X186010D03*
X205590Y6240D03*
X210590D03*
X215590D03*
X220590D03*
X210560Y13760D03*
X215560D03*
X220240Y15530D03*
Y20530D03*
Y25530D03*
X205470Y27790D03*
X204590Y16270D03*
X208120Y19810D03*
X211660Y23340D03*
X215190Y26880D03*
X209010Y31330D03*
X212540Y34860D03*
X216080Y38400D03*
X219620Y41930D03*
X223150Y45470D03*
X218730Y30410D03*
X207000Y46920D03*
X221140Y61060D03*
X217600Y57530D03*
X214070Y53990D03*
X210530Y50450D03*
X216930Y67490D03*
X213400Y63960D03*
X209860Y60420D03*
X206330Y56890D03*
X218630Y85240D03*
X213630Y84240D03*
X209600Y81280D03*
X206070Y77750D03*
X220470Y71030D03*
X207030Y90360D03*
X212060Y101420D03*
Y106420D03*
X223000Y109000D03*
Y113000D03*
X212060Y111420D03*
Y116420D03*
Y121420D03*
X209000Y144000D03*
X211000Y134000D03*
X214250Y143760D03*
X219250D03*
X214910Y136240D03*
X219910D03*
X210760Y128730D03*
X223000Y159000D03*
Y163000D03*
X204000Y146000D03*
X206660Y195760D03*
X211660D03*
X216660D03*
X221660D03*
X207430Y188240D03*
X212430D03*
X217430D03*
X222430D03*
X223010Y362240D03*
X218010D03*
X223010Y369760D03*
X218010D03*
X204000Y376240D03*
X209000D03*
X214000D03*
X219000D03*
X204000Y383760D03*
X209000D03*
X214000D03*
X219000D03*
X223010Y390240D03*
X218010D03*
X213010D03*
X208010D03*
X223010Y397760D03*
X218010D03*
X213010D03*
X208010D03*
X221010Y404240D03*
X216010D03*
X211010D03*
X206010D03*
X221010Y411760D03*
X216010D03*
X211010D03*
X206010D03*
X225430Y7490D03*
X227760Y11910D03*
Y16910D03*
Y21910D03*
Y26910D03*
Y31910D03*
X235660Y46350D03*
X232130Y42810D03*
X228590Y39280D03*
X239200Y49880D03*
X226690Y49000D03*
X230220Y52540D03*
X233760Y56080D03*
X237290Y59610D03*
X240830Y63150D03*
X224670Y64600D03*
X231000Y82000D03*
X224000Y86000D03*
X239300Y86240D03*
X234300D03*
X229300D03*
X239250Y78240D03*
X235280Y75200D03*
X231750Y71670D03*
X228210Y68130D03*
X227540Y78100D03*
X224010Y74560D03*
X232000Y103000D03*
X228000D03*
X232120Y98760D03*
X227120D03*
X237000Y109000D03*
Y113000D03*
X226240Y125000D03*
X224250Y143760D03*
X229250D03*
X234250D03*
X239250D03*
X224910Y136240D03*
X229910D03*
X234910D03*
X239910D03*
X242130Y131760D03*
X237130D03*
X232130D03*
X227520Y129830D03*
X237000Y159000D03*
Y163000D03*
X232000Y153000D03*
X228000D03*
X233760Y180000D03*
Y175000D03*
Y170000D03*
X226240Y180000D03*
Y175000D03*
Y170000D03*
X226660Y195760D03*
X231480Y194450D03*
X233760Y190000D03*
Y185000D03*
X226240D03*
X238010Y362240D03*
Y369760D03*
X233010D03*
X228010D03*
X224000Y376240D03*
X229000D03*
X234000D03*
X239000D03*
X224000Y383760D03*
X229000D03*
X234000D03*
X239000D03*
X238010Y390240D03*
X233010D03*
X228010D03*
X238010Y397760D03*
X233010D03*
X228010D03*
X241010Y404240D03*
X236010D03*
X231010D03*
X226010D03*
X241010Y411760D03*
X236010D03*
X231010D03*
X226010D03*
X256880Y67560D03*
X253340Y64020D03*
X249810Y60490D03*
X246270Y56950D03*
X242740Y53420D03*
X244360Y66680D03*
X254000Y78000D03*
X258300Y78240D03*
X259300Y86240D03*
X254300D03*
X244300D03*
X249300D03*
X247900Y70220D03*
X251440Y73750D03*
X249250Y78240D03*
X244250D03*
X257760Y103490D03*
Y98490D03*
X250240Y105590D03*
Y100590D03*
X246120Y97760D03*
X257760Y118490D03*
Y113490D03*
Y108490D03*
X250240Y120590D03*
Y115590D03*
Y110590D03*
X261410Y124240D03*
X246410D03*
X260000Y145000D03*
X249000D03*
X247000Y132000D03*
X244250Y143760D03*
X244910Y136240D03*
X259910D03*
X257760Y163490D03*
Y158490D03*
Y153490D03*
Y148490D03*
X250240Y160590D03*
Y155590D03*
Y150590D03*
X261940Y181240D03*
X257760Y178490D03*
Y173490D03*
Y168490D03*
X250240Y180590D03*
Y175590D03*
Y170590D03*
Y165590D03*
X259490Y188760D03*
X254490D03*
X250640Y185570D03*
X253000Y355760D03*
X258000D03*
Y348240D03*
X258010Y362240D03*
X253010D03*
X248010D03*
X243010D03*
X258010Y369760D03*
X253010D03*
X248010D03*
X243010D03*
X244000Y376240D03*
X249000D03*
X254000D03*
X259000D03*
X244000Y383760D03*
X249000D03*
X254000D03*
X259000D03*
X258010Y390240D03*
X253010D03*
X248010D03*
X243010D03*
X258010Y397760D03*
X253010D03*
X248010D03*
X243010D03*
X261010Y404240D03*
X256010D03*
X251010D03*
X246010D03*
X261010Y411760D03*
X256010D03*
X251010D03*
X246010D03*
X268300Y78240D03*
X263300D03*
X262000Y70000D03*
X278300Y78240D03*
X273300D03*
X280300Y86240D03*
X275300D03*
X270300D03*
X265300D03*
X268300Y70240D03*
X273300D03*
X278300D03*
X278000Y103000D03*
X278310Y93760D03*
X273310D03*
X268310D03*
X263310D03*
X273000Y109000D03*
Y113000D03*
X276240Y119660D03*
Y124660D03*
X266410Y124240D03*
X277000Y136000D03*
X280610Y137760D03*
X264250Y143760D03*
X269250D03*
X276000Y142000D03*
X264910Y136240D03*
X267130Y131760D03*
X262130D03*
X273000Y159000D03*
Y163000D03*
X278000Y153000D03*
X276240Y168690D03*
Y173690D03*
Y178690D03*
X271940Y181240D03*
X266940D03*
X279490Y188760D03*
X274490D03*
X269490D03*
X264490D03*
X263000Y355760D03*
X268000D03*
X273000D03*
X278000D03*
Y348240D03*
X278010Y362240D03*
X273010D03*
X268010D03*
X263010D03*
X278010Y369760D03*
X273010D03*
X268010D03*
X263010D03*
X264000Y376240D03*
X269000D03*
X274000D03*
X279000D03*
X264000Y383760D03*
X269000D03*
X274000D03*
X279000D03*
X278010Y390240D03*
X273010D03*
X268010D03*
X263010D03*
X278010Y397760D03*
X273010D03*
X268010D03*
X263010D03*
X281010Y404240D03*
X276010D03*
X271010D03*
X266010D03*
X281010Y411760D03*
X276010D03*
X271010D03*
X266010D03*
X298300Y78240D03*
X288300D03*
X283300D03*
X293300D03*
X290300Y86240D03*
X285300D03*
X293300Y70240D03*
X283300D03*
X288300D03*
X298300D03*
X297280Y87960D03*
X282000Y103000D03*
X296240Y104210D03*
X283310Y93760D03*
X287000Y109000D03*
Y113000D03*
X283760Y120420D03*
Y125420D03*
X296240Y124210D03*
Y119210D03*
Y114210D03*
Y109210D03*
X285610Y137760D03*
X290610D03*
X285100Y130240D03*
X290100D03*
X296240Y144210D03*
Y139210D03*
Y129210D03*
X287000Y159000D03*
Y163000D03*
X282000Y153000D03*
X296240Y164210D03*
Y159210D03*
Y154210D03*
Y149210D03*
X298650Y168590D03*
X283760Y165600D03*
Y170600D03*
Y175600D03*
Y180600D03*
X283350Y185590D03*
X293000Y334240D03*
X298000D03*
X283000Y355760D03*
X288000D03*
X293000D03*
X298000D03*
X283000Y348240D03*
X288000D03*
X293000D03*
X298000D03*
X288000Y341760D03*
X293000D03*
X298000D03*
X298010Y362240D03*
X293010D03*
X288010D03*
X283010D03*
X298010Y369760D03*
X293010D03*
X288010D03*
X283010D03*
X284000Y376240D03*
X289000D03*
X294000D03*
X299000D03*
X284000Y383760D03*
X289000D03*
X294000D03*
X299000D03*
X298010Y390240D03*
X293010D03*
X288010D03*
X283010D03*
X298010Y397760D03*
X293010D03*
X288010D03*
X283010D03*
X296010Y404240D03*
X291010D03*
X286010D03*
X296010Y411760D03*
X291010D03*
X286010D03*
X318300Y78240D03*
X313300D03*
X308300D03*
X303300D03*
Y70240D03*
X308300D03*
X313300D03*
X318300D03*
X306280Y85960D03*
X302750Y82430D03*
X304350Y95040D03*
X300820Y91500D03*
X313350Y93040D03*
X309820Y89500D03*
X314760Y112830D03*
Y107830D03*
X319600Y139070D03*
X314760Y137830D03*
Y132830D03*
Y127830D03*
X309380Y145150D03*
X307240Y140630D03*
X303760Y144520D03*
Y139520D03*
X310880Y158180D03*
X307950Y162240D03*
X303760Y159520D03*
Y154520D03*
Y149520D03*
X308510Y169760D03*
X303510D03*
X313000Y334240D03*
X318000D03*
X303000Y355760D03*
X308000D03*
X313000D03*
X318000D03*
X303000Y348240D03*
X308000D03*
X313000D03*
X318000D03*
X303000Y341760D03*
X308000D03*
X313000D03*
X318000D03*
X318010Y362240D03*
X313010D03*
X308010D03*
X303010D03*
X318010Y369760D03*
X313010D03*
X308010D03*
X303010D03*
X304000Y376240D03*
X309000D03*
X314000D03*
X319000D03*
X304000Y383760D03*
X309000D03*
X314000D03*
X319000D03*
X318010Y390240D03*
X313010D03*
X308010D03*
X303010D03*
X318010Y397760D03*
X313010D03*
X308010D03*
X303010D03*
X316010Y404240D03*
X311010D03*
X306010D03*
X301010D03*
X316010Y411760D03*
X311010D03*
X306010D03*
X301010D03*
X329000Y79000D03*
X323300Y78240D03*
Y70240D03*
X328300D03*
X333300D03*
X338300D03*
X333420Y81760D03*
X336970Y85280D03*
X332000Y103000D03*
X328000D03*
X337000Y109000D03*
Y113000D03*
X323000Y109000D03*
Y113000D03*
X326240Y119350D03*
Y124350D03*
X333760Y118630D03*
Y123630D03*
X326240Y129350D03*
Y134350D03*
X324600Y139070D03*
X333760Y128630D03*
Y133630D03*
Y138630D03*
X333170Y143600D03*
X328000Y153000D03*
X332000D03*
X337000Y158000D03*
Y162000D03*
X329170Y146590D03*
X328000Y167000D03*
X332000D03*
X323000Y334240D03*
X328000D03*
X333000D03*
X338000D03*
X323000Y355760D03*
X328000D03*
X333000D03*
X338000D03*
X323000Y348240D03*
X328000D03*
X333000D03*
X338000D03*
X323000Y341760D03*
X328000D03*
X333000D03*
X338000D03*
X338010Y362240D03*
X333010D03*
X328010D03*
X323010D03*
X338010Y369760D03*
X333010D03*
X328010D03*
X323010D03*
X324000Y376240D03*
X329000D03*
X334000D03*
X339000D03*
X324000Y383760D03*
X329000D03*
X334000D03*
X339000D03*
X338010Y390240D03*
X333010D03*
X328010D03*
X323010D03*
X338010Y397760D03*
X333010D03*
X328010D03*
X323010D03*
X336010Y404240D03*
X331010D03*
X326010D03*
X321010D03*
X336010Y411760D03*
X331010D03*
X326010D03*
X321010D03*
X357000Y87000D03*
X352000D03*
X343000Y79000D03*
X357000D03*
X352000Y78000D03*
X343300Y70240D03*
X348300Y70360D03*
X351760Y73970D03*
X354000Y92000D03*
X340500Y88820D03*
X344040Y92350D03*
X347570Y95890D03*
X351110Y99430D03*
X352240Y104300D03*
X357460Y95140D03*
X352240Y109300D03*
Y114300D03*
X352930Y119250D03*
X356470Y122780D03*
X343000Y334240D03*
X348000D03*
X353000D03*
X358000D03*
X351000Y321240D03*
X356000D03*
X355000Y330240D03*
X350000D03*
X343000Y355760D03*
X348000D03*
X353000D03*
X358000D03*
X343000Y348240D03*
X348000D03*
X353000D03*
X358000D03*
X343000Y341760D03*
X348000D03*
X353000D03*
X358000D03*
X358010Y362240D03*
X353010D03*
X348010D03*
X343010D03*
X358010Y369760D03*
X353010D03*
X348010D03*
X343010D03*
X344000Y376240D03*
X349000D03*
X354000D03*
X344000Y383760D03*
X349000D03*
X354000D03*
X358010Y390240D03*
X353010D03*
X348010D03*
X343010D03*
X358010Y397760D03*
X353010D03*
X348010D03*
X343010D03*
X356010Y404240D03*
X351010D03*
X346010D03*
X341010D03*
X356010Y411760D03*
X351010D03*
X346010D03*
X341010D03*
X367000Y87000D03*
X362000D03*
Y79000D03*
X373590Y85760D03*
X367620Y78450D03*
X372610Y78240D03*
X377610D03*
X376240Y90000D03*
Y95000D03*
Y100000D03*
X359760Y99580D03*
Y104580D03*
X378000Y117000D03*
X373000Y111000D03*
Y107000D03*
X359760Y109580D03*
Y114580D03*
X362840Y118520D03*
X360000Y126320D03*
X363540Y129850D03*
X367070Y133390D03*
X370610Y136930D03*
X374140Y140460D03*
X376240Y145000D03*
X373440Y129130D03*
X376980Y132660D03*
X373000Y161000D03*
Y157000D03*
X376240Y150000D03*
X378000Y167000D03*
X363000Y334240D03*
X368000D03*
X373000D03*
X378000D03*
X366000Y321240D03*
X371000D03*
X376000D03*
X361000D03*
X360000Y330240D03*
X375000D03*
X370000D03*
X365000D03*
X363000Y355760D03*
X368000D03*
X373000D03*
X378000D03*
X363000Y348240D03*
X368000D03*
X373000D03*
X378000D03*
X363000Y341760D03*
X368000D03*
X373000D03*
X378000D03*
X378010Y362240D03*
X373010D03*
X368010D03*
X363010D03*
X378010Y369760D03*
X373010D03*
X368010D03*
X363010D03*
X359000Y376240D03*
X364000D03*
X369000D03*
X374000D03*
X359000Y383760D03*
X364000D03*
X369000D03*
X374000D03*
X378010Y390240D03*
X373010D03*
X368010D03*
X363010D03*
X378010Y397760D03*
X373010D03*
X368010D03*
X363010D03*
X376010Y404240D03*
X371010D03*
X366010D03*
X361010D03*
X376010Y411760D03*
X371010D03*
X366010D03*
X361010D03*
X382190Y80250D03*
X383760Y85000D03*
X395000Y71000D03*
X383760Y90000D03*
Y95000D03*
Y100000D03*
X382000Y117000D03*
X387000Y111000D03*
Y107000D03*
X380510Y136200D03*
X383760Y140000D03*
Y145000D03*
X387000Y161000D03*
Y157000D03*
X383760Y150000D03*
X382000Y167000D03*
X383000Y334240D03*
X388000D03*
X393000D03*
X386000Y321240D03*
X391000D03*
X396000D03*
X381000D03*
X380000Y330240D03*
X395000D03*
X390000D03*
X385000D03*
X383000Y355760D03*
X388000D03*
X393000D03*
X383000Y348240D03*
X388000D03*
X393000D03*
X383000Y341760D03*
X388000D03*
X393000D03*
X393010Y362240D03*
X388010D03*
X383010D03*
X393010Y369760D03*
X388010D03*
X383010D03*
X379000Y376240D03*
X384000D03*
X389000D03*
X394000D03*
X379000Y383760D03*
X384000D03*
X389000D03*
X394000D03*
X393010Y390240D03*
X388010D03*
X383010D03*
X393010Y397760D03*
X388010D03*
X383010D03*
X396010Y404240D03*
X391010D03*
X386010D03*
X381010D03*
X396010Y411760D03*
X391010D03*
X386010D03*
X381010D03*
X416000Y64000D03*
X412000Y60000D03*
X402000Y65000D03*
X413240Y78000D03*
Y83000D03*
X409760D03*
Y78000D03*
X402240Y83000D03*
Y78000D03*
X399000Y75000D03*
X410000Y73000D03*
X406000Y69000D03*
X413240Y88000D03*
Y93000D03*
Y98000D03*
Y103000D03*
X409760D03*
Y98000D03*
Y93000D03*
Y88000D03*
X402240Y103000D03*
Y98000D03*
Y93000D03*
Y88000D03*
X413240Y108000D03*
Y113000D03*
Y118000D03*
Y123000D03*
X409760D03*
Y118000D03*
Y113000D03*
Y108000D03*
X402240Y123000D03*
Y118000D03*
Y113000D03*
Y108000D03*
X413240Y128000D03*
Y133000D03*
Y138000D03*
Y143000D03*
X409760D03*
Y138000D03*
Y133000D03*
Y128000D03*
X402240Y143000D03*
Y138000D03*
Y133000D03*
Y128000D03*
X413240Y148000D03*
Y153000D03*
Y158000D03*
Y163000D03*
X409760D03*
Y158000D03*
Y153000D03*
Y148000D03*
X402240Y163000D03*
Y158000D03*
Y153000D03*
Y148000D03*
X413240Y168000D03*
Y173000D03*
Y178000D03*
Y183000D03*
X409760D03*
Y178000D03*
Y173000D03*
Y168000D03*
X402240Y183000D03*
Y178000D03*
Y173000D03*
Y168000D03*
X413240Y188000D03*
Y193000D03*
Y198000D03*
Y203000D03*
X409760D03*
Y198000D03*
Y193000D03*
Y188000D03*
X402240Y203000D03*
Y198000D03*
Y193000D03*
Y188000D03*
X413240Y208000D03*
Y213000D03*
Y218000D03*
Y223000D03*
X409760D03*
Y218000D03*
Y213000D03*
Y208000D03*
X402240Y223000D03*
Y218000D03*
Y213000D03*
Y208000D03*
X413240Y228000D03*
Y233000D03*
Y238000D03*
X409760D03*
Y233000D03*
Y228000D03*
X402240Y238000D03*
Y233000D03*
Y228000D03*
X413240Y243000D03*
Y248000D03*
Y253000D03*
Y258000D03*
X409760D03*
Y253000D03*
Y248000D03*
Y243000D03*
X402240Y258000D03*
Y253000D03*
Y248000D03*
Y243000D03*
X413240Y263000D03*
Y268000D03*
Y273000D03*
Y278000D03*
X409760D03*
Y273000D03*
Y268000D03*
Y263000D03*
X402240Y278000D03*
Y273000D03*
Y268000D03*
Y263000D03*
X413240Y283000D03*
Y288000D03*
Y293000D03*
Y298000D03*
X409760D03*
Y293000D03*
Y288000D03*
Y283000D03*
X413240Y303000D03*
Y308000D03*
X409760Y313000D03*
Y308000D03*
Y303000D03*
X402240Y308000D03*
Y303000D03*
X398000Y334240D03*
X403000D03*
X417000Y322000D03*
X414000Y325000D03*
X411000Y328000D03*
X415000Y338000D03*
X407000Y331000D03*
X401000Y321240D03*
X400000Y330240D03*
X398000Y355760D03*
X403000D03*
X408000D03*
X398000Y348240D03*
X403000D03*
X398000Y341760D03*
X403000D03*
X408000D03*
X412000Y341000D03*
X413000Y354000D03*
X416000Y351000D03*
X403010Y362240D03*
X398010D03*
X408010Y369760D03*
X403010D03*
X398010D03*
X399000Y376240D03*
X404000D03*
X413000Y368000D03*
X416000Y365000D03*
X399000Y383760D03*
X404000D03*
X409000D03*
X403010Y390240D03*
X398010D03*
X408010Y397760D03*
X403010D03*
X398010D03*
X413000Y382000D03*
X416000Y379000D03*
X412000Y397000D03*
X415000Y394000D03*
X406010Y404240D03*
X401010D03*
X411010Y411760D03*
X406010D03*
X401010D03*
X414000Y409000D03*
X417000Y406000D03*
X431000Y64000D03*
X427000Y60000D03*
X423000Y56000D03*
X436000Y53000D03*
X432000Y49000D03*
X420760Y73000D03*
Y78000D03*
Y83000D03*
X432760Y83010D03*
Y78010D03*
Y73010D03*
X425240Y83010D03*
Y78010D03*
Y73010D03*
X420000Y68000D03*
X435000Y69000D03*
X420760Y88000D03*
Y93000D03*
Y98000D03*
Y103000D03*
X432760Y103010D03*
Y98010D03*
Y93010D03*
Y88010D03*
X425240Y103010D03*
Y98010D03*
Y93010D03*
Y88010D03*
X420760Y108000D03*
Y113000D03*
Y118000D03*
Y123000D03*
X432760Y123010D03*
Y118010D03*
Y113010D03*
Y108010D03*
X425240Y123010D03*
Y118010D03*
Y113010D03*
Y108010D03*
X420760Y128000D03*
Y133000D03*
Y138000D03*
Y143000D03*
X432760Y143010D03*
Y138010D03*
Y133010D03*
Y128010D03*
X425240Y143010D03*
Y138010D03*
Y133010D03*
Y128010D03*
X420760Y148000D03*
Y153000D03*
Y158000D03*
Y163000D03*
X432760Y163010D03*
Y158010D03*
Y153010D03*
Y148010D03*
X425240Y163010D03*
Y158010D03*
Y153010D03*
Y148010D03*
X420760Y168000D03*
Y173000D03*
Y178000D03*
Y183000D03*
X432760Y183010D03*
Y178010D03*
Y173010D03*
Y168010D03*
X425240Y183010D03*
Y178010D03*
Y173010D03*
Y168010D03*
X420760Y188000D03*
Y193000D03*
Y198000D03*
Y203000D03*
X432760Y203010D03*
Y198010D03*
Y193010D03*
Y188010D03*
X425240Y203010D03*
Y198010D03*
Y193010D03*
Y188010D03*
X420760Y208000D03*
Y213000D03*
Y218000D03*
Y223000D03*
X432760Y223010D03*
Y218010D03*
Y213010D03*
Y208010D03*
X425240Y223010D03*
Y218010D03*
Y213010D03*
Y208010D03*
X420760Y228000D03*
Y233000D03*
Y238000D03*
X432760Y238010D03*
Y233010D03*
Y228010D03*
X425240Y238010D03*
Y233010D03*
Y228010D03*
X420760Y243000D03*
Y248000D03*
Y253000D03*
Y258000D03*
X432760Y258010D03*
Y253010D03*
Y248010D03*
Y243010D03*
X425240Y258010D03*
Y253010D03*
Y248010D03*
Y243010D03*
X420760Y263000D03*
Y268000D03*
Y273000D03*
Y278000D03*
X432760Y278010D03*
Y273010D03*
Y268010D03*
Y263010D03*
X425240Y278010D03*
Y273010D03*
Y268010D03*
Y263010D03*
X420760Y283000D03*
Y288000D03*
Y293000D03*
Y298000D03*
X432760Y298010D03*
Y293010D03*
Y288010D03*
Y283010D03*
X425240Y298010D03*
Y293010D03*
Y288010D03*
Y283010D03*
X420760Y303000D03*
Y308000D03*
Y313000D03*
X432760Y318010D03*
Y313010D03*
Y308010D03*
Y303010D03*
X425240Y313010D03*
Y308010D03*
Y303010D03*
X420000Y319000D03*
X423000Y316000D03*
X421000Y332000D03*
X424000Y329000D03*
X418000Y335000D03*
X434000Y333000D03*
X428000Y339000D03*
X431000Y336000D03*
X430000Y323000D03*
X427000Y326000D03*
X422000Y345000D03*
X425000Y342000D03*
X419000Y348000D03*
X425000Y356000D03*
X434000Y347000D03*
X428000Y353000D03*
X431000Y350000D03*
X422000Y359000D03*
X419000Y362000D03*
X422000Y373000D03*
X425000Y370000D03*
X419000Y376000D03*
X434000Y361000D03*
X428000Y367000D03*
X431000Y364000D03*
X436000Y373000D03*
X433000Y376000D03*
X421000Y388000D03*
X424000Y385000D03*
X418000Y391000D03*
X427000Y382000D03*
X430000Y379000D03*
X426000Y397000D03*
X435000Y388000D03*
X429000Y394000D03*
X432000Y391000D03*
X423000Y400000D03*
X420000Y403000D03*
X455000Y42000D03*
X451000Y38000D03*
X447000Y34000D03*
X444000Y46000D03*
X440000Y42000D03*
X444760Y67010D03*
X444000Y61000D03*
X440000Y57000D03*
X452000Y54000D03*
X448000Y50000D03*
X444760Y87010D03*
Y82010D03*
Y77010D03*
Y72010D03*
X437240Y87010D03*
Y82010D03*
Y77010D03*
Y72010D03*
X449240Y68000D03*
Y73000D03*
Y78000D03*
Y83000D03*
X444760Y102010D03*
Y97010D03*
Y92010D03*
X437240Y102010D03*
Y97010D03*
Y92010D03*
X449240Y88000D03*
Y93000D03*
Y98000D03*
Y103000D03*
X444760Y122010D03*
Y117010D03*
Y112010D03*
Y107010D03*
X437240Y122010D03*
Y117010D03*
Y112010D03*
Y107010D03*
X449240Y108000D03*
Y113000D03*
Y118000D03*
Y123000D03*
X444760Y142010D03*
Y137010D03*
Y132010D03*
Y127010D03*
X437240Y142010D03*
Y137010D03*
Y132010D03*
Y127010D03*
X449240Y128000D03*
Y133000D03*
Y138000D03*
Y143000D03*
X444760Y162010D03*
Y157010D03*
Y152010D03*
Y147010D03*
X437240Y162010D03*
Y157010D03*
Y152010D03*
Y147010D03*
X449240Y148000D03*
Y153000D03*
Y158000D03*
Y163000D03*
X444760Y182010D03*
Y177010D03*
Y172010D03*
Y167010D03*
X437240Y182010D03*
Y177010D03*
Y172010D03*
Y167010D03*
X449240Y168000D03*
Y173000D03*
Y178000D03*
Y183000D03*
X444760Y202010D03*
Y197010D03*
Y192010D03*
Y187010D03*
X437240Y202010D03*
Y197010D03*
Y192010D03*
Y187010D03*
X449240Y188000D03*
Y193000D03*
Y198000D03*
Y203000D03*
X444760Y222010D03*
Y217010D03*
Y212010D03*
Y207010D03*
X437240Y222010D03*
Y217010D03*
Y212010D03*
Y207010D03*
X449240Y208000D03*
Y213000D03*
Y218000D03*
Y223000D03*
X444760Y242010D03*
Y237010D03*
Y232010D03*
Y227010D03*
X437240Y242010D03*
Y237010D03*
Y232010D03*
Y227010D03*
X449240Y228000D03*
Y233000D03*
Y238000D03*
X444760Y257010D03*
Y252010D03*
Y247010D03*
X437240Y257010D03*
Y252010D03*
Y247010D03*
X449240Y243000D03*
Y248000D03*
Y253000D03*
Y258000D03*
X444760Y277010D03*
Y272010D03*
Y267010D03*
Y262010D03*
X437240Y277010D03*
Y272010D03*
Y267010D03*
Y262010D03*
X449240Y263000D03*
Y268000D03*
Y273000D03*
Y278000D03*
X444760Y297010D03*
Y292010D03*
Y287010D03*
Y282010D03*
X437240Y297010D03*
Y292010D03*
Y287010D03*
Y282010D03*
X449240Y283000D03*
Y288000D03*
Y293000D03*
Y298000D03*
X444760Y317010D03*
Y312010D03*
Y307010D03*
Y302010D03*
X437240Y317010D03*
Y312010D03*
Y307010D03*
Y302010D03*
X449240Y303000D03*
Y308000D03*
Y313000D03*
Y318000D03*
X437000Y330000D03*
X440000Y327000D03*
X452000Y329000D03*
X455000Y326000D03*
X449000Y332000D03*
X443000Y338000D03*
X446000Y335000D03*
Y321000D03*
X443000Y324000D03*
X437000Y344000D03*
X440000Y341000D03*
X437000Y358000D03*
X440000Y355000D03*
X452000Y343000D03*
X455000Y340000D03*
X449000Y346000D03*
X443000Y352000D03*
X446000Y349000D03*
X451000Y358000D03*
X454000Y355000D03*
X439000Y370000D03*
X448000Y361000D03*
X442000Y367000D03*
X445000Y364000D03*
X453000Y370000D03*
X450000Y373000D03*
X447000Y376000D03*
X438000Y385000D03*
X441000Y382000D03*
X444000Y379000D03*
X470000Y29000D03*
X466000Y25000D03*
X462000Y21000D03*
X475000Y48000D03*
X471000Y44000D03*
X467000Y40000D03*
X463000Y36000D03*
X459000Y32000D03*
Y46000D03*
X474000Y33000D03*
X456760Y63000D03*
X468760Y65010D03*
Y60010D03*
X461240Y65010D03*
X473240Y62000D03*
Y67000D03*
X456000Y58000D03*
X467000Y54000D03*
X463000Y50000D03*
X456760Y68000D03*
Y73000D03*
Y78000D03*
Y83000D03*
X468760Y85010D03*
Y80010D03*
Y75010D03*
Y70010D03*
X461240Y85010D03*
Y80010D03*
Y75010D03*
Y70010D03*
X473240Y72000D03*
Y77000D03*
Y82000D03*
Y87000D03*
X456760Y88000D03*
Y93000D03*
Y98000D03*
Y103000D03*
X468760Y105010D03*
Y100010D03*
Y95010D03*
Y90010D03*
X461240Y105010D03*
Y100010D03*
Y95010D03*
Y90010D03*
X473240Y92000D03*
Y97000D03*
Y102000D03*
X456760Y108000D03*
Y113000D03*
Y118000D03*
Y123000D03*
X468760Y125010D03*
Y120010D03*
Y115010D03*
Y110010D03*
X461240Y125010D03*
Y120010D03*
Y115010D03*
Y110010D03*
X473240Y107000D03*
Y112000D03*
Y117000D03*
Y122000D03*
X456760Y128000D03*
Y133000D03*
Y138000D03*
Y143000D03*
X468760Y145010D03*
Y140010D03*
Y135010D03*
Y130010D03*
X461240Y145010D03*
Y140010D03*
Y135010D03*
Y130010D03*
X473240Y127000D03*
Y132000D03*
Y137000D03*
Y142000D03*
X456760Y148000D03*
Y153000D03*
Y158000D03*
Y163000D03*
X468760Y160010D03*
Y155010D03*
Y150010D03*
X461240Y160010D03*
Y155010D03*
Y150010D03*
X473240Y147000D03*
Y152000D03*
Y157000D03*
Y162000D03*
X456760Y168000D03*
Y173000D03*
Y178000D03*
Y183000D03*
X468760Y180010D03*
Y175010D03*
Y170010D03*
Y165010D03*
X461240Y180010D03*
Y175010D03*
Y170010D03*
Y165010D03*
X473240Y167000D03*
Y172000D03*
Y177000D03*
Y182000D03*
X456760Y188000D03*
Y193000D03*
Y198000D03*
Y203000D03*
X468760Y200010D03*
Y195010D03*
Y190010D03*
Y185010D03*
X461240Y200010D03*
Y195010D03*
Y190010D03*
Y185010D03*
X473240Y187000D03*
Y192000D03*
Y197000D03*
Y202000D03*
X456760Y208000D03*
Y213000D03*
Y218000D03*
Y223000D03*
X468760Y220010D03*
Y215010D03*
Y210010D03*
Y205010D03*
X461240Y220010D03*
Y215010D03*
Y210010D03*
Y205010D03*
X473240Y207000D03*
Y212000D03*
Y217000D03*
Y222000D03*
X456760Y228000D03*
Y233000D03*
Y238000D03*
X468760Y240010D03*
Y235010D03*
Y230010D03*
Y225010D03*
X461240Y240010D03*
Y235010D03*
Y230010D03*
Y225010D03*
X473240Y227000D03*
Y232000D03*
Y237000D03*
Y242000D03*
X456760Y243000D03*
Y248000D03*
Y253000D03*
Y258000D03*
X468760Y260010D03*
Y255010D03*
Y250010D03*
Y245010D03*
X461240Y260010D03*
Y255010D03*
Y250010D03*
Y245010D03*
X473240Y247000D03*
Y252000D03*
Y257000D03*
X456760Y263000D03*
Y268000D03*
Y273000D03*
Y278000D03*
X468760Y280010D03*
Y275010D03*
Y270010D03*
Y265010D03*
X461240Y280010D03*
Y275010D03*
Y270010D03*
Y265010D03*
X473240Y262000D03*
Y267000D03*
Y272000D03*
Y277000D03*
X456760Y283000D03*
Y288000D03*
Y293000D03*
Y298000D03*
X468760Y300010D03*
Y295010D03*
Y290010D03*
Y285010D03*
X461240Y300010D03*
Y295010D03*
Y290010D03*
Y285010D03*
X473240Y282000D03*
Y287000D03*
Y292000D03*
Y297000D03*
X456760Y303000D03*
Y308000D03*
Y313000D03*
Y318000D03*
X468760Y320010D03*
Y315010D03*
Y310010D03*
Y305010D03*
X461240Y320010D03*
Y315010D03*
Y310010D03*
Y305010D03*
X473240Y302000D03*
Y307000D03*
Y312000D03*
Y317000D03*
Y322000D03*
X467000Y328000D03*
X470000Y325000D03*
X464000Y331000D03*
X458000Y337000D03*
X461000Y334000D03*
X472000Y337000D03*
X475000Y334000D03*
X466000Y343000D03*
X469000Y340000D03*
X463000Y346000D03*
X457000Y352000D03*
X460000Y349000D03*
X468000Y355000D03*
X471000Y352000D03*
X465000Y358000D03*
X474000Y349000D03*
X456000Y367000D03*
X459000Y364000D03*
X462000Y361000D03*
X478000Y37000D03*
X486000Y45000D03*
X482000Y41000D03*
X480760Y57000D03*
Y62000D03*
Y67000D03*
X485240Y59990D03*
Y64990D03*
X492760Y54990D03*
Y59990D03*
Y64990D03*
X479000Y52000D03*
X490000Y49000D03*
X480760Y72000D03*
Y77000D03*
Y82000D03*
Y87000D03*
X485240Y69990D03*
Y74990D03*
Y79990D03*
Y84990D03*
X492760Y69990D03*
Y74990D03*
Y79990D03*
Y84990D03*
X480760Y92000D03*
Y97000D03*
Y102000D03*
X485240Y89990D03*
Y94990D03*
Y99990D03*
Y104990D03*
X492760Y89990D03*
Y94990D03*
Y99990D03*
Y104990D03*
X480760Y107000D03*
Y112000D03*
Y117000D03*
Y122000D03*
X485240Y109990D03*
Y114990D03*
Y119990D03*
Y124990D03*
X492760Y109990D03*
Y114990D03*
Y119990D03*
Y124990D03*
X480760Y127000D03*
Y132000D03*
Y137000D03*
Y142000D03*
X485240Y129990D03*
Y134990D03*
Y139990D03*
Y144990D03*
X492760Y129990D03*
Y134990D03*
Y139990D03*
Y144990D03*
X480760Y147000D03*
Y152000D03*
Y157000D03*
Y162000D03*
X485240Y149990D03*
Y154990D03*
Y159990D03*
X492760Y149990D03*
Y154990D03*
Y159990D03*
X480760Y167000D03*
Y172000D03*
Y177000D03*
Y182000D03*
X485240Y164990D03*
Y169990D03*
Y174990D03*
Y179990D03*
X492760Y164990D03*
Y169990D03*
Y174990D03*
Y179990D03*
X480760Y187000D03*
Y192000D03*
Y197000D03*
Y202000D03*
X485240Y184990D03*
Y189990D03*
Y194990D03*
Y199990D03*
X492760Y184990D03*
Y189990D03*
Y194990D03*
Y199990D03*
X480760Y207000D03*
Y212000D03*
Y217000D03*
Y222000D03*
X485240Y204990D03*
Y209990D03*
Y214990D03*
Y219990D03*
X492760Y204990D03*
Y209990D03*
Y214990D03*
Y219990D03*
X480760Y227000D03*
Y232000D03*
Y237000D03*
Y242000D03*
X485240Y224990D03*
Y229990D03*
Y234990D03*
Y239990D03*
X492760Y224990D03*
Y229990D03*
Y234990D03*
Y239990D03*
X480760Y247000D03*
Y252000D03*
Y257000D03*
X485240Y244990D03*
Y249990D03*
Y254990D03*
Y259990D03*
X492760Y244990D03*
Y249990D03*
Y254990D03*
Y259990D03*
X480760Y262000D03*
Y267000D03*
Y272000D03*
Y277000D03*
X485240Y264990D03*
Y269990D03*
Y274990D03*
Y279990D03*
X492760Y264990D03*
Y269990D03*
Y274990D03*
Y279990D03*
X480760Y282000D03*
Y287000D03*
Y292000D03*
Y297000D03*
X485240Y284990D03*
Y289990D03*
Y294990D03*
Y299990D03*
X492760Y284990D03*
Y289990D03*
Y294990D03*
Y299990D03*
X480760Y302000D03*
Y307000D03*
Y312000D03*
Y317000D03*
X485240Y304990D03*
Y309990D03*
Y314990D03*
Y319990D03*
X492760Y304990D03*
Y309990D03*
Y314990D03*
Y319990D03*
X480760Y322000D03*
Y327000D03*
X485240Y324990D03*
X492760D03*
Y329990D03*
X486000Y337000D03*
X479000Y330000D03*
X490000Y333000D03*
X483000Y340000D03*
X480000Y343000D03*
X477000Y346000D03*
G54D12*
X20000Y20000D03*
Y400000D03*
X480000Y20000D03*
Y400000D03*
G54D13*
X20000Y100000D03*
Y120000D03*
Y150000D03*
Y170000D03*
Y240000D03*
Y260000D03*
Y290000D03*
Y310000D03*
X40000Y100000D03*
Y120000D03*
Y150000D03*
Y170000D03*
Y240000D03*
Y260000D03*
Y290000D03*
Y310000D03*
X70000Y100000D03*
Y120000D03*
Y150000D03*
Y170000D03*
Y240000D03*
Y260000D03*
Y290000D03*
Y310000D03*
X90000Y100000D03*
Y120000D03*
Y150000D03*
Y170000D03*
Y240000D03*
Y260000D03*
Y290000D03*
Y310000D03*
X120000Y100000D03*
Y120000D03*
Y150000D03*
Y170000D03*
Y240000D03*
Y260000D03*
Y290000D03*
Y310000D03*
X140000Y100000D03*
Y120000D03*
Y150000D03*
Y170000D03*
Y240000D03*
Y260000D03*
Y290000D03*
Y310000D03*
X170000Y100000D03*
Y120000D03*
Y150000D03*
Y170000D03*
Y240000D03*
Y260000D03*
X169000Y290000D03*
Y310000D03*
X190000Y100000D03*
Y120000D03*
Y150000D03*
Y170000D03*
Y240000D03*
Y260000D03*
X189000Y290000D03*
Y310000D03*
X220000Y100000D03*
Y120000D03*
Y150000D03*
Y170000D03*
Y240000D03*
Y260000D03*
Y290000D03*
Y310000D03*
X240000Y100000D03*
Y120000D03*
Y150000D03*
Y170000D03*
Y240000D03*
Y260000D03*
Y290000D03*
Y310000D03*
X270000Y100000D03*
Y120000D03*
Y150000D03*
Y170000D03*
Y240000D03*
Y260000D03*
Y290000D03*
Y310000D03*
X290000Y100000D03*
Y120000D03*
Y150000D03*
Y170000D03*
Y240000D03*
Y260000D03*
Y290000D03*
Y310000D03*
X320000Y100000D03*
Y120000D03*
Y150000D03*
Y170000D03*
Y240000D03*
Y260000D03*
Y290000D03*
Y310000D03*
X340000Y100000D03*
Y120000D03*
Y150000D03*
Y170000D03*
Y240000D03*
Y260000D03*
Y290000D03*
Y310000D03*
X370000Y100000D03*
Y120000D03*
Y150000D03*
Y170000D03*
Y240000D03*
Y260000D03*
Y290000D03*
Y310000D03*
X390000Y100000D03*
Y120000D03*
Y150000D03*
Y170000D03*
Y240000D03*
Y260000D03*
Y290000D03*
Y310000D03*
G54D14*
X54500Y5000D03*
X144500D03*
X234500D03*
X324500D03*
G54D15*
X64500D03*
Y15000D03*
X54500D03*
X84500Y5000D03*
X74500D03*
X84500Y15000D03*
X74500D03*
X104500Y5000D03*
X94500D03*
X104500Y15000D03*
X94500D03*
X144500D03*
X164500Y5000D03*
X154500D03*
X164500Y15000D03*
X154500D03*
X184500Y5000D03*
X174500D03*
X184500Y15000D03*
X174500D03*
X194500Y5000D03*
Y15000D03*
X244500Y5000D03*
Y15000D03*
X234500D03*
X264500Y5000D03*
X254500D03*
X264500Y15000D03*
X254500D03*
X284500Y5000D03*
X274500D03*
X284500Y15000D03*
X274500D03*
X334500Y5000D03*
Y15000D03*
X324500D03*
X354500Y5000D03*
X344500D03*
X354500Y15000D03*
X344500D03*
X374500Y5000D03*
X364500D03*
X374500Y15000D03*
X364500D03*
G54D16*
G01X20000Y95280D02*
Y100000D01*
G01D02*
Y104720D01*
G01X15280Y100000D02*
X20000D01*
G01D02*
X24720D01*
G01X20000Y115280D02*
Y120000D01*
G01D02*
Y124720D01*
G01X15280Y120000D02*
X20000D01*
G01D02*
X24720D01*
G01X20000Y150000D02*
Y154720D01*
G01X15280Y150000D02*
X20000D01*
G01D02*
X24720D01*
G01X20000Y165280D02*
Y170000D01*
G01D02*
Y174720D01*
G01X15280Y170000D02*
X20000D01*
G01D02*
X24720D01*
G01X20000Y235280D02*
Y240000D01*
G01D02*
Y244720D01*
G01X15280Y240000D02*
X20000D01*
G01D02*
X24720D01*
G01X20000Y255280D02*
Y260000D01*
G01D02*
Y264720D01*
G01X15280Y260000D02*
X20000D01*
G01D02*
X24720D01*
G01X20000Y285280D02*
Y290000D01*
G01D02*
Y294720D01*
G01X15280Y290000D02*
X20000D01*
G01D02*
X24720D01*
G01X20000Y305280D02*
Y310000D01*
G01D02*
Y314720D01*
G01X15280Y310000D02*
X20000D01*
G01D02*
X24720D01*
G01X40000Y95280D02*
Y100000D01*
G01D02*
Y104720D01*
G01X35280Y100000D02*
X40000D01*
G01D02*
X44720D01*
G01X40000Y115280D02*
Y120000D01*
G01X35280D02*
X40000D01*
G01D02*
X44720D01*
G01X40000Y150000D02*
Y154720D01*
G01X35280Y150000D02*
X40000D01*
G01D02*
X44720D01*
G01X40000Y165280D02*
Y170000D01*
G01D02*
Y174720D01*
G01X35280Y170000D02*
X40000D01*
G01D02*
X44720D01*
G01X40000Y235280D02*
Y240000D01*
G01D02*
Y244720D01*
G01X35280Y240000D02*
X40000D01*
G01D02*
X44720D01*
G01X40000Y255280D02*
Y260000D01*
G01D02*
Y264720D01*
G01X35280Y260000D02*
X40000D01*
G01D02*
X44720D01*
G01X40000Y285280D02*
Y290000D01*
G01D02*
Y294720D01*
G01X35280Y290000D02*
X40000D01*
G01D02*
X44720D01*
G01X40000Y305280D02*
Y310000D01*
G01D02*
X44720D01*
G01X65280Y100000D02*
X70000D01*
G01X65280Y120000D02*
X70000D01*
G01X65280Y150000D02*
X70000D01*
G01X65280Y170000D02*
X70000D01*
G01X65280Y240000D02*
X70000D01*
G01X65280Y260000D02*
X70000D01*
G01X65280Y290000D02*
X70000D01*
G01X65280Y310000D02*
X70000D01*
G01Y95280D02*
Y100000D01*
G01D02*
Y104720D01*
G01Y100000D02*
X74720D01*
G01X85280D02*
X90000D01*
G01X70000Y115280D02*
Y120000D01*
G01D02*
Y124720D01*
G01Y120000D02*
X74720D01*
G01X85280D02*
X90000D01*
G01X70000Y145280D02*
Y150000D01*
G01D02*
Y154720D01*
G01Y150000D02*
X74720D01*
G01X85280D02*
X90000D01*
G01X70000Y165280D02*
Y170000D01*
G01D02*
Y174720D01*
G01Y170000D02*
X74720D01*
G01X85280D02*
X90000D01*
G01X85280Y240000D02*
X90000D01*
G01X70000Y235280D02*
Y240000D01*
G01D02*
Y244720D01*
G01Y240000D02*
X74720D01*
G01X85280Y260000D02*
X90000D01*
G01X70000Y255280D02*
Y260000D01*
G01D02*
Y264720D01*
G01Y260000D02*
X74720D01*
G01X70000Y285280D02*
Y290000D01*
G01D02*
Y294720D01*
G01Y290000D02*
X74720D01*
G01X85280D02*
X90000D01*
G01X70000Y305280D02*
Y310000D01*
G01D02*
Y314720D01*
G01Y310000D02*
X74720D01*
G01X85280D02*
X90000D01*
G01X94500Y1320D02*
Y5000D01*
G01D02*
Y8680D01*
G01X90820Y5000D02*
X94500D01*
G01D02*
X98180D01*
G01X94500Y11320D02*
Y15000D01*
G01D02*
X98180D01*
G01X90000Y95280D02*
Y100000D01*
G01D02*
Y104720D01*
G01Y100000D02*
X94720D01*
G01X90000Y115280D02*
Y120000D01*
G01D02*
Y124720D01*
G01Y120000D02*
X94720D01*
G01X90000Y145280D02*
Y150000D01*
G01D02*
Y154720D01*
G01Y150000D02*
X94720D01*
G01X90000Y165280D02*
Y170000D01*
G01D02*
Y174720D01*
G01Y170000D02*
X94720D01*
G01X90000Y235280D02*
Y240000D01*
G01D02*
Y244720D01*
G01Y240000D02*
X94720D01*
G01X90000Y255280D02*
Y260000D01*
G01D02*
Y264720D01*
G01Y260000D02*
X94720D01*
G01X90000Y285280D02*
Y290000D01*
G01D02*
Y294720D01*
G01Y290000D02*
X94720D01*
G01X90000Y305280D02*
Y310000D01*
G01D02*
Y314720D01*
G01Y310000D02*
X94720D01*
G01X120000Y100000D02*
Y104720D01*
G01X115280Y100000D02*
X120000D01*
G01D02*
X124720D01*
G01X120000Y115280D02*
Y120000D01*
G01D02*
Y124720D01*
G01X115280Y120000D02*
X120000D01*
G01D02*
X124720D01*
G01X120000Y145280D02*
Y150000D01*
G01D02*
Y154720D01*
G01X115280Y150000D02*
X120000D01*
G01D02*
X124720D01*
G01X120000Y165280D02*
Y170000D01*
G01D02*
Y174720D01*
G01X115280Y170000D02*
X120000D01*
G01D02*
X124720D01*
G01X120000Y235280D02*
Y240000D01*
G01D02*
Y244720D01*
G01X115280Y240000D02*
X120000D01*
G01D02*
X124720D01*
G01X120000Y255280D02*
Y260000D01*
G01D02*
Y264720D01*
G01X115280Y260000D02*
X120000D01*
G01D02*
X124720D01*
G01X120000Y285280D02*
Y290000D01*
G01D02*
Y294720D01*
G01X115280Y290000D02*
X120000D01*
G01D02*
X124720D01*
G01X120000Y305280D02*
Y310000D01*
G01D02*
Y314720D01*
G01X115280Y310000D02*
X120000D01*
G01D02*
X124720D01*
G01X140000Y100000D02*
Y104720D01*
G01X135280Y100000D02*
X140000D01*
G01D02*
X144720D01*
G01X140000Y115280D02*
Y120000D01*
G01D02*
Y124720D01*
G01X135280Y120000D02*
X140000D01*
G01D02*
X144720D01*
G01X140000Y150000D02*
Y154720D01*
G01X135280Y150000D02*
X140000D01*
G01D02*
X144720D01*
G01X140000Y165280D02*
Y170000D01*
G01D02*
Y174720D01*
G01X135280Y170000D02*
X140000D01*
G01D02*
X144720D01*
G01X140000Y235280D02*
Y240000D01*
G01D02*
Y244720D01*
G01X135280Y240000D02*
X140000D01*
G01D02*
X144720D01*
G01X140000Y255280D02*
Y260000D01*
G01D02*
Y264720D01*
G01X135280Y260000D02*
X140000D01*
G01D02*
X144720D01*
G01X140000Y285280D02*
Y290000D01*
G01D02*
Y294720D01*
G01X135280Y290000D02*
X140000D01*
G01D02*
X144720D01*
G01X140000Y305280D02*
Y310000D01*
G01D02*
Y314720D01*
G01X135280Y310000D02*
X140000D01*
G01D02*
X144720D01*
G01X180820Y5000D02*
X184500D01*
G01X180820Y15000D02*
X184500D01*
G01X170000Y95280D02*
Y100000D01*
G01D02*
Y104720D01*
G01X165280Y100000D02*
X170000D01*
G01D02*
X174720D01*
G01X170000Y115280D02*
Y120000D01*
G01D02*
Y124720D01*
G01X165280Y120000D02*
X170000D01*
G01D02*
X174720D01*
G01X170000Y145280D02*
Y150000D01*
G01D02*
Y154720D01*
G01X165280Y150000D02*
X170000D01*
G01D02*
X174720D01*
G01X170000Y165280D02*
Y170000D01*
G01D02*
Y174720D01*
G01X165280Y170000D02*
X170000D01*
G01D02*
X174720D01*
G01X170000Y235280D02*
Y240000D01*
G01D02*
Y244720D01*
G01X165280Y240000D02*
X170000D01*
G01D02*
X174720D01*
G01X170000Y255280D02*
Y260000D01*
G01D02*
Y264720D01*
G01X165280Y260000D02*
X170000D01*
G01D02*
X174720D01*
G01X169000Y285280D02*
Y290000D01*
G01D02*
Y294720D01*
G01X164280Y290000D02*
X169000D01*
G01D02*
X173720D01*
G01X169000Y305280D02*
Y310000D01*
G01D02*
Y314720D01*
G01X164280Y310000D02*
X169000D01*
G01D02*
X173720D01*
G01X184500Y1320D02*
Y5000D01*
G01D02*
Y8680D01*
G01Y5000D02*
X188180D01*
G01X184500Y11320D02*
Y15000D01*
G01D02*
X188180D01*
G01X190000Y95280D02*
Y100000D01*
G01D02*
Y104720D01*
G01X185280Y100000D02*
X190000D01*
G01D02*
X194720D01*
G01X190000Y115280D02*
Y120000D01*
G01X185280D02*
X190000D01*
G01D02*
X194720D01*
G01X190000Y145280D02*
Y150000D01*
G01D02*
Y154720D01*
G01X185280Y150000D02*
X190000D01*
G01D02*
X194720D01*
G01X190000Y165280D02*
Y170000D01*
G01D02*
Y174720D01*
G01X185280Y170000D02*
X190000D01*
G01D02*
X194720D01*
G01X190000Y235280D02*
Y240000D01*
G01D02*
Y244720D01*
G01X185280Y240000D02*
X190000D01*
G01D02*
X194720D01*
G01X190000Y255280D02*
Y260000D01*
G01D02*
Y264720D01*
G01X185280Y260000D02*
X190000D01*
G01D02*
X194720D01*
G01X189000Y285280D02*
Y290000D01*
G01D02*
Y294720D01*
G01X184280Y290000D02*
X189000D01*
G01D02*
X193720D01*
G01X189000Y305280D02*
Y310000D01*
G01D02*
Y314720D01*
G01X184280Y310000D02*
X189000D01*
G01D02*
X193720D01*
G01X220000Y100000D02*
Y104720D01*
G01X215280Y100000D02*
X220000D01*
G01D02*
X224720D01*
G01X220000Y115280D02*
Y120000D01*
G01D02*
Y124720D01*
G01X215280Y120000D02*
X220000D01*
G01D02*
X224720D01*
G01X220000Y145280D02*
Y150000D01*
G01D02*
Y154720D01*
G01X215280Y150000D02*
X220000D01*
G01D02*
X224720D01*
G01X220000Y165280D02*
Y170000D01*
G01D02*
Y174720D01*
G01X215280Y170000D02*
X220000D01*
G01D02*
X224720D01*
G01X220000Y235280D02*
Y240000D01*
G01D02*
Y244720D01*
G01X215280Y240000D02*
X220000D01*
G01D02*
X224720D01*
G01X220000Y255280D02*
Y260000D01*
G01D02*
Y264720D01*
G01X215280Y260000D02*
X220000D01*
G01D02*
X224720D01*
G01X220000Y285280D02*
Y290000D01*
G01D02*
Y294720D01*
G01X215280Y290000D02*
X220000D01*
G01D02*
X224720D01*
G01X220000Y305280D02*
Y310000D01*
G01D02*
Y314720D01*
G01X215280Y310000D02*
X220000D01*
G01D02*
X224720D01*
G01X240000Y100000D02*
Y104720D01*
G01X235280Y100000D02*
X240000D01*
G01D02*
X244720D01*
G01X240000Y115280D02*
Y120000D01*
G01D02*
Y124720D01*
G01X235280Y120000D02*
X240000D01*
G01D02*
X244720D01*
G01X240000Y145280D02*
Y150000D01*
G01D02*
Y154720D01*
G01X235280Y150000D02*
X240000D01*
G01D02*
X244720D01*
G01X240000Y165280D02*
Y170000D01*
G01D02*
Y174720D01*
G01X235280Y170000D02*
X240000D01*
G01D02*
X244720D01*
G01X240000Y235280D02*
Y240000D01*
G01D02*
Y244720D01*
G01X235280Y240000D02*
X240000D01*
G01D02*
X244720D01*
G01X240000Y255280D02*
Y260000D01*
G01D02*
Y264720D01*
G01X235280Y260000D02*
X240000D01*
G01D02*
X244720D01*
G01X240000Y285280D02*
Y290000D01*
G01D02*
Y294720D01*
G01X235280Y290000D02*
X240000D01*
G01D02*
X244720D01*
G01X240000Y305280D02*
Y310000D01*
G01D02*
Y314720D01*
G01X235280Y310000D02*
X240000D01*
G01D02*
X244720D01*
G01X274500Y1320D02*
Y5000D01*
G01D02*
Y8680D01*
G01X270820Y5000D02*
X274500D01*
G01D02*
X278180D01*
G01X274500Y11320D02*
Y15000D01*
G01D02*
Y18680D01*
G01X270820Y15000D02*
X274500D01*
G01D02*
X278180D01*
G01X270000Y95280D02*
Y100000D01*
G01D02*
Y104720D01*
G01X265280Y100000D02*
X270000D01*
G01D02*
X274720D01*
G01X270000Y115280D02*
Y120000D01*
G01D02*
Y124720D01*
G01X265280Y120000D02*
X270000D01*
G01D02*
X274720D01*
G01X270000Y145280D02*
Y150000D01*
G01D02*
Y154720D01*
G01X265280Y150000D02*
X270000D01*
G01D02*
X274720D01*
G01X270000Y165280D02*
Y170000D01*
G01D02*
Y174720D01*
G01X265280Y170000D02*
X270000D01*
G01D02*
X274720D01*
G01X270000Y235280D02*
Y240000D01*
G01D02*
Y244720D01*
G01X265280Y240000D02*
X270000D01*
G01D02*
X274720D01*
G01X270000Y255280D02*
Y260000D01*
G01D02*
Y264720D01*
G01X265280Y260000D02*
X270000D01*
G01D02*
X274720D01*
G01X270000Y285280D02*
Y290000D01*
G01D02*
Y294720D01*
G01X265280Y290000D02*
X270000D01*
G01D02*
X274720D01*
G01X270000Y305280D02*
Y310000D01*
G01D02*
Y314720D01*
G01X265280Y310000D02*
X270000D01*
G01D02*
X274720D01*
G01X290000Y95280D02*
Y100000D01*
G01D02*
Y104720D01*
G01X285280Y100000D02*
X290000D01*
G01D02*
X294720D01*
G01X290000Y115280D02*
Y120000D01*
G01D02*
Y124720D01*
G01X285280Y120000D02*
X290000D01*
G01D02*
X294720D01*
G01X290000Y145280D02*
Y150000D01*
G01D02*
Y154720D01*
G01X285280Y150000D02*
X290000D01*
G01D02*
X294720D01*
G01X290000Y165280D02*
Y170000D01*
G01D02*
Y174720D01*
G01X285280Y170000D02*
X290000D01*
G01D02*
X294720D01*
G01X290000Y235280D02*
Y240000D01*
G01D02*
Y244720D01*
G01X285280Y240000D02*
X290000D01*
G01D02*
X294720D01*
G01X290000Y255280D02*
Y260000D01*
G01D02*
Y264720D01*
G01X285280Y260000D02*
X290000D01*
G01D02*
X294720D01*
G01X290000Y285280D02*
Y290000D01*
G01D02*
Y294720D01*
G01X285280Y290000D02*
X290000D01*
G01D02*
X294720D01*
G01X290000Y305280D02*
Y310000D01*
G01D02*
X294720D01*
G01X315280Y100000D02*
X320000D01*
G01X315280Y120000D02*
X320000D01*
G01X315280Y150000D02*
X320000D01*
G01X315280Y170000D02*
X320000D01*
G01X315280Y240000D02*
X320000D01*
G01X315280Y260000D02*
X320000D01*
G01X315280Y290000D02*
X320000D01*
G01X315280Y310000D02*
X320000D01*
G01Y95280D02*
Y100000D01*
G01D02*
Y104720D01*
G01Y100000D02*
X324720D01*
G01X335280D02*
X340000D01*
G01X335280Y120000D02*
X340000D01*
G01X320000Y115280D02*
Y120000D01*
G01D02*
Y124720D01*
G01Y120000D02*
X324720D01*
G01X320000Y145280D02*
Y150000D01*
G01D02*
Y154720D01*
G01Y150000D02*
X324720D01*
G01X335280D02*
X340000D01*
G01X320000Y165280D02*
Y170000D01*
G01D02*
Y174720D01*
G01Y170000D02*
X324720D01*
G01X335280D02*
X340000D01*
G01X335280Y240000D02*
X340000D01*
G01X320000Y235280D02*
Y240000D01*
G01D02*
Y244720D01*
G01Y240000D02*
X324720D01*
G01X320000Y255280D02*
Y260000D01*
G01D02*
Y264720D01*
G01Y260000D02*
X324720D01*
G01X335280D02*
X340000D01*
G01X320000Y285280D02*
Y290000D01*
G01D02*
Y294720D01*
G01Y290000D02*
X324720D01*
G01X335280D02*
X340000D01*
G01X320000Y305280D02*
Y310000D01*
G01D02*
Y314720D01*
G01Y310000D02*
X324720D01*
G01X335280D02*
X340000D01*
G01Y95280D02*
Y100000D01*
G01D02*
Y104720D01*
G01Y100000D02*
X344720D01*
G01X340000Y115280D02*
Y120000D01*
G01D02*
Y124720D01*
G01Y120000D02*
X344720D01*
G01X340000Y145280D02*
Y150000D01*
G01D02*
Y154720D01*
G01Y150000D02*
X344720D01*
G01X340000Y165280D02*
Y170000D01*
G01D02*
Y174720D01*
G01Y170000D02*
X344720D01*
G01X340000Y235280D02*
Y240000D01*
G01D02*
Y244720D01*
G01Y240000D02*
X344720D01*
G01X340000Y255280D02*
Y260000D01*
G01D02*
Y264720D01*
G01Y260000D02*
X344720D01*
G01X340000Y285280D02*
Y290000D01*
G01D02*
Y294720D01*
G01Y290000D02*
X344720D01*
G01X340000Y305280D02*
Y310000D01*
G01D02*
Y314720D01*
G01Y310000D02*
X344720D01*
G01X364500Y1320D02*
Y5000D01*
G01D02*
Y8680D01*
G01X360820Y5000D02*
X364500D01*
G01D02*
X368180D01*
G01X364500Y11320D02*
Y15000D01*
G01D02*
Y18680D01*
G01X360820Y15000D02*
X364500D01*
G01D02*
X368180D01*
G01X370000Y95280D02*
Y100000D01*
G01D02*
Y104720D01*
G01X365280Y100000D02*
X370000D01*
G01D02*
X374720D01*
G01X370000Y115280D02*
Y120000D01*
G01D02*
Y124720D01*
G01X365280Y120000D02*
X370000D01*
G01D02*
X374720D01*
G01X370000Y145280D02*
Y150000D01*
G01D02*
Y154720D01*
G01X365280Y150000D02*
X370000D01*
G01D02*
X374720D01*
G01X370000Y165280D02*
Y170000D01*
G01D02*
Y174720D01*
G01X365280Y170000D02*
X370000D01*
G01D02*
X374720D01*
G01X370000Y235280D02*
Y240000D01*
G01D02*
Y244720D01*
G01X365280Y240000D02*
X370000D01*
G01D02*
X374720D01*
G01X370000Y255280D02*
Y260000D01*
G01D02*
Y264720D01*
G01X365280Y260000D02*
X370000D01*
G01D02*
X374720D01*
G01X370000Y285280D02*
Y290000D01*
G01D02*
Y294720D01*
G01X365280Y290000D02*
X370000D01*
G01D02*
X374720D01*
G01X370000Y305280D02*
Y310000D01*
G01D02*
Y314720D01*
G01X365280Y310000D02*
X370000D01*
G01D02*
X374720D01*
G01X390000Y95280D02*
Y100000D01*
G01D02*
Y104720D01*
G01X385280Y100000D02*
X390000D01*
G01D02*
X394720D01*
G01X390000Y115280D02*
Y120000D01*
G01D02*
Y124720D01*
G01X385280Y120000D02*
X390000D01*
G01D02*
X394720D01*
G01X390000Y145280D02*
Y150000D01*
G01D02*
Y154720D01*
G01X385280Y150000D02*
X390000D01*
G01D02*
X394720D01*
G01X390000Y165280D02*
Y170000D01*
G01D02*
Y174720D01*
G01X385280Y170000D02*
X390000D01*
G01D02*
X394720D01*
G01X390000Y235280D02*
Y240000D01*
G01D02*
Y244720D01*
G01X385280Y240000D02*
X390000D01*
G01D02*
X394720D01*
G01X390000Y255280D02*
Y260000D01*
G01D02*
Y264720D01*
G01X385280Y260000D02*
X390000D01*
G01D02*
X394720D01*
G01X390000Y285280D02*
Y290000D01*
G01D02*
Y294720D01*
G01X385280Y290000D02*
X390000D01*
G01D02*
X394720D01*
G01X390000Y305280D02*
Y310000D01*
G01D02*
Y314720D01*
G01X385280Y310000D02*
X390000D01*
G01D02*
X394720D01*
G54D17*
G01X54500Y15000D02*
X46000D01*
X41000Y20000D01*
Y52370D01*
X39620Y53750D01*
X11380D01*
X10000Y55130D01*
Y71620D01*
X11380Y73000D01*
X36760D01*
X38140Y74380D01*
Y88620D01*
X36760Y90000D01*
X11380D01*
X10000Y91380D01*
Y141620D01*
X11380Y143000D01*
X38620D01*
X40000Y141620D01*
Y128380D01*
X38620Y127000D01*
X36000D01*
X30000Y121000D01*
Y110000D01*
G01Y300000D02*
Y307350D01*
X130650Y408000D01*
X408000D01*
X489000Y327000D01*
Y55000D01*
X458000Y24000D01*
X359000D01*
X354500Y19500D01*
Y15000D01*
G01X64500Y5000D02*
X70000Y10500D01*
Y16990D01*
X63000Y23990D01*
Y72010D01*
X79990Y89000D01*
X100000D01*
X106000Y95000D01*
Y171620D01*
X104620Y173000D01*
X100380D01*
X99000Y171620D01*
Y146000D01*
X95000Y142000D01*
X81380D01*
X80000Y140620D01*
Y110000D01*
G01X74500Y5000D02*
X80000Y10500D01*
Y52000D01*
X121000Y93000D01*
X146000D01*
X155000Y102000D01*
Y164760D01*
X153620Y166140D01*
X149380D01*
X148000Y164760D01*
Y144380D01*
X146620Y143000D01*
X131380D01*
X130000Y141620D01*
Y110000D01*
G01X180000D02*
Y125620D01*
X181380Y127000D01*
X205620D01*
X207000Y128380D01*
Y139620D01*
X205620Y141000D01*
X162380D01*
X161000Y139620D01*
Y87350D01*
X156650Y83000D01*
X125000D01*
X104500Y62500D01*
Y31490D01*
X89000Y15990D01*
Y9500D01*
X84500Y5000D01*
G01X344500Y15000D02*
Y25500D01*
X349000Y30000D01*
X450000D01*
X477000Y57000D01*
Y325000D01*
X408000Y394000D01*
X163010D01*
X80000Y310990D01*
Y300000D01*
G01X130000D02*
Y311000D01*
X199000Y380000D01*
X409000D01*
X465000Y324000D01*
Y59000D01*
X442000Y36000D01*
X343000D01*
X334500Y27500D01*
Y15000D01*
G01X280000Y110000D02*
Y132620D01*
X281380Y134000D01*
X304620D01*
X306000Y132620D01*
Y103000D01*
X293000Y90000D01*
X212000D01*
X158650Y36650D01*
Y9150D01*
X154500Y5000D01*
G01X280000Y160000D02*
Y183620D01*
X278620Y185000D01*
X255380D01*
X254000Y183620D01*
Y96000D01*
X252000Y94000D01*
X205000D01*
X154500Y43500D01*
Y15000D01*
G01X174500D02*
X179500Y20000D01*
X203000D01*
X257000Y74000D01*
X331000D01*
X356000Y99000D01*
Y117000D01*
X380000Y141000D01*
Y160000D01*
G01X179000Y300000D02*
Y311000D01*
X234000Y366000D01*
X408000D01*
X453000Y321000D01*
Y63000D01*
X432000Y42000D01*
X334000D01*
X324500Y32500D01*
Y15000D01*
G01X234500D02*
Y20500D01*
X280000Y66000D01*
X396000D01*
X406000Y76000D01*
Y288000D01*
X394000Y300000D01*
X380000D01*
G01X264500Y15000D02*
Y22500D01*
X290000Y48000D01*
X423000D01*
X441000Y66000D01*
Y319000D01*
X408000Y352000D01*
X272000D01*
X230000Y310000D01*
Y300000D01*
G01X330000D02*
Y312000D01*
X344000Y326000D01*
X406000D01*
X417000Y315000D01*
Y73000D01*
X404000Y60000D01*
X283000D01*
X244500Y21500D01*
Y15000D01*
G01X254500D02*
Y22500D01*
X286000Y54000D01*
X413000D01*
X429000Y70000D01*
Y318000D01*
X409000Y338000D01*
X310650D01*
X280000Y307350D01*
Y300000D01*
M02*
